pitch,vel,dur,db(lab),db(audi),duration(lab),duration(audi)
21.0,1.0,0.1,26.338645935058594,29.557518005371094,0.0,0.0
21.0,1.0,0.3,26.338645935058594,29.557518005371094,0.0,0.0
21.0,1.0,0.7,26.338645935058594,29.557518005371094,0.0,0.0
21.0,1.0,1.0,26.338645935058594,29.557518005371094,0.0,0.0
21.0,9.0,0.1,26.148101806640625,31.516231536865234,0.0,0.0
21.0,9.0,0.3,26.148101806640625,31.516231536865234,0.0,0.0
21.0,9.0,0.7,26.148101806640625,31.516231536865234,0.0,0.0
21.0,9.0,1.0,26.148101806640625,31.516231536865234,0.0,0.0
21.0,17.0,0.1,23.310287475585938,30.981163024902344,0.0,0.0
21.0,17.0,0.3,23.310287475585938,30.981163024902344,0.0,0.0
21.0,17.0,0.7,23.310287475585938,30.981163024902344,0.0,0.0
21.0,17.0,1.0,23.310287475585938,30.981163024902344,0.0,0.0
21.0,25.0,0.1,17.593093872070312,32.905364990234375,0.0,0.0
21.0,25.0,0.3,17.593093872070312,32.905364990234375,0.0,0.0
21.0,25.0,0.7,17.593093872070312,32.905364990234375,0.0,0.0
21.0,25.0,1.0,17.593093872070312,32.905364990234375,0.0,0.0
21.0,33.0,0.1,40.02566146850586,54.435997009277344,0.0,0.0
21.0,33.0,0.3,40.02566146850586,54.435997009277344,0.0,0.0
21.0,33.0,0.7,40.02566146850586,54.435997009277344,0.0,0.0
21.0,33.0,1.0,40.02566146850586,54.435997009277344,0.0,0.0
21.0,41.0,0.1,25.417373657226562,58.29901885986328,0.0,0.0
21.0,41.0,0.3,25.417373657226562,58.29901885986328,0.0,0.0
21.0,41.0,0.7,25.417373657226562,58.29901885986328,0.0,0.0
21.0,41.0,1.0,25.417373657226562,58.29901885986328,0.0,0.0
21.0,49.0,0.1,27.777923583984375,60.8577880859375,0.0,0.0
21.0,49.0,0.3,27.777923583984375,60.8577880859375,0.0,0.0
21.0,49.0,0.7,27.777923583984375,60.8577880859375,0.0,0.0
21.0,49.0,1.0,27.777923583984375,60.8577880859375,0.0,0.0
21.0,57.0,0.1,31.15045928955078,63.88824462890625,0.0,0.0
21.0,57.0,0.3,31.15045928955078,63.88824462890625,0.0,0.0
21.0,57.0,0.7,31.15045928955078,63.88824462890625,0.0,0.0
21.0,57.0,1.0,31.15045928955078,63.88824462890625,0.0,0.0
21.0,65.0,0.1,53.32561492919922,66.23977661132812,0.0,0.0
21.0,65.0,0.3,53.32561492919922,66.23977661132812,0.0,0.0
21.0,65.0,0.7,53.32561492919922,66.23977661132812,0.0,0.0
21.0,65.0,1.0,53.32561492919922,66.23977661132812,0.0,0.0
21.0,73.0,0.1,55.2847900390625,68.11454010009766,0.0,0.0
21.0,73.0,0.3,55.2847900390625,68.11454010009766,0.0,0.0
21.0,73.0,0.7,55.2847900390625,68.11454010009766,0.0,0.0
21.0,73.0,1.0,55.2847900390625,68.11454010009766,0.0,0.0
21.0,81.0,0.1,57.58692932128906,70.38822174072266,0.0,0.0
21.0,81.0,0.3,57.58692932128906,70.38822174072266,0.0,0.0
21.0,81.0,0.7,57.58692932128906,70.38822174072266,0.0,0.0
21.0,81.0,1.0,57.58692932128906,70.38822174072266,0.0,0.0
21.0,89.0,0.1,59.41135787963867,72.55187225341797,0.0,0.0
21.0,89.0,0.3,59.41135787963867,72.55187225341797,0.0,0.0
21.0,89.0,0.7,59.41135787963867,72.55187225341797,0.0,0.0
21.0,89.0,1.0,59.41135787963867,72.55187225341797,0.0,0.0
21.0,97.0,0.1,60.76434326171875,77.3321762084961,0.0,0.0
21.0,97.0,0.3,60.76434326171875,77.3321762084961,0.0,0.0
21.0,97.0,0.7,60.76434326171875,77.3321762084961,0.0,0.0
21.0,97.0,1.0,60.76434326171875,77.3321762084961,0.0,0.0
21.0,105.0,0.1,60.726104736328125,79.2254638671875,0.0,0.0
21.0,105.0,0.3,60.726104736328125,79.2254638671875,0.0,0.0
21.0,105.0,0.7,60.726104736328125,79.2254638671875,0.0,0.0
21.0,105.0,1.0,60.726104736328125,79.2254638671875,0.0,0.0
21.0,113.0,0.1,60.75193405151367,78.99896240234375,0.0,0.0
21.0,113.0,0.3,60.75193405151367,78.99896240234375,0.0,0.0
21.0,113.0,0.7,60.75193405151367,78.99896240234375,0.0,0.0
21.0,113.0,1.0,60.75193405151367,78.99896240234375,0.0,0.0
21.0,121.0,0.1,60.72553253173828,78.1768798828125,0.0,0.0
21.0,121.0,0.3,60.72553253173828,78.1768798828125,0.0,0.0
21.0,121.0,0.7,60.72553253173828,78.1768798828125,0.0,0.0
21.0,121.0,1.0,60.72553253173828,78.1768798828125,0.0,0.0
21.0,127.0,0.1,60.59895324707031,78.39533996582031,0.0,0.0
21.0,127.0,0.3,60.59895324707031,78.39533996582031,0.0,0.0
21.0,127.0,0.7,60.59895324707031,78.39533996582031,0.0,0.0
21.0,127.0,1.0,60.59895324707031,78.39533996582031,0.0,0.0
22.0,1.0,0.1,25.878936767578125,31.983470916748047,0.0,0.0
22.0,1.0,0.3,25.878936767578125,31.983470916748047,0.0,0.0
22.0,1.0,0.7,25.878936767578125,31.983470916748047,0.0,0.0
22.0,1.0,1.0,25.878936767578125,31.983470916748047,0.0,0.0
22.0,9.0,0.1,28.036895751953125,32.71503448486328,0.0,0.0
22.0,9.0,0.3,28.036895751953125,32.71503448486328,0.0,0.0
22.0,9.0,0.7,28.036895751953125,32.71503448486328,0.0,0.0
22.0,9.0,1.0,28.036895751953125,32.71503448486328,0.0,0.0
22.0,17.0,0.1,24.49493408203125,32.252140045166016,0.0,0.0
22.0,17.0,0.3,24.49493408203125,32.252140045166016,0.0,0.0
22.0,17.0,0.7,24.49493408203125,32.252140045166016,0.0,0.0
22.0,17.0,1.0,24.49493408203125,32.252140045166016,0.0,0.0
22.0,25.0,0.1,27.481552124023438,54.23624801635742,0.0,0.0
22.0,25.0,0.3,27.481552124023438,54.23624801635742,0.0,0.0
22.0,25.0,0.7,27.481552124023438,54.23624801635742,0.0,0.0
22.0,25.0,1.0,27.481552124023438,54.23624801635742,0.0,0.0
22.0,33.0,0.1,27.28990936279297,56.5235710144043,0.0,0.0
22.0,33.0,0.3,27.28990936279297,56.5235710144043,0.0,0.0
22.0,33.0,0.7,27.28990936279297,56.5235710144043,0.0,0.0
22.0,33.0,1.0,27.28990936279297,56.5235710144043,0.0,0.0
22.0,41.0,0.1,27.384765625,58.97300720214844,0.0,0.0
22.0,41.0,0.3,27.384765625,58.97300720214844,0.0,0.0
22.0,41.0,0.7,27.384765625,58.97300720214844,0.0,0.0
22.0,41.0,1.0,27.384765625,58.97300720214844,0.0,0.0
22.0,49.0,0.1,47.61726379394531,61.32160186767578,0.0,0.0
22.0,49.0,0.3,47.61726379394531,61.32160186767578,0.0,0.0
22.0,49.0,0.7,47.61726379394531,61.32160186767578,0.0,0.0
22.0,49.0,1.0,47.61726379394531,61.32160186767578,0.0,0.0
22.0,57.0,0.1,51.02954864501953,63.72246170043945,0.0,0.0
22.0,57.0,0.3,51.02954864501953,63.72246170043945,0.0,0.0
22.0,57.0,0.7,51.02954864501953,63.72246170043945,0.0,0.0
22.0,57.0,1.0,51.02954864501953,63.72246170043945,0.0,0.0
22.0,65.0,0.1,54.2504768371582,66.1160888671875,0.0,0.0
22.0,65.0,0.3,54.2504768371582,66.1160888671875,0.0,0.0
22.0,65.0,0.7,54.2504768371582,66.1160888671875,0.0,0.0
22.0,65.0,1.0,54.2504768371582,66.1160888671875,0.0,0.0
22.0,73.0,0.1,56.2616081237793,68.0004653930664,0.0,0.0
22.0,73.0,0.3,56.2616081237793,68.0004653930664,0.0,0.0
22.0,73.0,0.7,56.2616081237793,68.0004653930664,0.0,0.0
22.0,73.0,1.0,56.2616081237793,68.0004653930664,0.0,0.0
22.0,81.0,0.1,58.21104049682617,71.0892333984375,0.0,0.0
22.0,81.0,0.3,58.21104049682617,71.0892333984375,0.0,0.0
22.0,81.0,0.7,58.21104049682617,71.0892333984375,0.0,0.0
22.0,81.0,1.0,58.21104049682617,71.0892333984375,0.0,0.0
22.0,89.0,0.1,59.29274368286133,73.18624877929688,0.0,0.0
22.0,89.0,0.3,59.29274368286133,73.18624877929688,0.0,0.0
22.0,89.0,0.7,59.29274368286133,73.18624877929688,0.0,0.0
22.0,89.0,1.0,59.29274368286133,73.18624877929688,0.0,0.0
22.0,97.0,0.1,59.80030059814453,77.47501373291016,0.0,0.0
22.0,97.0,0.3,59.80030059814453,77.47501373291016,0.0,0.0
22.0,97.0,0.7,59.80030059814453,77.47501373291016,0.0,0.0
22.0,97.0,1.0,59.80030059814453,77.47501373291016,0.0,0.0
22.0,105.0,0.1,59.797637939453125,78.58344268798828,0.0,0.0
22.0,105.0,0.3,59.797637939453125,78.58344268798828,0.0,0.0
22.0,105.0,0.7,59.797637939453125,78.58344268798828,0.0,0.0
22.0,105.0,1.0,59.797637939453125,78.58344268798828,0.0,0.0
22.0,113.0,0.1,60.21524429321289,77.40586853027344,0.0,0.0
22.0,113.0,0.3,60.21524429321289,77.40586853027344,0.0,0.0
22.0,113.0,0.7,60.21524429321289,77.40586853027344,0.0,0.0
22.0,113.0,1.0,60.21524429321289,77.40586853027344,0.0,0.0
22.0,121.0,0.1,60.13296127319336,76.54606628417969,0.0,0.0
22.0,121.0,0.3,60.13296127319336,76.54606628417969,0.0,0.0
22.0,121.0,0.7,60.13296127319336,76.54606628417969,0.0,0.0
22.0,121.0,1.0,60.13296127319336,76.54606628417969,0.0,0.0
22.0,127.0,0.1,60.067501068115234,76.98551940917969,0.0,0.0
22.0,127.0,0.3,60.067501068115234,76.98551940917969,0.0,0.0
22.0,127.0,0.7,60.067501068115234,76.98551940917969,0.0,0.0
22.0,127.0,1.0,60.067501068115234,76.98551940917969,0.0,0.0
23.0,1.0,0.1,25.26715850830078,29.84441375732422,0.0,0.0
23.0,1.0,0.3,25.26715850830078,29.84441375732422,0.0,0.0
23.0,1.0,0.7,25.26715850830078,29.84441375732422,0.0,0.0
23.0,1.0,1.0,25.26715850830078,29.84441375732422,0.0,0.0
23.0,9.0,0.1,26.091934204101562,30.422199249267578,0.0,0.0
23.0,9.0,0.3,26.091934204101562,30.422199249267578,0.0,0.0
23.0,9.0,0.7,26.091934204101562,30.422199249267578,0.0,0.0
23.0,9.0,1.0,26.091934204101562,30.422199249267578,0.0,0.0
23.0,17.0,0.1,27.58606719970703,36.36560821533203,0.0,0.0
23.0,17.0,0.3,27.58606719970703,36.36560821533203,0.0,0.0
23.0,17.0,0.7,27.58606719970703,36.36560821533203,0.0,0.0
23.0,17.0,1.0,27.58606719970703,36.36560821533203,0.0,0.0
23.0,25.0,0.1,28.23895263671875,52.46521759033203,0.0,0.0
23.0,25.0,0.3,28.23895263671875,52.46521759033203,0.0,0.0
23.0,25.0,0.7,28.23895263671875,52.46521759033203,0.0,0.0
23.0,25.0,1.0,28.23895263671875,52.46521759033203,0.0,0.0
23.0,33.0,0.1,26.479110717773438,55.28251266479492,0.0,0.0
23.0,33.0,0.3,26.479110717773438,55.28251266479492,0.0,0.0
23.0,33.0,0.7,26.479110717773438,55.28251266479492,0.0,0.0
23.0,33.0,1.0,26.479110717773438,55.28251266479492,0.0,0.0
23.0,41.0,0.1,42.4549674987793,57.84464645385742,0.0,0.0
23.0,41.0,0.3,42.4549674987793,57.84464645385742,0.0,0.0
23.0,41.0,0.7,42.4549674987793,57.84464645385742,0.0,0.0
23.0,41.0,1.0,42.4549674987793,57.84464645385742,0.0,0.0
23.0,49.0,0.1,24.989723205566406,60.27594757080078,0.0,0.0
23.0,49.0,0.3,24.989723205566406,60.27594757080078,0.0,0.0
23.0,49.0,0.7,24.989723205566406,60.27594757080078,0.0,0.0
23.0,49.0,1.0,24.989723205566406,60.27594757080078,0.0,0.0
23.0,57.0,0.1,23.485733032226562,62.481910705566406,0.0,0.0
23.0,57.0,0.3,23.485733032226562,62.481910705566406,0.0,0.0
23.0,57.0,0.7,23.485733032226562,62.481910705566406,0.0,0.0
23.0,57.0,1.0,23.485733032226562,62.481910705566406,0.0,0.0
23.0,65.0,0.1,55.547279357910156,64.86123657226562,0.0,0.0
23.0,65.0,0.3,55.547279357910156,64.86123657226562,0.0,0.0
23.0,65.0,0.7,55.547279357910156,64.86123657226562,0.0,0.0
23.0,65.0,1.0,55.547279357910156,64.86123657226562,0.0,0.0
23.0,73.0,0.1,57.84602355957031,67.22870635986328,0.0,0.0
23.0,73.0,0.3,57.84602355957031,67.22870635986328,0.0,0.0
23.0,73.0,0.7,57.84602355957031,67.22870635986328,0.0,0.0
23.0,73.0,1.0,57.84602355957031,67.22870635986328,0.0,0.0
23.0,81.0,0.1,59.849185943603516,70.03913116455078,0.0,0.0
23.0,81.0,0.3,59.849185943603516,70.03913116455078,0.0,0.0
23.0,81.0,0.7,59.849185943603516,70.03913116455078,0.0,0.0
23.0,81.0,1.0,59.849185943603516,70.03913116455078,0.0,0.0
23.0,89.0,0.1,61.03765869140625,72.73130798339844,0.0,0.0
23.0,89.0,0.3,61.03765869140625,72.73130798339844,0.0,0.0
23.0,89.0,0.7,61.03765869140625,72.73130798339844,0.0,0.0
23.0,89.0,1.0,61.03765869140625,72.73130798339844,0.0,0.0
23.0,97.0,0.1,61.86652374267578,75.42188262939453,0.0,0.0
23.0,97.0,0.3,61.86652374267578,75.42188262939453,0.0,0.0
23.0,97.0,0.7,61.86652374267578,75.42188262939453,0.0,0.0
23.0,97.0,1.0,61.86652374267578,75.42188262939453,0.0,0.0
23.0,105.0,0.1,61.90660858154297,76.84657287597656,0.0,0.0
23.0,105.0,0.3,61.90660858154297,76.84657287597656,0.0,0.0
23.0,105.0,0.7,61.90660858154297,76.84657287597656,0.0,0.0
23.0,105.0,1.0,61.90660858154297,76.84657287597656,0.0,0.0
23.0,113.0,0.1,61.84354782104492,76.03828430175781,0.0,0.0
23.0,113.0,0.3,61.84354782104492,76.03828430175781,0.0,0.0
23.0,113.0,0.7,61.84354782104492,76.03828430175781,0.0,0.0
23.0,113.0,1.0,61.84354782104492,76.03828430175781,0.0,0.0
23.0,121.0,0.1,61.72744369506836,75.80622863769531,0.0,0.0
23.0,121.0,0.3,61.72744369506836,75.80622863769531,0.0,0.0
23.0,121.0,0.7,61.72744369506836,75.80622863769531,0.0,0.0
23.0,121.0,1.0,61.72744369506836,75.80622863769531,0.0,0.0
23.0,127.0,0.1,61.752784729003906,76.58303833007812,0.0,0.0
23.0,127.0,0.3,61.752784729003906,76.58303833007812,0.0,0.0
23.0,127.0,0.7,61.752784729003906,76.58303833007812,0.0,0.0
23.0,127.0,1.0,61.752784729003906,76.58303833007812,0.0,0.0
24.0,1.0,0.1,26.134429931640625,29.196731567382812,0.0,0.0
24.0,1.0,0.3,26.134429931640625,29.196731567382812,0.0,0.0
24.0,1.0,0.7,26.134429931640625,29.196731567382812,0.0,0.0
24.0,1.0,1.0,26.134429931640625,29.196731567382812,0.0,0.0
24.0,9.0,0.1,26.045578002929688,30.633037567138672,0.0,0.0
24.0,9.0,0.3,26.045578002929688,30.633037567138672,0.0,0.0
24.0,9.0,0.7,26.045578002929688,30.633037567138672,0.0,0.0
24.0,9.0,1.0,26.045578002929688,30.633037567138672,0.0,0.0
24.0,17.0,0.1,25.582984924316406,31.330516815185547,0.0,0.0
24.0,17.0,0.3,25.582984924316406,31.330516815185547,0.0,0.0
24.0,17.0,0.7,25.582984924316406,31.330516815185547,0.0,0.0
24.0,17.0,1.0,25.582984924316406,31.330516815185547,0.0,0.0
24.0,25.0,0.1,25.062828063964844,33.51290512084961,0.0,0.0
24.0,25.0,0.3,25.062828063964844,33.51290512084961,0.0,0.0
24.0,25.0,0.7,25.062828063964844,33.51290512084961,0.0,0.0
24.0,25.0,1.0,25.062828063964844,33.51290512084961,0.0,0.0
24.0,33.0,0.1,26.541664123535156,55.00738525390625,0.0,0.0
24.0,33.0,0.3,26.541664123535156,55.00738525390625,0.0,0.0
24.0,33.0,0.7,26.541664123535156,55.00738525390625,0.0,0.0
24.0,33.0,1.0,26.541664123535156,55.00738525390625,0.0,0.0
24.0,41.0,0.1,28.725326538085938,57.85277557373047,0.0,0.0
24.0,41.0,0.3,28.725326538085938,57.85277557373047,0.0,0.0
24.0,41.0,0.7,28.725326538085938,57.85277557373047,0.0,0.0
24.0,41.0,1.0,28.725326538085938,57.85277557373047,0.0,0.0
24.0,49.0,0.1,25.182662963867188,60.80070114135742,0.0,0.0
24.0,49.0,0.3,25.182662963867188,60.80070114135742,0.0,0.0
24.0,49.0,0.7,25.182662963867188,60.80070114135742,0.0,0.0
24.0,49.0,1.0,25.182662963867188,60.80070114135742,0.0,0.0
24.0,57.0,0.1,45.72687530517578,63.186790466308594,0.0,0.0
24.0,57.0,0.3,45.72687530517578,63.186790466308594,0.0,0.0
24.0,57.0,0.7,45.72687530517578,63.186790466308594,0.0,0.0
24.0,57.0,1.0,45.72687530517578,63.186790466308594,0.0,0.0
24.0,65.0,0.1,49.862037658691406,65.65035247802734,0.0,0.0
24.0,65.0,0.3,49.862037658691406,65.65035247802734,0.0,0.0
24.0,65.0,0.7,49.862037658691406,65.65035247802734,0.0,0.0
24.0,65.0,1.0,49.862037658691406,65.65035247802734,0.0,0.0
24.0,73.0,0.1,25.00098419189453,67.69901275634766,0.0,0.0
24.0,73.0,0.3,25.00098419189453,67.69901275634766,0.0,0.0
24.0,73.0,0.7,25.00098419189453,67.69901275634766,0.0,0.0
24.0,73.0,1.0,25.00098419189453,67.69901275634766,0.0,0.0
24.0,81.0,0.1,56.3757438659668,70.27598571777344,0.0,0.0
24.0,81.0,0.3,56.3757438659668,70.27598571777344,0.0,0.0
24.0,81.0,0.7,56.3757438659668,70.27598571777344,0.0,0.0
24.0,81.0,1.0,56.3757438659668,70.27598571777344,0.0,0.0
24.0,89.0,0.1,57.54790496826172,74.07168579101562,0.0,0.0
24.0,89.0,0.3,57.54790496826172,74.07168579101562,0.0,0.0
24.0,89.0,0.7,57.54790496826172,74.07168579101562,0.0,0.0
24.0,89.0,1.0,57.54790496826172,74.07168579101562,0.0,0.0
24.0,97.0,0.1,58.042205810546875,78.00474548339844,0.0,0.0
24.0,97.0,0.3,58.042205810546875,78.00474548339844,0.0,0.0
24.0,97.0,0.7,58.042205810546875,78.00474548339844,0.0,0.0
24.0,97.0,1.0,58.042205810546875,78.00474548339844,0.0,0.0
24.0,105.0,0.1,57.95759201049805,77.27279663085938,0.0,0.0
24.0,105.0,0.3,57.95759201049805,77.27279663085938,0.0,0.0
24.0,105.0,0.7,57.95759201049805,77.27279663085938,0.0,0.0
24.0,105.0,1.0,57.95759201049805,77.27279663085938,0.0,0.0
24.0,113.0,0.1,57.96030807495117,77.0312271118164,0.0,0.0
24.0,113.0,0.3,57.96030807495117,77.0312271118164,0.0,0.0
24.0,113.0,0.7,57.96030807495117,77.0312271118164,0.0,0.0
24.0,113.0,1.0,57.96030807495117,77.0312271118164,0.0,0.0
24.0,121.0,0.1,57.873905181884766,78.01043701171875,0.0,0.0
24.0,121.0,0.3,57.873905181884766,78.01043701171875,0.0,0.0
24.0,121.0,0.7,57.873905181884766,78.01043701171875,0.0,0.0
24.0,121.0,1.0,57.873905181884766,78.01043701171875,0.0,0.0
24.0,127.0,0.1,57.94129180908203,77.08578491210938,0.0,0.0
24.0,127.0,0.3,57.94129180908203,77.08578491210938,0.0,0.0
24.0,127.0,0.7,57.94129180908203,77.08578491210938,0.0,0.0
24.0,127.0,1.0,57.94129180908203,77.08578491210938,0.0,0.0
25.0,1.0,0.1,25.436660766601562,30.69329071044922,0.0,0.0
25.0,1.0,0.3,25.436660766601562,30.69329071044922,0.0,0.0
25.0,1.0,0.7,25.436660766601562,30.69329071044922,0.0,0.0
25.0,1.0,1.0,25.436660766601562,30.69329071044922,0.0,0.0
25.0,9.0,0.1,26.25304412841797,31.858997344970703,0.0,0.0
25.0,9.0,0.3,26.25304412841797,31.858997344970703,0.0,0.0
25.0,9.0,0.7,26.25304412841797,31.858997344970703,0.0,0.0
25.0,9.0,1.0,26.25304412841797,31.858997344970703,0.0,0.0
25.0,17.0,0.1,26.258155822753906,32.82623291015625,0.0,0.0
25.0,17.0,0.3,26.258155822753906,32.82623291015625,0.0,0.0
25.0,17.0,0.7,26.258155822753906,32.82623291015625,0.0,0.0
25.0,17.0,1.0,26.258155822753906,32.82623291015625,0.0,0.0
25.0,25.0,0.1,27.255126953125,52.50371551513672,0.0,0.0
25.0,25.0,0.3,27.255126953125,52.50371551513672,0.0,0.0
25.0,25.0,0.7,27.255126953125,52.50371551513672,0.0,0.0
25.0,25.0,1.0,27.255126953125,52.50371551513672,0.0,0.0
25.0,33.0,0.1,25.852310180664062,55.49312210083008,0.0,0.0
25.0,33.0,0.3,25.852310180664062,55.49312210083008,0.0,0.0
25.0,33.0,0.7,25.852310180664062,55.49312210083008,0.0,0.0
25.0,33.0,1.0,25.852310180664062,55.49312210083008,0.0,0.0
25.0,41.0,0.1,25.865646362304688,58.302738189697266,0.0,0.0
25.0,41.0,0.3,25.865646362304688,58.302738189697266,0.0,0.0
25.0,41.0,0.7,25.865646362304688,58.302738189697266,0.0,0.0
25.0,41.0,1.0,25.865646362304688,58.302738189697266,0.0,0.0
25.0,49.0,0.1,29.480987548828125,60.63753128051758,0.0,0.0
25.0,49.0,0.3,29.480987548828125,60.63753128051758,0.0,0.0
25.0,49.0,0.7,29.480987548828125,60.63753128051758,0.0,0.0
25.0,49.0,1.0,29.480987548828125,60.63753128051758,0.0,0.0
25.0,57.0,0.1,24.769210815429688,63.06884765625,0.0,0.0
25.0,57.0,0.3,24.769210815429688,63.06884765625,0.0,0.0
25.0,57.0,0.7,24.769210815429688,63.06884765625,0.0,0.0
25.0,57.0,1.0,24.769210815429688,63.06884765625,0.0,0.0
25.0,65.0,0.1,50.89651107788086,65.634765625,0.0,0.0
25.0,65.0,0.3,50.89651107788086,65.634765625,0.0,0.0
25.0,65.0,0.7,50.89651107788086,65.634765625,0.0,0.0
25.0,65.0,1.0,50.89651107788086,65.634765625,0.0,0.0
25.0,73.0,0.1,49.742523193359375,67.46826171875,0.0,0.0
25.0,73.0,0.3,49.742523193359375,67.46826171875,0.0,0.0
25.0,73.0,0.7,49.742523193359375,67.46826171875,0.0,0.0
25.0,73.0,1.0,49.742523193359375,67.46826171875,0.0,0.0
25.0,81.0,0.1,59.19263458251953,70.16322326660156,0.0,0.0
25.0,81.0,0.3,59.19263458251953,70.16322326660156,0.0,0.0
25.0,81.0,0.7,59.19263458251953,70.16322326660156,0.0,0.0
25.0,81.0,1.0,59.19263458251953,70.16322326660156,0.0,0.0
25.0,89.0,0.1,60.79937744140625,73.112060546875,0.0,0.0
25.0,89.0,0.3,60.79937744140625,73.112060546875,0.0,0.0
25.0,89.0,0.7,60.79937744140625,73.112060546875,0.0,0.0
25.0,89.0,1.0,60.79937744140625,73.112060546875,0.0,0.0
25.0,97.0,0.1,62.005226135253906,77.88084411621094,0.0,0.0
25.0,97.0,0.3,62.005226135253906,77.88084411621094,0.0,0.0
25.0,97.0,0.7,62.005226135253906,77.88084411621094,0.0,0.0
25.0,97.0,1.0,62.005226135253906,77.88084411621094,0.0,0.0
25.0,105.0,0.1,62.052345275878906,75.24072265625,0.0,0.0
25.0,105.0,0.3,62.052345275878906,75.24072265625,0.0,0.0
25.0,105.0,0.7,62.052345275878906,75.24072265625,0.0,0.0
25.0,105.0,1.0,62.052345275878906,75.24072265625,0.0,0.0
25.0,113.0,0.1,61.98528289794922,77.82947540283203,0.0,0.0
25.0,113.0,0.3,61.98528289794922,77.82947540283203,0.0,0.0
25.0,113.0,0.7,61.98528289794922,77.82947540283203,0.0,0.0
25.0,113.0,1.0,61.98528289794922,77.82947540283203,0.0,0.0
25.0,121.0,0.1,61.77033233642578,77.66146850585938,0.0,0.0
25.0,121.0,0.3,61.77033233642578,77.66146850585938,0.0,0.0
25.0,121.0,0.7,61.77033233642578,77.66146850585938,0.0,0.0
25.0,121.0,1.0,61.77033233642578,77.66146850585938,0.0,0.0
25.0,127.0,0.1,61.918121337890625,77.69966125488281,0.0,0.0
25.0,127.0,0.3,61.918121337890625,77.69966125488281,0.0,0.0
25.0,127.0,0.7,61.918121337890625,77.69966125488281,0.0,0.0
25.0,127.0,1.0,61.918121337890625,77.69966125488281,0.0,0.0
26.0,1.0,0.1,27.00249481201172,31.927127838134766,0.0,0.0
26.0,1.0,0.3,27.00249481201172,31.927127838134766,0.0,0.0
26.0,1.0,0.7,27.00249481201172,31.927127838134766,0.0,0.0
26.0,1.0,1.0,27.00249481201172,31.927127838134766,0.0,0.0
26.0,9.0,0.1,28.124267578125,31.328292846679688,0.0,0.0
26.0,9.0,0.3,28.124267578125,31.328292846679688,0.0,0.0
26.0,9.0,0.7,28.124267578125,31.328292846679688,0.0,0.0
26.0,9.0,1.0,28.124267578125,31.328292846679688,0.0,0.0
26.0,17.0,0.1,24.96136474609375,32.10798645019531,0.0,0.0
26.0,17.0,0.3,24.96136474609375,32.10798645019531,0.0,0.0
26.0,17.0,0.7,24.96136474609375,32.10798645019531,0.0,0.0
26.0,17.0,1.0,24.96136474609375,32.10798645019531,0.0,0.0
26.0,25.0,0.1,24.01618194580078,55.88886642456055,0.0,0.0
26.0,25.0,0.3,24.01618194580078,55.88886642456055,0.0,0.0
26.0,25.0,0.7,24.01618194580078,55.88886642456055,0.0,0.0
26.0,25.0,1.0,24.01618194580078,55.88886642456055,0.0,0.0
26.0,33.0,0.1,25.541717529296875,57.887733459472656,0.0,0.0
26.0,33.0,0.3,25.541717529296875,57.887733459472656,0.0,0.0
26.0,33.0,0.7,25.541717529296875,57.887733459472656,0.0,0.0
26.0,33.0,1.0,25.541717529296875,57.887733459472656,0.0,0.0
26.0,41.0,0.1,27.483932495117188,60.90448760986328,0.0,0.0
26.0,41.0,0.3,27.483932495117188,60.90448760986328,0.0,0.0
26.0,41.0,0.7,27.483932495117188,60.90448760986328,0.0,0.0
26.0,41.0,1.0,27.483932495117188,60.90448760986328,0.0,0.0
26.0,49.0,0.1,27.896682739257812,63.170021057128906,0.0,0.0
26.0,49.0,0.3,27.896682739257812,63.170021057128906,0.0,0.0
26.0,49.0,0.7,27.896682739257812,63.170021057128906,0.0,0.0
26.0,49.0,1.0,27.896682739257812,63.170021057128906,0.0,0.0
26.0,57.0,0.1,42.84239959716797,65.42889404296875,0.0,0.0
26.0,57.0,0.3,42.84239959716797,65.42889404296875,0.0,0.0
26.0,57.0,0.7,42.84239959716797,65.42889404296875,0.0,0.0
26.0,57.0,1.0,42.84239959716797,65.42889404296875,0.0,0.0
26.0,65.0,0.1,29.58502960205078,67.15391540527344,0.0,0.0
26.0,65.0,0.3,29.58502960205078,67.15391540527344,0.0,0.0
26.0,65.0,0.7,29.58502960205078,67.15391540527344,0.0,0.0
26.0,65.0,1.0,29.58502960205078,67.15391540527344,0.0,0.0
26.0,73.0,0.1,30.083969116210938,69.73120880126953,0.0,0.0
26.0,73.0,0.3,30.083969116210938,69.73120880126953,0.0,0.0
26.0,73.0,0.7,30.083969116210938,69.73120880126953,0.0,0.0
26.0,73.0,1.0,30.083969116210938,69.73120880126953,0.0,0.0
26.0,81.0,0.1,55.938079833984375,71.60195922851562,0.0,0.0
26.0,81.0,0.3,55.938079833984375,71.60195922851562,0.0,0.0
26.0,81.0,0.7,55.938079833984375,71.60195922851562,0.0,0.0
26.0,81.0,1.0,55.938079833984375,71.60195922851562,0.0,0.0
26.0,89.0,0.1,58.57472229003906,74.32276916503906,0.0,0.0
26.0,89.0,0.3,58.57472229003906,74.32276916503906,0.0,0.0
26.0,89.0,0.7,58.57472229003906,74.32276916503906,0.0,0.0
26.0,89.0,1.0,58.57472229003906,74.32276916503906,0.0,0.0
26.0,97.0,0.1,58.879478454589844,77.10742950439453,0.0,0.0
26.0,97.0,0.3,58.879478454589844,77.10742950439453,0.0,0.0
26.0,97.0,0.7,58.879478454589844,77.10742950439453,0.0,0.0
26.0,97.0,1.0,58.879478454589844,77.10742950439453,0.0,0.0
26.0,105.0,0.1,59.16205596923828,77.6742172241211,0.0,0.0
26.0,105.0,0.3,59.16205596923828,77.6742172241211,0.0,0.0
26.0,105.0,0.7,59.16205596923828,77.6742172241211,0.0,0.0
26.0,105.0,1.0,59.16205596923828,77.6742172241211,0.0,0.0
26.0,113.0,0.1,59.11551284790039,77.42357635498047,0.0,0.0
26.0,113.0,0.3,59.11551284790039,77.42357635498047,0.0,0.0
26.0,113.0,0.7,59.11551284790039,77.42357635498047,0.0,0.0
26.0,113.0,1.0,59.11551284790039,77.42357635498047,0.0,0.0
26.0,121.0,0.1,58.76182174682617,77.12903594970703,0.0,0.0
26.0,121.0,0.3,58.76182174682617,77.12903594970703,0.0,0.0
26.0,121.0,0.7,58.76182174682617,77.12903594970703,0.0,0.0
26.0,121.0,1.0,58.76182174682617,77.12903594970703,0.0,0.0
26.0,127.0,0.1,59.005645751953125,77.27277374267578,0.0,0.0
26.0,127.0,0.3,59.005645751953125,77.27277374267578,0.0,0.0
26.0,127.0,0.7,59.005645751953125,77.27277374267578,0.0,0.0
26.0,127.0,1.0,59.005645751953125,77.27277374267578,0.0,0.0
27.0,1.0,0.1,24.139869689941406,30.158222198486328,0.0,0.0
27.0,1.0,0.3,24.139869689941406,30.158222198486328,0.0,0.0
27.0,1.0,0.7,24.139869689941406,30.158222198486328,0.0,0.0
27.0,1.0,1.0,24.139869689941406,30.158222198486328,0.0,0.0
27.0,9.0,0.1,26.421493530273438,30.88488006591797,0.0,0.0
27.0,9.0,0.3,26.421493530273438,30.88488006591797,0.0,0.0
27.0,9.0,0.7,26.421493530273438,30.88488006591797,0.0,0.0
27.0,9.0,1.0,26.421493530273438,30.88488006591797,0.0,0.0
27.0,17.0,0.1,24.544906616210938,51.90886306762695,0.0,0.0
27.0,17.0,0.3,24.544906616210938,51.90886306762695,0.0,0.0
27.0,17.0,0.7,24.544906616210938,51.90886306762695,0.0,0.0
27.0,17.0,1.0,24.544906616210938,51.90886306762695,0.0,0.0
27.0,25.0,0.1,26.217308044433594,54.703636169433594,0.0,0.0
27.0,25.0,0.3,26.217308044433594,54.703636169433594,0.0,0.0
27.0,25.0,0.7,26.217308044433594,54.703636169433594,0.0,0.0
27.0,25.0,1.0,26.217308044433594,54.703636169433594,0.0,0.0
27.0,33.0,0.1,25.014915466308594,57.07246780395508,0.0,0.0
27.0,33.0,0.3,25.014915466308594,57.07246780395508,0.0,0.0
27.0,33.0,0.7,25.014915466308594,57.07246780395508,0.0,0.0
27.0,33.0,1.0,25.014915466308594,57.07246780395508,0.0,0.0
27.0,41.0,0.1,26.73870086669922,59.3819694519043,0.0,0.0
27.0,41.0,0.3,26.73870086669922,59.3819694519043,0.0,0.0
27.0,41.0,0.7,26.73870086669922,59.3819694519043,0.0,0.0
27.0,41.0,1.0,26.73870086669922,59.3819694519043,0.0,0.0
27.0,49.0,0.1,24.488815307617188,61.37759017944336,0.0,0.0
27.0,49.0,0.3,24.488815307617188,61.37759017944336,0.0,0.0
27.0,49.0,0.7,24.488815307617188,61.37759017944336,0.0,0.0
27.0,49.0,1.0,24.488815307617188,61.37759017944336,0.0,0.0
27.0,57.0,0.1,26.132278442382812,63.380218505859375,0.0,0.0
27.0,57.0,0.3,26.132278442382812,63.380218505859375,0.0,0.0
27.0,57.0,0.7,26.132278442382812,63.380218505859375,0.0,0.0
27.0,57.0,1.0,26.132278442382812,63.380218505859375,0.0,0.0
27.0,65.0,0.1,27.50469970703125,65.22186279296875,0.0,0.0
27.0,65.0,0.3,27.50469970703125,65.22186279296875,0.0,0.0
27.0,65.0,0.7,27.50469970703125,65.22186279296875,0.0,0.0
27.0,65.0,1.0,27.50469970703125,65.22186279296875,0.0,0.0
27.0,73.0,0.1,26.605377197265625,67.822509765625,0.0,0.0
27.0,73.0,0.3,26.605377197265625,67.822509765625,0.0,0.0
27.0,73.0,0.7,26.605377197265625,67.822509765625,0.0,0.0
27.0,73.0,1.0,26.605377197265625,67.822509765625,0.0,0.0
27.0,81.0,0.1,55.979591369628906,70.0927963256836,0.0,0.0
27.0,81.0,0.3,55.979591369628906,70.0927963256836,0.0,0.0
27.0,81.0,0.7,55.979591369628906,70.0927963256836,0.0,0.0
27.0,81.0,1.0,55.979591369628906,70.0927963256836,0.0,0.0
27.0,89.0,0.1,57.764564514160156,73.65020751953125,0.0,0.0
27.0,89.0,0.3,57.764564514160156,73.65020751953125,0.0,0.0
27.0,89.0,0.7,57.764564514160156,73.65020751953125,0.0,0.0
27.0,89.0,1.0,57.764564514160156,73.65020751953125,0.0,0.0
27.0,97.0,0.1,59.293479919433594,76.04325866699219,0.0,0.0
27.0,97.0,0.3,59.293479919433594,76.04325866699219,0.0,0.0
27.0,97.0,0.7,59.293479919433594,76.04325866699219,0.0,0.0
27.0,97.0,1.0,59.293479919433594,76.04325866699219,0.0,0.0
27.0,105.0,0.1,59.47161865234375,77.00148010253906,0.0,0.0
27.0,105.0,0.3,59.47161865234375,77.00148010253906,0.0,0.0
27.0,105.0,0.7,59.47161865234375,77.00148010253906,0.0,0.0
27.0,105.0,1.0,59.47161865234375,77.00148010253906,0.0,0.0
27.0,113.0,0.1,59.09810256958008,76.26705169677734,0.0,0.0
27.0,113.0,0.3,59.09810256958008,76.26705169677734,0.0,0.0
27.0,113.0,0.7,59.09810256958008,76.26705169677734,0.0,0.0
27.0,113.0,1.0,59.09810256958008,76.26705169677734,0.0,0.0
27.0,121.0,0.1,59.226463317871094,76.03784942626953,0.0,0.0
27.0,121.0,0.3,59.226463317871094,76.03784942626953,0.0,0.0
27.0,121.0,0.7,59.226463317871094,76.03784942626953,0.0,0.0
27.0,121.0,1.0,59.226463317871094,76.03784942626953,0.0,0.0
27.0,127.0,0.1,59.22883605957031,76.81886291503906,0.0,0.0
27.0,127.0,0.3,59.22883605957031,76.81886291503906,0.0,0.0
27.0,127.0,0.7,59.22883605957031,76.81886291503906,0.0,0.0
27.0,127.0,1.0,59.22883605957031,76.81886291503906,0.0,0.0
28.0,1.0,0.1,26.472610473632812,29.192550659179688,0.0,0.0
28.0,1.0,0.3,26.472610473632812,29.192550659179688,0.0,0.0
28.0,1.0,0.7,26.472610473632812,29.192550659179688,0.0,0.0
28.0,1.0,1.0,26.472610473632812,29.192550659179688,0.0,0.0
28.0,9.0,0.1,24.38135528564453,35.840797424316406,0.0,0.0
28.0,9.0,0.3,24.38135528564453,35.840797424316406,0.0,0.0
28.0,9.0,0.7,24.38135528564453,35.840797424316406,0.0,0.0
28.0,9.0,1.0,24.38135528564453,35.840797424316406,0.0,0.0
28.0,17.0,0.1,27.190963745117188,42.53119659423828,0.0,0.0
28.0,17.0,0.3,27.190963745117188,42.53119659423828,0.0,0.0
28.0,17.0,0.7,27.190963745117188,42.53119659423828,0.0,0.0
28.0,17.0,1.0,27.190963745117188,42.53119659423828,0.0,0.0
28.0,25.0,0.1,21.749000549316406,52.36250686645508,0.0,0.0
28.0,25.0,0.3,21.749000549316406,52.36250686645508,0.0,0.0
28.0,25.0,0.7,21.749000549316406,52.36250686645508,0.0,0.0
28.0,25.0,1.0,21.749000549316406,52.36250686645508,0.0,0.0
28.0,33.0,0.1,24.471237182617188,54.86805725097656,0.0,0.0
28.0,33.0,0.3,24.471237182617188,54.86805725097656,0.0,0.0
28.0,33.0,0.7,24.471237182617188,54.86805725097656,0.0,0.0
28.0,33.0,1.0,24.471237182617188,54.86805725097656,0.0,0.0
28.0,41.0,0.1,24.698577880859375,57.18498992919922,0.0,0.0
28.0,41.0,0.3,24.698577880859375,57.18498992919922,0.0,0.0
28.0,41.0,0.7,24.698577880859375,57.18498992919922,0.0,0.0
28.0,41.0,1.0,24.698577880859375,57.18498992919922,0.0,0.0
28.0,49.0,0.1,24.82818603515625,59.02977752685547,0.0,0.0
28.0,49.0,0.3,24.82818603515625,59.02977752685547,0.0,0.0
28.0,49.0,0.7,24.82818603515625,59.02977752685547,0.0,0.0
28.0,49.0,1.0,24.82818603515625,59.02977752685547,0.0,0.0
28.0,57.0,0.1,26.992584228515625,61.37565612792969,0.0,0.0
28.0,57.0,0.3,26.992584228515625,61.37565612792969,0.0,0.0
28.0,57.0,0.7,26.992584228515625,61.37565612792969,0.0,0.0
28.0,57.0,1.0,26.992584228515625,61.37565612792969,0.0,0.0
28.0,65.0,0.1,25.171829223632812,63.30719757080078,0.0,0.0
28.0,65.0,0.3,25.171829223632812,63.30719757080078,0.0,0.0
28.0,65.0,0.7,25.171829223632812,63.30719757080078,0.0,0.0
28.0,65.0,1.0,25.171829223632812,63.30719757080078,0.0,0.0
28.0,73.0,0.1,49.395469665527344,65.62382507324219,0.0,0.0
28.0,73.0,0.3,49.395469665527344,65.62382507324219,0.0,0.0
28.0,73.0,0.7,49.395469665527344,65.62382507324219,0.0,0.0
28.0,73.0,1.0,49.395469665527344,65.62382507324219,0.0,0.0
28.0,81.0,0.1,23.983070373535156,68.16851806640625,0.0,0.0
28.0,81.0,0.3,23.983070373535156,68.16851806640625,0.0,0.0
28.0,81.0,0.7,23.983070373535156,68.16851806640625,0.0,0.0
28.0,81.0,1.0,23.983070373535156,68.16851806640625,0.0,0.0
28.0,89.0,0.1,58.18283462524414,70.64993286132812,0.0,0.0
28.0,89.0,0.3,58.18283462524414,70.64993286132812,0.0,0.0
28.0,89.0,0.7,58.18283462524414,70.64993286132812,0.0,0.0
28.0,89.0,1.0,58.18283462524414,70.64993286132812,0.0,0.0
28.0,97.0,0.1,58.556156158447266,74.34169006347656,0.0,0.0
28.0,97.0,0.3,58.556156158447266,74.34169006347656,0.0,0.0
28.0,97.0,0.7,58.556156158447266,74.34169006347656,0.0,0.0
28.0,97.0,1.0,58.556156158447266,74.34169006347656,0.0,0.0
28.0,105.0,0.1,58.72429656982422,74.97499084472656,0.0,0.0
28.0,105.0,0.3,58.72429656982422,74.97499084472656,0.0,0.0
28.0,105.0,0.7,58.72429656982422,74.97499084472656,0.0,0.0
28.0,105.0,1.0,58.72429656982422,74.97499084472656,0.0,0.0
28.0,113.0,0.1,58.53257751464844,75.3868637084961,0.0,0.0
28.0,113.0,0.3,58.53257751464844,75.3868637084961,0.0,0.0
28.0,113.0,0.7,58.53257751464844,75.3868637084961,0.0,0.0
28.0,113.0,1.0,58.53257751464844,75.3868637084961,0.0,0.0
28.0,121.0,0.1,58.49641799926758,75.50535583496094,0.0,0.0
28.0,121.0,0.3,58.49641799926758,75.50535583496094,0.0,0.0
28.0,121.0,0.7,58.49641799926758,75.50535583496094,0.0,0.0
28.0,121.0,1.0,58.49641799926758,75.50535583496094,0.0,0.0
28.0,127.0,0.1,58.48841094970703,75.83638763427734,0.0,0.0
28.0,127.0,0.3,58.48841094970703,75.83638763427734,0.0,0.0
28.0,127.0,0.7,58.48841094970703,75.83638763427734,0.0,0.0
28.0,127.0,1.0,58.48841094970703,75.83638763427734,0.0,0.0
29.0,1.0,0.1,25.804832458496094,29.82135009765625,0.0,0.0
29.0,1.0,0.3,25.804832458496094,29.82135009765625,0.0,0.0
29.0,1.0,0.7,25.804832458496094,29.82135009765625,0.0,0.0
29.0,1.0,1.0,25.804832458496094,29.82135009765625,0.0,0.0
29.0,9.0,0.1,25.31781768798828,30.695358276367188,0.0,0.0
29.0,9.0,0.3,25.31781768798828,30.695358276367188,0.0,0.0
29.0,9.0,0.7,25.31781768798828,30.695358276367188,0.0,0.0
29.0,9.0,1.0,25.31781768798828,30.695358276367188,0.0,0.0
29.0,17.0,0.1,24.012733459472656,43.32548141479492,0.0,0.0
29.0,17.0,0.3,24.012733459472656,43.32548141479492,0.0,0.0
29.0,17.0,0.7,24.012733459472656,43.32548141479492,0.0,0.0
29.0,17.0,1.0,24.012733459472656,43.32548141479492,0.0,0.0
29.0,25.0,0.1,22.4278564453125,52.40947723388672,0.0,0.0
29.0,25.0,0.3,22.4278564453125,52.40947723388672,0.0,0.0
29.0,25.0,0.7,22.4278564453125,52.40947723388672,0.0,0.0
29.0,25.0,1.0,22.4278564453125,52.40947723388672,0.0,0.0
29.0,33.0,0.1,22.52051544189453,54.84226608276367,0.0,0.0
29.0,33.0,0.3,22.52051544189453,54.84226608276367,0.0,0.0
29.0,33.0,0.7,22.52051544189453,54.84226608276367,0.0,0.0
29.0,33.0,1.0,22.52051544189453,54.84226608276367,0.0,0.0
29.0,41.0,0.1,25.23351287841797,56.80256652832031,0.0,0.0
29.0,41.0,0.3,25.23351287841797,56.80256652832031,0.0,0.0
29.0,41.0,0.7,25.23351287841797,56.80256652832031,0.0,0.0
29.0,41.0,1.0,25.23351287841797,56.80256652832031,0.0,0.0
29.0,49.0,0.1,24.48236083984375,58.042423248291016,0.0,0.0
29.0,49.0,0.3,24.48236083984375,58.042423248291016,0.0,0.0
29.0,49.0,0.7,24.48236083984375,58.042423248291016,0.0,0.0
29.0,49.0,1.0,24.48236083984375,58.042423248291016,0.0,0.0
29.0,57.0,0.1,27.173126220703125,59.94195556640625,0.0,0.0
29.0,57.0,0.3,27.173126220703125,59.94195556640625,0.0,0.0
29.0,57.0,0.7,27.173126220703125,59.94195556640625,0.0,0.0
29.0,57.0,1.0,27.173126220703125,59.94195556640625,0.0,0.0
29.0,65.0,0.1,28.772972106933594,62.261497497558594,0.0,0.0
29.0,65.0,0.3,28.772972106933594,62.261497497558594,0.0,0.0
29.0,65.0,0.7,28.772972106933594,62.261497497558594,0.0,0.0
29.0,65.0,1.0,28.772972106933594,62.261497497558594,0.0,0.0
29.0,73.0,0.1,27.89063262939453,65.16722869873047,0.0,0.0
29.0,73.0,0.3,27.89063262939453,65.16722869873047,0.0,0.0
29.0,73.0,0.7,27.89063262939453,65.16722869873047,0.0,0.0
29.0,73.0,1.0,27.89063262939453,65.16722869873047,0.0,0.0
29.0,81.0,0.1,47.5371208190918,68.92603302001953,0.0,0.0
29.0,81.0,0.3,47.5371208190918,68.92603302001953,0.0,0.0
29.0,81.0,0.7,47.5371208190918,68.92603302001953,0.0,0.0
29.0,81.0,1.0,47.5371208190918,68.92603302001953,0.0,0.0
29.0,89.0,0.1,26.338455200195312,72.49650573730469,0.0,0.0
29.0,89.0,0.3,26.338455200195312,72.49650573730469,0.0,0.0
29.0,89.0,0.7,26.338455200195312,72.49650573730469,0.0,0.0
29.0,89.0,1.0,26.338455200195312,72.49650573730469,0.0,0.0
29.0,97.0,0.1,31.091102600097656,73.84268188476562,0.0,0.0
29.0,97.0,0.3,31.091102600097656,73.84268188476562,0.0,0.0
29.0,97.0,0.7,31.091102600097656,73.84268188476562,0.0,0.0
29.0,97.0,1.0,31.091102600097656,73.84268188476562,0.0,0.0
29.0,105.0,0.1,59.407264709472656,75.03851318359375,0.0,0.0
29.0,105.0,0.3,59.407264709472656,75.03851318359375,0.0,0.0
29.0,105.0,0.7,59.407264709472656,75.03851318359375,0.0,0.0
29.0,105.0,1.0,59.407264709472656,75.03851318359375,0.0,0.0
29.0,113.0,0.1,59.28174591064453,73.74637603759766,0.0,0.0
29.0,113.0,0.3,59.28174591064453,73.74637603759766,0.0,0.0
29.0,113.0,0.7,59.28174591064453,73.74637603759766,0.0,0.0
29.0,113.0,1.0,59.28174591064453,73.74637603759766,0.0,0.0
29.0,121.0,0.1,60.81519317626953,73.37677764892578,0.0,0.0
29.0,121.0,0.3,60.81519317626953,73.37677764892578,0.0,0.0
29.0,121.0,0.7,60.81519317626953,73.37677764892578,0.0,0.0
29.0,121.0,1.0,60.81519317626953,73.37677764892578,0.0,0.0
29.0,127.0,0.1,60.760459899902344,75.19328308105469,0.0,0.0
29.0,127.0,0.3,60.760459899902344,75.19328308105469,0.0,0.0
29.0,127.0,0.7,60.760459899902344,75.19328308105469,0.0,0.0
29.0,127.0,1.0,60.760459899902344,75.19328308105469,0.0,0.0
30.0,1.0,0.1,24.96588897705078,33.868743896484375,0.0,0.0
30.0,1.0,0.3,24.96588897705078,33.868743896484375,0.0,0.0
30.0,1.0,0.7,24.96588897705078,33.868743896484375,0.0,0.0
30.0,1.0,1.0,24.96588897705078,33.868743896484375,0.0,0.0
30.0,9.0,0.1,25.169296264648438,39.352970123291016,0.0,0.0
30.0,9.0,0.3,25.169296264648438,39.352970123291016,0.0,0.0
30.0,9.0,0.7,25.169296264648438,39.352970123291016,0.0,0.0
30.0,9.0,1.0,25.169296264648438,39.352970123291016,0.0,0.0
30.0,17.0,0.1,27.931106567382812,41.09206008911133,0.0,0.0
30.0,17.0,0.3,27.931106567382812,41.09206008911133,0.0,0.0
30.0,17.0,0.7,27.931106567382812,41.09206008911133,0.0,0.0
30.0,17.0,1.0,27.931106567382812,41.09206008911133,0.0,0.0
30.0,25.0,0.1,25.977989196777344,52.96458435058594,0.0,0.0
30.0,25.0,0.3,25.977989196777344,52.96458435058594,0.0,0.0
30.0,25.0,0.7,25.977989196777344,52.96458435058594,0.0,0.0
30.0,25.0,1.0,25.977989196777344,52.96458435058594,0.0,0.0
30.0,33.0,0.1,26.506927490234375,55.20793151855469,0.0,0.0
30.0,33.0,0.3,26.506927490234375,55.20793151855469,0.0,0.0
30.0,33.0,0.7,26.506927490234375,55.20793151855469,0.0,0.0
30.0,33.0,1.0,26.506927490234375,55.20793151855469,0.0,0.0
30.0,41.0,0.1,26.59551239013672,57.78656768798828,0.0,0.0
30.0,41.0,0.3,26.59551239013672,57.78656768798828,0.0,0.0
30.0,41.0,0.7,26.59551239013672,57.78656768798828,0.0,0.0
30.0,41.0,1.0,26.59551239013672,57.78656768798828,0.0,0.0
30.0,49.0,0.1,44.847877502441406,60.015960693359375,0.0,0.0
30.0,49.0,0.3,44.847877502441406,60.015960693359375,0.0,0.0
30.0,49.0,0.7,44.847877502441406,60.015960693359375,0.0,0.0
30.0,49.0,1.0,44.847877502441406,60.015960693359375,0.0,0.0
30.0,57.0,0.1,48.38548278808594,61.777626037597656,0.0,0.0
30.0,57.0,0.3,48.38548278808594,61.777626037597656,0.0,0.0
30.0,57.0,0.7,48.38548278808594,61.777626037597656,0.0,0.0
30.0,57.0,1.0,48.38548278808594,61.777626037597656,0.0,0.0
30.0,65.0,0.1,51.73460006713867,63.63470458984375,0.0,0.0
30.0,65.0,0.3,51.73460006713867,63.63470458984375,0.0,0.0
30.0,65.0,0.7,51.73460006713867,63.63470458984375,0.0,0.0
30.0,65.0,1.0,51.73460006713867,63.63470458984375,0.0,0.0
30.0,73.0,0.1,54.97316360473633,65.64369201660156,0.0,0.0
30.0,73.0,0.3,54.97316360473633,65.64369201660156,0.0,0.0
30.0,73.0,0.7,54.97316360473633,65.64369201660156,0.0,0.0
30.0,73.0,1.0,54.97316360473633,65.64369201660156,0.0,0.0
30.0,81.0,0.1,57.03509521484375,67.78291320800781,0.0,0.0
30.0,81.0,0.3,57.03509521484375,67.78291320800781,0.0,0.0
30.0,81.0,0.7,57.03509521484375,67.78291320800781,0.0,0.0
30.0,81.0,1.0,57.03509521484375,67.78291320800781,0.0,0.0
30.0,89.0,0.1,58.49954605102539,70.4725341796875,0.0,0.0
30.0,89.0,0.3,58.49954605102539,70.4725341796875,0.0,0.0
30.0,89.0,0.7,58.49954605102539,70.4725341796875,0.0,0.0
30.0,89.0,1.0,58.49954605102539,70.4725341796875,0.0,0.0
30.0,97.0,0.1,59.171566009521484,75.21968841552734,0.0,0.0
30.0,97.0,0.3,59.171566009521484,75.21968841552734,0.0,0.0
30.0,97.0,0.7,59.171566009521484,75.21968841552734,0.0,0.0
30.0,97.0,1.0,59.171566009521484,75.21968841552734,0.0,0.0
30.0,105.0,0.1,59.14775466918945,75.88402557373047,0.0,0.0
30.0,105.0,0.3,59.14775466918945,75.88402557373047,0.0,0.0
30.0,105.0,0.7,59.14775466918945,75.88402557373047,0.0,0.0
30.0,105.0,1.0,59.14775466918945,75.88402557373047,0.0,0.0
30.0,113.0,0.1,59.286895751953125,76.15850067138672,0.0,0.0
30.0,113.0,0.3,59.286895751953125,76.15850067138672,0.0,0.0
30.0,113.0,0.7,59.286895751953125,76.15850067138672,0.0,0.0
30.0,113.0,1.0,59.286895751953125,76.15850067138672,0.0,0.0
30.0,121.0,0.1,58.87773513793945,75.13056182861328,0.0,0.0
30.0,121.0,0.3,58.87773513793945,75.13056182861328,0.0,0.0
30.0,121.0,0.7,58.87773513793945,75.13056182861328,0.0,0.0
30.0,121.0,1.0,58.87773513793945,75.13056182861328,0.0,0.0
30.0,127.0,0.1,59.00064468383789,76.0055923461914,0.0,0.0
30.0,127.0,0.3,59.00064468383789,76.0055923461914,0.0,0.0
30.0,127.0,0.7,59.00064468383789,76.0055923461914,0.0,0.0
30.0,127.0,1.0,59.00064468383789,76.0055923461914,0.0,0.0
31.0,1.0,0.1,27.202224731445312,28.49523162841797,0.0,0.0
31.0,1.0,0.3,27.202224731445312,28.49523162841797,0.0,0.0
31.0,1.0,0.7,27.202224731445312,28.49523162841797,0.0,0.0
31.0,1.0,1.0,27.202224731445312,28.49523162841797,0.0,0.0
31.0,9.0,0.1,37.079345703125,30.35747528076172,0.0,0.0
31.0,9.0,0.3,37.079345703125,30.35747528076172,0.0,0.0
31.0,9.0,0.7,37.079345703125,30.35747528076172,0.0,0.0
31.0,9.0,1.0,37.079345703125,30.35747528076172,0.0,0.0
31.0,17.0,0.1,23.866836547851562,51.05765151977539,0.0,0.0
31.0,17.0,0.3,23.866836547851562,51.05765151977539,0.0,0.0
31.0,17.0,0.7,23.866836547851562,51.05765151977539,0.0,0.0
31.0,17.0,1.0,23.866836547851562,51.05765151977539,0.0,0.0
31.0,25.0,0.1,27.018096923828125,54.62706756591797,0.0,0.0
31.0,25.0,0.3,27.018096923828125,54.62706756591797,0.0,0.0
31.0,25.0,0.7,27.018096923828125,54.62706756591797,0.0,0.0
31.0,25.0,1.0,27.018096923828125,54.62706756591797,0.0,0.0
31.0,33.0,0.1,26.601669311523438,57.14461898803711,0.0,0.0
31.0,33.0,0.3,26.601669311523438,57.14461898803711,0.0,0.0
31.0,33.0,0.7,26.601669311523438,57.14461898803711,0.0,0.0
31.0,33.0,1.0,26.601669311523438,57.14461898803711,0.0,0.0
31.0,41.0,0.1,41.00320816040039,59.33061981201172,0.0,0.0
31.0,41.0,0.3,41.00320816040039,59.33061981201172,0.0,0.0
31.0,41.0,0.7,41.00320816040039,59.33061981201172,0.0,0.0
31.0,41.0,1.0,41.00320816040039,59.33061981201172,0.0,0.0
31.0,49.0,0.1,25.768768310546875,61.321388244628906,0.0,0.0
31.0,49.0,0.3,25.768768310546875,61.321388244628906,0.0,0.0
31.0,49.0,0.7,25.768768310546875,61.321388244628906,0.0,0.0
31.0,49.0,1.0,25.768768310546875,61.321388244628906,0.0,0.0
31.0,57.0,0.1,52.20545959472656,63.23147964477539,0.0,0.0
31.0,57.0,0.3,52.20545959472656,63.23147964477539,0.0,0.0
31.0,57.0,0.7,52.20545959472656,63.23147964477539,0.0,0.0
31.0,57.0,1.0,52.20545959472656,63.23147964477539,0.0,0.0
31.0,65.0,0.1,54.22584533691406,64.96945190429688,0.0,0.0
31.0,65.0,0.3,54.22584533691406,64.96945190429688,0.0,0.0
31.0,65.0,0.7,54.22584533691406,64.96945190429688,0.0,0.0
31.0,65.0,1.0,54.22584533691406,64.96945190429688,0.0,0.0
31.0,73.0,0.1,56.022682189941406,67.23373413085938,0.0,0.0
31.0,73.0,0.3,56.022682189941406,67.23373413085938,0.0,0.0
31.0,73.0,0.7,56.022682189941406,67.23373413085938,0.0,0.0
31.0,73.0,1.0,56.022682189941406,67.23373413085938,0.0,0.0
31.0,81.0,0.1,57.613121032714844,69.76142883300781,0.0,0.0
31.0,81.0,0.3,57.613121032714844,69.76142883300781,0.0,0.0
31.0,81.0,0.7,57.613121032714844,69.76142883300781,0.0,0.0
31.0,81.0,1.0,57.613121032714844,69.76142883300781,0.0,0.0
31.0,89.0,0.1,59.00016403198242,72.72085571289062,0.0,0.0
31.0,89.0,0.3,59.00016403198242,72.72085571289062,0.0,0.0
31.0,89.0,0.7,59.00016403198242,72.72085571289062,0.0,0.0
31.0,89.0,1.0,59.00016403198242,72.72085571289062,0.0,0.0
31.0,97.0,0.1,59.87007522583008,76.08635711669922,0.0,0.0
31.0,97.0,0.3,59.87007522583008,76.08635711669922,0.0,0.0
31.0,97.0,0.7,59.87007522583008,76.08635711669922,0.0,0.0
31.0,97.0,1.0,59.87007522583008,76.08635711669922,0.0,0.0
31.0,105.0,0.1,59.8530158996582,74.80226135253906,0.0,0.0
31.0,105.0,0.3,59.8530158996582,74.80226135253906,0.0,0.0
31.0,105.0,0.7,59.8530158996582,74.80226135253906,0.0,0.0
31.0,105.0,1.0,59.8530158996582,74.80226135253906,0.0,0.0
31.0,113.0,0.1,59.900638580322266,74.91941833496094,0.0,0.0
31.0,113.0,0.3,59.900638580322266,74.91941833496094,0.0,0.0
31.0,113.0,0.7,59.900638580322266,74.91941833496094,0.0,0.0
31.0,113.0,1.0,59.900638580322266,74.91941833496094,0.0,0.0
31.0,121.0,0.1,59.997352600097656,74.84740447998047,0.0,0.0
31.0,121.0,0.3,59.997352600097656,74.84740447998047,0.0,0.0
31.0,121.0,0.7,59.997352600097656,74.84740447998047,0.0,0.0
31.0,121.0,1.0,59.997352600097656,74.84740447998047,0.0,0.0
31.0,127.0,0.1,59.8032341003418,75.16513061523438,0.0,0.0
31.0,127.0,0.3,59.8032341003418,75.16513061523438,0.0,0.0
31.0,127.0,0.7,59.8032341003418,75.16513061523438,0.0,0.0
31.0,127.0,1.0,59.8032341003418,75.16513061523438,0.0,0.0
32.0,1.0,0.1,24.521522521972656,29.620285034179688,0.0,0.0
32.0,1.0,0.3,24.521522521972656,29.620285034179688,0.0,0.0
32.0,1.0,0.7,24.521522521972656,29.620285034179688,0.0,0.0
32.0,1.0,1.0,24.521522521972656,29.620285034179688,0.0,0.0
32.0,9.0,0.1,23.105987548828125,31.608837127685547,0.0,0.0
32.0,9.0,0.3,23.105987548828125,31.608837127685547,0.0,0.0
32.0,9.0,0.7,23.105987548828125,31.608837127685547,0.0,0.0
32.0,9.0,1.0,23.105987548828125,31.608837127685547,0.0,0.0
32.0,17.0,0.1,26.463211059570312,55.00567626953125,0.0,0.0
32.0,17.0,0.3,26.463211059570312,55.00567626953125,0.0,0.0
32.0,17.0,0.7,26.463211059570312,55.00567626953125,0.0,0.0
32.0,17.0,1.0,26.463211059570312,55.00567626953125,0.0,0.0
32.0,25.0,0.1,25.41974639892578,57.44916915893555,0.0,0.0
32.0,25.0,0.3,25.41974639892578,57.44916915893555,0.0,0.0
32.0,25.0,0.7,25.41974639892578,57.44916915893555,0.0,0.0
32.0,25.0,1.0,25.41974639892578,57.44916915893555,0.0,0.0
32.0,33.0,0.1,26.241477966308594,59.720741271972656,0.0,0.0
32.0,33.0,0.3,26.241477966308594,59.720741271972656,0.0,0.0
32.0,33.0,0.7,26.241477966308594,59.720741271972656,0.0,0.0
32.0,33.0,1.0,26.241477966308594,59.720741271972656,0.0,0.0
32.0,41.0,0.1,24.080650329589844,61.658790588378906,0.0,0.0
32.0,41.0,0.3,24.080650329589844,61.658790588378906,0.0,0.0
32.0,41.0,0.7,24.080650329589844,61.658790588378906,0.0,0.0
32.0,41.0,1.0,24.080650329589844,61.658790588378906,0.0,0.0
32.0,49.0,0.1,24.0562744140625,63.742942810058594,0.0,0.0
32.0,49.0,0.3,24.0562744140625,63.742942810058594,0.0,0.0
32.0,49.0,0.7,24.0562744140625,63.742942810058594,0.0,0.0
32.0,49.0,1.0,24.0562744140625,63.742942810058594,0.0,0.0
32.0,57.0,0.1,52.69741439819336,65.97695922851562,0.0,0.0
32.0,57.0,0.3,52.69741439819336,65.97695922851562,0.0,0.0
32.0,57.0,0.7,52.69741439819336,65.97695922851562,0.0,0.0
32.0,57.0,1.0,52.69741439819336,65.97695922851562,0.0,0.0
32.0,65.0,0.1,55.226646423339844,67.04074096679688,0.0,0.0
32.0,65.0,0.3,55.226646423339844,67.04074096679688,0.0,0.0
32.0,65.0,0.7,55.226646423339844,67.04074096679688,0.0,0.0
32.0,65.0,1.0,55.226646423339844,67.04074096679688,0.0,0.0
32.0,73.0,0.1,57.49554443359375,70.0989761352539,0.0,0.0
32.0,73.0,0.3,57.49554443359375,70.0989761352539,0.0,0.0
32.0,73.0,0.7,57.49554443359375,70.0989761352539,0.0,0.0
32.0,73.0,1.0,57.49554443359375,70.0989761352539,0.0,0.0
32.0,81.0,0.1,59.42145538330078,72.67095947265625,0.0,0.0
32.0,81.0,0.3,59.42145538330078,72.67095947265625,0.0,0.0
32.0,81.0,0.7,59.42145538330078,72.67095947265625,0.0,0.0
32.0,81.0,1.0,59.42145538330078,72.67095947265625,0.0,0.0
32.0,89.0,0.1,60.513458251953125,76.05143737792969,0.0,0.0
32.0,89.0,0.3,60.513458251953125,76.05143737792969,0.0,0.0
32.0,89.0,0.7,60.513458251953125,76.05143737792969,0.0,0.0
32.0,89.0,1.0,60.513458251953125,76.05143737792969,0.0,0.0
32.0,97.0,0.1,61.43806076049805,78.36200714111328,0.0,0.0
32.0,97.0,0.3,61.43806076049805,78.36200714111328,0.0,0.0
32.0,97.0,0.7,61.43806076049805,78.36200714111328,0.0,0.0
32.0,97.0,1.0,61.43806076049805,78.36200714111328,0.0,0.0
32.0,105.0,0.1,61.386695861816406,78.18000793457031,0.0,0.0
32.0,105.0,0.3,61.386695861816406,78.18000793457031,0.0,0.0
32.0,105.0,0.7,61.386695861816406,78.18000793457031,0.0,0.0
32.0,105.0,1.0,61.386695861816406,78.18000793457031,0.0,0.0
32.0,113.0,0.1,61.43547058105469,77.39010620117188,0.0,0.0
32.0,113.0,0.3,61.43547058105469,77.39010620117188,0.0,0.0
32.0,113.0,0.7,61.43547058105469,77.39010620117188,0.0,0.0
32.0,113.0,1.0,61.43547058105469,77.39010620117188,0.0,0.0
32.0,121.0,0.1,61.36832046508789,77.27600860595703,0.0,0.0
32.0,121.0,0.3,61.36832046508789,77.27600860595703,0.0,0.0
32.0,121.0,0.7,61.36832046508789,77.27600860595703,0.0,0.0
32.0,121.0,1.0,61.36832046508789,77.27600860595703,0.0,0.0
32.0,127.0,0.1,61.269012451171875,76.58282470703125,0.0,0.0
32.0,127.0,0.3,61.269012451171875,76.58282470703125,0.0,0.0
32.0,127.0,0.7,61.269012451171875,76.58282470703125,0.0,0.0
32.0,127.0,1.0,61.269012451171875,76.58282470703125,0.0,0.0
33.0,1.0,0.1,25.564895629882812,35.91372299194336,0.0,0.0
33.0,1.0,0.3,25.564895629882812,35.91372299194336,0.0,0.0
33.0,1.0,0.7,25.564895629882812,35.91372299194336,0.0,0.0
33.0,1.0,1.0,25.564895629882812,35.91372299194336,0.0,0.0
33.0,9.0,0.1,27.525779724121094,33.015811920166016,0.0,0.0
33.0,9.0,0.3,27.525779724121094,33.015811920166016,0.0,0.0
33.0,9.0,0.7,27.525779724121094,33.015811920166016,0.0,0.0
33.0,9.0,1.0,27.525779724121094,33.015811920166016,0.0,0.0
33.0,17.0,0.1,27.92833709716797,49.624446868896484,0.0,0.0
33.0,17.0,0.3,27.92833709716797,49.624446868896484,0.0,0.0
33.0,17.0,0.7,27.92833709716797,49.624446868896484,0.0,0.0
33.0,17.0,1.0,27.92833709716797,49.624446868896484,0.0,0.0
33.0,25.0,0.1,26.795982360839844,53.91950607299805,0.0,0.0
33.0,25.0,0.3,26.795982360839844,53.91950607299805,0.0,0.0
33.0,25.0,0.7,26.795982360839844,53.91950607299805,0.0,0.0
33.0,25.0,1.0,26.795982360839844,53.91950607299805,0.0,0.0
33.0,33.0,0.1,24.20575714111328,57.23345947265625,0.0,0.0
33.0,33.0,0.3,24.20575714111328,57.23345947265625,0.0,0.0
33.0,33.0,0.7,24.20575714111328,57.23345947265625,0.0,0.0
33.0,33.0,1.0,24.20575714111328,57.23345947265625,0.0,0.0
33.0,41.0,0.1,25.30596160888672,60.87868118286133,0.0,0.0
33.0,41.0,0.3,25.30596160888672,60.87868118286133,0.0,0.0
33.0,41.0,0.7,25.30596160888672,60.87868118286133,0.0,0.0
33.0,41.0,1.0,25.30596160888672,60.87868118286133,0.0,0.0
33.0,49.0,0.1,23.457611083984375,63.515968322753906,0.0,0.0
33.0,49.0,0.3,23.457611083984375,63.515968322753906,0.0,0.0
33.0,49.0,0.7,23.457611083984375,63.515968322753906,0.0,0.0
33.0,49.0,1.0,23.457611083984375,63.515968322753906,0.0,0.0
33.0,57.0,0.1,50.68533706665039,65.72428894042969,0.0,0.0
33.0,57.0,0.3,50.68533706665039,65.72428894042969,0.0,0.0
33.0,57.0,0.7,50.68533706665039,65.72428894042969,0.0,0.0
33.0,57.0,1.0,50.68533706665039,65.72428894042969,0.0,0.0
33.0,65.0,0.1,54.89507293701172,68.15864562988281,0.0,0.0
33.0,65.0,0.3,54.89507293701172,68.15864562988281,0.0,0.0
33.0,65.0,0.7,54.89507293701172,68.15864562988281,0.0,0.0
33.0,65.0,1.0,54.89507293701172,68.15864562988281,0.0,0.0
33.0,73.0,0.1,57.31168746948242,70.23672485351562,0.0,0.0
33.0,73.0,0.3,57.31168746948242,70.23672485351562,0.0,0.0
33.0,73.0,0.7,57.31168746948242,70.23672485351562,0.0,0.0
33.0,73.0,1.0,57.31168746948242,70.23672485351562,0.0,0.0
33.0,81.0,0.1,59.39487838745117,72.77931213378906,0.0,0.0
33.0,81.0,0.3,59.39487838745117,72.77931213378906,0.0,0.0
33.0,81.0,0.7,59.39487838745117,72.77931213378906,0.0,0.0
33.0,81.0,1.0,59.39487838745117,72.77931213378906,0.0,0.0
33.0,89.0,0.1,60.68866729736328,77.86514282226562,0.0,0.0
33.0,89.0,0.3,60.68866729736328,77.86514282226562,0.0,0.0
33.0,89.0,0.7,60.68866729736328,77.86514282226562,0.0,0.0
33.0,89.0,1.0,60.68866729736328,77.86514282226562,0.0,0.0
33.0,97.0,0.1,61.81281280517578,78.47837829589844,0.0,0.0
33.0,97.0,0.3,61.81281280517578,78.47837829589844,0.0,0.0
33.0,97.0,0.7,61.81281280517578,78.47837829589844,0.0,0.0
33.0,97.0,1.0,61.81281280517578,78.47837829589844,0.0,0.0
33.0,105.0,0.1,61.79161834716797,78.14866638183594,0.0,0.0
33.0,105.0,0.3,61.79161834716797,78.14866638183594,0.0,0.0
33.0,105.0,0.7,61.79161834716797,78.14866638183594,0.0,0.0
33.0,105.0,1.0,61.79161834716797,78.14866638183594,0.0,0.0
33.0,113.0,0.1,61.70145797729492,78.38032531738281,0.0,0.0
33.0,113.0,0.3,61.70145797729492,78.38032531738281,0.0,0.0
33.0,113.0,0.7,61.70145797729492,78.38032531738281,0.0,0.0
33.0,113.0,1.0,61.70145797729492,78.38032531738281,0.0,0.0
33.0,121.0,0.1,61.46728515625,77.7048110961914,0.0,0.0
33.0,121.0,0.3,61.46728515625,77.7048110961914,0.0,0.0
33.0,121.0,0.7,61.46728515625,77.7048110961914,0.0,0.0
33.0,121.0,1.0,61.46728515625,77.7048110961914,0.0,0.0
33.0,127.0,0.1,61.454856872558594,78.60694885253906,0.0,0.0
33.0,127.0,0.3,61.454856872558594,78.60694885253906,0.0,0.0
33.0,127.0,0.7,61.454856872558594,78.60694885253906,0.0,0.0
33.0,127.0,1.0,61.454856872558594,78.60694885253906,0.0,0.0
34.0,1.0,0.1,24.79853057861328,30.572357177734375,0.0,0.0
34.0,1.0,0.3,24.79853057861328,30.572357177734375,0.0,0.0
34.0,1.0,0.7,24.79853057861328,30.572357177734375,0.0,0.0
34.0,1.0,1.0,24.79853057861328,30.572357177734375,0.0,0.0
34.0,9.0,0.1,25.740692138671875,31.724414825439453,0.0,0.0
34.0,9.0,0.3,25.740692138671875,31.724414825439453,0.0,0.0
34.0,9.0,0.7,25.740692138671875,31.724414825439453,0.0,0.0
34.0,9.0,1.0,25.740692138671875,31.724414825439453,0.0,0.0
34.0,17.0,0.1,21.990821838378906,41.080589294433594,0.0,0.0
34.0,17.0,0.3,21.990821838378906,41.080589294433594,0.0,0.0
34.0,17.0,0.7,21.990821838378906,41.080589294433594,0.0,0.0
34.0,17.0,1.0,21.990821838378906,41.080589294433594,0.0,0.0
34.0,25.0,0.1,26.649139404296875,54.14060974121094,0.0,0.0
34.0,25.0,0.3,26.649139404296875,54.14060974121094,0.0,0.0
34.0,25.0,0.7,26.649139404296875,54.14060974121094,0.0,0.0
34.0,25.0,1.0,26.649139404296875,54.14060974121094,0.0,0.0
34.0,33.0,0.1,26.8203125,57.504432678222656,0.0,0.0
34.0,33.0,0.3,26.8203125,57.504432678222656,0.0,0.0
34.0,33.0,0.7,26.8203125,57.504432678222656,0.0,0.0
34.0,33.0,1.0,26.8203125,57.504432678222656,0.0,0.0
34.0,41.0,0.1,25.784927368164062,59.7714958190918,0.0,0.0
34.0,41.0,0.3,25.784927368164062,59.7714958190918,0.0,0.0
34.0,41.0,0.7,25.784927368164062,59.7714958190918,0.0,0.0
34.0,41.0,1.0,25.784927368164062,59.7714958190918,0.0,0.0
34.0,49.0,0.1,46.09163284301758,61.30399703979492,0.0,0.0
34.0,49.0,0.3,46.09163284301758,61.30399703979492,0.0,0.0
34.0,49.0,0.7,46.09163284301758,61.30399703979492,0.0,0.0
34.0,49.0,1.0,46.09163284301758,61.30399703979492,0.0,0.0
34.0,57.0,0.1,27.226119995117188,63.60126495361328,0.0,0.0
34.0,57.0,0.3,27.226119995117188,63.60126495361328,0.0,0.0
34.0,57.0,0.7,27.226119995117188,63.60126495361328,0.0,0.0
34.0,57.0,1.0,27.226119995117188,63.60126495361328,0.0,0.0
34.0,65.0,0.1,55.2401008605957,65.29100799560547,0.0,0.0
34.0,65.0,0.3,55.2401008605957,65.29100799560547,0.0,0.0
34.0,65.0,0.7,55.2401008605957,65.29100799560547,0.0,0.0
34.0,65.0,1.0,55.2401008605957,65.29100799560547,0.0,0.0
34.0,73.0,0.1,57.73529815673828,67.6697998046875,0.0,0.0
34.0,73.0,0.3,57.73529815673828,67.6697998046875,0.0,0.0
34.0,73.0,0.7,57.73529815673828,67.6697998046875,0.0,0.0
34.0,73.0,1.0,57.73529815673828,67.6697998046875,0.0,0.0
34.0,81.0,0.1,59.899681091308594,69.7447509765625,0.0,0.0
34.0,81.0,0.3,59.899681091308594,69.7447509765625,0.0,0.0
34.0,81.0,0.7,59.899681091308594,69.7447509765625,0.0,0.0
34.0,81.0,1.0,59.899681091308594,69.7447509765625,0.0,0.0
34.0,89.0,0.1,61.02604675292969,76.17415618896484,0.0,0.0
34.0,89.0,0.3,61.02604675292969,76.17415618896484,0.0,0.0
34.0,89.0,0.7,61.02604675292969,76.17415618896484,0.0,0.0
34.0,89.0,1.0,61.02604675292969,76.17415618896484,0.0,0.0
34.0,97.0,0.1,61.52143859863281,77.29515838623047,0.0,0.0
34.0,97.0,0.3,61.52143859863281,77.29515838623047,0.0,0.0
34.0,97.0,0.7,61.52143859863281,77.29515838623047,0.0,0.0
34.0,97.0,1.0,61.52143859863281,77.29515838623047,0.0,0.0
34.0,105.0,0.1,61.448097229003906,77.20211029052734,0.0,0.0
34.0,105.0,0.3,61.448097229003906,77.20211029052734,0.0,0.0
34.0,105.0,0.7,61.448097229003906,77.20211029052734,0.0,0.0
34.0,105.0,1.0,61.448097229003906,77.20211029052734,0.0,0.0
34.0,113.0,0.1,61.36106491088867,77.28445434570312,0.0,0.0
34.0,113.0,0.3,61.36106491088867,77.28445434570312,0.0,0.0
34.0,113.0,0.7,61.36106491088867,77.28445434570312,0.0,0.0
34.0,113.0,1.0,61.36106491088867,77.28445434570312,0.0,0.0
34.0,121.0,0.1,61.34624099731445,77.34459686279297,0.0,0.0
34.0,121.0,0.3,61.34624099731445,77.34459686279297,0.0,0.0
34.0,121.0,0.7,61.34624099731445,77.34459686279297,0.0,0.0
34.0,121.0,1.0,61.34624099731445,77.34459686279297,0.0,0.0
34.0,127.0,0.1,61.30949020385742,77.09515380859375,0.0,0.0
34.0,127.0,0.3,61.30949020385742,77.09515380859375,0.0,0.0
34.0,127.0,0.7,61.30949020385742,77.09515380859375,0.0,0.0
34.0,127.0,1.0,61.30949020385742,77.09515380859375,0.0,0.0
35.0,1.0,0.1,22.664581298828125,26.933021545410156,0.0,0.0
35.0,1.0,0.3,22.664581298828125,26.933021545410156,0.0,0.0
35.0,1.0,0.7,22.664581298828125,26.933021545410156,0.0,0.0
35.0,1.0,1.0,22.664581298828125,26.933021545410156,0.0,0.0
35.0,9.0,0.1,25.277061462402344,28.979164123535156,0.0,0.0
35.0,9.0,0.3,25.277061462402344,28.979164123535156,0.0,0.0
35.0,9.0,0.7,25.277061462402344,28.979164123535156,0.0,0.0
35.0,9.0,1.0,25.277061462402344,28.979164123535156,0.0,0.0
35.0,17.0,0.1,23.578407287597656,39.30643081665039,0.0,0.0
35.0,17.0,0.3,23.578407287597656,39.30643081665039,0.0,0.0
35.0,17.0,0.7,23.578407287597656,39.30643081665039,0.0,0.0
35.0,17.0,1.0,23.578407287597656,39.30643081665039,0.0,0.0
35.0,25.0,0.1,28.2607421875,51.336212158203125,0.0,0.0
35.0,25.0,0.3,28.2607421875,51.336212158203125,0.0,0.0
35.0,25.0,0.7,28.2607421875,51.336212158203125,0.0,0.0
35.0,25.0,1.0,28.2607421875,51.336212158203125,0.0,0.0
35.0,33.0,0.1,24.290328979492188,53.13985824584961,0.0,0.0
35.0,33.0,0.3,24.290328979492188,53.13985824584961,0.0,0.0
35.0,33.0,0.7,24.290328979492188,53.13985824584961,0.0,0.0
35.0,33.0,1.0,24.290328979492188,53.13985824584961,0.0,0.0
35.0,41.0,0.1,38.41535568237305,56.01791000366211,0.0,0.0
35.0,41.0,0.3,38.41535568237305,56.01791000366211,0.0,0.0
35.0,41.0,0.7,38.41535568237305,56.01791000366211,0.0,0.0
35.0,41.0,1.0,38.41535568237305,56.01791000366211,0.0,0.0
35.0,49.0,0.1,26.412132263183594,58.59961700439453,0.0,0.0
35.0,49.0,0.3,26.412132263183594,58.59961700439453,0.0,0.0
35.0,49.0,0.7,26.412132263183594,58.59961700439453,0.0,0.0
35.0,49.0,1.0,26.412132263183594,58.59961700439453,0.0,0.0
35.0,57.0,0.1,44.703346252441406,61.16961669921875,0.0,0.0
35.0,57.0,0.3,44.703346252441406,61.16961669921875,0.0,0.0
35.0,57.0,0.7,44.703346252441406,61.16961669921875,0.0,0.0
35.0,57.0,1.0,44.703346252441406,61.16961669921875,0.0,0.0
35.0,65.0,0.1,54.01891326904297,63.525108337402344,0.0,0.0
35.0,65.0,0.3,54.01891326904297,63.525108337402344,0.0,0.0
35.0,65.0,0.7,54.01891326904297,63.525108337402344,0.0,0.0
35.0,65.0,1.0,54.01891326904297,63.525108337402344,0.0,0.0
35.0,73.0,0.1,58.110843658447266,65.66034698486328,0.0,0.0
35.0,73.0,0.3,58.110843658447266,65.66034698486328,0.0,0.0
35.0,73.0,0.7,58.110843658447266,65.66034698486328,0.0,0.0
35.0,73.0,1.0,58.110843658447266,65.66034698486328,0.0,0.0
35.0,81.0,0.1,60.270782470703125,68.63538360595703,0.0,0.0
35.0,81.0,0.3,60.270782470703125,68.63538360595703,0.0,0.0
35.0,81.0,0.7,60.270782470703125,68.63538360595703,0.0,0.0
35.0,81.0,1.0,60.270782470703125,68.63538360595703,0.0,0.0
35.0,89.0,0.1,61.73516082763672,75.044677734375,0.0,0.0
35.0,89.0,0.3,61.73516082763672,75.044677734375,0.0,0.0
35.0,89.0,0.7,61.73516082763672,75.044677734375,0.0,0.0
35.0,89.0,1.0,61.73516082763672,75.044677734375,0.0,0.0
35.0,97.0,0.1,62.471832275390625,76.08356475830078,0.0,0.0
35.0,97.0,0.3,62.471832275390625,76.08356475830078,0.0,0.0
35.0,97.0,0.7,62.471832275390625,76.08356475830078,0.0,0.0
35.0,97.0,1.0,62.471832275390625,76.08356475830078,0.0,0.0
35.0,105.0,0.1,62.43111801147461,76.41839599609375,0.0,0.0
35.0,105.0,0.3,62.43111801147461,76.41839599609375,0.0,0.0
35.0,105.0,0.7,62.43111801147461,76.41839599609375,0.0,0.0
35.0,105.0,1.0,62.43111801147461,76.41839599609375,0.0,0.0
35.0,113.0,0.1,62.38698959350586,76.46246337890625,0.0,0.0
35.0,113.0,0.3,62.38698959350586,76.46246337890625,0.0,0.0
35.0,113.0,0.7,62.38698959350586,76.46246337890625,0.0,0.0
35.0,113.0,1.0,62.38698959350586,76.46246337890625,0.0,0.0
35.0,121.0,0.1,62.47113800048828,76.80985260009766,0.0,0.0
35.0,121.0,0.3,62.47113800048828,76.80985260009766,0.0,0.0
35.0,121.0,0.7,62.47113800048828,76.80985260009766,0.0,0.0
35.0,121.0,1.0,62.47113800048828,76.80985260009766,0.0,0.0
35.0,127.0,0.1,62.330535888671875,75.80569458007812,0.0,0.0
35.0,127.0,0.3,62.330535888671875,75.80569458007812,0.0,0.0
35.0,127.0,0.7,62.330535888671875,75.80569458007812,0.0,0.0
35.0,127.0,1.0,62.330535888671875,75.80569458007812,0.0,0.0
36.0,1.0,0.1,20.69182586669922,34.33229446411133,0.0,0.0
36.0,1.0,0.3,20.69182586669922,34.33229446411133,0.0,0.0
36.0,1.0,0.7,20.69182586669922,34.33229446411133,0.0,0.0
36.0,1.0,1.0,20.69182586669922,34.33229446411133,0.0,0.0
36.0,9.0,0.1,19.739959716796875,31.343669891357422,0.0,0.0
36.0,9.0,0.3,19.739959716796875,31.343669891357422,0.0,0.0
36.0,9.0,0.7,19.739959716796875,31.343669891357422,0.0,0.0
36.0,9.0,1.0,19.739959716796875,31.343669891357422,0.0,0.0
36.0,17.0,0.1,23.095184326171875,49.086082458496094,0.0,0.0
36.0,17.0,0.3,23.095184326171875,49.086082458496094,0.0,0.0
36.0,17.0,0.7,23.095184326171875,49.086082458496094,0.0,0.0
36.0,17.0,1.0,23.095184326171875,49.086082458496094,0.0,0.0
36.0,25.0,0.1,24.78907012939453,53.308143615722656,0.0,0.0
36.0,25.0,0.3,24.78907012939453,53.308143615722656,0.0,0.0
36.0,25.0,0.7,24.78907012939453,53.308143615722656,0.0,0.0
36.0,25.0,1.0,24.78907012939453,53.308143615722656,0.0,0.0
36.0,33.0,0.1,27.541030883789062,56.136131286621094,0.0,0.0
36.0,33.0,0.3,27.541030883789062,56.136131286621094,0.0,0.0
36.0,33.0,0.7,27.541030883789062,56.136131286621094,0.0,0.0
36.0,33.0,1.0,27.541030883789062,56.136131286621094,0.0,0.0
36.0,41.0,0.1,26.41387939453125,58.9802360534668,0.0,0.0
36.0,41.0,0.3,26.41387939453125,58.9802360534668,0.0,0.0
36.0,41.0,0.7,26.41387939453125,58.9802360534668,0.0,0.0
36.0,41.0,1.0,26.41387939453125,58.9802360534668,0.0,0.0
36.0,49.0,0.1,45.92543411254883,61.81102752685547,0.0,0.0
36.0,49.0,0.3,45.92543411254883,61.81102752685547,0.0,0.0
36.0,49.0,0.7,45.92543411254883,61.81102752685547,0.0,0.0
36.0,49.0,1.0,45.92543411254883,61.81102752685547,0.0,0.0
36.0,57.0,0.1,23.212326049804688,64.60151672363281,0.0,0.0
36.0,57.0,0.3,23.212326049804688,64.60151672363281,0.0,0.0
36.0,57.0,0.7,23.212326049804688,64.60151672363281,0.0,0.0
36.0,57.0,1.0,23.212326049804688,64.60151672363281,0.0,0.0
36.0,65.0,0.1,23.576019287109375,67.0150375366211,0.0,0.0
36.0,65.0,0.3,23.576019287109375,67.0150375366211,0.0,0.0
36.0,65.0,0.7,23.576019287109375,67.0150375366211,0.0,0.0
36.0,65.0,1.0,23.576019287109375,67.0150375366211,0.0,0.0
36.0,73.0,0.1,59.78731918334961,68.50485229492188,0.0,0.0
36.0,73.0,0.3,59.78731918334961,68.50485229492188,0.0,0.0
36.0,73.0,0.7,59.78731918334961,68.50485229492188,0.0,0.0
36.0,73.0,1.0,59.78731918334961,68.50485229492188,0.0,0.0
36.0,81.0,0.1,62.13837814331055,71.58464050292969,0.0,0.0
36.0,81.0,0.3,62.13837814331055,71.58464050292969,0.0,0.0
36.0,81.0,0.7,62.13837814331055,71.58464050292969,0.0,0.0
36.0,81.0,1.0,62.13837814331055,71.58464050292969,0.0,0.0
36.0,89.0,0.1,63.43453598022461,75.18293762207031,0.0,0.0
36.0,89.0,0.3,63.43453598022461,75.18293762207031,0.0,0.0
36.0,89.0,0.7,63.43453598022461,75.18293762207031,0.0,0.0
36.0,89.0,1.0,63.43453598022461,75.18293762207031,0.0,0.0
36.0,97.0,0.1,63.9761962890625,77.94229888916016,0.0,0.0
36.0,97.0,0.3,63.9761962890625,77.94229888916016,0.0,0.0
36.0,97.0,0.7,63.9761962890625,77.94229888916016,0.0,0.0
36.0,97.0,1.0,63.9761962890625,77.94229888916016,0.0,0.0
36.0,105.0,0.1,63.841957092285156,77.83727264404297,0.0,0.0
36.0,105.0,0.3,63.841957092285156,77.83727264404297,0.0,0.0
36.0,105.0,0.7,63.841957092285156,77.83727264404297,0.0,0.0
36.0,105.0,1.0,63.841957092285156,77.83727264404297,0.0,0.0
36.0,113.0,0.1,63.857215881347656,77.31855773925781,0.0,0.0
36.0,113.0,0.3,63.857215881347656,77.31855773925781,0.0,0.0
36.0,113.0,0.7,63.857215881347656,77.31855773925781,0.0,0.0
36.0,113.0,1.0,63.857215881347656,77.31855773925781,0.0,0.0
36.0,121.0,0.1,63.886817932128906,77.89079284667969,0.0,0.0
36.0,121.0,0.3,63.886817932128906,77.89079284667969,0.0,0.0
36.0,121.0,0.7,63.886817932128906,77.89079284667969,0.0,0.0
36.0,121.0,1.0,63.886817932128906,77.89079284667969,0.0,0.0
36.0,127.0,0.1,63.77752685546875,77.62516021728516,0.0,0.0
36.0,127.0,0.3,63.77752685546875,77.62516021728516,0.0,0.0
36.0,127.0,0.7,63.77752685546875,77.62516021728516,0.0,0.0
36.0,127.0,1.0,63.77752685546875,77.62516021728516,0.0,0.0
37.0,1.0,0.1,27.58819580078125,30.591827392578125,0.0,0.0
37.0,1.0,0.3,27.58819580078125,30.591827392578125,0.0,0.0
37.0,1.0,0.7,27.58819580078125,30.591827392578125,0.0,0.0
37.0,1.0,1.0,27.58819580078125,30.591827392578125,0.0,0.0
37.0,9.0,0.1,24.43915557861328,29.063644409179688,0.0,0.0
37.0,9.0,0.3,24.43915557861328,29.063644409179688,0.0,0.0
37.0,9.0,0.7,24.43915557861328,29.063644409179688,0.0,0.0
37.0,9.0,1.0,24.43915557861328,29.063644409179688,0.0,0.0
37.0,17.0,0.1,26.375778198242188,38.55641174316406,0.0,0.0
37.0,17.0,0.3,26.375778198242188,38.55641174316406,0.0,0.0
37.0,17.0,0.7,26.375778198242188,38.55641174316406,0.0,0.0
37.0,17.0,1.0,26.375778198242188,38.55641174316406,0.0,0.0
37.0,25.0,0.1,26.32098388671875,53.99176025390625,0.0,0.0
37.0,25.0,0.3,26.32098388671875,53.99176025390625,0.0,0.0
37.0,25.0,0.7,26.32098388671875,53.99176025390625,0.0,0.0
37.0,25.0,1.0,26.32098388671875,53.99176025390625,0.0,0.0
37.0,33.0,0.1,23.42101287841797,56.94766616821289,0.0,0.0
37.0,33.0,0.3,23.42101287841797,56.94766616821289,0.0,0.0
37.0,33.0,0.7,23.42101287841797,56.94766616821289,0.0,0.0
37.0,33.0,1.0,23.42101287841797,56.94766616821289,0.0,0.0
37.0,41.0,0.1,26.93933868408203,59.8068962097168,0.0,0.0
37.0,41.0,0.3,26.93933868408203,59.8068962097168,0.0,0.0
37.0,41.0,0.7,26.93933868408203,59.8068962097168,0.0,0.0
37.0,41.0,1.0,26.93933868408203,59.8068962097168,0.0,0.0
37.0,49.0,0.1,23.304794311523438,62.62681198120117,0.0,0.0
37.0,49.0,0.3,23.304794311523438,62.62681198120117,0.0,0.0
37.0,49.0,0.7,23.304794311523438,62.62681198120117,0.0,0.0
37.0,49.0,1.0,23.304794311523438,62.62681198120117,0.0,0.0
37.0,57.0,0.1,49.957828521728516,64.92031860351562,0.0,0.0
37.0,57.0,0.3,49.957828521728516,64.92031860351562,0.0,0.0
37.0,57.0,0.7,49.957828521728516,64.92031860351562,0.0,0.0
37.0,57.0,1.0,49.957828521728516,64.92031860351562,0.0,0.0
37.0,65.0,0.1,28.210365295410156,67.30940246582031,0.0,0.0
37.0,65.0,0.3,28.210365295410156,67.30940246582031,0.0,0.0
37.0,65.0,0.7,28.210365295410156,67.30940246582031,0.0,0.0
37.0,65.0,1.0,28.210365295410156,67.30940246582031,0.0,0.0
37.0,73.0,0.1,59.02518081665039,69.57450866699219,0.0,0.0
37.0,73.0,0.3,59.02518081665039,69.57450866699219,0.0,0.0
37.0,73.0,0.7,59.02518081665039,69.57450866699219,0.0,0.0
37.0,73.0,1.0,59.02518081665039,69.57450866699219,0.0,0.0
37.0,81.0,0.1,62.8039665222168,72.3667221069336,0.0,0.0
37.0,81.0,0.3,62.8039665222168,72.3667221069336,0.0,0.0
37.0,81.0,0.7,62.8039665222168,72.3667221069336,0.0,0.0
37.0,81.0,1.0,62.8039665222168,72.3667221069336,0.0,0.0
37.0,89.0,0.1,64.88522338867188,74.93589782714844,0.0,0.0
37.0,89.0,0.3,64.88522338867188,74.93589782714844,0.0,0.0
37.0,89.0,0.7,64.88522338867188,74.93589782714844,0.0,0.0
37.0,89.0,1.0,64.88522338867188,74.93589782714844,0.0,0.0
37.0,97.0,0.1,65.70951843261719,77.90481567382812,0.0,0.0
37.0,97.0,0.3,65.70951843261719,77.90481567382812,0.0,0.0
37.0,97.0,0.7,65.70951843261719,77.90481567382812,0.0,0.0
37.0,97.0,1.0,65.70951843261719,77.90481567382812,0.0,0.0
37.0,105.0,0.1,65.74494171142578,78.43785095214844,0.0,0.0
37.0,105.0,0.3,65.74494171142578,78.43785095214844,0.0,0.0
37.0,105.0,0.7,65.74494171142578,78.43785095214844,0.0,0.0
37.0,105.0,1.0,65.74494171142578,78.43785095214844,0.0,0.0
37.0,113.0,0.1,65.70217895507812,78.0256576538086,0.0,0.0
37.0,113.0,0.3,65.70217895507812,78.0256576538086,0.0,0.0
37.0,113.0,0.7,65.70217895507812,78.0256576538086,0.0,0.0
37.0,113.0,1.0,65.70217895507812,78.0256576538086,0.0,0.0
37.0,121.0,0.1,65.62612915039062,77.79971313476562,0.0,0.0
37.0,121.0,0.3,65.62612915039062,77.79971313476562,0.0,0.0
37.0,121.0,0.7,65.62612915039062,77.79971313476562,0.0,0.0
37.0,121.0,1.0,65.62612915039062,77.79971313476562,0.0,0.0
37.0,127.0,0.1,65.50396728515625,77.82595825195312,0.0,0.0
37.0,127.0,0.3,65.50396728515625,77.82595825195312,0.0,0.0
37.0,127.0,0.7,65.50396728515625,77.82595825195312,0.0,0.0
37.0,127.0,1.0,65.50396728515625,77.82595825195312,0.0,0.0
38.0,1.0,0.1,28.45227813720703,30.73529815673828,0.0,0.0
38.0,1.0,0.3,28.45227813720703,30.73529815673828,0.0,0.0
38.0,1.0,0.7,28.45227813720703,30.73529815673828,0.0,0.0
38.0,1.0,1.0,28.45227813720703,30.73529815673828,0.0,0.0
38.0,9.0,0.1,25.733238220214844,28.974021911621094,0.0,0.0
38.0,9.0,0.3,25.733238220214844,28.974021911621094,0.0,0.0
38.0,9.0,0.7,25.733238220214844,28.974021911621094,0.0,0.0
38.0,9.0,1.0,25.733238220214844,28.974021911621094,0.0,0.0
38.0,17.0,0.1,27.15613555908203,30.116558074951172,0.0,0.0
38.0,17.0,0.3,27.15613555908203,30.116558074951172,0.0,0.0
38.0,17.0,0.7,27.15613555908203,30.116558074951172,0.0,0.0
38.0,17.0,1.0,27.15613555908203,30.116558074951172,0.0,0.0
38.0,25.0,0.1,26.318222045898438,50.654056549072266,0.0,0.0
38.0,25.0,0.3,26.318222045898438,50.654056549072266,0.0,0.0
38.0,25.0,0.7,26.318222045898438,50.654056549072266,0.0,0.0
38.0,25.0,1.0,26.318222045898438,50.654056549072266,0.0,0.0
38.0,33.0,0.1,25.990020751953125,54.52291488647461,0.0,0.0
38.0,33.0,0.3,25.990020751953125,54.52291488647461,0.0,0.0
38.0,33.0,0.7,25.990020751953125,54.52291488647461,0.0,0.0
38.0,33.0,1.0,25.990020751953125,54.52291488647461,0.0,0.0
38.0,41.0,0.1,27.15192413330078,57.33134460449219,0.0,0.0
38.0,41.0,0.3,27.15192413330078,57.33134460449219,0.0,0.0
38.0,41.0,0.7,27.15192413330078,57.33134460449219,0.0,0.0
38.0,41.0,1.0,27.15192413330078,57.33134460449219,0.0,0.0
38.0,49.0,0.1,24.795455932617188,59.94366455078125,0.0,0.0
38.0,49.0,0.3,24.795455932617188,59.94366455078125,0.0,0.0
38.0,49.0,0.7,24.795455932617188,59.94366455078125,0.0,0.0
38.0,49.0,1.0,24.795455932617188,59.94366455078125,0.0,0.0
38.0,57.0,0.1,25.55663299560547,62.55099105834961,0.0,0.0
38.0,57.0,0.3,25.55663299560547,62.55099105834961,0.0,0.0
38.0,57.0,0.7,25.55663299560547,62.55099105834961,0.0,0.0
38.0,57.0,1.0,25.55663299560547,62.55099105834961,0.0,0.0
38.0,65.0,0.1,52.51750946044922,64.66641235351562,0.0,0.0
38.0,65.0,0.3,52.51750946044922,64.66641235351562,0.0,0.0
38.0,65.0,0.7,52.51750946044922,64.66641235351562,0.0,0.0
38.0,65.0,1.0,52.51750946044922,64.66641235351562,0.0,0.0
38.0,73.0,0.1,57.32537078857422,66.94180297851562,0.0,0.0
38.0,73.0,0.3,57.32537078857422,66.94180297851562,0.0,0.0
38.0,73.0,0.7,57.32537078857422,66.94180297851562,0.0,0.0
38.0,73.0,1.0,57.32537078857422,66.94180297851562,0.0,0.0
38.0,81.0,0.1,27.655532836914062,69.04638671875,0.0,0.0
38.0,81.0,0.3,27.655532836914062,69.04638671875,0.0,0.0
38.0,81.0,0.7,27.655532836914062,69.04638671875,0.0,0.0
38.0,81.0,1.0,27.655532836914062,69.04638671875,0.0,0.0
38.0,89.0,0.1,61.942867279052734,70.88697814941406,0.0,0.0
38.0,89.0,0.3,61.942867279052734,70.88697814941406,0.0,0.0
38.0,89.0,0.7,61.942867279052734,70.88697814941406,0.0,0.0
38.0,89.0,1.0,61.942867279052734,70.88697814941406,0.0,0.0
38.0,97.0,0.1,63.24858093261719,76.97042083740234,0.0,0.0
38.0,97.0,0.3,63.24858093261719,76.97042083740234,0.0,0.0
38.0,97.0,0.7,63.24858093261719,76.97042083740234,0.0,0.0
38.0,97.0,1.0,63.24858093261719,76.97042083740234,0.0,0.0
38.0,105.0,0.1,63.201908111572266,76.8953857421875,0.0,0.0
38.0,105.0,0.3,63.201908111572266,76.8953857421875,0.0,0.0
38.0,105.0,0.7,63.201908111572266,76.8953857421875,0.0,0.0
38.0,105.0,1.0,63.201908111572266,76.8953857421875,0.0,0.0
38.0,113.0,0.1,62.99066925048828,76.78094482421875,0.0,0.0
38.0,113.0,0.3,62.99066925048828,76.78094482421875,0.0,0.0
38.0,113.0,0.7,62.99066925048828,76.78094482421875,0.0,0.0
38.0,113.0,1.0,62.99066925048828,76.78094482421875,0.0,0.0
38.0,121.0,0.1,62.92930603027344,76.76220703125,0.0,0.0
38.0,121.0,0.3,62.92930603027344,76.76220703125,0.0,0.0
38.0,121.0,0.7,62.92930603027344,76.76220703125,0.0,0.0
38.0,121.0,1.0,62.92930603027344,76.76220703125,0.0,0.0
38.0,127.0,0.1,62.88520812988281,76.73609924316406,0.0,0.0
38.0,127.0,0.3,62.88520812988281,76.73609924316406,0.0,0.0
38.0,127.0,0.7,62.88520812988281,76.73609924316406,0.0,0.0
38.0,127.0,1.0,62.88520812988281,76.73609924316406,0.0,0.0
39.0,1.0,0.1,25.277694702148438,28.339744567871094,0.0,0.0
39.0,1.0,0.3,25.277694702148438,28.339744567871094,0.0,0.0
39.0,1.0,0.7,25.277694702148438,28.339744567871094,0.0,0.0
39.0,1.0,1.0,25.277694702148438,28.339744567871094,0.0,0.0
39.0,9.0,0.1,22.26569366455078,29.90996551513672,0.0,0.0
39.0,9.0,0.3,22.26569366455078,29.90996551513672,0.0,0.0
39.0,9.0,0.7,22.26569366455078,29.90996551513672,0.0,0.0
39.0,9.0,1.0,22.26569366455078,29.90996551513672,0.0,0.0
39.0,17.0,0.1,22.57219696044922,30.148704528808594,0.0,0.0
39.0,17.0,0.3,22.57219696044922,30.148704528808594,0.0,0.0
39.0,17.0,0.7,22.57219696044922,30.148704528808594,0.0,0.0
39.0,17.0,1.0,22.57219696044922,30.148704528808594,0.0,0.0
39.0,25.0,0.1,23.34899139404297,46.267311096191406,0.0,0.0
39.0,25.0,0.3,23.34899139404297,46.267311096191406,0.0,0.0
39.0,25.0,0.7,23.34899139404297,46.267311096191406,0.0,0.0
39.0,25.0,1.0,23.34899139404297,46.267311096191406,0.0,0.0
39.0,33.0,0.1,24.594688415527344,49.263343811035156,0.0,0.0
39.0,33.0,0.3,24.594688415527344,49.263343811035156,0.0,0.0
39.0,33.0,0.7,24.594688415527344,49.263343811035156,0.0,0.0
39.0,33.0,1.0,24.594688415527344,49.263343811035156,0.0,0.0
39.0,41.0,0.1,30.57413101196289,52.5124626159668,0.0,0.0
39.0,41.0,0.3,30.57413101196289,52.5124626159668,0.0,0.0
39.0,41.0,0.7,30.57413101196289,52.5124626159668,0.0,0.0
39.0,41.0,1.0,30.57413101196289,52.5124626159668,0.0,0.0
39.0,49.0,0.1,22.064178466796875,55.40067672729492,0.0,0.0
39.0,49.0,0.3,22.064178466796875,55.40067672729492,0.0,0.0
39.0,49.0,0.7,22.064178466796875,55.40067672729492,0.0,0.0
39.0,49.0,1.0,22.064178466796875,55.40067672729492,0.0,0.0
39.0,57.0,0.1,46.462493896484375,58.49394989013672,0.0,0.0
39.0,57.0,0.3,46.462493896484375,58.49394989013672,0.0,0.0
39.0,57.0,0.7,46.462493896484375,58.49394989013672,0.0,0.0
39.0,57.0,1.0,46.462493896484375,58.49394989013672,0.0,0.0
39.0,65.0,0.1,25.65253448486328,60.96010971069336,0.0,0.0
39.0,65.0,0.3,25.65253448486328,60.96010971069336,0.0,0.0
39.0,65.0,0.7,25.65253448486328,60.96010971069336,0.0,0.0
39.0,65.0,1.0,25.65253448486328,60.96010971069336,0.0,0.0
39.0,73.0,0.1,25.085525512695312,62.84370040893555,0.0,0.0
39.0,73.0,0.3,25.085525512695312,62.84370040893555,0.0,0.0
39.0,73.0,0.7,25.085525512695312,62.84370040893555,0.0,0.0
39.0,73.0,1.0,25.085525512695312,62.84370040893555,0.0,0.0
39.0,81.0,0.1,55.79937744140625,65.60704040527344,0.0,0.0
39.0,81.0,0.3,55.79937744140625,65.60704040527344,0.0,0.0
39.0,81.0,0.7,55.79937744140625,65.60704040527344,0.0,0.0
39.0,81.0,1.0,55.79937744140625,65.60704040527344,0.0,0.0
39.0,89.0,0.1,61.175010681152344,67.98910522460938,0.0,0.0
39.0,89.0,0.3,61.175010681152344,67.98910522460938,0.0,0.0
39.0,89.0,0.7,61.175010681152344,67.98910522460938,0.0,0.0
39.0,89.0,1.0,61.175010681152344,67.98910522460938,0.0,0.0
39.0,97.0,0.1,63.27544403076172,71.28721618652344,0.0,0.0
39.0,97.0,0.3,63.27544403076172,71.28721618652344,0.0,0.0
39.0,97.0,0.7,63.27544403076172,71.28721618652344,0.0,0.0
39.0,97.0,1.0,63.27544403076172,71.28721618652344,0.0,0.0
39.0,105.0,0.1,63.29850387573242,72.50729370117188,0.0,0.0
39.0,105.0,0.3,63.29850387573242,72.50729370117188,0.0,0.0
39.0,105.0,0.7,63.29850387573242,72.50729370117188,0.0,0.0
39.0,105.0,1.0,63.29850387573242,72.50729370117188,0.0,0.0
39.0,113.0,0.1,63.14299011230469,72.48304748535156,0.0,0.0
39.0,113.0,0.3,63.14299011230469,72.48304748535156,0.0,0.0
39.0,113.0,0.7,63.14299011230469,72.48304748535156,0.0,0.0
39.0,113.0,1.0,63.14299011230469,72.48304748535156,0.0,0.0
39.0,121.0,0.1,62.92438888549805,72.41417694091797,0.0,0.0
39.0,121.0,0.3,62.92438888549805,72.41417694091797,0.0,0.0
39.0,121.0,0.7,62.92438888549805,72.41417694091797,0.0,0.0
39.0,121.0,1.0,62.92438888549805,72.41417694091797,0.0,0.0
39.0,127.0,0.1,63.04739761352539,72.32728576660156,0.0,0.0
39.0,127.0,0.3,63.04739761352539,72.32728576660156,0.0,0.0
39.0,127.0,0.7,63.04739761352539,72.32728576660156,0.0,0.0
39.0,127.0,1.0,63.04739761352539,72.32728576660156,0.0,0.0
40.0,1.0,0.1,22.103294372558594,28.682960510253906,0.0,0.0
40.0,1.0,0.3,22.103294372558594,28.682960510253906,0.0,0.0
40.0,1.0,0.7,22.103294372558594,28.682960510253906,0.0,0.0
40.0,1.0,1.0,22.103294372558594,28.682960510253906,0.0,0.0
40.0,9.0,0.1,21.269981384277344,35.37953186035156,0.0,0.0
40.0,9.0,0.3,21.269981384277344,35.37953186035156,0.0,0.0
40.0,9.0,0.7,21.269981384277344,35.37953186035156,0.0,0.0
40.0,9.0,1.0,21.269981384277344,35.37953186035156,0.0,0.0
40.0,17.0,0.1,22.577682495117188,49.14960479736328,0.0,0.0
40.0,17.0,0.3,22.577682495117188,49.14960479736328,0.0,0.0
40.0,17.0,0.7,22.577682495117188,49.14960479736328,0.0,0.0
40.0,17.0,1.0,22.577682495117188,49.14960479736328,0.0,0.0
40.0,25.0,0.1,24.714462280273438,52.037532806396484,0.0,0.0
40.0,25.0,0.3,24.714462280273438,52.037532806396484,0.0,0.0
40.0,25.0,0.7,24.714462280273438,52.037532806396484,0.0,0.0
40.0,25.0,1.0,24.714462280273438,52.037532806396484,0.0,0.0
40.0,33.0,0.1,22.14588165283203,54.463768005371094,0.0,0.0
40.0,33.0,0.3,22.14588165283203,54.463768005371094,0.0,0.0
40.0,33.0,0.7,22.14588165283203,54.463768005371094,0.0,0.0
40.0,33.0,1.0,22.14588165283203,54.463768005371094,0.0,0.0
40.0,41.0,0.1,23.176895141601562,57.23933410644531,0.0,0.0
40.0,41.0,0.3,23.176895141601562,57.23933410644531,0.0,0.0
40.0,41.0,0.7,23.176895141601562,57.23933410644531,0.0,0.0
40.0,41.0,1.0,23.176895141601562,57.23933410644531,0.0,0.0
40.0,49.0,0.1,24.635406494140625,59.570316314697266,0.0,0.0
40.0,49.0,0.3,24.635406494140625,59.570316314697266,0.0,0.0
40.0,49.0,0.7,24.635406494140625,59.570316314697266,0.0,0.0
40.0,49.0,1.0,24.635406494140625,59.570316314697266,0.0,0.0
40.0,57.0,0.1,24.773109436035156,61.927127838134766,0.0,0.0
40.0,57.0,0.3,24.773109436035156,61.927127838134766,0.0,0.0
40.0,57.0,0.7,24.773109436035156,61.927127838134766,0.0,0.0
40.0,57.0,1.0,24.773109436035156,61.927127838134766,0.0,0.0
40.0,65.0,0.1,52.68983459472656,63.70883560180664,0.0,0.0
40.0,65.0,0.3,52.68983459472656,63.70883560180664,0.0,0.0
40.0,65.0,0.7,52.68983459472656,63.70883560180664,0.0,0.0
40.0,65.0,1.0,52.68983459472656,63.70883560180664,0.0,0.0
40.0,73.0,0.1,27.543357849121094,65.7152328491211,0.0,0.0
40.0,73.0,0.3,27.543357849121094,65.7152328491211,0.0,0.0
40.0,73.0,0.7,27.543357849121094,65.7152328491211,0.0,0.0
40.0,73.0,1.0,27.543357849121094,65.7152328491211,0.0,0.0
40.0,81.0,0.1,57.69979476928711,68.79226684570312,0.0,0.0
40.0,81.0,0.3,57.69979476928711,68.79226684570312,0.0,0.0
40.0,81.0,0.7,57.69979476928711,68.79226684570312,0.0,0.0
40.0,81.0,1.0,57.69979476928711,68.79226684570312,0.0,0.0
40.0,89.0,0.1,25.193817138671875,74.77863311767578,0.0,0.0
40.0,89.0,0.3,25.193817138671875,74.77863311767578,0.0,0.0
40.0,89.0,0.7,25.193817138671875,74.77863311767578,0.0,0.0
40.0,89.0,1.0,25.193817138671875,74.77863311767578,0.0,0.0
40.0,97.0,0.1,62.03883743286133,74.5938491821289,0.0,0.0
40.0,97.0,0.3,62.03883743286133,74.5938491821289,0.0,0.0
40.0,97.0,0.7,62.03883743286133,74.5938491821289,0.0,0.0
40.0,97.0,1.0,62.03883743286133,74.5938491821289,0.0,0.0
40.0,105.0,0.1,62.33491897583008,74.5564193725586,0.0,0.0
40.0,105.0,0.3,62.33491897583008,74.5564193725586,0.0,0.0
40.0,105.0,0.7,62.33491897583008,74.5564193725586,0.0,0.0
40.0,105.0,1.0,62.33491897583008,74.5564193725586,0.0,0.0
40.0,113.0,0.1,62.144683837890625,74.4760971069336,0.0,0.0
40.0,113.0,0.3,62.144683837890625,74.4760971069336,0.0,0.0
40.0,113.0,0.7,62.144683837890625,74.4760971069336,0.0,0.0
40.0,113.0,1.0,62.144683837890625,74.4760971069336,0.0,0.0
40.0,121.0,0.1,62.13750457763672,74.47598266601562,0.0,0.0
40.0,121.0,0.3,62.13750457763672,74.47598266601562,0.0,0.0
40.0,121.0,0.7,62.13750457763672,74.47598266601562,0.0,0.0
40.0,121.0,1.0,62.13750457763672,74.47598266601562,0.0,0.0
40.0,127.0,0.1,62.071861267089844,74.41212463378906,0.0,0.0
40.0,127.0,0.3,62.071861267089844,74.41212463378906,0.0,0.0
40.0,127.0,0.7,62.071861267089844,74.41212463378906,0.0,0.0
40.0,127.0,1.0,62.071861267089844,74.41212463378906,0.0,0.0
41.0,1.0,0.1,25.497604370117188,29.1259765625,0.0,0.0
41.0,1.0,0.3,25.497604370117188,29.1259765625,0.0,0.0
41.0,1.0,0.7,25.497604370117188,29.1259765625,0.0,0.0
41.0,1.0,1.0,25.497604370117188,29.1259765625,0.0,0.0
41.0,9.0,0.1,25.25713348388672,28.685714721679688,0.0,0.0
41.0,9.0,0.3,25.25713348388672,28.685714721679688,0.0,0.0
41.0,9.0,0.7,25.25713348388672,28.685714721679688,0.0,0.0
41.0,9.0,1.0,25.25713348388672,28.685714721679688,0.0,0.0
41.0,17.0,0.1,23.273841857910156,50.283119201660156,0.0,0.0
41.0,17.0,0.3,23.273841857910156,50.283119201660156,0.0,0.0
41.0,17.0,0.7,23.273841857910156,50.283119201660156,0.0,0.0
41.0,17.0,1.0,23.273841857910156,50.283119201660156,0.0,0.0
41.0,25.0,0.1,23.710723876953125,53.30839920043945,0.0,0.0
41.0,25.0,0.3,23.710723876953125,53.30839920043945,0.0,0.0
41.0,25.0,0.7,23.710723876953125,53.30839920043945,0.0,0.0
41.0,25.0,1.0,23.710723876953125,53.30839920043945,0.0,0.0
41.0,33.0,0.1,27.334426879882812,55.89695739746094,0.0,0.0
41.0,33.0,0.3,27.334426879882812,55.89695739746094,0.0,0.0
41.0,33.0,0.7,27.334426879882812,55.89695739746094,0.0,0.0
41.0,33.0,1.0,27.334426879882812,55.89695739746094,0.0,0.0
41.0,41.0,0.1,25.133056640625,58.11521530151367,0.0,0.0
41.0,41.0,0.3,25.133056640625,58.11521530151367,0.0,0.0
41.0,41.0,0.7,25.133056640625,58.11521530151367,0.0,0.0
41.0,41.0,1.0,25.133056640625,58.11521530151367,0.0,0.0
41.0,49.0,0.1,21.16071319580078,59.783138275146484,0.0,0.0
41.0,49.0,0.3,21.16071319580078,59.783138275146484,0.0,0.0
41.0,49.0,0.7,21.16071319580078,59.783138275146484,0.0,0.0
41.0,49.0,1.0,21.16071319580078,59.783138275146484,0.0,0.0
41.0,57.0,0.1,46.92494201660156,61.78192901611328,0.0,0.0
41.0,57.0,0.3,46.92494201660156,61.78192901611328,0.0,0.0
41.0,57.0,0.7,46.92494201660156,61.78192901611328,0.0,0.0
41.0,57.0,1.0,46.92494201660156,61.78192901611328,0.0,0.0
41.0,65.0,0.1,25.503158569335938,63.26848602294922,0.0,0.0
41.0,65.0,0.3,25.503158569335938,63.26848602294922,0.0,0.0
41.0,65.0,0.7,25.503158569335938,63.26848602294922,0.0,0.0
41.0,65.0,1.0,25.503158569335938,63.26848602294922,0.0,0.0
41.0,73.0,0.1,21.619049072265625,65.54548645019531,0.0,0.0
41.0,73.0,0.3,21.619049072265625,65.54548645019531,0.0,0.0
41.0,73.0,0.7,21.619049072265625,65.54548645019531,0.0,0.0
41.0,73.0,1.0,21.619049072265625,65.54548645019531,0.0,0.0
41.0,81.0,0.1,60.09287643432617,68.12803649902344,0.0,0.0
41.0,81.0,0.3,60.09287643432617,68.12803649902344,0.0,0.0
41.0,81.0,0.7,60.09287643432617,68.12803649902344,0.0,0.0
41.0,81.0,1.0,60.09287643432617,68.12803649902344,0.0,0.0
41.0,89.0,0.1,61.72658920288086,70.82605743408203,0.0,0.0
41.0,89.0,0.3,61.72658920288086,70.82605743408203,0.0,0.0
41.0,89.0,0.7,61.72658920288086,70.82605743408203,0.0,0.0
41.0,89.0,1.0,61.72658920288086,70.82605743408203,0.0,0.0
41.0,97.0,0.1,63.57258224487305,75.26162719726562,0.0,0.0
41.0,97.0,0.3,63.57258224487305,75.26162719726562,0.0,0.0
41.0,97.0,0.7,63.57258224487305,75.26162719726562,0.0,0.0
41.0,97.0,1.0,63.57258224487305,75.26162719726562,0.0,0.0
41.0,105.0,0.1,63.833133697509766,75.57373046875,0.0,0.0
41.0,105.0,0.3,63.833133697509766,75.57373046875,0.0,0.0
41.0,105.0,0.7,63.833133697509766,75.57373046875,0.0,0.0
41.0,105.0,1.0,63.833133697509766,75.57373046875,0.0,0.0
41.0,113.0,0.1,63.774497985839844,75.49290466308594,0.0,0.0
41.0,113.0,0.3,63.774497985839844,75.49290466308594,0.0,0.0
41.0,113.0,0.7,63.774497985839844,75.49290466308594,0.0,0.0
41.0,113.0,1.0,63.774497985839844,75.49290466308594,0.0,0.0
41.0,121.0,0.1,62.83799743652344,75.46218872070312,0.0,0.0
41.0,121.0,0.3,62.83799743652344,75.46218872070312,0.0,0.0
41.0,121.0,0.7,62.83799743652344,75.46218872070312,0.0,0.0
41.0,121.0,1.0,62.83799743652344,75.46218872070312,0.0,0.0
41.0,127.0,0.1,62.91256332397461,75.44451904296875,0.0,0.0
41.0,127.0,0.3,62.91256332397461,75.44451904296875,0.0,0.0
41.0,127.0,0.7,62.91256332397461,75.44451904296875,0.0,0.0
41.0,127.0,1.0,62.91256332397461,75.44451904296875,0.0,0.0
42.0,1.0,0.1,24.46484375,28.486732482910156,0.0,0.0
42.0,1.0,0.3,24.46484375,28.486732482910156,0.0,0.0
42.0,1.0,0.7,24.46484375,28.486732482910156,0.0,0.0
42.0,1.0,1.0,24.46484375,28.486732482910156,0.0,0.0
42.0,9.0,0.1,20.690826416015625,27.72187042236328,0.0,0.0
42.0,9.0,0.3,20.690826416015625,27.72187042236328,0.0,0.0
42.0,9.0,0.7,20.690826416015625,27.72187042236328,0.0,0.0
42.0,9.0,1.0,20.690826416015625,27.72187042236328,0.0,0.0
42.0,17.0,0.1,26.24388885498047,48.11808395385742,0.0,0.0
42.0,17.0,0.3,26.24388885498047,48.11808395385742,0.0,0.0
42.0,17.0,0.7,26.24388885498047,48.11808395385742,0.0,0.0
42.0,17.0,1.0,26.24388885498047,48.11808395385742,0.0,0.0
42.0,25.0,0.1,23.994651794433594,51.29725646972656,0.0,0.0
42.0,25.0,0.3,23.994651794433594,51.29725646972656,0.0,0.0
42.0,25.0,0.7,23.994651794433594,51.29725646972656,0.0,0.0
42.0,25.0,1.0,23.994651794433594,51.29725646972656,0.0,0.0
42.0,33.0,0.1,24.86371612548828,53.57640838623047,0.0,0.0
42.0,33.0,0.3,24.86371612548828,53.57640838623047,0.0,0.0
42.0,33.0,0.7,24.86371612548828,53.57640838623047,0.0,0.0
42.0,33.0,1.0,24.86371612548828,53.57640838623047,0.0,0.0
42.0,41.0,0.1,26.678688049316406,56.313419342041016,0.0,0.0
42.0,41.0,0.3,26.678688049316406,56.313419342041016,0.0,0.0
42.0,41.0,0.7,26.678688049316406,56.313419342041016,0.0,0.0
42.0,41.0,1.0,26.678688049316406,56.313419342041016,0.0,0.0
42.0,49.0,0.1,20.958984375,58.723289489746094,0.0,0.0
42.0,49.0,0.3,20.958984375,58.723289489746094,0.0,0.0
42.0,49.0,0.7,20.958984375,58.723289489746094,0.0,0.0
42.0,49.0,1.0,20.958984375,58.723289489746094,0.0,0.0
42.0,57.0,0.1,46.633060455322266,60.82343292236328,0.0,0.0
42.0,57.0,0.3,46.633060455322266,60.82343292236328,0.0,0.0
42.0,57.0,0.7,46.633060455322266,60.82343292236328,0.0,0.0
42.0,57.0,1.0,46.633060455322266,60.82343292236328,0.0,0.0
42.0,65.0,0.1,24.990997314453125,62.407737731933594,0.0,0.0
42.0,65.0,0.3,24.990997314453125,62.407737731933594,0.0,0.0
42.0,65.0,0.7,24.990997314453125,62.407737731933594,0.0,0.0
42.0,65.0,1.0,24.990997314453125,62.407737731933594,0.0,0.0
42.0,73.0,0.1,20.173065185546875,65.19282531738281,0.0,0.0
42.0,73.0,0.3,20.173065185546875,65.19282531738281,0.0,0.0
42.0,73.0,0.7,20.173065185546875,65.19282531738281,0.0,0.0
42.0,73.0,1.0,20.173065185546875,65.19282531738281,0.0,0.0
42.0,81.0,0.1,58.55612564086914,67.70441436767578,0.0,0.0
42.0,81.0,0.3,58.55612564086914,67.70441436767578,0.0,0.0
42.0,81.0,0.7,58.55612564086914,67.70441436767578,0.0,0.0
42.0,81.0,1.0,58.55612564086914,67.70441436767578,0.0,0.0
42.0,89.0,0.1,31.597335815429688,70.33563232421875,0.0,0.0
42.0,89.0,0.3,31.597335815429688,70.33563232421875,0.0,0.0
42.0,89.0,0.7,31.597335815429688,70.33563232421875,0.0,0.0
42.0,89.0,1.0,31.597335815429688,70.33563232421875,0.0,0.0
42.0,97.0,0.1,61.287925720214844,72.81040954589844,0.0,0.0
42.0,97.0,0.3,61.287925720214844,72.81040954589844,0.0,0.0
42.0,97.0,0.7,61.287925720214844,72.81040954589844,0.0,0.0
42.0,97.0,1.0,61.287925720214844,72.81040954589844,0.0,0.0
42.0,105.0,0.1,61.215492248535156,74.74044799804688,0.0,0.0
42.0,105.0,0.3,61.215492248535156,74.74044799804688,0.0,0.0
42.0,105.0,0.7,61.215492248535156,74.74044799804688,0.0,0.0
42.0,105.0,1.0,61.215492248535156,74.74044799804688,0.0,0.0
42.0,113.0,0.1,61.156646728515625,74.7107162475586,0.0,0.0
42.0,113.0,0.3,61.156646728515625,74.7107162475586,0.0,0.0
42.0,113.0,0.7,61.156646728515625,74.7107162475586,0.0,0.0
42.0,113.0,1.0,61.156646728515625,74.7107162475586,0.0,0.0
42.0,121.0,0.1,61.111820220947266,74.64498901367188,0.0,0.0
42.0,121.0,0.3,61.111820220947266,74.64498901367188,0.0,0.0
42.0,121.0,0.7,61.111820220947266,74.64498901367188,0.0,0.0
42.0,121.0,1.0,61.111820220947266,74.64498901367188,0.0,0.0
42.0,127.0,0.1,61.054534912109375,74.59654235839844,0.0,0.0
42.0,127.0,0.3,61.054534912109375,74.59654235839844,0.0,0.0
42.0,127.0,0.7,61.054534912109375,74.59654235839844,0.0,0.0
42.0,127.0,1.0,61.054534912109375,74.59654235839844,0.0,0.0
43.0,1.0,0.1,22.955963134765625,27.828514099121094,0.0,0.0
43.0,1.0,0.3,22.955963134765625,27.828514099121094,0.0,0.0
43.0,1.0,0.7,22.955963134765625,27.828514099121094,0.0,0.0
43.0,1.0,1.0,22.955963134765625,27.828514099121094,0.0,0.0
43.0,9.0,0.1,20.40814208984375,28.826393127441406,0.0,0.0
43.0,9.0,0.3,20.40814208984375,28.826393127441406,0.0,0.0
43.0,9.0,0.7,20.40814208984375,28.826393127441406,0.0,0.0
43.0,9.0,1.0,20.40814208984375,28.826393127441406,0.0,0.0
43.0,17.0,0.1,23.299781799316406,28.4364013671875,0.0,0.0
43.0,17.0,0.3,23.299781799316406,28.4364013671875,0.0,0.0
43.0,17.0,0.7,23.299781799316406,28.4364013671875,0.0,0.0
43.0,17.0,1.0,23.299781799316406,28.4364013671875,0.0,0.0
43.0,25.0,0.1,23.455307006835938,49.470306396484375,0.0,0.0
43.0,25.0,0.3,23.455307006835938,49.470306396484375,0.0,0.0
43.0,25.0,0.7,23.455307006835938,49.470306396484375,0.0,0.0
43.0,25.0,1.0,23.455307006835938,49.470306396484375,0.0,0.0
43.0,33.0,0.1,21.867393493652344,53.56928253173828,0.0,0.0
43.0,33.0,0.3,21.867393493652344,53.56928253173828,0.0,0.0
43.0,33.0,0.7,21.867393493652344,53.56928253173828,0.0,0.0
43.0,33.0,1.0,21.867393493652344,53.56928253173828,0.0,0.0
43.0,41.0,0.1,24.73932647705078,56.694400787353516,0.0,0.0
43.0,41.0,0.3,24.73932647705078,56.694400787353516,0.0,0.0
43.0,41.0,0.7,24.73932647705078,56.694400787353516,0.0,0.0
43.0,41.0,1.0,24.73932647705078,56.694400787353516,0.0,0.0
43.0,49.0,0.1,22.663894653320312,59.68187713623047,0.0,0.0
43.0,49.0,0.3,22.663894653320312,59.68187713623047,0.0,0.0
43.0,49.0,0.7,22.663894653320312,59.68187713623047,0.0,0.0
43.0,49.0,1.0,22.663894653320312,59.68187713623047,0.0,0.0
43.0,57.0,0.1,21.948410034179688,62.34625244140625,0.0,0.0
43.0,57.0,0.3,21.948410034179688,62.34625244140625,0.0,0.0
43.0,57.0,0.7,21.948410034179688,62.34625244140625,0.0,0.0
43.0,57.0,1.0,21.948410034179688,62.34625244140625,0.0,0.0
43.0,65.0,0.1,25.67565155029297,64.72102355957031,0.0,0.0
43.0,65.0,0.3,25.67565155029297,64.72102355957031,0.0,0.0
43.0,65.0,0.7,25.67565155029297,64.72102355957031,0.0,0.0
43.0,65.0,1.0,25.67565155029297,64.72102355957031,0.0,0.0
43.0,73.0,0.1,22.393020629882812,66.79646301269531,0.0,0.0
43.0,73.0,0.3,22.393020629882812,66.79646301269531,0.0,0.0
43.0,73.0,0.7,22.393020629882812,66.79646301269531,0.0,0.0
43.0,73.0,1.0,22.393020629882812,66.79646301269531,0.0,0.0
43.0,81.0,0.1,22.960243225097656,69.0194091796875,0.0,0.0
43.0,81.0,0.3,22.960243225097656,69.0194091796875,0.0,0.0
43.0,81.0,0.7,22.960243225097656,69.0194091796875,0.0,0.0
43.0,81.0,1.0,22.960243225097656,69.0194091796875,0.0,0.0
43.0,89.0,0.1,61.29477310180664,70.97513580322266,0.0,0.0
43.0,89.0,0.3,61.29477310180664,70.97513580322266,0.0,0.0
43.0,89.0,0.7,61.29477310180664,70.97513580322266,0.0,0.0
43.0,89.0,1.0,61.29477310180664,70.97513580322266,0.0,0.0
43.0,97.0,0.1,63.3387336730957,73.36359405517578,0.0,0.0
43.0,97.0,0.3,63.3387336730957,73.36359405517578,0.0,0.0
43.0,97.0,0.7,63.3387336730957,73.36359405517578,0.0,0.0
43.0,97.0,1.0,63.3387336730957,73.36359405517578,0.0,0.0
43.0,105.0,0.1,63.17155838012695,76.94331359863281,0.0,0.0
43.0,105.0,0.3,63.17155838012695,76.94331359863281,0.0,0.0
43.0,105.0,0.7,63.17155838012695,76.94331359863281,0.0,0.0
43.0,105.0,1.0,63.17155838012695,76.94331359863281,0.0,0.0
43.0,113.0,0.1,63.108760833740234,77.13510131835938,0.0,0.0
43.0,113.0,0.3,63.108760833740234,77.13510131835938,0.0,0.0
43.0,113.0,0.7,63.108760833740234,77.13510131835938,0.0,0.0
43.0,113.0,1.0,63.108760833740234,77.13510131835938,0.0,0.0
43.0,121.0,0.1,63.052066802978516,77.05683898925781,0.0,0.0
43.0,121.0,0.3,63.052066802978516,77.05683898925781,0.0,0.0
43.0,121.0,0.7,63.052066802978516,77.05683898925781,0.0,0.0
43.0,121.0,1.0,63.052066802978516,77.05683898925781,0.0,0.0
43.0,127.0,0.1,23.926307678222656,77.0002670288086,0.0,0.0
43.0,127.0,0.3,23.926307678222656,77.0002670288086,0.0,0.0
43.0,127.0,0.7,23.926307678222656,77.0002670288086,0.0,0.0
43.0,127.0,1.0,23.926307678222656,77.0002670288086,0.0,0.0
44.0,1.0,0.1,22.73027801513672,26.91741943359375,0.0,0.0
44.0,1.0,0.3,22.73027801513672,26.91741943359375,0.0,0.0
44.0,1.0,0.7,22.73027801513672,26.91741943359375,0.0,0.0
44.0,1.0,1.0,22.73027801513672,26.91741943359375,0.0,0.0
44.0,9.0,0.1,20.994422912597656,28.379135131835938,0.0,0.0
44.0,9.0,0.3,20.994422912597656,28.379135131835938,0.0,0.0
44.0,9.0,0.7,20.994422912597656,28.379135131835938,0.0,0.0
44.0,9.0,1.0,20.994422912597656,28.379135131835938,0.0,0.0
44.0,17.0,0.1,27.372962951660156,49.53233337402344,0.0,0.0
44.0,17.0,0.3,27.372962951660156,49.53233337402344,0.0,0.0
44.0,17.0,0.7,27.372962951660156,49.53233337402344,0.0,0.0
44.0,17.0,1.0,27.372962951660156,49.53233337402344,0.0,0.0
44.0,25.0,0.1,26.779296875,53.83766174316406,0.0,0.0
44.0,25.0,0.3,26.779296875,53.83766174316406,0.0,0.0
44.0,25.0,0.7,26.779296875,53.83766174316406,0.0,0.0
44.0,25.0,1.0,26.779296875,53.83766174316406,0.0,0.0
44.0,33.0,0.1,26.249610900878906,57.397918701171875,0.0,0.0
44.0,33.0,0.3,26.249610900878906,57.397918701171875,0.0,0.0
44.0,33.0,0.7,26.249610900878906,57.397918701171875,0.0,0.0
44.0,33.0,1.0,26.249610900878906,57.397918701171875,0.0,0.0
44.0,41.0,0.1,25.221435546875,60.57828903198242,0.0,0.0
44.0,41.0,0.3,25.221435546875,60.57828903198242,0.0,0.0
44.0,41.0,0.7,25.221435546875,60.57828903198242,0.0,0.0
44.0,41.0,1.0,25.221435546875,60.57828903198242,0.0,0.0
44.0,49.0,0.1,25.94097900390625,63.492523193359375,0.0,0.0
44.0,49.0,0.3,25.94097900390625,63.492523193359375,0.0,0.0
44.0,49.0,0.7,25.94097900390625,63.492523193359375,0.0,0.0
44.0,49.0,1.0,25.94097900390625,63.492523193359375,0.0,0.0
44.0,57.0,0.1,26.455398559570312,65.68653106689453,0.0,0.0
44.0,57.0,0.3,26.455398559570312,65.68653106689453,0.0,0.0
44.0,57.0,0.7,26.455398559570312,65.68653106689453,0.0,0.0
44.0,57.0,1.0,26.455398559570312,65.68653106689453,0.0,0.0
44.0,65.0,0.1,51.98038864135742,68.59637451171875,0.0,0.0
44.0,65.0,0.3,51.98038864135742,68.59637451171875,0.0,0.0
44.0,65.0,0.7,51.98038864135742,68.59637451171875,0.0,0.0
44.0,65.0,1.0,51.98038864135742,68.59637451171875,0.0,0.0
44.0,73.0,0.1,26.308013916015625,71.192138671875,0.0,0.0
44.0,73.0,0.3,26.308013916015625,71.192138671875,0.0,0.0
44.0,73.0,0.7,26.308013916015625,71.192138671875,0.0,0.0
44.0,73.0,1.0,26.308013916015625,71.192138671875,0.0,0.0
44.0,81.0,0.1,58.37214660644531,73.64849090576172,0.0,0.0
44.0,81.0,0.3,58.37214660644531,73.64849090576172,0.0,0.0
44.0,81.0,0.7,58.37214660644531,73.64849090576172,0.0,0.0
44.0,81.0,1.0,58.37214660644531,73.64849090576172,0.0,0.0
44.0,89.0,0.1,25.962425231933594,75.62528991699219,0.0,0.0
44.0,89.0,0.3,25.962425231933594,75.62528991699219,0.0,0.0
44.0,89.0,0.7,25.962425231933594,75.62528991699219,0.0,0.0
44.0,89.0,1.0,25.962425231933594,75.62528991699219,0.0,0.0
44.0,97.0,0.1,62.67158508300781,78.44850158691406,0.0,0.0
44.0,97.0,0.3,62.67158508300781,78.44850158691406,0.0,0.0
44.0,97.0,0.7,62.67158508300781,78.44850158691406,0.0,0.0
44.0,97.0,1.0,62.67158508300781,78.44850158691406,0.0,0.0
44.0,105.0,0.1,62.606414794921875,82.072265625,0.0,0.0
44.0,105.0,0.3,62.606414794921875,82.072265625,0.0,0.0
44.0,105.0,0.7,62.606414794921875,82.072265625,0.0,0.0
44.0,105.0,1.0,62.606414794921875,82.072265625,0.0,0.0
44.0,113.0,0.1,27.329818725585938,81.826904296875,0.0,0.0
44.0,113.0,0.3,27.329818725585938,81.826904296875,0.0,0.0
44.0,113.0,0.7,27.329818725585938,81.826904296875,0.0,0.0
44.0,113.0,1.0,27.329818725585938,81.826904296875,0.0,0.0
44.0,121.0,0.1,62.510772705078125,81.77172088623047,0.0,0.0
44.0,121.0,0.3,62.510772705078125,81.77172088623047,0.0,0.0
44.0,121.0,0.7,62.510772705078125,81.77172088623047,0.0,0.0
44.0,121.0,1.0,62.510772705078125,81.77172088623047,0.0,0.0
44.0,127.0,0.1,62.448158264160156,81.70370483398438,0.0,0.0
44.0,127.0,0.3,62.448158264160156,81.70370483398438,0.0,0.0
44.0,127.0,0.7,62.448158264160156,81.70370483398438,0.0,0.0
44.0,127.0,1.0,62.448158264160156,81.70370483398438,0.0,0.0
45.0,1.0,0.1,21.442459106445312,48.672882080078125,0.0,0.0
45.0,1.0,0.3,21.442459106445312,48.672882080078125,0.0,0.0
45.0,1.0,0.7,21.442459106445312,48.672882080078125,0.0,0.0
45.0,1.0,1.0,21.442459106445312,48.672882080078125,0.0,0.0
45.0,9.0,0.1,26.168212890625,29.278396606445312,0.0,0.0
45.0,9.0,0.3,26.168212890625,29.278396606445312,0.0,0.0
45.0,9.0,0.7,26.168212890625,29.278396606445312,0.0,0.0
45.0,9.0,1.0,26.168212890625,29.278396606445312,0.0,0.0
45.0,17.0,0.1,25.896705627441406,52.63056564331055,0.0,0.0
45.0,17.0,0.3,25.896705627441406,52.63056564331055,0.0,0.0
45.0,17.0,0.7,25.896705627441406,52.63056564331055,0.0,0.0
45.0,17.0,1.0,25.896705627441406,52.63056564331055,0.0,0.0
45.0,25.0,0.1,24.688262939453125,55.44761657714844,0.0,0.0
45.0,25.0,0.3,24.688262939453125,55.44761657714844,0.0,0.0
45.0,25.0,0.7,24.688262939453125,55.44761657714844,0.0,0.0
45.0,25.0,1.0,24.688262939453125,55.44761657714844,0.0,0.0
45.0,33.0,0.1,24.990074157714844,58.87982177734375,0.0,0.0
45.0,33.0,0.3,24.990074157714844,58.87982177734375,0.0,0.0
45.0,33.0,0.7,24.990074157714844,58.87982177734375,0.0,0.0
45.0,33.0,1.0,24.990074157714844,58.87982177734375,0.0,0.0
45.0,41.0,0.1,25.81499481201172,61.8379020690918,0.0,0.0
45.0,41.0,0.3,25.81499481201172,61.8379020690918,0.0,0.0
45.0,41.0,0.7,25.81499481201172,61.8379020690918,0.0,0.0
45.0,41.0,1.0,25.81499481201172,61.8379020690918,0.0,0.0
45.0,49.0,0.1,23.47978973388672,64.36526489257812,0.0,0.0
45.0,49.0,0.3,23.47978973388672,64.36526489257812,0.0,0.0
45.0,49.0,0.7,23.47978973388672,64.36526489257812,0.0,0.0
45.0,49.0,1.0,23.47978973388672,64.36526489257812,0.0,0.0
45.0,57.0,0.1,23.54253387451172,66.76558685302734,0.0,0.0
45.0,57.0,0.3,23.54253387451172,66.76558685302734,0.0,0.0
45.0,57.0,0.7,23.54253387451172,66.76558685302734,0.0,0.0
45.0,57.0,1.0,23.54253387451172,66.76558685302734,0.0,0.0
45.0,65.0,0.1,25.45342254638672,68.63150024414062,0.0,0.0
45.0,65.0,0.3,25.45342254638672,68.63150024414062,0.0,0.0
45.0,65.0,0.7,25.45342254638672,68.63150024414062,0.0,0.0
45.0,65.0,1.0,25.45342254638672,68.63150024414062,0.0,0.0
45.0,73.0,0.1,24.915756225585938,71.19610595703125,0.0,0.0
45.0,73.0,0.3,24.915756225585938,71.19610595703125,0.0,0.0
45.0,73.0,0.7,24.915756225585938,71.19610595703125,0.0,0.0
45.0,73.0,1.0,24.915756225585938,71.19610595703125,0.0,0.0
45.0,81.0,0.1,26.084457397460938,73.41223907470703,0.0,0.0
45.0,81.0,0.3,26.084457397460938,73.41223907470703,0.0,0.0
45.0,81.0,0.7,26.084457397460938,73.41223907470703,0.0,0.0
45.0,81.0,1.0,26.084457397460938,73.41223907470703,0.0,0.0
45.0,89.0,0.1,26.733749389648438,74.4767074584961,0.0,0.0
45.0,89.0,0.3,26.733749389648438,74.4767074584961,0.0,0.0
45.0,89.0,0.7,26.733749389648438,74.4767074584961,0.0,0.0
45.0,89.0,1.0,26.733749389648438,74.4767074584961,0.0,0.0
45.0,97.0,0.1,46.694915771484375,77.23969268798828,0.0,0.0
45.0,97.0,0.3,46.694915771484375,77.23969268798828,0.0,0.0
45.0,97.0,0.7,46.694915771484375,77.23969268798828,0.0,0.0
45.0,97.0,1.0,46.694915771484375,77.23969268798828,0.0,0.0
45.0,105.0,0.1,25.12494659423828,79.4428939819336,0.0,0.0
45.0,105.0,0.3,25.12494659423828,79.4428939819336,0.0,0.0
45.0,105.0,0.7,25.12494659423828,79.4428939819336,0.0,0.0
45.0,105.0,1.0,25.12494659423828,79.4428939819336,0.0,0.0
45.0,113.0,0.1,29.021438598632812,80.44031524658203,0.0,0.0
45.0,113.0,0.3,29.021438598632812,80.44031524658203,0.0,0.0
45.0,113.0,0.7,29.021438598632812,80.44031524658203,0.0,0.0
45.0,113.0,1.0,29.021438598632812,80.44031524658203,0.0,0.0
45.0,121.0,0.1,63.69509506225586,80.35719299316406,0.0,0.0
45.0,121.0,0.3,63.69509506225586,80.35719299316406,0.0,0.0
45.0,121.0,0.7,63.69509506225586,80.35719299316406,0.0,0.0
45.0,121.0,1.0,63.69509506225586,80.35719299316406,0.0,0.0
45.0,127.0,0.1,25.14745330810547,80.30584716796875,0.0,0.0
45.0,127.0,0.3,25.14745330810547,80.30584716796875,0.0,0.0
45.0,127.0,0.7,25.14745330810547,80.30584716796875,0.0,0.0
45.0,127.0,1.0,25.14745330810547,80.30584716796875,0.0,0.0
46.0,1.0,0.1,22.175369262695312,29.735580444335938,0.0,0.0
46.0,1.0,0.3,22.175369262695312,29.735580444335938,0.0,0.0
46.0,1.0,0.7,22.175369262695312,29.735580444335938,0.0,0.0
46.0,1.0,1.0,22.175369262695312,29.735580444335938,0.0,0.0
46.0,9.0,0.1,22.25524139404297,35.009525299072266,0.0,0.0
46.0,9.0,0.3,22.25524139404297,35.009525299072266,0.0,0.0
46.0,9.0,0.7,22.25524139404297,35.009525299072266,0.0,0.0
46.0,9.0,1.0,22.25524139404297,35.009525299072266,0.0,0.0
46.0,17.0,0.1,24.72093963623047,46.33123016357422,0.0,0.0
46.0,17.0,0.3,24.72093963623047,46.33123016357422,0.0,0.0
46.0,17.0,0.7,24.72093963623047,46.33123016357422,0.0,0.0
46.0,17.0,1.0,24.72093963623047,46.33123016357422,0.0,0.0
46.0,25.0,0.1,24.82489013671875,52.24566650390625,0.0,0.0
46.0,25.0,0.3,24.82489013671875,52.24566650390625,0.0,0.0
46.0,25.0,0.7,24.82489013671875,52.24566650390625,0.0,0.0
46.0,25.0,1.0,24.82489013671875,52.24566650390625,0.0,0.0
46.0,33.0,0.1,23.737892150878906,56.13444137573242,0.0,0.0
46.0,33.0,0.3,23.737892150878906,56.13444137573242,0.0,0.0
46.0,33.0,0.7,23.737892150878906,56.13444137573242,0.0,0.0
46.0,33.0,1.0,23.737892150878906,56.13444137573242,0.0,0.0
46.0,41.0,0.1,22.356338500976562,59.220680236816406,0.0,0.0
46.0,41.0,0.3,22.356338500976562,59.220680236816406,0.0,0.0
46.0,41.0,0.7,22.356338500976562,59.220680236816406,0.0,0.0
46.0,41.0,1.0,22.356338500976562,59.220680236816406,0.0,0.0
46.0,49.0,0.1,23.537017822265625,61.24925994873047,0.0,0.0
46.0,49.0,0.3,23.537017822265625,61.24925994873047,0.0,0.0
46.0,49.0,0.7,23.537017822265625,61.24925994873047,0.0,0.0
46.0,49.0,1.0,23.537017822265625,61.24925994873047,0.0,0.0
46.0,57.0,0.1,23.892669677734375,64.43997192382812,0.0,0.0
46.0,57.0,0.3,23.892669677734375,64.43997192382812,0.0,0.0
46.0,57.0,0.7,23.892669677734375,64.43997192382812,0.0,0.0
46.0,57.0,1.0,23.892669677734375,64.43997192382812,0.0,0.0
46.0,65.0,0.1,23.560302734375,66.77731323242188,0.0,0.0
46.0,65.0,0.3,23.560302734375,66.77731323242188,0.0,0.0
46.0,65.0,0.7,23.560302734375,66.77731323242188,0.0,0.0
46.0,65.0,1.0,23.560302734375,66.77731323242188,0.0,0.0
46.0,73.0,0.1,23.90143585205078,69.33744812011719,0.0,0.0
46.0,73.0,0.3,23.90143585205078,69.33744812011719,0.0,0.0
46.0,73.0,0.7,23.90143585205078,69.33744812011719,0.0,0.0
46.0,73.0,1.0,23.90143585205078,69.33744812011719,0.0,0.0
46.0,81.0,0.1,24.1484375,70.62970733642578,0.0,0.0
46.0,81.0,0.3,24.1484375,70.62970733642578,0.0,0.0
46.0,81.0,0.7,24.1484375,70.62970733642578,0.0,0.0
46.0,81.0,1.0,24.1484375,70.62970733642578,0.0,0.0
46.0,89.0,0.1,60.283103942871094,72.41454315185547,0.0,0.0
46.0,89.0,0.3,60.283103942871094,72.41454315185547,0.0,0.0
46.0,89.0,0.7,60.283103942871094,72.41454315185547,0.0,0.0
46.0,89.0,1.0,60.283103942871094,72.41454315185547,0.0,0.0
46.0,97.0,0.1,26.016494750976562,76.03093719482422,0.0,0.0
46.0,97.0,0.3,26.016494750976562,76.03093719482422,0.0,0.0
46.0,97.0,0.7,26.016494750976562,76.03093719482422,0.0,0.0
46.0,97.0,1.0,26.016494750976562,76.03093719482422,0.0,0.0
46.0,105.0,0.1,56.001853942871094,78.8813705444336,0.0,0.0
46.0,105.0,0.3,56.001853942871094,78.8813705444336,0.0,0.0
46.0,105.0,0.7,56.001853942871094,78.8813705444336,0.0,0.0
46.0,105.0,1.0,56.001853942871094,78.8813705444336,0.0,0.0
46.0,113.0,0.1,56.30141830444336,78.27516174316406,0.0,0.0
46.0,113.0,0.3,56.30141830444336,78.27516174316406,0.0,0.0
46.0,113.0,0.7,56.30141830444336,78.27516174316406,0.0,0.0
46.0,113.0,1.0,56.30141830444336,78.27516174316406,0.0,0.0
46.0,121.0,0.1,59.941123962402344,78.09063720703125,0.0,0.0
46.0,121.0,0.3,59.941123962402344,78.09063720703125,0.0,0.0
46.0,121.0,0.7,59.941123962402344,78.09063720703125,0.0,0.0
46.0,121.0,1.0,59.941123962402344,78.09063720703125,0.0,0.0
46.0,127.0,0.1,52.69920349121094,77.9991455078125,0.0,0.0
46.0,127.0,0.3,52.69920349121094,77.9991455078125,0.0,0.0
46.0,127.0,0.7,52.69920349121094,77.9991455078125,0.0,0.0
46.0,127.0,1.0,52.69920349121094,77.9991455078125,0.0,0.0
47.0,1.0,0.1,23.439834594726562,26.71240997314453,0.0,0.0
47.0,1.0,0.3,23.439834594726562,26.71240997314453,0.0,0.0
47.0,1.0,0.7,23.439834594726562,26.71240997314453,0.0,0.0
47.0,1.0,1.0,23.439834594726562,26.71240997314453,0.0,0.0
47.0,9.0,0.1,25.46691131591797,30.187362670898438,0.0,0.0
47.0,9.0,0.3,25.46691131591797,30.187362670898438,0.0,0.0
47.0,9.0,0.7,25.46691131591797,30.187362670898438,0.0,0.0
47.0,9.0,1.0,25.46691131591797,30.187362670898438,0.0,0.0
47.0,17.0,0.1,24.68488311767578,46.031585693359375,0.0,0.0
47.0,17.0,0.3,24.68488311767578,46.031585693359375,0.0,0.0
47.0,17.0,0.7,24.68488311767578,46.031585693359375,0.0,0.0
47.0,17.0,1.0,24.68488311767578,46.031585693359375,0.0,0.0
47.0,25.0,0.1,22.37010955810547,50.102149963378906,0.0,0.0
47.0,25.0,0.3,22.37010955810547,50.102149963378906,0.0,0.0
47.0,25.0,0.7,22.37010955810547,50.102149963378906,0.0,0.0
47.0,25.0,1.0,22.37010955810547,50.102149963378906,0.0,0.0
47.0,33.0,0.1,24.150596618652344,53.685447692871094,0.0,0.0
47.0,33.0,0.3,24.150596618652344,53.685447692871094,0.0,0.0
47.0,33.0,0.7,24.150596618652344,53.685447692871094,0.0,0.0
47.0,33.0,1.0,24.150596618652344,53.685447692871094,0.0,0.0
47.0,41.0,0.1,24.650962829589844,56.53935241699219,0.0,0.0
47.0,41.0,0.3,24.650962829589844,56.53935241699219,0.0,0.0
47.0,41.0,0.7,24.650962829589844,56.53935241699219,0.0,0.0
47.0,41.0,1.0,24.650962829589844,56.53935241699219,0.0,0.0
47.0,49.0,0.1,26.132652282714844,59.24551010131836,0.0,0.0
47.0,49.0,0.3,26.132652282714844,59.24551010131836,0.0,0.0
47.0,49.0,0.7,26.132652282714844,59.24551010131836,0.0,0.0
47.0,49.0,1.0,26.132652282714844,59.24551010131836,0.0,0.0
47.0,57.0,0.1,26.259033203125,61.93534851074219,0.0,0.0
47.0,57.0,0.3,26.259033203125,61.93534851074219,0.0,0.0
47.0,57.0,0.7,26.259033203125,61.93534851074219,0.0,0.0
47.0,57.0,1.0,26.259033203125,61.93534851074219,0.0,0.0
47.0,65.0,0.1,24.42138671875,64.07591247558594,0.0,0.0
47.0,65.0,0.3,24.42138671875,64.07591247558594,0.0,0.0
47.0,65.0,0.7,24.42138671875,64.07591247558594,0.0,0.0
47.0,65.0,1.0,24.42138671875,64.07591247558594,0.0,0.0
47.0,73.0,0.1,23.789443969726562,66.53366088867188,0.0,0.0
47.0,73.0,0.3,23.789443969726562,66.53366088867188,0.0,0.0
47.0,73.0,0.7,23.789443969726562,66.53366088867188,0.0,0.0
47.0,73.0,1.0,23.789443969726562,66.53366088867188,0.0,0.0
47.0,81.0,0.1,43.059085845947266,69.69068145751953,0.0,0.0
47.0,81.0,0.3,43.059085845947266,69.69068145751953,0.0,0.0
47.0,81.0,0.7,43.059085845947266,69.69068145751953,0.0,0.0
47.0,81.0,1.0,43.059085845947266,69.69068145751953,0.0,0.0
47.0,89.0,0.1,54.936092376708984,70.69649505615234,0.0,0.0
47.0,89.0,0.3,54.936092376708984,70.69649505615234,0.0,0.0
47.0,89.0,0.7,54.936092376708984,70.69649505615234,0.0,0.0
47.0,89.0,1.0,54.936092376708984,70.69649505615234,0.0,0.0
47.0,97.0,0.1,53.90754699707031,74.42401885986328,0.0,0.0
47.0,97.0,0.3,53.90754699707031,74.42401885986328,0.0,0.0
47.0,97.0,0.7,53.90754699707031,74.42401885986328,0.0,0.0
47.0,97.0,1.0,53.90754699707031,74.42401885986328,0.0,0.0
47.0,105.0,0.1,61.05717468261719,76.82444763183594,0.0,0.0
47.0,105.0,0.3,61.05717468261719,76.82444763183594,0.0,0.0
47.0,105.0,0.7,61.05717468261719,76.82444763183594,0.0,0.0
47.0,105.0,1.0,61.05717468261719,76.82444763183594,0.0,0.0
47.0,113.0,0.1,60.986724853515625,76.53451538085938,0.0,0.0
47.0,113.0,0.3,60.986724853515625,76.53451538085938,0.0,0.0
47.0,113.0,0.7,60.986724853515625,76.53451538085938,0.0,0.0
47.0,113.0,1.0,60.986724853515625,76.53451538085938,0.0,0.0
47.0,121.0,0.1,60.940757751464844,76.50953674316406,0.0,0.0
47.0,121.0,0.3,60.940757751464844,76.50953674316406,0.0,0.0
47.0,121.0,0.7,60.940757751464844,76.50953674316406,0.0,0.0
47.0,121.0,1.0,60.940757751464844,76.50953674316406,0.0,0.0
47.0,127.0,0.1,60.904720306396484,76.44245910644531,0.0,0.0
47.0,127.0,0.3,60.904720306396484,76.44245910644531,0.0,0.0
47.0,127.0,0.7,60.904720306396484,76.44245910644531,0.0,0.0
47.0,127.0,1.0,60.904720306396484,76.44245910644531,0.0,0.0
48.0,1.0,0.1,22.098312377929688,31.310314178466797,0.0,0.0
48.0,1.0,0.3,22.098312377929688,31.310314178466797,0.0,0.0
48.0,1.0,0.7,22.098312377929688,31.310314178466797,0.0,0.0
48.0,1.0,1.0,22.098312377929688,31.310314178466797,0.0,0.0
48.0,9.0,0.1,27.42572784423828,27.693222045898438,0.0,0.0
48.0,9.0,0.3,27.42572784423828,27.693222045898438,0.0,0.0
48.0,9.0,0.7,27.42572784423828,27.693222045898438,0.0,0.0
48.0,9.0,1.0,27.42572784423828,27.693222045898438,0.0,0.0
48.0,17.0,0.1,24.616897583007812,46.607234954833984,0.0,0.0
48.0,17.0,0.3,24.616897583007812,46.607234954833984,0.0,0.0
48.0,17.0,0.7,24.616897583007812,46.607234954833984,0.0,0.0
48.0,17.0,1.0,24.616897583007812,46.607234954833984,0.0,0.0
48.0,25.0,0.1,21.829368591308594,50.790626525878906,0.0,0.0
48.0,25.0,0.3,21.829368591308594,50.790626525878906,0.0,0.0
48.0,25.0,0.7,21.829368591308594,50.790626525878906,0.0,0.0
48.0,25.0,1.0,21.829368591308594,50.790626525878906,0.0,0.0
48.0,33.0,0.1,23.135353088378906,53.53661346435547,0.0,0.0
48.0,33.0,0.3,23.135353088378906,53.53661346435547,0.0,0.0
48.0,33.0,0.7,23.135353088378906,53.53661346435547,0.0,0.0
48.0,33.0,1.0,23.135353088378906,53.53661346435547,0.0,0.0
48.0,41.0,0.1,24.15679168701172,56.36119842529297,0.0,0.0
48.0,41.0,0.3,24.15679168701172,56.36119842529297,0.0,0.0
48.0,41.0,0.7,24.15679168701172,56.36119842529297,0.0,0.0
48.0,41.0,1.0,24.15679168701172,56.36119842529297,0.0,0.0
48.0,49.0,0.1,36.958152770996094,59.022090911865234,0.0,0.0
48.0,49.0,0.3,36.958152770996094,59.022090911865234,0.0,0.0
48.0,49.0,0.7,36.958152770996094,59.022090911865234,0.0,0.0
48.0,49.0,1.0,36.958152770996094,59.022090911865234,0.0,0.0
48.0,57.0,0.1,25.295455932617188,61.73687744140625,0.0,0.0
48.0,57.0,0.3,25.295455932617188,61.73687744140625,0.0,0.0
48.0,57.0,0.7,25.295455932617188,61.73687744140625,0.0,0.0
48.0,57.0,1.0,25.295455932617188,61.73687744140625,0.0,0.0
48.0,65.0,0.1,51.43389892578125,63.72637176513672,0.0,0.0
48.0,65.0,0.3,51.43389892578125,63.72637176513672,0.0,0.0
48.0,65.0,0.7,51.43389892578125,63.72637176513672,0.0,0.0
48.0,65.0,1.0,51.43389892578125,63.72637176513672,0.0,0.0
48.0,73.0,0.1,24.333404541015625,65.92638397216797,0.0,0.0
48.0,73.0,0.3,24.333404541015625,65.92638397216797,0.0,0.0
48.0,73.0,0.7,24.333404541015625,65.92638397216797,0.0,0.0
48.0,73.0,1.0,24.333404541015625,65.92638397216797,0.0,0.0
48.0,81.0,0.1,61.51543426513672,68.6806640625,0.0,0.0
48.0,81.0,0.3,61.51543426513672,68.6806640625,0.0,0.0
48.0,81.0,0.7,61.51543426513672,68.6806640625,0.0,0.0
48.0,81.0,1.0,61.51543426513672,68.6806640625,0.0,0.0
48.0,89.0,0.1,63.54432678222656,71.15263366699219,0.0,0.0
48.0,89.0,0.3,63.54432678222656,71.15263366699219,0.0,0.0
48.0,89.0,0.7,63.54432678222656,71.15263366699219,0.0,0.0
48.0,89.0,1.0,63.54432678222656,71.15263366699219,0.0,0.0
48.0,97.0,0.1,64.24276733398438,73.2113037109375,0.0,0.0
48.0,97.0,0.3,64.24276733398438,73.2113037109375,0.0,0.0
48.0,97.0,0.7,64.24276733398438,73.2113037109375,0.0,0.0
48.0,97.0,1.0,64.24276733398438,73.2113037109375,0.0,0.0
48.0,105.0,0.1,64.19082641601562,75.78258514404297,0.0,0.0
48.0,105.0,0.3,64.19082641601562,75.78258514404297,0.0,0.0
48.0,105.0,0.7,64.19082641601562,75.78258514404297,0.0,0.0
48.0,105.0,1.0,64.19082641601562,75.78258514404297,0.0,0.0
48.0,113.0,0.1,64.12710571289062,75.70353698730469,0.0,0.0
48.0,113.0,0.3,64.12710571289062,75.70353698730469,0.0,0.0
48.0,113.0,0.7,64.12710571289062,75.70353698730469,0.0,0.0
48.0,113.0,1.0,64.12710571289062,75.70353698730469,0.0,0.0
48.0,121.0,0.1,64.08033752441406,75.56065368652344,0.0,0.0
48.0,121.0,0.3,64.08033752441406,75.56065368652344,0.0,0.0
48.0,121.0,0.7,64.08033752441406,75.56065368652344,0.0,0.0
48.0,121.0,1.0,64.08033752441406,75.56065368652344,0.0,0.0
48.0,127.0,0.1,64.03741455078125,75.49560546875,0.0,0.0
48.0,127.0,0.3,64.03741455078125,75.49560546875,0.0,0.0
48.0,127.0,0.7,64.03741455078125,75.49560546875,0.0,0.0
48.0,127.0,1.0,64.03741455078125,75.49560546875,0.0,0.0
49.0,1.0,0.1,21.395278930664062,44.83673858642578,0.0,0.0
49.0,1.0,0.3,21.395278930664062,44.83673858642578,0.0,0.0
49.0,1.0,0.7,21.395278930664062,44.83673858642578,0.0,0.0
49.0,1.0,1.0,21.395278930664062,44.83673858642578,0.0,0.0
49.0,9.0,0.1,25.44976043701172,45.03374099731445,0.0,0.0
49.0,9.0,0.3,25.44976043701172,45.03374099731445,0.0,0.0
49.0,9.0,0.7,25.44976043701172,45.03374099731445,0.0,0.0
49.0,9.0,1.0,25.44976043701172,45.03374099731445,0.0,0.0
49.0,17.0,0.1,21.143104553222656,50.95685577392578,0.0,0.0
49.0,17.0,0.3,21.143104553222656,50.95685577392578,0.0,0.0
49.0,17.0,0.7,21.143104553222656,50.95685577392578,0.0,0.0
49.0,17.0,1.0,21.143104553222656,50.95685577392578,0.0,0.0
49.0,25.0,0.1,21.956008911132812,54.742313385009766,0.0,0.0
49.0,25.0,0.3,21.956008911132812,54.742313385009766,0.0,0.0
49.0,25.0,0.7,21.956008911132812,54.742313385009766,0.0,0.0
49.0,25.0,1.0,21.956008911132812,54.742313385009766,0.0,0.0
49.0,33.0,0.1,20.33751678466797,57.70269012451172,0.0,0.0
49.0,33.0,0.3,20.33751678466797,57.70269012451172,0.0,0.0
49.0,33.0,0.7,20.33751678466797,57.70269012451172,0.0,0.0
49.0,33.0,1.0,20.33751678466797,57.70269012451172,0.0,0.0
49.0,41.0,0.1,24.447044372558594,60.488182067871094,0.0,0.0
49.0,41.0,0.3,24.447044372558594,60.488182067871094,0.0,0.0
49.0,41.0,0.7,24.447044372558594,60.488182067871094,0.0,0.0
49.0,41.0,1.0,24.447044372558594,60.488182067871094,0.0,0.0
49.0,49.0,0.1,48.03078079223633,62.71928405761719,0.0,0.0
49.0,49.0,0.3,48.03078079223633,62.71928405761719,0.0,0.0
49.0,49.0,0.7,48.03078079223633,62.71928405761719,0.0,0.0
49.0,49.0,1.0,48.03078079223633,62.71928405761719,0.0,0.0
49.0,57.0,0.1,53.43764114379883,65.14286804199219,0.0,0.0
49.0,57.0,0.3,53.43764114379883,65.14286804199219,0.0,0.0
49.0,57.0,0.7,53.43764114379883,65.14286804199219,0.0,0.0
49.0,57.0,1.0,53.43764114379883,65.14286804199219,0.0,0.0
49.0,65.0,0.1,25.57988739013672,67.7796630859375,0.0,0.0
49.0,65.0,0.3,25.57988739013672,67.7796630859375,0.0,0.0
49.0,65.0,0.7,25.57988739013672,67.7796630859375,0.0,0.0
49.0,65.0,1.0,25.57988739013672,67.7796630859375,0.0,0.0
49.0,73.0,0.1,58.533363342285156,69.9583740234375,0.0,0.0
49.0,73.0,0.3,58.533363342285156,69.9583740234375,0.0,0.0
49.0,73.0,0.7,58.533363342285156,69.9583740234375,0.0,0.0
49.0,73.0,1.0,58.533363342285156,69.9583740234375,0.0,0.0
49.0,81.0,0.1,61.81786346435547,72.32191467285156,0.0,0.0
49.0,81.0,0.3,61.81786346435547,72.32191467285156,0.0,0.0
49.0,81.0,0.7,61.81786346435547,72.32191467285156,0.0,0.0
49.0,81.0,1.0,61.81786346435547,72.32191467285156,0.0,0.0
49.0,89.0,0.1,64.33465576171875,74.30886840820312,0.0,0.0
49.0,89.0,0.3,64.33465576171875,74.30886840820312,0.0,0.0
49.0,89.0,0.7,64.33465576171875,74.30886840820312,0.0,0.0
49.0,89.0,1.0,64.33465576171875,74.30886840820312,0.0,0.0
49.0,97.0,0.1,65.79443359375,75.9521713256836,0.0,0.0
49.0,97.0,0.3,65.79443359375,75.9521713256836,0.0,0.0
49.0,97.0,0.7,65.79443359375,75.9521713256836,0.0,0.0
49.0,97.0,1.0,65.79443359375,75.9521713256836,0.0,0.0
49.0,105.0,0.1,65.2531967163086,77.80940246582031,0.0,0.0
49.0,105.0,0.3,65.2531967163086,77.80940246582031,0.0,0.0
49.0,105.0,0.7,65.2531967163086,77.80940246582031,0.0,0.0
49.0,105.0,1.0,65.2531967163086,77.80940246582031,0.0,0.0
49.0,113.0,0.1,65.12773895263672,80.26961517333984,0.0,0.0
49.0,113.0,0.3,65.12773895263672,80.26961517333984,0.0,0.0
49.0,113.0,0.7,65.12773895263672,80.26961517333984,0.0,0.0
49.0,113.0,1.0,65.12773895263672,80.26961517333984,0.0,0.0
49.0,121.0,0.1,65.160888671875,80.18029022216797,0.0,0.0
49.0,121.0,0.3,65.160888671875,80.18029022216797,0.0,0.0
49.0,121.0,0.7,65.160888671875,80.18029022216797,0.0,0.0
49.0,121.0,1.0,65.160888671875,80.18029022216797,0.0,0.0
49.0,127.0,0.1,65.2437744140625,80.16817474365234,0.0,0.0
49.0,127.0,0.3,65.2437744140625,80.16817474365234,0.0,0.0
49.0,127.0,0.7,65.2437744140625,80.16817474365234,0.0,0.0
49.0,127.0,1.0,65.2437744140625,80.16817474365234,0.0,0.0
50.0,1.0,0.1,24.173789978027344,40.83417892456055,0.0,0.0
50.0,1.0,0.3,24.173789978027344,40.83417892456055,0.0,0.0
50.0,1.0,0.7,24.173789978027344,40.83417892456055,0.0,0.0
50.0,1.0,1.0,24.173789978027344,40.83417892456055,0.0,0.0
50.0,9.0,0.1,24.76825714111328,28.576507568359375,0.0,0.0
50.0,9.0,0.3,24.76825714111328,28.576507568359375,0.0,0.0
50.0,9.0,0.7,24.76825714111328,28.576507568359375,0.0,0.0
50.0,9.0,1.0,24.76825714111328,28.576507568359375,0.0,0.0
50.0,17.0,0.1,18.96306610107422,47.71118927001953,0.0,0.0
50.0,17.0,0.3,18.96306610107422,47.71118927001953,0.0,0.0
50.0,17.0,0.7,18.96306610107422,47.71118927001953,0.0,0.0
50.0,17.0,1.0,18.96306610107422,47.71118927001953,0.0,0.0
50.0,25.0,0.1,25.546096801757812,52.13373565673828,0.0,0.0
50.0,25.0,0.3,25.546096801757812,52.13373565673828,0.0,0.0
50.0,25.0,0.7,25.546096801757812,52.13373565673828,0.0,0.0
50.0,25.0,1.0,25.546096801757812,52.13373565673828,0.0,0.0
50.0,33.0,0.1,27.018692016601562,54.58037185668945,0.0,0.0
50.0,33.0,0.3,27.018692016601562,54.58037185668945,0.0,0.0
50.0,33.0,0.7,27.018692016601562,54.58037185668945,0.0,0.0
50.0,33.0,1.0,27.018692016601562,54.58037185668945,0.0,0.0
50.0,41.0,0.1,36.16425323486328,57.44639587402344,0.0,0.0
50.0,41.0,0.3,36.16425323486328,57.44639587402344,0.0,0.0
50.0,41.0,0.7,36.16425323486328,57.44639587402344,0.0,0.0
50.0,41.0,1.0,36.16425323486328,57.44639587402344,0.0,0.0
50.0,49.0,0.1,20.100494384765625,60.167572021484375,0.0,0.0
50.0,49.0,0.3,20.100494384765625,60.167572021484375,0.0,0.0
50.0,49.0,0.7,20.100494384765625,60.167572021484375,0.0,0.0
50.0,49.0,1.0,20.100494384765625,60.167572021484375,0.0,0.0
50.0,57.0,0.1,52.59611129760742,62.03223419189453,0.0,0.0
50.0,57.0,0.3,52.59611129760742,62.03223419189453,0.0,0.0
50.0,57.0,0.7,52.59611129760742,62.03223419189453,0.0,0.0
50.0,57.0,1.0,52.59611129760742,62.03223419189453,0.0,0.0
50.0,65.0,0.1,58.13501739501953,64.37985229492188,0.0,0.0
50.0,65.0,0.3,58.13501739501953,64.37985229492188,0.0,0.0
50.0,65.0,0.7,58.13501739501953,64.37985229492188,0.0,0.0
50.0,65.0,1.0,58.13501739501953,64.37985229492188,0.0,0.0
50.0,73.0,0.1,60.30940628051758,66.76854705810547,0.0,0.0
50.0,73.0,0.3,60.30940628051758,66.76854705810547,0.0,0.0
50.0,73.0,0.7,60.30940628051758,66.76854705810547,0.0,0.0
50.0,73.0,1.0,60.30940628051758,66.76854705810547,0.0,0.0
50.0,81.0,0.1,61.65065002441406,69.40814208984375,0.0,0.0
50.0,81.0,0.3,61.65065002441406,69.40814208984375,0.0,0.0
50.0,81.0,0.7,61.65065002441406,69.40814208984375,0.0,0.0
50.0,81.0,1.0,61.65065002441406,69.40814208984375,0.0,0.0
50.0,89.0,0.1,63.279136657714844,72.0365219116211,0.0,0.0
50.0,89.0,0.3,63.279136657714844,72.0365219116211,0.0,0.0
50.0,89.0,0.7,63.279136657714844,72.0365219116211,0.0,0.0
50.0,89.0,1.0,63.279136657714844,72.0365219116211,0.0,0.0
50.0,97.0,0.1,64.03407287597656,74.56749725341797,0.0,0.0
50.0,97.0,0.3,64.03407287597656,74.56749725341797,0.0,0.0
50.0,97.0,0.7,64.03407287597656,74.56749725341797,0.0,0.0
50.0,97.0,1.0,64.03407287597656,74.56749725341797,0.0,0.0
50.0,105.0,0.1,64.0300064086914,78.22393035888672,0.0,0.0
50.0,105.0,0.3,64.0300064086914,78.22393035888672,0.0,0.0
50.0,105.0,0.7,64.0300064086914,78.22393035888672,0.0,0.0
50.0,105.0,1.0,64.0300064086914,78.22393035888672,0.0,0.0
50.0,113.0,0.1,63.95284652709961,78.07634735107422,0.0,0.0
50.0,113.0,0.3,63.95284652709961,78.07634735107422,0.0,0.0
50.0,113.0,0.7,63.95284652709961,78.07634735107422,0.0,0.0
50.0,113.0,1.0,63.95284652709961,78.07634735107422,0.0,0.0
50.0,121.0,0.1,63.83605194091797,77.88336181640625,0.0,0.0
50.0,121.0,0.3,63.83605194091797,77.88336181640625,0.0,0.0
50.0,121.0,0.7,63.83605194091797,77.88336181640625,0.0,0.0
50.0,121.0,1.0,63.83605194091797,77.88336181640625,0.0,0.0
50.0,127.0,0.1,63.73933792114258,77.87548065185547,0.0,0.0
50.0,127.0,0.3,63.73933792114258,77.87548065185547,0.0,0.0
50.0,127.0,0.7,63.73933792114258,77.87548065185547,0.0,0.0
50.0,127.0,1.0,63.73933792114258,77.87548065185547,0.0,0.0
51.0,1.0,0.1,19.21514129638672,40.96394348144531,0.0,0.0
51.0,1.0,0.3,19.21514129638672,40.96394348144531,0.0,0.0
51.0,1.0,0.7,19.21514129638672,40.96394348144531,0.0,0.0
51.0,1.0,1.0,19.21514129638672,40.96394348144531,0.0,0.0
51.0,9.0,0.1,23.07965087890625,41.96312713623047,0.0,0.0
51.0,9.0,0.3,23.07965087890625,41.96312713623047,0.0,0.0
51.0,9.0,0.7,23.07965087890625,41.96312713623047,0.0,0.0
51.0,9.0,1.0,23.07965087890625,41.96312713623047,0.0,0.0
51.0,17.0,0.1,27.855682373046875,44.56947708129883,0.0,0.0
51.0,17.0,0.3,27.855682373046875,44.56947708129883,0.0,0.0
51.0,17.0,0.7,27.855682373046875,44.56947708129883,0.0,0.0
51.0,17.0,1.0,27.855682373046875,44.56947708129883,0.0,0.0
51.0,25.0,0.1,19.9686279296875,47.92906951904297,0.0,0.0
51.0,25.0,0.3,19.9686279296875,47.92906951904297,0.0,0.0
51.0,25.0,0.7,19.9686279296875,47.92906951904297,0.0,0.0
51.0,25.0,1.0,19.9686279296875,47.92906951904297,0.0,0.0
51.0,33.0,0.1,22.758270263671875,52.106475830078125,0.0,0.0
51.0,33.0,0.3,22.758270263671875,52.106475830078125,0.0,0.0
51.0,33.0,0.7,22.758270263671875,52.106475830078125,0.0,0.0
51.0,33.0,1.0,22.758270263671875,52.106475830078125,0.0,0.0
51.0,41.0,0.1,18.14177703857422,55.052494049072266,0.0,0.0
51.0,41.0,0.3,18.14177703857422,55.052494049072266,0.0,0.0
51.0,41.0,0.7,18.14177703857422,55.052494049072266,0.0,0.0
51.0,41.0,1.0,18.14177703857422,55.052494049072266,0.0,0.0
51.0,49.0,0.1,24.79926300048828,57.79990005493164,0.0,0.0
51.0,49.0,0.3,24.79926300048828,57.79990005493164,0.0,0.0
51.0,49.0,0.7,24.79926300048828,57.79990005493164,0.0,0.0
51.0,49.0,1.0,24.79926300048828,57.79990005493164,0.0,0.0
51.0,57.0,0.1,24.854904174804688,60.65409851074219,0.0,0.0
51.0,57.0,0.3,24.854904174804688,60.65409851074219,0.0,0.0
51.0,57.0,0.7,24.854904174804688,60.65409851074219,0.0,0.0
51.0,57.0,1.0,24.854904174804688,60.65409851074219,0.0,0.0
51.0,65.0,0.1,65.67410278320312,63.33058166503906,0.0,0.0
51.0,65.0,0.3,65.67410278320312,63.33058166503906,0.0,0.0
51.0,65.0,0.7,65.67410278320312,63.33058166503906,0.0,0.0
51.0,65.0,1.0,65.67410278320312,63.33058166503906,0.0,0.0
51.0,73.0,0.1,68.40059661865234,66.14291381835938,0.0,0.0
51.0,73.0,0.3,68.40059661865234,66.14291381835938,0.0,0.0
51.0,73.0,0.7,68.40059661865234,66.14291381835938,0.0,0.0
51.0,73.0,1.0,68.40059661865234,66.14291381835938,0.0,0.0
51.0,81.0,0.1,70.94754028320312,68.71524047851562,0.0,0.0
51.0,81.0,0.3,70.94754028320312,68.71524047851562,0.0,0.0
51.0,81.0,0.7,70.94754028320312,68.71524047851562,0.0,0.0
51.0,81.0,1.0,70.94754028320312,68.71524047851562,0.0,0.0
51.0,89.0,0.1,72.67848205566406,71.00911712646484,0.0,0.0
51.0,89.0,0.3,72.67848205566406,71.00911712646484,0.0,0.0
51.0,89.0,0.7,72.67848205566406,71.00911712646484,0.0,0.0
51.0,89.0,1.0,72.67848205566406,71.00911712646484,0.0,0.0
51.0,97.0,0.1,73.17359924316406,73.21919250488281,0.0,0.0
51.0,97.0,0.3,73.17359924316406,73.21919250488281,0.0,0.0
51.0,97.0,0.7,73.17359924316406,73.21919250488281,0.0,0.0
51.0,97.0,1.0,73.17359924316406,73.21919250488281,0.0,0.0
51.0,105.0,0.1,73.17057800292969,76.07447814941406,0.0,0.0
51.0,105.0,0.3,73.17057800292969,76.07447814941406,0.0,0.0
51.0,105.0,0.7,73.17057800292969,76.07447814941406,0.0,0.0
51.0,105.0,1.0,73.17057800292969,76.07447814941406,0.0,0.0
51.0,113.0,0.1,73.05017852783203,77.00054931640625,0.0,0.0
51.0,113.0,0.3,73.05017852783203,77.00054931640625,0.0,0.0
51.0,113.0,0.7,73.05017852783203,77.00054931640625,0.0,0.0
51.0,113.0,1.0,73.05017852783203,77.00054931640625,0.0,0.0
51.0,121.0,0.1,72.9816665649414,76.75840759277344,0.0,0.0
51.0,121.0,0.3,72.9816665649414,76.75840759277344,0.0,0.0
51.0,121.0,0.7,72.9816665649414,76.75840759277344,0.0,0.0
51.0,121.0,1.0,72.9816665649414,76.75840759277344,0.0,0.0
51.0,127.0,0.1,72.90668487548828,76.79579162597656,0.0,0.0
51.0,127.0,0.3,72.90668487548828,76.79579162597656,0.0,0.0
51.0,127.0,0.7,72.90668487548828,76.79579162597656,0.0,0.0
51.0,127.0,1.0,72.90668487548828,76.79579162597656,0.0,0.0
52.0,1.0,0.1,23.571807861328125,29.390098571777344,0.0,0.0
52.0,1.0,0.3,23.571807861328125,29.390098571777344,0.0,0.0
52.0,1.0,0.7,23.571807861328125,29.390098571777344,0.0,0.0
52.0,1.0,1.0,23.571807861328125,29.390098571777344,0.0,0.0
52.0,9.0,0.1,24.839820861816406,45.59618377685547,0.0,0.0
52.0,9.0,0.3,24.839820861816406,45.59618377685547,0.0,0.0
52.0,9.0,0.7,24.839820861816406,45.59618377685547,0.0,0.0
52.0,9.0,1.0,24.839820861816406,45.59618377685547,0.0,0.0
52.0,17.0,0.1,28.03436279296875,50.4450798034668,0.0,0.0
52.0,17.0,0.3,28.03436279296875,50.4450798034668,0.0,0.0
52.0,17.0,0.7,28.03436279296875,50.4450798034668,0.0,0.0
52.0,17.0,1.0,28.03436279296875,50.4450798034668,0.0,0.0
52.0,25.0,0.1,26.33234405517578,53.62728500366211,0.0,0.0
52.0,25.0,0.3,26.33234405517578,53.62728500366211,0.0,0.0
52.0,25.0,0.7,26.33234405517578,53.62728500366211,0.0,0.0
52.0,25.0,1.0,26.33234405517578,53.62728500366211,0.0,0.0
52.0,33.0,0.1,26.603050231933594,55.99628448486328,0.0,0.0
52.0,33.0,0.3,26.603050231933594,55.99628448486328,0.0,0.0
52.0,33.0,0.7,26.603050231933594,55.99628448486328,0.0,0.0
52.0,33.0,1.0,26.603050231933594,55.99628448486328,0.0,0.0
52.0,41.0,0.1,21.62188720703125,58.529296875,0.0,0.0
52.0,41.0,0.3,21.62188720703125,58.529296875,0.0,0.0
52.0,41.0,0.7,21.62188720703125,58.529296875,0.0,0.0
52.0,41.0,1.0,21.62188720703125,58.529296875,0.0,0.0
52.0,49.0,0.1,25.026519775390625,61.073062896728516,0.0,0.0
52.0,49.0,0.3,25.026519775390625,61.073062896728516,0.0,0.0
52.0,49.0,0.7,25.026519775390625,61.073062896728516,0.0,0.0
52.0,49.0,1.0,25.026519775390625,61.073062896728516,0.0,0.0
52.0,57.0,0.1,54.169410705566406,63.638458251953125,0.0,0.0
52.0,57.0,0.3,54.169410705566406,63.638458251953125,0.0,0.0
52.0,57.0,0.7,54.169410705566406,63.638458251953125,0.0,0.0
52.0,57.0,1.0,54.169410705566406,63.638458251953125,0.0,0.0
52.0,65.0,0.1,56.850807189941406,66.22425842285156,0.0,0.0
52.0,65.0,0.3,56.850807189941406,66.22425842285156,0.0,0.0
52.0,65.0,0.7,56.850807189941406,66.22425842285156,0.0,0.0
52.0,65.0,1.0,56.850807189941406,66.22425842285156,0.0,0.0
52.0,73.0,0.1,58.69116973876953,68.46724700927734,0.0,0.0
52.0,73.0,0.3,58.69116973876953,68.46724700927734,0.0,0.0
52.0,73.0,0.7,58.69116973876953,68.46724700927734,0.0,0.0
52.0,73.0,1.0,58.69116973876953,68.46724700927734,0.0,0.0
52.0,81.0,0.1,60.41622543334961,70.99986267089844,0.0,0.0
52.0,81.0,0.3,60.41622543334961,70.99986267089844,0.0,0.0
52.0,81.0,0.7,60.41622543334961,70.99986267089844,0.0,0.0
52.0,81.0,1.0,60.41622543334961,70.99986267089844,0.0,0.0
52.0,89.0,0.1,61.76762008666992,73.16709899902344,0.0,0.0
52.0,89.0,0.3,61.76762008666992,73.16709899902344,0.0,0.0
52.0,89.0,0.7,61.76762008666992,73.16709899902344,0.0,0.0
52.0,89.0,1.0,61.76762008666992,73.16709899902344,0.0,0.0
52.0,97.0,0.1,62.48057556152344,75.18743133544922,0.0,0.0
52.0,97.0,0.3,62.48057556152344,75.18743133544922,0.0,0.0
52.0,97.0,0.7,62.48057556152344,75.18743133544922,0.0,0.0
52.0,97.0,1.0,62.48057556152344,75.18743133544922,0.0,0.0
52.0,105.0,0.1,62.403663635253906,76.85838317871094,0.0,0.0
52.0,105.0,0.3,62.403663635253906,76.85838317871094,0.0,0.0
52.0,105.0,0.7,62.403663635253906,76.85838317871094,0.0,0.0
52.0,105.0,1.0,62.403663635253906,76.85838317871094,0.0,0.0
52.0,113.0,0.1,62.33802795410156,47.61284637451172,0.0,0.0
52.0,113.0,0.3,62.33802795410156,47.61284637451172,0.0,0.0
52.0,113.0,0.7,62.33802795410156,47.61284637451172,0.0,0.0
52.0,113.0,1.0,62.33802795410156,47.61284637451172,0.0,0.0
52.0,121.0,0.1,62.26638412475586,24.099411010742188,0.0,0.0
52.0,121.0,0.3,62.26638412475586,24.099411010742188,0.0,0.0
52.0,121.0,0.7,62.26638412475586,24.099411010742188,0.0,0.0
52.0,121.0,1.0,62.26638412475586,24.099411010742188,0.0,0.0
52.0,127.0,0.1,62.24235916137695,21.487518310546875,0.0,0.0
52.0,127.0,0.3,62.24235916137695,21.487518310546875,0.0,0.0
52.0,127.0,0.7,62.24235916137695,21.487518310546875,0.0,0.0
52.0,127.0,1.0,62.24235916137695,21.487518310546875,0.0,0.0
53.0,1.0,0.1,26.148712158203125,43.5822868347168,0.0,0.0
53.0,1.0,0.3,26.148712158203125,43.5822868347168,0.0,0.0
53.0,1.0,0.7,26.148712158203125,43.5822868347168,0.0,0.0
53.0,1.0,1.0,26.148712158203125,43.5822868347168,0.0,0.0
53.0,9.0,0.1,25.541580200195312,45.35616683959961,0.0,0.0
53.0,9.0,0.3,25.541580200195312,45.35616683959961,0.0,0.0
53.0,9.0,0.7,25.541580200195312,45.35616683959961,0.0,0.0
53.0,9.0,1.0,25.541580200195312,45.35616683959961,0.0,0.0
53.0,17.0,0.1,26.645660400390625,49.67731857299805,0.0,0.0
53.0,17.0,0.3,26.645660400390625,49.67731857299805,0.0,0.0
53.0,17.0,0.7,26.645660400390625,49.67731857299805,0.0,0.0
53.0,17.0,1.0,26.645660400390625,49.67731857299805,0.0,0.0
53.0,25.0,0.1,27.136436462402344,53.61920166015625,0.0,0.0
53.0,25.0,0.3,27.136436462402344,53.61920166015625,0.0,0.0
53.0,25.0,0.7,27.136436462402344,53.61920166015625,0.0,0.0
53.0,25.0,1.0,27.136436462402344,53.61920166015625,0.0,0.0
53.0,33.0,0.1,25.98370361328125,56.10490036010742,0.0,0.0
53.0,33.0,0.3,25.98370361328125,56.10490036010742,0.0,0.0
53.0,33.0,0.7,25.98370361328125,56.10490036010742,0.0,0.0
53.0,33.0,1.0,25.98370361328125,56.10490036010742,0.0,0.0
53.0,41.0,0.1,51.542259216308594,58.555137634277344,0.0,0.0
53.0,41.0,0.3,51.542259216308594,58.555137634277344,0.0,0.0
53.0,41.0,0.7,51.542259216308594,58.555137634277344,0.0,0.0
53.0,41.0,1.0,51.542259216308594,58.555137634277344,0.0,0.0
53.0,49.0,0.1,47.65443420410156,60.46868133544922,0.0,0.0
53.0,49.0,0.3,47.65443420410156,60.46868133544922,0.0,0.0
53.0,49.0,0.7,47.65443420410156,60.46868133544922,0.0,0.0
53.0,49.0,1.0,47.65443420410156,60.46868133544922,0.0,0.0
53.0,57.0,0.1,27.936927795410156,63.39276123046875,0.0,0.0
53.0,57.0,0.3,27.936927795410156,63.39276123046875,0.0,0.0
53.0,57.0,0.7,27.936927795410156,63.39276123046875,0.0,0.0
53.0,57.0,1.0,27.936927795410156,63.39276123046875,0.0,0.0
53.0,65.0,0.1,24.689476013183594,65.28289031982422,0.0,0.0
53.0,65.0,0.3,24.689476013183594,65.28289031982422,0.0,0.0
53.0,65.0,0.7,24.689476013183594,65.28289031982422,0.0,0.0
53.0,65.0,1.0,24.689476013183594,65.28289031982422,0.0,0.0
53.0,73.0,0.1,64.48553466796875,67.24502563476562,0.0,0.0
53.0,73.0,0.3,64.48553466796875,67.24502563476562,0.0,0.0
53.0,73.0,0.7,64.48553466796875,67.24502563476562,0.0,0.0
53.0,73.0,1.0,64.48553466796875,67.24502563476562,0.0,0.0
53.0,81.0,0.1,66.75262451171875,69.58131408691406,0.0,0.0
53.0,81.0,0.3,66.75262451171875,69.58131408691406,0.0,0.0
53.0,81.0,0.7,66.75262451171875,69.58131408691406,0.0,0.0
53.0,81.0,1.0,66.75262451171875,69.58131408691406,0.0,0.0
53.0,89.0,0.1,68.42215728759766,71.93173217773438,0.0,0.0
53.0,89.0,0.3,68.42215728759766,71.93173217773438,0.0,0.0
53.0,89.0,0.7,68.42215728759766,71.93173217773438,0.0,0.0
53.0,89.0,1.0,68.42215728759766,71.93173217773438,0.0,0.0
53.0,97.0,0.1,69.27241516113281,76.89305114746094,0.0,0.0
53.0,97.0,0.3,69.27241516113281,76.89305114746094,0.0,0.0
53.0,97.0,0.7,69.27241516113281,76.89305114746094,0.0,0.0
53.0,97.0,1.0,69.27241516113281,76.89305114746094,0.0,0.0
53.0,105.0,0.1,69.15101623535156,78.22588348388672,0.0,0.0
53.0,105.0,0.3,69.15101623535156,78.22588348388672,0.0,0.0
53.0,105.0,0.7,69.15101623535156,78.22588348388672,0.0,0.0
53.0,105.0,1.0,69.15101623535156,78.22588348388672,0.0,0.0
53.0,113.0,0.1,69.0613784790039,78.13790893554688,0.0,0.0
53.0,113.0,0.3,69.0613784790039,78.13790893554688,0.0,0.0
53.0,113.0,0.7,69.0613784790039,78.13790893554688,0.0,0.0
53.0,113.0,1.0,69.0613784790039,78.13790893554688,0.0,0.0
53.0,121.0,0.1,68.83604431152344,78.10289001464844,0.0,0.0
53.0,121.0,0.3,68.83604431152344,78.10289001464844,0.0,0.0
53.0,121.0,0.7,68.83604431152344,78.10289001464844,0.0,0.0
53.0,121.0,1.0,68.83604431152344,78.10289001464844,0.0,0.0
53.0,127.0,0.1,68.93819427490234,78.08839416503906,0.0,0.0
53.0,127.0,0.3,68.93819427490234,78.08839416503906,0.0,0.0
53.0,127.0,0.7,68.93819427490234,78.08839416503906,0.0,0.0
53.0,127.0,1.0,68.93819427490234,78.08839416503906,0.0,0.0
54.0,1.0,0.1,25.86236572265625,43.549530029296875,0.0,0.0
54.0,1.0,0.3,25.86236572265625,43.549530029296875,0.0,0.0
54.0,1.0,0.7,25.86236572265625,43.549530029296875,0.0,0.0
54.0,1.0,1.0,25.86236572265625,43.549530029296875,0.0,0.0
54.0,9.0,0.1,28.880630493164062,44.024776458740234,0.0,0.0
54.0,9.0,0.3,28.880630493164062,44.024776458740234,0.0,0.0
54.0,9.0,0.7,28.880630493164062,44.024776458740234,0.0,0.0
54.0,9.0,1.0,28.880630493164062,44.024776458740234,0.0,0.0
54.0,17.0,0.1,25.761550903320312,49.22998046875,0.0,0.0
54.0,17.0,0.3,25.761550903320312,49.22998046875,0.0,0.0
54.0,17.0,0.7,25.761550903320312,49.22998046875,0.0,0.0
54.0,17.0,1.0,25.761550903320312,49.22998046875,0.0,0.0
54.0,25.0,0.1,24.319091796875,53.52116012573242,0.0,0.0
54.0,25.0,0.3,24.319091796875,53.52116012573242,0.0,0.0
54.0,25.0,0.7,24.319091796875,53.52116012573242,0.0,0.0
54.0,25.0,1.0,24.319091796875,53.52116012573242,0.0,0.0
54.0,33.0,0.1,24.74176025390625,57.06037521362305,0.0,0.0
54.0,33.0,0.3,24.74176025390625,57.06037521362305,0.0,0.0
54.0,33.0,0.7,24.74176025390625,57.06037521362305,0.0,0.0
54.0,33.0,1.0,24.74176025390625,57.06037521362305,0.0,0.0
54.0,41.0,0.1,22.71405792236328,60.693389892578125,0.0,0.0
54.0,41.0,0.3,22.71405792236328,60.693389892578125,0.0,0.0
54.0,41.0,0.7,22.71405792236328,60.693389892578125,0.0,0.0
54.0,41.0,1.0,22.71405792236328,60.693389892578125,0.0,0.0
54.0,49.0,0.1,57.76356506347656,63.6168327331543,0.0,0.0
54.0,49.0,0.3,57.76356506347656,63.6168327331543,0.0,0.0
54.0,49.0,0.7,57.76356506347656,63.6168327331543,0.0,0.0
54.0,49.0,1.0,57.76356506347656,63.6168327331543,0.0,0.0
54.0,57.0,0.1,60.71682357788086,66.22563934326172,0.0,0.0
54.0,57.0,0.3,60.71682357788086,66.22563934326172,0.0,0.0
54.0,57.0,0.7,60.71682357788086,66.22563934326172,0.0,0.0
54.0,57.0,1.0,60.71682357788086,66.22563934326172,0.0,0.0
54.0,65.0,0.1,22.203292846679688,68.43894958496094,0.0,0.0
54.0,65.0,0.3,22.203292846679688,68.43894958496094,0.0,0.0
54.0,65.0,0.7,22.203292846679688,68.43894958496094,0.0,0.0
54.0,65.0,1.0,22.203292846679688,68.43894958496094,0.0,0.0
54.0,73.0,0.1,67.41635131835938,70.76518249511719,0.0,0.0
54.0,73.0,0.3,67.41635131835938,70.76518249511719,0.0,0.0
54.0,73.0,0.7,67.41635131835938,70.76518249511719,0.0,0.0
54.0,73.0,1.0,67.41635131835938,70.76518249511719,0.0,0.0
54.0,81.0,0.1,69.40541076660156,73.38731384277344,0.0,0.0
54.0,81.0,0.3,69.40541076660156,73.38731384277344,0.0,0.0
54.0,81.0,0.7,69.40541076660156,73.38731384277344,0.0,0.0
54.0,81.0,1.0,69.40541076660156,73.38731384277344,0.0,0.0
54.0,89.0,0.1,70.62054443359375,75.51429748535156,0.0,0.0
54.0,89.0,0.3,70.62054443359375,75.51429748535156,0.0,0.0
54.0,89.0,0.7,70.62054443359375,75.51429748535156,0.0,0.0
54.0,89.0,1.0,70.62054443359375,75.51429748535156,0.0,0.0
54.0,97.0,0.1,71.25919342041016,77.36604309082031,0.0,0.0
54.0,97.0,0.3,71.25919342041016,77.36604309082031,0.0,0.0
54.0,97.0,0.7,71.25919342041016,77.36604309082031,0.0,0.0
54.0,97.0,1.0,71.25919342041016,77.36604309082031,0.0,0.0
54.0,105.0,0.1,71.17635345458984,80.37823486328125,0.0,0.0
54.0,105.0,0.3,71.17635345458984,80.37823486328125,0.0,0.0
54.0,105.0,0.7,71.17635345458984,80.37823486328125,0.0,0.0
54.0,105.0,1.0,71.17635345458984,80.37823486328125,0.0,0.0
54.0,113.0,0.1,71.09968566894531,80.04106140136719,0.0,0.0
54.0,113.0,0.3,71.09968566894531,80.04106140136719,0.0,0.0
54.0,113.0,0.7,71.09968566894531,80.04106140136719,0.0,0.0
54.0,113.0,1.0,71.09968566894531,80.04106140136719,0.0,0.0
54.0,121.0,0.1,71.03075408935547,80.06275177001953,0.0,0.0
54.0,121.0,0.3,71.03075408935547,80.06275177001953,0.0,0.0
54.0,121.0,0.7,71.03075408935547,80.06275177001953,0.0,0.0
54.0,121.0,1.0,71.03075408935547,80.06275177001953,0.0,0.0
54.0,127.0,0.1,70.98126983642578,80.01640319824219,0.0,0.0
54.0,127.0,0.3,70.98126983642578,80.01640319824219,0.0,0.0
54.0,127.0,0.7,70.98126983642578,80.01640319824219,0.0,0.0
54.0,127.0,1.0,70.98126983642578,80.01640319824219,0.0,0.0
55.0,1.0,0.1,22.014137268066406,44.89656448364258,0.0,0.0
55.0,1.0,0.3,22.014137268066406,44.89656448364258,0.0,0.0
55.0,1.0,0.7,22.014137268066406,44.89656448364258,0.0,0.0
55.0,1.0,1.0,22.014137268066406,44.89656448364258,0.0,0.0
55.0,9.0,0.1,24.582992553710938,45.186607360839844,0.0,0.0
55.0,9.0,0.3,24.582992553710938,45.186607360839844,0.0,0.0
55.0,9.0,0.7,24.582992553710938,45.186607360839844,0.0,0.0
55.0,9.0,1.0,24.582992553710938,45.186607360839844,0.0,0.0
55.0,17.0,0.1,26.94513702392578,49.6617546081543,0.0,0.0
55.0,17.0,0.3,26.94513702392578,49.6617546081543,0.0,0.0
55.0,17.0,0.7,26.94513702392578,49.6617546081543,0.0,0.0
55.0,17.0,1.0,26.94513702392578,49.6617546081543,0.0,0.0
55.0,25.0,0.1,23.998077392578125,53.050540924072266,0.0,0.0
55.0,25.0,0.3,23.998077392578125,53.050540924072266,0.0,0.0
55.0,25.0,0.7,23.998077392578125,53.050540924072266,0.0,0.0
55.0,25.0,1.0,23.998077392578125,53.050540924072266,0.0,0.0
55.0,33.0,0.1,27.186439514160156,55.78909683227539,0.0,0.0
55.0,33.0,0.3,27.186439514160156,55.78909683227539,0.0,0.0
55.0,33.0,0.7,27.186439514160156,55.78909683227539,0.0,0.0
55.0,33.0,1.0,27.186439514160156,55.78909683227539,0.0,0.0
55.0,41.0,0.1,24.958404541015625,58.541954040527344,0.0,0.0
55.0,41.0,0.3,24.958404541015625,58.541954040527344,0.0,0.0
55.0,41.0,0.7,24.958404541015625,58.541954040527344,0.0,0.0
55.0,41.0,1.0,24.958404541015625,58.541954040527344,0.0,0.0
55.0,49.0,0.1,57.14393615722656,61.23435592651367,0.0,0.0
55.0,49.0,0.3,57.14393615722656,61.23435592651367,0.0,0.0
55.0,49.0,0.7,57.14393615722656,61.23435592651367,0.0,0.0
55.0,49.0,1.0,57.14393615722656,61.23435592651367,0.0,0.0
55.0,57.0,0.1,27.731292724609375,63.994041442871094,0.0,0.0
55.0,57.0,0.3,27.731292724609375,63.994041442871094,0.0,0.0
55.0,57.0,0.7,27.731292724609375,63.994041442871094,0.0,0.0
55.0,57.0,1.0,27.731292724609375,63.994041442871094,0.0,0.0
55.0,65.0,0.1,61.76072311401367,66.37053680419922,0.0,0.0
55.0,65.0,0.3,61.76072311401367,66.37053680419922,0.0,0.0
55.0,65.0,0.7,61.76072311401367,66.37053680419922,0.0,0.0
55.0,65.0,1.0,61.76072311401367,66.37053680419922,0.0,0.0
55.0,73.0,0.1,66.39038848876953,68.64944458007812,0.0,0.0
55.0,73.0,0.3,66.39038848876953,68.64944458007812,0.0,0.0
55.0,73.0,0.7,66.39038848876953,68.64944458007812,0.0,0.0
55.0,73.0,1.0,66.39038848876953,68.64944458007812,0.0,0.0
55.0,81.0,0.1,68.79698181152344,71.52825164794922,0.0,0.0
55.0,81.0,0.3,68.79698181152344,71.52825164794922,0.0,0.0
55.0,81.0,0.7,68.79698181152344,71.52825164794922,0.0,0.0
55.0,81.0,1.0,68.79698181152344,71.52825164794922,0.0,0.0
55.0,89.0,0.1,70.49122619628906,75.503173828125,0.0,0.0
55.0,89.0,0.3,70.49122619628906,75.503173828125,0.0,0.0
55.0,89.0,0.7,70.49122619628906,75.503173828125,0.0,0.0
55.0,89.0,1.0,70.49122619628906,75.503173828125,0.0,0.0
55.0,97.0,0.1,71.1380386352539,79.5540542602539,0.0,0.0
55.0,97.0,0.3,71.1380386352539,79.5540542602539,0.0,0.0
55.0,97.0,0.7,71.1380386352539,79.5540542602539,0.0,0.0
55.0,97.0,1.0,71.1380386352539,79.5540542602539,0.0,0.0
55.0,105.0,0.1,71.1793212890625,79.5661849975586,0.0,0.0
55.0,105.0,0.3,71.1793212890625,79.5661849975586,0.0,0.0
55.0,105.0,0.7,71.1793212890625,79.5661849975586,0.0,0.0
55.0,105.0,1.0,71.1793212890625,79.5661849975586,0.0,0.0
55.0,113.0,0.1,71.06128692626953,79.46348571777344,0.0,0.0
55.0,113.0,0.3,71.06128692626953,79.46348571777344,0.0,0.0
55.0,113.0,0.7,71.06128692626953,79.46348571777344,0.0,0.0
55.0,113.0,1.0,71.06128692626953,79.46348571777344,0.0,0.0
55.0,121.0,0.1,71.01130676269531,79.43402099609375,0.0,0.0
55.0,121.0,0.3,71.01130676269531,79.43402099609375,0.0,0.0
55.0,121.0,0.7,71.01130676269531,79.43402099609375,0.0,0.0
55.0,121.0,1.0,71.01130676269531,79.43402099609375,0.0,0.0
55.0,127.0,0.1,71.06707000732422,79.39751434326172,0.0,0.0
55.0,127.0,0.3,71.06707000732422,79.39751434326172,0.0,0.0
55.0,127.0,0.7,71.06707000732422,79.39751434326172,0.0,0.0
55.0,127.0,1.0,71.06707000732422,79.39751434326172,0.0,0.0
56.0,1.0,0.1,20.721969604492188,50.52187728881836,0.0,0.0
56.0,1.0,0.3,20.721969604492188,50.52187728881836,0.0,0.0
56.0,1.0,0.7,20.721969604492188,50.52187728881836,0.0,0.0
56.0,1.0,1.0,20.721969604492188,50.52187728881836,0.0,0.0
56.0,9.0,0.1,24.82324981689453,51.184043884277344,0.0,0.0
56.0,9.0,0.3,24.82324981689453,51.184043884277344,0.0,0.0
56.0,9.0,0.7,24.82324981689453,51.184043884277344,0.0,0.0
56.0,9.0,1.0,24.82324981689453,51.184043884277344,0.0,0.0
56.0,17.0,0.1,25.794769287109375,53.729942321777344,0.0,0.0
56.0,17.0,0.3,25.794769287109375,53.729942321777344,0.0,0.0
56.0,17.0,0.7,25.794769287109375,53.729942321777344,0.0,0.0
56.0,17.0,1.0,25.794769287109375,53.729942321777344,0.0,0.0
56.0,25.0,0.1,25.443443298339844,56.709129333496094,0.0,0.0
56.0,25.0,0.3,25.443443298339844,56.709129333496094,0.0,0.0
56.0,25.0,0.7,25.443443298339844,56.709129333496094,0.0,0.0
56.0,25.0,1.0,25.443443298339844,56.709129333496094,0.0,0.0
56.0,33.0,0.1,25.93707275390625,59.93423843383789,0.0,0.0
56.0,33.0,0.3,25.93707275390625,59.93423843383789,0.0,0.0
56.0,33.0,0.7,25.93707275390625,59.93423843383789,0.0,0.0
56.0,33.0,1.0,25.93707275390625,59.93423843383789,0.0,0.0
56.0,41.0,0.1,25.381141662597656,62.82250213623047,0.0,0.0
56.0,41.0,0.3,25.381141662597656,62.82250213623047,0.0,0.0
56.0,41.0,0.7,25.381141662597656,62.82250213623047,0.0,0.0
56.0,41.0,1.0,25.381141662597656,62.82250213623047,0.0,0.0
56.0,49.0,0.1,42.32401657104492,65.46778106689453,0.0,0.0
56.0,49.0,0.3,42.32401657104492,65.46778106689453,0.0,0.0
56.0,49.0,0.7,42.32401657104492,65.46778106689453,0.0,0.0
56.0,49.0,1.0,42.32401657104492,65.46778106689453,0.0,0.0
56.0,57.0,0.1,58.906524658203125,67.33576965332031,0.0,0.0
56.0,57.0,0.3,58.906524658203125,67.33576965332031,0.0,0.0
56.0,57.0,0.7,58.906524658203125,67.33576965332031,0.0,0.0
56.0,57.0,1.0,58.906524658203125,67.33576965332031,0.0,0.0
56.0,65.0,0.1,61.07091522216797,69.25882720947266,0.0,0.0
56.0,65.0,0.3,61.07091522216797,69.25882720947266,0.0,0.0
56.0,65.0,0.7,61.07091522216797,69.25882720947266,0.0,0.0
56.0,65.0,1.0,61.07091522216797,69.25882720947266,0.0,0.0
56.0,73.0,0.1,66.38333129882812,71.51412200927734,0.0,0.0
56.0,73.0,0.3,66.38333129882812,71.51412200927734,0.0,0.0
56.0,73.0,0.7,66.38333129882812,71.51412200927734,0.0,0.0
56.0,73.0,1.0,66.38333129882812,71.51412200927734,0.0,0.0
56.0,81.0,0.1,68.34349060058594,73.09941864013672,0.0,0.0
56.0,81.0,0.3,68.34349060058594,73.09941864013672,0.0,0.0
56.0,81.0,0.7,68.34349060058594,73.09941864013672,0.0,0.0
56.0,81.0,1.0,68.34349060058594,73.09941864013672,0.0,0.0
56.0,89.0,0.1,69.88140869140625,75.76077270507812,0.0,0.0
56.0,89.0,0.3,69.88140869140625,75.76077270507812,0.0,0.0
56.0,89.0,0.7,69.88140869140625,75.76077270507812,0.0,0.0
56.0,89.0,1.0,69.88140869140625,75.76077270507812,0.0,0.0
56.0,97.0,0.1,70.55838012695312,78.03099822998047,0.0,0.0
56.0,97.0,0.3,70.55838012695312,78.03099822998047,0.0,0.0
56.0,97.0,0.7,70.55838012695312,78.03099822998047,0.0,0.0
56.0,97.0,1.0,70.55838012695312,78.03099822998047,0.0,0.0
56.0,105.0,0.1,70.4757308959961,80.74126434326172,0.0,0.0
56.0,105.0,0.3,70.4757308959961,80.74126434326172,0.0,0.0
56.0,105.0,0.7,70.4757308959961,80.74126434326172,0.0,0.0
56.0,105.0,1.0,70.4757308959961,80.74126434326172,0.0,0.0
56.0,113.0,0.1,70.40068054199219,80.49118041992188,0.0,0.0
56.0,113.0,0.3,70.40068054199219,80.49118041992188,0.0,0.0
56.0,113.0,0.7,70.40068054199219,80.49118041992188,0.0,0.0
56.0,113.0,1.0,70.40068054199219,80.49118041992188,0.0,0.0
56.0,121.0,0.1,70.3701400756836,80.41304016113281,0.0,0.0
56.0,121.0,0.3,70.3701400756836,80.41304016113281,0.0,0.0
56.0,121.0,0.7,70.3701400756836,80.41304016113281,0.0,0.0
56.0,121.0,1.0,70.3701400756836,80.41304016113281,0.0,0.0
56.0,127.0,0.1,70.31221008300781,80.40179443359375,0.0,0.0
56.0,127.0,0.3,70.31221008300781,80.40179443359375,0.0,0.0
56.0,127.0,0.7,70.31221008300781,80.40179443359375,0.0,0.0
56.0,127.0,1.0,70.31221008300781,80.40179443359375,0.0,0.0
57.0,1.0,0.1,21.763381958007812,47.700538635253906,0.0,0.0
57.0,1.0,0.3,21.763381958007812,47.700538635253906,0.0,0.0
57.0,1.0,0.7,21.763381958007812,47.700538635253906,0.0,0.0
57.0,1.0,1.0,21.763381958007812,47.700538635253906,0.0,0.0
57.0,9.0,0.1,23.81414031982422,48.714088439941406,0.0,0.0
57.0,9.0,0.3,23.81414031982422,48.714088439941406,0.0,0.0
57.0,9.0,0.7,23.81414031982422,48.714088439941406,0.0,0.0
57.0,9.0,1.0,23.81414031982422,48.714088439941406,0.0,0.0
57.0,17.0,0.1,24.18389892578125,51.597862243652344,0.0,0.0
57.0,17.0,0.3,24.18389892578125,51.597862243652344,0.0,0.0
57.0,17.0,0.7,24.18389892578125,51.597862243652344,0.0,0.0
57.0,17.0,1.0,24.18389892578125,51.597862243652344,0.0,0.0
57.0,25.0,0.1,21.675125122070312,54.40357971191406,0.0,0.0
57.0,25.0,0.3,21.675125122070312,54.40357971191406,0.0,0.0
57.0,25.0,0.7,21.675125122070312,54.40357971191406,0.0,0.0
57.0,25.0,1.0,21.675125122070312,54.40357971191406,0.0,0.0
57.0,33.0,0.1,24.379112243652344,56.33078384399414,0.0,0.0
57.0,33.0,0.3,24.379112243652344,56.33078384399414,0.0,0.0
57.0,33.0,0.7,24.379112243652344,56.33078384399414,0.0,0.0
57.0,33.0,1.0,24.379112243652344,56.33078384399414,0.0,0.0
57.0,41.0,0.1,24.41197967529297,59.3821907043457,0.0,0.0
57.0,41.0,0.3,24.41197967529297,59.3821907043457,0.0,0.0
57.0,41.0,0.7,24.41197967529297,59.3821907043457,0.0,0.0
57.0,41.0,1.0,24.41197967529297,59.3821907043457,0.0,0.0
57.0,49.0,0.1,21.82819366455078,61.25952911376953,0.0,0.0
57.0,49.0,0.3,21.82819366455078,61.25952911376953,0.0,0.0
57.0,49.0,0.7,21.82819366455078,61.25952911376953,0.0,0.0
57.0,49.0,1.0,21.82819366455078,61.25952911376953,0.0,0.0
57.0,57.0,0.1,20.88794708251953,64.33267211914062,0.0,0.0
57.0,57.0,0.3,20.88794708251953,64.33267211914062,0.0,0.0
57.0,57.0,0.7,20.88794708251953,64.33267211914062,0.0,0.0
57.0,57.0,1.0,20.88794708251953,64.33267211914062,0.0,0.0
57.0,65.0,0.1,43.63808059692383,66.76483154296875,0.0,0.0
57.0,65.0,0.3,43.63808059692383,66.76483154296875,0.0,0.0
57.0,65.0,0.7,43.63808059692383,66.76483154296875,0.0,0.0
57.0,65.0,1.0,43.63808059692383,66.76483154296875,0.0,0.0
57.0,73.0,0.1,61.91816329956055,68.81230163574219,0.0,0.0
57.0,73.0,0.3,61.91816329956055,68.81230163574219,0.0,0.0
57.0,73.0,0.7,61.91816329956055,68.81230163574219,0.0,0.0
57.0,73.0,1.0,61.91816329956055,68.81230163574219,0.0,0.0
57.0,81.0,0.1,67.87744903564453,71.32685852050781,0.0,0.0
57.0,81.0,0.3,67.87744903564453,71.32685852050781,0.0,0.0
57.0,81.0,0.7,67.87744903564453,71.32685852050781,0.0,0.0
57.0,81.0,1.0,67.87744903564453,71.32685852050781,0.0,0.0
57.0,89.0,0.1,69.93606567382812,73.66445922851562,0.0,0.0
57.0,89.0,0.3,69.93606567382812,73.66445922851562,0.0,0.0
57.0,89.0,0.7,69.93606567382812,73.66445922851562,0.0,0.0
57.0,89.0,1.0,69.93606567382812,73.66445922851562,0.0,0.0
57.0,97.0,0.1,71.22613525390625,76.52998352050781,0.0,0.0
57.0,97.0,0.3,71.22613525390625,76.52998352050781,0.0,0.0
57.0,97.0,0.7,71.22613525390625,76.52998352050781,0.0,0.0
57.0,97.0,1.0,71.22613525390625,76.52998352050781,0.0,0.0
57.0,105.0,0.1,71.02407836914062,79.61280822753906,0.0,0.0
57.0,105.0,0.3,71.02407836914062,79.61280822753906,0.0,0.0
57.0,105.0,0.7,71.02407836914062,79.61280822753906,0.0,0.0
57.0,105.0,1.0,71.02407836914062,79.61280822753906,0.0,0.0
57.0,113.0,0.1,70.96590423583984,79.63017272949219,0.0,0.0
57.0,113.0,0.3,70.96590423583984,79.63017272949219,0.0,0.0
57.0,113.0,0.7,70.96590423583984,79.63017272949219,0.0,0.0
57.0,113.0,1.0,70.96590423583984,79.63017272949219,0.0,0.0
57.0,121.0,0.1,70.91473388671875,79.45565032958984,0.0,0.0
57.0,121.0,0.3,70.91473388671875,79.45565032958984,0.0,0.0
57.0,121.0,0.7,70.91473388671875,79.45565032958984,0.0,0.0
57.0,121.0,1.0,70.91473388671875,79.45565032958984,0.0,0.0
57.0,127.0,0.1,70.8626708984375,79.35375213623047,0.0,0.0
57.0,127.0,0.3,70.8626708984375,79.35375213623047,0.0,0.0
57.0,127.0,0.7,70.8626708984375,79.35375213623047,0.0,0.0
57.0,127.0,1.0,70.8626708984375,79.35375213623047,0.0,0.0
58.0,1.0,0.1,21.74042510986328,47.637508392333984,0.0,0.0
58.0,1.0,0.3,21.74042510986328,47.637508392333984,0.0,0.0
58.0,1.0,0.7,21.74042510986328,47.637508392333984,0.0,0.0
58.0,1.0,1.0,21.74042510986328,47.637508392333984,0.0,0.0
58.0,9.0,0.1,21.897857666015625,47.41693878173828,0.0,0.0
58.0,9.0,0.3,21.897857666015625,47.41693878173828,0.0,0.0
58.0,9.0,0.7,21.897857666015625,47.41693878173828,0.0,0.0
58.0,9.0,1.0,21.897857666015625,47.41693878173828,0.0,0.0
58.0,17.0,0.1,18.641456604003906,52.24186325073242,0.0,0.0
58.0,17.0,0.3,18.641456604003906,52.24186325073242,0.0,0.0
58.0,17.0,0.7,18.641456604003906,52.24186325073242,0.0,0.0
58.0,17.0,1.0,18.641456604003906,52.24186325073242,0.0,0.0
58.0,25.0,0.1,26.99034881591797,56.40986633300781,0.0,0.0
58.0,25.0,0.3,26.99034881591797,56.40986633300781,0.0,0.0
58.0,25.0,0.7,26.99034881591797,56.40986633300781,0.0,0.0
58.0,25.0,1.0,26.99034881591797,56.40986633300781,0.0,0.0
58.0,33.0,0.1,23.090911865234375,59.642520904541016,0.0,0.0
58.0,33.0,0.3,23.090911865234375,59.642520904541016,0.0,0.0
58.0,33.0,0.7,23.090911865234375,59.642520904541016,0.0,0.0
58.0,33.0,1.0,23.090911865234375,59.642520904541016,0.0,0.0
58.0,41.0,0.1,26.715560913085938,61.8035774230957,0.0,0.0
58.0,41.0,0.3,26.715560913085938,61.8035774230957,0.0,0.0
58.0,41.0,0.7,26.715560913085938,61.8035774230957,0.0,0.0
58.0,41.0,1.0,26.715560913085938,61.8035774230957,0.0,0.0
58.0,49.0,0.1,22.04144287109375,63.59090805053711,0.0,0.0
58.0,49.0,0.3,22.04144287109375,63.59090805053711,0.0,0.0
58.0,49.0,0.7,22.04144287109375,63.59090805053711,0.0,0.0
58.0,49.0,1.0,22.04144287109375,63.59090805053711,0.0,0.0
58.0,57.0,0.1,25.004531860351562,65.98633575439453,0.0,0.0
58.0,57.0,0.3,25.004531860351562,65.98633575439453,0.0,0.0
58.0,57.0,0.7,25.004531860351562,65.98633575439453,0.0,0.0
58.0,57.0,1.0,25.004531860351562,65.98633575439453,0.0,0.0
58.0,65.0,0.1,41.20211410522461,68.34291076660156,0.0,0.0
58.0,65.0,0.3,41.20211410522461,68.34291076660156,0.0,0.0
58.0,65.0,0.7,41.20211410522461,68.34291076660156,0.0,0.0
58.0,65.0,1.0,41.20211410522461,68.34291076660156,0.0,0.0
58.0,73.0,0.1,60.071773529052734,70.65669250488281,0.0,0.0
58.0,73.0,0.3,60.071773529052734,70.65669250488281,0.0,0.0
58.0,73.0,0.7,60.071773529052734,70.65669250488281,0.0,0.0
58.0,73.0,1.0,60.071773529052734,70.65669250488281,0.0,0.0
58.0,81.0,0.1,63.015628814697266,73.24140930175781,0.0,0.0
58.0,81.0,0.3,63.015628814697266,73.24140930175781,0.0,0.0
58.0,81.0,0.7,63.015628814697266,73.24140930175781,0.0,0.0
58.0,81.0,1.0,63.015628814697266,73.24140930175781,0.0,0.0
58.0,89.0,0.1,64.66464233398438,75.30706024169922,0.0,0.0
58.0,89.0,0.3,64.66464233398438,75.30706024169922,0.0,0.0
58.0,89.0,0.7,64.66464233398438,75.30706024169922,0.0,0.0
58.0,89.0,1.0,64.66464233398438,75.30706024169922,0.0,0.0
58.0,97.0,0.1,65.63639831542969,77.98927307128906,0.0,0.0
58.0,97.0,0.3,65.63639831542969,77.98927307128906,0.0,0.0
58.0,97.0,0.7,65.63639831542969,77.98927307128906,0.0,0.0
58.0,97.0,1.0,65.63639831542969,77.98927307128906,0.0,0.0
58.0,105.0,0.1,65.57398986816406,81.30093383789062,0.0,0.0
58.0,105.0,0.3,65.57398986816406,81.30093383789062,0.0,0.0
58.0,105.0,0.7,65.57398986816406,81.30093383789062,0.0,0.0
58.0,105.0,1.0,65.57398986816406,81.30093383789062,0.0,0.0
58.0,113.0,0.1,65.52328491210938,81.10623931884766,0.0,0.0
58.0,113.0,0.3,65.52328491210938,81.10623931884766,0.0,0.0
58.0,113.0,0.7,65.52328491210938,81.10623931884766,0.0,0.0
58.0,113.0,1.0,65.52328491210938,81.10623931884766,0.0,0.0
58.0,121.0,0.1,67.12057495117188,81.06269836425781,0.0,0.0
58.0,121.0,0.3,67.12057495117188,81.06269836425781,0.0,0.0
58.0,121.0,0.7,67.12057495117188,81.06269836425781,0.0,0.0
58.0,121.0,1.0,67.12057495117188,81.06269836425781,0.0,0.0
58.0,127.0,0.1,66.84716033935547,81.04110717773438,0.0,0.0
58.0,127.0,0.3,66.84716033935547,81.04110717773438,0.0,0.0
58.0,127.0,0.7,66.84716033935547,81.04110717773438,0.0,0.0
58.0,127.0,1.0,66.84716033935547,81.04110717773438,0.0,0.0
59.0,1.0,0.1,31.46700668334961,45.284400939941406,0.0,0.0
59.0,1.0,0.3,31.46700668334961,45.284400939941406,0.0,0.0
59.0,1.0,0.7,31.46700668334961,45.284400939941406,0.0,0.0
59.0,1.0,1.0,31.46700668334961,45.284400939941406,0.0,0.0
59.0,9.0,0.1,19.967727661132812,45.239501953125,0.0,0.0
59.0,9.0,0.3,19.967727661132812,45.239501953125,0.0,0.0
59.0,9.0,0.7,19.967727661132812,45.239501953125,0.0,0.0
59.0,9.0,1.0,19.967727661132812,45.239501953125,0.0,0.0
59.0,17.0,0.1,23.208641052246094,49.52666091918945,0.0,0.0
59.0,17.0,0.3,23.208641052246094,49.52666091918945,0.0,0.0
59.0,17.0,0.7,23.208641052246094,49.52666091918945,0.0,0.0
59.0,17.0,1.0,23.208641052246094,49.52666091918945,0.0,0.0
59.0,25.0,0.1,24.20867919921875,53.16510772705078,0.0,0.0
59.0,25.0,0.3,24.20867919921875,53.16510772705078,0.0,0.0
59.0,25.0,0.7,24.20867919921875,53.16510772705078,0.0,0.0
59.0,25.0,1.0,24.20867919921875,53.16510772705078,0.0,0.0
59.0,33.0,0.1,22.895347595214844,55.99632263183594,0.0,0.0
59.0,33.0,0.3,22.895347595214844,55.99632263183594,0.0,0.0
59.0,33.0,0.7,22.895347595214844,55.99632263183594,0.0,0.0
59.0,33.0,1.0,22.895347595214844,55.99632263183594,0.0,0.0
59.0,41.0,0.1,44.39617156982422,58.114768981933594,0.0,0.0
59.0,41.0,0.3,44.39617156982422,58.114768981933594,0.0,0.0
59.0,41.0,0.7,44.39617156982422,58.114768981933594,0.0,0.0
59.0,41.0,1.0,44.39617156982422,58.114768981933594,0.0,0.0
59.0,49.0,0.1,51.51722717285156,61.06056213378906,0.0,0.0
59.0,49.0,0.3,51.51722717285156,61.06056213378906,0.0,0.0
59.0,49.0,0.7,51.51722717285156,61.06056213378906,0.0,0.0
59.0,49.0,1.0,51.51722717285156,61.06056213378906,0.0,0.0
59.0,57.0,0.1,55.087890625,64.10990905761719,0.0,0.0
59.0,57.0,0.3,55.087890625,64.10990905761719,0.0,0.0
59.0,57.0,0.7,55.087890625,64.10990905761719,0.0,0.0
59.0,57.0,1.0,55.087890625,64.10990905761719,0.0,0.0
59.0,65.0,0.1,57.6328010559082,66.72029113769531,0.0,0.0
59.0,65.0,0.3,57.6328010559082,66.72029113769531,0.0,0.0
59.0,65.0,0.7,57.6328010559082,66.72029113769531,0.0,0.0
59.0,65.0,1.0,57.6328010559082,66.72029113769531,0.0,0.0
59.0,73.0,0.1,59.46805953979492,69.39714050292969,0.0,0.0
59.0,73.0,0.3,59.46805953979492,69.39714050292969,0.0,0.0
59.0,73.0,0.7,59.46805953979492,69.39714050292969,0.0,0.0
59.0,73.0,1.0,59.46805953979492,69.39714050292969,0.0,0.0
59.0,81.0,0.1,61.61787796020508,71.76351165771484,0.0,0.0
59.0,81.0,0.3,61.61787796020508,71.76351165771484,0.0,0.0
59.0,81.0,0.7,61.61787796020508,71.76351165771484,0.0,0.0
59.0,81.0,1.0,61.61787796020508,71.76351165771484,0.0,0.0
59.0,89.0,0.1,62.767601013183594,73.81690979003906,0.0,0.0
59.0,89.0,0.3,62.767601013183594,73.81690979003906,0.0,0.0
59.0,89.0,0.7,62.767601013183594,73.81690979003906,0.0,0.0
59.0,89.0,1.0,62.767601013183594,73.81690979003906,0.0,0.0
59.0,97.0,0.1,65.05378723144531,76.41027069091797,0.0,0.0
59.0,97.0,0.3,65.05378723144531,76.41027069091797,0.0,0.0
59.0,97.0,0.7,65.05378723144531,76.41027069091797,0.0,0.0
59.0,97.0,1.0,65.05378723144531,76.41027069091797,0.0,0.0
59.0,105.0,0.1,64.99966430664062,79.58779907226562,0.0,0.0
59.0,105.0,0.3,64.99966430664062,79.58779907226562,0.0,0.0
59.0,105.0,0.7,64.99966430664062,79.58779907226562,0.0,0.0
59.0,105.0,1.0,64.99966430664062,79.58779907226562,0.0,0.0
59.0,113.0,0.1,64.53523254394531,80.33934020996094,0.0,0.0
59.0,113.0,0.3,64.53523254394531,80.33934020996094,0.0,0.0
59.0,113.0,0.7,64.53523254394531,80.33934020996094,0.0,0.0
59.0,113.0,1.0,64.53523254394531,80.33934020996094,0.0,0.0
59.0,121.0,0.1,64.69689178466797,80.27383422851562,0.0,0.0
59.0,121.0,0.3,64.69689178466797,80.27383422851562,0.0,0.0
59.0,121.0,0.7,64.69689178466797,80.27383422851562,0.0,0.0
59.0,121.0,1.0,64.69689178466797,80.27383422851562,0.0,0.0
59.0,127.0,0.1,64.6250228881836,80.104248046875,0.0,0.0
59.0,127.0,0.3,64.6250228881836,80.104248046875,0.0,0.0
59.0,127.0,0.7,64.6250228881836,80.104248046875,0.0,0.0
59.0,127.0,1.0,64.6250228881836,80.104248046875,0.0,0.0
60.0,1.0,0.1,50.16529083251953,44.19123077392578,0.0,0.0
60.0,1.0,0.3,50.16529083251953,44.19123077392578,0.0,0.0
60.0,1.0,0.7,50.16529083251953,44.19123077392578,0.0,0.0
60.0,1.0,1.0,50.16529083251953,44.19123077392578,0.0,0.0
60.0,9.0,0.1,23.886985778808594,44.297813415527344,0.0,0.0
60.0,9.0,0.3,23.886985778808594,44.297813415527344,0.0,0.0
60.0,9.0,0.7,23.886985778808594,44.297813415527344,0.0,0.0
60.0,9.0,1.0,23.886985778808594,44.297813415527344,0.0,0.0
60.0,17.0,0.1,30.037994384765625,47.39352035522461,0.0,0.0
60.0,17.0,0.3,30.037994384765625,47.39352035522461,0.0,0.0
60.0,17.0,0.7,30.037994384765625,47.39352035522461,0.0,0.0
60.0,17.0,1.0,30.037994384765625,47.39352035522461,0.0,0.0
60.0,25.0,0.1,24.663368225097656,50.68266677856445,0.0,0.0
60.0,25.0,0.3,24.663368225097656,50.68266677856445,0.0,0.0
60.0,25.0,0.7,24.663368225097656,50.68266677856445,0.0,0.0
60.0,25.0,1.0,24.663368225097656,50.68266677856445,0.0,0.0
60.0,33.0,0.1,23.10296630859375,53.04990768432617,0.0,0.0
60.0,33.0,0.3,23.10296630859375,53.04990768432617,0.0,0.0
60.0,33.0,0.7,23.10296630859375,53.04990768432617,0.0,0.0
60.0,33.0,1.0,23.10296630859375,53.04990768432617,0.0,0.0
60.0,41.0,0.1,26.383392333984375,55.7586669921875,0.0,0.0
60.0,41.0,0.3,26.383392333984375,55.7586669921875,0.0,0.0
60.0,41.0,0.7,26.383392333984375,55.7586669921875,0.0,0.0
60.0,41.0,1.0,26.383392333984375,55.7586669921875,0.0,0.0
60.0,49.0,0.1,25.062469482421875,58.405635833740234,0.0,0.0
60.0,49.0,0.3,25.062469482421875,58.405635833740234,0.0,0.0
60.0,49.0,0.7,25.062469482421875,58.405635833740234,0.0,0.0
60.0,49.0,1.0,25.062469482421875,58.405635833740234,0.0,0.0
60.0,57.0,0.1,57.46204376220703,61.209590911865234,0.0,0.0
60.0,57.0,0.3,57.46204376220703,61.209590911865234,0.0,0.0
60.0,57.0,0.7,57.46204376220703,61.209590911865234,0.0,0.0
60.0,57.0,1.0,57.46204376220703,61.209590911865234,0.0,0.0
60.0,65.0,0.1,60.004329681396484,63.670650482177734,0.0,0.0
60.0,65.0,0.3,60.004329681396484,63.670650482177734,0.0,0.0
60.0,65.0,0.7,60.004329681396484,63.670650482177734,0.0,0.0
60.0,65.0,1.0,60.004329681396484,63.670650482177734,0.0,0.0
60.0,73.0,0.1,62.06544494628906,65.20750427246094,0.0,0.0
60.0,73.0,0.3,62.06544494628906,65.20750427246094,0.0,0.0
60.0,73.0,0.7,62.06544494628906,65.20750427246094,0.0,0.0
60.0,73.0,1.0,62.06544494628906,65.20750427246094,0.0,0.0
60.0,81.0,0.1,64.04139709472656,68.73551940917969,0.0,0.0
60.0,81.0,0.3,64.04139709472656,68.73551940917969,0.0,0.0
60.0,81.0,0.7,64.04139709472656,68.73551940917969,0.0,0.0
60.0,81.0,1.0,64.04139709472656,68.73551940917969,0.0,0.0
60.0,89.0,0.1,65.50375366210938,69.77000427246094,0.0,0.0
60.0,89.0,0.3,65.50375366210938,69.77000427246094,0.0,0.0
60.0,89.0,0.7,65.50375366210938,69.77000427246094,0.0,0.0
60.0,89.0,1.0,65.50375366210938,69.77000427246094,0.0,0.0
60.0,97.0,0.1,66.29193115234375,72.37459564208984,0.0,0.0
60.0,97.0,0.3,66.29193115234375,72.37459564208984,0.0,0.0
60.0,97.0,0.7,66.29193115234375,72.37459564208984,0.0,0.0
60.0,97.0,1.0,66.29193115234375,72.37459564208984,0.0,0.0
60.0,105.0,0.1,66.226806640625,75.73588562011719,0.0,0.0
60.0,105.0,0.3,66.226806640625,75.73588562011719,0.0,0.0
60.0,105.0,0.7,66.226806640625,75.73588562011719,0.0,0.0
60.0,105.0,1.0,66.226806640625,75.73588562011719,0.0,0.0
60.0,113.0,0.1,66.13314056396484,26.99500274658203,0.0,0.0
60.0,113.0,0.3,66.13314056396484,26.99500274658203,0.0,0.0
60.0,113.0,0.7,66.13314056396484,26.99500274658203,0.0,0.0
60.0,113.0,1.0,66.13314056396484,26.99500274658203,0.0,0.0
60.0,121.0,0.1,66.07733917236328,25.668960571289062,0.0,0.0
60.0,121.0,0.3,66.07733917236328,25.668960571289062,0.0,0.0
60.0,121.0,0.7,66.07733917236328,25.668960571289062,0.0,0.0
60.0,121.0,1.0,66.07733917236328,25.668960571289062,0.0,0.0
60.0,127.0,0.1,66.04126739501953,23.953903198242188,0.0,0.0
60.0,127.0,0.3,66.04126739501953,23.953903198242188,0.0,0.0
60.0,127.0,0.7,66.04126739501953,23.953903198242188,0.0,0.0
60.0,127.0,1.0,66.04126739501953,23.953903198242188,0.0,0.0
61.0,1.0,0.1,25.31293487548828,35.078880310058594,0.0,0.0
61.0,1.0,0.3,25.31293487548828,35.078880310058594,0.0,0.0
61.0,1.0,0.7,25.31293487548828,35.078880310058594,0.0,0.0
61.0,1.0,1.0,25.31293487548828,35.078880310058594,0.0,0.0
61.0,9.0,0.1,25.526840209960938,35.11217498779297,0.0,0.0
61.0,9.0,0.3,25.526840209960938,35.11217498779297,0.0,0.0
61.0,9.0,0.7,25.526840209960938,35.11217498779297,0.0,0.0
61.0,9.0,1.0,25.526840209960938,35.11217498779297,0.0,0.0
61.0,17.0,0.1,39.584632873535156,37.67323303222656,0.0,0.0
61.0,17.0,0.3,39.584632873535156,37.67323303222656,0.0,0.0
61.0,17.0,0.7,39.584632873535156,37.67323303222656,0.0,0.0
61.0,17.0,1.0,39.584632873535156,37.67323303222656,0.0,0.0
61.0,25.0,0.1,24.04045867919922,43.14223098754883,0.0,0.0
61.0,25.0,0.3,24.04045867919922,43.14223098754883,0.0,0.0
61.0,25.0,0.7,24.04045867919922,43.14223098754883,0.0,0.0
61.0,25.0,1.0,24.04045867919922,43.14223098754883,0.0,0.0
61.0,33.0,0.1,29.82573699951172,46.09153747558594,0.0,0.0
61.0,33.0,0.3,29.82573699951172,46.09153747558594,0.0,0.0
61.0,33.0,0.7,29.82573699951172,46.09153747558594,0.0,0.0
61.0,33.0,1.0,29.82573699951172,46.09153747558594,0.0,0.0
61.0,41.0,0.1,37.96228790283203,51.01453399658203,0.0,0.0
61.0,41.0,0.3,37.96228790283203,51.01453399658203,0.0,0.0
61.0,41.0,0.7,37.96228790283203,51.01453399658203,0.0,0.0
61.0,41.0,1.0,37.96228790283203,51.01453399658203,0.0,0.0
61.0,49.0,0.1,56.74834442138672,54.74283981323242,0.0,0.0
61.0,49.0,0.3,56.74834442138672,54.74283981323242,0.0,0.0
61.0,49.0,0.7,56.74834442138672,54.74283981323242,0.0,0.0
61.0,49.0,1.0,56.74834442138672,54.74283981323242,0.0,0.0
61.0,57.0,0.1,60.52891540527344,58.029170989990234,0.0,0.0
61.0,57.0,0.3,60.52891540527344,58.029170989990234,0.0,0.0
61.0,57.0,0.7,60.52891540527344,58.029170989990234,0.0,0.0
61.0,57.0,1.0,60.52891540527344,58.029170989990234,0.0,0.0
61.0,65.0,0.1,62.602237701416016,61.1622314453125,0.0,0.0
61.0,65.0,0.3,62.602237701416016,61.1622314453125,0.0,0.0
61.0,65.0,0.7,62.602237701416016,61.1622314453125,0.0,0.0
61.0,65.0,1.0,62.602237701416016,61.1622314453125,0.0,0.0
61.0,73.0,0.1,64.42598724365234,63.02629852294922,0.0,0.0
61.0,73.0,0.3,64.42598724365234,63.02629852294922,0.0,0.0
61.0,73.0,0.7,64.42598724365234,63.02629852294922,0.0,0.0
61.0,73.0,1.0,64.42598724365234,63.02629852294922,0.0,0.0
61.0,81.0,0.1,66.6620101928711,66.44182586669922,0.0,0.0
61.0,81.0,0.3,66.6620101928711,66.44182586669922,0.0,0.0
61.0,81.0,0.7,66.6620101928711,66.44182586669922,0.0,0.0
61.0,81.0,1.0,66.6620101928711,66.44182586669922,0.0,0.0
61.0,89.0,0.1,68.38322448730469,68.98475646972656,0.0,0.0
61.0,89.0,0.3,68.38322448730469,68.98475646972656,0.0,0.0
61.0,89.0,0.7,68.38322448730469,68.98475646972656,0.0,0.0
61.0,89.0,1.0,68.38322448730469,68.98475646972656,0.0,0.0
61.0,97.0,0.1,69.76846313476562,71.56239318847656,0.0,0.0
61.0,97.0,0.3,69.76846313476562,71.56239318847656,0.0,0.0
61.0,97.0,0.7,69.76846313476562,71.56239318847656,0.0,0.0
61.0,97.0,1.0,69.76846313476562,71.56239318847656,0.0,0.0
61.0,105.0,0.1,69.94529724121094,75.58157348632812,0.0,0.0
61.0,105.0,0.3,69.94529724121094,75.58157348632812,0.0,0.0
61.0,105.0,0.7,69.94529724121094,75.58157348632812,0.0,0.0
61.0,105.0,1.0,69.94529724121094,75.58157348632812,0.0,0.0
61.0,113.0,0.1,69.85945129394531,75.78484344482422,0.0,0.0
61.0,113.0,0.3,69.85945129394531,75.78484344482422,0.0,0.0
61.0,113.0,0.7,69.85945129394531,75.78484344482422,0.0,0.0
61.0,113.0,1.0,69.85945129394531,75.78484344482422,0.0,0.0
61.0,121.0,0.1,69.81623077392578,75.7592544555664,0.0,0.0
61.0,121.0,0.3,69.81623077392578,75.7592544555664,0.0,0.0
61.0,121.0,0.7,69.81623077392578,75.7592544555664,0.0,0.0
61.0,121.0,1.0,69.81623077392578,75.7592544555664,0.0,0.0
61.0,127.0,0.1,69.7724609375,75.68431854248047,0.0,0.0
61.0,127.0,0.3,69.7724609375,75.68431854248047,0.0,0.0
61.0,127.0,0.7,69.7724609375,75.68431854248047,0.0,0.0
61.0,127.0,1.0,69.7724609375,75.68431854248047,0.0,0.0
62.0,1.0,0.1,44.78115463256836,30.287094116210938,0.0,0.0
62.0,1.0,0.3,44.78115463256836,30.287094116210938,0.0,0.0
62.0,1.0,0.7,44.78115463256836,30.287094116210938,0.0,0.0
62.0,1.0,1.0,44.78115463256836,30.287094116210938,0.0,0.0
62.0,9.0,0.1,16.62273406982422,30.141693115234375,0.0,0.0
62.0,9.0,0.3,16.62273406982422,30.141693115234375,0.0,0.0
62.0,9.0,0.7,16.62273406982422,30.141693115234375,0.0,0.0
62.0,9.0,1.0,16.62273406982422,30.141693115234375,0.0,0.0
62.0,17.0,0.1,21.55597686767578,35.277435302734375,0.0,0.0
62.0,17.0,0.3,21.55597686767578,35.277435302734375,0.0,0.0
62.0,17.0,0.7,21.55597686767578,35.277435302734375,0.0,0.0
62.0,17.0,1.0,21.55597686767578,35.277435302734375,0.0,0.0
62.0,25.0,0.1,19.745651245117188,41.959800720214844,0.0,0.0
62.0,25.0,0.3,19.745651245117188,41.959800720214844,0.0,0.0
62.0,25.0,0.7,19.745651245117188,41.959800720214844,0.0,0.0
62.0,25.0,1.0,19.745651245117188,41.959800720214844,0.0,0.0
62.0,33.0,0.1,23.151824951171875,45.7958869934082,0.0,0.0
62.0,33.0,0.3,23.151824951171875,45.7958869934082,0.0,0.0
62.0,33.0,0.7,23.151824951171875,45.7958869934082,0.0,0.0
62.0,33.0,1.0,23.151824951171875,45.7958869934082,0.0,0.0
62.0,41.0,0.1,50.089725494384766,49.65840148925781,0.0,0.0
62.0,41.0,0.3,50.089725494384766,49.65840148925781,0.0,0.0
62.0,41.0,0.7,50.089725494384766,49.65840148925781,0.0,0.0
62.0,41.0,1.0,50.089725494384766,49.65840148925781,0.0,0.0
62.0,49.0,0.1,22.030479431152344,52.91706466674805,0.0,0.0
62.0,49.0,0.3,22.030479431152344,52.91706466674805,0.0,0.0
62.0,49.0,0.7,22.030479431152344,52.91706466674805,0.0,0.0
62.0,49.0,1.0,22.030479431152344,52.91706466674805,0.0,0.0
62.0,57.0,0.1,57.35198211669922,56.642112731933594,0.0,0.0
62.0,57.0,0.3,57.35198211669922,56.642112731933594,0.0,0.0
62.0,57.0,0.7,57.35198211669922,56.642112731933594,0.0,0.0
62.0,57.0,1.0,57.35198211669922,56.642112731933594,0.0,0.0
62.0,65.0,0.1,59.605770111083984,59.78538513183594,0.0,0.0
62.0,65.0,0.3,59.605770111083984,59.78538513183594,0.0,0.0
62.0,65.0,0.7,59.605770111083984,59.78538513183594,0.0,0.0
62.0,65.0,1.0,59.605770111083984,59.78538513183594,0.0,0.0
62.0,73.0,0.1,61.61581039428711,62.44695281982422,0.0,0.0
62.0,73.0,0.3,61.61581039428711,62.44695281982422,0.0,0.0
62.0,73.0,0.7,61.61581039428711,62.44695281982422,0.0,0.0
62.0,73.0,1.0,61.61581039428711,62.44695281982422,0.0,0.0
62.0,81.0,0.1,63.4433479309082,65.6916732788086,0.0,0.0
62.0,81.0,0.3,63.4433479309082,65.6916732788086,0.0,0.0
62.0,81.0,0.7,63.4433479309082,65.6916732788086,0.0,0.0
62.0,81.0,1.0,63.4433479309082,65.6916732788086,0.0,0.0
62.0,89.0,0.1,64.9862289428711,68.74087524414062,0.0,0.0
62.0,89.0,0.3,64.9862289428711,68.74087524414062,0.0,0.0
62.0,89.0,0.7,64.9862289428711,68.74087524414062,0.0,0.0
62.0,89.0,1.0,64.9862289428711,68.74087524414062,0.0,0.0
62.0,97.0,0.1,66.13088989257812,71.3681640625,0.0,0.0
62.0,97.0,0.3,66.13088989257812,71.3681640625,0.0,0.0
62.0,97.0,0.7,66.13088989257812,71.3681640625,0.0,0.0
62.0,97.0,1.0,66.13088989257812,71.3681640625,0.0,0.0
62.0,105.0,0.1,66.23860168457031,74.6350326538086,0.0,0.0
62.0,105.0,0.3,66.23860168457031,74.6350326538086,0.0,0.0
62.0,105.0,0.7,66.23860168457031,74.6350326538086,0.0,0.0
62.0,105.0,1.0,66.23860168457031,74.6350326538086,0.0,0.0
62.0,113.0,0.1,66.18974304199219,74.52455139160156,0.0,0.0
62.0,113.0,0.3,66.18974304199219,74.52455139160156,0.0,0.0
62.0,113.0,0.7,66.18974304199219,74.52455139160156,0.0,0.0
62.0,113.0,1.0,66.18974304199219,74.52455139160156,0.0,0.0
62.0,121.0,0.1,66.11836242675781,74.50236511230469,0.0,0.0
62.0,121.0,0.3,66.11836242675781,74.50236511230469,0.0,0.0
62.0,121.0,0.7,66.11836242675781,74.50236511230469,0.0,0.0
62.0,121.0,1.0,66.11836242675781,74.50236511230469,0.0,0.0
62.0,127.0,0.1,66.07833862304688,74.46795654296875,0.0,0.0
62.0,127.0,0.3,66.07833862304688,74.46795654296875,0.0,0.0
62.0,127.0,0.7,66.07833862304688,74.46795654296875,0.0,0.0
62.0,127.0,1.0,66.07833862304688,74.46795654296875,0.0,0.0
63.0,1.0,0.1,24.305259704589844,37.487091064453125,0.0,0.0
63.0,1.0,0.3,24.305259704589844,37.487091064453125,0.0,0.0
63.0,1.0,0.7,24.305259704589844,37.487091064453125,0.0,0.0
63.0,1.0,1.0,24.305259704589844,37.487091064453125,0.0,0.0
63.0,9.0,0.1,22.219940185546875,29.296768188476562,0.0,0.0
63.0,9.0,0.3,22.219940185546875,29.296768188476562,0.0,0.0
63.0,9.0,0.7,22.219940185546875,29.296768188476562,0.0,0.0
63.0,9.0,1.0,22.219940185546875,29.296768188476562,0.0,0.0
63.0,17.0,0.1,19.805419921875,43.91443634033203,0.0,0.0
63.0,17.0,0.3,19.805419921875,43.91443634033203,0.0,0.0
63.0,17.0,0.7,19.805419921875,43.91443634033203,0.0,0.0
63.0,17.0,1.0,19.805419921875,43.91443634033203,0.0,0.0
63.0,25.0,0.1,41.41584396362305,50.530792236328125,0.0,0.0
63.0,25.0,0.3,41.41584396362305,50.530792236328125,0.0,0.0
63.0,25.0,0.7,41.41584396362305,50.530792236328125,0.0,0.0
63.0,25.0,1.0,41.41584396362305,50.530792236328125,0.0,0.0
63.0,33.0,0.1,31.812118530273438,53.56393814086914,0.0,0.0
63.0,33.0,0.3,31.812118530273438,53.56393814086914,0.0,0.0
63.0,33.0,0.7,31.812118530273438,53.56393814086914,0.0,0.0
63.0,33.0,1.0,31.812118530273438,53.56393814086914,0.0,0.0
63.0,41.0,0.1,59.22663497924805,56.54141616821289,0.0,0.0
63.0,41.0,0.3,59.22663497924805,56.54141616821289,0.0,0.0
63.0,41.0,0.7,59.22663497924805,56.54141616821289,0.0,0.0
63.0,41.0,1.0,59.22663497924805,56.54141616821289,0.0,0.0
63.0,49.0,0.1,60.807498931884766,59.46256637573242,0.0,0.0
63.0,49.0,0.3,60.807498931884766,59.46256637573242,0.0,0.0
63.0,49.0,0.7,60.807498931884766,59.46256637573242,0.0,0.0
63.0,49.0,1.0,60.807498931884766,59.46256637573242,0.0,0.0
63.0,57.0,0.1,62.8842887878418,62.000343322753906,0.0,0.0
63.0,57.0,0.3,62.8842887878418,62.000343322753906,0.0,0.0
63.0,57.0,0.7,62.8842887878418,62.000343322753906,0.0,0.0
63.0,57.0,1.0,62.8842887878418,62.000343322753906,0.0,0.0
63.0,65.0,0.1,65.01010131835938,64.3724365234375,0.0,0.0
63.0,65.0,0.3,65.01010131835938,64.3724365234375,0.0,0.0
63.0,65.0,0.7,65.01010131835938,64.3724365234375,0.0,0.0
63.0,65.0,1.0,65.01010131835938,64.3724365234375,0.0,0.0
63.0,73.0,0.1,66.80186462402344,66.61822509765625,0.0,0.0
63.0,73.0,0.3,66.80186462402344,66.61822509765625,0.0,0.0
63.0,73.0,0.7,66.80186462402344,66.61822509765625,0.0,0.0
63.0,73.0,1.0,66.80186462402344,66.61822509765625,0.0,0.0
63.0,81.0,0.1,68.68177795410156,68.80094909667969,0.0,0.0
63.0,81.0,0.3,68.68177795410156,68.80094909667969,0.0,0.0
63.0,81.0,0.7,68.68177795410156,68.80094909667969,0.0,0.0
63.0,81.0,1.0,68.68177795410156,68.80094909667969,0.0,0.0
63.0,89.0,0.1,70.12957763671875,71.33131408691406,0.0,0.0
63.0,89.0,0.3,70.12957763671875,71.33131408691406,0.0,0.0
63.0,89.0,0.7,70.12957763671875,71.33131408691406,0.0,0.0
63.0,89.0,1.0,70.12957763671875,71.33131408691406,0.0,0.0
63.0,97.0,0.1,71.43474578857422,73.44851684570312,0.0,0.0
63.0,97.0,0.3,71.43474578857422,73.44851684570312,0.0,0.0
63.0,97.0,0.7,71.43474578857422,73.44851684570312,0.0,0.0
63.0,97.0,1.0,71.43474578857422,73.44851684570312,0.0,0.0
63.0,105.0,0.1,71.79388427734375,76.10301208496094,0.0,0.0
63.0,105.0,0.3,71.79388427734375,76.10301208496094,0.0,0.0
63.0,105.0,0.7,71.79388427734375,76.10301208496094,0.0,0.0
63.0,105.0,1.0,71.79388427734375,76.10301208496094,0.0,0.0
63.0,113.0,0.1,71.98609161376953,77.88130187988281,0.0,0.0
63.0,113.0,0.3,71.98609161376953,77.88130187988281,0.0,0.0
63.0,113.0,0.7,71.98609161376953,77.88130187988281,0.0,0.0
63.0,113.0,1.0,71.98609161376953,77.88130187988281,0.0,0.0
63.0,121.0,0.1,71.997802734375,77.8331298828125,0.0,0.0
63.0,121.0,0.3,71.997802734375,77.8331298828125,0.0,0.0
63.0,121.0,0.7,71.997802734375,77.8331298828125,0.0,0.0
63.0,121.0,1.0,71.997802734375,77.8331298828125,0.0,0.0
63.0,127.0,0.1,71.90584564208984,77.77498626708984,0.0,0.0
63.0,127.0,0.3,71.90584564208984,77.77498626708984,0.0,0.0
63.0,127.0,0.7,71.90584564208984,77.77498626708984,0.0,0.0
63.0,127.0,1.0,71.90584564208984,77.77498626708984,0.0,0.0
64.0,1.0,0.1,23.704139709472656,28.679054260253906,0.0,0.0
64.0,1.0,0.3,23.704139709472656,28.679054260253906,0.0,0.0
64.0,1.0,0.7,23.704139709472656,28.679054260253906,0.0,0.0
64.0,1.0,1.0,23.704139709472656,28.679054260253906,0.0,0.0
64.0,9.0,0.1,20.886459350585938,36.96989059448242,0.0,0.0
64.0,9.0,0.3,20.886459350585938,36.96989059448242,0.0,0.0
64.0,9.0,0.7,20.886459350585938,36.96989059448242,0.0,0.0
64.0,9.0,1.0,20.886459350585938,36.96989059448242,0.0,0.0
64.0,17.0,0.1,25.455810546875,48.39991760253906,0.0,0.0
64.0,17.0,0.3,25.455810546875,48.39991760253906,0.0,0.0
64.0,17.0,0.7,25.455810546875,48.39991760253906,0.0,0.0
64.0,17.0,1.0,25.455810546875,48.39991760253906,0.0,0.0
64.0,25.0,0.1,19.453826904296875,52.684688568115234,0.0,0.0
64.0,25.0,0.3,19.453826904296875,52.684688568115234,0.0,0.0
64.0,25.0,0.7,19.453826904296875,52.684688568115234,0.0,0.0
64.0,25.0,1.0,19.453826904296875,52.684688568115234,0.0,0.0
64.0,33.0,0.1,22.7935791015625,56.55113983154297,0.0,0.0
64.0,33.0,0.3,22.7935791015625,56.55113983154297,0.0,0.0
64.0,33.0,0.7,22.7935791015625,56.55113983154297,0.0,0.0
64.0,33.0,1.0,22.7935791015625,56.55113983154297,0.0,0.0
64.0,41.0,0.1,53.256248474121094,59.142330169677734,0.0,0.0
64.0,41.0,0.3,53.256248474121094,59.142330169677734,0.0,0.0
64.0,41.0,0.7,53.256248474121094,59.142330169677734,0.0,0.0
64.0,41.0,1.0,53.256248474121094,59.142330169677734,0.0,0.0
64.0,49.0,0.1,56.88996124267578,61.97256851196289,0.0,0.0
64.0,49.0,0.3,56.88996124267578,61.97256851196289,0.0,0.0
64.0,49.0,0.7,56.88996124267578,61.97256851196289,0.0,0.0
64.0,49.0,1.0,56.88996124267578,61.97256851196289,0.0,0.0
64.0,57.0,0.1,58.329750061035156,64.26126098632812,0.0,0.0
64.0,57.0,0.3,58.329750061035156,64.26126098632812,0.0,0.0
64.0,57.0,0.7,58.329750061035156,64.26126098632812,0.0,0.0
64.0,57.0,1.0,58.329750061035156,64.26126098632812,0.0,0.0
64.0,65.0,0.1,60.360328674316406,66.5511474609375,0.0,0.0
64.0,65.0,0.3,60.360328674316406,66.5511474609375,0.0,0.0
64.0,65.0,0.7,60.360328674316406,66.5511474609375,0.0,0.0
64.0,65.0,1.0,60.360328674316406,66.5511474609375,0.0,0.0
64.0,73.0,0.1,62.432647705078125,68.7086181640625,0.0,0.0
64.0,73.0,0.3,62.432647705078125,68.7086181640625,0.0,0.0
64.0,73.0,0.7,62.432647705078125,68.7086181640625,0.0,0.0
64.0,73.0,1.0,62.432647705078125,68.7086181640625,0.0,0.0
64.0,81.0,0.1,64.45143127441406,71.14704132080078,0.0,0.0
64.0,81.0,0.3,64.45143127441406,71.14704132080078,0.0,0.0
64.0,81.0,0.7,64.45143127441406,71.14704132080078,0.0,0.0
64.0,81.0,1.0,64.45143127441406,71.14704132080078,0.0,0.0
64.0,89.0,0.1,66.19255065917969,73.3568115234375,0.0,0.0
64.0,89.0,0.3,66.19255065917969,73.3568115234375,0.0,0.0
64.0,89.0,0.7,66.19255065917969,73.3568115234375,0.0,0.0
64.0,89.0,1.0,66.19255065917969,73.3568115234375,0.0,0.0
64.0,97.0,0.1,67.63960266113281,75.30603790283203,0.0,0.0
64.0,97.0,0.3,67.63960266113281,75.30603790283203,0.0,0.0
64.0,97.0,0.7,67.63960266113281,75.30603790283203,0.0,0.0
64.0,97.0,1.0,67.63960266113281,75.30603790283203,0.0,0.0
64.0,105.0,0.1,67.88671112060547,24.73889923095703,0.0,0.0
64.0,105.0,0.3,67.88671112060547,24.73889923095703,0.0,0.0
64.0,105.0,0.7,67.88671112060547,24.73889923095703,0.0,0.0
64.0,105.0,1.0,67.88671112060547,24.73889923095703,0.0,0.0
64.0,113.0,0.1,67.54365539550781,23.504791259765625,0.0,0.0
64.0,113.0,0.3,67.54365539550781,23.504791259765625,0.0,0.0
64.0,113.0,0.7,67.54365539550781,23.504791259765625,0.0,0.0
64.0,113.0,1.0,67.54365539550781,23.504791259765625,0.0,0.0
64.0,121.0,0.1,67.20584106445312,26.905853271484375,0.0,0.0
64.0,121.0,0.3,67.20584106445312,26.905853271484375,0.0,0.0
64.0,121.0,0.7,67.20584106445312,26.905853271484375,0.0,0.0
64.0,121.0,1.0,67.20584106445312,26.905853271484375,0.0,0.0
64.0,127.0,0.1,67.10249328613281,24.471214294433594,0.0,0.0
64.0,127.0,0.3,67.10249328613281,24.471214294433594,0.0,0.0
64.0,127.0,0.7,67.10249328613281,24.471214294433594,0.0,0.0
64.0,127.0,1.0,67.10249328613281,24.471214294433594,0.0,0.0
65.0,1.0,0.1,40.34959411621094,40.05310821533203,0.0,0.0
65.0,1.0,0.3,40.34959411621094,40.05310821533203,0.0,0.0
65.0,1.0,0.7,40.34959411621094,40.05310821533203,0.0,0.0
65.0,1.0,1.0,40.34959411621094,40.05310821533203,0.0,0.0
65.0,9.0,0.1,21.86650848388672,41.047767639160156,0.0,0.0
65.0,9.0,0.3,21.86650848388672,41.047767639160156,0.0,0.0
65.0,9.0,0.7,21.86650848388672,41.047767639160156,0.0,0.0
65.0,9.0,1.0,21.86650848388672,41.047767639160156,0.0,0.0
65.0,17.0,0.1,42.291683197021484,43.46006393432617,0.0,0.0
65.0,17.0,0.3,42.291683197021484,43.46006393432617,0.0,0.0
65.0,17.0,0.7,42.291683197021484,43.46006393432617,0.0,0.0
65.0,17.0,1.0,42.291683197021484,43.46006393432617,0.0,0.0
65.0,25.0,0.1,25.128128051757812,46.73757553100586,0.0,0.0
65.0,25.0,0.3,25.128128051757812,46.73757553100586,0.0,0.0
65.0,25.0,0.7,25.128128051757812,46.73757553100586,0.0,0.0
65.0,25.0,1.0,25.128128051757812,46.73757553100586,0.0,0.0
65.0,33.0,0.1,25.356155395507812,49.025169372558594,0.0,0.0
65.0,33.0,0.3,25.356155395507812,49.025169372558594,0.0,0.0
65.0,33.0,0.7,25.356155395507812,49.025169372558594,0.0,0.0
65.0,33.0,1.0,25.356155395507812,49.025169372558594,0.0,0.0
65.0,41.0,0.1,39.13345718383789,52.130950927734375,0.0,0.0
65.0,41.0,0.3,39.13345718383789,52.130950927734375,0.0,0.0
65.0,41.0,0.7,39.13345718383789,52.130950927734375,0.0,0.0
65.0,41.0,1.0,39.13345718383789,52.130950927734375,0.0,0.0
65.0,49.0,0.1,55.13496780395508,55.130821228027344,0.0,0.0
65.0,49.0,0.3,55.13496780395508,55.130821228027344,0.0,0.0
65.0,49.0,0.7,55.13496780395508,55.130821228027344,0.0,0.0
65.0,49.0,1.0,55.13496780395508,55.130821228027344,0.0,0.0
65.0,57.0,0.1,56.57866287231445,57.62580871582031,0.0,0.0
65.0,57.0,0.3,56.57866287231445,57.62580871582031,0.0,0.0
65.0,57.0,0.7,56.57866287231445,57.62580871582031,0.0,0.0
65.0,57.0,1.0,56.57866287231445,57.62580871582031,0.0,0.0
65.0,65.0,0.1,58.94854736328125,60.32610321044922,0.0,0.0
65.0,65.0,0.3,58.94854736328125,60.32610321044922,0.0,0.0
65.0,65.0,0.7,58.94854736328125,60.32610321044922,0.0,0.0
65.0,65.0,1.0,58.94854736328125,60.32610321044922,0.0,0.0
65.0,73.0,0.1,61.241981506347656,63.09917449951172,0.0,0.0
65.0,73.0,0.3,61.241981506347656,63.09917449951172,0.0,0.0
65.0,73.0,0.7,61.241981506347656,63.09917449951172,0.0,0.0
65.0,73.0,1.0,61.241981506347656,63.09917449951172,0.0,0.0
65.0,81.0,0.1,63.38420486450195,65.51504516601562,0.0,0.0
65.0,81.0,0.3,63.38420486450195,65.51504516601562,0.0,0.0
65.0,81.0,0.7,63.38420486450195,65.51504516601562,0.0,0.0
65.0,81.0,1.0,63.38420486450195,65.51504516601562,0.0,0.0
65.0,89.0,0.1,65.27006530761719,68.08431243896484,0.0,0.0
65.0,89.0,0.3,65.27006530761719,68.08431243896484,0.0,0.0
65.0,89.0,0.7,65.27006530761719,68.08431243896484,0.0,0.0
65.0,89.0,1.0,65.27006530761719,68.08431243896484,0.0,0.0
65.0,97.0,0.1,66.672119140625,71.74085998535156,0.0,0.0
65.0,97.0,0.3,66.672119140625,71.74085998535156,0.0,0.0
65.0,97.0,0.7,66.672119140625,71.74085998535156,0.0,0.0
65.0,97.0,1.0,66.672119140625,71.74085998535156,0.0,0.0
65.0,105.0,0.1,66.91581726074219,75.42451477050781,0.0,0.0
65.0,105.0,0.3,66.91581726074219,75.42451477050781,0.0,0.0
65.0,105.0,0.7,66.91581726074219,75.42451477050781,0.0,0.0
65.0,105.0,1.0,66.91581726074219,75.42451477050781,0.0,0.0
65.0,113.0,0.1,66.94441986083984,75.09375,0.0,0.0
65.0,113.0,0.3,66.94441986083984,75.09375,0.0,0.0
65.0,113.0,0.7,66.94441986083984,75.09375,0.0,0.0
65.0,113.0,1.0,66.94441986083984,75.09375,0.0,0.0
65.0,121.0,0.1,66.95599365234375,74.95165252685547,0.0,0.0
65.0,121.0,0.3,66.95599365234375,74.95165252685547,0.0,0.0
65.0,121.0,0.7,66.95599365234375,74.95165252685547,0.0,0.0
65.0,121.0,1.0,66.95599365234375,74.95165252685547,0.0,0.0
65.0,127.0,0.1,66.9385757446289,74.90220642089844,0.0,0.0
65.0,127.0,0.3,66.9385757446289,74.90220642089844,0.0,0.0
65.0,127.0,0.7,66.9385757446289,74.90220642089844,0.0,0.0
65.0,127.0,1.0,66.9385757446289,74.90220642089844,0.0,0.0
66.0,1.0,0.1,22.139122009277344,43.80828857421875,0.0,0.0
66.0,1.0,0.3,22.139122009277344,43.80828857421875,0.0,0.0
66.0,1.0,0.7,22.139122009277344,43.80828857421875,0.0,0.0
66.0,1.0,1.0,22.139122009277344,43.80828857421875,0.0,0.0
66.0,9.0,0.1,27.35973358154297,45.67263412475586,0.0,0.0
66.0,9.0,0.3,27.35973358154297,45.67263412475586,0.0,0.0
66.0,9.0,0.7,27.35973358154297,45.67263412475586,0.0,0.0
66.0,9.0,1.0,27.35973358154297,45.67263412475586,0.0,0.0
66.0,17.0,0.1,34.995906829833984,50.38798522949219,0.0,0.0
66.0,17.0,0.3,34.995906829833984,50.38798522949219,0.0,0.0
66.0,17.0,0.7,34.995906829833984,50.38798522949219,0.0,0.0
66.0,17.0,1.0,34.995906829833984,50.38798522949219,0.0,0.0
66.0,25.0,0.1,35.886207580566406,54.082759857177734,0.0,0.0
66.0,25.0,0.3,35.886207580566406,54.082759857177734,0.0,0.0
66.0,25.0,0.7,35.886207580566406,54.082759857177734,0.0,0.0
66.0,25.0,1.0,35.886207580566406,54.082759857177734,0.0,0.0
66.0,33.0,0.1,23.42400360107422,56.516807556152344,0.0,0.0
66.0,33.0,0.3,23.42400360107422,56.516807556152344,0.0,0.0
66.0,33.0,0.7,23.42400360107422,56.516807556152344,0.0,0.0
66.0,33.0,1.0,23.42400360107422,56.516807556152344,0.0,0.0
66.0,41.0,0.1,28.269935607910156,59.80952835083008,0.0,0.0
66.0,41.0,0.3,28.269935607910156,59.80952835083008,0.0,0.0
66.0,41.0,0.7,28.269935607910156,59.80952835083008,0.0,0.0
66.0,41.0,1.0,28.269935607910156,59.80952835083008,0.0,0.0
66.0,49.0,0.1,51.328765869140625,62.995147705078125,0.0,0.0
66.0,49.0,0.3,51.328765869140625,62.995147705078125,0.0,0.0
66.0,49.0,0.7,51.328765869140625,62.995147705078125,0.0,0.0
66.0,49.0,1.0,51.328765869140625,62.995147705078125,0.0,0.0
66.0,57.0,0.1,53.620384216308594,65.99874877929688,0.0,0.0
66.0,57.0,0.3,53.620384216308594,65.99874877929688,0.0,0.0
66.0,57.0,0.7,53.620384216308594,65.99874877929688,0.0,0.0
66.0,57.0,1.0,53.620384216308594,65.99874877929688,0.0,0.0
66.0,65.0,0.1,56.169349670410156,68.72238159179688,0.0,0.0
66.0,65.0,0.3,56.169349670410156,68.72238159179688,0.0,0.0
66.0,65.0,0.7,56.169349670410156,68.72238159179688,0.0,0.0
66.0,65.0,1.0,56.169349670410156,68.72238159179688,0.0,0.0
66.0,73.0,0.1,58.788795471191406,71.00790405273438,0.0,0.0
66.0,73.0,0.3,58.788795471191406,71.00790405273438,0.0,0.0
66.0,73.0,0.7,58.788795471191406,71.00790405273438,0.0,0.0
66.0,73.0,1.0,58.788795471191406,71.00790405273438,0.0,0.0
66.0,81.0,0.1,60.98694610595703,72.8607177734375,0.0,0.0
66.0,81.0,0.3,60.98694610595703,72.8607177734375,0.0,0.0
66.0,81.0,0.7,60.98694610595703,72.8607177734375,0.0,0.0
66.0,81.0,1.0,60.98694610595703,72.8607177734375,0.0,0.0
66.0,89.0,0.1,62.39302062988281,74.93890380859375,0.0,0.0
66.0,89.0,0.3,62.39302062988281,74.93890380859375,0.0,0.0
66.0,89.0,0.7,62.39302062988281,74.93890380859375,0.0,0.0
66.0,89.0,1.0,62.39302062988281,74.93890380859375,0.0,0.0
66.0,97.0,0.1,63.635536193847656,77.0017318725586,0.0,0.0
66.0,97.0,0.3,63.635536193847656,77.0017318725586,0.0,0.0
66.0,97.0,0.7,63.635536193847656,77.0017318725586,0.0,0.0
66.0,97.0,1.0,63.635536193847656,77.0017318725586,0.0,0.0
66.0,105.0,0.1,63.6185302734375,80.09241485595703,0.0,0.0
66.0,105.0,0.3,63.6185302734375,80.09241485595703,0.0,0.0
66.0,105.0,0.7,63.6185302734375,80.09241485595703,0.0,0.0
66.0,105.0,1.0,63.6185302734375,80.09241485595703,0.0,0.0
66.0,113.0,0.1,63.51188278198242,80.62222290039062,0.0,0.0
66.0,113.0,0.3,63.51188278198242,80.62222290039062,0.0,0.0
66.0,113.0,0.7,63.51188278198242,80.62222290039062,0.0,0.0
66.0,113.0,1.0,63.51188278198242,80.62222290039062,0.0,0.0
66.0,121.0,0.1,63.45101547241211,80.17094421386719,0.0,0.0
66.0,121.0,0.3,63.45101547241211,80.17094421386719,0.0,0.0
66.0,121.0,0.7,63.45101547241211,80.17094421386719,0.0,0.0
66.0,121.0,1.0,63.45101547241211,80.17094421386719,0.0,0.0
66.0,127.0,0.1,63.42527389526367,80.15129089355469,0.0,0.0
66.0,127.0,0.3,63.42527389526367,80.15129089355469,0.0,0.0
66.0,127.0,0.7,63.42527389526367,80.15129089355469,0.0,0.0
66.0,127.0,1.0,63.42527389526367,80.15129089355469,0.0,0.0
67.0,1.0,0.1,24.965965270996094,42.085548400878906,0.0,0.0
67.0,1.0,0.3,24.965965270996094,42.085548400878906,0.0,0.0
67.0,1.0,0.7,24.965965270996094,42.085548400878906,0.0,0.0
67.0,1.0,1.0,24.965965270996094,42.085548400878906,0.0,0.0
67.0,9.0,0.1,23.253585815429688,42.30398178100586,0.0,0.0
67.0,9.0,0.3,23.253585815429688,42.30398178100586,0.0,0.0
67.0,9.0,0.7,23.253585815429688,42.30398178100586,0.0,0.0
67.0,9.0,1.0,23.253585815429688,42.30398178100586,0.0,0.0
67.0,17.0,0.1,23.529823303222656,47.79671096801758,0.0,0.0
67.0,17.0,0.3,23.529823303222656,47.79671096801758,0.0,0.0
67.0,17.0,0.7,23.529823303222656,47.79671096801758,0.0,0.0
67.0,17.0,1.0,23.529823303222656,47.79671096801758,0.0,0.0
67.0,25.0,0.1,21.172683715820312,52.23890686035156,0.0,0.0
67.0,25.0,0.3,21.172683715820312,52.23890686035156,0.0,0.0
67.0,25.0,0.7,21.172683715820312,52.23890686035156,0.0,0.0
67.0,25.0,1.0,21.172683715820312,52.23890686035156,0.0,0.0
67.0,33.0,0.1,40.524845123291016,55.61559295654297,0.0,0.0
67.0,33.0,0.3,40.524845123291016,55.61559295654297,0.0,0.0
67.0,33.0,0.7,40.524845123291016,55.61559295654297,0.0,0.0
67.0,33.0,1.0,40.524845123291016,55.61559295654297,0.0,0.0
67.0,41.0,0.1,25.44202423095703,58.86355209350586,0.0,0.0
67.0,41.0,0.3,25.44202423095703,58.86355209350586,0.0,0.0
67.0,41.0,0.7,25.44202423095703,58.86355209350586,0.0,0.0
67.0,41.0,1.0,25.44202423095703,58.86355209350586,0.0,0.0
67.0,49.0,0.1,52.64739990234375,62.035362243652344,0.0,0.0
67.0,49.0,0.3,52.64739990234375,62.035362243652344,0.0,0.0
67.0,49.0,0.7,52.64739990234375,62.035362243652344,0.0,0.0
67.0,49.0,1.0,52.64739990234375,62.035362243652344,0.0,0.0
67.0,57.0,0.1,54.68050765991211,64.91743469238281,0.0,0.0
67.0,57.0,0.3,54.68050765991211,64.91743469238281,0.0,0.0
67.0,57.0,0.7,54.68050765991211,64.91743469238281,0.0,0.0
67.0,57.0,1.0,54.68050765991211,64.91743469238281,0.0,0.0
67.0,65.0,0.1,56.857574462890625,67.39261627197266,0.0,0.0
67.0,65.0,0.3,56.857574462890625,67.39261627197266,0.0,0.0
67.0,65.0,0.7,56.857574462890625,67.39261627197266,0.0,0.0
67.0,65.0,1.0,56.857574462890625,67.39261627197266,0.0,0.0
67.0,73.0,0.1,59.12163162231445,69.6806640625,0.0,0.0
67.0,73.0,0.3,59.12163162231445,69.6806640625,0.0,0.0
67.0,73.0,0.7,59.12163162231445,69.6806640625,0.0,0.0
67.0,73.0,1.0,59.12163162231445,69.6806640625,0.0,0.0
67.0,81.0,0.1,61.74534606933594,72.00009155273438,0.0,0.0
67.0,81.0,0.3,61.74534606933594,72.00009155273438,0.0,0.0
67.0,81.0,0.7,61.74534606933594,72.00009155273438,0.0,0.0
67.0,81.0,1.0,61.74534606933594,72.00009155273438,0.0,0.0
67.0,89.0,0.1,63.88562774658203,74.08537292480469,0.0,0.0
67.0,89.0,0.3,63.88562774658203,74.08537292480469,0.0,0.0
67.0,89.0,0.7,63.88562774658203,74.08537292480469,0.0,0.0
67.0,89.0,1.0,63.88562774658203,74.08537292480469,0.0,0.0
67.0,97.0,0.1,65.48631286621094,76.3145980834961,0.0,0.0
67.0,97.0,0.3,65.48631286621094,76.3145980834961,0.0,0.0
67.0,97.0,0.7,65.48631286621094,76.3145980834961,0.0,0.0
67.0,97.0,1.0,65.48631286621094,76.3145980834961,0.0,0.0
67.0,105.0,0.1,65.7204818725586,79.95892333984375,0.0,0.0
67.0,105.0,0.3,65.7204818725586,79.95892333984375,0.0,0.0
67.0,105.0,0.7,65.7204818725586,79.95892333984375,0.0,0.0
67.0,105.0,1.0,65.7204818725586,79.95892333984375,0.0,0.0
67.0,113.0,0.1,65.71332550048828,80.22265625,0.0,0.0
67.0,113.0,0.3,65.71332550048828,80.22265625,0.0,0.0
67.0,113.0,0.7,65.71332550048828,80.22265625,0.0,0.0
67.0,113.0,1.0,65.71332550048828,80.22265625,0.0,0.0
67.0,121.0,0.1,65.68179321289062,80.12618255615234,0.0,0.0
67.0,121.0,0.3,65.68179321289062,80.12618255615234,0.0,0.0
67.0,121.0,0.7,65.68179321289062,80.12618255615234,0.0,0.0
67.0,121.0,1.0,65.68179321289062,80.12618255615234,0.0,0.0
67.0,127.0,0.1,65.59831237792969,80.05809020996094,0.0,0.0
67.0,127.0,0.3,65.59831237792969,80.05809020996094,0.0,0.0
67.0,127.0,0.7,65.59831237792969,80.05809020996094,0.0,0.0
67.0,127.0,1.0,65.59831237792969,80.05809020996094,0.0,0.0
68.0,1.0,0.1,35.92810821533203,43.396095275878906,0.0,0.0
68.0,1.0,0.3,35.92810821533203,43.396095275878906,0.0,0.0
68.0,1.0,0.7,35.92810821533203,43.396095275878906,0.0,0.0
68.0,1.0,1.0,35.92810821533203,43.396095275878906,0.0,0.0
68.0,9.0,0.1,26.646163940429688,44.9434700012207,0.0,0.0
68.0,9.0,0.3,26.646163940429688,44.9434700012207,0.0,0.0
68.0,9.0,0.7,26.646163940429688,44.9434700012207,0.0,0.0
68.0,9.0,1.0,26.646163940429688,44.9434700012207,0.0,0.0
68.0,17.0,0.1,25.619834899902344,49.52342987060547,0.0,0.0
68.0,17.0,0.3,25.619834899902344,49.52342987060547,0.0,0.0
68.0,17.0,0.7,25.619834899902344,49.52342987060547,0.0,0.0
68.0,17.0,1.0,25.619834899902344,49.52342987060547,0.0,0.0
68.0,25.0,0.1,24.864501953125,52.79022979736328,0.0,0.0
68.0,25.0,0.3,24.864501953125,52.79022979736328,0.0,0.0
68.0,25.0,0.7,24.864501953125,52.79022979736328,0.0,0.0
68.0,25.0,1.0,24.864501953125,52.79022979736328,0.0,0.0
68.0,33.0,0.1,25.651702880859375,53.82938766479492,0.0,0.0
68.0,33.0,0.3,25.651702880859375,53.82938766479492,0.0,0.0
68.0,33.0,0.7,25.651702880859375,53.82938766479492,0.0,0.0
68.0,33.0,1.0,25.651702880859375,53.82938766479492,0.0,0.0
68.0,41.0,0.1,28.978195190429688,59.511024475097656,0.0,0.0
68.0,41.0,0.3,28.978195190429688,59.511024475097656,0.0,0.0
68.0,41.0,0.7,28.978195190429688,59.511024475097656,0.0,0.0
68.0,41.0,1.0,28.978195190429688,59.511024475097656,0.0,0.0
68.0,49.0,0.1,51.72041320800781,61.49879837036133,0.0,0.0
68.0,49.0,0.3,51.72041320800781,61.49879837036133,0.0,0.0
68.0,49.0,0.7,51.72041320800781,61.49879837036133,0.0,0.0
68.0,49.0,1.0,51.72041320800781,61.49879837036133,0.0,0.0
68.0,57.0,0.1,54.05953598022461,64.93452453613281,0.0,0.0
68.0,57.0,0.3,54.05953598022461,64.93452453613281,0.0,0.0
68.0,57.0,0.7,54.05953598022461,64.93452453613281,0.0,0.0
68.0,57.0,1.0,54.05953598022461,64.93452453613281,0.0,0.0
68.0,65.0,0.1,56.52520751953125,66.7599105834961,0.0,0.0
68.0,65.0,0.3,56.52520751953125,66.7599105834961,0.0,0.0
68.0,65.0,0.7,56.52520751953125,66.7599105834961,0.0,0.0
68.0,65.0,1.0,56.52520751953125,66.7599105834961,0.0,0.0
68.0,73.0,0.1,59.05144500732422,68.79679870605469,0.0,0.0
68.0,73.0,0.3,59.05144500732422,68.79679870605469,0.0,0.0
68.0,73.0,0.7,59.05144500732422,68.79679870605469,0.0,0.0
68.0,73.0,1.0,59.05144500732422,68.79679870605469,0.0,0.0
68.0,81.0,0.1,61.46432113647461,70.99641418457031,0.0,0.0
68.0,81.0,0.3,61.46432113647461,70.99641418457031,0.0,0.0
68.0,81.0,0.7,61.46432113647461,70.99641418457031,0.0,0.0
68.0,81.0,1.0,61.46432113647461,70.99641418457031,0.0,0.0
68.0,89.0,0.1,63.1888313293457,72.97924041748047,0.0,0.0
68.0,89.0,0.3,63.1888313293457,72.97924041748047,0.0,0.0
68.0,89.0,0.7,63.1888313293457,72.97924041748047,0.0,0.0
68.0,89.0,1.0,63.1888313293457,72.97924041748047,0.0,0.0
68.0,97.0,0.1,64.25713348388672,76.75763702392578,0.0,0.0
68.0,97.0,0.3,64.25713348388672,76.75763702392578,0.0,0.0
68.0,97.0,0.7,64.25713348388672,76.75763702392578,0.0,0.0
68.0,97.0,1.0,64.25713348388672,76.75763702392578,0.0,0.0
68.0,105.0,0.1,67.36711120605469,79.7966537475586,0.0,0.0
68.0,105.0,0.3,67.36711120605469,79.7966537475586,0.0,0.0
68.0,105.0,0.7,67.36711120605469,79.7966537475586,0.0,0.0
68.0,105.0,1.0,67.36711120605469,79.7966537475586,0.0,0.0
68.0,113.0,0.1,64.21879577636719,80.33704376220703,0.0,0.0
68.0,113.0,0.3,64.21879577636719,80.33704376220703,0.0,0.0
68.0,113.0,0.7,64.21879577636719,80.33704376220703,0.0,0.0
68.0,113.0,1.0,64.21879577636719,80.33704376220703,0.0,0.0
68.0,121.0,0.1,64.2149429321289,80.1888656616211,0.0,0.0
68.0,121.0,0.3,64.2149429321289,80.1888656616211,0.0,0.0
68.0,121.0,0.7,64.2149429321289,80.1888656616211,0.0,0.0
68.0,121.0,1.0,64.2149429321289,80.1888656616211,0.0,0.0
68.0,127.0,0.1,64.25550842285156,80.20586395263672,0.0,0.0
68.0,127.0,0.3,64.25550842285156,80.20586395263672,0.0,0.0
68.0,127.0,0.7,64.25550842285156,80.20586395263672,0.0,0.0
68.0,127.0,1.0,64.25550842285156,80.20586395263672,0.0,0.0
69.0,1.0,0.1,23.64244842529297,33.094486236572266,0.0,0.0
69.0,1.0,0.3,23.64244842529297,33.094486236572266,0.0,0.0
69.0,1.0,0.7,23.64244842529297,33.094486236572266,0.0,0.0
69.0,1.0,1.0,23.64244842529297,33.094486236572266,0.0,0.0
69.0,9.0,0.1,22.523361206054688,34.55278015136719,0.0,0.0
69.0,9.0,0.3,22.523361206054688,34.55278015136719,0.0,0.0
69.0,9.0,0.7,22.523361206054688,34.55278015136719,0.0,0.0
69.0,9.0,1.0,22.523361206054688,34.55278015136719,0.0,0.0
69.0,17.0,0.1,22.95989990234375,39.29990768432617,0.0,0.0
69.0,17.0,0.3,22.95989990234375,39.29990768432617,0.0,0.0
69.0,17.0,0.7,22.95989990234375,39.29990768432617,0.0,0.0
69.0,17.0,1.0,22.95989990234375,39.29990768432617,0.0,0.0
69.0,25.0,0.1,24.000953674316406,44.24772644042969,0.0,0.0
69.0,25.0,0.3,24.000953674316406,44.24772644042969,0.0,0.0
69.0,25.0,0.7,24.000953674316406,44.24772644042969,0.0,0.0
69.0,25.0,1.0,24.000953674316406,44.24772644042969,0.0,0.0
69.0,33.0,0.1,23.394752502441406,48.20986557006836,0.0,0.0
69.0,33.0,0.3,23.394752502441406,48.20986557006836,0.0,0.0
69.0,33.0,0.7,23.394752502441406,48.20986557006836,0.0,0.0
69.0,33.0,1.0,23.394752502441406,48.20986557006836,0.0,0.0
69.0,41.0,0.1,21.282264709472656,52.29494857788086,0.0,0.0
69.0,41.0,0.3,21.282264709472656,52.29494857788086,0.0,0.0
69.0,41.0,0.7,21.282264709472656,52.29494857788086,0.0,0.0
69.0,41.0,1.0,21.282264709472656,52.29494857788086,0.0,0.0
69.0,49.0,0.1,55.58518981933594,56.03961944580078,0.0,0.0
69.0,49.0,0.3,55.58518981933594,56.03961944580078,0.0,0.0
69.0,49.0,0.7,55.58518981933594,56.03961944580078,0.0,0.0
69.0,49.0,1.0,55.58518981933594,56.03961944580078,0.0,0.0
69.0,57.0,0.1,57.23896026611328,59.746612548828125,0.0,0.0
69.0,57.0,0.3,57.23896026611328,59.746612548828125,0.0,0.0
69.0,57.0,0.7,57.23896026611328,59.746612548828125,0.0,0.0
69.0,57.0,1.0,57.23896026611328,59.746612548828125,0.0,0.0
69.0,65.0,0.1,59.72555160522461,62.71950912475586,0.0,0.0
69.0,65.0,0.3,59.72555160522461,62.71950912475586,0.0,0.0
69.0,65.0,0.7,59.72555160522461,62.71950912475586,0.0,0.0
69.0,65.0,1.0,59.72555160522461,62.71950912475586,0.0,0.0
69.0,73.0,0.1,61.339698791503906,65.84143829345703,0.0,0.0
69.0,73.0,0.3,61.339698791503906,65.84143829345703,0.0,0.0
69.0,73.0,0.7,61.339698791503906,65.84143829345703,0.0,0.0
69.0,73.0,1.0,61.339698791503906,65.84143829345703,0.0,0.0
69.0,81.0,0.1,63.21870422363281,68.49813079833984,0.0,0.0
69.0,81.0,0.3,63.21870422363281,68.49813079833984,0.0,0.0
69.0,81.0,0.7,63.21870422363281,68.49813079833984,0.0,0.0
69.0,81.0,1.0,63.21870422363281,68.49813079833984,0.0,0.0
69.0,89.0,0.1,64.03406524658203,70.76075744628906,0.0,0.0
69.0,89.0,0.3,64.03406524658203,70.76075744628906,0.0,0.0
69.0,89.0,0.7,64.03406524658203,70.76075744628906,0.0,0.0
69.0,89.0,1.0,64.03406524658203,70.76075744628906,0.0,0.0
69.0,97.0,0.1,66.03569030761719,73.30538177490234,0.0,0.0
69.0,97.0,0.3,66.03569030761719,73.30538177490234,0.0,0.0
69.0,97.0,0.7,66.03569030761719,73.30538177490234,0.0,0.0
69.0,97.0,1.0,66.03569030761719,73.30538177490234,0.0,0.0
69.0,105.0,0.1,67.09091186523438,76.63900756835938,0.0,0.0
69.0,105.0,0.3,67.09091186523438,76.63900756835938,0.0,0.0
69.0,105.0,0.7,67.09091186523438,76.63900756835938,0.0,0.0
69.0,105.0,1.0,67.09091186523438,76.63900756835938,0.0,0.0
69.0,113.0,0.1,66.50794982910156,77.068359375,0.0,0.0
69.0,113.0,0.3,66.50794982910156,77.068359375,0.0,0.0
69.0,113.0,0.7,66.50794982910156,77.068359375,0.0,0.0
69.0,113.0,1.0,66.50794982910156,77.068359375,0.0,0.0
69.0,121.0,0.1,66.24423217773438,76.9463882446289,0.0,0.0
69.0,121.0,0.3,66.24423217773438,76.9463882446289,0.0,0.0
69.0,121.0,0.7,66.24423217773438,76.9463882446289,0.0,0.0
69.0,121.0,1.0,66.24423217773438,76.9463882446289,0.0,0.0
69.0,127.0,0.1,66.13809967041016,76.80046081542969,0.0,0.0
69.0,127.0,0.3,66.13809967041016,76.80046081542969,0.0,0.0
69.0,127.0,0.7,66.13809967041016,76.80046081542969,0.0,0.0
69.0,127.0,1.0,66.13809967041016,76.80046081542969,0.0,0.0
70.0,1.0,0.1,19.70501708984375,38.70090866088867,0.0,0.0
70.0,1.0,0.3,19.70501708984375,38.70090866088867,0.0,0.0
70.0,1.0,0.7,19.70501708984375,38.70090866088867,0.0,0.0
70.0,1.0,1.0,19.70501708984375,38.70090866088867,0.0,0.0
70.0,9.0,0.1,24.398475646972656,39.111637115478516,0.0,0.0
70.0,9.0,0.3,24.398475646972656,39.111637115478516,0.0,0.0
70.0,9.0,0.7,24.398475646972656,39.111637115478516,0.0,0.0
70.0,9.0,1.0,24.398475646972656,39.111637115478516,0.0,0.0
70.0,17.0,0.1,24.55139923095703,44.32045364379883,0.0,0.0
70.0,17.0,0.3,24.55139923095703,44.32045364379883,0.0,0.0
70.0,17.0,0.7,24.55139923095703,44.32045364379883,0.0,0.0
70.0,17.0,1.0,24.55139923095703,44.32045364379883,0.0,0.0
70.0,25.0,0.1,23.453033447265625,49.02233123779297,0.0,0.0
70.0,25.0,0.3,23.453033447265625,49.02233123779297,0.0,0.0
70.0,25.0,0.7,23.453033447265625,49.02233123779297,0.0,0.0
70.0,25.0,1.0,23.453033447265625,49.02233123779297,0.0,0.0
70.0,33.0,0.1,20.9993896484375,53.775882720947266,0.0,0.0
70.0,33.0,0.3,20.9993896484375,53.775882720947266,0.0,0.0
70.0,33.0,0.7,20.9993896484375,53.775882720947266,0.0,0.0
70.0,33.0,1.0,20.9993896484375,53.775882720947266,0.0,0.0
70.0,41.0,0.1,21.035720825195312,57.31499481201172,0.0,0.0
70.0,41.0,0.3,21.035720825195312,57.31499481201172,0.0,0.0
70.0,41.0,0.7,21.035720825195312,57.31499481201172,0.0,0.0
70.0,41.0,1.0,21.035720825195312,57.31499481201172,0.0,0.0
70.0,49.0,0.1,46.41874313354492,59.966983795166016,0.0,0.0
70.0,49.0,0.3,46.41874313354492,59.966983795166016,0.0,0.0
70.0,49.0,0.7,46.41874313354492,59.966983795166016,0.0,0.0
70.0,49.0,1.0,46.41874313354492,59.966983795166016,0.0,0.0
70.0,57.0,0.1,48.12395095825195,62.95026779174805,0.0,0.0
70.0,57.0,0.3,48.12395095825195,62.95026779174805,0.0,0.0
70.0,57.0,0.7,48.12395095825195,62.95026779174805,0.0,0.0
70.0,57.0,1.0,48.12395095825195,62.95026779174805,0.0,0.0
70.0,65.0,0.1,50.08665466308594,65.5057601928711,0.0,0.0
70.0,65.0,0.3,50.08665466308594,65.5057601928711,0.0,0.0
70.0,65.0,0.7,50.08665466308594,65.5057601928711,0.0,0.0
70.0,65.0,1.0,50.08665466308594,65.5057601928711,0.0,0.0
70.0,73.0,0.1,52.45342254638672,67.83163452148438,0.0,0.0
70.0,73.0,0.3,52.45342254638672,67.83163452148438,0.0,0.0
70.0,73.0,0.7,52.45342254638672,67.83163452148438,0.0,0.0
70.0,73.0,1.0,52.45342254638672,67.83163452148438,0.0,0.0
70.0,81.0,0.1,55.326568603515625,70.34201049804688,0.0,0.0
70.0,81.0,0.3,55.326568603515625,70.34201049804688,0.0,0.0
70.0,81.0,0.7,55.326568603515625,70.34201049804688,0.0,0.0
70.0,81.0,1.0,55.326568603515625,70.34201049804688,0.0,0.0
70.0,89.0,0.1,57.261138916015625,72.67683410644531,0.0,0.0
70.0,89.0,0.3,57.261138916015625,72.67683410644531,0.0,0.0
70.0,89.0,0.7,57.261138916015625,72.67683410644531,0.0,0.0
70.0,89.0,1.0,57.261138916015625,72.67683410644531,0.0,0.0
70.0,97.0,0.1,58.35472869873047,75.21574401855469,0.0,0.0
70.0,97.0,0.3,58.35472869873047,75.21574401855469,0.0,0.0
70.0,97.0,0.7,58.35472869873047,75.21574401855469,0.0,0.0
70.0,97.0,1.0,58.35472869873047,75.21574401855469,0.0,0.0
70.0,105.0,0.1,58.31614303588867,79.25055694580078,0.0,0.0
70.0,105.0,0.3,58.31614303588867,79.25055694580078,0.0,0.0
70.0,105.0,0.7,58.31614303588867,79.25055694580078,0.0,0.0
70.0,105.0,1.0,58.31614303588867,79.25055694580078,0.0,0.0
70.0,113.0,0.1,57.92221450805664,78.98793029785156,0.0,0.0
70.0,113.0,0.3,57.92221450805664,78.98793029785156,0.0,0.0
70.0,113.0,0.7,57.92221450805664,78.98793029785156,0.0,0.0
70.0,113.0,1.0,57.92221450805664,78.98793029785156,0.0,0.0
70.0,121.0,0.1,58.166622161865234,78.98268127441406,0.0,0.0
70.0,121.0,0.3,58.166622161865234,78.98268127441406,0.0,0.0
70.0,121.0,0.7,58.166622161865234,78.98268127441406,0.0,0.0
70.0,121.0,1.0,58.166622161865234,78.98268127441406,0.0,0.0
70.0,127.0,0.1,58.122615814208984,78.99495697021484,0.0,0.0
70.0,127.0,0.3,58.122615814208984,78.99495697021484,0.0,0.0
70.0,127.0,0.7,58.122615814208984,78.99495697021484,0.0,0.0
70.0,127.0,1.0,58.122615814208984,78.99495697021484,0.0,0.0
71.0,1.0,0.1,23.267120361328125,30.694656372070312,0.0,0.0
71.0,1.0,0.3,23.267120361328125,30.694656372070312,0.0,0.0
71.0,1.0,0.7,23.267120361328125,30.694656372070312,0.0,0.0
71.0,1.0,1.0,23.267120361328125,30.694656372070312,0.0,0.0
71.0,9.0,0.1,19.67829132080078,32.25469207763672,0.0,0.0
71.0,9.0,0.3,19.67829132080078,32.25469207763672,0.0,0.0
71.0,9.0,0.7,19.67829132080078,32.25469207763672,0.0,0.0
71.0,9.0,1.0,19.67829132080078,32.25469207763672,0.0,0.0
71.0,17.0,0.1,44.68454360961914,40.77533721923828,0.0,0.0
71.0,17.0,0.3,44.68454360961914,40.77533721923828,0.0,0.0
71.0,17.0,0.7,44.68454360961914,40.77533721923828,0.0,0.0
71.0,17.0,1.0,44.68454360961914,40.77533721923828,0.0,0.0
71.0,25.0,0.1,27.243858337402344,50.085365295410156,0.0,0.0
71.0,25.0,0.3,27.243858337402344,50.085365295410156,0.0,0.0
71.0,25.0,0.7,27.243858337402344,50.085365295410156,0.0,0.0
71.0,25.0,1.0,27.243858337402344,50.085365295410156,0.0,0.0
71.0,33.0,0.1,25.88592529296875,54.65922546386719,0.0,0.0
71.0,33.0,0.3,25.88592529296875,54.65922546386719,0.0,0.0
71.0,33.0,0.7,25.88592529296875,54.65922546386719,0.0,0.0
71.0,33.0,1.0,25.88592529296875,54.65922546386719,0.0,0.0
71.0,41.0,0.1,21.96490478515625,57.5092887878418,0.0,0.0
71.0,41.0,0.3,21.96490478515625,57.5092887878418,0.0,0.0
71.0,41.0,0.7,21.96490478515625,57.5092887878418,0.0,0.0
71.0,41.0,1.0,21.96490478515625,57.5092887878418,0.0,0.0
71.0,49.0,0.1,55.966209411621094,60.32381820678711,0.0,0.0
71.0,49.0,0.3,55.966209411621094,60.32381820678711,0.0,0.0
71.0,49.0,0.7,55.966209411621094,60.32381820678711,0.0,0.0
71.0,49.0,1.0,55.966209411621094,60.32381820678711,0.0,0.0
71.0,57.0,0.1,56.88115692138672,63.50115203857422,0.0,0.0
71.0,57.0,0.3,56.88115692138672,63.50115203857422,0.0,0.0
71.0,57.0,0.7,56.88115692138672,63.50115203857422,0.0,0.0
71.0,57.0,1.0,56.88115692138672,63.50115203857422,0.0,0.0
71.0,65.0,0.1,60.4869384765625,65.91215515136719,0.0,0.0
71.0,65.0,0.3,60.4869384765625,65.91215515136719,0.0,0.0
71.0,65.0,0.7,60.4869384765625,65.91215515136719,0.0,0.0
71.0,65.0,1.0,60.4869384765625,65.91215515136719,0.0,0.0
71.0,73.0,0.1,62.81559371948242,68.61775970458984,0.0,0.0
71.0,73.0,0.3,62.81559371948242,68.61775970458984,0.0,0.0
71.0,73.0,0.7,62.81559371948242,68.61775970458984,0.0,0.0
71.0,73.0,1.0,62.81559371948242,68.61775970458984,0.0,0.0
71.0,81.0,0.1,65.34628295898438,70.88928985595703,0.0,0.0
71.0,81.0,0.3,65.34628295898438,70.88928985595703,0.0,0.0
71.0,81.0,0.7,65.34628295898438,70.88928985595703,0.0,0.0
71.0,81.0,1.0,65.34628295898438,70.88928985595703,0.0,0.0
71.0,89.0,0.1,67.477783203125,73.13383483886719,0.0,0.0
71.0,89.0,0.3,67.477783203125,73.13383483886719,0.0,0.0
71.0,89.0,0.7,67.477783203125,73.13383483886719,0.0,0.0
71.0,89.0,1.0,67.477783203125,73.13383483886719,0.0,0.0
71.0,97.0,0.1,68.340576171875,75.57905578613281,0.0,0.0
71.0,97.0,0.3,68.340576171875,75.57905578613281,0.0,0.0
71.0,97.0,0.7,68.340576171875,75.57905578613281,0.0,0.0
71.0,97.0,1.0,68.340576171875,75.57905578613281,0.0,0.0
71.0,105.0,0.1,68.85568237304688,79.86540985107422,0.0,0.0
71.0,105.0,0.3,68.85568237304688,79.86540985107422,0.0,0.0
71.0,105.0,0.7,68.85568237304688,79.86540985107422,0.0,0.0
71.0,105.0,1.0,68.85568237304688,79.86540985107422,0.0,0.0
71.0,113.0,0.1,68.81460571289062,79.736328125,0.0,0.0
71.0,113.0,0.3,68.81460571289062,79.736328125,0.0,0.0
71.0,113.0,0.7,68.81460571289062,79.736328125,0.0,0.0
71.0,113.0,1.0,68.81460571289062,79.736328125,0.0,0.0
71.0,121.0,0.1,68.77703094482422,79.66349792480469,0.0,0.0
71.0,121.0,0.3,68.77703094482422,79.66349792480469,0.0,0.0
71.0,121.0,0.7,68.77703094482422,79.66349792480469,0.0,0.0
71.0,121.0,1.0,68.77703094482422,79.66349792480469,0.0,0.0
71.0,127.0,0.1,68.75126647949219,79.61383056640625,0.0,0.0
71.0,127.0,0.3,68.75126647949219,79.61383056640625,0.0,0.0
71.0,127.0,0.7,68.75126647949219,79.61383056640625,0.0,0.0
71.0,127.0,1.0,68.75126647949219,79.61383056640625,0.0,0.0
72.0,1.0,0.1,20.680023193359375,36.23389434814453,0.0,0.0
72.0,1.0,0.3,20.680023193359375,36.23389434814453,0.0,0.0
72.0,1.0,0.7,20.680023193359375,36.23389434814453,0.0,0.0
72.0,1.0,1.0,20.680023193359375,36.23389434814453,0.0,0.0
72.0,9.0,0.1,21.605392456054688,36.64543914794922,0.0,0.0
72.0,9.0,0.3,21.605392456054688,36.64543914794922,0.0,0.0
72.0,9.0,0.7,21.605392456054688,36.64543914794922,0.0,0.0
72.0,9.0,1.0,21.605392456054688,36.64543914794922,0.0,0.0
72.0,17.0,0.1,22.130455017089844,43.907562255859375,0.0,0.0
72.0,17.0,0.3,22.130455017089844,43.907562255859375,0.0,0.0
72.0,17.0,0.7,22.130455017089844,43.907562255859375,0.0,0.0
72.0,17.0,1.0,22.130455017089844,43.907562255859375,0.0,0.0
72.0,25.0,0.1,21.36639404296875,48.69059753417969,0.0,0.0
72.0,25.0,0.3,21.36639404296875,48.69059753417969,0.0,0.0
72.0,25.0,0.7,21.36639404296875,48.69059753417969,0.0,0.0
72.0,25.0,1.0,21.36639404296875,48.69059753417969,0.0,0.0
72.0,33.0,0.1,21.438926696777344,52.389949798583984,0.0,0.0
72.0,33.0,0.3,21.438926696777344,52.389949798583984,0.0,0.0
72.0,33.0,0.7,21.438926696777344,52.389949798583984,0.0,0.0
72.0,33.0,1.0,21.438926696777344,52.389949798583984,0.0,0.0
72.0,41.0,0.1,22.302871704101562,55.95012664794922,0.0,0.0
72.0,41.0,0.3,22.302871704101562,55.95012664794922,0.0,0.0
72.0,41.0,0.7,22.302871704101562,55.95012664794922,0.0,0.0
72.0,41.0,1.0,22.302871704101562,55.95012664794922,0.0,0.0
72.0,49.0,0.1,23.303802490234375,59.2235107421875,0.0,0.0
72.0,49.0,0.3,23.303802490234375,59.2235107421875,0.0,0.0
72.0,49.0,0.7,23.303802490234375,59.2235107421875,0.0,0.0
72.0,49.0,1.0,23.303802490234375,59.2235107421875,0.0,0.0
72.0,57.0,0.1,21.733795166015625,61.89530944824219,0.0,0.0
72.0,57.0,0.3,21.733795166015625,61.89530944824219,0.0,0.0
72.0,57.0,0.7,21.733795166015625,61.89530944824219,0.0,0.0
72.0,57.0,1.0,21.733795166015625,61.89530944824219,0.0,0.0
72.0,65.0,0.1,24.204307556152344,64.18084716796875,0.0,0.0
72.0,65.0,0.3,24.204307556152344,64.18084716796875,0.0,0.0
72.0,65.0,0.7,24.204307556152344,64.18084716796875,0.0,0.0
72.0,65.0,1.0,24.204307556152344,64.18084716796875,0.0,0.0
72.0,73.0,0.1,53.326934814453125,66.46875,0.0,0.0
72.0,73.0,0.3,53.326934814453125,66.46875,0.0,0.0
72.0,73.0,0.7,53.326934814453125,66.46875,0.0,0.0
72.0,73.0,1.0,53.326934814453125,66.46875,0.0,0.0
72.0,81.0,0.1,56.14349365234375,69.37147521972656,0.0,0.0
72.0,81.0,0.3,56.14349365234375,69.37147521972656,0.0,0.0
72.0,81.0,0.7,56.14349365234375,69.37147521972656,0.0,0.0
72.0,81.0,1.0,56.14349365234375,69.37147521972656,0.0,0.0
72.0,89.0,0.1,58.58087921142578,71.7665786743164,0.0,0.0
72.0,89.0,0.3,58.58087921142578,71.7665786743164,0.0,0.0
72.0,89.0,0.7,58.58087921142578,71.7665786743164,0.0,0.0
72.0,89.0,1.0,58.58087921142578,71.7665786743164,0.0,0.0
72.0,97.0,0.1,59.933589935302734,73.54808044433594,0.0,0.0
72.0,97.0,0.3,59.933589935302734,73.54808044433594,0.0,0.0
72.0,97.0,0.7,59.933589935302734,73.54808044433594,0.0,0.0
72.0,97.0,1.0,59.933589935302734,73.54808044433594,0.0,0.0
72.0,105.0,0.1,59.898292541503906,77.72404479980469,0.0,0.0
72.0,105.0,0.3,59.898292541503906,77.72404479980469,0.0,0.0
72.0,105.0,0.7,59.898292541503906,77.72404479980469,0.0,0.0
72.0,105.0,1.0,59.898292541503906,77.72404479980469,0.0,0.0
72.0,113.0,0.1,59.861785888671875,77.55463409423828,0.0,0.0
72.0,113.0,0.3,59.861785888671875,77.55463409423828,0.0,0.0
72.0,113.0,0.7,59.861785888671875,77.55463409423828,0.0,0.0
72.0,113.0,1.0,59.861785888671875,77.55463409423828,0.0,0.0
72.0,121.0,0.1,59.81797409057617,77.51055908203125,0.0,0.0
72.0,121.0,0.3,59.81797409057617,77.51055908203125,0.0,0.0
72.0,121.0,0.7,59.81797409057617,77.51055908203125,0.0,0.0
72.0,121.0,1.0,59.81797409057617,77.51055908203125,0.0,0.0
72.0,127.0,0.1,59.829471588134766,77.44325256347656,0.0,0.0
72.0,127.0,0.3,59.829471588134766,77.44325256347656,0.0,0.0
72.0,127.0,0.7,59.829471588134766,77.44325256347656,0.0,0.0
72.0,127.0,1.0,59.829471588134766,77.44325256347656,0.0,0.0
73.0,1.0,0.1,24.87761688232422,32.8547477722168,0.0,0.0
73.0,1.0,0.3,24.87761688232422,32.8547477722168,0.0,0.0
73.0,1.0,0.7,24.87761688232422,32.8547477722168,0.0,0.0
73.0,1.0,1.0,24.87761688232422,32.8547477722168,0.0,0.0
73.0,9.0,0.1,37.001976013183594,30.481597900390625,0.0,0.0
73.0,9.0,0.3,37.001976013183594,30.481597900390625,0.0,0.0
73.0,9.0,0.7,37.001976013183594,30.481597900390625,0.0,0.0
73.0,9.0,1.0,37.001976013183594,30.481597900390625,0.0,0.0
73.0,17.0,0.1,24.381820678710938,42.71593475341797,0.0,0.0
73.0,17.0,0.3,24.381820678710938,42.71593475341797,0.0,0.0
73.0,17.0,0.7,24.381820678710938,42.71593475341797,0.0,0.0
73.0,17.0,1.0,24.381820678710938,42.71593475341797,0.0,0.0
73.0,25.0,0.1,24.82257080078125,50.392330169677734,0.0,0.0
73.0,25.0,0.3,24.82257080078125,50.392330169677734,0.0,0.0
73.0,25.0,0.7,24.82257080078125,50.392330169677734,0.0,0.0
73.0,25.0,1.0,24.82257080078125,50.392330169677734,0.0,0.0
73.0,33.0,0.1,23.53404998779297,54.0537223815918,0.0,0.0
73.0,33.0,0.3,23.53404998779297,54.0537223815918,0.0,0.0
73.0,33.0,0.7,23.53404998779297,54.0537223815918,0.0,0.0
73.0,33.0,1.0,23.53404998779297,54.0537223815918,0.0,0.0
73.0,41.0,0.1,25.172027587890625,57.921607971191406,0.0,0.0
73.0,41.0,0.3,25.172027587890625,57.921607971191406,0.0,0.0
73.0,41.0,0.7,25.172027587890625,57.921607971191406,0.0,0.0
73.0,41.0,1.0,25.172027587890625,57.921607971191406,0.0,0.0
73.0,49.0,0.1,53.18400573730469,60.80731201171875,0.0,0.0
73.0,49.0,0.3,53.18400573730469,60.80731201171875,0.0,0.0
73.0,49.0,0.7,53.18400573730469,60.80731201171875,0.0,0.0
73.0,49.0,1.0,53.18400573730469,60.80731201171875,0.0,0.0
73.0,57.0,0.1,55.58244323730469,63.583106994628906,0.0,0.0
73.0,57.0,0.3,55.58244323730469,63.583106994628906,0.0,0.0
73.0,57.0,0.7,55.58244323730469,63.583106994628906,0.0,0.0
73.0,57.0,1.0,55.58244323730469,63.583106994628906,0.0,0.0
73.0,65.0,0.1,57.517147064208984,66.38150787353516,0.0,0.0
73.0,65.0,0.3,57.517147064208984,66.38150787353516,0.0,0.0
73.0,65.0,0.7,57.517147064208984,66.38150787353516,0.0,0.0
73.0,65.0,1.0,57.517147064208984,66.38150787353516,0.0,0.0
73.0,73.0,0.1,59.1070442199707,68.64388275146484,0.0,0.0
73.0,73.0,0.3,59.1070442199707,68.64388275146484,0.0,0.0
73.0,73.0,0.7,59.1070442199707,68.64388275146484,0.0,0.0
73.0,73.0,1.0,59.1070442199707,68.64388275146484,0.0,0.0
73.0,81.0,0.1,61.61301040649414,70.2148666381836,0.0,0.0
73.0,81.0,0.3,61.61301040649414,70.2148666381836,0.0,0.0
73.0,81.0,0.7,61.61301040649414,70.2148666381836,0.0,0.0
73.0,81.0,1.0,61.61301040649414,70.2148666381836,0.0,0.0
73.0,89.0,0.1,63.731754302978516,73.49083709716797,0.0,0.0
73.0,89.0,0.3,63.731754302978516,73.49083709716797,0.0,0.0
73.0,89.0,0.7,63.731754302978516,73.49083709716797,0.0,0.0
73.0,89.0,1.0,63.731754302978516,73.49083709716797,0.0,0.0
73.0,97.0,0.1,64.90579986572266,75.74382781982422,0.0,0.0
73.0,97.0,0.3,64.90579986572266,75.74382781982422,0.0,0.0
73.0,97.0,0.7,64.90579986572266,75.74382781982422,0.0,0.0
73.0,97.0,1.0,64.90579986572266,75.74382781982422,0.0,0.0
73.0,105.0,0.1,65.1226806640625,79.73226928710938,0.0,0.0
73.0,105.0,0.3,65.1226806640625,79.73226928710938,0.0,0.0
73.0,105.0,0.7,65.1226806640625,79.73226928710938,0.0,0.0
73.0,105.0,1.0,65.1226806640625,79.73226928710938,0.0,0.0
73.0,113.0,0.1,65.01931762695312,80.1867904663086,0.0,0.0
73.0,113.0,0.3,65.01931762695312,80.1867904663086,0.0,0.0
73.0,113.0,0.7,65.01931762695312,80.1867904663086,0.0,0.0
73.0,113.0,1.0,65.01931762695312,80.1867904663086,0.0,0.0
73.0,121.0,0.1,64.89665222167969,79.93633270263672,0.0,0.0
73.0,121.0,0.3,64.89665222167969,79.93633270263672,0.0,0.0
73.0,121.0,0.7,64.89665222167969,79.93633270263672,0.0,0.0
73.0,121.0,1.0,64.89665222167969,79.93633270263672,0.0,0.0
73.0,127.0,0.1,64.69194030761719,79.8740234375,0.0,0.0
73.0,127.0,0.3,64.69194030761719,79.8740234375,0.0,0.0
73.0,127.0,0.7,64.69194030761719,79.8740234375,0.0,0.0
73.0,127.0,1.0,64.69194030761719,79.8740234375,0.0,0.0
74.0,1.0,0.1,22.01885986328125,39.96870803833008,0.0,0.0
74.0,1.0,0.3,22.01885986328125,39.96870803833008,0.0,0.0
74.0,1.0,0.7,22.01885986328125,39.96870803833008,0.0,0.0
74.0,1.0,1.0,22.01885986328125,39.96870803833008,0.0,0.0
74.0,9.0,0.1,41.96968460083008,40.477603912353516,0.0,0.0
74.0,9.0,0.3,41.96968460083008,40.477603912353516,0.0,0.0
74.0,9.0,0.7,41.96968460083008,40.477603912353516,0.0,0.0
74.0,9.0,1.0,41.96968460083008,40.477603912353516,0.0,0.0
74.0,17.0,0.1,26.40924072265625,45.465763092041016,0.0,0.0
74.0,17.0,0.3,26.40924072265625,45.465763092041016,0.0,0.0
74.0,17.0,0.7,26.40924072265625,45.465763092041016,0.0,0.0
74.0,17.0,1.0,26.40924072265625,45.465763092041016,0.0,0.0
74.0,25.0,0.1,22.06250762939453,51.24745178222656,0.0,0.0
74.0,25.0,0.3,22.06250762939453,51.24745178222656,0.0,0.0
74.0,25.0,0.7,22.06250762939453,51.24745178222656,0.0,0.0
74.0,25.0,1.0,22.06250762939453,51.24745178222656,0.0,0.0
74.0,33.0,0.1,40.624114990234375,55.106441497802734,0.0,0.0
74.0,33.0,0.3,40.624114990234375,55.106441497802734,0.0,0.0
74.0,33.0,0.7,40.624114990234375,55.106441497802734,0.0,0.0
74.0,33.0,1.0,40.624114990234375,55.106441497802734,0.0,0.0
74.0,41.0,0.1,23.871246337890625,59.565956115722656,0.0,0.0
74.0,41.0,0.3,23.871246337890625,59.565956115722656,0.0,0.0
74.0,41.0,0.7,23.871246337890625,59.565956115722656,0.0,0.0
74.0,41.0,1.0,23.871246337890625,59.565956115722656,0.0,0.0
74.0,49.0,0.1,46.052120208740234,63.629024505615234,0.0,0.0
74.0,49.0,0.3,46.052120208740234,63.629024505615234,0.0,0.0
74.0,49.0,0.7,46.052120208740234,63.629024505615234,0.0,0.0
74.0,49.0,1.0,46.052120208740234,63.629024505615234,0.0,0.0
74.0,57.0,0.1,57.44900894165039,67.05412292480469,0.0,0.0
74.0,57.0,0.3,57.44900894165039,67.05412292480469,0.0,0.0
74.0,57.0,0.7,57.44900894165039,67.05412292480469,0.0,0.0
74.0,57.0,1.0,57.44900894165039,67.05412292480469,0.0,0.0
74.0,65.0,0.1,60.35800552368164,69.72801971435547,0.0,0.0
74.0,65.0,0.3,60.35800552368164,69.72801971435547,0.0,0.0
74.0,65.0,0.7,60.35800552368164,69.72801971435547,0.0,0.0
74.0,65.0,1.0,60.35800552368164,69.72801971435547,0.0,0.0
74.0,73.0,0.1,62.66611862182617,71.7884521484375,0.0,0.0
74.0,73.0,0.3,62.66611862182617,71.7884521484375,0.0,0.0
74.0,73.0,0.7,62.66611862182617,71.7884521484375,0.0,0.0
74.0,73.0,1.0,62.66611862182617,71.7884521484375,0.0,0.0
74.0,81.0,0.1,64.46685028076172,73.99589538574219,0.0,0.0
74.0,81.0,0.3,64.46685028076172,73.99589538574219,0.0,0.0
74.0,81.0,0.7,64.46685028076172,73.99589538574219,0.0,0.0
74.0,81.0,1.0,64.46685028076172,73.99589538574219,0.0,0.0
74.0,89.0,0.1,66.57881164550781,75.88400268554688,0.0,0.0
74.0,89.0,0.3,66.57881164550781,75.88400268554688,0.0,0.0
74.0,89.0,0.7,66.57881164550781,75.88400268554688,0.0,0.0
74.0,89.0,1.0,66.57881164550781,75.88400268554688,0.0,0.0
74.0,97.0,0.1,67.91868591308594,78.74495697021484,0.0,0.0
74.0,97.0,0.3,67.91868591308594,78.74495697021484,0.0,0.0
74.0,97.0,0.7,67.91868591308594,78.74495697021484,0.0,0.0
74.0,97.0,1.0,67.91868591308594,78.74495697021484,0.0,0.0
74.0,105.0,0.1,67.86947631835938,82.55995178222656,0.0,0.0
74.0,105.0,0.3,67.86947631835938,82.55995178222656,0.0,0.0
74.0,105.0,0.7,67.86947631835938,82.55995178222656,0.0,0.0
74.0,105.0,1.0,67.86947631835938,82.55995178222656,0.0,0.0
74.0,113.0,0.1,67.79501342773438,82.44554901123047,0.0,0.0
74.0,113.0,0.3,67.79501342773438,82.44554901123047,0.0,0.0
74.0,113.0,0.7,67.79501342773438,82.44554901123047,0.0,0.0
74.0,113.0,1.0,67.79501342773438,82.44554901123047,0.0,0.0
74.0,121.0,0.1,67.73109436035156,82.31455993652344,0.0,0.0
74.0,121.0,0.3,67.73109436035156,82.31455993652344,0.0,0.0
74.0,121.0,0.7,67.73109436035156,82.31455993652344,0.0,0.0
74.0,121.0,1.0,67.73109436035156,82.31455993652344,0.0,0.0
74.0,127.0,0.1,67.55952453613281,82.24070739746094,0.0,0.0
74.0,127.0,0.3,67.55952453613281,82.24070739746094,0.0,0.0
74.0,127.0,0.7,67.55952453613281,82.24070739746094,0.0,0.0
74.0,127.0,1.0,67.55952453613281,82.24070739746094,0.0,0.0
75.0,1.0,0.1,24.75128173828125,44.89204406738281,0.0,0.0
75.0,1.0,0.3,24.75128173828125,44.89204406738281,0.0,0.0
75.0,1.0,0.7,24.75128173828125,44.89204406738281,0.0,0.0
75.0,1.0,1.0,24.75128173828125,44.89204406738281,0.0,0.0
75.0,9.0,0.1,23.66485595703125,47.227684020996094,0.0,0.0
75.0,9.0,0.3,23.66485595703125,47.227684020996094,0.0,0.0
75.0,9.0,0.7,23.66485595703125,47.227684020996094,0.0,0.0
75.0,9.0,1.0,23.66485595703125,47.227684020996094,0.0,0.0
75.0,17.0,0.1,23.347434997558594,51.027732849121094,0.0,0.0
75.0,17.0,0.3,23.347434997558594,51.027732849121094,0.0,0.0
75.0,17.0,0.7,23.347434997558594,51.027732849121094,0.0,0.0
75.0,17.0,1.0,23.347434997558594,51.027732849121094,0.0,0.0
75.0,25.0,0.1,23.741836547851562,54.90876770019531,0.0,0.0
75.0,25.0,0.3,23.741836547851562,54.90876770019531,0.0,0.0
75.0,25.0,0.7,23.741836547851562,54.90876770019531,0.0,0.0
75.0,25.0,1.0,23.741836547851562,54.90876770019531,0.0,0.0
75.0,33.0,0.1,40.75365447998047,55.96764373779297,0.0,0.0
75.0,33.0,0.3,40.75365447998047,55.96764373779297,0.0,0.0
75.0,33.0,0.7,40.75365447998047,55.96764373779297,0.0,0.0
75.0,33.0,1.0,40.75365447998047,55.96764373779297,0.0,0.0
75.0,41.0,0.1,24.482772827148438,60.027793884277344,0.0,0.0
75.0,41.0,0.3,24.482772827148438,60.027793884277344,0.0,0.0
75.0,41.0,0.7,24.482772827148438,60.027793884277344,0.0,0.0
75.0,41.0,1.0,24.482772827148438,60.027793884277344,0.0,0.0
75.0,49.0,0.1,23.087356567382812,63.042388916015625,0.0,0.0
75.0,49.0,0.3,23.087356567382812,63.042388916015625,0.0,0.0
75.0,49.0,0.7,23.087356567382812,63.042388916015625,0.0,0.0
75.0,49.0,1.0,23.087356567382812,63.042388916015625,0.0,0.0
75.0,57.0,0.1,49.719688415527344,64.7933120727539,0.0,0.0
75.0,57.0,0.3,49.719688415527344,64.7933120727539,0.0,0.0
75.0,57.0,0.7,49.719688415527344,64.7933120727539,0.0,0.0
75.0,57.0,1.0,49.719688415527344,64.7933120727539,0.0,0.0
75.0,65.0,0.1,51.95682907104492,67.08659362792969,0.0,0.0
75.0,65.0,0.3,51.95682907104492,67.08659362792969,0.0,0.0
75.0,65.0,0.7,51.95682907104492,67.08659362792969,0.0,0.0
75.0,65.0,1.0,51.95682907104492,67.08659362792969,0.0,0.0
75.0,73.0,0.1,53.96326446533203,69.17086029052734,0.0,0.0
75.0,73.0,0.3,53.96326446533203,69.17086029052734,0.0,0.0
75.0,73.0,0.7,53.96326446533203,69.17086029052734,0.0,0.0
75.0,73.0,1.0,53.96326446533203,69.17086029052734,0.0,0.0
75.0,81.0,0.1,54.86769485473633,71.04147338867188,0.0,0.0
75.0,81.0,0.3,54.86769485473633,71.04147338867188,0.0,0.0
75.0,81.0,0.7,54.86769485473633,71.04147338867188,0.0,0.0
75.0,81.0,1.0,54.86769485473633,71.04147338867188,0.0,0.0
75.0,89.0,0.1,55.59370040893555,72.82363891601562,0.0,0.0
75.0,89.0,0.3,55.59370040893555,72.82363891601562,0.0,0.0
75.0,89.0,0.7,55.59370040893555,72.82363891601562,0.0,0.0
75.0,89.0,1.0,55.59370040893555,72.82363891601562,0.0,0.0
75.0,97.0,0.1,57.230430603027344,75.11569213867188,0.0,0.0
75.0,97.0,0.3,57.230430603027344,75.11569213867188,0.0,0.0
75.0,97.0,0.7,57.230430603027344,75.11569213867188,0.0,0.0
75.0,97.0,1.0,57.230430603027344,75.11569213867188,0.0,0.0
75.0,105.0,0.1,58.3873176574707,78.20630645751953,0.0,0.0
75.0,105.0,0.3,58.3873176574707,78.20630645751953,0.0,0.0
75.0,105.0,0.7,58.3873176574707,78.20630645751953,0.0,0.0
75.0,105.0,1.0,58.3873176574707,78.20630645751953,0.0,0.0
75.0,113.0,0.1,58.2965202331543,78.9399185180664,0.0,0.0
75.0,113.0,0.3,58.2965202331543,78.9399185180664,0.0,0.0
75.0,113.0,0.7,58.2965202331543,78.9399185180664,0.0,0.0
75.0,113.0,1.0,58.2965202331543,78.9399185180664,0.0,0.0
75.0,121.0,0.1,58.25831985473633,78.93781280517578,0.0,0.0
75.0,121.0,0.3,58.25831985473633,78.93781280517578,0.0,0.0
75.0,121.0,0.7,58.25831985473633,78.93781280517578,0.0,0.0
75.0,121.0,1.0,58.25831985473633,78.93781280517578,0.0,0.0
75.0,127.0,0.1,58.24374771118164,78.95655822753906,0.0,0.0
75.0,127.0,0.3,58.24374771118164,78.95655822753906,0.0,0.0
75.0,127.0,0.7,58.24374771118164,78.95655822753906,0.0,0.0
75.0,127.0,1.0,58.24374771118164,78.95655822753906,0.0,0.0
76.0,1.0,0.1,27.288955688476562,31.23363494873047,0.0,0.0
76.0,1.0,0.3,27.288955688476562,31.23363494873047,0.0,0.0
76.0,1.0,0.7,27.288955688476562,31.23363494873047,0.0,0.0
76.0,1.0,1.0,27.288955688476562,31.23363494873047,0.0,0.0
76.0,9.0,0.1,24.124130249023438,33.89326477050781,0.0,0.0
76.0,9.0,0.3,24.124130249023438,33.89326477050781,0.0,0.0
76.0,9.0,0.7,24.124130249023438,33.89326477050781,0.0,0.0
76.0,9.0,1.0,24.124130249023438,33.89326477050781,0.0,0.0
76.0,17.0,0.1,21.96875,39.325130462646484,0.0,0.0
76.0,17.0,0.3,21.96875,39.325130462646484,0.0,0.0
76.0,17.0,0.7,21.96875,39.325130462646484,0.0,0.0
76.0,17.0,1.0,21.96875,39.325130462646484,0.0,0.0
76.0,25.0,0.1,23.963394165039062,46.46805191040039,0.0,0.0
76.0,25.0,0.3,23.963394165039062,46.46805191040039,0.0,0.0
76.0,25.0,0.7,23.963394165039062,46.46805191040039,0.0,0.0
76.0,25.0,1.0,23.963394165039062,46.46805191040039,0.0,0.0
76.0,33.0,0.1,32.03721618652344,49.99252700805664,0.0,0.0
76.0,33.0,0.3,32.03721618652344,49.99252700805664,0.0,0.0
76.0,33.0,0.7,32.03721618652344,49.99252700805664,0.0,0.0
76.0,33.0,1.0,32.03721618652344,49.99252700805664,0.0,0.0
76.0,41.0,0.1,43.569862365722656,53.96342468261719,0.0,0.0
76.0,41.0,0.3,43.569862365722656,53.96342468261719,0.0,0.0
76.0,41.0,0.7,43.569862365722656,53.96342468261719,0.0,0.0
76.0,41.0,1.0,43.569862365722656,53.96342468261719,0.0,0.0
76.0,49.0,0.1,54.04119110107422,57.66374588012695,0.0,0.0
76.0,49.0,0.3,54.04119110107422,57.66374588012695,0.0,0.0
76.0,49.0,0.7,54.04119110107422,57.66374588012695,0.0,0.0
76.0,49.0,1.0,54.04119110107422,57.66374588012695,0.0,0.0
76.0,57.0,0.1,55.11150360107422,60.88628387451172,0.0,0.0
76.0,57.0,0.3,55.11150360107422,60.88628387451172,0.0,0.0
76.0,57.0,0.7,55.11150360107422,60.88628387451172,0.0,0.0
76.0,57.0,1.0,55.11150360107422,60.88628387451172,0.0,0.0
76.0,65.0,0.1,57.59645080566406,64.2518081665039,0.0,0.0
76.0,65.0,0.3,57.59645080566406,64.2518081665039,0.0,0.0
76.0,65.0,0.7,57.59645080566406,64.2518081665039,0.0,0.0
76.0,65.0,1.0,57.59645080566406,64.2518081665039,0.0,0.0
76.0,73.0,0.1,59.867794036865234,66.9604263305664,0.0,0.0
76.0,73.0,0.3,59.867794036865234,66.9604263305664,0.0,0.0
76.0,73.0,0.7,59.867794036865234,66.9604263305664,0.0,0.0
76.0,73.0,1.0,59.867794036865234,66.9604263305664,0.0,0.0
76.0,81.0,0.1,62.12946319580078,69.08294677734375,0.0,0.0
76.0,81.0,0.3,62.12946319580078,69.08294677734375,0.0,0.0
76.0,81.0,0.7,62.12946319580078,69.08294677734375,0.0,0.0
76.0,81.0,1.0,62.12946319580078,69.08294677734375,0.0,0.0
76.0,89.0,0.1,63.65765380859375,70.86505126953125,0.0,0.0
76.0,89.0,0.3,63.65765380859375,70.86505126953125,0.0,0.0
76.0,89.0,0.7,63.65765380859375,70.86505126953125,0.0,0.0
76.0,89.0,1.0,63.65765380859375,70.86505126953125,0.0,0.0
76.0,97.0,0.1,64.83952331542969,73.31842803955078,0.0,0.0
76.0,97.0,0.3,64.83952331542969,73.31842803955078,0.0,0.0
76.0,97.0,0.7,64.83952331542969,73.31842803955078,0.0,0.0
76.0,97.0,1.0,64.83952331542969,73.31842803955078,0.0,0.0
76.0,105.0,0.1,64.84288024902344,79.2897720336914,0.0,0.0
76.0,105.0,0.3,64.84288024902344,79.2897720336914,0.0,0.0
76.0,105.0,0.7,64.84288024902344,79.2897720336914,0.0,0.0
76.0,105.0,1.0,64.84288024902344,79.2897720336914,0.0,0.0
76.0,113.0,0.1,64.81790161132812,79.24191284179688,0.0,0.0
76.0,113.0,0.3,64.81790161132812,79.24191284179688,0.0,0.0
76.0,113.0,0.7,64.81790161132812,79.24191284179688,0.0,0.0
76.0,113.0,1.0,64.81790161132812,79.24191284179688,0.0,0.0
76.0,121.0,0.1,64.74200439453125,79.19331359863281,0.0,0.0
76.0,121.0,0.3,64.74200439453125,79.19331359863281,0.0,0.0
76.0,121.0,0.7,64.74200439453125,79.19331359863281,0.0,0.0
76.0,121.0,1.0,64.74200439453125,79.19331359863281,0.0,0.0
76.0,127.0,0.1,64.67963409423828,79.15010070800781,0.0,0.0
76.0,127.0,0.3,64.67963409423828,79.15010070800781,0.0,0.0
76.0,127.0,0.7,64.67963409423828,79.15010070800781,0.0,0.0
76.0,127.0,1.0,64.67963409423828,79.15010070800781,0.0,0.0
77.0,1.0,0.1,19.773452758789062,30.511215209960938,0.0,0.0
77.0,1.0,0.3,19.773452758789062,30.511215209960938,0.0,0.0
77.0,1.0,0.7,19.773452758789062,30.511215209960938,0.0,0.0
77.0,1.0,1.0,19.773452758789062,30.511215209960938,0.0,0.0
77.0,9.0,0.1,19.083038330078125,30.44149398803711,0.0,0.0
77.0,9.0,0.3,19.083038330078125,30.44149398803711,0.0,0.0
77.0,9.0,0.7,19.083038330078125,30.44149398803711,0.0,0.0
77.0,9.0,1.0,19.083038330078125,30.44149398803711,0.0,0.0
77.0,17.0,0.1,20.682830810546875,34.493778228759766,0.0,0.0
77.0,17.0,0.3,20.682830810546875,34.493778228759766,0.0,0.0
77.0,17.0,0.7,20.682830810546875,34.493778228759766,0.0,0.0
77.0,17.0,1.0,20.682830810546875,34.493778228759766,0.0,0.0
77.0,25.0,0.1,22.040634155273438,39.981910705566406,0.0,0.0
77.0,25.0,0.3,22.040634155273438,39.981910705566406,0.0,0.0
77.0,25.0,0.7,22.040634155273438,39.981910705566406,0.0,0.0
77.0,25.0,1.0,22.040634155273438,39.981910705566406,0.0,0.0
77.0,33.0,0.1,22.729080200195312,46.491912841796875,0.0,0.0
77.0,33.0,0.3,22.729080200195312,46.491912841796875,0.0,0.0
77.0,33.0,0.7,22.729080200195312,46.491912841796875,0.0,0.0
77.0,33.0,1.0,22.729080200195312,46.491912841796875,0.0,0.0
77.0,41.0,0.1,39.9555778503418,51.48072052001953,0.0,0.0
77.0,41.0,0.3,39.9555778503418,51.48072052001953,0.0,0.0
77.0,41.0,0.7,39.9555778503418,51.48072052001953,0.0,0.0
77.0,41.0,1.0,39.9555778503418,51.48072052001953,0.0,0.0
77.0,49.0,0.1,49.419063568115234,55.349456787109375,0.0,0.0
77.0,49.0,0.3,49.419063568115234,55.349456787109375,0.0,0.0
77.0,49.0,0.7,49.419063568115234,55.349456787109375,0.0,0.0
77.0,49.0,1.0,49.419063568115234,55.349456787109375,0.0,0.0
77.0,57.0,0.1,18.417015075683594,59.303462982177734,0.0,0.0
77.0,57.0,0.3,18.417015075683594,59.303462982177734,0.0,0.0
77.0,57.0,0.7,18.417015075683594,59.303462982177734,0.0,0.0
77.0,57.0,1.0,18.417015075683594,59.303462982177734,0.0,0.0
77.0,65.0,0.1,55.06085205078125,62.71116638183594,0.0,0.0
77.0,65.0,0.3,55.06085205078125,62.71116638183594,0.0,0.0
77.0,65.0,0.7,55.06085205078125,62.71116638183594,0.0,0.0
77.0,65.0,1.0,55.06085205078125,62.71116638183594,0.0,0.0
77.0,73.0,0.1,58.3785400390625,65.59117126464844,0.0,0.0
77.0,73.0,0.3,58.3785400390625,65.59117126464844,0.0,0.0
77.0,73.0,0.7,58.3785400390625,65.59117126464844,0.0,0.0
77.0,73.0,1.0,58.3785400390625,65.59117126464844,0.0,0.0
77.0,81.0,0.1,61.11517333984375,67.9613037109375,0.0,0.0
77.0,81.0,0.3,61.11517333984375,67.9613037109375,0.0,0.0
77.0,81.0,0.7,61.11517333984375,67.9613037109375,0.0,0.0
77.0,81.0,1.0,61.11517333984375,67.9613037109375,0.0,0.0
77.0,89.0,0.1,63.187381744384766,70.05259704589844,0.0,0.0
77.0,89.0,0.3,63.187381744384766,70.05259704589844,0.0,0.0
77.0,89.0,0.7,63.187381744384766,70.05259704589844,0.0,0.0
77.0,89.0,1.0,63.187381744384766,70.05259704589844,0.0,0.0
77.0,97.0,0.1,64.7685775756836,72.63475036621094,0.0,0.0
77.0,97.0,0.3,64.7685775756836,72.63475036621094,0.0,0.0
77.0,97.0,0.7,64.7685775756836,72.63475036621094,0.0,0.0
77.0,97.0,1.0,64.7685775756836,72.63475036621094,0.0,0.0
77.0,105.0,0.1,65.00050354003906,78.02635192871094,0.0,0.0
77.0,105.0,0.3,65.00050354003906,78.02635192871094,0.0,0.0
77.0,105.0,0.7,65.00050354003906,78.02635192871094,0.0,0.0
77.0,105.0,1.0,65.00050354003906,78.02635192871094,0.0,0.0
77.0,113.0,0.1,64.87701416015625,78.0823745727539,0.0,0.0
77.0,113.0,0.3,64.87701416015625,78.0823745727539,0.0,0.0
77.0,113.0,0.7,64.87701416015625,78.0823745727539,0.0,0.0
77.0,113.0,1.0,64.87701416015625,78.0823745727539,0.0,0.0
77.0,121.0,0.1,64.901611328125,77.77622985839844,0.0,0.0
77.0,121.0,0.3,64.901611328125,77.77622985839844,0.0,0.0
77.0,121.0,0.7,64.901611328125,77.77622985839844,0.0,0.0
77.0,121.0,1.0,64.901611328125,77.77622985839844,0.0,0.0
77.0,127.0,0.1,64.76851654052734,77.61488342285156,0.0,0.0
77.0,127.0,0.3,64.76851654052734,77.61488342285156,0.0,0.0
77.0,127.0,0.7,64.76851654052734,77.61488342285156,0.0,0.0
77.0,127.0,1.0,64.76851654052734,77.61488342285156,0.0,0.0
78.0,1.0,0.1,21.800254821777344,27.030548095703125,0.0,0.0
78.0,1.0,0.3,21.800254821777344,27.030548095703125,0.0,0.0
78.0,1.0,0.7,21.800254821777344,27.030548095703125,0.0,0.0
78.0,1.0,1.0,21.800254821777344,27.030548095703125,0.0,0.0
78.0,9.0,0.1,20.465660095214844,27.906524658203125,0.0,0.0
78.0,9.0,0.3,20.465660095214844,27.906524658203125,0.0,0.0
78.0,9.0,0.7,20.465660095214844,27.906524658203125,0.0,0.0
78.0,9.0,1.0,20.465660095214844,27.906524658203125,0.0,0.0
78.0,17.0,0.1,22.191162109375,31.23489761352539,0.0,0.0
78.0,17.0,0.3,22.191162109375,31.23489761352539,0.0,0.0
78.0,17.0,0.7,22.191162109375,31.23489761352539,0.0,0.0
78.0,17.0,1.0,22.191162109375,31.23489761352539,0.0,0.0
78.0,25.0,0.1,22.232200622558594,39.20770263671875,0.0,0.0
78.0,25.0,0.3,22.232200622558594,39.20770263671875,0.0,0.0
78.0,25.0,0.7,22.232200622558594,39.20770263671875,0.0,0.0
78.0,25.0,1.0,22.232200622558594,39.20770263671875,0.0,0.0
78.0,33.0,0.1,22.65998077392578,46.57869338989258,0.0,0.0
78.0,33.0,0.3,22.65998077392578,46.57869338989258,0.0,0.0
78.0,33.0,0.7,22.65998077392578,46.57869338989258,0.0,0.0
78.0,33.0,1.0,22.65998077392578,46.57869338989258,0.0,0.0
78.0,41.0,0.1,40.96229553222656,50.96875762939453,0.0,0.0
78.0,41.0,0.3,40.96229553222656,50.96875762939453,0.0,0.0
78.0,41.0,0.7,40.96229553222656,50.96875762939453,0.0,0.0
78.0,41.0,1.0,40.96229553222656,50.96875762939453,0.0,0.0
78.0,49.0,0.1,45.909481048583984,55.23137664794922,0.0,0.0
78.0,49.0,0.3,45.909481048583984,55.23137664794922,0.0,0.0
78.0,49.0,0.7,45.909481048583984,55.23137664794922,0.0,0.0
78.0,49.0,1.0,45.909481048583984,55.23137664794922,0.0,0.0
78.0,57.0,0.1,47.87931823730469,58.808372497558594,0.0,0.0
78.0,57.0,0.3,47.87931823730469,58.808372497558594,0.0,0.0
78.0,57.0,0.7,47.87931823730469,58.808372497558594,0.0,0.0
78.0,57.0,1.0,47.87931823730469,58.808372497558594,0.0,0.0
78.0,65.0,0.1,49.36016082763672,62.169273376464844,0.0,0.0
78.0,65.0,0.3,49.36016082763672,62.169273376464844,0.0,0.0
78.0,65.0,0.7,49.36016082763672,62.169273376464844,0.0,0.0
78.0,65.0,1.0,49.36016082763672,62.169273376464844,0.0,0.0
78.0,73.0,0.1,52.48578643798828,65.05265045166016,0.0,0.0
78.0,73.0,0.3,52.48578643798828,65.05265045166016,0.0,0.0
78.0,73.0,0.7,52.48578643798828,65.05265045166016,0.0,0.0
78.0,73.0,1.0,52.48578643798828,65.05265045166016,0.0,0.0
78.0,81.0,0.1,55.200557708740234,67.73535919189453,0.0,0.0
78.0,81.0,0.3,55.200557708740234,67.73535919189453,0.0,0.0
78.0,81.0,0.7,55.200557708740234,67.73535919189453,0.0,0.0
78.0,81.0,1.0,55.200557708740234,67.73535919189453,0.0,0.0
78.0,89.0,0.1,57.375362396240234,68.95692443847656,0.0,0.0
78.0,89.0,0.3,57.375362396240234,68.95692443847656,0.0,0.0
78.0,89.0,0.7,57.375362396240234,68.95692443847656,0.0,0.0
78.0,89.0,1.0,57.375362396240234,68.95692443847656,0.0,0.0
78.0,97.0,0.1,58.85393524169922,73.43411254882812,0.0,0.0
78.0,97.0,0.3,58.85393524169922,73.43411254882812,0.0,0.0
78.0,97.0,0.7,58.85393524169922,73.43411254882812,0.0,0.0
78.0,97.0,1.0,58.85393524169922,73.43411254882812,0.0,0.0
78.0,105.0,0.1,58.8098030090332,77.22731018066406,0.0,0.0
78.0,105.0,0.3,58.8098030090332,77.22731018066406,0.0,0.0
78.0,105.0,0.7,58.8098030090332,77.22731018066406,0.0,0.0
78.0,105.0,1.0,58.8098030090332,77.22731018066406,0.0,0.0
78.0,113.0,0.1,59.4622802734375,77.26321411132812,0.0,0.0
78.0,113.0,0.3,59.4622802734375,77.26321411132812,0.0,0.0
78.0,113.0,0.7,59.4622802734375,77.26321411132812,0.0,0.0
78.0,113.0,1.0,59.4622802734375,77.26321411132812,0.0,0.0
78.0,121.0,0.1,59.368141174316406,60.59144973754883,0.0,0.0
78.0,121.0,0.3,59.368141174316406,60.59144973754883,0.0,0.0
78.0,121.0,0.7,59.368141174316406,60.59144973754883,0.0,0.0
78.0,121.0,1.0,59.368141174316406,60.59144973754883,0.0,0.0
78.0,127.0,0.1,58.517051696777344,20.391014099121094,0.0,0.0
78.0,127.0,0.3,58.517051696777344,20.391014099121094,0.0,0.0
78.0,127.0,0.7,58.517051696777344,20.391014099121094,0.0,0.0
78.0,127.0,1.0,58.517051696777344,20.391014099121094,0.0,0.0
79.0,1.0,0.1,20.300674438476562,33.3565673828125,0.0,0.0
79.0,1.0,0.3,20.300674438476562,33.3565673828125,0.0,0.0
79.0,1.0,0.7,20.300674438476562,33.3565673828125,0.0,0.0
79.0,1.0,1.0,20.300674438476562,33.3565673828125,0.0,0.0
79.0,9.0,0.1,30.979782104492188,33.66896438598633,0.0,0.0
79.0,9.0,0.3,30.979782104492188,33.66896438598633,0.0,0.0
79.0,9.0,0.7,30.979782104492188,33.66896438598633,0.0,0.0
79.0,9.0,1.0,30.979782104492188,33.66896438598633,0.0,0.0
79.0,17.0,0.1,20.065353393554688,38.006656646728516,0.0,0.0
79.0,17.0,0.3,20.065353393554688,38.006656646728516,0.0,0.0
79.0,17.0,0.7,20.065353393554688,38.006656646728516,0.0,0.0
79.0,17.0,1.0,20.065353393554688,38.006656646728516,0.0,0.0
79.0,25.0,0.1,24.28765869140625,44.0627555847168,0.0,0.0
79.0,25.0,0.3,24.28765869140625,44.0627555847168,0.0,0.0
79.0,25.0,0.7,24.28765869140625,44.0627555847168,0.0,0.0
79.0,25.0,1.0,24.28765869140625,44.0627555847168,0.0,0.0
79.0,33.0,0.1,18.27227783203125,50.33106994628906,0.0,0.0
79.0,33.0,0.3,18.27227783203125,50.33106994628906,0.0,0.0
79.0,33.0,0.7,18.27227783203125,50.33106994628906,0.0,0.0
79.0,33.0,1.0,18.27227783203125,50.33106994628906,0.0,0.0
79.0,41.0,0.1,20.608497619628906,55.16899871826172,0.0,0.0
79.0,41.0,0.3,20.608497619628906,55.16899871826172,0.0,0.0
79.0,41.0,0.7,20.608497619628906,55.16899871826172,0.0,0.0
79.0,41.0,1.0,20.608497619628906,55.16899871826172,0.0,0.0
79.0,49.0,0.1,56.48931121826172,59.1888427734375,0.0,0.0
79.0,49.0,0.3,56.48931121826172,59.1888427734375,0.0,0.0
79.0,49.0,0.7,56.48931121826172,59.1888427734375,0.0,0.0
79.0,49.0,1.0,56.48931121826172,59.1888427734375,0.0,0.0
79.0,57.0,0.1,57.18635177612305,62.57443618774414,0.0,0.0
79.0,57.0,0.3,57.18635177612305,62.57443618774414,0.0,0.0
79.0,57.0,0.7,57.18635177612305,62.57443618774414,0.0,0.0
79.0,57.0,1.0,57.18635177612305,62.57443618774414,0.0,0.0
79.0,65.0,0.1,59.74263000488281,65.75447082519531,0.0,0.0
79.0,65.0,0.3,59.74263000488281,65.75447082519531,0.0,0.0
79.0,65.0,0.7,59.74263000488281,65.75447082519531,0.0,0.0
79.0,65.0,1.0,59.74263000488281,65.75447082519531,0.0,0.0
79.0,73.0,0.1,62.64722442626953,68.42036437988281,0.0,0.0
79.0,73.0,0.3,62.64722442626953,68.42036437988281,0.0,0.0
79.0,73.0,0.7,62.64722442626953,68.42036437988281,0.0,0.0
79.0,73.0,1.0,62.64722442626953,68.42036437988281,0.0,0.0
79.0,81.0,0.1,65.07665252685547,70.81050872802734,0.0,0.0
79.0,81.0,0.3,65.07665252685547,70.81050872802734,0.0,0.0
79.0,81.0,0.7,65.07665252685547,70.81050872802734,0.0,0.0
79.0,81.0,1.0,65.07665252685547,70.81050872802734,0.0,0.0
79.0,89.0,0.1,67.2704086303711,72.51359558105469,0.0,0.0
79.0,89.0,0.3,67.2704086303711,72.51359558105469,0.0,0.0
79.0,89.0,0.7,67.2704086303711,72.51359558105469,0.0,0.0
79.0,89.0,1.0,67.2704086303711,72.51359558105469,0.0,0.0
79.0,97.0,0.1,68.6754379272461,77.25973510742188,0.0,0.0
79.0,97.0,0.3,68.6754379272461,77.25973510742188,0.0,0.0
79.0,97.0,0.7,68.6754379272461,77.25973510742188,0.0,0.0
79.0,97.0,1.0,68.6754379272461,77.25973510742188,0.0,0.0
79.0,105.0,0.1,68.95500183105469,79.14061737060547,0.0,0.0
79.0,105.0,0.3,68.95500183105469,79.14061737060547,0.0,0.0
79.0,105.0,0.7,68.95500183105469,79.14061737060547,0.0,0.0
79.0,105.0,1.0,68.95500183105469,79.14061737060547,0.0,0.0
79.0,113.0,0.1,69.02161407470703,79.18977355957031,0.0,0.0
79.0,113.0,0.3,69.02161407470703,79.18977355957031,0.0,0.0
79.0,113.0,0.7,69.02161407470703,79.18977355957031,0.0,0.0
79.0,113.0,1.0,69.02161407470703,79.18977355957031,0.0,0.0
79.0,121.0,0.1,68.94671630859375,79.10116577148438,0.0,0.0
79.0,121.0,0.3,68.94671630859375,79.10116577148438,0.0,0.0
79.0,121.0,0.7,68.94671630859375,79.10116577148438,0.0,0.0
79.0,121.0,1.0,68.94671630859375,79.10116577148438,0.0,0.0
79.0,127.0,0.1,68.7780990600586,79.05573272705078,0.0,0.0
79.0,127.0,0.3,68.7780990600586,79.05573272705078,0.0,0.0
79.0,127.0,0.7,68.7780990600586,79.05573272705078,0.0,0.0
79.0,127.0,1.0,68.7780990600586,79.05573272705078,0.0,0.0
80.0,1.0,0.1,21.552001953125,42.12614440917969,0.0,0.0
80.0,1.0,0.3,21.552001953125,42.12614440917969,0.0,0.0
80.0,1.0,0.7,21.552001953125,42.12614440917969,0.0,0.0
80.0,1.0,1.0,21.552001953125,42.12614440917969,0.0,0.0
80.0,9.0,0.1,23.451499938964844,41.84592056274414,0.0,0.0
80.0,9.0,0.3,23.451499938964844,41.84592056274414,0.0,0.0
80.0,9.0,0.7,23.451499938964844,41.84592056274414,0.0,0.0
80.0,9.0,1.0,23.451499938964844,41.84592056274414,0.0,0.0
80.0,17.0,0.1,23.376907348632812,48.07543182373047,0.0,0.0
80.0,17.0,0.3,23.376907348632812,48.07543182373047,0.0,0.0
80.0,17.0,0.7,23.376907348632812,48.07543182373047,0.0,0.0
80.0,17.0,1.0,23.376907348632812,48.07543182373047,0.0,0.0
80.0,25.0,0.1,25.952499389648438,55.05760192871094,0.0,0.0
80.0,25.0,0.3,25.952499389648438,55.05760192871094,0.0,0.0
80.0,25.0,0.7,25.952499389648438,55.05760192871094,0.0,0.0
80.0,25.0,1.0,25.952499389648438,55.05760192871094,0.0,0.0
80.0,33.0,0.1,46.21583938598633,59.80998611450195,0.0,0.0
80.0,33.0,0.3,46.21583938598633,59.80998611450195,0.0,0.0
80.0,33.0,0.7,46.21583938598633,59.80998611450195,0.0,0.0
80.0,33.0,1.0,46.21583938598633,59.80998611450195,0.0,0.0
80.0,41.0,0.1,52.49831008911133,63.69178771972656,0.0,0.0
80.0,41.0,0.3,52.49831008911133,63.69178771972656,0.0,0.0
80.0,41.0,0.7,52.49831008911133,63.69178771972656,0.0,0.0
80.0,41.0,1.0,52.49831008911133,63.69178771972656,0.0,0.0
80.0,49.0,0.1,55.16301727294922,67.26376342773438,0.0,0.0
80.0,49.0,0.3,55.16301727294922,67.26376342773438,0.0,0.0
80.0,49.0,0.7,55.16301727294922,67.26376342773438,0.0,0.0
80.0,49.0,1.0,55.16301727294922,67.26376342773438,0.0,0.0
80.0,57.0,0.1,56.843177795410156,70.60829162597656,0.0,0.0
80.0,57.0,0.3,56.843177795410156,70.60829162597656,0.0,0.0
80.0,57.0,0.7,56.843177795410156,70.60829162597656,0.0,0.0
80.0,57.0,1.0,56.843177795410156,70.60829162597656,0.0,0.0
80.0,65.0,0.1,59.56052780151367,73.75334930419922,0.0,0.0
80.0,65.0,0.3,59.56052780151367,73.75334930419922,0.0,0.0
80.0,65.0,0.7,59.56052780151367,73.75334930419922,0.0,0.0
80.0,65.0,1.0,59.56052780151367,73.75334930419922,0.0,0.0
80.0,73.0,0.1,61.961997985839844,76.31735229492188,0.0,0.0
80.0,73.0,0.3,61.961997985839844,76.31735229492188,0.0,0.0
80.0,73.0,0.7,61.961997985839844,76.31735229492188,0.0,0.0
80.0,73.0,1.0,61.961997985839844,76.31735229492188,0.0,0.0
80.0,81.0,0.1,64.41651153564453,79.17938232421875,0.0,0.0
80.0,81.0,0.3,64.41651153564453,79.17938232421875,0.0,0.0
80.0,81.0,0.7,64.41651153564453,79.17938232421875,0.0,0.0
80.0,81.0,1.0,64.41651153564453,79.17938232421875,0.0,0.0
80.0,89.0,0.1,66.26937866210938,81.69818115234375,0.0,0.0
80.0,89.0,0.3,66.26937866210938,81.69818115234375,0.0,0.0
80.0,89.0,0.7,66.26937866210938,81.69818115234375,0.0,0.0
80.0,89.0,1.0,66.26937866210938,81.69818115234375,0.0,0.0
80.0,97.0,0.1,67.39456939697266,84.71990203857422,0.0,0.0
80.0,97.0,0.3,67.39456939697266,84.71990203857422,0.0,0.0
80.0,97.0,0.7,67.39456939697266,84.71990203857422,0.0,0.0
80.0,97.0,1.0,67.39456939697266,84.71990203857422,0.0,0.0
80.0,105.0,0.1,67.5470962524414,87.24967956542969,0.0,0.0
80.0,105.0,0.3,67.5470962524414,87.24967956542969,0.0,0.0
80.0,105.0,0.7,67.5470962524414,87.24967956542969,0.0,0.0
80.0,105.0,1.0,67.5470962524414,87.24967956542969,0.0,0.0
80.0,113.0,0.1,67.502685546875,87.41036224365234,0.0,0.0
80.0,113.0,0.3,67.502685546875,87.41036224365234,0.0,0.0
80.0,113.0,0.7,67.502685546875,87.41036224365234,0.0,0.0
80.0,113.0,1.0,67.502685546875,87.41036224365234,0.0,0.0
80.0,121.0,0.1,67.38645935058594,87.3019027709961,0.0,0.0
80.0,121.0,0.3,67.38645935058594,87.3019027709961,0.0,0.0
80.0,121.0,0.7,67.38645935058594,87.3019027709961,0.0,0.0
80.0,121.0,1.0,67.38645935058594,87.3019027709961,0.0,0.0
80.0,127.0,0.1,67.4594497680664,87.28788757324219,0.0,0.0
80.0,127.0,0.3,67.4594497680664,87.28788757324219,0.0,0.0
80.0,127.0,0.7,67.4594497680664,87.28788757324219,0.0,0.0
80.0,127.0,1.0,67.4594497680664,87.28788757324219,0.0,0.0
81.0,1.0,0.1,23.93731689453125,27.05779266357422,0.0,0.0
81.0,1.0,0.3,23.93731689453125,27.05779266357422,0.0,0.0
81.0,1.0,0.7,23.93731689453125,27.05779266357422,0.0,0.0
81.0,1.0,1.0,23.93731689453125,27.05779266357422,0.0,0.0
81.0,9.0,0.1,23.204307556152344,28.200149536132812,0.0,0.0
81.0,9.0,0.3,23.204307556152344,28.200149536132812,0.0,0.0
81.0,9.0,0.7,23.204307556152344,28.200149536132812,0.0,0.0
81.0,9.0,1.0,23.204307556152344,28.200149536132812,0.0,0.0
81.0,17.0,0.1,25.47423553466797,27.010421752929688,0.0,0.0
81.0,17.0,0.3,25.47423553466797,27.010421752929688,0.0,0.0
81.0,17.0,0.7,25.47423553466797,27.010421752929688,0.0,0.0
81.0,17.0,1.0,25.47423553466797,27.010421752929688,0.0,0.0
81.0,25.0,0.1,24.452850341796875,36.549842834472656,0.0,0.0
81.0,25.0,0.3,24.452850341796875,36.549842834472656,0.0,0.0
81.0,25.0,0.7,24.452850341796875,36.549842834472656,0.0,0.0
81.0,25.0,1.0,24.452850341796875,36.549842834472656,0.0,0.0
81.0,33.0,0.1,47.9027214050293,44.030372619628906,0.0,0.0
81.0,33.0,0.3,47.9027214050293,44.030372619628906,0.0,0.0
81.0,33.0,0.7,47.9027214050293,44.030372619628906,0.0,0.0
81.0,33.0,1.0,47.9027214050293,44.030372619628906,0.0,0.0
81.0,41.0,0.1,53.71513748168945,49.67427062988281,0.0,0.0
81.0,41.0,0.3,53.71513748168945,49.67427062988281,0.0,0.0
81.0,41.0,0.7,53.71513748168945,49.67427062988281,0.0,0.0
81.0,41.0,1.0,53.71513748168945,49.67427062988281,0.0,0.0
81.0,49.0,0.1,55.35834884643555,54.10419464111328,0.0,0.0
81.0,49.0,0.3,55.35834884643555,54.10419464111328,0.0,0.0
81.0,49.0,0.7,55.35834884643555,54.10419464111328,0.0,0.0
81.0,49.0,1.0,55.35834884643555,54.10419464111328,0.0,0.0
81.0,57.0,0.1,56.028018951416016,58.20086669921875,0.0,0.0
81.0,57.0,0.3,56.028018951416016,58.20086669921875,0.0,0.0
81.0,57.0,0.7,56.028018951416016,58.20086669921875,0.0,0.0
81.0,57.0,1.0,56.028018951416016,58.20086669921875,0.0,0.0
81.0,65.0,0.1,58.1228141784668,62.0089111328125,0.0,0.0
81.0,65.0,0.3,58.1228141784668,62.0089111328125,0.0,0.0
81.0,65.0,0.7,58.1228141784668,62.0089111328125,0.0,0.0
81.0,65.0,1.0,58.1228141784668,62.0089111328125,0.0,0.0
81.0,73.0,0.1,60.73491668701172,64.52265930175781,0.0,0.0
81.0,73.0,0.3,60.73491668701172,64.52265930175781,0.0,0.0
81.0,73.0,0.7,60.73491668701172,64.52265930175781,0.0,0.0
81.0,73.0,1.0,60.73491668701172,64.52265930175781,0.0,0.0
81.0,81.0,0.1,63.65321731567383,66.71907806396484,0.0,0.0
81.0,81.0,0.3,63.65321731567383,66.71907806396484,0.0,0.0
81.0,81.0,0.7,63.65321731567383,66.71907806396484,0.0,0.0
81.0,81.0,1.0,63.65321731567383,66.71907806396484,0.0,0.0
81.0,89.0,0.1,67.00299835205078,69.6260757446289,0.0,0.0
81.0,89.0,0.3,67.00299835205078,69.6260757446289,0.0,0.0
81.0,89.0,0.7,67.00299835205078,69.6260757446289,0.0,0.0
81.0,89.0,1.0,67.00299835205078,69.6260757446289,0.0,0.0
81.0,97.0,0.1,68.06031799316406,73.05880737304688,0.0,0.0
81.0,97.0,0.3,68.06031799316406,73.05880737304688,0.0,0.0
81.0,97.0,0.7,68.06031799316406,73.05880737304688,0.0,0.0
81.0,97.0,1.0,68.06031799316406,73.05880737304688,0.0,0.0
81.0,105.0,0.1,68.01045989990234,76.09251403808594,0.0,0.0
81.0,105.0,0.3,68.01045989990234,76.09251403808594,0.0,0.0
81.0,105.0,0.7,68.01045989990234,76.09251403808594,0.0,0.0
81.0,105.0,1.0,68.01045989990234,76.09251403808594,0.0,0.0
81.0,113.0,0.1,67.85800170898438,75.1767578125,0.0,0.0
81.0,113.0,0.3,67.85800170898438,75.1767578125,0.0,0.0
81.0,113.0,0.7,67.85800170898438,75.1767578125,0.0,0.0
81.0,113.0,1.0,67.85800170898438,75.1767578125,0.0,0.0
81.0,121.0,0.1,67.73712921142578,74.37611389160156,0.0,0.0
81.0,121.0,0.3,67.73712921142578,74.37611389160156,0.0,0.0
81.0,121.0,0.7,67.73712921142578,74.37611389160156,0.0,0.0
81.0,121.0,1.0,67.73712921142578,74.37611389160156,0.0,0.0
81.0,127.0,0.1,67.71122741699219,74.04386901855469,0.0,0.0
81.0,127.0,0.3,67.71122741699219,74.04386901855469,0.0,0.0
81.0,127.0,0.7,67.71122741699219,74.04386901855469,0.0,0.0
81.0,127.0,1.0,67.71122741699219,74.04386901855469,0.0,0.0
82.0,1.0,0.1,22.49114227294922,32.559261322021484,0.0,0.0
82.0,1.0,0.3,22.49114227294922,32.559261322021484,0.0,0.0
82.0,1.0,0.7,22.49114227294922,32.559261322021484,0.0,0.0
82.0,1.0,1.0,22.49114227294922,32.559261322021484,0.0,0.0
82.0,9.0,0.1,25.17095184326172,33.688209533691406,0.0,0.0
82.0,9.0,0.3,25.17095184326172,33.688209533691406,0.0,0.0
82.0,9.0,0.7,25.17095184326172,33.688209533691406,0.0,0.0
82.0,9.0,1.0,25.17095184326172,33.688209533691406,0.0,0.0
82.0,17.0,0.1,37.238677978515625,38.540855407714844,0.0,0.0
82.0,17.0,0.3,37.238677978515625,38.540855407714844,0.0,0.0
82.0,17.0,0.7,37.238677978515625,38.540855407714844,0.0,0.0
82.0,17.0,1.0,37.238677978515625,38.540855407714844,0.0,0.0
82.0,25.0,0.1,45.08072280883789,50.24622344970703,0.0,0.0
82.0,25.0,0.3,45.08072280883789,50.24622344970703,0.0,0.0
82.0,25.0,0.7,45.08072280883789,50.24622344970703,0.0,0.0
82.0,25.0,1.0,45.08072280883789,50.24622344970703,0.0,0.0
82.0,33.0,0.1,22.503585815429688,58.69729232788086,0.0,0.0
82.0,33.0,0.3,22.503585815429688,58.69729232788086,0.0,0.0
82.0,33.0,0.7,22.503585815429688,58.69729232788086,0.0,0.0
82.0,33.0,1.0,22.503585815429688,58.69729232788086,0.0,0.0
82.0,41.0,0.1,48.38155746459961,63.17360305786133,0.0,0.0
82.0,41.0,0.3,48.38155746459961,63.17360305786133,0.0,0.0
82.0,41.0,0.7,48.38155746459961,63.17360305786133,0.0,0.0
82.0,41.0,1.0,48.38155746459961,63.17360305786133,0.0,0.0
82.0,49.0,0.1,51.573081970214844,66.88380432128906,0.0,0.0
82.0,49.0,0.3,51.573081970214844,66.88380432128906,0.0,0.0
82.0,49.0,0.7,51.573081970214844,66.88380432128906,0.0,0.0
82.0,49.0,1.0,51.573081970214844,66.88380432128906,0.0,0.0
82.0,57.0,0.1,54.01560592651367,70.58860778808594,0.0,0.0
82.0,57.0,0.3,54.01560592651367,70.58860778808594,0.0,0.0
82.0,57.0,0.7,54.01560592651367,70.58860778808594,0.0,0.0
82.0,57.0,1.0,54.01560592651367,70.58860778808594,0.0,0.0
82.0,65.0,0.1,56.49119567871094,73.84449768066406,0.0,0.0
82.0,65.0,0.3,56.49119567871094,73.84449768066406,0.0,0.0
82.0,65.0,0.7,56.49119567871094,73.84449768066406,0.0,0.0
82.0,65.0,1.0,56.49119567871094,73.84449768066406,0.0,0.0
82.0,73.0,0.1,59.41676330566406,76.52745056152344,0.0,0.0
82.0,73.0,0.3,59.41676330566406,76.52745056152344,0.0,0.0
82.0,73.0,0.7,59.41676330566406,76.52745056152344,0.0,0.0
82.0,73.0,1.0,59.41676330566406,76.52745056152344,0.0,0.0
82.0,81.0,0.1,61.73384475708008,79.19503784179688,0.0,0.0
82.0,81.0,0.3,61.73384475708008,79.19503784179688,0.0,0.0
82.0,81.0,0.7,61.73384475708008,79.19503784179688,0.0,0.0
82.0,81.0,1.0,61.73384475708008,79.19503784179688,0.0,0.0
82.0,89.0,0.1,63.49538803100586,81.3665771484375,0.0,0.0
82.0,89.0,0.3,63.49538803100586,81.3665771484375,0.0,0.0
82.0,89.0,0.7,63.49538803100586,81.3665771484375,0.0,0.0
82.0,89.0,1.0,63.49538803100586,81.3665771484375,0.0,0.0
82.0,97.0,0.1,64.59239196777344,83.92351531982422,0.0,0.0
82.0,97.0,0.3,64.59239196777344,83.92351531982422,0.0,0.0
82.0,97.0,0.7,64.59239196777344,83.92351531982422,0.0,0.0
82.0,97.0,1.0,64.59239196777344,83.92351531982422,0.0,0.0
82.0,105.0,0.1,64.56661987304688,88.01302337646484,0.0,0.0
82.0,105.0,0.3,64.56661987304688,88.01302337646484,0.0,0.0
82.0,105.0,0.7,64.56661987304688,88.01302337646484,0.0,0.0
82.0,105.0,1.0,64.56661987304688,88.01302337646484,0.0,0.0
82.0,113.0,0.1,64.49992370605469,87.72693634033203,0.0,0.0
82.0,113.0,0.3,64.49992370605469,87.72693634033203,0.0,0.0
82.0,113.0,0.7,64.49992370605469,87.72693634033203,0.0,0.0
82.0,113.0,1.0,64.49992370605469,87.72693634033203,0.0,0.0
82.0,121.0,0.1,64.44139099121094,87.7001724243164,0.0,0.0
82.0,121.0,0.3,64.44139099121094,87.7001724243164,0.0,0.0
82.0,121.0,0.7,64.44139099121094,87.7001724243164,0.0,0.0
82.0,121.0,1.0,64.44139099121094,87.7001724243164,0.0,0.0
82.0,127.0,0.1,64.49696350097656,87.07009887695312,0.0,0.0
82.0,127.0,0.3,64.49696350097656,87.07009887695312,0.0,0.0
82.0,127.0,0.7,64.49696350097656,87.07009887695312,0.0,0.0
82.0,127.0,1.0,64.49696350097656,87.07009887695312,0.0,0.0
83.0,1.0,0.1,23.3690185546875,27.903648376464844,0.0,0.0
83.0,1.0,0.3,23.3690185546875,27.903648376464844,0.0,0.0
83.0,1.0,0.7,23.3690185546875,27.903648376464844,0.0,0.0
83.0,1.0,1.0,23.3690185546875,27.903648376464844,0.0,0.0
83.0,9.0,0.1,23.727928161621094,29.110595703125,0.0,0.0
83.0,9.0,0.3,23.727928161621094,29.110595703125,0.0,0.0
83.0,9.0,0.7,23.727928161621094,29.110595703125,0.0,0.0
83.0,9.0,1.0,23.727928161621094,29.110595703125,0.0,0.0
83.0,17.0,0.1,23.88117218017578,29.03040313720703,0.0,0.0
83.0,17.0,0.3,23.88117218017578,29.03040313720703,0.0,0.0
83.0,17.0,0.7,23.88117218017578,29.03040313720703,0.0,0.0
83.0,17.0,1.0,23.88117218017578,29.03040313720703,0.0,0.0
83.0,25.0,0.1,24.270164489746094,34.38021469116211,0.0,0.0
83.0,25.0,0.3,24.270164489746094,34.38021469116211,0.0,0.0
83.0,25.0,0.7,24.270164489746094,34.38021469116211,0.0,0.0
83.0,25.0,1.0,24.270164489746094,34.38021469116211,0.0,0.0
83.0,33.0,0.1,41.5635871887207,40.851593017578125,0.0,0.0
83.0,33.0,0.3,41.5635871887207,40.851593017578125,0.0,0.0
83.0,33.0,0.7,41.5635871887207,40.851593017578125,0.0,0.0
83.0,33.0,1.0,41.5635871887207,40.851593017578125,0.0,0.0
83.0,41.0,0.1,46.912235260009766,47.38835144042969,0.0,0.0
83.0,41.0,0.3,46.912235260009766,47.38835144042969,0.0,0.0
83.0,41.0,0.7,46.912235260009766,47.38835144042969,0.0,0.0
83.0,41.0,1.0,46.912235260009766,47.38835144042969,0.0,0.0
83.0,49.0,0.1,48.558467864990234,50.73887634277344,0.0,0.0
83.0,49.0,0.3,48.558467864990234,50.73887634277344,0.0,0.0
83.0,49.0,0.7,48.558467864990234,50.73887634277344,0.0,0.0
83.0,49.0,1.0,48.558467864990234,50.73887634277344,0.0,0.0
83.0,57.0,0.1,50.713443756103516,54.617496490478516,0.0,0.0
83.0,57.0,0.3,50.713443756103516,54.617496490478516,0.0,0.0
83.0,57.0,0.7,50.713443756103516,54.617496490478516,0.0,0.0
83.0,57.0,1.0,50.713443756103516,54.617496490478516,0.0,0.0
83.0,65.0,0.1,53.408973693847656,58.03281784057617,0.0,0.0
83.0,65.0,0.3,53.408973693847656,58.03281784057617,0.0,0.0
83.0,65.0,0.7,53.408973693847656,58.03281784057617,0.0,0.0
83.0,65.0,1.0,53.408973693847656,58.03281784057617,0.0,0.0
83.0,73.0,0.1,55.925086975097656,60.97947692871094,0.0,0.0
83.0,73.0,0.3,55.925086975097656,60.97947692871094,0.0,0.0
83.0,73.0,0.7,55.925086975097656,60.97947692871094,0.0,0.0
83.0,73.0,1.0,55.925086975097656,60.97947692871094,0.0,0.0
83.0,81.0,0.1,58.21210479736328,63.26813507080078,0.0,0.0
83.0,81.0,0.3,58.21210479736328,63.26813507080078,0.0,0.0
83.0,81.0,0.7,58.21210479736328,63.26813507080078,0.0,0.0
83.0,81.0,1.0,58.21210479736328,63.26813507080078,0.0,0.0
83.0,89.0,0.1,60.625038146972656,65.65495300292969,0.0,0.0
83.0,89.0,0.3,60.625038146972656,65.65495300292969,0.0,0.0
83.0,89.0,0.7,60.625038146972656,65.65495300292969,0.0,0.0
83.0,89.0,1.0,60.625038146972656,65.65495300292969,0.0,0.0
83.0,97.0,0.1,62.217254638671875,68.3238525390625,0.0,0.0
83.0,97.0,0.3,62.217254638671875,68.3238525390625,0.0,0.0
83.0,97.0,0.7,62.217254638671875,68.3238525390625,0.0,0.0
83.0,97.0,1.0,62.217254638671875,68.3238525390625,0.0,0.0
83.0,105.0,0.1,62.486663818359375,71.53971099853516,0.0,0.0
83.0,105.0,0.3,62.486663818359375,71.53971099853516,0.0,0.0
83.0,105.0,0.7,62.486663818359375,71.53971099853516,0.0,0.0
83.0,105.0,1.0,62.486663818359375,71.53971099853516,0.0,0.0
83.0,113.0,0.1,62.369049072265625,72.66737365722656,0.0,0.0
83.0,113.0,0.3,62.369049072265625,72.66737365722656,0.0,0.0
83.0,113.0,0.7,62.369049072265625,72.66737365722656,0.0,0.0
83.0,113.0,1.0,62.369049072265625,72.66737365722656,0.0,0.0
83.0,121.0,0.1,62.42544937133789,72.24595642089844,0.0,0.0
83.0,121.0,0.3,62.42544937133789,72.24595642089844,0.0,0.0
83.0,121.0,0.7,62.42544937133789,72.24595642089844,0.0,0.0
83.0,121.0,1.0,62.42544937133789,72.24595642089844,0.0,0.0
83.0,127.0,0.1,62.23870849609375,72.223876953125,0.0,0.0
83.0,127.0,0.3,62.23870849609375,72.223876953125,0.0,0.0
83.0,127.0,0.7,62.23870849609375,72.223876953125,0.0,0.0
83.0,127.0,1.0,62.23870849609375,72.223876953125,0.0,0.0
84.0,1.0,0.1,55.30003356933594,30.56853485107422,0.0,0.0
84.0,1.0,0.3,55.30003356933594,30.56853485107422,0.0,0.0
84.0,1.0,0.7,55.30003356933594,30.56853485107422,0.0,0.0
84.0,1.0,1.0,55.30003356933594,30.56853485107422,0.0,0.0
84.0,9.0,0.1,26.04717254638672,30.270275115966797,0.0,0.0
84.0,9.0,0.3,26.04717254638672,30.270275115966797,0.0,0.0
84.0,9.0,0.7,26.04717254638672,30.270275115966797,0.0,0.0
84.0,9.0,1.0,26.04717254638672,30.270275115966797,0.0,0.0
84.0,17.0,0.1,50.58652877807617,31.49175262451172,0.0,0.0
84.0,17.0,0.3,50.58652877807617,31.49175262451172,0.0,0.0
84.0,17.0,0.7,50.58652877807617,31.49175262451172,0.0,0.0
84.0,17.0,1.0,50.58652877807617,31.49175262451172,0.0,0.0
84.0,25.0,0.1,44.04063415527344,43.07126998901367,0.0,0.0
84.0,25.0,0.3,44.04063415527344,43.07126998901367,0.0,0.0
84.0,25.0,0.7,44.04063415527344,43.07126998901367,0.0,0.0
84.0,25.0,1.0,44.04063415527344,43.07126998901367,0.0,0.0
84.0,33.0,0.1,40.13740539550781,49.50397491455078,0.0,0.0
84.0,33.0,0.3,40.13740539550781,49.50397491455078,0.0,0.0
84.0,33.0,0.7,40.13740539550781,49.50397491455078,0.0,0.0
84.0,33.0,1.0,40.13740539550781,49.50397491455078,0.0,0.0
84.0,41.0,0.1,53.923545837402344,54.914710998535156,0.0,0.0
84.0,41.0,0.3,53.923545837402344,54.914710998535156,0.0,0.0
84.0,41.0,0.7,53.923545837402344,54.914710998535156,0.0,0.0
84.0,41.0,1.0,53.923545837402344,54.914710998535156,0.0,0.0
84.0,49.0,0.1,55.23219299316406,59.82847213745117,0.0,0.0
84.0,49.0,0.3,55.23219299316406,59.82847213745117,0.0,0.0
84.0,49.0,0.7,55.23219299316406,59.82847213745117,0.0,0.0
84.0,49.0,1.0,55.23219299316406,59.82847213745117,0.0,0.0
84.0,57.0,0.1,55.82672119140625,63.292694091796875,0.0,0.0
84.0,57.0,0.3,55.82672119140625,63.292694091796875,0.0,0.0
84.0,57.0,0.7,55.82672119140625,63.292694091796875,0.0,0.0
84.0,57.0,1.0,55.82672119140625,63.292694091796875,0.0,0.0
84.0,65.0,0.1,59.49140548706055,66.83404541015625,0.0,0.0
84.0,65.0,0.3,59.49140548706055,66.83404541015625,0.0,0.0
84.0,65.0,0.7,59.49140548706055,66.83404541015625,0.0,0.0
84.0,65.0,1.0,59.49140548706055,66.83404541015625,0.0,0.0
84.0,73.0,0.1,63.66558837890625,70.26814270019531,0.0,0.0
84.0,73.0,0.3,63.66558837890625,70.26814270019531,0.0,0.0
84.0,73.0,0.7,63.66558837890625,70.26814270019531,0.0,0.0
84.0,73.0,1.0,63.66558837890625,70.26814270019531,0.0,0.0
84.0,81.0,0.1,66.22064971923828,73.05790710449219,0.0,0.0
84.0,81.0,0.3,66.22064971923828,73.05790710449219,0.0,0.0
84.0,81.0,0.7,66.22064971923828,73.05790710449219,0.0,0.0
84.0,81.0,1.0,66.22064971923828,73.05790710449219,0.0,0.0
84.0,89.0,0.1,68.26190948486328,75.24766540527344,0.0,0.0
84.0,89.0,0.3,68.26190948486328,75.24766540527344,0.0,0.0
84.0,89.0,0.7,68.26190948486328,75.24766540527344,0.0,0.0
84.0,89.0,1.0,68.26190948486328,75.24766540527344,0.0,0.0
84.0,97.0,0.1,70.10538482666016,77.87032318115234,0.0,0.0
84.0,97.0,0.3,70.10538482666016,77.87032318115234,0.0,0.0
84.0,97.0,0.7,70.10538482666016,77.87032318115234,0.0,0.0
84.0,97.0,1.0,70.10538482666016,77.87032318115234,0.0,0.0
84.0,105.0,0.1,70.03041076660156,81.80789947509766,0.0,0.0
84.0,105.0,0.3,70.03041076660156,81.80789947509766,0.0,0.0
84.0,105.0,0.7,70.03041076660156,81.80789947509766,0.0,0.0
84.0,105.0,1.0,70.03041076660156,81.80789947509766,0.0,0.0
84.0,113.0,0.1,69.87134552001953,81.59748840332031,0.0,0.0
84.0,113.0,0.3,69.87134552001953,81.59748840332031,0.0,0.0
84.0,113.0,0.7,69.87134552001953,81.59748840332031,0.0,0.0
84.0,113.0,1.0,69.87134552001953,81.59748840332031,0.0,0.0
84.0,121.0,0.1,69.72975158691406,82.30006408691406,0.0,0.0
84.0,121.0,0.3,69.72975158691406,82.30006408691406,0.0,0.0
84.0,121.0,0.7,69.72975158691406,82.30006408691406,0.0,0.0
84.0,121.0,1.0,69.72975158691406,82.30006408691406,0.0,0.0
84.0,127.0,0.1,69.7650375366211,82.30305480957031,0.0,0.0
84.0,127.0,0.3,69.7650375366211,82.30305480957031,0.0,0.0
84.0,127.0,0.7,69.7650375366211,82.30305480957031,0.0,0.0
84.0,127.0,1.0,69.7650375366211,82.30305480957031,0.0,0.0
85.0,1.0,0.1,43.147281646728516,23.97150421142578,0.0,0.0
85.0,1.0,0.3,43.147281646728516,23.97150421142578,0.0,0.0
85.0,1.0,0.7,43.147281646728516,23.97150421142578,0.0,0.0
85.0,1.0,1.0,43.147281646728516,23.97150421142578,0.0,0.0
85.0,9.0,0.1,21.893280029296875,27.356063842773438,0.0,0.0
85.0,9.0,0.3,21.893280029296875,27.356063842773438,0.0,0.0
85.0,9.0,0.7,21.893280029296875,27.356063842773438,0.0,0.0
85.0,9.0,1.0,21.893280029296875,27.356063842773438,0.0,0.0
85.0,17.0,0.1,20.556381225585938,27.02765655517578,0.0,0.0
85.0,17.0,0.3,20.556381225585938,27.02765655517578,0.0,0.0
85.0,17.0,0.7,20.556381225585938,27.02765655517578,0.0,0.0
85.0,17.0,1.0,20.556381225585938,27.02765655517578,0.0,0.0
85.0,25.0,0.1,23.080291748046875,27.85468292236328,0.0,0.0
85.0,25.0,0.3,23.080291748046875,27.85468292236328,0.0,0.0
85.0,25.0,0.7,23.080291748046875,27.85468292236328,0.0,0.0
85.0,25.0,1.0,23.080291748046875,27.85468292236328,0.0,0.0
85.0,33.0,0.1,42.93449401855469,37.703006744384766,0.0,0.0
85.0,33.0,0.3,42.93449401855469,37.703006744384766,0.0,0.0
85.0,33.0,0.7,42.93449401855469,37.703006744384766,0.0,0.0
85.0,33.0,1.0,42.93449401855469,37.703006744384766,0.0,0.0
85.0,41.0,0.1,45.00959396362305,44.257240295410156,0.0,0.0
85.0,41.0,0.3,45.00959396362305,44.257240295410156,0.0,0.0
85.0,41.0,0.7,45.00959396362305,44.257240295410156,0.0,0.0
85.0,41.0,1.0,45.00959396362305,44.257240295410156,0.0,0.0
85.0,49.0,0.1,49.30754089355469,50.346595764160156,0.0,0.0
85.0,49.0,0.3,49.30754089355469,50.346595764160156,0.0,0.0
85.0,49.0,0.7,49.30754089355469,50.346595764160156,0.0,0.0
85.0,49.0,1.0,49.30754089355469,50.346595764160156,0.0,0.0
85.0,57.0,0.1,50.58264923095703,54.42739486694336,0.0,0.0
85.0,57.0,0.3,50.58264923095703,54.42739486694336,0.0,0.0
85.0,57.0,0.7,50.58264923095703,54.42739486694336,0.0,0.0
85.0,57.0,1.0,50.58264923095703,54.42739486694336,0.0,0.0
85.0,65.0,0.1,53.50632095336914,57.64591598510742,0.0,0.0
85.0,65.0,0.3,53.50632095336914,57.64591598510742,0.0,0.0
85.0,65.0,0.7,53.50632095336914,57.64591598510742,0.0,0.0
85.0,65.0,1.0,53.50632095336914,57.64591598510742,0.0,0.0
85.0,73.0,0.1,55.74251174926758,60.79464340209961,0.0,0.0
85.0,73.0,0.3,55.74251174926758,60.79464340209961,0.0,0.0
85.0,73.0,0.7,55.74251174926758,60.79464340209961,0.0,0.0
85.0,73.0,1.0,55.74251174926758,60.79464340209961,0.0,0.0
85.0,81.0,0.1,58.30512237548828,63.70996856689453,0.0,0.0
85.0,81.0,0.3,58.30512237548828,63.70996856689453,0.0,0.0
85.0,81.0,0.7,58.30512237548828,63.70996856689453,0.0,0.0
85.0,81.0,1.0,58.30512237548828,63.70996856689453,0.0,0.0
85.0,89.0,0.1,60.772422790527344,66.2703857421875,0.0,0.0
85.0,89.0,0.3,60.772422790527344,66.2703857421875,0.0,0.0
85.0,89.0,0.7,60.772422790527344,66.2703857421875,0.0,0.0
85.0,89.0,1.0,60.772422790527344,66.2703857421875,0.0,0.0
85.0,97.0,0.1,62.09565734863281,70.50457000732422,0.0,0.0
85.0,97.0,0.3,62.09565734863281,70.50457000732422,0.0,0.0
85.0,97.0,0.7,62.09565734863281,70.50457000732422,0.0,0.0
85.0,97.0,1.0,62.09565734863281,70.50457000732422,0.0,0.0
85.0,105.0,0.1,62.410858154296875,73.63224029541016,0.0,0.0
85.0,105.0,0.3,62.410858154296875,73.63224029541016,0.0,0.0
85.0,105.0,0.7,62.410858154296875,73.63224029541016,0.0,0.0
85.0,105.0,1.0,62.410858154296875,73.63224029541016,0.0,0.0
85.0,113.0,0.1,62.39994812011719,76.74797058105469,0.0,0.0
85.0,113.0,0.3,62.39994812011719,76.74797058105469,0.0,0.0
85.0,113.0,0.7,62.39994812011719,76.74797058105469,0.0,0.0
85.0,113.0,1.0,62.39994812011719,76.74797058105469,0.0,0.0
85.0,121.0,0.1,62.27222442626953,77.41966247558594,0.0,0.0
85.0,121.0,0.3,62.27222442626953,77.41966247558594,0.0,0.0
85.0,121.0,0.7,62.27222442626953,77.41966247558594,0.0,0.0
85.0,121.0,1.0,62.27222442626953,77.41966247558594,0.0,0.0
85.0,127.0,0.1,62.3251838684082,77.18462371826172,0.0,0.0
85.0,127.0,0.3,62.3251838684082,77.18462371826172,0.0,0.0
85.0,127.0,0.7,62.3251838684082,77.18462371826172,0.0,0.0
85.0,127.0,1.0,62.3251838684082,77.18462371826172,0.0,0.0
86.0,1.0,0.1,46.635284423828125,29.319808959960938,0.0,0.0
86.0,1.0,0.3,46.635284423828125,29.319808959960938,0.0,0.0
86.0,1.0,0.7,46.635284423828125,29.319808959960938,0.0,0.0
86.0,1.0,1.0,46.635284423828125,29.319808959960938,0.0,0.0
86.0,9.0,0.1,44.15210723876953,29.46672821044922,0.0,0.0
86.0,9.0,0.3,44.15210723876953,29.46672821044922,0.0,0.0
86.0,9.0,0.7,44.15210723876953,29.46672821044922,0.0,0.0
86.0,9.0,1.0,44.15210723876953,29.46672821044922,0.0,0.0
86.0,17.0,0.1,45.31755065917969,28.101943969726562,0.0,0.0
86.0,17.0,0.3,45.31755065917969,28.101943969726562,0.0,0.0
86.0,17.0,0.7,45.31755065917969,28.101943969726562,0.0,0.0
86.0,17.0,1.0,45.31755065917969,28.101943969726562,0.0,0.0
86.0,25.0,0.1,33.587120056152344,31.91530990600586,0.0,0.0
86.0,25.0,0.3,33.587120056152344,31.91530990600586,0.0,0.0
86.0,25.0,0.7,33.587120056152344,31.91530990600586,0.0,0.0
86.0,25.0,1.0,33.587120056152344,31.91530990600586,0.0,0.0
86.0,33.0,0.1,46.612884521484375,37.819480895996094,0.0,0.0
86.0,33.0,0.3,46.612884521484375,37.819480895996094,0.0,0.0
86.0,33.0,0.7,46.612884521484375,37.819480895996094,0.0,0.0
86.0,33.0,1.0,46.612884521484375,37.819480895996094,0.0,0.0
86.0,41.0,0.1,48.78697204589844,43.153751373291016,0.0,0.0
86.0,41.0,0.3,48.78697204589844,43.153751373291016,0.0,0.0
86.0,41.0,0.7,48.78697204589844,43.153751373291016,0.0,0.0
86.0,41.0,1.0,48.78697204589844,43.153751373291016,0.0,0.0
86.0,49.0,0.1,52.79229736328125,49.17635726928711,0.0,0.0
86.0,49.0,0.3,52.79229736328125,49.17635726928711,0.0,0.0
86.0,49.0,0.7,52.79229736328125,49.17635726928711,0.0,0.0
86.0,49.0,1.0,52.79229736328125,49.17635726928711,0.0,0.0
86.0,57.0,0.1,54.20077133178711,53.04576110839844,0.0,0.0
86.0,57.0,0.3,54.20077133178711,53.04576110839844,0.0,0.0
86.0,57.0,0.7,54.20077133178711,53.04576110839844,0.0,0.0
86.0,57.0,1.0,54.20077133178711,53.04576110839844,0.0,0.0
86.0,65.0,0.1,57.271263122558594,56.78973388671875,0.0,0.0
86.0,65.0,0.3,57.271263122558594,56.78973388671875,0.0,0.0
86.0,65.0,0.7,57.271263122558594,56.78973388671875,0.0,0.0
86.0,65.0,1.0,57.271263122558594,56.78973388671875,0.0,0.0
86.0,73.0,0.1,60.05544662475586,60.209007263183594,0.0,0.0
86.0,73.0,0.3,60.05544662475586,60.209007263183594,0.0,0.0
86.0,73.0,0.7,60.05544662475586,60.209007263183594,0.0,0.0
86.0,73.0,1.0,60.05544662475586,60.209007263183594,0.0,0.0
86.0,81.0,0.1,62.490299224853516,63.2208366394043,0.0,0.0
86.0,81.0,0.3,62.490299224853516,63.2208366394043,0.0,0.0
86.0,81.0,0.7,62.490299224853516,63.2208366394043,0.0,0.0
86.0,81.0,1.0,62.490299224853516,63.2208366394043,0.0,0.0
86.0,89.0,0.1,63.83965301513672,65.68531799316406,0.0,0.0
86.0,89.0,0.3,63.83965301513672,65.68531799316406,0.0,0.0
86.0,89.0,0.7,63.83965301513672,65.68531799316406,0.0,0.0
86.0,89.0,1.0,63.83965301513672,65.68531799316406,0.0,0.0
86.0,97.0,0.1,64.12659454345703,69.88580322265625,0.0,0.0
86.0,97.0,0.3,64.12659454345703,69.88580322265625,0.0,0.0
86.0,97.0,0.7,64.12659454345703,69.88580322265625,0.0,0.0
86.0,97.0,1.0,64.12659454345703,69.88580322265625,0.0,0.0
86.0,105.0,0.1,64.46315002441406,72.41136169433594,0.0,0.0
86.0,105.0,0.3,64.46315002441406,72.41136169433594,0.0,0.0
86.0,105.0,0.7,64.46315002441406,72.41136169433594,0.0,0.0
86.0,105.0,1.0,64.46315002441406,72.41136169433594,0.0,0.0
86.0,113.0,0.1,64.75135040283203,72.22757720947266,0.0,0.0
86.0,113.0,0.3,64.75135040283203,72.22757720947266,0.0,0.0
86.0,113.0,0.7,64.75135040283203,72.22757720947266,0.0,0.0
86.0,113.0,1.0,64.75135040283203,72.22757720947266,0.0,0.0
86.0,121.0,0.1,64.0567398071289,71.43669128417969,0.0,0.0
86.0,121.0,0.3,64.0567398071289,71.43669128417969,0.0,0.0
86.0,121.0,0.7,64.0567398071289,71.43669128417969,0.0,0.0
86.0,121.0,1.0,64.0567398071289,71.43669128417969,0.0,0.0
86.0,127.0,0.1,64.00092315673828,71.40506744384766,0.0,0.0
86.0,127.0,0.3,64.00092315673828,71.40506744384766,0.0,0.0
86.0,127.0,0.7,64.00092315673828,71.40506744384766,0.0,0.0
86.0,127.0,1.0,64.00092315673828,71.40506744384766,0.0,0.0
87.0,1.0,0.1,46.12004852294922,26.51158905029297,0.0,0.0
87.0,1.0,0.3,46.12004852294922,26.51158905029297,0.0,0.0
87.0,1.0,0.7,46.12004852294922,26.51158905029297,0.0,0.0
87.0,1.0,1.0,46.12004852294922,26.51158905029297,0.0,0.0
87.0,9.0,0.1,42.2945442199707,28.398025512695312,0.0,0.0
87.0,9.0,0.3,42.2945442199707,28.398025512695312,0.0,0.0
87.0,9.0,0.7,42.2945442199707,28.398025512695312,0.0,0.0
87.0,9.0,1.0,42.2945442199707,28.398025512695312,0.0,0.0
87.0,17.0,0.1,42.31369400024414,28.487167358398438,0.0,0.0
87.0,17.0,0.3,42.31369400024414,28.487167358398438,0.0,0.0
87.0,17.0,0.7,42.31369400024414,28.487167358398438,0.0,0.0
87.0,17.0,1.0,42.31369400024414,28.487167358398438,0.0,0.0
87.0,25.0,0.1,41.51182174682617,28.519439697265625,0.0,0.0
87.0,25.0,0.3,41.51182174682617,28.519439697265625,0.0,0.0
87.0,25.0,0.7,41.51182174682617,28.519439697265625,0.0,0.0
87.0,25.0,1.0,41.51182174682617,28.519439697265625,0.0,0.0
87.0,33.0,0.1,41.44158935546875,34.5301513671875,0.0,0.0
87.0,33.0,0.3,41.44158935546875,34.5301513671875,0.0,0.0
87.0,33.0,0.7,41.44158935546875,34.5301513671875,0.0,0.0
87.0,33.0,1.0,41.44158935546875,34.5301513671875,0.0,0.0
87.0,41.0,0.1,47.13063049316406,43.21957015991211,0.0,0.0
87.0,41.0,0.3,47.13063049316406,43.21957015991211,0.0,0.0
87.0,41.0,0.7,47.13063049316406,43.21957015991211,0.0,0.0
87.0,41.0,1.0,47.13063049316406,43.21957015991211,0.0,0.0
87.0,49.0,0.1,49.42414855957031,48.51143264770508,0.0,0.0
87.0,49.0,0.3,49.42414855957031,48.51143264770508,0.0,0.0
87.0,49.0,0.7,49.42414855957031,48.51143264770508,0.0,0.0
87.0,49.0,1.0,49.42414855957031,48.51143264770508,0.0,0.0
87.0,57.0,0.1,51.38011932373047,52.165863037109375,0.0,0.0
87.0,57.0,0.3,51.38011932373047,52.165863037109375,0.0,0.0
87.0,57.0,0.7,51.38011932373047,52.165863037109375,0.0,0.0
87.0,57.0,1.0,51.38011932373047,52.165863037109375,0.0,0.0
87.0,65.0,0.1,54.57418441772461,55.06871032714844,0.0,0.0
87.0,65.0,0.3,54.57418441772461,55.06871032714844,0.0,0.0
87.0,65.0,0.7,54.57418441772461,55.06871032714844,0.0,0.0
87.0,65.0,1.0,54.57418441772461,55.06871032714844,0.0,0.0
87.0,73.0,0.1,57.7580451965332,58.30585479736328,0.0,0.0
87.0,73.0,0.3,57.7580451965332,58.30585479736328,0.0,0.0
87.0,73.0,0.7,57.7580451965332,58.30585479736328,0.0,0.0
87.0,73.0,1.0,57.7580451965332,58.30585479736328,0.0,0.0
87.0,81.0,0.1,60.60135269165039,60.74210739135742,0.0,0.0
87.0,81.0,0.3,60.60135269165039,60.74210739135742,0.0,0.0
87.0,81.0,0.7,60.60135269165039,60.74210739135742,0.0,0.0
87.0,81.0,1.0,60.60135269165039,60.74210739135742,0.0,0.0
87.0,89.0,0.1,62.78406524658203,62.841880798339844,0.0,0.0
87.0,89.0,0.3,62.78406524658203,62.841880798339844,0.0,0.0
87.0,89.0,0.7,62.78406524658203,62.841880798339844,0.0,0.0
87.0,89.0,1.0,62.78406524658203,62.841880798339844,0.0,0.0
87.0,97.0,0.1,64.30536651611328,64.73857116699219,0.0,0.0
87.0,97.0,0.3,64.30536651611328,64.73857116699219,0.0,0.0
87.0,97.0,0.7,64.30536651611328,64.73857116699219,0.0,0.0
87.0,97.0,1.0,64.30536651611328,64.73857116699219,0.0,0.0
87.0,105.0,0.1,64.60752868652344,67.24642181396484,0.0,0.0
87.0,105.0,0.3,64.60752868652344,67.24642181396484,0.0,0.0
87.0,105.0,0.7,64.60752868652344,67.24642181396484,0.0,0.0
87.0,105.0,1.0,64.60752868652344,67.24642181396484,0.0,0.0
87.0,113.0,0.1,64.5475082397461,69.84710693359375,0.0,0.0
87.0,113.0,0.3,64.5475082397461,69.84710693359375,0.0,0.0
87.0,113.0,0.7,64.5475082397461,69.84710693359375,0.0,0.0
87.0,113.0,1.0,64.5475082397461,69.84710693359375,0.0,0.0
87.0,121.0,0.1,64.46306610107422,70.37370300292969,0.0,0.0
87.0,121.0,0.3,64.46306610107422,70.37370300292969,0.0,0.0
87.0,121.0,0.7,64.46306610107422,70.37370300292969,0.0,0.0
87.0,121.0,1.0,64.46306610107422,70.37370300292969,0.0,0.0
87.0,127.0,0.1,64.98877716064453,70.4694595336914,0.0,0.0
87.0,127.0,0.3,64.98877716064453,70.4694595336914,0.0,0.0
87.0,127.0,0.7,64.98877716064453,70.4694595336914,0.0,0.0
87.0,127.0,1.0,64.98877716064453,70.4694595336914,0.0,0.0
88.0,1.0,0.1,44.78403854370117,27.58477020263672,0.0,0.0
88.0,1.0,0.3,44.78403854370117,27.58477020263672,0.0,0.0
88.0,1.0,0.7,44.78403854370117,27.58477020263672,0.0,0.0
88.0,1.0,1.0,44.78403854370117,27.58477020263672,0.0,0.0
88.0,9.0,0.1,38.55054473876953,26.335052490234375,0.0,0.0
88.0,9.0,0.3,38.55054473876953,26.335052490234375,0.0,0.0
88.0,9.0,0.7,38.55054473876953,26.335052490234375,0.0,0.0
88.0,9.0,1.0,38.55054473876953,26.335052490234375,0.0,0.0
88.0,17.0,0.1,41.473567962646484,27.920928955078125,0.0,0.0
88.0,17.0,0.3,41.473567962646484,27.920928955078125,0.0,0.0
88.0,17.0,0.7,41.473567962646484,27.920928955078125,0.0,0.0
88.0,17.0,1.0,41.473567962646484,27.920928955078125,0.0,0.0
88.0,25.0,0.1,42.63125228881836,29.434097290039062,0.0,0.0
88.0,25.0,0.3,42.63125228881836,29.434097290039062,0.0,0.0
88.0,25.0,0.7,42.63125228881836,29.434097290039062,0.0,0.0
88.0,25.0,1.0,42.63125228881836,29.434097290039062,0.0,0.0
88.0,33.0,0.1,39.58731460571289,37.71294021606445,0.0,0.0
88.0,33.0,0.3,39.58731460571289,37.71294021606445,0.0,0.0
88.0,33.0,0.7,39.58731460571289,37.71294021606445,0.0,0.0
88.0,33.0,1.0,39.58731460571289,37.71294021606445,0.0,0.0
88.0,41.0,0.1,41.354766845703125,44.897918701171875,0.0,0.0
88.0,41.0,0.3,41.354766845703125,44.897918701171875,0.0,0.0
88.0,41.0,0.7,41.354766845703125,44.897918701171875,0.0,0.0
88.0,41.0,1.0,41.354766845703125,44.897918701171875,0.0,0.0
88.0,49.0,0.1,43.8911247253418,50.65855026245117,0.0,0.0
88.0,49.0,0.3,43.8911247253418,50.65855026245117,0.0,0.0
88.0,49.0,0.7,43.8911247253418,50.65855026245117,0.0,0.0
88.0,49.0,1.0,43.8911247253418,50.65855026245117,0.0,0.0
88.0,57.0,0.1,46.23015594482422,55.57997131347656,0.0,0.0
88.0,57.0,0.3,46.23015594482422,55.57997131347656,0.0,0.0
88.0,57.0,0.7,46.23015594482422,55.57997131347656,0.0,0.0
88.0,57.0,1.0,46.23015594482422,55.57997131347656,0.0,0.0
88.0,65.0,0.1,49.96825408935547,59.72007369995117,0.0,0.0
88.0,65.0,0.3,49.96825408935547,59.72007369995117,0.0,0.0
88.0,65.0,0.7,49.96825408935547,59.72007369995117,0.0,0.0
88.0,65.0,1.0,49.96825408935547,59.72007369995117,0.0,0.0
88.0,73.0,0.1,54.4512825012207,63.19340515136719,0.0,0.0
88.0,73.0,0.3,54.4512825012207,63.19340515136719,0.0,0.0
88.0,73.0,0.7,54.4512825012207,63.19340515136719,0.0,0.0
88.0,73.0,1.0,54.4512825012207,63.19340515136719,0.0,0.0
88.0,81.0,0.1,55.52587127685547,66.34223937988281,0.0,0.0
88.0,81.0,0.3,55.52587127685547,66.34223937988281,0.0,0.0
88.0,81.0,0.7,55.52587127685547,66.34223937988281,0.0,0.0
88.0,81.0,1.0,55.52587127685547,66.34223937988281,0.0,0.0
88.0,89.0,0.1,58.843563079833984,69.08248138427734,0.0,0.0
88.0,89.0,0.3,58.843563079833984,69.08248138427734,0.0,0.0
88.0,89.0,0.7,58.843563079833984,69.08248138427734,0.0,0.0
88.0,89.0,1.0,58.843563079833984,69.08248138427734,0.0,0.0
88.0,97.0,0.1,60.37771987915039,72.22775268554688,0.0,0.0
88.0,97.0,0.3,60.37771987915039,72.22775268554688,0.0,0.0
88.0,97.0,0.7,60.37771987915039,72.22775268554688,0.0,0.0
88.0,97.0,1.0,60.37771987915039,72.22775268554688,0.0,0.0
88.0,105.0,0.1,59.56594467163086,76.8322982788086,0.0,0.0
88.0,105.0,0.3,59.56594467163086,76.8322982788086,0.0,0.0
88.0,105.0,0.7,59.56594467163086,76.8322982788086,0.0,0.0
88.0,105.0,1.0,59.56594467163086,76.8322982788086,0.0,0.0
88.0,113.0,0.1,60.53734588623047,76.44011688232422,0.0,0.0
88.0,113.0,0.3,60.53734588623047,76.44011688232422,0.0,0.0
88.0,113.0,0.7,60.53734588623047,76.44011688232422,0.0,0.0
88.0,113.0,1.0,60.53734588623047,76.44011688232422,0.0,0.0
88.0,121.0,0.1,58.375675201416016,76.24915313720703,0.0,0.0
88.0,121.0,0.3,58.375675201416016,76.24915313720703,0.0,0.0
88.0,121.0,0.7,58.375675201416016,76.24915313720703,0.0,0.0
88.0,121.0,1.0,58.375675201416016,76.24915313720703,0.0,0.0
88.0,127.0,0.1,59.95903778076172,76.16178894042969,0.0,0.0
88.0,127.0,0.3,59.95903778076172,76.16178894042969,0.0,0.0
88.0,127.0,0.7,59.95903778076172,76.16178894042969,0.0,0.0
88.0,127.0,1.0,59.95903778076172,76.16178894042969,0.0,0.0
89.0,1.0,0.1,44.65889358520508,29.349830627441406,0.0,0.0
89.0,1.0,0.3,44.65889358520508,29.349830627441406,0.0,0.0
89.0,1.0,0.7,44.65889358520508,29.349830627441406,0.0,0.0
89.0,1.0,1.0,44.65889358520508,29.349830627441406,0.0,0.0
89.0,9.0,0.1,24.559104919433594,27.824668884277344,0.0,0.0
89.0,9.0,0.3,24.559104919433594,27.824668884277344,0.0,0.0
89.0,9.0,0.7,24.559104919433594,27.824668884277344,0.0,0.0
89.0,9.0,1.0,24.559104919433594,27.824668884277344,0.0,0.0
89.0,17.0,0.1,25.76575469970703,27.563995361328125,0.0,0.0
89.0,17.0,0.3,25.76575469970703,27.563995361328125,0.0,0.0
89.0,17.0,0.7,25.76575469970703,27.563995361328125,0.0,0.0
89.0,17.0,1.0,25.76575469970703,27.563995361328125,0.0,0.0
89.0,25.0,0.1,43.0111083984375,36.57406234741211,0.0,0.0
89.0,25.0,0.3,43.0111083984375,36.57406234741211,0.0,0.0
89.0,25.0,0.7,43.0111083984375,36.57406234741211,0.0,0.0
89.0,25.0,1.0,43.0111083984375,36.57406234741211,0.0,0.0
89.0,33.0,0.1,44.13998031616211,44.39712905883789,0.0,0.0
89.0,33.0,0.3,44.13998031616211,44.39712905883789,0.0,0.0
89.0,33.0,0.7,44.13998031616211,44.39712905883789,0.0,0.0
89.0,33.0,1.0,44.13998031616211,44.39712905883789,0.0,0.0
89.0,41.0,0.1,47.781795501708984,49.10505294799805,0.0,0.0
89.0,41.0,0.3,47.781795501708984,49.10505294799805,0.0,0.0
89.0,41.0,0.7,47.781795501708984,49.10505294799805,0.0,0.0
89.0,41.0,1.0,47.781795501708984,49.10505294799805,0.0,0.0
89.0,49.0,0.1,47.7894401550293,54.47916793823242,0.0,0.0
89.0,49.0,0.3,47.7894401550293,54.47916793823242,0.0,0.0
89.0,49.0,0.7,47.7894401550293,54.47916793823242,0.0,0.0
89.0,49.0,1.0,47.7894401550293,54.47916793823242,0.0,0.0
89.0,57.0,0.1,49.157875061035156,57.97602462768555,0.0,0.0
89.0,57.0,0.3,49.157875061035156,57.97602462768555,0.0,0.0
89.0,57.0,0.7,49.157875061035156,57.97602462768555,0.0,0.0
89.0,57.0,1.0,49.157875061035156,57.97602462768555,0.0,0.0
89.0,65.0,0.1,51.83146667480469,60.93830108642578,0.0,0.0
89.0,65.0,0.3,51.83146667480469,60.93830108642578,0.0,0.0
89.0,65.0,0.7,51.83146667480469,60.93830108642578,0.0,0.0
89.0,65.0,1.0,51.83146667480469,60.93830108642578,0.0,0.0
89.0,73.0,0.1,55.58436584472656,63.28902053833008,0.0,0.0
89.0,73.0,0.3,55.58436584472656,63.28902053833008,0.0,0.0
89.0,73.0,0.7,55.58436584472656,63.28902053833008,0.0,0.0
89.0,73.0,1.0,55.58436584472656,63.28902053833008,0.0,0.0
89.0,81.0,0.1,58.372135162353516,65.9929428100586,0.0,0.0
89.0,81.0,0.3,58.372135162353516,65.9929428100586,0.0,0.0
89.0,81.0,0.7,58.372135162353516,65.9929428100586,0.0,0.0
89.0,81.0,1.0,58.372135162353516,65.9929428100586,0.0,0.0
89.0,89.0,0.1,60.65013122558594,68.27056884765625,0.0,0.0
89.0,89.0,0.3,60.65013122558594,68.27056884765625,0.0,0.0
89.0,89.0,0.7,60.65013122558594,68.27056884765625,0.0,0.0
89.0,89.0,1.0,60.65013122558594,68.27056884765625,0.0,0.0
89.0,97.0,0.1,61.88568878173828,70.79806518554688,0.0,0.0
89.0,97.0,0.3,61.88568878173828,70.79806518554688,0.0,0.0
89.0,97.0,0.7,61.88568878173828,70.79806518554688,0.0,0.0
89.0,97.0,1.0,61.88568878173828,70.79806518554688,0.0,0.0
89.0,105.0,0.1,62.249412536621094,73.11016845703125,0.0,0.0
89.0,105.0,0.3,62.249412536621094,73.11016845703125,0.0,0.0
89.0,105.0,0.7,62.249412536621094,73.11016845703125,0.0,0.0
89.0,105.0,1.0,62.249412536621094,73.11016845703125,0.0,0.0
89.0,113.0,0.1,62.133575439453125,71.59777069091797,0.0,0.0
89.0,113.0,0.3,62.133575439453125,71.59777069091797,0.0,0.0
89.0,113.0,0.7,62.133575439453125,71.59777069091797,0.0,0.0
89.0,113.0,1.0,62.133575439453125,71.59777069091797,0.0,0.0
89.0,121.0,0.1,61.860103607177734,73.37547302246094,0.0,0.0
89.0,121.0,0.3,61.860103607177734,73.37547302246094,0.0,0.0
89.0,121.0,0.7,61.860103607177734,73.37547302246094,0.0,0.0
89.0,121.0,1.0,61.860103607177734,73.37547302246094,0.0,0.0
89.0,127.0,0.1,62.18516159057617,71.16114807128906,0.0,0.0
89.0,127.0,0.3,62.18516159057617,71.16114807128906,0.0,0.0
89.0,127.0,0.7,62.18516159057617,71.16114807128906,0.0,0.0
89.0,127.0,1.0,62.18516159057617,71.16114807128906,0.0,0.0
90.0,1.0,0.1,35.50486755371094,24.733596801757812,0.0,0.0
90.0,1.0,0.3,35.50486755371094,24.733596801757812,0.0,0.0
90.0,1.0,0.7,35.50486755371094,24.733596801757812,0.0,0.0
90.0,1.0,1.0,35.50486755371094,24.733596801757812,0.0,0.0
90.0,9.0,0.1,35.991554260253906,24.81855010986328,0.0,0.0
90.0,9.0,0.3,35.991554260253906,24.81855010986328,0.0,0.0
90.0,9.0,0.7,35.991554260253906,24.81855010986328,0.0,0.0
90.0,9.0,1.0,35.991554260253906,24.81855010986328,0.0,0.0
90.0,17.0,0.1,29.363998413085938,26.73724365234375,0.0,0.0
90.0,17.0,0.3,29.363998413085938,26.73724365234375,0.0,0.0
90.0,17.0,0.7,29.363998413085938,26.73724365234375,0.0,0.0
90.0,17.0,1.0,29.363998413085938,26.73724365234375,0.0,0.0
90.0,25.0,0.1,31.539859771728516,30.125713348388672,0.0,0.0
90.0,25.0,0.3,31.539859771728516,30.125713348388672,0.0,0.0
90.0,25.0,0.7,31.539859771728516,30.125713348388672,0.0,0.0
90.0,25.0,1.0,31.539859771728516,30.125713348388672,0.0,0.0
90.0,33.0,0.1,35.40449523925781,36.648014068603516,0.0,0.0
90.0,33.0,0.3,35.40449523925781,36.648014068603516,0.0,0.0
90.0,33.0,0.7,35.40449523925781,36.648014068603516,0.0,0.0
90.0,33.0,1.0,35.40449523925781,36.648014068603516,0.0,0.0
90.0,41.0,0.1,38.046974182128906,42.76652526855469,0.0,0.0
90.0,41.0,0.3,38.046974182128906,42.76652526855469,0.0,0.0
90.0,41.0,0.7,38.046974182128906,42.76652526855469,0.0,0.0
90.0,41.0,1.0,38.046974182128906,42.76652526855469,0.0,0.0
90.0,49.0,0.1,40.21498107910156,48.77756118774414,0.0,0.0
90.0,49.0,0.3,40.21498107910156,48.77756118774414,0.0,0.0
90.0,49.0,0.7,40.21498107910156,48.77756118774414,0.0,0.0
90.0,49.0,1.0,40.21498107910156,48.77756118774414,0.0,0.0
90.0,57.0,0.1,42.859039306640625,53.21784210205078,0.0,0.0
90.0,57.0,0.3,42.859039306640625,53.21784210205078,0.0,0.0
90.0,57.0,0.7,42.859039306640625,53.21784210205078,0.0,0.0
90.0,57.0,1.0,42.859039306640625,53.21784210205078,0.0,0.0
90.0,65.0,0.1,45.59778594970703,57.175262451171875,0.0,0.0
90.0,65.0,0.3,45.59778594970703,57.175262451171875,0.0,0.0
90.0,65.0,0.7,45.59778594970703,57.175262451171875,0.0,0.0
90.0,65.0,1.0,45.59778594970703,57.175262451171875,0.0,0.0
90.0,73.0,0.1,49.178428649902344,61.15366744995117,0.0,0.0
90.0,73.0,0.3,49.178428649902344,61.15366744995117,0.0,0.0
90.0,73.0,0.7,49.178428649902344,61.15366744995117,0.0,0.0
90.0,73.0,1.0,49.178428649902344,61.15366744995117,0.0,0.0
90.0,81.0,0.1,51.85663604736328,64.13412475585938,0.0,0.0
90.0,81.0,0.3,51.85663604736328,64.13412475585938,0.0,0.0
90.0,81.0,0.7,51.85663604736328,64.13412475585938,0.0,0.0
90.0,81.0,1.0,51.85663604736328,64.13412475585938,0.0,0.0
90.0,89.0,0.1,53.49079513549805,68.1677017211914,0.0,0.0
90.0,89.0,0.3,53.49079513549805,68.1677017211914,0.0,0.0
90.0,89.0,0.7,53.49079513549805,68.1677017211914,0.0,0.0
90.0,89.0,1.0,53.49079513549805,68.1677017211914,0.0,0.0
90.0,97.0,0.1,54.68886947631836,71.21040344238281,0.0,0.0
90.0,97.0,0.3,54.68886947631836,71.21040344238281,0.0,0.0
90.0,97.0,0.7,54.68886947631836,71.21040344238281,0.0,0.0
90.0,97.0,1.0,54.68886947631836,71.21040344238281,0.0,0.0
90.0,105.0,0.1,54.582603454589844,73.85246276855469,0.0,0.0
90.0,105.0,0.3,54.582603454589844,73.85246276855469,0.0,0.0
90.0,105.0,0.7,54.582603454589844,73.85246276855469,0.0,0.0
90.0,105.0,1.0,54.582603454589844,73.85246276855469,0.0,0.0
90.0,113.0,0.1,56.04483413696289,74.858154296875,0.0,0.0
90.0,113.0,0.3,56.04483413696289,74.858154296875,0.0,0.0
90.0,113.0,0.7,56.04483413696289,74.858154296875,0.0,0.0
90.0,113.0,1.0,56.04483413696289,74.858154296875,0.0,0.0
90.0,121.0,0.1,54.82114791870117,74.67960357666016,0.0,0.0
90.0,121.0,0.3,54.82114791870117,74.67960357666016,0.0,0.0
90.0,121.0,0.7,54.82114791870117,74.67960357666016,0.0,0.0
90.0,121.0,1.0,54.82114791870117,74.67960357666016,0.0,0.0
90.0,127.0,0.1,54.564788818359375,74.29603576660156,0.0,0.0
90.0,127.0,0.3,54.564788818359375,74.29603576660156,0.0,0.0
90.0,127.0,0.7,54.564788818359375,74.29603576660156,0.0,0.0
90.0,127.0,1.0,54.564788818359375,74.29603576660156,0.0,0.0
91.0,1.0,0.1,52.471580505371094,29.557037353515625,0.0,0.0
91.0,1.0,0.3,52.471580505371094,29.557037353515625,0.0,0.0
91.0,1.0,0.7,52.471580505371094,29.557037353515625,0.0,0.0
91.0,1.0,1.0,52.471580505371094,29.557037353515625,0.0,0.0
91.0,9.0,0.1,45.17349624633789,26.953773498535156,0.0,0.0
91.0,9.0,0.3,45.17349624633789,26.953773498535156,0.0,0.0
91.0,9.0,0.7,45.17349624633789,26.953773498535156,0.0,0.0
91.0,9.0,1.0,45.17349624633789,26.953773498535156,0.0,0.0
91.0,17.0,0.1,44.85659408569336,28.475502014160156,0.0,0.0
91.0,17.0,0.3,44.85659408569336,28.475502014160156,0.0,0.0
91.0,17.0,0.7,44.85659408569336,28.475502014160156,0.0,0.0
91.0,17.0,1.0,44.85659408569336,28.475502014160156,0.0,0.0
91.0,25.0,0.1,44.737388610839844,27.650802612304688,0.0,0.0
91.0,25.0,0.3,44.737388610839844,27.650802612304688,0.0,0.0
91.0,25.0,0.7,44.737388610839844,27.650802612304688,0.0,0.0
91.0,25.0,1.0,44.737388610839844,27.650802612304688,0.0,0.0
91.0,33.0,0.1,23.26665496826172,32.54380798339844,0.0,0.0
91.0,33.0,0.3,23.26665496826172,32.54380798339844,0.0,0.0
91.0,33.0,0.7,23.26665496826172,32.54380798339844,0.0,0.0
91.0,33.0,1.0,23.26665496826172,32.54380798339844,0.0,0.0
91.0,41.0,0.1,45.59418487548828,40.04646682739258,0.0,0.0
91.0,41.0,0.3,45.59418487548828,40.04646682739258,0.0,0.0
91.0,41.0,0.7,45.59418487548828,40.04646682739258,0.0,0.0
91.0,41.0,1.0,45.59418487548828,40.04646682739258,0.0,0.0
91.0,49.0,0.1,51.21051788330078,45.74435043334961,0.0,0.0
91.0,49.0,0.3,51.21051788330078,45.74435043334961,0.0,0.0
91.0,49.0,0.7,51.21051788330078,45.74435043334961,0.0,0.0
91.0,49.0,1.0,51.21051788330078,45.74435043334961,0.0,0.0
91.0,57.0,0.1,53.03228759765625,49.326725006103516,0.0,0.0
91.0,57.0,0.3,53.03228759765625,49.326725006103516,0.0,0.0
91.0,57.0,0.7,53.03228759765625,49.326725006103516,0.0,0.0
91.0,57.0,1.0,53.03228759765625,49.326725006103516,0.0,0.0
91.0,65.0,0.1,55.56629943847656,53.340972900390625,0.0,0.0
91.0,65.0,0.3,55.56629943847656,53.340972900390625,0.0,0.0
91.0,65.0,0.7,55.56629943847656,53.340972900390625,0.0,0.0
91.0,65.0,1.0,55.56629943847656,53.340972900390625,0.0,0.0
91.0,73.0,0.1,59.10227966308594,55.829898834228516,0.0,0.0
91.0,73.0,0.3,59.10227966308594,55.829898834228516,0.0,0.0
91.0,73.0,0.7,59.10227966308594,55.829898834228516,0.0,0.0
91.0,73.0,1.0,59.10227966308594,55.829898834228516,0.0,0.0
91.0,81.0,0.1,62.48064041137695,60.187232971191406,0.0,0.0
91.0,81.0,0.3,62.48064041137695,60.187232971191406,0.0,0.0
91.0,81.0,0.7,62.48064041137695,60.187232971191406,0.0,0.0
91.0,81.0,1.0,62.48064041137695,60.187232971191406,0.0,0.0
91.0,89.0,0.1,64.79385375976562,62.455116271972656,0.0,0.0
91.0,89.0,0.3,64.79385375976562,62.455116271972656,0.0,0.0
91.0,89.0,0.7,64.79385375976562,62.455116271972656,0.0,0.0
91.0,89.0,1.0,64.79385375976562,62.455116271972656,0.0,0.0
91.0,97.0,0.1,66.57011413574219,64.29179382324219,0.0,0.0
91.0,97.0,0.3,66.57011413574219,64.29179382324219,0.0,0.0
91.0,97.0,0.7,66.57011413574219,64.29179382324219,0.0,0.0
91.0,97.0,1.0,66.57011413574219,64.29179382324219,0.0,0.0
91.0,105.0,0.1,67.18927001953125,64.66757202148438,0.0,0.0
91.0,105.0,0.3,67.18927001953125,64.66757202148438,0.0,0.0
91.0,105.0,0.7,67.18927001953125,64.66757202148438,0.0,0.0
91.0,105.0,1.0,67.18927001953125,64.66757202148438,0.0,0.0
91.0,113.0,0.1,67.46756744384766,69.2432632446289,0.0,0.0
91.0,113.0,0.3,67.46756744384766,69.2432632446289,0.0,0.0
91.0,113.0,0.7,67.46756744384766,69.2432632446289,0.0,0.0
91.0,113.0,1.0,67.46756744384766,69.2432632446289,0.0,0.0
91.0,121.0,0.1,67.33277893066406,71.19307708740234,0.0,0.0
91.0,121.0,0.3,67.33277893066406,71.19307708740234,0.0,0.0
91.0,121.0,0.7,67.33277893066406,71.19307708740234,0.0,0.0
91.0,121.0,1.0,67.33277893066406,71.19307708740234,0.0,0.0
91.0,127.0,0.1,64.23180389404297,71.1778793334961,0.0,0.0
91.0,127.0,0.3,64.23180389404297,71.1778793334961,0.0,0.0
91.0,127.0,0.7,64.23180389404297,71.1778793334961,0.0,0.0
91.0,127.0,1.0,64.23180389404297,71.1778793334961,0.0,0.0
92.0,1.0,0.1,24.95970916748047,25.914016723632812,0.0,0.0
92.0,1.0,0.3,24.95970916748047,25.914016723632812,0.0,0.0
92.0,1.0,0.7,24.95970916748047,25.914016723632812,0.0,0.0
92.0,1.0,1.0,24.95970916748047,25.914016723632812,0.0,0.0
92.0,9.0,0.1,24.25804901123047,24.539276123046875,0.0,0.0
92.0,9.0,0.3,24.25804901123047,24.539276123046875,0.0,0.0
92.0,9.0,0.7,24.25804901123047,24.539276123046875,0.0,0.0
92.0,9.0,1.0,24.25804901123047,24.539276123046875,0.0,0.0
92.0,17.0,0.1,27.890769958496094,24.878746032714844,0.0,0.0
92.0,17.0,0.3,27.890769958496094,24.878746032714844,0.0,0.0
92.0,17.0,0.7,27.890769958496094,24.878746032714844,0.0,0.0
92.0,17.0,1.0,27.890769958496094,24.878746032714844,0.0,0.0
92.0,25.0,0.1,24.787925720214844,28.12945556640625,0.0,0.0
92.0,25.0,0.3,24.787925720214844,28.12945556640625,0.0,0.0
92.0,25.0,0.7,24.787925720214844,28.12945556640625,0.0,0.0
92.0,25.0,1.0,24.787925720214844,28.12945556640625,0.0,0.0
92.0,33.0,0.1,23.89056396484375,33.308048248291016,0.0,0.0
92.0,33.0,0.3,23.89056396484375,33.308048248291016,0.0,0.0
92.0,33.0,0.7,23.89056396484375,33.308048248291016,0.0,0.0
92.0,33.0,1.0,23.89056396484375,33.308048248291016,0.0,0.0
92.0,41.0,0.1,26.380943298339844,39.992225646972656,0.0,0.0
92.0,41.0,0.3,26.380943298339844,39.992225646972656,0.0,0.0
92.0,41.0,0.7,26.380943298339844,39.992225646972656,0.0,0.0
92.0,41.0,1.0,26.380943298339844,39.992225646972656,0.0,0.0
92.0,49.0,0.1,21.597671508789062,46.614234924316406,0.0,0.0
92.0,49.0,0.3,21.597671508789062,46.614234924316406,0.0,0.0
92.0,49.0,0.7,21.597671508789062,46.614234924316406,0.0,0.0
92.0,49.0,1.0,21.597671508789062,46.614234924316406,0.0,0.0
92.0,57.0,0.1,47.96360397338867,49.86549758911133,0.0,0.0
92.0,57.0,0.3,47.96360397338867,49.86549758911133,0.0,0.0
92.0,57.0,0.7,47.96360397338867,49.86549758911133,0.0,0.0
92.0,57.0,1.0,47.96360397338867,49.86549758911133,0.0,0.0
92.0,65.0,0.1,50.76560974121094,54.07689666748047,0.0,0.0
92.0,65.0,0.3,50.76560974121094,54.07689666748047,0.0,0.0
92.0,65.0,0.7,50.76560974121094,54.07689666748047,0.0,0.0
92.0,65.0,1.0,50.76560974121094,54.07689666748047,0.0,0.0
92.0,73.0,0.1,53.27239227294922,56.2435188293457,0.0,0.0
92.0,73.0,0.3,53.27239227294922,56.2435188293457,0.0,0.0
92.0,73.0,0.7,53.27239227294922,56.2435188293457,0.0,0.0
92.0,73.0,1.0,53.27239227294922,56.2435188293457,0.0,0.0
92.0,81.0,0.1,55.675533294677734,58.70378875732422,0.0,0.0
92.0,81.0,0.3,55.675533294677734,58.70378875732422,0.0,0.0
92.0,81.0,0.7,55.675533294677734,58.70378875732422,0.0,0.0
92.0,81.0,1.0,55.675533294677734,58.70378875732422,0.0,0.0
92.0,89.0,0.1,57.47777557373047,61.07697296142578,0.0,0.0
92.0,89.0,0.3,57.47777557373047,61.07697296142578,0.0,0.0
92.0,89.0,0.7,57.47777557373047,61.07697296142578,0.0,0.0
92.0,89.0,1.0,57.47777557373047,61.07697296142578,0.0,0.0
92.0,97.0,0.1,59.433380126953125,64.25604248046875,0.0,0.0
92.0,97.0,0.3,59.433380126953125,64.25604248046875,0.0,0.0
92.0,97.0,0.7,59.433380126953125,64.25604248046875,0.0,0.0
92.0,97.0,1.0,59.433380126953125,64.25604248046875,0.0,0.0
92.0,105.0,0.1,59.4369010925293,65.25224304199219,0.0,0.0
92.0,105.0,0.3,59.4369010925293,65.25224304199219,0.0,0.0
92.0,105.0,0.7,59.4369010925293,65.25224304199219,0.0,0.0
92.0,105.0,1.0,59.4369010925293,65.25224304199219,0.0,0.0
92.0,113.0,0.1,59.40510940551758,68.20742797851562,0.0,0.0
92.0,113.0,0.3,59.40510940551758,68.20742797851562,0.0,0.0
92.0,113.0,0.7,59.40510940551758,68.20742797851562,0.0,0.0
92.0,113.0,1.0,59.40510940551758,68.20742797851562,0.0,0.0
92.0,121.0,0.1,59.38582229614258,67.02989196777344,0.0,0.0
92.0,121.0,0.3,59.38582229614258,67.02989196777344,0.0,0.0
92.0,121.0,0.7,59.38582229614258,67.02989196777344,0.0,0.0
92.0,121.0,1.0,59.38582229614258,67.02989196777344,0.0,0.0
92.0,127.0,0.1,59.368255615234375,66.92018127441406,0.0,0.0
92.0,127.0,0.3,59.368255615234375,66.92018127441406,0.0,0.0
92.0,127.0,0.7,59.368255615234375,66.92018127441406,0.0,0.0
92.0,127.0,1.0,59.368255615234375,66.92018127441406,0.0,0.0
93.0,1.0,0.1,23.37371826171875,29.230056762695312,0.0,0.0
93.0,1.0,0.3,23.37371826171875,29.230056762695312,0.0,0.0
93.0,1.0,0.7,23.37371826171875,29.230056762695312,0.0,0.0
93.0,1.0,1.0,23.37371826171875,29.230056762695312,0.0,0.0
93.0,9.0,0.1,26.755722045898438,28.924781799316406,0.0,0.0
93.0,9.0,0.3,26.755722045898438,28.924781799316406,0.0,0.0
93.0,9.0,0.7,26.755722045898438,28.924781799316406,0.0,0.0
93.0,9.0,1.0,26.755722045898438,28.924781799316406,0.0,0.0
93.0,17.0,0.1,29.255699157714844,30.281513214111328,0.0,0.0
93.0,17.0,0.3,29.255699157714844,30.281513214111328,0.0,0.0
93.0,17.0,0.7,29.255699157714844,30.281513214111328,0.0,0.0
93.0,17.0,1.0,29.255699157714844,30.281513214111328,0.0,0.0
93.0,25.0,0.1,24.866302490234375,33.519508361816406,0.0,0.0
93.0,25.0,0.3,24.866302490234375,33.519508361816406,0.0,0.0
93.0,25.0,0.7,24.866302490234375,33.519508361816406,0.0,0.0
93.0,25.0,1.0,24.866302490234375,33.519508361816406,0.0,0.0
93.0,33.0,0.1,22.822471618652344,41.15558624267578,0.0,0.0
93.0,33.0,0.3,22.822471618652344,41.15558624267578,0.0,0.0
93.0,33.0,0.7,22.822471618652344,41.15558624267578,0.0,0.0
93.0,33.0,1.0,22.822471618652344,41.15558624267578,0.0,0.0
93.0,41.0,0.1,27.206588745117188,48.81853485107422,0.0,0.0
93.0,41.0,0.3,27.206588745117188,48.81853485107422,0.0,0.0
93.0,41.0,0.7,27.206588745117188,48.81853485107422,0.0,0.0
93.0,41.0,1.0,27.206588745117188,48.81853485107422,0.0,0.0
93.0,49.0,0.1,41.04677963256836,53.52762222290039,0.0,0.0
93.0,49.0,0.3,41.04677963256836,53.52762222290039,0.0,0.0
93.0,49.0,0.7,41.04677963256836,53.52762222290039,0.0,0.0
93.0,49.0,1.0,41.04677963256836,53.52762222290039,0.0,0.0
93.0,57.0,0.1,45.65023422241211,56.91803741455078,0.0,0.0
93.0,57.0,0.3,45.65023422241211,56.91803741455078,0.0,0.0
93.0,57.0,0.7,45.65023422241211,56.91803741455078,0.0,0.0
93.0,57.0,1.0,45.65023422241211,56.91803741455078,0.0,0.0
93.0,65.0,0.1,50.22388458251953,59.80426025390625,0.0,0.0
93.0,65.0,0.3,50.22388458251953,59.80426025390625,0.0,0.0
93.0,65.0,0.7,50.22388458251953,59.80426025390625,0.0,0.0
93.0,65.0,1.0,50.22388458251953,59.80426025390625,0.0,0.0
93.0,73.0,0.1,53.783294677734375,61.144866943359375,0.0,0.0
93.0,73.0,0.3,53.783294677734375,61.144866943359375,0.0,0.0
93.0,73.0,0.7,53.783294677734375,61.144866943359375,0.0,0.0
93.0,73.0,1.0,53.783294677734375,61.144866943359375,0.0,0.0
93.0,81.0,0.1,56.429840087890625,65.04367065429688,0.0,0.0
93.0,81.0,0.3,56.429840087890625,65.04367065429688,0.0,0.0
93.0,81.0,0.7,56.429840087890625,65.04367065429688,0.0,0.0
93.0,81.0,1.0,56.429840087890625,65.04367065429688,0.0,0.0
93.0,89.0,0.1,58.62726974487305,67.43067169189453,0.0,0.0
93.0,89.0,0.3,58.62726974487305,67.43067169189453,0.0,0.0
93.0,89.0,0.7,58.62726974487305,67.43067169189453,0.0,0.0
93.0,89.0,1.0,58.62726974487305,67.43067169189453,0.0,0.0
93.0,97.0,0.1,59.675968170166016,68.7101058959961,0.0,0.0
93.0,97.0,0.3,59.675968170166016,68.7101058959961,0.0,0.0
93.0,97.0,0.7,59.675968170166016,68.7101058959961,0.0,0.0
93.0,97.0,1.0,59.675968170166016,68.7101058959961,0.0,0.0
93.0,105.0,0.1,61.0155143737793,73.52647399902344,0.0,0.0
93.0,105.0,0.3,61.0155143737793,73.52647399902344,0.0,0.0
93.0,105.0,0.7,61.0155143737793,73.52647399902344,0.0,0.0
93.0,105.0,1.0,61.0155143737793,73.52647399902344,0.0,0.0
93.0,113.0,0.1,61.04582214355469,74.46194458007812,0.0,0.0
93.0,113.0,0.3,61.04582214355469,74.46194458007812,0.0,0.0
93.0,113.0,0.7,61.04582214355469,74.46194458007812,0.0,0.0
93.0,113.0,1.0,61.04582214355469,74.46194458007812,0.0,0.0
93.0,121.0,0.1,60.82210922241211,74.17567443847656,0.0,0.0
93.0,121.0,0.3,60.82210922241211,74.17567443847656,0.0,0.0
93.0,121.0,0.7,60.82210922241211,74.17567443847656,0.0,0.0
93.0,121.0,1.0,60.82210922241211,74.17567443847656,0.0,0.0
93.0,127.0,0.1,60.74785232543945,74.000244140625,0.0,0.0
93.0,127.0,0.3,60.74785232543945,74.000244140625,0.0,0.0
93.0,127.0,0.7,60.74785232543945,74.000244140625,0.0,0.0
93.0,127.0,1.0,60.74785232543945,74.000244140625,0.0,0.0
94.0,1.0,0.1,40.762123107910156,27.87256622314453,0.0,0.0
94.0,1.0,0.3,40.762123107910156,27.87256622314453,0.0,0.0
94.0,1.0,0.7,40.762123107910156,27.87256622314453,0.0,0.0
94.0,1.0,1.0,40.762123107910156,27.87256622314453,0.0,0.0
94.0,9.0,0.1,24.124755859375,26.696121215820312,0.0,0.0
94.0,9.0,0.3,24.124755859375,26.696121215820312,0.0,0.0
94.0,9.0,0.7,24.124755859375,26.696121215820312,0.0,0.0
94.0,9.0,1.0,24.124755859375,26.696121215820312,0.0,0.0
94.0,17.0,0.1,34.33170700073242,27.6474609375,0.0,0.0
94.0,17.0,0.3,34.33170700073242,27.6474609375,0.0,0.0
94.0,17.0,0.7,34.33170700073242,27.6474609375,0.0,0.0
94.0,17.0,1.0,34.33170700073242,27.6474609375,0.0,0.0
94.0,25.0,0.1,21.43279266357422,34.22583770751953,0.0,0.0
94.0,25.0,0.3,21.43279266357422,34.22583770751953,0.0,0.0
94.0,25.0,0.7,21.43279266357422,34.22583770751953,0.0,0.0
94.0,25.0,1.0,21.43279266357422,34.22583770751953,0.0,0.0
94.0,33.0,0.1,31.156753540039062,40.23888397216797,0.0,0.0
94.0,33.0,0.3,31.156753540039062,40.23888397216797,0.0,0.0
94.0,33.0,0.7,31.156753540039062,40.23888397216797,0.0,0.0
94.0,33.0,1.0,31.156753540039062,40.23888397216797,0.0,0.0
94.0,41.0,0.1,40.47086715698242,45.832271575927734,0.0,0.0
94.0,41.0,0.3,40.47086715698242,45.832271575927734,0.0,0.0
94.0,41.0,0.7,40.47086715698242,45.832271575927734,0.0,0.0
94.0,41.0,1.0,40.47086715698242,45.832271575927734,0.0,0.0
94.0,49.0,0.1,43.39491653442383,50.35033416748047,0.0,0.0
94.0,49.0,0.3,43.39491653442383,50.35033416748047,0.0,0.0
94.0,49.0,0.7,43.39491653442383,50.35033416748047,0.0,0.0
94.0,49.0,1.0,43.39491653442383,50.35033416748047,0.0,0.0
94.0,57.0,0.1,44.62273025512695,53.77349090576172,0.0,0.0
94.0,57.0,0.3,44.62273025512695,53.77349090576172,0.0,0.0
94.0,57.0,0.7,44.62273025512695,53.77349090576172,0.0,0.0
94.0,57.0,1.0,44.62273025512695,53.77349090576172,0.0,0.0
94.0,65.0,0.1,48.26598358154297,56.710716247558594,0.0,0.0
94.0,65.0,0.3,48.26598358154297,56.710716247558594,0.0,0.0
94.0,65.0,0.7,48.26598358154297,56.710716247558594,0.0,0.0
94.0,65.0,1.0,48.26598358154297,56.710716247558594,0.0,0.0
94.0,73.0,0.1,50.85408020019531,59.89533233642578,0.0,0.0
94.0,73.0,0.3,50.85408020019531,59.89533233642578,0.0,0.0
94.0,73.0,0.7,50.85408020019531,59.89533233642578,0.0,0.0
94.0,73.0,1.0,50.85408020019531,59.89533233642578,0.0,0.0
94.0,81.0,0.1,53.619781494140625,62.41618347167969,0.0,0.0
94.0,81.0,0.3,53.619781494140625,62.41618347167969,0.0,0.0
94.0,81.0,0.7,53.619781494140625,62.41618347167969,0.0,0.0
94.0,81.0,1.0,53.619781494140625,62.41618347167969,0.0,0.0
94.0,89.0,0.1,54.589290618896484,64.73014068603516,0.0,0.0
94.0,89.0,0.3,54.589290618896484,64.73014068603516,0.0,0.0
94.0,89.0,0.7,54.589290618896484,64.73014068603516,0.0,0.0
94.0,89.0,1.0,54.589290618896484,64.73014068603516,0.0,0.0
94.0,97.0,0.1,56.09130096435547,66.7431640625,0.0,0.0
94.0,97.0,0.3,56.09130096435547,66.7431640625,0.0,0.0
94.0,97.0,0.7,56.09130096435547,66.7431640625,0.0,0.0
94.0,97.0,1.0,56.09130096435547,66.7431640625,0.0,0.0
94.0,105.0,0.1,56.37446212768555,68.43862915039062,0.0,0.0
94.0,105.0,0.3,56.37446212768555,68.43862915039062,0.0,0.0
94.0,105.0,0.7,56.37446212768555,68.43862915039062,0.0,0.0
94.0,105.0,1.0,56.37446212768555,68.43862915039062,0.0,0.0
94.0,113.0,0.1,56.20924377441406,71.1520004272461,0.0,0.0
94.0,113.0,0.3,56.20924377441406,71.1520004272461,0.0,0.0
94.0,113.0,0.7,56.20924377441406,71.1520004272461,0.0,0.0
94.0,113.0,1.0,56.20924377441406,71.1520004272461,0.0,0.0
94.0,121.0,0.1,55.82295227050781,71.21766662597656,0.0,0.0
94.0,121.0,0.3,55.82295227050781,71.21766662597656,0.0,0.0
94.0,121.0,0.7,55.82295227050781,71.21766662597656,0.0,0.0
94.0,121.0,1.0,55.82295227050781,71.21766662597656,0.0,0.0
94.0,127.0,0.1,56.166595458984375,71.12728881835938,0.0,0.0
94.0,127.0,0.3,56.166595458984375,71.12728881835938,0.0,0.0
94.0,127.0,0.7,56.166595458984375,71.12728881835938,0.0,0.0
94.0,127.0,1.0,56.166595458984375,71.12728881835938,0.0,0.0
95.0,1.0,0.1,41.272865295410156,26.23992919921875,0.0,0.0
95.0,1.0,0.3,41.272865295410156,26.23992919921875,0.0,0.0
95.0,1.0,0.7,41.272865295410156,26.23992919921875,0.0,0.0
95.0,1.0,1.0,41.272865295410156,26.23992919921875,0.0,0.0
95.0,9.0,0.1,21.291244506835938,28.10150909423828,0.0,0.0
95.0,9.0,0.3,21.291244506835938,28.10150909423828,0.0,0.0
95.0,9.0,0.7,21.291244506835938,28.10150909423828,0.0,0.0
95.0,9.0,1.0,21.291244506835938,28.10150909423828,0.0,0.0
95.0,17.0,0.1,35.173561096191406,27.317039489746094,0.0,0.0
95.0,17.0,0.3,35.173561096191406,27.317039489746094,0.0,0.0
95.0,17.0,0.7,35.173561096191406,27.317039489746094,0.0,0.0
95.0,17.0,1.0,35.173561096191406,27.317039489746094,0.0,0.0
95.0,25.0,0.1,22.265243530273438,29.945037841796875,0.0,0.0
95.0,25.0,0.3,22.265243530273438,29.945037841796875,0.0,0.0
95.0,25.0,0.7,22.265243530273438,29.945037841796875,0.0,0.0
95.0,25.0,1.0,22.265243530273438,29.945037841796875,0.0,0.0
95.0,33.0,0.1,21.899620056152344,34.478614807128906,0.0,0.0
95.0,33.0,0.3,21.899620056152344,34.478614807128906,0.0,0.0
95.0,33.0,0.7,21.899620056152344,34.478614807128906,0.0,0.0
95.0,33.0,1.0,21.899620056152344,34.478614807128906,0.0,0.0
95.0,41.0,0.1,41.8132438659668,40.4240608215332,0.0,0.0
95.0,41.0,0.3,41.8132438659668,40.4240608215332,0.0,0.0
95.0,41.0,0.7,41.8132438659668,40.4240608215332,0.0,0.0
95.0,41.0,1.0,41.8132438659668,40.4240608215332,0.0,0.0
95.0,49.0,0.1,43.357200622558594,45.03313064575195,0.0,0.0
95.0,49.0,0.3,43.357200622558594,45.03313064575195,0.0,0.0
95.0,49.0,0.7,43.357200622558594,45.03313064575195,0.0,0.0
95.0,49.0,1.0,43.357200622558594,45.03313064575195,0.0,0.0
95.0,57.0,0.1,45.30109786987305,48.64898681640625,0.0,0.0
95.0,57.0,0.3,45.30109786987305,48.64898681640625,0.0,0.0
95.0,57.0,0.7,45.30109786987305,48.64898681640625,0.0,0.0
95.0,57.0,1.0,45.30109786987305,48.64898681640625,0.0,0.0
95.0,65.0,0.1,48.672096252441406,52.521018981933594,0.0,0.0
95.0,65.0,0.3,48.672096252441406,52.521018981933594,0.0,0.0
95.0,65.0,0.7,48.672096252441406,52.521018981933594,0.0,0.0
95.0,65.0,1.0,48.672096252441406,52.521018981933594,0.0,0.0
95.0,73.0,0.1,51.701515197753906,55.83310317993164,0.0,0.0
95.0,73.0,0.3,51.701515197753906,55.83310317993164,0.0,0.0
95.0,73.0,0.7,51.701515197753906,55.83310317993164,0.0,0.0
95.0,73.0,1.0,51.701515197753906,55.83310317993164,0.0,0.0
95.0,81.0,0.1,54.65457534790039,58.579803466796875,0.0,0.0
95.0,81.0,0.3,54.65457534790039,58.579803466796875,0.0,0.0
95.0,81.0,0.7,54.65457534790039,58.579803466796875,0.0,0.0
95.0,81.0,1.0,54.65457534790039,58.579803466796875,0.0,0.0
95.0,89.0,0.1,56.79768371582031,60.88221740722656,0.0,0.0
95.0,89.0,0.3,56.79768371582031,60.88221740722656,0.0,0.0
95.0,89.0,0.7,56.79768371582031,60.88221740722656,0.0,0.0
95.0,89.0,1.0,56.79768371582031,60.88221740722656,0.0,0.0
95.0,97.0,0.1,58.591819763183594,62.974342346191406,0.0,0.0
95.0,97.0,0.3,58.591819763183594,62.974342346191406,0.0,0.0
95.0,97.0,0.7,58.591819763183594,62.974342346191406,0.0,0.0
95.0,97.0,1.0,58.591819763183594,62.974342346191406,0.0,0.0
95.0,105.0,0.1,59.18456268310547,66.45997619628906,0.0,0.0
95.0,105.0,0.3,59.18456268310547,66.45997619628906,0.0,0.0
95.0,105.0,0.7,59.18456268310547,66.45997619628906,0.0,0.0
95.0,105.0,1.0,59.18456268310547,66.45997619628906,0.0,0.0
95.0,113.0,0.1,59.145851135253906,68.63321685791016,0.0,0.0
95.0,113.0,0.3,59.145851135253906,68.63321685791016,0.0,0.0
95.0,113.0,0.7,59.145851135253906,68.63321685791016,0.0,0.0
95.0,113.0,1.0,59.145851135253906,68.63321685791016,0.0,0.0
95.0,121.0,0.1,59.089454650878906,68.64945983886719,0.0,0.0
95.0,121.0,0.3,59.089454650878906,68.64945983886719,0.0,0.0
95.0,121.0,0.7,59.089454650878906,68.64945983886719,0.0,0.0
95.0,121.0,1.0,59.089454650878906,68.64945983886719,0.0,0.0
95.0,127.0,0.1,59.06010055541992,68.80955505371094,0.0,0.0
95.0,127.0,0.3,59.06010055541992,68.80955505371094,0.0,0.0
95.0,127.0,0.7,59.06010055541992,68.80955505371094,0.0,0.0
95.0,127.0,1.0,59.06010055541992,68.80955505371094,0.0,0.0
96.0,1.0,0.1,42.94303894042969,29.371749877929688,0.0,0.0
96.0,1.0,0.3,42.94303894042969,29.371749877929688,0.0,0.0
96.0,1.0,0.7,42.94303894042969,29.371749877929688,0.0,0.0
96.0,1.0,1.0,42.94303894042969,29.371749877929688,0.0,0.0
96.0,9.0,0.1,19.18548583984375,31.528911590576172,0.0,0.0
96.0,9.0,0.3,19.18548583984375,31.528911590576172,0.0,0.0
96.0,9.0,0.7,19.18548583984375,31.528911590576172,0.0,0.0
96.0,9.0,1.0,19.18548583984375,31.528911590576172,0.0,0.0
96.0,17.0,0.1,25.46300506591797,29.570404052734375,0.0,0.0
96.0,17.0,0.3,25.46300506591797,29.570404052734375,0.0,0.0
96.0,17.0,0.7,25.46300506591797,29.570404052734375,0.0,0.0
96.0,17.0,1.0,25.46300506591797,29.570404052734375,0.0,0.0
96.0,25.0,0.1,20.698287963867188,33.744651794433594,0.0,0.0
96.0,25.0,0.3,20.698287963867188,33.744651794433594,0.0,0.0
96.0,25.0,0.7,20.698287963867188,33.744651794433594,0.0,0.0
96.0,25.0,1.0,20.698287963867188,33.744651794433594,0.0,0.0
96.0,33.0,0.1,20.501808166503906,37.80522155761719,0.0,0.0
96.0,33.0,0.3,20.501808166503906,37.80522155761719,0.0,0.0
96.0,33.0,0.7,20.501808166503906,37.80522155761719,0.0,0.0
96.0,33.0,1.0,20.501808166503906,37.80522155761719,0.0,0.0
96.0,41.0,0.1,21.45433807373047,44.00270462036133,0.0,0.0
96.0,41.0,0.3,21.45433807373047,44.00270462036133,0.0,0.0
96.0,41.0,0.7,21.45433807373047,44.00270462036133,0.0,0.0
96.0,41.0,1.0,21.45433807373047,44.00270462036133,0.0,0.0
96.0,49.0,0.1,42.27513885498047,49.87667465209961,0.0,0.0
96.0,49.0,0.3,42.27513885498047,49.87667465209961,0.0,0.0
96.0,49.0,0.7,42.27513885498047,49.87667465209961,0.0,0.0
96.0,49.0,1.0,42.27513885498047,49.87667465209961,0.0,0.0
96.0,57.0,0.1,45.30083465576172,54.302818298339844,0.0,0.0
96.0,57.0,0.3,45.30083465576172,54.302818298339844,0.0,0.0
96.0,57.0,0.7,45.30083465576172,54.302818298339844,0.0,0.0
96.0,57.0,1.0,45.30083465576172,54.302818298339844,0.0,0.0
96.0,65.0,0.1,47.75431823730469,58.70342254638672,0.0,0.0
96.0,65.0,0.3,47.75431823730469,58.70342254638672,0.0,0.0
96.0,65.0,0.7,47.75431823730469,58.70342254638672,0.0,0.0
96.0,65.0,1.0,47.75431823730469,58.70342254638672,0.0,0.0
96.0,73.0,0.1,50.52062225341797,62.284767150878906,0.0,0.0
96.0,73.0,0.3,50.52062225341797,62.284767150878906,0.0,0.0
96.0,73.0,0.7,50.52062225341797,62.284767150878906,0.0,0.0
96.0,73.0,1.0,50.52062225341797,62.284767150878906,0.0,0.0
96.0,81.0,0.1,52.91796112060547,65.21685791015625,0.0,0.0
96.0,81.0,0.3,52.91796112060547,65.21685791015625,0.0,0.0
96.0,81.0,0.7,52.91796112060547,65.21685791015625,0.0,0.0
96.0,81.0,1.0,52.91796112060547,65.21685791015625,0.0,0.0
96.0,89.0,0.1,54.097068786621094,67.4155502319336,0.0,0.0
96.0,89.0,0.3,54.097068786621094,67.4155502319336,0.0,0.0
96.0,89.0,0.7,54.097068786621094,67.4155502319336,0.0,0.0
96.0,89.0,1.0,54.097068786621094,67.4155502319336,0.0,0.0
96.0,97.0,0.1,55.9218864440918,70.1259994506836,0.0,0.0
96.0,97.0,0.3,55.9218864440918,70.1259994506836,0.0,0.0
96.0,97.0,0.7,55.9218864440918,70.1259994506836,0.0,0.0
96.0,97.0,1.0,55.9218864440918,70.1259994506836,0.0,0.0
96.0,105.0,0.1,56.34442901611328,71.55322265625,0.0,0.0
96.0,105.0,0.3,56.34442901611328,71.55322265625,0.0,0.0
96.0,105.0,0.7,56.34442901611328,71.55322265625,0.0,0.0
96.0,105.0,1.0,56.34442901611328,71.55322265625,0.0,0.0
96.0,113.0,0.1,56.339599609375,73.20295715332031,0.0,0.0
96.0,113.0,0.3,56.339599609375,73.20295715332031,0.0,0.0
96.0,113.0,0.7,56.339599609375,73.20295715332031,0.0,0.0
96.0,113.0,1.0,56.339599609375,73.20295715332031,0.0,0.0
96.0,121.0,0.1,56.350982666015625,72.80549621582031,0.0,0.0
96.0,121.0,0.3,56.350982666015625,72.80549621582031,0.0,0.0
96.0,121.0,0.7,56.350982666015625,72.80549621582031,0.0,0.0
96.0,121.0,1.0,56.350982666015625,72.80549621582031,0.0,0.0
96.0,127.0,0.1,56.37232971191406,72.94905853271484,0.0,0.0
96.0,127.0,0.3,56.37232971191406,72.94905853271484,0.0,0.0
96.0,127.0,0.7,56.37232971191406,72.94905853271484,0.0,0.0
96.0,127.0,1.0,56.37232971191406,72.94905853271484,0.0,0.0
97.0,1.0,0.1,22.128883361816406,26.964805603027344,0.0,0.0
97.0,1.0,0.3,22.128883361816406,26.964805603027344,0.0,0.0
97.0,1.0,0.7,22.128883361816406,26.964805603027344,0.0,0.0
97.0,1.0,1.0,22.128883361816406,26.964805603027344,0.0,0.0
97.0,9.0,0.1,31.8499755859375,27.794029235839844,0.0,0.0
97.0,9.0,0.3,31.8499755859375,27.794029235839844,0.0,0.0
97.0,9.0,0.7,31.8499755859375,27.794029235839844,0.0,0.0
97.0,9.0,1.0,31.8499755859375,27.794029235839844,0.0,0.0
97.0,17.0,0.1,23.18181610107422,27.477989196777344,0.0,0.0
97.0,17.0,0.3,23.18181610107422,27.477989196777344,0.0,0.0
97.0,17.0,0.7,23.18181610107422,27.477989196777344,0.0,0.0
97.0,17.0,1.0,23.18181610107422,27.477989196777344,0.0,0.0
97.0,25.0,0.1,24.54877471923828,33.55685043334961,0.0,0.0
97.0,25.0,0.3,24.54877471923828,33.55685043334961,0.0,0.0
97.0,25.0,0.7,24.54877471923828,33.55685043334961,0.0,0.0
97.0,25.0,1.0,24.54877471923828,33.55685043334961,0.0,0.0
97.0,33.0,0.1,24.732513427734375,36.195587158203125,0.0,0.0
97.0,33.0,0.3,24.732513427734375,36.195587158203125,0.0,0.0
97.0,33.0,0.7,24.732513427734375,36.195587158203125,0.0,0.0
97.0,33.0,1.0,24.732513427734375,36.195587158203125,0.0,0.0
97.0,41.0,0.1,28.337783813476562,40.0396728515625,0.0,0.0
97.0,41.0,0.3,28.337783813476562,40.0396728515625,0.0,0.0
97.0,41.0,0.7,28.337783813476562,40.0396728515625,0.0,0.0
97.0,41.0,1.0,28.337783813476562,40.0396728515625,0.0,0.0
97.0,49.0,0.1,24.589805603027344,44.82699203491211,0.0,0.0
97.0,49.0,0.3,24.589805603027344,44.82699203491211,0.0,0.0
97.0,49.0,0.7,24.589805603027344,44.82699203491211,0.0,0.0
97.0,49.0,1.0,24.589805603027344,44.82699203491211,0.0,0.0
97.0,57.0,0.1,32.81477355957031,47.94822692871094,0.0,0.0
97.0,57.0,0.3,32.81477355957031,47.94822692871094,0.0,0.0
97.0,57.0,0.7,32.81477355957031,47.94822692871094,0.0,0.0
97.0,57.0,1.0,32.81477355957031,47.94822692871094,0.0,0.0
97.0,65.0,0.1,47.802459716796875,50.69742965698242,0.0,0.0
97.0,65.0,0.3,47.802459716796875,50.69742965698242,0.0,0.0
97.0,65.0,0.7,47.802459716796875,50.69742965698242,0.0,0.0
97.0,65.0,1.0,47.802459716796875,50.69742965698242,0.0,0.0
97.0,73.0,0.1,50.726417541503906,55.18931579589844,0.0,0.0
97.0,73.0,0.3,50.726417541503906,55.18931579589844,0.0,0.0
97.0,73.0,0.7,50.726417541503906,55.18931579589844,0.0,0.0
97.0,73.0,1.0,50.726417541503906,55.18931579589844,0.0,0.0
97.0,81.0,0.1,51.77725601196289,57.694313049316406,0.0,0.0
97.0,81.0,0.3,51.77725601196289,57.694313049316406,0.0,0.0
97.0,81.0,0.7,51.77725601196289,57.694313049316406,0.0,0.0
97.0,81.0,1.0,51.77725601196289,57.694313049316406,0.0,0.0
97.0,89.0,0.1,53.787750244140625,58.84960174560547,0.0,0.0
97.0,89.0,0.3,53.787750244140625,58.84960174560547,0.0,0.0
97.0,89.0,0.7,53.787750244140625,58.84960174560547,0.0,0.0
97.0,89.0,1.0,53.787750244140625,58.84960174560547,0.0,0.0
97.0,97.0,0.1,55.56062316894531,61.87995147705078,0.0,0.0
97.0,97.0,0.3,55.56062316894531,61.87995147705078,0.0,0.0
97.0,97.0,0.7,55.56062316894531,61.87995147705078,0.0,0.0
97.0,97.0,1.0,55.56062316894531,61.87995147705078,0.0,0.0
97.0,105.0,0.1,56.6451301574707,64.9094467163086,0.0,0.0
97.0,105.0,0.3,56.6451301574707,64.9094467163086,0.0,0.0
97.0,105.0,0.7,56.6451301574707,64.9094467163086,0.0,0.0
97.0,105.0,1.0,56.6451301574707,64.9094467163086,0.0,0.0
97.0,113.0,0.1,56.45654296875,66.82164764404297,0.0,0.0
97.0,113.0,0.3,56.45654296875,66.82164764404297,0.0,0.0
97.0,113.0,0.7,56.45654296875,66.82164764404297,0.0,0.0
97.0,113.0,1.0,56.45654296875,66.82164764404297,0.0,0.0
97.0,121.0,0.1,56.434783935546875,67.34530639648438,0.0,0.0
97.0,121.0,0.3,56.434783935546875,67.34530639648438,0.0,0.0
97.0,121.0,0.7,56.434783935546875,67.34530639648438,0.0,0.0
97.0,121.0,1.0,56.434783935546875,67.34530639648438,0.0,0.0
97.0,127.0,0.1,56.368865966796875,67.6143798828125,0.0,0.0
97.0,127.0,0.3,56.368865966796875,67.6143798828125,0.0,0.0
97.0,127.0,0.7,56.368865966796875,67.6143798828125,0.0,0.0
97.0,127.0,1.0,56.368865966796875,67.6143798828125,0.0,0.0
98.0,1.0,0.1,42.475833892822266,28.486297607421875,0.0,0.0
98.0,1.0,0.3,42.475833892822266,28.486297607421875,0.0,0.0
98.0,1.0,0.7,42.475833892822266,28.486297607421875,0.0,0.0
98.0,1.0,1.0,42.475833892822266,28.486297607421875,0.0,0.0
98.0,9.0,0.1,24.291229248046875,29.39220428466797,0.0,0.0
98.0,9.0,0.3,24.291229248046875,29.39220428466797,0.0,0.0
98.0,9.0,0.7,24.291229248046875,29.39220428466797,0.0,0.0
98.0,9.0,1.0,24.291229248046875,29.39220428466797,0.0,0.0
98.0,17.0,0.1,28.348342895507812,28.55022430419922,0.0,0.0
98.0,17.0,0.3,28.348342895507812,28.55022430419922,0.0,0.0
98.0,17.0,0.7,28.348342895507812,28.55022430419922,0.0,0.0
98.0,17.0,1.0,28.348342895507812,28.55022430419922,0.0,0.0
98.0,25.0,0.1,26.536705017089844,34.55038833618164,0.0,0.0
98.0,25.0,0.3,26.536705017089844,34.55038833618164,0.0,0.0
98.0,25.0,0.7,26.536705017089844,34.55038833618164,0.0,0.0
98.0,25.0,1.0,26.536705017089844,34.55038833618164,0.0,0.0
98.0,33.0,0.1,22.06194305419922,40.9419059753418,0.0,0.0
98.0,33.0,0.3,22.06194305419922,40.9419059753418,0.0,0.0
98.0,33.0,0.7,22.06194305419922,40.9419059753418,0.0,0.0
98.0,33.0,1.0,22.06194305419922,40.9419059753418,0.0,0.0
98.0,41.0,0.1,27.6173095703125,46.791351318359375,0.0,0.0
98.0,41.0,0.3,27.6173095703125,46.791351318359375,0.0,0.0
98.0,41.0,0.7,27.6173095703125,46.791351318359375,0.0,0.0
98.0,41.0,1.0,27.6173095703125,46.791351318359375,0.0,0.0
98.0,49.0,0.1,40.51087188720703,52.388465881347656,0.0,0.0
98.0,49.0,0.3,40.51087188720703,52.388465881347656,0.0,0.0
98.0,49.0,0.7,40.51087188720703,52.388465881347656,0.0,0.0
98.0,49.0,1.0,40.51087188720703,52.388465881347656,0.0,0.0
98.0,57.0,0.1,41.80910110473633,55.234344482421875,0.0,0.0
98.0,57.0,0.3,41.80910110473633,55.234344482421875,0.0,0.0
98.0,57.0,0.7,41.80910110473633,55.234344482421875,0.0,0.0
98.0,57.0,1.0,41.80910110473633,55.234344482421875,0.0,0.0
98.0,65.0,0.1,44.37774658203125,59.015968322753906,0.0,0.0
98.0,65.0,0.3,44.37774658203125,59.015968322753906,0.0,0.0
98.0,65.0,0.7,44.37774658203125,59.015968322753906,0.0,0.0
98.0,65.0,1.0,44.37774658203125,59.015968322753906,0.0,0.0
98.0,73.0,0.1,47.09608840942383,62.69260787963867,0.0,0.0
98.0,73.0,0.3,47.09608840942383,62.69260787963867,0.0,0.0
98.0,73.0,0.7,47.09608840942383,62.69260787963867,0.0,0.0
98.0,73.0,1.0,47.09608840942383,62.69260787963867,0.0,0.0
98.0,81.0,0.1,49.40753173828125,65.59964752197266,0.0,0.0
98.0,81.0,0.3,49.40753173828125,65.59964752197266,0.0,0.0
98.0,81.0,0.7,49.40753173828125,65.59964752197266,0.0,0.0
98.0,81.0,1.0,49.40753173828125,65.59964752197266,0.0,0.0
98.0,89.0,0.1,51.399513244628906,67.88656616210938,0.0,0.0
98.0,89.0,0.3,51.399513244628906,67.88656616210938,0.0,0.0
98.0,89.0,0.7,51.399513244628906,67.88656616210938,0.0,0.0
98.0,89.0,1.0,51.399513244628906,67.88656616210938,0.0,0.0
98.0,97.0,0.1,52.78287887573242,70.06848907470703,0.0,0.0
98.0,97.0,0.3,52.78287887573242,70.06848907470703,0.0,0.0
98.0,97.0,0.7,52.78287887573242,70.06848907470703,0.0,0.0
98.0,97.0,1.0,52.78287887573242,70.06848907470703,0.0,0.0
98.0,105.0,0.1,53.69352722167969,73.01904296875,0.0,0.0
98.0,105.0,0.3,53.69352722167969,73.01904296875,0.0,0.0
98.0,105.0,0.7,53.69352722167969,73.01904296875,0.0,0.0
98.0,105.0,1.0,53.69352722167969,73.01904296875,0.0,0.0
98.0,113.0,0.1,53.61506271362305,74.51485443115234,0.0,0.0
98.0,113.0,0.3,53.61506271362305,74.51485443115234,0.0,0.0
98.0,113.0,0.7,53.61506271362305,74.51485443115234,0.0,0.0
98.0,113.0,1.0,53.61506271362305,74.51485443115234,0.0,0.0
98.0,121.0,0.1,53.60605239868164,74.69254302978516,0.0,0.0
98.0,121.0,0.3,53.60605239868164,74.69254302978516,0.0,0.0
98.0,121.0,0.7,53.60605239868164,74.69254302978516,0.0,0.0
98.0,121.0,1.0,53.60605239868164,74.69254302978516,0.0,0.0
98.0,127.0,0.1,53.417083740234375,74.66421508789062,0.0,0.0
98.0,127.0,0.3,53.417083740234375,74.66421508789062,0.0,0.0
98.0,127.0,0.7,53.417083740234375,74.66421508789062,0.0,0.0
98.0,127.0,1.0,53.417083740234375,74.66421508789062,0.0,0.0
99.0,1.0,0.1,41.84099578857422,26.843345642089844,0.0,0.0
99.0,1.0,0.3,41.84099578857422,26.843345642089844,0.0,0.0
99.0,1.0,0.7,41.84099578857422,26.843345642089844,0.0,0.0
99.0,1.0,1.0,41.84099578857422,26.843345642089844,0.0,0.0
99.0,9.0,0.1,38.011619567871094,27.2613525390625,0.0,0.0
99.0,9.0,0.3,38.011619567871094,27.2613525390625,0.0,0.0
99.0,9.0,0.7,38.011619567871094,27.2613525390625,0.0,0.0
99.0,9.0,1.0,38.011619567871094,27.2613525390625,0.0,0.0
99.0,17.0,0.1,24.088577270507812,27.46955108642578,0.0,0.0
99.0,17.0,0.3,24.088577270507812,27.46955108642578,0.0,0.0
99.0,17.0,0.7,24.088577270507812,27.46955108642578,0.0,0.0
99.0,17.0,1.0,24.088577270507812,27.46955108642578,0.0,0.0
99.0,25.0,0.1,33.705848693847656,29.00495147705078,0.0,0.0
99.0,25.0,0.3,33.705848693847656,29.00495147705078,0.0,0.0
99.0,25.0,0.7,33.705848693847656,29.00495147705078,0.0,0.0
99.0,25.0,1.0,33.705848693847656,29.00495147705078,0.0,0.0
99.0,33.0,0.1,22.79515838623047,38.15913009643555,0.0,0.0
99.0,33.0,0.3,22.79515838623047,38.15913009643555,0.0,0.0
99.0,33.0,0.7,22.79515838623047,38.15913009643555,0.0,0.0
99.0,33.0,1.0,22.79515838623047,38.15913009643555,0.0,0.0
99.0,41.0,0.1,24.56200408935547,43.32283020019531,0.0,0.0
99.0,41.0,0.3,24.56200408935547,43.32283020019531,0.0,0.0
99.0,41.0,0.7,24.56200408935547,43.32283020019531,0.0,0.0
99.0,41.0,1.0,24.56200408935547,43.32283020019531,0.0,0.0
99.0,49.0,0.1,24.422988891601562,50.90998077392578,0.0,0.0
99.0,49.0,0.3,24.422988891601562,50.90998077392578,0.0,0.0
99.0,49.0,0.7,24.422988891601562,50.90998077392578,0.0,0.0
99.0,49.0,1.0,24.422988891601562,50.90998077392578,0.0,0.0
99.0,57.0,0.1,44.076072692871094,54.96685028076172,0.0,0.0
99.0,57.0,0.3,44.076072692871094,54.96685028076172,0.0,0.0
99.0,57.0,0.7,44.076072692871094,54.96685028076172,0.0,0.0
99.0,57.0,1.0,44.076072692871094,54.96685028076172,0.0,0.0
99.0,65.0,0.1,44.87870788574219,58.32297897338867,0.0,0.0
99.0,65.0,0.3,44.87870788574219,58.32297897338867,0.0,0.0
99.0,65.0,0.7,44.87870788574219,58.32297897338867,0.0,0.0
99.0,65.0,1.0,44.87870788574219,58.32297897338867,0.0,0.0
99.0,73.0,0.1,47.951171875,61.338565826416016,0.0,0.0
99.0,73.0,0.3,47.951171875,61.338565826416016,0.0,0.0
99.0,73.0,0.7,47.951171875,61.338565826416016,0.0,0.0
99.0,73.0,1.0,47.951171875,61.338565826416016,0.0,0.0
99.0,81.0,0.1,52.29401397705078,63.87424850463867,0.0,0.0
99.0,81.0,0.3,52.29401397705078,63.87424850463867,0.0,0.0
99.0,81.0,0.7,52.29401397705078,63.87424850463867,0.0,0.0
99.0,81.0,1.0,52.29401397705078,63.87424850463867,0.0,0.0
99.0,89.0,0.1,55.11366653442383,66.37783813476562,0.0,0.0
99.0,89.0,0.3,55.11366653442383,66.37783813476562,0.0,0.0
99.0,89.0,0.7,55.11366653442383,66.37783813476562,0.0,0.0
99.0,89.0,1.0,55.11366653442383,66.37783813476562,0.0,0.0
99.0,97.0,0.1,54.96561050415039,68.25537109375,0.0,0.0
99.0,97.0,0.3,54.96561050415039,68.25537109375,0.0,0.0
99.0,97.0,0.7,54.96561050415039,68.25537109375,0.0,0.0
99.0,97.0,1.0,54.96561050415039,68.25537109375,0.0,0.0
99.0,105.0,0.1,58.29802703857422,69.64962005615234,0.0,0.0
99.0,105.0,0.3,58.29802703857422,69.64962005615234,0.0,0.0
99.0,105.0,0.7,58.29802703857422,69.64962005615234,0.0,0.0
99.0,105.0,1.0,58.29802703857422,69.64962005615234,0.0,0.0
99.0,113.0,0.1,57.964717864990234,72.72882080078125,0.0,0.0
99.0,113.0,0.3,57.964717864990234,72.72882080078125,0.0,0.0
99.0,113.0,0.7,57.964717864990234,72.72882080078125,0.0,0.0
99.0,113.0,1.0,57.964717864990234,72.72882080078125,0.0,0.0
99.0,121.0,0.1,57.791603088378906,72.73736572265625,0.0,0.0
99.0,121.0,0.3,57.791603088378906,72.73736572265625,0.0,0.0
99.0,121.0,0.7,57.791603088378906,72.73736572265625,0.0,0.0
99.0,121.0,1.0,57.791603088378906,72.73736572265625,0.0,0.0
99.0,127.0,0.1,57.808921813964844,72.74626922607422,0.0,0.0
99.0,127.0,0.3,57.808921813964844,72.74626922607422,0.0,0.0
99.0,127.0,0.7,57.808921813964844,72.74626922607422,0.0,0.0
99.0,127.0,1.0,57.808921813964844,72.74626922607422,0.0,0.0
100.0,1.0,0.1,25.088531494140625,24.72296905517578,0.0,0.0
100.0,1.0,0.3,25.088531494140625,24.72296905517578,0.0,0.0
100.0,1.0,0.7,25.088531494140625,24.72296905517578,0.0,0.0
100.0,1.0,1.0,25.088531494140625,24.72296905517578,0.0,0.0
100.0,9.0,0.1,28.35993194580078,25.63805389404297,0.0,0.0
100.0,9.0,0.3,28.35993194580078,25.63805389404297,0.0,0.0
100.0,9.0,0.7,28.35993194580078,25.63805389404297,0.0,0.0
100.0,9.0,1.0,28.35993194580078,25.63805389404297,0.0,0.0
100.0,17.0,0.1,25.59087371826172,26.62787628173828,0.0,0.0
100.0,17.0,0.3,25.59087371826172,26.62787628173828,0.0,0.0
100.0,17.0,0.7,25.59087371826172,26.62787628173828,0.0,0.0
100.0,17.0,1.0,25.59087371826172,26.62787628173828,0.0,0.0
100.0,25.0,0.1,25.986717224121094,30.89617156982422,0.0,0.0
100.0,25.0,0.3,25.986717224121094,30.89617156982422,0.0,0.0
100.0,25.0,0.7,25.986717224121094,30.89617156982422,0.0,0.0
100.0,25.0,1.0,25.986717224121094,30.89617156982422,0.0,0.0
100.0,33.0,0.1,26.278228759765625,37.917903900146484,0.0,0.0
100.0,33.0,0.3,26.278228759765625,37.917903900146484,0.0,0.0
100.0,33.0,0.7,26.278228759765625,37.917903900146484,0.0,0.0
100.0,33.0,1.0,26.278228759765625,37.917903900146484,0.0,0.0
100.0,41.0,0.1,26.584266662597656,42.91292190551758,0.0,0.0
100.0,41.0,0.3,26.584266662597656,42.91292190551758,0.0,0.0
100.0,41.0,0.7,26.584266662597656,42.91292190551758,0.0,0.0
100.0,41.0,1.0,26.584266662597656,42.91292190551758,0.0,0.0
100.0,49.0,0.1,31.24907684326172,48.811424255371094,0.0,0.0
100.0,49.0,0.3,31.24907684326172,48.811424255371094,0.0,0.0
100.0,49.0,0.7,31.24907684326172,48.811424255371094,0.0,0.0
100.0,49.0,1.0,31.24907684326172,48.811424255371094,0.0,0.0
100.0,57.0,0.1,26.18048095703125,52.51865768432617,0.0,0.0
100.0,57.0,0.3,26.18048095703125,52.51865768432617,0.0,0.0
100.0,57.0,0.7,26.18048095703125,52.51865768432617,0.0,0.0
100.0,57.0,1.0,26.18048095703125,52.51865768432617,0.0,0.0
100.0,65.0,0.1,46.88801574707031,55.89225387573242,0.0,0.0
100.0,65.0,0.3,46.88801574707031,55.89225387573242,0.0,0.0
100.0,65.0,0.7,46.88801574707031,55.89225387573242,0.0,0.0
100.0,65.0,1.0,46.88801574707031,55.89225387573242,0.0,0.0
100.0,73.0,0.1,52.18601989746094,58.29942321777344,0.0,0.0
100.0,73.0,0.3,52.18601989746094,58.29942321777344,0.0,0.0
100.0,73.0,0.7,52.18601989746094,58.29942321777344,0.0,0.0
100.0,73.0,1.0,52.18601989746094,58.29942321777344,0.0,0.0
100.0,81.0,0.1,55.68521499633789,60.80086898803711,0.0,0.0
100.0,81.0,0.3,55.68521499633789,60.80086898803711,0.0,0.0
100.0,81.0,0.7,55.68521499633789,60.80086898803711,0.0,0.0
100.0,81.0,1.0,55.68521499633789,60.80086898803711,0.0,0.0
100.0,89.0,0.1,58.03805923461914,63.21907043457031,0.0,0.0
100.0,89.0,0.3,58.03805923461914,63.21907043457031,0.0,0.0
100.0,89.0,0.7,58.03805923461914,63.21907043457031,0.0,0.0
100.0,89.0,1.0,58.03805923461914,63.21907043457031,0.0,0.0
100.0,97.0,0.1,60.271976470947266,64.91578674316406,0.0,0.0
100.0,97.0,0.3,60.271976470947266,64.91578674316406,0.0,0.0
100.0,97.0,0.7,60.271976470947266,64.91578674316406,0.0,0.0
100.0,97.0,1.0,60.271976470947266,64.91578674316406,0.0,0.0
100.0,105.0,0.1,58.17070770263672,66.1548843383789,0.0,0.0
100.0,105.0,0.3,58.17070770263672,66.1548843383789,0.0,0.0
100.0,105.0,0.7,58.17070770263672,66.1548843383789,0.0,0.0
100.0,105.0,1.0,58.17070770263672,66.1548843383789,0.0,0.0
100.0,113.0,0.1,58.41828918457031,69.75379180908203,0.0,0.0
100.0,113.0,0.3,58.41828918457031,69.75379180908203,0.0,0.0
100.0,113.0,0.7,58.41828918457031,69.75379180908203,0.0,0.0
100.0,113.0,1.0,58.41828918457031,69.75379180908203,0.0,0.0
100.0,121.0,0.1,59.441139221191406,69.62228393554688,0.0,0.0
100.0,121.0,0.3,59.441139221191406,69.62228393554688,0.0,0.0
100.0,121.0,0.7,59.441139221191406,69.62228393554688,0.0,0.0
100.0,121.0,1.0,59.441139221191406,69.62228393554688,0.0,0.0
100.0,127.0,0.1,59.55227279663086,69.66389465332031,0.0,0.0
100.0,127.0,0.3,59.55227279663086,69.66389465332031,0.0,0.0
100.0,127.0,0.7,59.55227279663086,69.66389465332031,0.0,0.0
100.0,127.0,1.0,59.55227279663086,69.66389465332031,0.0,0.0
101.0,1.0,0.1,35.743412017822266,25.971420288085938,0.0,0.0
101.0,1.0,0.3,35.743412017822266,25.971420288085938,0.0,0.0
101.0,1.0,0.7,35.743412017822266,25.971420288085938,0.0,0.0
101.0,1.0,1.0,35.743412017822266,25.971420288085938,0.0,0.0
101.0,9.0,0.1,26.259193420410156,27.16413116455078,0.0,0.0
101.0,9.0,0.3,26.259193420410156,27.16413116455078,0.0,0.0
101.0,9.0,0.7,26.259193420410156,27.16413116455078,0.0,0.0
101.0,9.0,1.0,26.259193420410156,27.16413116455078,0.0,0.0
101.0,17.0,0.1,25.583633422851562,28.089248657226562,0.0,0.0
101.0,17.0,0.3,25.583633422851562,28.089248657226562,0.0,0.0
101.0,17.0,0.7,25.583633422851562,28.089248657226562,0.0,0.0
101.0,17.0,1.0,25.583633422851562,28.089248657226562,0.0,0.0
101.0,25.0,0.1,22.22760009765625,33.0803337097168,0.0,0.0
101.0,25.0,0.3,22.22760009765625,33.0803337097168,0.0,0.0
101.0,25.0,0.7,22.22760009765625,33.0803337097168,0.0,0.0
101.0,25.0,1.0,22.22760009765625,33.0803337097168,0.0,0.0
101.0,33.0,0.1,27.05584716796875,38.85317611694336,0.0,0.0
101.0,33.0,0.3,27.05584716796875,38.85317611694336,0.0,0.0
101.0,33.0,0.7,27.05584716796875,38.85317611694336,0.0,0.0
101.0,33.0,1.0,27.05584716796875,38.85317611694336,0.0,0.0
101.0,41.0,0.1,24.518661499023438,44.84066390991211,0.0,0.0
101.0,41.0,0.3,24.518661499023438,44.84066390991211,0.0,0.0
101.0,41.0,0.7,24.518661499023438,44.84066390991211,0.0,0.0
101.0,41.0,1.0,24.518661499023438,44.84066390991211,0.0,0.0
101.0,49.0,0.1,26.165771484375,49.819602966308594,0.0,0.0
101.0,49.0,0.3,26.165771484375,49.819602966308594,0.0,0.0
101.0,49.0,0.7,26.165771484375,49.819602966308594,0.0,0.0
101.0,49.0,1.0,26.165771484375,49.819602966308594,0.0,0.0
101.0,57.0,0.1,43.603885650634766,53.29710006713867,0.0,0.0
101.0,57.0,0.3,43.603885650634766,53.29710006713867,0.0,0.0
101.0,57.0,0.7,43.603885650634766,53.29710006713867,0.0,0.0
101.0,57.0,1.0,43.603885650634766,53.29710006713867,0.0,0.0
101.0,65.0,0.1,26.592697143554688,56.701072692871094,0.0,0.0
101.0,65.0,0.3,26.592697143554688,56.701072692871094,0.0,0.0
101.0,65.0,0.7,26.592697143554688,56.701072692871094,0.0,0.0
101.0,65.0,1.0,26.592697143554688,56.701072692871094,0.0,0.0
101.0,73.0,0.1,25.007484436035156,59.38631820678711,0.0,0.0
101.0,73.0,0.3,25.007484436035156,59.38631820678711,0.0,0.0
101.0,73.0,0.7,25.007484436035156,59.38631820678711,0.0,0.0
101.0,73.0,1.0,25.007484436035156,59.38631820678711,0.0,0.0
101.0,81.0,0.1,53.06932830810547,61.81417465209961,0.0,0.0
101.0,81.0,0.3,53.06932830810547,61.81417465209961,0.0,0.0
101.0,81.0,0.7,53.06932830810547,61.81417465209961,0.0,0.0
101.0,81.0,1.0,53.06932830810547,61.81417465209961,0.0,0.0
101.0,89.0,0.1,54.82492446899414,64.792236328125,0.0,0.0
101.0,89.0,0.3,54.82492446899414,64.792236328125,0.0,0.0
101.0,89.0,0.7,54.82492446899414,64.792236328125,0.0,0.0
101.0,89.0,1.0,54.82492446899414,64.792236328125,0.0,0.0
101.0,97.0,0.1,56.369808197021484,68.02359008789062,0.0,0.0
101.0,97.0,0.3,56.369808197021484,68.02359008789062,0.0,0.0
101.0,97.0,0.7,56.369808197021484,68.02359008789062,0.0,0.0
101.0,97.0,1.0,56.369808197021484,68.02359008789062,0.0,0.0
101.0,105.0,0.1,57.70996856689453,70.41456604003906,0.0,0.0
101.0,105.0,0.3,57.70996856689453,70.41456604003906,0.0,0.0
101.0,105.0,0.7,57.70996856689453,70.41456604003906,0.0,0.0
101.0,105.0,1.0,57.70996856689453,70.41456604003906,0.0,0.0
101.0,113.0,0.1,57.756507873535156,69.71115112304688,0.0,0.0
101.0,113.0,0.3,57.756507873535156,69.71115112304688,0.0,0.0
101.0,113.0,0.7,57.756507873535156,69.71115112304688,0.0,0.0
101.0,113.0,1.0,57.756507873535156,69.71115112304688,0.0,0.0
101.0,121.0,0.1,57.739768981933594,71.62129211425781,0.0,0.0
101.0,121.0,0.3,57.739768981933594,71.62129211425781,0.0,0.0
101.0,121.0,0.7,57.739768981933594,71.62129211425781,0.0,0.0
101.0,121.0,1.0,57.739768981933594,71.62129211425781,0.0,0.0
101.0,127.0,0.1,57.94576644897461,71.57588195800781,0.0,0.0
101.0,127.0,0.3,57.94576644897461,71.57588195800781,0.0,0.0
101.0,127.0,0.7,57.94576644897461,71.57588195800781,0.0,0.0
101.0,127.0,1.0,57.94576644897461,71.57588195800781,0.0,0.0
102.0,1.0,0.1,24.609420776367188,27.75396728515625,0.0,0.0
102.0,1.0,0.3,24.609420776367188,27.75396728515625,0.0,0.0
102.0,1.0,0.7,24.609420776367188,27.75396728515625,0.0,0.0
102.0,1.0,1.0,24.609420776367188,27.75396728515625,0.0,0.0
102.0,9.0,0.1,26.393829345703125,28.242759704589844,0.0,0.0
102.0,9.0,0.3,26.393829345703125,28.242759704589844,0.0,0.0
102.0,9.0,0.7,26.393829345703125,28.242759704589844,0.0,0.0
102.0,9.0,1.0,26.393829345703125,28.242759704589844,0.0,0.0
102.0,17.0,0.1,24.648887634277344,28.959976196289062,0.0,0.0
102.0,17.0,0.3,24.648887634277344,28.959976196289062,0.0,0.0
102.0,17.0,0.7,24.648887634277344,28.959976196289062,0.0,0.0
102.0,17.0,1.0,24.648887634277344,28.959976196289062,0.0,0.0
102.0,25.0,0.1,26.364097595214844,33.08809280395508,0.0,0.0
102.0,25.0,0.3,26.364097595214844,33.08809280395508,0.0,0.0
102.0,25.0,0.7,26.364097595214844,33.08809280395508,0.0,0.0
102.0,25.0,1.0,26.364097595214844,33.08809280395508,0.0,0.0
102.0,33.0,0.1,26.001693725585938,38.341243743896484,0.0,0.0
102.0,33.0,0.3,26.001693725585938,38.341243743896484,0.0,0.0
102.0,33.0,0.7,26.001693725585938,38.341243743896484,0.0,0.0
102.0,33.0,1.0,26.001693725585938,38.341243743896484,0.0,0.0
102.0,41.0,0.1,23.53199005126953,43.55923080444336,0.0,0.0
102.0,41.0,0.3,23.53199005126953,43.55923080444336,0.0,0.0
102.0,41.0,0.7,23.53199005126953,43.55923080444336,0.0,0.0
102.0,41.0,1.0,23.53199005126953,43.55923080444336,0.0,0.0
102.0,49.0,0.1,21.579063415527344,47.2154426574707,0.0,0.0
102.0,49.0,0.3,21.579063415527344,47.2154426574707,0.0,0.0
102.0,49.0,0.7,21.579063415527344,47.2154426574707,0.0,0.0
102.0,49.0,1.0,21.579063415527344,47.2154426574707,0.0,0.0
102.0,57.0,0.1,35.75765609741211,50.01008987426758,0.0,0.0
102.0,57.0,0.3,35.75765609741211,50.01008987426758,0.0,0.0
102.0,57.0,0.7,35.75765609741211,50.01008987426758,0.0,0.0
102.0,57.0,1.0,35.75765609741211,50.01008987426758,0.0,0.0
102.0,65.0,0.1,41.96171188354492,53.080841064453125,0.0,0.0
102.0,65.0,0.3,41.96171188354492,53.080841064453125,0.0,0.0
102.0,65.0,0.7,41.96171188354492,53.080841064453125,0.0,0.0
102.0,65.0,1.0,41.96171188354492,53.080841064453125,0.0,0.0
102.0,73.0,0.1,45.641197204589844,55.91529846191406,0.0,0.0
102.0,73.0,0.3,45.641197204589844,55.91529846191406,0.0,0.0
102.0,73.0,0.7,45.641197204589844,55.91529846191406,0.0,0.0
102.0,73.0,1.0,45.641197204589844,55.91529846191406,0.0,0.0
102.0,81.0,0.1,51.00666427612305,58.36150360107422,0.0,0.0
102.0,81.0,0.3,51.00666427612305,58.36150360107422,0.0,0.0
102.0,81.0,0.7,51.00666427612305,58.36150360107422,0.0,0.0
102.0,81.0,1.0,51.00666427612305,58.36150360107422,0.0,0.0
102.0,89.0,0.1,48.363155364990234,60.314666748046875,0.0,0.0
102.0,89.0,0.3,48.363155364990234,60.314666748046875,0.0,0.0
102.0,89.0,0.7,48.363155364990234,60.314666748046875,0.0,0.0
102.0,89.0,1.0,48.363155364990234,60.314666748046875,0.0,0.0
102.0,97.0,0.1,55.17341613769531,62.54181671142578,0.0,0.0
102.0,97.0,0.3,55.17341613769531,62.54181671142578,0.0,0.0
102.0,97.0,0.7,55.17341613769531,62.54181671142578,0.0,0.0
102.0,97.0,1.0,55.17341613769531,62.54181671142578,0.0,0.0
102.0,105.0,0.1,54.676856994628906,65.97256469726562,0.0,0.0
102.0,105.0,0.3,54.676856994628906,65.97256469726562,0.0,0.0
102.0,105.0,0.7,54.676856994628906,65.97256469726562,0.0,0.0
102.0,105.0,1.0,54.676856994628906,65.97256469726562,0.0,0.0
102.0,113.0,0.1,54.94438552856445,67.609619140625,0.0,0.0
102.0,113.0,0.3,54.94438552856445,67.609619140625,0.0,0.0
102.0,113.0,0.7,54.94438552856445,67.609619140625,0.0,0.0
102.0,113.0,1.0,54.94438552856445,67.609619140625,0.0,0.0
102.0,121.0,0.1,54.96800994873047,67.651611328125,0.0,0.0
102.0,121.0,0.3,54.96800994873047,67.651611328125,0.0,0.0
102.0,121.0,0.7,54.96800994873047,67.651611328125,0.0,0.0
102.0,121.0,1.0,54.96800994873047,67.651611328125,0.0,0.0
102.0,127.0,0.1,55.080299377441406,67.65470886230469,0.0,0.0
102.0,127.0,0.3,55.080299377441406,67.65470886230469,0.0,0.0
102.0,127.0,0.7,55.080299377441406,67.65470886230469,0.0,0.0
102.0,127.0,1.0,55.080299377441406,67.65470886230469,0.0,0.0
103.0,1.0,0.1,19.18798828125,29.178543090820312,0.0,0.0
103.0,1.0,0.3,19.18798828125,29.178543090820312,0.0,0.0
103.0,1.0,0.7,19.18798828125,29.178543090820312,0.0,0.0
103.0,1.0,1.0,19.18798828125,29.178543090820312,0.0,0.0
103.0,9.0,0.1,24.071006774902344,30.489124298095703,0.0,0.0
103.0,9.0,0.3,24.071006774902344,30.489124298095703,0.0,0.0
103.0,9.0,0.7,24.071006774902344,30.489124298095703,0.0,0.0
103.0,9.0,1.0,24.071006774902344,30.489124298095703,0.0,0.0
103.0,17.0,0.1,22.64453887939453,28.479690551757812,0.0,0.0
103.0,17.0,0.3,22.64453887939453,28.479690551757812,0.0,0.0
103.0,17.0,0.7,22.64453887939453,28.479690551757812,0.0,0.0
103.0,17.0,1.0,22.64453887939453,28.479690551757812,0.0,0.0
103.0,25.0,0.1,23.172325134277344,37.9415168762207,0.0,0.0
103.0,25.0,0.3,23.172325134277344,37.9415168762207,0.0,0.0
103.0,25.0,0.7,23.172325134277344,37.9415168762207,0.0,0.0
103.0,25.0,1.0,23.172325134277344,37.9415168762207,0.0,0.0
103.0,33.0,0.1,22.462173461914062,42.42527770996094,0.0,0.0
103.0,33.0,0.3,22.462173461914062,42.42527770996094,0.0,0.0
103.0,33.0,0.7,22.462173461914062,42.42527770996094,0.0,0.0
103.0,33.0,1.0,22.462173461914062,42.42527770996094,0.0,0.0
103.0,41.0,0.1,29.11724853515625,45.825775146484375,0.0,0.0
103.0,41.0,0.3,29.11724853515625,45.825775146484375,0.0,0.0
103.0,41.0,0.7,29.11724853515625,45.825775146484375,0.0,0.0
103.0,41.0,1.0,29.11724853515625,45.825775146484375,0.0,0.0
103.0,49.0,0.1,23.865257263183594,49.771480560302734,0.0,0.0
103.0,49.0,0.3,23.865257263183594,49.771480560302734,0.0,0.0
103.0,49.0,0.7,23.865257263183594,49.771480560302734,0.0,0.0
103.0,49.0,1.0,23.865257263183594,49.771480560302734,0.0,0.0
103.0,57.0,0.1,24.139671325683594,52.57746505737305,0.0,0.0
103.0,57.0,0.3,24.139671325683594,52.57746505737305,0.0,0.0
103.0,57.0,0.7,24.139671325683594,52.57746505737305,0.0,0.0
103.0,57.0,1.0,24.139671325683594,52.57746505737305,0.0,0.0
103.0,65.0,0.1,26.890342712402344,52.99501037597656,0.0,0.0
103.0,65.0,0.3,26.890342712402344,52.99501037597656,0.0,0.0
103.0,65.0,0.7,26.890342712402344,52.99501037597656,0.0,0.0
103.0,65.0,1.0,26.890342712402344,52.99501037597656,0.0,0.0
103.0,73.0,0.1,22.213470458984375,54.936092376708984,0.0,0.0
103.0,73.0,0.3,22.213470458984375,54.936092376708984,0.0,0.0
103.0,73.0,0.7,22.213470458984375,54.936092376708984,0.0,0.0
103.0,73.0,1.0,22.213470458984375,54.936092376708984,0.0,0.0
103.0,81.0,0.1,24.429222106933594,56.33918762207031,0.0,0.0
103.0,81.0,0.3,24.429222106933594,56.33918762207031,0.0,0.0
103.0,81.0,0.7,24.429222106933594,56.33918762207031,0.0,0.0
103.0,81.0,1.0,24.429222106933594,56.33918762207031,0.0,0.0
103.0,89.0,0.1,21.61163330078125,57.683658599853516,0.0,0.0
103.0,89.0,0.3,21.61163330078125,57.683658599853516,0.0,0.0
103.0,89.0,0.7,21.61163330078125,57.683658599853516,0.0,0.0
103.0,89.0,1.0,21.61163330078125,57.683658599853516,0.0,0.0
103.0,97.0,0.1,22.792739868164062,59.907981872558594,0.0,0.0
103.0,97.0,0.3,22.792739868164062,59.907981872558594,0.0,0.0
103.0,97.0,0.7,22.792739868164062,59.907981872558594,0.0,0.0
103.0,97.0,1.0,22.792739868164062,59.907981872558594,0.0,0.0
103.0,105.0,0.1,57.64533996582031,64.21854400634766,0.0,0.0
103.0,105.0,0.3,57.64533996582031,64.21854400634766,0.0,0.0
103.0,105.0,0.7,57.64533996582031,64.21854400634766,0.0,0.0
103.0,105.0,1.0,57.64533996582031,64.21854400634766,0.0,0.0
103.0,113.0,0.1,23.487701416015625,65.80903625488281,0.0,0.0
103.0,113.0,0.3,23.487701416015625,65.80903625488281,0.0,0.0
103.0,113.0,0.7,23.487701416015625,65.80903625488281,0.0,0.0
103.0,113.0,1.0,23.487701416015625,65.80903625488281,0.0,0.0
103.0,121.0,0.1,21.587875366210938,65.91725158691406,0.0,0.0
103.0,121.0,0.3,21.587875366210938,65.91725158691406,0.0,0.0
103.0,121.0,0.7,21.587875366210938,65.91725158691406,0.0,0.0
103.0,121.0,1.0,21.587875366210938,65.91725158691406,0.0,0.0
103.0,127.0,0.1,22.04090118408203,65.98799133300781,0.0,0.0
103.0,127.0,0.3,22.04090118408203,65.98799133300781,0.0,0.0
103.0,127.0,0.7,22.04090118408203,65.98799133300781,0.0,0.0
103.0,127.0,1.0,22.04090118408203,65.98799133300781,0.0,0.0
104.0,1.0,0.1,23.41223907470703,26.9581298828125,0.0,0.0
104.0,1.0,0.3,23.41223907470703,26.9581298828125,0.0,0.0
104.0,1.0,0.7,23.41223907470703,26.9581298828125,0.0,0.0
104.0,1.0,1.0,23.41223907470703,26.9581298828125,0.0,0.0
104.0,9.0,0.1,26.428619384765625,27.418869018554688,0.0,0.0
104.0,9.0,0.3,26.428619384765625,27.418869018554688,0.0,0.0
104.0,9.0,0.7,26.428619384765625,27.418869018554688,0.0,0.0
104.0,9.0,1.0,26.428619384765625,27.418869018554688,0.0,0.0
104.0,17.0,0.1,24.627464294433594,27.7635498046875,0.0,0.0
104.0,17.0,0.3,24.627464294433594,27.7635498046875,0.0,0.0
104.0,17.0,0.7,24.627464294433594,27.7635498046875,0.0,0.0
104.0,17.0,1.0,24.627464294433594,27.7635498046875,0.0,0.0
104.0,25.0,0.1,26.051834106445312,33.40470886230469,0.0,0.0
104.0,25.0,0.3,26.051834106445312,33.40470886230469,0.0,0.0
104.0,25.0,0.7,26.051834106445312,33.40470886230469,0.0,0.0
104.0,25.0,1.0,26.051834106445312,33.40470886230469,0.0,0.0
104.0,33.0,0.1,21.055099487304688,37.21971130371094,0.0,0.0
104.0,33.0,0.3,21.055099487304688,37.21971130371094,0.0,0.0
104.0,33.0,0.7,21.055099487304688,37.21971130371094,0.0,0.0
104.0,33.0,1.0,21.055099487304688,37.21971130371094,0.0,0.0
104.0,41.0,0.1,25.90186309814453,42.433834075927734,0.0,0.0
104.0,41.0,0.3,25.90186309814453,42.433834075927734,0.0,0.0
104.0,41.0,0.7,25.90186309814453,42.433834075927734,0.0,0.0
104.0,41.0,1.0,25.90186309814453,42.433834075927734,0.0,0.0
104.0,49.0,0.1,24.41497802734375,47.328651428222656,0.0,0.0
104.0,49.0,0.3,24.41497802734375,47.328651428222656,0.0,0.0
104.0,49.0,0.7,24.41497802734375,47.328651428222656,0.0,0.0
104.0,49.0,1.0,24.41497802734375,47.328651428222656,0.0,0.0
104.0,57.0,0.1,39.3889045715332,49.13714599609375,0.0,0.0
104.0,57.0,0.3,39.3889045715332,49.13714599609375,0.0,0.0
104.0,57.0,0.7,39.3889045715332,49.13714599609375,0.0,0.0
104.0,57.0,1.0,39.3889045715332,49.13714599609375,0.0,0.0
104.0,65.0,0.1,43.73830795288086,51.04484558105469,0.0,0.0
104.0,65.0,0.3,43.73830795288086,51.04484558105469,0.0,0.0
104.0,65.0,0.7,43.73830795288086,51.04484558105469,0.0,0.0
104.0,65.0,1.0,43.73830795288086,51.04484558105469,0.0,0.0
104.0,73.0,0.1,46.585182189941406,51.737274169921875,0.0,0.0
104.0,73.0,0.3,46.585182189941406,51.737274169921875,0.0,0.0
104.0,73.0,0.7,46.585182189941406,51.737274169921875,0.0,0.0
104.0,73.0,1.0,46.585182189941406,51.737274169921875,0.0,0.0
104.0,81.0,0.1,24.36211395263672,56.252288818359375,0.0,0.0
104.0,81.0,0.3,24.36211395263672,56.252288818359375,0.0,0.0
104.0,81.0,0.7,24.36211395263672,56.252288818359375,0.0,0.0
104.0,81.0,1.0,24.36211395263672,56.252288818359375,0.0,0.0
104.0,89.0,0.1,51.013328552246094,58.55462646484375,0.0,0.0
104.0,89.0,0.3,51.013328552246094,58.55462646484375,0.0,0.0
104.0,89.0,0.7,51.013328552246094,58.55462646484375,0.0,0.0
104.0,89.0,1.0,51.013328552246094,58.55462646484375,0.0,0.0
104.0,97.0,0.1,52.970333099365234,61.03470993041992,0.0,0.0
104.0,97.0,0.3,52.970333099365234,61.03470993041992,0.0,0.0
104.0,97.0,0.7,52.970333099365234,61.03470993041992,0.0,0.0
104.0,97.0,1.0,52.970333099365234,61.03470993041992,0.0,0.0
104.0,105.0,0.1,54.33118438720703,63.13428497314453,0.0,0.0
104.0,105.0,0.3,54.33118438720703,63.13428497314453,0.0,0.0
104.0,105.0,0.7,54.33118438720703,63.13428497314453,0.0,0.0
104.0,105.0,1.0,54.33118438720703,63.13428497314453,0.0,0.0
104.0,113.0,0.1,54.340084075927734,65.12493133544922,0.0,0.0
104.0,113.0,0.3,54.340084075927734,65.12493133544922,0.0,0.0
104.0,113.0,0.7,54.340084075927734,65.12493133544922,0.0,0.0
104.0,113.0,1.0,54.340084075927734,65.12493133544922,0.0,0.0
104.0,121.0,0.1,54.26752853393555,65.5291748046875,0.0,0.0
104.0,121.0,0.3,54.26752853393555,65.5291748046875,0.0,0.0
104.0,121.0,0.7,54.26752853393555,65.5291748046875,0.0,0.0
104.0,121.0,1.0,54.26752853393555,65.5291748046875,0.0,0.0
104.0,127.0,0.1,54.23951721191406,65.73416900634766,0.0,0.0
104.0,127.0,0.3,54.23951721191406,65.73416900634766,0.0,0.0
104.0,127.0,0.7,54.23951721191406,65.73416900634766,0.0,0.0
104.0,127.0,1.0,54.23951721191406,65.73416900634766,0.0,0.0
105.0,1.0,0.1,22.85840606689453,29.713516235351562,0.0,0.0
105.0,1.0,0.3,22.85840606689453,29.713516235351562,0.0,0.0
105.0,1.0,0.7,22.85840606689453,29.713516235351562,0.0,0.0
105.0,1.0,1.0,22.85840606689453,29.713516235351562,0.0,0.0
105.0,9.0,0.1,26.069427490234375,30.3419189453125,0.0,0.0
105.0,9.0,0.3,26.069427490234375,30.3419189453125,0.0,0.0
105.0,9.0,0.7,26.069427490234375,30.3419189453125,0.0,0.0
105.0,9.0,1.0,26.069427490234375,30.3419189453125,0.0,0.0
105.0,17.0,0.1,27.016372680664062,30.7130126953125,0.0,0.0
105.0,17.0,0.3,27.016372680664062,30.7130126953125,0.0,0.0
105.0,17.0,0.7,27.016372680664062,30.7130126953125,0.0,0.0
105.0,17.0,1.0,27.016372680664062,30.7130126953125,0.0,0.0
105.0,25.0,0.1,26.38072967529297,35.22179412841797,0.0,0.0
105.0,25.0,0.3,26.38072967529297,35.22179412841797,0.0,0.0
105.0,25.0,0.7,26.38072967529297,35.22179412841797,0.0,0.0
105.0,25.0,1.0,26.38072967529297,35.22179412841797,0.0,0.0
105.0,33.0,0.1,28.19440460205078,38.27714920043945,0.0,0.0
105.0,33.0,0.3,28.19440460205078,38.27714920043945,0.0,0.0
105.0,33.0,0.7,28.19440460205078,38.27714920043945,0.0,0.0
105.0,33.0,1.0,28.19440460205078,38.27714920043945,0.0,0.0
105.0,41.0,0.1,23.6630859375,40.85775375366211,0.0,0.0
105.0,41.0,0.3,23.6630859375,40.85775375366211,0.0,0.0
105.0,41.0,0.7,23.6630859375,40.85775375366211,0.0,0.0
105.0,41.0,1.0,23.6630859375,40.85775375366211,0.0,0.0
105.0,49.0,0.1,24.290306091308594,46.19011306762695,0.0,0.0
105.0,49.0,0.3,24.290306091308594,46.19011306762695,0.0,0.0
105.0,49.0,0.7,24.290306091308594,46.19011306762695,0.0,0.0
105.0,49.0,1.0,24.290306091308594,46.19011306762695,0.0,0.0
105.0,57.0,0.1,25.564910888671875,48.696861267089844,0.0,0.0
105.0,57.0,0.3,25.564910888671875,48.696861267089844,0.0,0.0
105.0,57.0,0.7,25.564910888671875,48.696861267089844,0.0,0.0
105.0,57.0,1.0,25.564910888671875,48.696861267089844,0.0,0.0
105.0,65.0,0.1,41.64482116699219,50.83351516723633,0.0,0.0
105.0,65.0,0.3,41.64482116699219,50.83351516723633,0.0,0.0
105.0,65.0,0.7,41.64482116699219,50.83351516723633,0.0,0.0
105.0,65.0,1.0,41.64482116699219,50.83351516723633,0.0,0.0
105.0,73.0,0.1,45.82410430908203,52.60023498535156,0.0,0.0
105.0,73.0,0.3,45.82410430908203,52.60023498535156,0.0,0.0
105.0,73.0,0.7,45.82410430908203,52.60023498535156,0.0,0.0
105.0,73.0,1.0,45.82410430908203,52.60023498535156,0.0,0.0
105.0,81.0,0.1,48.49738311767578,56.31632995605469,0.0,0.0
105.0,81.0,0.3,48.49738311767578,56.31632995605469,0.0,0.0
105.0,81.0,0.7,48.49738311767578,56.31632995605469,0.0,0.0
105.0,81.0,1.0,48.49738311767578,56.31632995605469,0.0,0.0
105.0,89.0,0.1,50.273155212402344,57.62522506713867,0.0,0.0
105.0,89.0,0.3,50.273155212402344,57.62522506713867,0.0,0.0
105.0,89.0,0.7,50.273155212402344,57.62522506713867,0.0,0.0
105.0,89.0,1.0,50.273155212402344,57.62522506713867,0.0,0.0
105.0,97.0,0.1,51.872310638427734,60.78703308105469,0.0,0.0
105.0,97.0,0.3,51.872310638427734,60.78703308105469,0.0,0.0
105.0,97.0,0.7,51.872310638427734,60.78703308105469,0.0,0.0
105.0,97.0,1.0,51.872310638427734,60.78703308105469,0.0,0.0
105.0,105.0,0.1,53.16832733154297,62.302772521972656,0.0,0.0
105.0,105.0,0.3,53.16832733154297,62.302772521972656,0.0,0.0
105.0,105.0,0.7,53.16832733154297,62.302772521972656,0.0,0.0
105.0,105.0,1.0,53.16832733154297,62.302772521972656,0.0,0.0
105.0,113.0,0.1,53.095211029052734,64.9375228881836,0.0,0.0
105.0,113.0,0.3,53.095211029052734,64.9375228881836,0.0,0.0
105.0,113.0,0.7,53.095211029052734,64.9375228881836,0.0,0.0
105.0,113.0,1.0,53.095211029052734,64.9375228881836,0.0,0.0
105.0,121.0,0.1,52.975318908691406,65.01988220214844,0.0,0.0
105.0,121.0,0.3,52.975318908691406,65.01988220214844,0.0,0.0
105.0,121.0,0.7,52.975318908691406,65.01988220214844,0.0,0.0
105.0,121.0,1.0,52.975318908691406,65.01988220214844,0.0,0.0
105.0,127.0,0.1,52.90890121459961,64.97237396240234,0.0,0.0
105.0,127.0,0.3,52.90890121459961,64.97237396240234,0.0,0.0
105.0,127.0,0.7,52.90890121459961,64.97237396240234,0.0,0.0
105.0,127.0,1.0,52.90890121459961,64.97237396240234,0.0,0.0
106.0,1.0,0.1,27.600730895996094,28.29566192626953,0.0,0.0
106.0,1.0,0.3,27.600730895996094,28.29566192626953,0.0,0.0
106.0,1.0,0.7,27.600730895996094,28.29566192626953,0.0,0.0
106.0,1.0,1.0,27.600730895996094,28.29566192626953,0.0,0.0
106.0,9.0,0.1,24.281631469726562,29.389190673828125,0.0,0.0
106.0,9.0,0.3,24.281631469726562,29.389190673828125,0.0,0.0
106.0,9.0,0.7,24.281631469726562,29.389190673828125,0.0,0.0
106.0,9.0,1.0,24.281631469726562,29.389190673828125,0.0,0.0
106.0,17.0,0.1,27.800827026367188,29.193260192871094,0.0,0.0
106.0,17.0,0.3,27.800827026367188,29.193260192871094,0.0,0.0
106.0,17.0,0.7,27.800827026367188,29.193260192871094,0.0,0.0
106.0,17.0,1.0,27.800827026367188,29.193260192871094,0.0,0.0
106.0,25.0,0.1,24.395263671875,31.64413833618164,0.0,0.0
106.0,25.0,0.3,24.395263671875,31.64413833618164,0.0,0.0
106.0,25.0,0.7,24.395263671875,31.64413833618164,0.0,0.0
106.0,25.0,1.0,24.395263671875,31.64413833618164,0.0,0.0
106.0,33.0,0.1,23.830978393554688,38.146568298339844,0.0,0.0
106.0,33.0,0.3,23.830978393554688,38.146568298339844,0.0,0.0
106.0,33.0,0.7,23.830978393554688,38.146568298339844,0.0,0.0
106.0,33.0,1.0,23.830978393554688,38.146568298339844,0.0,0.0
106.0,41.0,0.1,23.659385681152344,43.1158447265625,0.0,0.0
106.0,41.0,0.3,23.659385681152344,43.1158447265625,0.0,0.0
106.0,41.0,0.7,23.659385681152344,43.1158447265625,0.0,0.0
106.0,41.0,1.0,23.659385681152344,43.1158447265625,0.0,0.0
106.0,49.0,0.1,27.894515991210938,45.29267120361328,0.0,0.0
106.0,49.0,0.3,27.894515991210938,45.29267120361328,0.0,0.0
106.0,49.0,0.7,27.894515991210938,45.29267120361328,0.0,0.0
106.0,49.0,1.0,27.894515991210938,45.29267120361328,0.0,0.0
106.0,57.0,0.1,24.514923095703125,48.783939361572266,0.0,0.0
106.0,57.0,0.3,24.514923095703125,48.783939361572266,0.0,0.0
106.0,57.0,0.7,24.514923095703125,48.783939361572266,0.0,0.0
106.0,57.0,1.0,24.514923095703125,48.783939361572266,0.0,0.0
106.0,65.0,0.1,42.72834777832031,49.90105438232422,0.0,0.0
106.0,65.0,0.3,42.72834777832031,49.90105438232422,0.0,0.0
106.0,65.0,0.7,42.72834777832031,49.90105438232422,0.0,0.0
106.0,65.0,1.0,42.72834777832031,49.90105438232422,0.0,0.0
106.0,73.0,0.1,45.42988204956055,53.691307067871094,0.0,0.0
106.0,73.0,0.3,45.42988204956055,53.691307067871094,0.0,0.0
106.0,73.0,0.7,45.42988204956055,53.691307067871094,0.0,0.0
106.0,73.0,1.0,45.42988204956055,53.691307067871094,0.0,0.0
106.0,81.0,0.1,46.44593048095703,55.43956756591797,0.0,0.0
106.0,81.0,0.3,46.44593048095703,55.43956756591797,0.0,0.0
106.0,81.0,0.7,46.44593048095703,55.43956756591797,0.0,0.0
106.0,81.0,1.0,46.44593048095703,55.43956756591797,0.0,0.0
106.0,89.0,0.1,50.260128021240234,57.76908874511719,0.0,0.0
106.0,89.0,0.3,50.260128021240234,57.76908874511719,0.0,0.0
106.0,89.0,0.7,50.260128021240234,57.76908874511719,0.0,0.0
106.0,89.0,1.0,50.260128021240234,57.76908874511719,0.0,0.0
106.0,97.0,0.1,50.886863708496094,60.203758239746094,0.0,0.0
106.0,97.0,0.3,50.886863708496094,60.203758239746094,0.0,0.0
106.0,97.0,0.7,50.886863708496094,60.203758239746094,0.0,0.0
106.0,97.0,1.0,50.886863708496094,60.203758239746094,0.0,0.0
106.0,105.0,0.1,52.4061393737793,62.51502990722656,0.0,0.0
106.0,105.0,0.3,52.4061393737793,62.51502990722656,0.0,0.0
106.0,105.0,0.7,52.4061393737793,62.51502990722656,0.0,0.0
106.0,105.0,1.0,52.4061393737793,62.51502990722656,0.0,0.0
106.0,113.0,0.1,52.223079681396484,64.82158660888672,0.0,0.0
106.0,113.0,0.3,52.223079681396484,64.82158660888672,0.0,0.0
106.0,113.0,0.7,52.223079681396484,64.82158660888672,0.0,0.0
106.0,113.0,1.0,52.223079681396484,64.82158660888672,0.0,0.0
106.0,121.0,0.1,53.27970504760742,65.43388366699219,0.0,0.0
106.0,121.0,0.3,53.27970504760742,65.43388366699219,0.0,0.0
106.0,121.0,0.7,53.27970504760742,65.43388366699219,0.0,0.0
106.0,121.0,1.0,53.27970504760742,65.43388366699219,0.0,0.0
106.0,127.0,0.1,52.367164611816406,65.96928405761719,0.0,0.0
106.0,127.0,0.3,52.367164611816406,65.96928405761719,0.0,0.0
106.0,127.0,0.7,52.367164611816406,65.96928405761719,0.0,0.0
106.0,127.0,1.0,52.367164611816406,65.96928405761719,0.0,0.0
107.0,1.0,0.1,25.12195587158203,28.045974731445312,0.0,0.0
107.0,1.0,0.3,25.12195587158203,28.045974731445312,0.0,0.0
107.0,1.0,0.7,25.12195587158203,28.045974731445312,0.0,0.0
107.0,1.0,1.0,25.12195587158203,28.045974731445312,0.0,0.0
107.0,9.0,0.1,21.944534301757812,31.83843231201172,0.0,0.0
107.0,9.0,0.3,21.944534301757812,31.83843231201172,0.0,0.0
107.0,9.0,0.7,21.944534301757812,31.83843231201172,0.0,0.0
107.0,9.0,1.0,21.944534301757812,31.83843231201172,0.0,0.0
107.0,17.0,0.1,24.83184051513672,31.476455688476562,0.0,0.0
107.0,17.0,0.3,24.83184051513672,31.476455688476562,0.0,0.0
107.0,17.0,0.7,24.83184051513672,31.476455688476562,0.0,0.0
107.0,17.0,1.0,24.83184051513672,31.476455688476562,0.0,0.0
107.0,25.0,0.1,25.36590576171875,34.154422760009766,0.0,0.0
107.0,25.0,0.3,25.36590576171875,34.154422760009766,0.0,0.0
107.0,25.0,0.7,25.36590576171875,34.154422760009766,0.0,0.0
107.0,25.0,1.0,25.36590576171875,34.154422760009766,0.0,0.0
107.0,33.0,0.1,26.76251983642578,40.04896926879883,0.0,0.0
107.0,33.0,0.3,26.76251983642578,40.04896926879883,0.0,0.0
107.0,33.0,0.7,26.76251983642578,40.04896926879883,0.0,0.0
107.0,33.0,1.0,26.76251983642578,40.04896926879883,0.0,0.0
107.0,41.0,0.1,27.631942749023438,44.49529266357422,0.0,0.0
107.0,41.0,0.3,27.631942749023438,44.49529266357422,0.0,0.0
107.0,41.0,0.7,27.631942749023438,44.49529266357422,0.0,0.0
107.0,41.0,1.0,27.631942749023438,44.49529266357422,0.0,0.0
107.0,49.0,0.1,38.83661651611328,47.62094497680664,0.0,0.0
107.0,49.0,0.3,38.83661651611328,47.62094497680664,0.0,0.0
107.0,49.0,0.7,38.83661651611328,47.62094497680664,0.0,0.0
107.0,49.0,1.0,38.83661651611328,47.62094497680664,0.0,0.0
107.0,57.0,0.1,40.879268646240234,49.796600341796875,0.0,0.0
107.0,57.0,0.3,40.879268646240234,49.796600341796875,0.0,0.0
107.0,57.0,0.7,40.879268646240234,49.796600341796875,0.0,0.0
107.0,57.0,1.0,40.879268646240234,49.796600341796875,0.0,0.0
107.0,65.0,0.1,43.59888458251953,52.83315658569336,0.0,0.0
107.0,65.0,0.3,43.59888458251953,52.83315658569336,0.0,0.0
107.0,65.0,0.7,43.59888458251953,52.83315658569336,0.0,0.0
107.0,65.0,1.0,43.59888458251953,52.83315658569336,0.0,0.0
107.0,73.0,0.1,46.41790771484375,52.98455810546875,0.0,0.0
107.0,73.0,0.3,46.41790771484375,52.98455810546875,0.0,0.0
107.0,73.0,0.7,46.41790771484375,52.98455810546875,0.0,0.0
107.0,73.0,1.0,46.41790771484375,52.98455810546875,0.0,0.0
107.0,81.0,0.1,49.7404670715332,55.540096282958984,0.0,0.0
107.0,81.0,0.3,49.7404670715332,55.540096282958984,0.0,0.0
107.0,81.0,0.7,49.7404670715332,55.540096282958984,0.0,0.0
107.0,81.0,1.0,49.7404670715332,55.540096282958984,0.0,0.0
107.0,89.0,0.1,51.36198806762695,58.42084503173828,0.0,0.0
107.0,89.0,0.3,51.36198806762695,58.42084503173828,0.0,0.0
107.0,89.0,0.7,51.36198806762695,58.42084503173828,0.0,0.0
107.0,89.0,1.0,51.36198806762695,58.42084503173828,0.0,0.0
107.0,97.0,0.1,54.44696044921875,60.912452697753906,0.0,0.0
107.0,97.0,0.3,54.44696044921875,60.912452697753906,0.0,0.0
107.0,97.0,0.7,54.44696044921875,60.912452697753906,0.0,0.0
107.0,97.0,1.0,54.44696044921875,60.912452697753906,0.0,0.0
107.0,105.0,0.1,54.103458404541016,63.68291473388672,0.0,0.0
107.0,105.0,0.3,54.103458404541016,63.68291473388672,0.0,0.0
107.0,105.0,0.7,54.103458404541016,63.68291473388672,0.0,0.0
107.0,105.0,1.0,54.103458404541016,63.68291473388672,0.0,0.0
107.0,113.0,0.1,55.8364372253418,65.26383972167969,0.0,0.0
107.0,113.0,0.3,55.8364372253418,65.26383972167969,0.0,0.0
107.0,113.0,0.7,55.8364372253418,65.26383972167969,0.0,0.0
107.0,113.0,1.0,55.8364372253418,65.26383972167969,0.0,0.0
107.0,121.0,0.1,55.640296936035156,65.81781005859375,0.0,0.0
107.0,121.0,0.3,55.640296936035156,65.81781005859375,0.0,0.0
107.0,121.0,0.7,55.640296936035156,65.81781005859375,0.0,0.0
107.0,121.0,1.0,55.640296936035156,65.81781005859375,0.0,0.0
107.0,127.0,0.1,55.643802642822266,65.95829010009766,0.0,0.0
107.0,127.0,0.3,55.643802642822266,65.95829010009766,0.0,0.0
107.0,127.0,0.7,55.643802642822266,65.95829010009766,0.0,0.0
107.0,127.0,1.0,55.643802642822266,65.95829010009766,0.0,0.0
108.0,1.0,0.1,36.26285934448242,29.273834228515625,0.0,0.0
108.0,1.0,0.3,36.26285934448242,29.273834228515625,0.0,0.0
108.0,1.0,0.7,36.26285934448242,29.273834228515625,0.0,0.0
108.0,1.0,1.0,36.26285934448242,29.273834228515625,0.0,0.0
108.0,9.0,0.1,34.32688522338867,27.479293823242188,0.0,0.0
108.0,9.0,0.3,34.32688522338867,27.479293823242188,0.0,0.0
108.0,9.0,0.7,34.32688522338867,27.479293823242188,0.0,0.0
108.0,9.0,1.0,34.32688522338867,27.479293823242188,0.0,0.0
108.0,17.0,0.1,24.54888916015625,28.73541259765625,0.0,0.0
108.0,17.0,0.3,24.54888916015625,28.73541259765625,0.0,0.0
108.0,17.0,0.7,24.54888916015625,28.73541259765625,0.0,0.0
108.0,17.0,1.0,24.54888916015625,28.73541259765625,0.0,0.0
108.0,25.0,0.1,24.725852966308594,32.627830505371094,0.0,0.0
108.0,25.0,0.3,24.725852966308594,32.627830505371094,0.0,0.0
108.0,25.0,0.7,24.725852966308594,32.627830505371094,0.0,0.0
108.0,25.0,1.0,24.725852966308594,32.627830505371094,0.0,0.0
108.0,33.0,0.1,25.037017822265625,36.07765579223633,0.0,0.0
108.0,33.0,0.3,25.037017822265625,36.07765579223633,0.0,0.0
108.0,33.0,0.7,25.037017822265625,36.07765579223633,0.0,0.0
108.0,33.0,1.0,25.037017822265625,36.07765579223633,0.0,0.0
108.0,41.0,0.1,27.187278747558594,39.6397590637207,0.0,0.0
108.0,41.0,0.3,27.187278747558594,39.6397590637207,0.0,0.0
108.0,41.0,0.7,27.187278747558594,39.6397590637207,0.0,0.0
108.0,41.0,1.0,27.187278747558594,39.6397590637207,0.0,0.0
108.0,49.0,0.1,27.250228881835938,44.62439727783203,0.0,0.0
108.0,49.0,0.3,27.250228881835938,44.62439727783203,0.0,0.0
108.0,49.0,0.7,27.250228881835938,44.62439727783203,0.0,0.0
108.0,49.0,1.0,27.250228881835938,44.62439727783203,0.0,0.0
108.0,57.0,0.1,21.112342834472656,47.51142501831055,0.0,0.0
108.0,57.0,0.3,21.112342834472656,47.51142501831055,0.0,0.0
108.0,57.0,0.7,21.112342834472656,47.51142501831055,0.0,0.0
108.0,57.0,1.0,21.112342834472656,47.51142501831055,0.0,0.0
108.0,65.0,0.1,44.56041717529297,50.242427825927734,0.0,0.0
108.0,65.0,0.3,44.56041717529297,50.242427825927734,0.0,0.0
108.0,65.0,0.7,44.56041717529297,50.242427825927734,0.0,0.0
108.0,65.0,1.0,44.56041717529297,50.242427825927734,0.0,0.0
108.0,73.0,0.1,44.06588363647461,52.86768341064453,0.0,0.0
108.0,73.0,0.3,44.06588363647461,52.86768341064453,0.0,0.0
108.0,73.0,0.7,44.06588363647461,52.86768341064453,0.0,0.0
108.0,73.0,1.0,44.06588363647461,52.86768341064453,0.0,0.0
108.0,81.0,0.1,46.499725341796875,55.04866409301758,0.0,0.0
108.0,81.0,0.3,46.499725341796875,55.04866409301758,0.0,0.0
108.0,81.0,0.7,46.499725341796875,55.04866409301758,0.0,0.0
108.0,81.0,1.0,46.499725341796875,55.04866409301758,0.0,0.0
108.0,89.0,0.1,49.82422637939453,57.5389404296875,0.0,0.0
108.0,89.0,0.3,49.82422637939453,57.5389404296875,0.0,0.0
108.0,89.0,0.7,49.82422637939453,57.5389404296875,0.0,0.0
108.0,89.0,1.0,49.82422637939453,57.5389404296875,0.0,0.0
108.0,97.0,0.1,51.26689147949219,59.24612808227539,0.0,0.0
108.0,97.0,0.3,51.26689147949219,59.24612808227539,0.0,0.0
108.0,97.0,0.7,51.26689147949219,59.24612808227539,0.0,0.0
108.0,97.0,1.0,51.26689147949219,59.24612808227539,0.0,0.0
108.0,105.0,0.1,52.031822204589844,60.222904205322266,0.0,0.0
108.0,105.0,0.3,52.031822204589844,60.222904205322266,0.0,0.0
108.0,105.0,0.7,52.031822204589844,60.222904205322266,0.0,0.0
108.0,105.0,1.0,52.031822204589844,60.222904205322266,0.0,0.0
108.0,113.0,0.1,52.21247100830078,62.73157501220703,0.0,0.0
108.0,113.0,0.3,52.21247100830078,62.73157501220703,0.0,0.0
108.0,113.0,0.7,52.21247100830078,62.73157501220703,0.0,0.0
108.0,113.0,1.0,52.21247100830078,62.73157501220703,0.0,0.0
108.0,121.0,0.1,52.68654251098633,63.179203033447266,0.0,0.0
108.0,121.0,0.3,52.68654251098633,63.179203033447266,0.0,0.0
108.0,121.0,0.7,52.68654251098633,63.179203033447266,0.0,0.0
108.0,121.0,1.0,52.68654251098633,63.179203033447266,0.0,0.0
108.0,127.0,0.1,52.72429275512695,63.20917892456055,0.0,0.0
108.0,127.0,0.3,52.72429275512695,63.20917892456055,0.0,0.0
108.0,127.0,0.7,52.72429275512695,63.20917892456055,0.0,0.0
108.0,127.0,1.0,52.72429275512695,63.20917892456055,0.0,0.0
