pitch,vel,dur,db(lab),db(audi),duration(lab),duration(audi)
21.0,1.0,0.1,0.00034981424623880094,0.04748297429072867,0.0,0.0
21.0,1.0,0.3,0.00034981424623880094,0.04748297429072867,0.0,0.0
21.0,1.0,0.7,0.00034981424623880094,0.04748297429072867,0.0,0.0
21.0,1.0,1.0,0.00034981424623880094,0.04748297429072867,0.0,0.0
21.0,9.0,0.1,0.0004295088854902019,0.059386094871746155,0.0,0.0
21.0,9.0,0.3,0.0004295088854902019,0.059386094871746155,0.0,0.0
21.0,9.0,0.7,0.0004295088854902019,0.059386094871746155,0.0,0.0
21.0,9.0,1.0,0.0004295088854902019,0.059386094871746155,0.0,0.0
21.0,17.0,0.1,0.015331805346372237,0.3838237265786279,0.0,0.0
21.0,17.0,0.3,0.015331805346372237,0.3838237265786279,0.0,0.0
21.0,17.0,0.7,0.015331805346372237,0.3838237265786279,0.0,0.0
21.0,17.0,1.0,0.015331805346372237,0.3838237265786279,0.0,0.0
21.0,25.0,0.1,0.4218082510460485,0.8134178151502136,0.0,0.0
21.0,25.0,0.3,0.4218082510460485,0.8134178151502136,0.0,0.0
21.0,25.0,0.7,0.4218082510460485,0.8134178151502136,0.0,0.0
21.0,25.0,1.0,0.4218082510460485,0.8134178151502136,0.0,0.0
21.0,33.0,0.1,0.8025208628724466,1.3733452262422123,0.0,0.0
21.0,33.0,0.3,0.8025208628724466,1.3733452262422123,0.0,0.0
21.0,33.0,0.7,0.8025208628724466,1.3733452262422123,0.0,0.0
21.0,33.0,1.0,0.8025208628724466,1.3733452262422123,0.0,0.0
21.0,41.0,0.1,0.9281001824219886,2.2801616061976335,0.0,0.0
21.0,41.0,0.3,0.9281001824219886,2.2801616061976335,0.0,0.0
21.0,41.0,0.7,0.9281001824219886,2.2801616061976335,0.0,0.0
21.0,41.0,1.0,0.9281001824219886,2.2801616061976335,0.0,0.0
21.0,49.0,0.1,1.4391879213465713,3.1790404007553237,0.0,0.0
21.0,49.0,0.3,1.4391879213465713,3.1790404007553237,0.0,0.0
21.0,49.0,0.7,1.4391879213465713,3.1790404007553237,0.0,0.0
21.0,49.0,1.0,1.4391879213465713,3.1790404007553237,0.0,0.0
21.0,57.0,0.1,1.5711200046881133,4.5456512368517386,0.0,0.0
21.0,57.0,0.3,1.5711200046881133,4.5456512368517386,0.0,0.0
21.0,57.0,0.7,1.5711200046881133,4.5456512368517386,0.0,0.0
21.0,57.0,1.0,1.5711200046881133,4.5456512368517386,0.0,0.0
21.0,65.0,0.1,2.129618659646741,5.981744474894104,0.0,0.0
21.0,65.0,0.3,2.129618659646741,5.981744474894104,0.0,0.0
21.0,65.0,0.7,2.129618659646741,5.981744474894104,0.0,0.0
21.0,65.0,1.0,2.129618659646741,5.981744474894104,0.0,0.0
21.0,73.0,0.1,2.6820019679402214,7.350692877903187,0.0,0.0
21.0,73.0,0.3,2.6820019679402214,7.350692877903187,0.0,0.0
21.0,73.0,0.7,2.6820019679402214,7.350692877903187,0.0,0.0
21.0,73.0,1.0,2.6820019679402214,7.350692877903187,0.0,0.0
21.0,81.0,0.1,3.2835412267996977,9.204483157265415,0.0,0.0
21.0,81.0,0.3,3.2835412267996977,9.204483157265415,0.0,0.0
21.0,81.0,0.7,3.2835412267996977,9.204483157265415,0.0,0.0
21.0,81.0,1.0,3.2835412267996977,9.204483157265415,0.0,0.0
21.0,89.0,0.1,3.863722769670896,11.024273843645386,0.0,0.0
21.0,89.0,0.3,3.863722769670896,11.024273843645386,0.0,0.0
21.0,89.0,0.7,3.863722769670896,11.024273843645386,0.0,0.0
21.0,89.0,1.0,3.863722769670896,11.024273843645386,0.0,0.0
21.0,97.0,0.1,4.341479807815565,15.132138001700554,0.0,0.0
21.0,97.0,0.3,4.341479807815565,15.132138001700554,0.0,0.0
21.0,97.0,0.7,4.341479807815565,15.132138001700554,0.0,0.0
21.0,97.0,1.0,4.341479807815565,15.132138001700554,0.0,0.0
21.0,105.0,0.1,4.334846833034227,17.304078502398934,0.0,0.0
21.0,105.0,0.3,4.334846833034227,17.304078502398934,0.0,0.0
21.0,105.0,0.7,4.334846833034227,17.304078502398934,0.0,0.0
21.0,105.0,1.0,4.334846833034227,17.304078502398934,0.0,0.0
21.0,113.0,0.1,4.325413452330262,17.07284582378849,0.0,0.0
21.0,113.0,0.3,4.325413452330262,17.07284582378849,0.0,0.0
21.0,113.0,0.7,4.325413452330262,17.07284582378849,0.0,0.0
21.0,113.0,1.0,4.325413452330262,17.07284582378849,0.0,0.0
21.0,121.0,0.1,4.320512785443898,16.71247129765199,0.0,0.0
21.0,121.0,0.3,4.320512785443898,16.71247129765199,0.0,0.0
21.0,121.0,0.7,4.320512785443898,16.71247129765199,0.0,0.0
21.0,121.0,1.0,4.320512785443898,16.71247129765199,0.0,0.0
21.0,127.0,0.1,4.291519938354159,16.33254787922286,0.0,0.0
21.0,127.0,0.3,4.291519938354159,16.33254787922286,0.0,0.0
21.0,127.0,0.7,4.291519938354159,16.33254787922286,0.0,0.0
21.0,127.0,1.0,4.291519938354159,16.33254787922286,0.0,0.0
22.0,1.0,0.1,0.8517600685097484,0.13163329796456383,0.0,0.0
22.0,1.0,0.3,0.8517600685097484,0.13163329796456383,0.0,0.0
22.0,1.0,0.7,0.8517600685097484,0.13163329796456383,0.0,0.0
22.0,1.0,1.0,0.8517600685097484,0.13163329796456383,0.0,0.0
22.0,9.0,0.1,0.646801145300605,0.26309804857617025,0.0,0.0
22.0,9.0,0.3,0.646801145300605,0.26309804857617025,0.0,0.0
22.0,9.0,0.7,0.646801145300605,0.26309804857617025,0.0,0.0
22.0,9.0,1.0,0.646801145300605,0.26309804857617025,0.0,0.0
22.0,17.0,0.1,0.63547225652909,0.601135092490451,0.0,0.0
22.0,17.0,0.3,0.63547225652909,0.601135092490451,0.0,0.0
22.0,17.0,0.7,0.63547225652909,0.601135092490451,0.0,0.0
22.0,17.0,1.0,0.63547225652909,0.601135092490451,0.0,0.0
22.0,25.0,0.1,0.5802961799225923,1.1743265297625722,0.0,0.0
22.0,25.0,0.3,0.5802961799225923,1.1743265297625722,0.0,0.0
22.0,25.0,0.7,0.5802961799225923,1.1743265297625722,0.0,0.0
22.0,25.0,1.0,0.5802961799225923,1.1743265297625722,0.0,0.0
22.0,33.0,0.1,0.7896721513146643,1.6747227681763914,0.0,0.0
22.0,33.0,0.3,0.7896721513146643,1.6747227681763914,0.0,0.0
22.0,33.0,0.7,0.7896721513146643,1.6747227681763914,0.0,0.0
22.0,33.0,1.0,0.7896721513146643,1.6747227681763914,0.0,0.0
22.0,41.0,0.1,1.1300114944386253,2.4227538717540513,0.0,0.0
22.0,41.0,0.3,1.1300114944386253,2.4227538717540513,0.0,0.0
22.0,41.0,0.7,1.1300114944386253,2.4227538717540513,0.0,0.0
22.0,41.0,1.0,1.1300114944386253,2.4227538717540513,0.0,0.0
22.0,49.0,0.1,1.5860333306182564,3.3007669038111747,0.0,0.0
22.0,49.0,0.3,1.5860333306182564,3.3007669038111747,0.0,0.0
22.0,49.0,0.7,1.5860333306182564,3.3007669038111747,0.0,0.0
22.0,49.0,1.0,1.5860333306182564,3.3007669038111747,0.0,0.0
22.0,57.0,0.1,1.950683482905691,4.390127018528966,0.0,0.0
22.0,57.0,0.3,1.950683482905691,4.390127018528966,0.0,0.0
22.0,57.0,0.7,1.950683482905691,4.390127018528966,0.0,0.0
22.0,57.0,1.0,1.950683482905691,4.390127018528966,0.0,0.0
22.0,65.0,0.1,2.6662852904181173,5.6866713863838125,0.0,0.0
22.0,65.0,0.3,2.6662852904181173,5.6866713863838125,0.0,0.0
22.0,65.0,0.7,2.6662852904181173,5.6866713863838125,0.0,0.0
22.0,65.0,1.0,2.6662852904181173,5.6866713863838125,0.0,0.0
22.0,73.0,0.1,3.3132273733409,7.067481174577055,0.0,0.0
22.0,73.0,0.3,3.3132273733409,7.067481174577055,0.0,0.0
22.0,73.0,0.7,3.3132273733409,7.067481174577055,0.0,0.0
22.0,73.0,1.0,3.3132273733409,7.067481174577055,0.0,0.0
22.0,81.0,0.1,3.982930593397937,9.61698803441082,0.0,0.0
22.0,81.0,0.3,3.982930593397937,9.61698803441082,0.0,0.0
22.0,81.0,0.7,3.982930593397937,9.61698803441082,0.0,0.0
22.0,81.0,1.0,3.982930593397937,9.61698803441082,0.0,0.0
22.0,89.0,0.1,4.513056832439591,12.003599460283409,0.0,0.0
22.0,89.0,0.3,4.513056832439591,12.003599460283409,0.0,0.0
22.0,89.0,0.7,4.513056832439591,12.003599460283409,0.0,0.0
22.0,89.0,1.0,4.513056832439591,12.003599460283409,0.0,0.0
22.0,97.0,0.1,4.718372418443539,16.420477048677412,0.0,0.0
22.0,97.0,0.3,4.718372418443539,16.420477048677412,0.0,0.0
22.0,97.0,0.7,4.718372418443539,16.420477048677412,0.0,0.0
22.0,97.0,1.0,4.718372418443539,16.420477048677412,0.0,0.0
22.0,105.0,0.1,4.7139515171949,16.44117877028795,0.0,0.0
22.0,105.0,0.3,4.7139515171949,16.44117877028795,0.0,0.0
22.0,105.0,0.7,4.7139515171949,16.44117877028795,0.0,0.0
22.0,105.0,1.0,4.7139515171949,16.44117877028795,0.0,0.0
22.0,113.0,0.1,4.7033485436230285,16.742229099390354,0.0,0.0
22.0,113.0,0.3,4.7033485436230285,16.742229099390354,0.0,0.0
22.0,113.0,0.7,4.7033485436230285,16.742229099390354,0.0,0.0
22.0,113.0,1.0,4.7033485436230285,16.742229099390354,0.0,0.0
22.0,121.0,0.1,4.67351497906129,14.990066189535739,0.0,0.0
22.0,121.0,0.3,4.67351497906129,14.990066189535739,0.0,0.0
22.0,121.0,0.7,4.67351497906129,14.990066189535739,0.0,0.0
22.0,121.0,1.0,4.67351497906129,14.990066189535739,0.0,0.0
22.0,127.0,0.1,4.654977539573566,15.204068173099005,0.0,0.0
22.0,127.0,0.3,4.654977539573566,15.204068173099005,0.0,0.0
22.0,127.0,0.7,4.654977539573566,15.204068173099005,0.0,0.0
22.0,127.0,1.0,4.654977539573566,15.204068173099005,0.0,0.0
23.0,1.0,0.1,0.6334771751736848,0.039386323506461124,0.0,0.0
23.0,1.0,0.3,0.6334771751736848,0.039386323506461124,0.0,0.0
23.0,1.0,0.7,0.6334771751736848,0.039386323506461124,0.0,0.0
23.0,1.0,1.0,0.6334771751736848,0.039386323506461124,0.0,0.0
23.0,9.0,0.1,0.6403341564666647,0.1193852837797257,0.0,0.0
23.0,9.0,0.3,0.6403341564666647,0.1193852837797257,0.0,0.0
23.0,9.0,0.7,0.6403341564666647,0.1193852837797257,0.0,0.0
23.0,9.0,1.0,0.6403341564666647,0.1193852837797257,0.0,0.0
23.0,17.0,0.1,0.5931353864093294,0.5193967105909554,0.0,0.0
23.0,17.0,0.3,0.5931353864093294,0.5193967105909554,0.0,0.0
23.0,17.0,0.7,0.5931353864093294,0.5193967105909554,0.0,0.0
23.0,17.0,1.0,0.5931353864093294,0.5193967105909554,0.0,0.0
23.0,25.0,0.1,0.8203333536123745,1.0335900351005893,0.0,0.0
23.0,25.0,0.3,0.8203333536123745,1.0335900351005893,0.0,0.0
23.0,25.0,0.7,0.8203333536123745,1.0335900351005893,0.0,0.0
23.0,25.0,1.0,0.8203333536123745,1.0335900351005893,0.0,0.0
23.0,33.0,0.1,0.9117007121426082,1.6628831014551608,0.0,0.0
23.0,33.0,0.3,0.9117007121426082,1.6628831014551608,0.0,0.0
23.0,33.0,0.7,0.9117007121426082,1.6628831014551608,0.0,0.0
23.0,33.0,1.0,0.9117007121426082,1.6628831014551608,0.0,0.0
23.0,41.0,0.1,1.1355003064533673,2.35984763973623,0.0,0.0
23.0,41.0,0.3,1.1355003064533673,2.35984763973623,0.0,0.0
23.0,41.0,0.7,1.1355003064533673,2.35984763973623,0.0,0.0
23.0,41.0,1.0,1.1355003064533673,2.35984763973623,0.0,0.0
23.0,49.0,0.1,1.4992256891582902,3.1906254227330684,0.0,0.0
23.0,49.0,0.3,1.4992256891582902,3.1906254227330684,0.0,0.0
23.0,49.0,0.7,1.4992256891582902,3.1906254227330684,0.0,0.0
23.0,49.0,1.0,1.4992256891582902,3.1906254227330684,0.0,0.0
23.0,57.0,0.1,2.108190299217885,4.199019967757337,0.0,0.0
23.0,57.0,0.3,2.108190299217885,4.199019967757337,0.0,0.0
23.0,57.0,0.7,2.108190299217885,4.199019967757337,0.0,0.0
23.0,57.0,1.0,2.108190299217885,4.199019967757337,0.0,0.0
23.0,65.0,0.1,2.625373720748488,5.6146400135632115,0.0,0.0
23.0,65.0,0.3,2.625373720748488,5.6146400135632115,0.0,0.0
23.0,65.0,0.7,2.625373720748488,5.6146400135632115,0.0,0.0
23.0,65.0,1.0,2.625373720748488,5.6146400135632115,0.0,0.0
23.0,73.0,0.1,3.1800337881478935,7.1929715720962015,0.0,0.0
23.0,73.0,0.3,3.1800337881478935,7.1929715720962015,0.0,0.0
23.0,73.0,0.7,3.1800337881478935,7.1929715720962015,0.0,0.0
23.0,73.0,1.0,3.1800337881478935,7.1929715720962015,0.0,0.0
23.0,81.0,0.1,3.842783226453042,9.183436659352047,0.0,0.0
23.0,81.0,0.3,3.842783226453042,9.183436659352047,0.0,0.0
23.0,81.0,0.7,3.842783226453042,9.183436659352047,0.0,0.0
23.0,81.0,1.0,3.842783226453042,9.183436659352047,0.0,0.0
23.0,89.0,0.1,4.32914790217947,11.555701060752929,0.0,0.0
23.0,89.0,0.3,4.32914790217947,11.555701060752929,0.0,0.0
23.0,89.0,0.7,4.32914790217947,11.555701060752929,0.0,0.0
23.0,89.0,1.0,4.32914790217947,11.555701060752929,0.0,0.0
23.0,97.0,0.1,4.649309913636192,14.682858378662708,0.0,0.0
23.0,97.0,0.3,4.649309913636192,14.682858378662708,0.0,0.0
23.0,97.0,0.7,4.649309913636192,14.682858378662708,0.0,0.0
23.0,97.0,1.0,4.649309913636192,14.682858378662708,0.0,0.0
23.0,105.0,0.1,4.6372908451546335,14.994614128719348,0.0,0.0
23.0,105.0,0.3,4.6372908451546335,14.994614128719348,0.0,0.0
23.0,105.0,0.7,4.6372908451546335,14.994614128719348,0.0,0.0
23.0,105.0,1.0,4.6372908451546335,14.994614128719348,0.0,0.0
23.0,113.0,0.1,4.594521985124908,15.216438590910991,0.0,0.0
23.0,113.0,0.3,4.594521985124908,15.216438590910991,0.0,0.0
23.0,113.0,0.7,4.594521985124908,15.216438590910991,0.0,0.0
23.0,113.0,1.0,4.594521985124908,15.216438590910991,0.0,0.0
23.0,121.0,0.1,4.5496550500615385,14.73084137170138,0.0,0.0
23.0,121.0,0.3,4.5496550500615385,14.73084137170138,0.0,0.0
23.0,121.0,0.7,4.5496550500615385,14.73084137170138,0.0,0.0
23.0,121.0,1.0,4.5496550500615385,14.73084137170138,0.0,0.0
23.0,127.0,0.1,4.574785883480098,15.405422291521953,0.0,0.0
23.0,127.0,0.3,4.574785883480098,15.405422291521953,0.0,0.0
23.0,127.0,0.7,4.574785883480098,15.405422291521953,0.0,0.0
23.0,127.0,1.0,4.574785883480098,15.405422291521953,0.0,0.0
24.0,1.0,0.1,0.5870796790894887,0.1050774260540241,0.0,0.0
24.0,1.0,0.3,0.5870796790894887,0.1050774260540241,0.0,0.0
24.0,1.0,0.7,0.5870796790894887,0.1050774260540241,0.0,0.0
24.0,1.0,1.0,0.5870796790894887,0.1050774260540241,0.0,0.0
24.0,9.0,0.1,0.5983303966829568,0.13311883786132847,0.0,0.0
24.0,9.0,0.3,0.5983303966829568,0.13311883786132847,0.0,0.0
24.0,9.0,0.7,0.5983303966829568,0.13311883786132847,0.0,0.0
24.0,9.0,1.0,0.5983303966829568,0.13311883786132847,0.0,0.0
24.0,17.0,0.1,0.5894446154417066,0.4042618589089005,0.0,0.0
24.0,17.0,0.3,0.5894446154417066,0.4042618589089005,0.0,0.0
24.0,17.0,0.7,0.5894446154417066,0.4042618589089005,0.0,0.0
24.0,17.0,1.0,0.5894446154417066,0.4042618589089005,0.0,0.0
24.0,25.0,0.1,0.5306956400626056,0.717284239551321,0.0,0.0
24.0,25.0,0.3,0.5306956400626056,0.717284239551321,0.0,0.0
24.0,25.0,0.7,0.5306956400626056,0.717284239551321,0.0,0.0
24.0,25.0,1.0,0.5306956400626056,0.717284239551321,0.0,0.0
24.0,33.0,0.1,0.7004872016107672,1.2850709615317026,0.0,0.0
24.0,33.0,0.3,0.7004872016107672,1.2850709615317026,0.0,0.0
24.0,33.0,0.7,0.7004872016107672,1.2850709615317026,0.0,0.0
24.0,33.0,1.0,0.7004872016107672,1.2850709615317026,0.0,0.0
24.0,41.0,0.1,0.9813438809692094,2.0694022156693928,0.0,0.0
24.0,41.0,0.3,0.9813438809692094,2.0694022156693928,0.0,0.0
24.0,41.0,0.7,0.9813438809692094,2.0694022156693928,0.0,0.0
24.0,41.0,1.0,0.9813438809692094,2.0694022156693928,0.0,0.0
24.0,49.0,0.1,1.3565712054925543,3.0627996237419794,0.0,0.0
24.0,49.0,0.3,1.3565712054925543,3.0627996237419794,0.0,0.0
24.0,49.0,0.7,1.3565712054925543,3.0627996237419794,0.0,0.0
24.0,49.0,1.0,1.3565712054925543,3.0627996237419794,0.0,0.0
24.0,57.0,0.1,1.6699351522846528,4.098833082189458,0.0,0.0
24.0,57.0,0.3,1.6699351522846528,4.098833082189458,0.0,0.0
24.0,57.0,0.7,1.6699351522846528,4.098833082189458,0.0,0.0
24.0,57.0,1.0,1.6699351522846528,4.098833082189458,0.0,0.0
24.0,65.0,0.1,2.2641526063294752,5.503303813986265,0.0,0.0
24.0,65.0,0.3,2.2641526063294752,5.503303813986265,0.0,0.0
24.0,65.0,0.7,2.2641526063294752,5.503303813986265,0.0,0.0
24.0,65.0,1.0,2.2641526063294752,5.503303813986265,0.0,0.0
24.0,73.0,0.1,2.791861009964824,6.944319796655307,0.0,0.0
24.0,73.0,0.3,2.791861009964824,6.944319796655307,0.0,0.0
24.0,73.0,0.7,2.791861009964824,6.944319796655307,0.0,0.0
24.0,73.0,1.0,2.791861009964824,6.944319796655307,0.0,0.0
24.0,81.0,0.1,3.366124894392522,8.926380732402427,0.0,0.0
24.0,81.0,0.3,3.366124894392522,8.926380732402427,0.0,0.0
24.0,81.0,0.7,3.366124894392522,8.926380732402427,0.0,0.0
24.0,81.0,1.0,3.366124894392522,8.926380732402427,0.0,0.0
24.0,89.0,0.1,3.8655062286011974,12.066064407031128,0.0,0.0
24.0,89.0,0.3,3.8655062286011974,12.066064407031128,0.0,0.0
24.0,89.0,0.7,3.8655062286011974,12.066064407031128,0.0,0.0
24.0,89.0,1.0,3.8655062286011974,12.066064407031128,0.0,0.0
24.0,97.0,0.1,4.028361809866671,15.279933528111952,0.0,0.0
24.0,97.0,0.3,4.028361809866671,15.279933528111952,0.0,0.0
24.0,97.0,0.7,4.028361809866671,15.279933528111952,0.0,0.0
24.0,97.0,1.0,4.028361809866671,15.279933528111952,0.0,0.0
24.0,105.0,0.1,4.0335356407846,15.489661054268932,0.0,0.0
24.0,105.0,0.3,4.0335356407846,15.489661054268932,0.0,0.0
24.0,105.0,0.7,4.0335356407846,15.489661054268932,0.0,0.0
24.0,105.0,1.0,4.0335356407846,15.489661054268932,0.0,0.0
24.0,113.0,0.1,3.9868384392139857,14.990560054481923,0.0,0.0
24.0,113.0,0.3,3.9868384392139857,14.990560054481923,0.0,0.0
24.0,113.0,0.7,3.9868384392139857,14.990560054481923,0.0,0.0
24.0,113.0,1.0,3.9868384392139857,14.990560054481923,0.0,0.0
24.0,121.0,0.1,3.9815656868512392,15.341703668250977,0.0,0.0
24.0,121.0,0.3,3.9815656868512392,15.341703668250977,0.0,0.0
24.0,121.0,0.7,3.9815656868512392,15.341703668250977,0.0,0.0
24.0,121.0,1.0,3.9815656868512392,15.341703668250977,0.0,0.0
24.0,127.0,0.1,3.9545831785767556,15.665534557136846,0.0,0.0
24.0,127.0,0.3,3.9545831785767556,15.665534557136846,0.0,0.0
24.0,127.0,0.7,3.9545831785767556,15.665534557136846,0.0,0.0
24.0,127.0,1.0,3.9545831785767556,15.665534557136846,0.0,0.0
25.0,1.0,0.1,0.8467838390014749,0.01848813493589535,0.0,0.0
25.0,1.0,0.3,0.8467838390014749,0.01848813493589535,0.0,0.0
25.0,1.0,0.7,0.8467838390014749,0.01848813493589535,0.0,0.0
25.0,1.0,1.0,0.8467838390014749,0.01848813493589535,0.0,0.0
25.0,9.0,0.1,0.9117482330947974,0.02243319445063221,0.0,0.0
25.0,9.0,0.3,0.9117482330947974,0.02243319445063221,0.0,0.0
25.0,9.0,0.7,0.9117482330947974,0.02243319445063221,0.0,0.0
25.0,9.0,1.0,0.9117482330947974,0.02243319445063221,0.0,0.0
25.0,17.0,0.1,0.8755903460980426,0.2600719419744212,0.0,0.0
25.0,17.0,0.3,0.8755903460980426,0.2600719419744212,0.0,0.0
25.0,17.0,0.7,0.8755903460980426,0.2600719419744212,0.0,0.0
25.0,17.0,1.0,0.8755903460980426,0.2600719419744212,0.0,0.0
25.0,25.0,0.1,0.8997449221224193,0.6014986857892535,0.0,0.0
25.0,25.0,0.3,0.8997449221224193,0.6014986857892535,0.0,0.0
25.0,25.0,0.7,0.8997449221224193,0.6014986857892535,0.0,0.0
25.0,25.0,1.0,0.8997449221224193,0.6014986857892535,0.0,0.0
25.0,33.0,0.1,1.2935843233332773,1.1015504302183023,0.0,0.0
25.0,33.0,0.3,1.2935843233332773,1.1015504302183023,0.0,0.0
25.0,33.0,0.7,1.2935843233332773,1.1015504302183023,0.0,0.0
25.0,33.0,1.0,1.2935843233332773,1.1015504302183023,0.0,0.0
25.0,41.0,0.1,1.3972314231517076,1.8188246778506725,0.0,0.0
25.0,41.0,0.3,1.3972314231517076,1.8188246778506725,0.0,0.0
25.0,41.0,0.7,1.3972314231517076,1.8188246778506725,0.0,0.0
25.0,41.0,1.0,1.3972314231517076,1.8188246778506725,0.0,0.0
25.0,49.0,0.1,1.810074732039914,2.6029922784679194,0.0,0.0
25.0,49.0,0.3,1.810074732039914,2.6029922784679194,0.0,0.0
25.0,49.0,0.7,1.810074732039914,2.6029922784679194,0.0,0.0
25.0,49.0,1.0,1.810074732039914,2.6029922784679194,0.0,0.0
25.0,57.0,0.1,2.37246001819692,3.7023881740740907,0.0,0.0
25.0,57.0,0.3,2.37246001819692,3.7023881740740907,0.0,0.0
25.0,57.0,0.7,2.37246001819692,3.7023881740740907,0.0,0.0
25.0,57.0,1.0,2.37246001819692,3.7023881740740907,0.0,0.0
25.0,65.0,0.1,2.982460607558288,5.144625298090177,0.0,0.0
25.0,65.0,0.3,2.982460607558288,5.144625298090177,0.0,0.0
25.0,65.0,0.7,2.982460607558288,5.144625298090177,0.0,0.0
25.0,65.0,1.0,2.982460607558288,5.144625298090177,0.0,0.0
25.0,73.0,0.1,3.717013632651111,6.504682694376174,0.0,0.0
25.0,73.0,0.3,3.717013632651111,6.504682694376174,0.0,0.0
25.0,73.0,0.7,3.717013632651111,6.504682694376174,0.0,0.0
25.0,73.0,1.0,3.717013632651111,6.504682694376174,0.0,0.0
25.0,81.0,0.1,4.532022472307938,8.440369424061316,0.0,0.0
25.0,81.0,0.3,4.532022472307938,8.440369424061316,0.0,0.0
25.0,81.0,0.7,4.532022472307938,8.440369424061316,0.0,0.0
25.0,81.0,1.0,4.532022472307938,8.440369424061316,0.0,0.0
25.0,89.0,0.1,5.184101299792145,10.852196660582624,0.0,0.0
25.0,89.0,0.3,5.184101299792145,10.852196660582624,0.0,0.0
25.0,89.0,0.7,5.184101299792145,10.852196660582624,0.0,0.0
25.0,89.0,1.0,5.184101299792145,10.852196660582624,0.0,0.0
25.0,97.0,0.1,5.588098615374549,14.500129987835573,0.0,0.0
25.0,97.0,0.3,5.588098615374549,14.500129987835573,0.0,0.0
25.0,97.0,0.7,5.588098615374549,14.500129987835573,0.0,0.0
25.0,97.0,1.0,5.588098615374549,14.500129987835573,0.0,0.0
25.0,105.0,0.1,5.5541945049613295,14.004663723436794,0.0,0.0
25.0,105.0,0.3,5.5541945049613295,14.004663723436794,0.0,0.0
25.0,105.0,0.7,5.5541945049613295,14.004663723436794,0.0,0.0
25.0,105.0,1.0,5.5541945049613295,14.004663723436794,0.0,0.0
25.0,113.0,0.1,5.527754459826846,15.389974252638423,0.0,0.0
25.0,113.0,0.3,5.527754459826846,15.389974252638423,0.0,0.0
25.0,113.0,0.7,5.527754459826846,15.389974252638423,0.0,0.0
25.0,113.0,1.0,5.527754459826846,15.389974252638423,0.0,0.0
25.0,121.0,0.1,5.485887782262223,14.944175987324027,0.0,0.0
25.0,121.0,0.3,5.485887782262223,14.944175987324027,0.0,0.0
25.0,121.0,0.7,5.485887782262223,14.944175987324027,0.0,0.0
25.0,121.0,1.0,5.485887782262223,14.944175987324027,0.0,0.0
25.0,127.0,0.1,5.465432724132755,14.604046940320458,0.0,0.0
25.0,127.0,0.3,5.465432724132755,14.604046940320458,0.0,0.0
25.0,127.0,0.7,5.465432724132755,14.604046940320458,0.0,0.0
25.0,127.0,1.0,5.465432724132755,14.604046940320458,0.0,0.0
26.0,1.0,0.1,0.6921738301383942,0.26500208925361307,0.0,0.0
26.0,1.0,0.3,0.6921738301383942,0.26500208925361307,0.0,0.0
26.0,1.0,0.7,0.6921738301383942,0.26500208925361307,0.0,0.0
26.0,1.0,1.0,0.6921738301383942,0.26500208925361307,0.0,0.0
26.0,9.0,0.1,0.6870685320070459,0.3319616797786745,0.0,0.0
26.0,9.0,0.3,0.6870685320070459,0.3319616797786745,0.0,0.0
26.0,9.0,0.7,0.6870685320070459,0.3319616797786745,0.0,0.0
26.0,9.0,1.0,0.6870685320070459,0.3319616797786745,0.0,0.0
26.0,17.0,0.1,0.6450743587393334,0.7348602058506488,0.0,0.0
26.0,17.0,0.3,0.6450743587393334,0.7348602058506488,0.0,0.0
26.0,17.0,0.7,0.6450743587393334,0.7348602058506488,0.0,0.0
26.0,17.0,1.0,0.6450743587393334,0.7348602058506488,0.0,0.0
26.0,25.0,0.1,0.6170037714515085,1.2177457546644146,0.0,0.0
26.0,25.0,0.3,0.6170037714515085,1.2177457546644146,0.0,0.0
26.0,25.0,0.7,0.6170037714515085,1.2177457546644146,0.0,0.0
26.0,25.0,1.0,0.6170037714515085,1.2177457546644146,0.0,0.0
26.0,33.0,0.1,0.9574173275306574,1.7765656328049044,0.0,0.0
26.0,33.0,0.3,0.9574173275306574,1.7765656328049044,0.0,0.0
26.0,33.0,0.7,0.9574173275306574,1.7765656328049044,0.0,0.0
26.0,33.0,1.0,0.9574173275306574,1.7765656328049044,0.0,0.0
26.0,41.0,0.1,1.0891348796849556,2.7230988554374855,0.0,0.0
26.0,41.0,0.3,1.0891348796849556,2.7230988554374855,0.0,0.0
26.0,41.0,0.7,1.0891348796849556,2.7230988554374855,0.0,0.0
26.0,41.0,1.0,1.0891348796849556,2.7230988554374855,0.0,0.0
26.0,49.0,0.1,1.475647965843572,3.6029774452349965,0.0,0.0
26.0,49.0,0.3,1.475647965843572,3.6029774452349965,0.0,0.0
26.0,49.0,0.7,1.475647965843572,3.6029774452349965,0.0,0.0
26.0,49.0,1.0,1.475647965843572,3.6029774452349965,0.0,0.0
26.0,57.0,0.1,1.8977224647428306,4.7781688389649934,0.0,0.0
26.0,57.0,0.3,1.8977224647428306,4.7781688389649934,0.0,0.0
26.0,57.0,0.7,1.8977224647428306,4.7781688389649934,0.0,0.0
26.0,57.0,1.0,1.8977224647428306,4.7781688389649934,0.0,0.0
26.0,65.0,0.1,2.5358828400822118,6.276148302930407,0.0,0.0
26.0,65.0,0.3,2.5358828400822118,6.276148302930407,0.0,0.0
26.0,65.0,0.7,2.5358828400822118,6.276148302930407,0.0,0.0
26.0,65.0,1.0,2.5358828400822118,6.276148302930407,0.0,0.0
26.0,73.0,0.1,3.2144679301676735,7.699895934456985,0.0,0.0
26.0,73.0,0.3,3.2144679301676735,7.699895934456985,0.0,0.0
26.0,73.0,0.7,3.2144679301676735,7.699895934456985,0.0,0.0
26.0,73.0,1.0,3.2144679301676735,7.699895934456985,0.0,0.0
26.0,81.0,0.1,3.838370502250307,9.486605280829735,0.0,0.0
26.0,81.0,0.3,3.838370502250307,9.486605280829735,0.0,0.0
26.0,81.0,0.7,3.838370502250307,9.486605280829735,0.0,0.0
26.0,81.0,1.0,3.838370502250307,9.486605280829735,0.0,0.0
26.0,89.0,0.1,4.3128350855230355,11.275207818316117,0.0,0.0
26.0,89.0,0.3,4.3128350855230355,11.275207818316117,0.0,0.0
26.0,89.0,0.7,4.3128350855230355,11.275207818316117,0.0,0.0
26.0,89.0,1.0,4.3128350855230355,11.275207818316117,0.0,0.0
26.0,97.0,0.1,4.453710571895242,14.305801838861992,0.0,0.0
26.0,97.0,0.3,4.453710571895242,14.305801838861992,0.0,0.0
26.0,97.0,0.7,4.453710571895242,14.305801838861992,0.0,0.0
26.0,97.0,1.0,4.453710571895242,14.305801838861992,0.0,0.0
26.0,105.0,0.1,4.449748725582956,14.551553649322898,0.0,0.0
26.0,105.0,0.3,4.449748725582956,14.551553649322898,0.0,0.0
26.0,105.0,0.7,4.449748725582956,14.551553649322898,0.0,0.0
26.0,105.0,1.0,4.449748725582956,14.551553649322898,0.0,0.0
26.0,113.0,0.1,4.4281612388355365,15.143942553980766,0.0,0.0
26.0,113.0,0.3,4.4281612388355365,15.143942553980766,0.0,0.0
26.0,113.0,0.7,4.4281612388355365,15.143942553980766,0.0,0.0
26.0,113.0,1.0,4.4281612388355365,15.143942553980766,0.0,0.0
26.0,121.0,0.1,4.420289454740574,14.33568093210626,0.0,0.0
26.0,121.0,0.3,4.420289454740574,14.33568093210626,0.0,0.0
26.0,121.0,0.7,4.420289454740574,14.33568093210626,0.0,0.0
26.0,121.0,1.0,4.420289454740574,14.33568093210626,0.0,0.0
26.0,127.0,0.1,4.411083155988307,14.59552307772738,0.0,0.0
26.0,127.0,0.3,4.411083155988307,14.59552307772738,0.0,0.0
26.0,127.0,0.7,4.411083155988307,14.59552307772738,0.0,0.0
26.0,127.0,1.0,4.411083155988307,14.59552307772738,0.0,0.0
27.0,1.0,0.1,0.47189138592720825,0.2534782792152391,0.0,0.0
27.0,1.0,0.3,0.47189138592720825,0.2534782792152391,0.0,0.0
27.0,1.0,0.7,0.47189138592720825,0.2534782792152391,0.0,0.0
27.0,1.0,1.0,0.47189138592720825,0.2534782792152391,0.0,0.0
27.0,9.0,0.1,0.4953981540637455,0.41430368518234967,0.0,0.0
27.0,9.0,0.3,0.4953981540637455,0.41430368518234967,0.0,0.0
27.0,9.0,0.7,0.4953981540637455,0.41430368518234967,0.0,0.0
27.0,9.0,1.0,0.4953981540637455,0.41430368518234967,0.0,0.0
27.0,17.0,0.1,0.47422625575562977,0.6551514263439667,0.0,0.0
27.0,17.0,0.3,0.47422625575562977,0.6551514263439667,0.0,0.0
27.0,17.0,0.7,0.47422625575562977,0.6551514263439667,0.0,0.0
27.0,17.0,1.0,0.47422625575562977,0.6551514263439667,0.0,0.0
27.0,25.0,0.1,0.6429387502535119,1.1212766022041416,0.0,0.0
27.0,25.0,0.3,0.6429387502535119,1.1212766022041416,0.0,0.0
27.0,25.0,0.7,0.6429387502535119,1.1212766022041416,0.0,0.0
27.0,25.0,1.0,0.6429387502535119,1.1212766022041416,0.0,0.0
27.0,33.0,0.1,0.7740541149175171,1.6944223492651396,0.0,0.0
27.0,33.0,0.3,0.7740541149175171,1.6944223492651396,0.0,0.0
27.0,33.0,0.7,0.7740541149175171,1.6944223492651396,0.0,0.0
27.0,33.0,1.0,0.7740541149175171,1.6944223492651396,0.0,0.0
27.0,41.0,0.1,1.0952912402101267,2.331497882219466,0.0,0.0
27.0,41.0,0.3,1.0952912402101267,2.331497882219466,0.0,0.0
27.0,41.0,0.7,1.0952912402101267,2.331497882219466,0.0,0.0
27.0,41.0,1.0,1.0952912402101267,2.331497882219466,0.0,0.0
27.0,49.0,0.1,1.490952075222416,3.1896977566250047,0.0,0.0
27.0,49.0,0.3,1.490952075222416,3.1896977566250047,0.0,0.0
27.0,49.0,0.7,1.490952075222416,3.1896977566250047,0.0,0.0
27.0,49.0,1.0,1.490952075222416,3.1896977566250047,0.0,0.0
27.0,57.0,0.1,1.8914578793821073,4.143709677475614,0.0,0.0
27.0,57.0,0.3,1.8914578793821073,4.143709677475614,0.0,0.0
27.0,57.0,0.7,1.8914578793821073,4.143709677475614,0.0,0.0
27.0,57.0,1.0,1.8914578793821073,4.143709677475614,0.0,0.0
27.0,65.0,0.1,2.459399972582015,5.31885916113762,0.0,0.0
27.0,65.0,0.3,2.459399972582015,5.31885916113762,0.0,0.0
27.0,65.0,0.7,2.459399972582015,5.31885916113762,0.0,0.0
27.0,65.0,1.0,2.459399972582015,5.31885916113762,0.0,0.0
27.0,73.0,0.1,3.1027949914821256,6.996923397924927,0.0,0.0
27.0,73.0,0.3,3.1027949914821256,6.996923397924927,0.0,0.0
27.0,73.0,0.7,3.1027949914821256,6.996923397924927,0.0,0.0
27.0,73.0,1.0,3.1027949914821256,6.996923397924927,0.0,0.0
27.0,81.0,0.1,3.813644041966779,8.42689972832592,0.0,0.0
27.0,81.0,0.3,3.813644041966779,8.42689972832592,0.0,0.0
27.0,81.0,0.7,3.813644041966779,8.42689972832592,0.0,0.0
27.0,81.0,1.0,3.813644041966779,8.42689972832592,0.0,0.0
27.0,89.0,0.1,4.459793237131028,11.184201940103247,0.0,0.0
27.0,89.0,0.3,4.459793237131028,11.184201940103247,0.0,0.0
27.0,89.0,0.7,4.459793237131028,11.184201940103247,0.0,0.0
27.0,89.0,1.0,4.459793237131028,11.184201940103247,0.0,0.0
27.0,97.0,0.1,4.954124857523739,12.67099016416632,0.0,0.0
27.0,97.0,0.3,4.954124857523739,12.67099016416632,0.0,0.0
27.0,97.0,0.7,4.954124857523739,12.67099016416632,0.0,0.0
27.0,97.0,1.0,4.954124857523739,12.67099016416632,0.0,0.0
27.0,105.0,0.1,4.991244795085656,14.118026883866984,0.0,0.0
27.0,105.0,0.3,4.991244795085656,14.118026883866984,0.0,0.0
27.0,105.0,0.7,4.991244795085656,14.118026883866984,0.0,0.0
27.0,105.0,1.0,4.991244795085656,14.118026883866984,0.0,0.0
27.0,113.0,0.1,4.952501602655666,13.555819515250777,0.0,0.0
27.0,113.0,0.3,4.952501602655666,13.555819515250777,0.0,0.0
27.0,113.0,0.7,4.952501602655666,13.555819515250777,0.0,0.0
27.0,113.0,1.0,4.952501602655666,13.555819515250777,0.0,0.0
27.0,121.0,0.1,4.900439048202798,13.135331206851811,0.0,0.0
27.0,121.0,0.3,4.900439048202798,13.135331206851811,0.0,0.0
27.0,121.0,0.7,4.900439048202798,13.135331206851811,0.0,0.0
27.0,121.0,1.0,4.900439048202798,13.135331206851811,0.0,0.0
27.0,127.0,0.1,4.887719591427196,13.56470601946475,0.0,0.0
27.0,127.0,0.3,4.887719591427196,13.56470601946475,0.0,0.0
27.0,127.0,0.7,4.887719591427196,13.56470601946475,0.0,0.0
27.0,127.0,1.0,4.887719591427196,13.56470601946475,0.0,0.0
28.0,1.0,0.1,0.4176396118256369,0.15330606646115602,0.0,0.0
28.0,1.0,0.3,0.4176396118256369,0.15330606646115602,0.0,0.0
28.0,1.0,0.7,0.4176396118256369,0.15330606646115602,0.0,0.0
28.0,1.0,1.0,0.4176396118256369,0.15330606646115602,0.0,0.0
28.0,9.0,0.1,0.4430499339948659,0.22945927009759745,0.0,0.0
28.0,9.0,0.3,0.4430499339948659,0.22945927009759745,0.0,0.0
28.0,9.0,0.7,0.4430499339948659,0.22945927009759745,0.0,0.0
28.0,9.0,1.0,0.4430499339948659,0.22945927009759745,0.0,0.0
28.0,17.0,0.1,0.41831415568148306,0.4911651878589794,0.0,0.0
28.0,17.0,0.3,0.41831415568148306,0.4911651878589794,0.0,0.0
28.0,17.0,0.7,0.41831415568148306,0.4911651878589794,0.0,0.0
28.0,17.0,1.0,0.41831415568148306,0.4911651878589794,0.0,0.0
28.0,25.0,0.1,0.39056743909834757,0.8146509775135984,0.0,0.0
28.0,25.0,0.3,0.39056743909834757,0.8146509775135984,0.0,0.0
28.0,25.0,0.7,0.39056743909834757,0.8146509775135984,0.0,0.0
28.0,25.0,1.0,0.39056743909834757,0.8146509775135984,0.0,0.0
28.0,33.0,0.1,0.740727646587594,1.2891684158371652,0.0,0.0
28.0,33.0,0.3,0.740727646587594,1.2891684158371652,0.0,0.0
28.0,33.0,0.7,0.740727646587594,1.2891684158371652,0.0,0.0
28.0,33.0,1.0,0.740727646587594,1.2891684158371652,0.0,0.0
28.0,41.0,0.1,1.0175778477440547,1.9393889374736604,0.0,0.0
28.0,41.0,0.3,1.0175778477440547,1.9393889374736604,0.0,0.0
28.0,41.0,0.7,1.0175778477440547,1.9393889374736604,0.0,0.0
28.0,41.0,1.0,1.0175778477440547,1.9393889374736604,0.0,0.0
28.0,49.0,0.1,1.4657788881288845,2.6614505455269253,0.0,0.0
28.0,49.0,0.3,1.4657788881288845,2.6614505455269253,0.0,0.0
28.0,49.0,0.7,1.4657788881288845,2.6614505455269253,0.0,0.0
28.0,49.0,1.0,1.4657788881288845,2.6614505455269253,0.0,0.0
28.0,57.0,0.1,1.6776281919657623,3.723250616137028,0.0,0.0
28.0,57.0,0.3,1.6776281919657623,3.723250616137028,0.0,0.0
28.0,57.0,0.7,1.6776281919657623,3.723250616137028,0.0,0.0
28.0,57.0,1.0,1.6776281919657623,3.723250616137028,0.0,0.0
28.0,65.0,0.1,2.344660645917958,4.781979420316649,0.0,0.0
28.0,65.0,0.3,2.344660645917958,4.781979420316649,0.0,0.0
28.0,65.0,0.7,2.344660645917958,4.781979420316649,0.0,0.0
28.0,65.0,1.0,2.344660645917958,4.781979420316649,0.0,0.0
28.0,73.0,0.1,3.1608794780991296,6.259378464496212,0.0,0.0
28.0,73.0,0.3,3.1608794780991296,6.259378464496212,0.0,0.0
28.0,73.0,0.7,3.1608794780991296,6.259378464496212,0.0,0.0
28.0,73.0,1.0,3.1608794780991296,6.259378464496212,0.0,0.0
28.0,81.0,0.1,3.915114566286025,8.2658014093441,0.0,0.0
28.0,81.0,0.3,3.915114566286025,8.2658014093441,0.0,0.0
28.0,81.0,0.7,3.915114566286025,8.2658014093441,0.0,0.0
28.0,81.0,1.0,3.915114566286025,8.2658014093441,0.0,0.0
28.0,89.0,0.1,4.449291920781066,10.39364784586089,0.0,0.0
28.0,89.0,0.3,4.449291920781066,10.39364784586089,0.0,0.0
28.0,89.0,0.7,4.449291920781066,10.39364784586089,0.0,0.0
28.0,89.0,1.0,4.449291920781066,10.39364784586089,0.0,0.0
28.0,97.0,0.1,4.52775435444965,13.278056891984784,0.0,0.0
28.0,97.0,0.3,4.52775435444965,13.278056891984784,0.0,0.0
28.0,97.0,0.7,4.52775435444965,13.278056891984784,0.0,0.0
28.0,97.0,1.0,4.52775435444965,13.278056891984784,0.0,0.0
28.0,105.0,0.1,4.554060140187391,13.652031788085901,0.0,0.0
28.0,105.0,0.3,4.554060140187391,13.652031788085901,0.0,0.0
28.0,105.0,0.7,4.554060140187391,13.652031788085901,0.0,0.0
28.0,105.0,1.0,4.554060140187391,13.652031788085901,0.0,0.0
28.0,113.0,0.1,4.508593777851918,13.721730740456598,0.0,0.0
28.0,113.0,0.3,4.508593777851918,13.721730740456598,0.0,0.0
28.0,113.0,0.7,4.508593777851918,13.721730740456598,0.0,0.0
28.0,113.0,1.0,4.508593777851918,13.721730740456598,0.0,0.0
28.0,121.0,0.1,4.49868864462702,13.415728934430447,0.0,0.0
28.0,121.0,0.3,4.49868864462702,13.415728934430447,0.0,0.0
28.0,121.0,0.7,4.49868864462702,13.415728934430447,0.0,0.0
28.0,121.0,1.0,4.49868864462702,13.415728934430447,0.0,0.0
28.0,127.0,0.1,4.488880317995053,14.047528324194804,0.0,0.0
28.0,127.0,0.3,4.488880317995053,14.047528324194804,0.0,0.0
28.0,127.0,0.7,4.488880317995053,14.047528324194804,0.0,0.0
28.0,127.0,1.0,4.488880317995053,14.047528324194804,0.0,0.0
29.0,1.0,0.1,0.749478045485416,0.07902304267465506,0.0,0.0
29.0,1.0,0.3,0.749478045485416,0.07902304267465506,0.0,0.0
29.0,1.0,0.7,0.749478045485416,0.07902304267465506,0.0,0.0
29.0,1.0,1.0,0.749478045485416,0.07902304267465506,0.0,0.0
29.0,9.0,0.1,0.5866814356731194,0.19991459603675163,0.0,0.0
29.0,9.0,0.3,0.5866814356731194,0.19991459603675163,0.0,0.0
29.0,9.0,0.7,0.5866814356731194,0.19991459603675163,0.0,0.0
29.0,9.0,1.0,0.5866814356731194,0.19991459603675163,0.0,0.0
29.0,17.0,0.1,0.5526329116684836,0.4113987293129016,0.0,0.0
29.0,17.0,0.3,0.5526329116684836,0.4113987293129016,0.0,0.0
29.0,17.0,0.7,0.5526329116684836,0.4113987293129016,0.0,0.0
29.0,17.0,1.0,0.5526329116684836,0.4113987293129016,0.0,0.0
29.0,25.0,0.1,0.5562977010363377,0.9261921989720302,0.0,0.0
29.0,25.0,0.3,0.5562977010363377,0.9261921989720302,0.0,0.0
29.0,25.0,0.7,0.5562977010363377,0.9261921989720302,0.0,0.0
29.0,25.0,1.0,0.5562977010363377,0.9261921989720302,0.0,0.0
29.0,33.0,0.1,0.7418698142711666,1.3872592675899438,0.0,0.0
29.0,33.0,0.3,0.7418698142711666,1.3872592675899438,0.0,0.0
29.0,33.0,0.7,0.7418698142711666,1.3872592675899438,0.0,0.0
29.0,33.0,1.0,0.7418698142711666,1.3872592675899438,0.0,0.0
29.0,41.0,0.1,1.0568189313879048,1.853195090912933,0.0,0.0
29.0,41.0,0.3,1.0568189313879048,1.853195090912933,0.0,0.0
29.0,41.0,0.7,1.0568189313879048,1.853195090912933,0.0,0.0
29.0,41.0,1.0,1.0568189313879048,1.853195090912933,0.0,0.0
29.0,49.0,0.1,1.5114492567732265,2.5387720480173472,0.0,0.0
29.0,49.0,0.3,1.5114492567732265,2.5387720480173472,0.0,0.0
29.0,49.0,0.7,1.5114492567732265,2.5387720480173472,0.0,0.0
29.0,49.0,1.0,1.5114492567732265,2.5387720480173472,0.0,0.0
29.0,57.0,0.1,1.883080239800132,3.4676452827943147,0.0,0.0
29.0,57.0,0.3,1.883080239800132,3.4676452827943147,0.0,0.0
29.0,57.0,0.7,1.883080239800132,3.4676452827943147,0.0,0.0
29.0,57.0,1.0,1.883080239800132,3.4676452827943147,0.0,0.0
29.0,65.0,0.1,2.5581663238340098,4.691858414826072,0.0,0.0
29.0,65.0,0.3,2.5581663238340098,4.691858414826072,0.0,0.0
29.0,65.0,0.7,2.5581663238340098,4.691858414826072,0.0,0.0
29.0,65.0,1.0,2.5581663238340098,4.691858414826072,0.0,0.0
29.0,73.0,0.1,3.311429490326472,6.448734980316703,0.0,0.0
29.0,73.0,0.3,3.311429490326472,6.448734980316703,0.0,0.0
29.0,73.0,0.7,3.311429490326472,6.448734980316703,0.0,0.0
29.0,73.0,1.0,3.311429490326472,6.448734980316703,0.0,0.0
29.0,81.0,0.1,4.09719774536263,8.558004529052857,0.0,0.0
29.0,81.0,0.3,4.09719774536263,8.558004529052857,0.0,0.0
29.0,81.0,0.7,4.09719774536263,8.558004529052857,0.0,0.0
29.0,81.0,1.0,4.09719774536263,8.558004529052857,0.0,0.0
29.0,89.0,0.1,4.824713249816618,11.384456489932381,0.0,0.0
29.0,89.0,0.3,4.824713249816618,11.384456489932381,0.0,0.0
29.0,89.0,0.7,4.824713249816618,11.384456489932381,0.0,0.0
29.0,89.0,1.0,4.824713249816618,11.384456489932381,0.0,0.0
29.0,97.0,0.1,5.3392226987060925,12.091761784973576,0.0,0.0
29.0,97.0,0.3,5.3392226987060925,12.091761784973576,0.0,0.0
29.0,97.0,0.7,5.3392226987060925,12.091761784973576,0.0,0.0
29.0,97.0,1.0,5.3392226987060925,12.091761784973576,0.0,0.0
29.0,105.0,0.1,5.3077667084197175,13.151065519023824,0.0,0.0
29.0,105.0,0.3,5.3077667084197175,13.151065519023824,0.0,0.0
29.0,105.0,0.7,5.3077667084197175,13.151065519023824,0.0,0.0
29.0,105.0,1.0,5.3077667084197175,13.151065519023824,0.0,0.0
29.0,113.0,0.1,5.339385429075209,12.810453691319994,0.0,0.0
29.0,113.0,0.3,5.339385429075209,12.810453691319994,0.0,0.0
29.0,113.0,0.7,5.339385429075209,12.810453691319994,0.0,0.0
29.0,113.0,1.0,5.339385429075209,12.810453691319994,0.0,0.0
29.0,121.0,0.1,5.322070654312201,12.007223157086326,0.0,0.0
29.0,121.0,0.3,5.322070654312201,12.007223157086326,0.0,0.0
29.0,121.0,0.7,5.322070654312201,12.007223157086326,0.0,0.0
29.0,121.0,1.0,5.322070654312201,12.007223157086326,0.0,0.0
29.0,127.0,0.1,5.295857105034941,14.011207945918445,0.0,0.0
29.0,127.0,0.3,5.295857105034941,14.011207945918445,0.0,0.0
29.0,127.0,0.7,5.295857105034941,14.011207945918445,0.0,0.0
29.0,127.0,1.0,5.295857105034941,14.011207945918445,0.0,0.0
30.0,1.0,0.1,0.5705346056520187,0.2477158826866699,0.0,0.0
30.0,1.0,0.3,0.5705346056520187,0.2477158826866699,0.0,0.0
30.0,1.0,0.7,0.5705346056520187,0.2477158826866699,0.0,0.0
30.0,1.0,1.0,0.5705346056520187,0.2477158826866699,0.0,0.0
30.0,9.0,0.1,0.453728630863603,0.35656215585319767,0.0,0.0
30.0,9.0,0.3,0.453728630863603,0.35656215585319767,0.0,0.0
30.0,9.0,0.7,0.453728630863603,0.35656215585319767,0.0,0.0
30.0,9.0,1.0,0.453728630863603,0.35656215585319767,0.0,0.0
30.0,17.0,0.1,0.4353760013053244,0.5539536552187033,0.0,0.0
30.0,17.0,0.3,0.4353760013053244,0.5539536552187033,0.0,0.0
30.0,17.0,0.7,0.4353760013053244,0.5539536552187033,0.0,0.0
30.0,17.0,1.0,0.4353760013053244,0.5539536552187033,0.0,0.0
30.0,25.0,0.1,0.4225250560273945,0.9961737963788148,0.0,0.0
30.0,25.0,0.3,0.4225250560273945,0.9961737963788148,0.0,0.0
30.0,25.0,0.7,0.4225250560273945,0.9961737963788148,0.0,0.0
30.0,25.0,1.0,0.4225250560273945,0.9961737963788148,0.0,0.0
30.0,33.0,0.1,0.590726610525155,1.4248107001058496,0.0,0.0
30.0,33.0,0.3,0.590726610525155,1.4248107001058496,0.0,0.0
30.0,33.0,0.7,0.590726610525155,1.4248107001058496,0.0,0.0
30.0,33.0,1.0,0.590726610525155,1.4248107001058496,0.0,0.0
30.0,41.0,0.1,0.8643907286952603,2.1343820687142356,0.0,0.0
30.0,41.0,0.3,0.8643907286952603,2.1343820687142356,0.0,0.0
30.0,41.0,0.7,0.8643907286952603,2.1343820687142356,0.0,0.0
30.0,41.0,1.0,0.8643907286952603,2.1343820687142356,0.0,0.0
30.0,49.0,0.1,1.3396156766344116,2.7595073002742585,0.0,0.0
30.0,49.0,0.3,1.3396156766344116,2.7595073002742585,0.0,0.0
30.0,49.0,0.7,1.3396156766344116,2.7595073002742585,0.0,0.0
30.0,49.0,1.0,1.3396156766344116,2.7595073002742585,0.0,0.0
30.0,57.0,0.1,1.5556040022156752,3.5177127666702446,0.0,0.0
30.0,57.0,0.3,1.5556040022156752,3.5177127666702446,0.0,0.0
30.0,57.0,0.7,1.5556040022156752,3.5177127666702446,0.0,0.0
30.0,57.0,1.0,1.5556040022156752,3.5177127666702446,0.0,0.0
30.0,65.0,0.1,2.2302537390790746,4.386379099504207,0.0,0.0
30.0,65.0,0.3,2.2302537390790746,4.386379099504207,0.0,0.0
30.0,65.0,0.7,2.2302537390790746,4.386379099504207,0.0,0.0
30.0,65.0,1.0,2.2302537390790746,4.386379099504207,0.0,0.0
30.0,73.0,0.1,2.980129543913605,5.566042080367091,0.0,0.0
30.0,73.0,0.3,2.980129543913605,5.566042080367091,0.0,0.0
30.0,73.0,0.7,2.980129543913605,5.566042080367091,0.0,0.0
30.0,73.0,1.0,2.980129543913605,5.566042080367091,0.0,0.0
30.0,81.0,0.1,3.7874416822911927,7.135329131770118,0.0,0.0
30.0,81.0,0.3,3.7874416822911927,7.135329131770118,0.0,0.0
30.0,81.0,0.7,3.7874416822911927,7.135329131770118,0.0,0.0
30.0,81.0,1.0,3.7874416822911927,7.135329131770118,0.0,0.0
30.0,89.0,0.1,4.397507525540142,9.227415232979263,0.0,0.0
30.0,89.0,0.3,4.397507525540142,9.227415232979263,0.0,0.0
30.0,89.0,0.7,4.397507525540142,9.227415232979263,0.0,0.0
30.0,89.0,1.0,4.397507525540142,9.227415232979263,0.0,0.0
30.0,97.0,0.1,4.682678692599301,13.686377071254158,0.0,0.0
30.0,97.0,0.3,4.682678692599301,13.686377071254158,0.0,0.0
30.0,97.0,0.7,4.682678692599301,13.686377071254158,0.0,0.0
30.0,97.0,1.0,4.682678692599301,13.686377071254158,0.0,0.0
30.0,105.0,0.1,4.630896846984394,12.423672525852188,0.0,0.0
30.0,105.0,0.3,4.630896846984394,12.423672525852188,0.0,0.0
30.0,105.0,0.7,4.630896846984394,12.423672525852188,0.0,0.0
30.0,105.0,1.0,4.630896846984394,12.423672525852188,0.0,0.0
30.0,113.0,0.1,4.672429114379804,14.092148375787906,0.0,0.0
30.0,113.0,0.3,4.672429114379804,14.092148375787906,0.0,0.0
30.0,113.0,0.7,4.672429114379804,14.092148375787906,0.0,0.0
30.0,113.0,1.0,4.672429114379804,14.092148375787906,0.0,0.0
30.0,121.0,0.1,4.495032569896151,13.605621132894461,0.0,0.0
30.0,121.0,0.3,4.495032569896151,13.605621132894461,0.0,0.0
30.0,121.0,0.7,4.495032569896151,13.605621132894461,0.0,0.0
30.0,121.0,1.0,4.495032569896151,13.605621132894461,0.0,0.0
30.0,127.0,0.1,4.5246317304457095,13.485012377438641,0.0,0.0
30.0,127.0,0.3,4.5246317304457095,13.485012377438641,0.0,0.0
30.0,127.0,0.7,4.5246317304457095,13.485012377438641,0.0,0.0
30.0,127.0,1.0,4.5246317304457095,13.485012377438641,0.0,0.0
31.0,1.0,0.1,0.6157224498130198,0.20993057985802105,0.0,0.0
31.0,1.0,0.3,0.6157224498130198,0.20993057985802105,0.0,0.0
31.0,1.0,0.7,0.6157224498130198,0.20993057985802105,0.0,0.0
31.0,1.0,1.0,0.6157224498130198,0.20993057985802105,0.0,0.0
31.0,9.0,0.1,0.6484211726590217,0.1860115766352098,0.0,0.0
31.0,9.0,0.3,0.6484211726590217,0.1860115766352098,0.0,0.0
31.0,9.0,0.7,0.6484211726590217,0.1860115766352098,0.0,0.0
31.0,9.0,1.0,0.6484211726590217,0.1860115766352098,0.0,0.0
31.0,17.0,0.1,0.6149634634121617,0.43863629780087543,0.0,0.0
31.0,17.0,0.3,0.6149634634121617,0.43863629780087543,0.0,0.0
31.0,17.0,0.7,0.6149634634121617,0.43863629780087543,0.0,0.0
31.0,17.0,1.0,0.6149634634121617,0.43863629780087543,0.0,0.0
31.0,25.0,0.1,0.5884078447577172,0.7978160498412189,0.0,0.0
31.0,25.0,0.3,0.5884078447577172,0.7978160498412189,0.0,0.0
31.0,25.0,0.7,0.5884078447577172,0.7978160498412189,0.0,0.0
31.0,25.0,1.0,0.5884078447577172,0.7978160498412189,0.0,0.0
31.0,33.0,0.1,0.7229719052080806,1.2639134243269345,0.0,0.0
31.0,33.0,0.3,0.7229719052080806,1.2639134243269345,0.0,0.0
31.0,33.0,0.7,0.7229719052080806,1.2639134243269345,0.0,0.0
31.0,33.0,1.0,0.7229719052080806,1.2639134243269345,0.0,0.0
31.0,41.0,0.1,0.9757146599284169,1.806190180915573,0.0,0.0
31.0,41.0,0.3,0.9757146599284169,1.806190180915573,0.0,0.0
31.0,41.0,0.7,0.9757146599284169,1.806190180915573,0.0,0.0
31.0,41.0,1.0,0.9757146599284169,1.806190180915573,0.0,0.0
31.0,49.0,0.1,1.2082189447171163,2.5034753767211697,0.0,0.0
31.0,49.0,0.3,1.2082189447171163,2.5034753767211697,0.0,0.0
31.0,49.0,0.7,1.2082189447171163,2.5034753767211697,0.0,0.0
31.0,49.0,1.0,1.2082189447171163,2.5034753767211697,0.0,0.0
31.0,57.0,0.1,1.7333180122557768,3.462494822708195,0.0,0.0
31.0,57.0,0.3,1.7333180122557768,3.462494822708195,0.0,0.0
31.0,57.0,0.7,1.7333180122557768,3.462494822708195,0.0,0.0
31.0,57.0,1.0,1.7333180122557768,3.462494822708195,0.0,0.0
31.0,65.0,0.1,2.3349680675487554,4.467424384088122,0.0,0.0
31.0,65.0,0.3,2.3349680675487554,4.467424384088122,0.0,0.0
31.0,65.0,0.7,2.3349680675487554,4.467424384088122,0.0,0.0
31.0,65.0,1.0,2.3349680675487554,4.467424384088122,0.0,0.0
31.0,73.0,0.1,2.9691616550074196,6.099530631153847,0.0,0.0
31.0,73.0,0.3,2.9691616550074196,6.099530631153847,0.0,0.0
31.0,73.0,0.7,2.9691616550074196,6.099530631153847,0.0,0.0
31.0,73.0,1.0,2.9691616550074196,6.099530631153847,0.0,0.0
31.0,81.0,0.1,3.631290032360844,7.793750112126126,0.0,0.0
31.0,81.0,0.3,3.631290032360844,7.793750112126126,0.0,0.0
31.0,81.0,0.7,3.631290032360844,7.793750112126126,0.0,0.0
31.0,81.0,1.0,3.631290032360844,7.793750112126126,0.0,0.0
31.0,89.0,0.1,4.253145827177667,10.272629627003933,0.0,0.0
31.0,89.0,0.3,4.253145827177667,10.272629627003933,0.0,0.0
31.0,89.0,0.7,4.253145827177667,10.272629627003933,0.0,0.0
31.0,89.0,1.0,4.253145827177667,10.272629627003933,0.0,0.0
31.0,97.0,0.1,4.6363248779035775,12.912165553867263,0.0,0.0
31.0,97.0,0.3,4.6363248779035775,12.912165553867263,0.0,0.0
31.0,97.0,0.7,4.6363248779035775,12.912165553867263,0.0,0.0
31.0,97.0,1.0,4.6363248779035775,12.912165553867263,0.0,0.0
31.0,105.0,0.1,4.587100236920062,12.032527018397886,0.0,0.0
31.0,105.0,0.3,4.587100236920062,12.032527018397886,0.0,0.0
31.0,105.0,0.7,4.587100236920062,12.032527018397886,0.0,0.0
31.0,105.0,1.0,4.587100236920062,12.032527018397886,0.0,0.0
31.0,113.0,0.1,4.577234019579407,12.509506199665058,0.0,0.0
31.0,113.0,0.3,4.577234019579407,12.509506199665058,0.0,0.0
31.0,113.0,0.7,4.577234019579407,12.509506199665058,0.0,0.0
31.0,113.0,1.0,4.577234019579407,12.509506199665058,0.0,0.0
31.0,121.0,0.1,4.61286607932291,11.98933862486091,0.0,0.0
31.0,121.0,0.3,4.61286607932291,11.98933862486091,0.0,0.0
31.0,121.0,0.7,4.61286607932291,11.98933862486091,0.0,0.0
31.0,121.0,1.0,4.61286607932291,11.98933862486091,0.0,0.0
31.0,127.0,0.1,4.554496710512012,12.54776211439537,0.0,0.0
31.0,127.0,0.3,4.554496710512012,12.54776211439537,0.0,0.0
31.0,127.0,0.7,4.554496710512012,12.54776211439537,0.0,0.0
31.0,127.0,1.0,4.554496710512012,12.54776211439537,0.0,0.0
32.0,1.0,0.1,0.5618132429851083,0.005088004953253857,0.0,0.0
32.0,1.0,0.3,0.5618132429851083,0.005088004953253857,0.0,0.0
32.0,1.0,0.7,0.5618132429851083,0.005088004953253857,0.0,0.0
32.0,1.0,1.0,0.5618132429851083,0.005088004953253857,0.0,0.0
32.0,9.0,0.1,0.33778740154999165,0.005942594014619446,0.0,0.0
32.0,9.0,0.3,0.33778740154999165,0.005942594014619446,0.0,0.0
32.0,9.0,0.7,0.33778740154999165,0.005942594014619446,0.0,0.0
32.0,9.0,1.0,0.33778740154999165,0.005942594014619446,0.0,0.0
32.0,17.0,0.1,0.3066495063338098,1.0826966734600245,0.0,0.0
32.0,17.0,0.3,0.3066495063338098,1.0826966734600245,0.0,0.0
32.0,17.0,0.7,0.3066495063338098,1.0826966734600245,0.0,0.0
32.0,17.0,1.0,0.3066495063338098,1.0826966734600245,0.0,0.0
32.0,25.0,0.1,0.6988925002393047,1.6932439800949985,0.0,0.0
32.0,25.0,0.3,0.6988925002393047,1.6932439800949985,0.0,0.0
32.0,25.0,0.7,0.6988925002393047,1.6932439800949985,0.0,0.0
32.0,25.0,1.0,0.6988925002393047,1.6932439800949985,0.0,0.0
32.0,33.0,0.1,0.6993635541918743,2.5023980747300256,0.0,0.0
32.0,33.0,0.3,0.6993635541918743,2.5023980747300256,0.0,0.0
32.0,33.0,0.7,0.6993635541918743,2.5023980747300256,0.0,0.0
32.0,33.0,1.0,0.6993635541918743,2.5023980747300256,0.0,0.0
32.0,41.0,0.1,1.1817660275599324,3.2440813462352276,0.0,0.0
32.0,41.0,0.3,1.1817660275599324,3.2440813462352276,0.0,0.0
32.0,41.0,0.7,1.1817660275599324,3.2440813462352276,0.0,0.0
32.0,41.0,1.0,1.1817660275599324,3.2440813462352276,0.0,0.0
32.0,49.0,0.1,1.4851420552607741,4.40768305975782,0.0,0.0
32.0,49.0,0.3,1.4851420552607741,4.40768305975782,0.0,0.0
32.0,49.0,0.7,1.4851420552607741,4.40768305975782,0.0,0.0
32.0,49.0,1.0,1.4851420552607741,4.40768305975782,0.0,0.0
32.0,57.0,0.1,1.9324398106970964,5.568020400127258,0.0,0.0
32.0,57.0,0.3,1.9324398106970964,5.568020400127258,0.0,0.0
32.0,57.0,0.7,1.9324398106970964,5.568020400127258,0.0,0.0
32.0,57.0,1.0,1.9324398106970964,5.568020400127258,0.0,0.0
32.0,65.0,0.1,2.564842949684027,6.881371386873072,0.0,0.0
32.0,65.0,0.3,2.564842949684027,6.881371386873072,0.0,0.0
32.0,65.0,0.7,2.564842949684027,6.881371386873072,0.0,0.0
32.0,65.0,1.0,2.564842949684027,6.881371386873072,0.0,0.0
32.0,73.0,0.1,3.304066750253241,8.925718169540168,0.0,0.0
32.0,73.0,0.3,3.304066750253241,8.925718169540168,0.0,0.0
32.0,73.0,0.7,3.304066750253241,8.925718169540168,0.0,0.0
32.0,73.0,1.0,3.304066750253241,8.925718169540168,0.0,0.0
32.0,81.0,0.1,4.105942557724768,11.154994695189592,0.0,0.0
32.0,81.0,0.3,4.105942557724768,11.154994695189592,0.0,0.0
32.0,81.0,0.7,4.105942557724768,11.154994695189592,0.0,0.0
32.0,81.0,1.0,4.105942557724768,11.154994695189592,0.0,0.0
32.0,89.0,0.1,4.583356698663977,14.181826534422889,0.0,0.0
32.0,89.0,0.3,4.583356698663977,14.181826534422889,0.0,0.0
32.0,89.0,0.7,4.583356698663977,14.181826534422889,0.0,0.0
32.0,89.0,1.0,4.583356698663977,14.181826534422889,0.0,0.0
32.0,97.0,0.1,4.965733523687416,15.246808136607832,0.0,0.0
32.0,97.0,0.3,4.965733523687416,15.246808136607832,0.0,0.0
32.0,97.0,0.7,4.965733523687416,15.246808136607832,0.0,0.0
32.0,97.0,1.0,4.965733523687416,15.246808136607832,0.0,0.0
32.0,105.0,0.1,4.92865117514186,15.16309464681508,0.0,0.0
32.0,105.0,0.3,4.92865117514186,15.16309464681508,0.0,0.0
32.0,105.0,0.7,4.92865117514186,15.16309464681508,0.0,0.0
32.0,105.0,1.0,4.92865117514186,15.16309464681508,0.0,0.0
32.0,113.0,0.1,4.896834745046946,14.503626209747187,0.0,0.0
32.0,113.0,0.3,4.896834745046946,14.503626209747187,0.0,0.0
32.0,113.0,0.7,4.896834745046946,14.503626209747187,0.0,0.0
32.0,113.0,1.0,4.896834745046946,14.503626209747187,0.0,0.0
32.0,121.0,0.1,4.928861003363433,13.965795361408055,0.0,0.0
32.0,121.0,0.3,4.928861003363433,13.965795361408055,0.0,0.0
32.0,121.0,0.7,4.928861003363433,13.965795361408055,0.0,0.0
32.0,121.0,1.0,4.928861003363433,13.965795361408055,0.0,0.0
32.0,127.0,0.1,4.873747499327931,13.93538210440842,0.0,0.0
32.0,127.0,0.3,4.873747499327931,13.93538210440842,0.0,0.0
32.0,127.0,0.7,4.873747499327931,13.93538210440842,0.0,0.0
32.0,127.0,1.0,4.873747499327931,13.93538210440842,0.0,0.0
33.0,1.0,0.1,0.5586157998658272,0.14385307342410894,0.0,0.0
33.0,1.0,0.3,0.5586157998658272,0.14385307342410894,0.0,0.0
33.0,1.0,0.7,0.5586157998658272,0.14385307342410894,0.0,0.0
33.0,1.0,1.0,0.5586157998658272,0.14385307342410894,0.0,0.0
33.0,9.0,0.1,0.6200226245938143,0.06277047427266176,0.0,0.0
33.0,9.0,0.3,0.6200226245938143,0.06277047427266176,0.0,0.0
33.0,9.0,0.7,0.6200226245938143,0.06277047427266176,0.0,0.0
33.0,9.0,1.0,0.6200226245938143,0.06277047427266176,0.0,0.0
33.0,17.0,0.1,0.603996431371026,0.3696685570604834,0.0,0.0
33.0,17.0,0.3,0.603996431371026,0.3696685570604834,0.0,0.0
33.0,17.0,0.7,0.603996431371026,0.3696685570604834,0.0,0.0
33.0,17.0,1.0,0.603996431371026,0.3696685570604834,0.0,0.0
33.0,25.0,0.1,0.5976491905228714,0.8976951941482872,0.0,0.0
33.0,25.0,0.3,0.5976491905228714,0.8976951941482872,0.0,0.0
33.0,25.0,0.7,0.5976491905228714,0.8976951941482872,0.0,0.0
33.0,25.0,1.0,0.5976491905228714,0.8976951941482872,0.0,0.0
33.0,33.0,0.1,0.8178433432818784,1.4590928821404654,0.0,0.0
33.0,33.0,0.3,0.8178433432818784,1.4590928821404654,0.0,0.0
33.0,33.0,0.7,0.8178433432818784,1.4590928821404654,0.0,0.0
33.0,33.0,1.0,0.8178433432818784,1.4590928821404654,0.0,0.0
33.0,41.0,0.1,1.1624355832859052,2.33699000104198,0.0,0.0
33.0,41.0,0.3,1.1624355832859052,2.33699000104198,0.0,0.0
33.0,41.0,0.7,1.1624355832859052,2.33699000104198,0.0,0.0
33.0,41.0,1.0,1.1624355832859052,2.33699000104198,0.0,0.0
33.0,49.0,0.1,1.4177745381497544,3.1832406751713744,0.0,0.0
33.0,49.0,0.3,1.4177745381497544,3.1832406751713744,0.0,0.0
33.0,49.0,0.7,1.4177745381497544,3.1832406751713744,0.0,0.0
33.0,49.0,1.0,1.4177745381497544,3.1832406751713744,0.0,0.0
33.0,57.0,0.1,1.775213856038619,4.1329801886957656,0.0,0.0
33.0,57.0,0.3,1.775213856038619,4.1329801886957656,0.0,0.0
33.0,57.0,0.7,1.775213856038619,4.1329801886957656,0.0,0.0
33.0,57.0,1.0,1.775213856038619,4.1329801886957656,0.0,0.0
33.0,65.0,0.1,2.433243962704471,5.353223727263351,0.0,0.0
33.0,65.0,0.3,2.433243962704471,5.353223727263351,0.0,0.0
33.0,65.0,0.7,2.433243962704471,5.353223727263351,0.0,0.0
33.0,65.0,1.0,2.433243962704471,5.353223727263351,0.0,0.0
33.0,73.0,0.1,3.1439668488949315,6.828850396265638,0.0,0.0
33.0,73.0,0.3,3.1439668488949315,6.828850396265638,0.0,0.0
33.0,73.0,0.7,3.1439668488949315,6.828850396265638,0.0,0.0
33.0,73.0,1.0,3.1439668488949315,6.828850396265638,0.0,0.0
33.0,81.0,0.1,4.0096103134055765,8.445271451059243,0.0,0.0
33.0,81.0,0.3,4.0096103134055765,8.445271451059243,0.0,0.0
33.0,81.0,0.7,4.0096103134055765,8.445271451059243,0.0,0.0
33.0,81.0,1.0,4.0096103134055765,8.445271451059243,0.0,0.0
33.0,89.0,0.1,4.685475667398531,12.954496213320198,0.0,0.0
33.0,89.0,0.3,4.685475667398531,12.954496213320198,0.0,0.0
33.0,89.0,0.7,4.685475667398531,12.954496213320198,0.0,0.0
33.0,89.0,1.0,4.685475667398531,12.954496213320198,0.0,0.0
33.0,97.0,0.1,5.260954555389074,13.123285757353758,0.0,0.0
33.0,97.0,0.3,5.260954555389074,13.123285757353758,0.0,0.0
33.0,97.0,0.7,5.260954555389074,13.123285757353758,0.0,0.0
33.0,97.0,1.0,5.260954555389074,13.123285757353758,0.0,0.0
33.0,105.0,0.1,5.191162267285111,12.856929359135641,0.0,0.0
33.0,105.0,0.3,5.191162267285111,12.856929359135641,0.0,0.0
33.0,105.0,0.7,5.191162267285111,12.856929359135641,0.0,0.0
33.0,105.0,1.0,5.191162267285111,12.856929359135641,0.0,0.0
33.0,113.0,0.1,5.167050849953232,13.688942289850669,0.0,0.0
33.0,113.0,0.3,5.167050849953232,13.688942289850669,0.0,0.0
33.0,113.0,0.7,5.167050849953232,13.688942289850669,0.0,0.0
33.0,113.0,1.0,5.167050849953232,13.688942289850669,0.0,0.0
33.0,121.0,0.1,5.05272471069547,13.716596475222685,0.0,0.0
33.0,121.0,0.3,5.05272471069547,13.716596475222685,0.0,0.0
33.0,121.0,0.7,5.05272471069547,13.716596475222685,0.0,0.0
33.0,121.0,1.0,5.05272471069547,13.716596475222685,0.0,0.0
33.0,127.0,0.1,5.075269241271297,13.292585356183945,0.0,0.0
33.0,127.0,0.3,5.075269241271297,13.292585356183945,0.0,0.0
33.0,127.0,0.7,5.075269241271297,13.292585356183945,0.0,0.0
33.0,127.0,1.0,5.075269241271297,13.292585356183945,0.0,0.0
34.0,1.0,0.1,0.7402670073014919,0.02571341059544741,0.0,0.0
34.0,1.0,0.3,0.7402670073014919,0.02571341059544741,0.0,0.0
34.0,1.0,0.7,0.7402670073014919,0.02571341059544741,0.0,0.0
34.0,1.0,1.0,0.7402670073014919,0.02571341059544741,0.0,0.0
34.0,9.0,0.1,0.4553402157255283,0.12251962204697327,0.0,0.0
34.0,9.0,0.3,0.4553402157255283,0.12251962204697327,0.0,0.0
34.0,9.0,0.7,0.4553402157255283,0.12251962204697327,0.0,0.0
34.0,9.0,1.0,0.4553402157255283,0.12251962204697327,0.0,0.0
34.0,17.0,0.1,0.704557994103413,0.3464765989871104,0.0,0.0
34.0,17.0,0.3,0.704557994103413,0.3464765989871104,0.0,0.0
34.0,17.0,0.7,0.704557994103413,0.3464765989871104,0.0,0.0
34.0,17.0,1.0,0.704557994103413,0.3464765989871104,0.0,0.0
34.0,25.0,0.1,0.6919233179634353,0.8098651376644441,0.0,0.0
34.0,25.0,0.3,0.6919233179634353,0.8098651376644441,0.0,0.0
34.0,25.0,0.7,0.6919233179634353,0.8098651376644441,0.0,0.0
34.0,25.0,1.0,0.6919233179634353,0.8098651376644441,0.0,0.0
34.0,33.0,0.1,0.8848718149331464,1.450103649537149,0.0,0.0
34.0,33.0,0.3,0.8848718149331464,1.450103649537149,0.0,0.0
34.0,33.0,0.7,0.8848718149331464,1.450103649537149,0.0,0.0
34.0,33.0,1.0,0.8848718149331464,1.450103649537149,0.0,0.0
34.0,41.0,0.1,1.2269733820967637,2.088405861794701,0.0,0.0
34.0,41.0,0.3,1.2269733820967637,2.088405861794701,0.0,0.0
34.0,41.0,0.7,1.2269733820967637,2.088405861794701,0.0,0.0
34.0,41.0,1.0,1.2269733820967637,2.088405861794701,0.0,0.0
34.0,49.0,0.1,1.603018229257349,2.9054213297650686,0.0,0.0
34.0,49.0,0.3,1.603018229257349,2.9054213297650686,0.0,0.0
34.0,49.0,0.7,1.603018229257349,2.9054213297650686,0.0,0.0
34.0,49.0,1.0,1.603018229257349,2.9054213297650686,0.0,0.0
34.0,57.0,0.1,1.8698140073909815,3.979303404903144,0.0,0.0
34.0,57.0,0.3,1.8698140073909815,3.979303404903144,0.0,0.0
34.0,57.0,0.7,1.8698140073909815,3.979303404903144,0.0,0.0
34.0,57.0,1.0,1.8698140073909815,3.979303404903144,0.0,0.0
34.0,65.0,0.1,2.5355933006236646,5.04792602312897,0.0,0.0
34.0,65.0,0.3,2.5355933006236646,5.04792602312897,0.0,0.0
34.0,65.0,0.7,2.5355933006236646,5.04792602312897,0.0,0.0
34.0,65.0,1.0,2.5355933006236646,5.04792602312897,0.0,0.0
34.0,73.0,0.1,3.2794677758262236,6.227709079431124,0.0,0.0
34.0,73.0,0.3,3.2794677758262236,6.227709079431124,0.0,0.0
34.0,73.0,0.7,3.2794677758262236,6.227709079431124,0.0,0.0
34.0,73.0,1.0,3.2794677758262236,6.227709079431124,0.0,0.0
34.0,81.0,0.1,4.06108913286281,8.30224380612532,0.0,0.0
34.0,81.0,0.3,4.06108913286281,8.30224380612532,0.0,0.0
34.0,81.0,0.7,4.06108913286281,8.30224380612532,0.0,0.0
34.0,81.0,1.0,4.06108913286281,8.30224380612532,0.0,0.0
34.0,89.0,0.1,4.536454705872218,12.642448638867732,0.0,0.0
34.0,89.0,0.3,4.536454705872218,12.642448638867732,0.0,0.0
34.0,89.0,0.7,4.536454705872218,12.642448638867732,0.0,0.0
34.0,89.0,1.0,4.536454705872218,12.642448638867732,0.0,0.0
34.0,97.0,0.1,4.76465620266327,13.59481527615329,0.0,0.0
34.0,97.0,0.3,4.76465620266327,13.59481527615329,0.0,0.0
34.0,97.0,0.7,4.76465620266327,13.59481527615329,0.0,0.0
34.0,97.0,1.0,4.76465620266327,13.59481527615329,0.0,0.0
34.0,105.0,0.1,4.689770294760587,13.705557768959126,0.0,0.0
34.0,105.0,0.3,4.689770294760587,13.705557768959126,0.0,0.0
34.0,105.0,0.7,4.689770294760587,13.705557768959126,0.0,0.0
34.0,105.0,1.0,4.689770294760587,13.705557768959126,0.0,0.0
34.0,113.0,0.1,4.666339755380522,13.403727200418398,0.0,0.0
34.0,113.0,0.3,4.666339755380522,13.403727200418398,0.0,0.0
34.0,113.0,0.7,4.666339755380522,13.403727200418398,0.0,0.0
34.0,113.0,1.0,4.666339755380522,13.403727200418398,0.0,0.0
34.0,121.0,0.1,4.681294788200223,13.5438062831632,0.0,0.0
34.0,121.0,0.3,4.681294788200223,13.5438062831632,0.0,0.0
34.0,121.0,0.7,4.681294788200223,13.5438062831632,0.0,0.0
34.0,121.0,1.0,4.681294788200223,13.5438062831632,0.0,0.0
34.0,127.0,0.1,4.689626081211539,13.281818991438982,0.0,0.0
34.0,127.0,0.3,4.689626081211539,13.281818991438982,0.0,0.0
34.0,127.0,0.7,4.689626081211539,13.281818991438982,0.0,0.0
34.0,127.0,1.0,4.689626081211539,13.281818991438982,0.0,0.0
35.0,1.0,0.1,0.6056016493741218,0.0025398361838608026,0.0,0.0
35.0,1.0,0.3,0.6056016493741218,0.0025398361838608026,0.0,0.0
35.0,1.0,0.7,0.6056016493741218,0.0025398361838608026,0.0,0.0
35.0,1.0,1.0,0.6056016493741218,0.0025398361838608026,0.0,0.0
35.0,9.0,0.1,0.6544378827097704,0.03125533924681585,0.0,0.0
35.0,9.0,0.3,0.6544378827097704,0.03125533924681585,0.0,0.0
35.0,9.0,0.7,0.6544378827097704,0.03125533924681585,0.0,0.0
35.0,9.0,1.0,0.6544378827097704,0.03125533924681585,0.0,0.0
35.0,17.0,0.1,0.6063457915996999,0.2209042353891741,0.0,0.0
35.0,17.0,0.3,0.6063457915996999,0.2209042353891741,0.0,0.0
35.0,17.0,0.7,0.6063457915996999,0.2209042353891741,0.0,0.0
35.0,17.0,1.0,0.6063457915996999,0.2209042353891741,0.0,0.0
35.0,25.0,0.1,0.5826357860816884,0.6786052240965591,0.0,0.0
35.0,25.0,0.3,0.5826357860816884,0.6786052240965591,0.0,0.0
35.0,25.0,0.7,0.5826357860816884,0.6786052240965591,0.0,0.0
35.0,25.0,1.0,0.5826357860816884,0.6786052240965591,0.0,0.0
35.0,33.0,0.1,1.0408498809792923,1.0764471547862526,0.0,0.0
35.0,33.0,0.3,1.0408498809792923,1.0764471547862526,0.0,0.0
35.0,33.0,0.7,1.0408498809792923,1.0764471547862526,0.0,0.0
35.0,33.0,1.0,1.0408498809792923,1.0764471547862526,0.0,0.0
35.0,41.0,0.1,1.3619288603737183,1.8185405067193385,0.0,0.0
35.0,41.0,0.3,1.3619288603737183,1.8185405067193385,0.0,0.0
35.0,41.0,0.7,1.3619288603737183,1.8185405067193385,0.0,0.0
35.0,41.0,1.0,1.3619288603737183,1.8185405067193385,0.0,0.0
35.0,49.0,0.1,1.6469288988372472,2.6878714421801266,0.0,0.0
35.0,49.0,0.3,1.6469288988372472,2.6878714421801266,0.0,0.0
35.0,49.0,0.7,1.6469288988372472,2.6878714421801266,0.0,0.0
35.0,49.0,1.0,1.6469288988372472,2.6878714421801266,0.0,0.0
35.0,57.0,0.1,2.0661644816481184,3.8461597032171997,0.0,0.0
35.0,57.0,0.3,2.0661644816481184,3.8461597032171997,0.0,0.0
35.0,57.0,0.7,2.0661644816481184,3.8461597032171997,0.0,0.0
35.0,57.0,1.0,2.0661644816481184,3.8461597032171997,0.0,0.0
35.0,65.0,0.1,2.714548713975067,5.009373976473644,0.0,0.0
35.0,65.0,0.3,2.714548713975067,5.009373976473644,0.0,0.0
35.0,65.0,0.7,2.714548713975067,5.009373976473644,0.0,0.0
35.0,65.0,1.0,2.714548713975067,5.009373976473644,0.0,0.0
35.0,73.0,0.1,3.6392424496480564,6.291153138899509,0.0,0.0
35.0,73.0,0.3,3.6392424496480564,6.291153138899509,0.0,0.0
35.0,73.0,0.7,3.6392424496480564,6.291153138899509,0.0,0.0
35.0,73.0,1.0,3.6392424496480564,6.291153138899509,0.0,0.0
35.0,81.0,0.1,4.512784158528974,8.078072297039965,0.0,0.0
35.0,81.0,0.3,4.512784158528974,8.078072297039965,0.0,0.0
35.0,81.0,0.7,4.512784158528974,8.078072297039965,0.0,0.0
35.0,81.0,1.0,4.512784158528974,8.078072297039965,0.0,0.0
35.0,89.0,0.1,5.255791277720002,13.203403284968228,0.0,0.0
35.0,89.0,0.3,5.255791277720002,13.203403284968228,0.0,0.0
35.0,89.0,0.7,5.255791277720002,13.203403284968228,0.0,0.0
35.0,89.0,1.0,5.255791277720002,13.203403284968228,0.0,0.0
35.0,97.0,0.1,5.655411745366554,14.798810577970825,0.0,0.0
35.0,97.0,0.3,5.655411745366554,14.798810577970825,0.0,0.0
35.0,97.0,0.7,5.655411745366554,14.798810577970825,0.0,0.0
35.0,97.0,1.0,5.655411745366554,14.798810577970825,0.0,0.0
35.0,105.0,0.1,5.633772578404333,14.11188182323258,0.0,0.0
35.0,105.0,0.3,5.633772578404333,14.11188182323258,0.0,0.0
35.0,105.0,0.7,5.633772578404333,14.11188182323258,0.0,0.0
35.0,105.0,1.0,5.633772578404333,14.11188182323258,0.0,0.0
35.0,113.0,0.1,5.61822741933618,14.457778716174417,0.0,0.0
35.0,113.0,0.3,5.61822741933618,14.457778716174417,0.0,0.0
35.0,113.0,0.7,5.61822741933618,14.457778716174417,0.0,0.0
35.0,113.0,1.0,5.61822741933618,14.457778716174417,0.0,0.0
35.0,121.0,0.1,5.631221857264499,14.71346620144837,0.0,0.0
35.0,121.0,0.3,5.631221857264499,14.71346620144837,0.0,0.0
35.0,121.0,0.7,5.631221857264499,14.71346620144837,0.0,0.0
35.0,121.0,1.0,5.631221857264499,14.71346620144837,0.0,0.0
35.0,127.0,0.1,5.626174331784943,14.010731806933236,0.0,0.0
35.0,127.0,0.3,5.626174331784943,14.010731806933236,0.0,0.0
35.0,127.0,0.7,5.626174331784943,14.010731806933236,0.0,0.0
35.0,127.0,1.0,5.626174331784943,14.010731806933236,0.0,0.0
36.0,1.0,0.1,1.0039021468191458,0.09899907650374211,0.0,0.0
36.0,1.0,0.3,1.0039021468191458,0.09899907650374211,0.0,0.0
36.0,1.0,0.7,1.0039021468191458,0.09899907650374211,0.0,0.0
36.0,1.0,1.0,1.0039021468191458,0.09899907650374211,0.0,0.0
36.0,9.0,0.1,0.6848451779665525,0.08447155557334111,0.0,0.0
36.0,9.0,0.3,0.6848451779665525,0.08447155557334111,0.0,0.0
36.0,9.0,0.7,0.6848451779665525,0.08447155557334111,0.0,0.0
36.0,9.0,1.0,0.6848451779665525,0.08447155557334111,0.0,0.0
36.0,17.0,0.1,0.5616326257593764,0.3373435556376581,0.0,0.0
36.0,17.0,0.3,0.5616326257593764,0.3373435556376581,0.0,0.0
36.0,17.0,0.7,0.5616326257593764,0.3373435556376581,0.0,0.0
36.0,17.0,1.0,0.5616326257593764,0.3373435556376581,0.0,0.0
36.0,25.0,0.1,0.3283924159159359,0.7494024901172504,0.0,0.0
36.0,25.0,0.3,0.3283924159159359,0.7494024901172504,0.0,0.0
36.0,25.0,0.7,0.3283924159159359,0.7494024901172504,0.0,0.0
36.0,25.0,1.0,0.3283924159159359,0.7494024901172504,0.0,0.0
36.0,33.0,0.1,1.352391254279192,1.2949325539168337,0.0,0.0
36.0,33.0,0.3,1.352391254279192,1.2949325539168337,0.0,0.0
36.0,33.0,0.7,1.352391254279192,1.2949325539168337,0.0,0.0
36.0,33.0,1.0,1.352391254279192,1.2949325539168337,0.0,0.0
36.0,41.0,0.1,1.3488865293581918,1.9656935223247178,0.0,0.0
36.0,41.0,0.3,1.3488865293581918,1.9656935223247178,0.0,0.0
36.0,41.0,0.7,1.3488865293581918,1.9656935223247178,0.0,0.0
36.0,41.0,1.0,1.3488865293581918,1.9656935223247178,0.0,0.0
36.0,49.0,0.1,2.0215359460605757,3.0484080372148132,0.0,0.0
36.0,49.0,0.3,2.0215359460605757,3.0484080372148132,0.0,0.0
36.0,49.0,0.7,2.0215359460605757,3.0484080372148132,0.0,0.0
36.0,49.0,1.0,2.0215359460605757,3.0484080372148132,0.0,0.0
36.0,57.0,0.1,2.495520500331536,4.279046602445771,0.0,0.0
36.0,57.0,0.3,2.495520500331536,4.279046602445771,0.0,0.0
36.0,57.0,0.7,2.495520500331536,4.279046602445771,0.0,0.0
36.0,57.0,1.0,2.495520500331536,4.279046602445771,0.0,0.0
36.0,65.0,0.1,3.2632735606057084,5.552248569798067,0.0,0.0
36.0,65.0,0.3,3.2632735606057084,5.552248569798067,0.0,0.0
36.0,65.0,0.7,3.2632735606057084,5.552248569798067,0.0,0.0
36.0,65.0,1.0,3.2632735606057084,5.552248569798067,0.0,0.0
36.0,73.0,0.1,4.035023008543132,6.487294892565051,0.0,0.0
36.0,73.0,0.3,4.035023008543132,6.487294892565051,0.0,0.0
36.0,73.0,0.7,4.035023008543132,6.487294892565051,0.0,0.0
36.0,73.0,1.0,4.035023008543132,6.487294892565051,0.0,0.0
36.0,81.0,0.1,4.837168754769822,8.5428707357327,0.0,0.0
36.0,81.0,0.3,4.837168754769822,8.5428707357327,0.0,0.0
36.0,81.0,0.7,4.837168754769822,8.5428707357327,0.0,0.0
36.0,81.0,1.0,4.837168754769822,8.5428707357327,0.0,0.0
36.0,89.0,0.1,5.4147602617445845,11.372042173242972,0.0,0.0
36.0,89.0,0.3,5.4147602617445845,11.372042173242972,0.0,0.0
36.0,89.0,0.7,5.4147602617445845,11.372042173242972,0.0,0.0
36.0,89.0,1.0,5.4147602617445845,11.372042173242972,0.0,0.0
36.0,97.0,0.1,5.62769892908861,13.953978327832978,0.0,0.0
36.0,97.0,0.3,5.62769892908861,13.953978327832978,0.0,0.0
36.0,97.0,0.7,5.62769892908861,13.953978327832978,0.0,0.0
36.0,97.0,1.0,5.62769892908861,13.953978327832978,0.0,0.0
36.0,105.0,0.1,5.574637329695426,13.7108099176015,0.0,0.0
36.0,105.0,0.3,5.574637329695426,13.7108099176015,0.0,0.0
36.0,105.0,0.7,5.574637329695426,13.7108099176015,0.0,0.0
36.0,105.0,1.0,5.574637329695426,13.7108099176015,0.0,0.0
36.0,113.0,0.1,5.575035153570422,13.861711470532319,0.0,0.0
36.0,113.0,0.3,5.575035153570422,13.861711470532319,0.0,0.0
36.0,113.0,0.7,5.575035153570422,13.861711470532319,0.0,0.0
36.0,113.0,1.0,5.575035153570422,13.861711470532319,0.0,0.0
36.0,121.0,0.1,5.615360346272836,13.67686701314181,0.0,0.0
36.0,121.0,0.3,5.615360346272836,13.67686701314181,0.0,0.0
36.0,121.0,0.7,5.615360346272836,13.67686701314181,0.0,0.0
36.0,121.0,1.0,5.615360346272836,13.67686701314181,0.0,0.0
36.0,127.0,0.1,5.5542265501081305,13.56053443706781,0.0,0.0
36.0,127.0,0.3,5.5542265501081305,13.56053443706781,0.0,0.0
36.0,127.0,0.7,5.5542265501081305,13.56053443706781,0.0,0.0
36.0,127.0,1.0,5.5542265501081305,13.56053443706781,0.0,0.0
37.0,1.0,0.1,1.01956488418061,0.10475129834303597,0.0,0.0
37.0,1.0,0.3,1.01956488418061,0.10475129834303597,0.0,0.0
37.0,1.0,0.7,1.01956488418061,0.10475129834303597,0.0,0.0
37.0,1.0,1.0,1.01956488418061,0.10475129834303597,0.0,0.0
37.0,9.0,0.1,1.0904905513665293,0.08420001297747028,0.0,0.0
37.0,9.0,0.3,1.0904905513665293,0.08420001297747028,0.0,0.0
37.0,9.0,0.7,1.0904905513665293,0.08420001297747028,0.0,0.0
37.0,9.0,1.0,1.0904905513665293,0.08420001297747028,0.0,0.0
37.0,17.0,0.1,1.0657243506553096,0.30900189903968905,0.0,0.0
37.0,17.0,0.3,1.0657243506553096,0.30900189903968905,0.0,0.0
37.0,17.0,0.7,1.0657243506553096,0.30900189903968905,0.0,0.0
37.0,17.0,1.0,1.0657243506553096,0.30900189903968905,0.0,0.0
37.0,25.0,0.1,1.048404398466535,0.7983379666034117,0.0,0.0
37.0,25.0,0.3,1.048404398466535,0.7983379666034117,0.0,0.0
37.0,25.0,0.7,1.048404398466535,0.7983379666034117,0.0,0.0
37.0,25.0,1.0,1.048404398466535,0.7983379666034117,0.0,0.0
37.0,33.0,0.1,1.248896152110837,1.3309399202544108,0.0,0.0
37.0,33.0,0.3,1.248896152110837,1.3309399202544108,0.0,0.0
37.0,33.0,0.7,1.248896152110837,1.3309399202544108,0.0,0.0
37.0,33.0,1.0,1.248896152110837,1.3309399202544108,0.0,0.0
37.0,41.0,0.1,1.7973784403885076,1.9658404421498872,0.0,0.0
37.0,41.0,0.3,1.7973784403885076,1.9658404421498872,0.0,0.0
37.0,41.0,0.7,1.7973784403885076,1.9658404421498872,0.0,0.0
37.0,41.0,1.0,1.7973784403885076,1.9658404421498872,0.0,0.0
37.0,49.0,0.1,2.156559385242966,2.822471170846558,0.0,0.0
37.0,49.0,0.3,2.156559385242966,2.822471170846558,0.0,0.0
37.0,49.0,0.7,2.156559385242966,2.822471170846558,0.0,0.0
37.0,49.0,1.0,2.156559385242966,2.822471170846558,0.0,0.0
37.0,57.0,0.1,2.4237711278492835,3.7195916496241037,0.0,0.0
37.0,57.0,0.3,2.4237711278492835,3.7195916496241037,0.0,0.0
37.0,57.0,0.7,2.4237711278492835,3.7195916496241037,0.0,0.0
37.0,57.0,1.0,2.4237711278492835,3.7195916496241037,0.0,0.0
37.0,65.0,0.1,3.161909659978628,4.890440325533563,0.0,0.0
37.0,65.0,0.3,3.161909659978628,4.890440325533563,0.0,0.0
37.0,65.0,0.7,3.161909659978628,4.890440325533563,0.0,0.0
37.0,65.0,1.0,3.161909659978628,4.890440325533563,0.0,0.0
37.0,73.0,0.1,4.096334088923815,6.124775728151325,0.0,0.0
37.0,73.0,0.3,4.096334088923815,6.124775728151325,0.0,0.0
37.0,73.0,0.7,4.096334088923815,6.124775728151325,0.0,0.0
37.0,73.0,1.0,4.096334088923815,6.124775728151325,0.0,0.0
37.0,81.0,0.1,5.072575880152754,8.077952272974233,0.0,0.0
37.0,81.0,0.3,5.072575880152754,8.077952272974233,0.0,0.0
37.0,81.0,0.7,5.072575880152754,8.077952272974233,0.0,0.0
37.0,81.0,1.0,5.072575880152754,8.077952272974233,0.0,0.0
37.0,89.0,0.1,5.9569141491776545,10.078968747009148,0.0,0.0
37.0,89.0,0.3,5.9569141491776545,10.078968747009148,0.0,0.0
37.0,89.0,0.7,5.9569141491776545,10.078968747009148,0.0,0.0
37.0,89.0,1.0,5.9569141491776545,10.078968747009148,0.0,0.0
37.0,97.0,0.1,6.404576515487017,12.856828355566087,0.0,0.0
37.0,97.0,0.3,6.404576515487017,12.856828355566087,0.0,0.0
37.0,97.0,0.7,6.404576515487017,12.856828355566087,0.0,0.0
37.0,97.0,1.0,6.404576515487017,12.856828355566087,0.0,0.0
37.0,105.0,0.1,6.404725726380485,12.984784514753477,0.0,0.0
37.0,105.0,0.3,6.404725726380485,12.984784514753477,0.0,0.0
37.0,105.0,0.7,6.404725726380485,12.984784514753477,0.0,0.0
37.0,105.0,1.0,6.404725726380485,12.984784514753477,0.0,0.0
37.0,113.0,0.1,6.374880324092868,12.823141244890767,0.0,0.0
37.0,113.0,0.3,6.374880324092868,12.823141244890767,0.0,0.0
37.0,113.0,0.7,6.374880324092868,12.823141244890767,0.0,0.0
37.0,113.0,1.0,6.374880324092868,12.823141244890767,0.0,0.0
37.0,121.0,0.1,6.352839098869859,12.792644424500368,0.0,0.0
37.0,121.0,0.3,6.352839098869859,12.792644424500368,0.0,0.0
37.0,121.0,0.7,6.352839098869859,12.792644424500368,0.0,0.0
37.0,121.0,1.0,6.352839098869859,12.792644424500368,0.0,0.0
37.0,127.0,0.1,6.296071462855474,12.766520457891586,0.0,0.0
37.0,127.0,0.3,6.296071462855474,12.766520457891586,0.0,0.0
37.0,127.0,0.7,6.296071462855474,12.766520457891586,0.0,0.0
37.0,127.0,1.0,6.296071462855474,12.766520457891586,0.0,0.0
38.0,1.0,0.1,0.0015848484013842256,0.004674286559401602,0.0,0.0
38.0,1.0,0.3,0.0015848484013842256,0.004674286559401602,0.0,0.0
38.0,1.0,0.7,0.0015848484013842256,0.004674286559401602,0.0,0.0
38.0,1.0,1.0,0.0015848484013842256,0.004674286559401602,0.0,0.0
38.0,9.0,0.1,0.0015877590954682897,0.02087728951716208,0.0,0.0
38.0,9.0,0.3,0.0015877590954682897,0.02087728951716208,0.0,0.0
38.0,9.0,0.7,0.0015877590954682897,0.02087728951716208,0.0,0.0
38.0,9.0,1.0,0.0015877590954682897,0.02087728951716208,0.0,0.0
38.0,17.0,0.1,0.0018245992052841247,0.20785238717103657,0.0,0.0
38.0,17.0,0.3,0.0018245992052841247,0.20785238717103657,0.0,0.0
38.0,17.0,0.7,0.0018245992052841247,0.20785238717103657,0.0,0.0
38.0,17.0,1.0,0.0018245992052841247,0.20785238717103657,0.0,0.0
38.0,25.0,0.1,0.6290578376705702,0.5869788230035949,0.0,0.0
38.0,25.0,0.3,0.6290578376705702,0.5869788230035949,0.0,0.0
38.0,25.0,0.7,0.6290578376705702,0.5869788230035949,0.0,0.0
38.0,25.0,1.0,0.6290578376705702,0.5869788230035949,0.0,0.0
38.0,33.0,0.1,1.1716005027035292,1.11013544860045,0.0,0.0
38.0,33.0,0.3,1.1716005027035292,1.11013544860045,0.0,0.0
38.0,33.0,0.7,1.1716005027035292,1.11013544860045,0.0,0.0
38.0,33.0,1.0,1.1716005027035292,1.11013544860045,0.0,0.0
38.0,41.0,0.1,1.5418655096361962,1.846737359403175,0.0,0.0
38.0,41.0,0.3,1.5418655096361962,1.846737359403175,0.0,0.0
38.0,41.0,0.7,1.5418655096361962,1.846737359403175,0.0,0.0
38.0,41.0,1.0,1.5418655096361962,1.846737359403175,0.0,0.0
38.0,49.0,0.1,1.9551446892612037,2.7094073385248625,0.0,0.0
38.0,49.0,0.3,1.9551446892612037,2.7094073385248625,0.0,0.0
38.0,49.0,0.7,1.9551446892612037,2.7094073385248625,0.0,0.0
38.0,49.0,1.0,1.9551446892612037,2.7094073385248625,0.0,0.0
38.0,57.0,0.1,2.334056447606458,3.7085200671513547,0.0,0.0
38.0,57.0,0.3,2.334056447606458,3.7085200671513547,0.0,0.0
38.0,57.0,0.7,2.334056447606458,3.7085200671513547,0.0,0.0
38.0,57.0,1.0,2.334056447606458,3.7085200671513547,0.0,0.0
38.0,65.0,0.1,2.960274490211679,4.7209452021403004,0.0,0.0
38.0,65.0,0.3,2.960274490211679,4.7209452021403004,0.0,0.0
38.0,65.0,0.7,2.960274490211679,4.7209452021403004,0.0,0.0
38.0,65.0,1.0,2.960274490211679,4.7209452021403004,0.0,0.0
38.0,73.0,0.1,3.7407890911321413,6.042116742366247,0.0,0.0
38.0,73.0,0.3,3.7407890911321413,6.042116742366247,0.0,0.0
38.0,73.0,0.7,3.7407890911321413,6.042116742366247,0.0,0.0
38.0,73.0,1.0,3.7407890911321413,6.042116742366247,0.0,0.0
38.0,81.0,0.1,4.457894357576217,7.3564016803809,0.0,0.0
38.0,81.0,0.3,4.457894357576217,7.3564016803809,0.0,0.0
38.0,81.0,0.7,4.457894357576217,7.3564016803809,0.0,0.0
38.0,81.0,1.0,4.457894357576217,7.3564016803809,0.0,0.0
38.0,89.0,0.1,5.074756365501308,8.83338904041967,0.0,0.0
38.0,89.0,0.3,5.074756365501308,8.83338904041967,0.0,0.0
38.0,89.0,0.7,5.074756365501308,8.83338904041967,0.0,0.0
38.0,89.0,1.0,5.074756365501308,8.83338904041967,0.0,0.0
38.0,97.0,0.1,5.523811414250046,13.036842724564833,0.0,0.0
38.0,97.0,0.3,5.523811414250046,13.036842724564833,0.0,0.0
38.0,97.0,0.7,5.523811414250046,13.036842724564833,0.0,0.0
38.0,97.0,1.0,5.523811414250046,13.036842724564833,0.0,0.0
38.0,105.0,0.1,5.5125155531427765,12.880968373317433,0.0,0.0
38.0,105.0,0.3,5.5125155531427765,12.880968373317433,0.0,0.0
38.0,105.0,0.7,5.5125155531427765,12.880968373317433,0.0,0.0
38.0,105.0,1.0,5.5125155531427765,12.880968373317433,0.0,0.0
38.0,113.0,0.1,5.493734537865648,12.729070316758657,0.0,0.0
38.0,113.0,0.3,5.493734537865648,12.729070316758657,0.0,0.0
38.0,113.0,0.7,5.493734537865648,12.729070316758657,0.0,0.0
38.0,113.0,1.0,5.493734537865648,12.729070316758657,0.0,0.0
38.0,121.0,0.1,5.4706409200255575,12.718376399455076,0.0,0.0
38.0,121.0,0.3,5.4706409200255575,12.718376399455076,0.0,0.0
38.0,121.0,0.7,5.4706409200255575,12.718376399455076,0.0,0.0
38.0,121.0,1.0,5.4706409200255575,12.718376399455076,0.0,0.0
38.0,127.0,0.1,5.479050057536452,12.671222505012587,0.0,0.0
38.0,127.0,0.3,5.479050057536452,12.671222505012587,0.0,0.0
38.0,127.0,0.7,5.479050057536452,12.671222505012587,0.0,0.0
38.0,127.0,1.0,5.479050057536452,12.671222505012587,0.0,0.0
39.0,1.0,0.1,0.0010207083142779263,0.01686260191965761,0.0,0.0
39.0,1.0,0.3,0.0010207083142779263,0.01686260191965761,0.0,0.0
39.0,1.0,0.7,0.0010207083142779263,0.01686260191965761,0.0,0.0
39.0,1.0,1.0,0.0010207083142779263,0.01686260191965761,0.0,0.0
39.0,9.0,0.1,0.0008534067457669568,0.006508927235824796,0.0,0.0
39.0,9.0,0.3,0.0008534067457669568,0.006508927235824796,0.0,0.0
39.0,9.0,0.7,0.0008534067457669568,0.006508927235824796,0.0,0.0
39.0,9.0,1.0,0.0008534067457669568,0.006508927235824796,0.0,0.0
39.0,17.0,0.1,0.0008013380743019733,0.13218278160171565,0.0,0.0
39.0,17.0,0.3,0.0008013380743019733,0.13218278160171565,0.0,0.0
39.0,17.0,0.7,0.0008013380743019733,0.13218278160171565,0.0,0.0
39.0,17.0,1.0,0.0008013380743019733,0.13218278160171565,0.0,0.0
39.0,25.0,0.1,0.0018001384228545703,0.3316652189121396,0.0,0.0
39.0,25.0,0.3,0.0018001384228545703,0.3316652189121396,0.0,0.0
39.0,25.0,0.7,0.0018001384228545703,0.3316652189121396,0.0,0.0
39.0,25.0,1.0,0.0018001384228545703,0.3316652189121396,0.0,0.0
39.0,33.0,0.1,0.002068637043521374,0.7009375059991804,0.0,0.0
39.0,33.0,0.3,0.002068637043521374,0.7009375059991804,0.0,0.0
39.0,33.0,0.7,0.002068637043521374,0.7009375059991804,0.0,0.0
39.0,33.0,1.0,0.002068637043521374,0.7009375059991804,0.0,0.0
39.0,41.0,0.1,1.3122469869318982,1.3131410570969628,0.0,0.0
39.0,41.0,0.3,1.3122469869318982,1.3131410570969628,0.0,0.0
39.0,41.0,0.7,1.3122469869318982,1.3131410570969628,0.0,0.0
39.0,41.0,1.0,1.3122469869318982,1.3131410570969628,0.0,0.0
39.0,49.0,0.1,1.5849750497450255,1.949400087245087,0.0,0.0
39.0,49.0,0.3,1.5849750497450255,1.949400087245087,0.0,0.0
39.0,49.0,0.7,1.5849750497450255,1.949400087245087,0.0,0.0
39.0,49.0,1.0,1.5849750497450255,1.949400087245087,0.0,0.0
39.0,57.0,0.1,1.66017562668228,3.0090395683429167,0.0,0.0
39.0,57.0,0.3,1.66017562668228,3.0090395683429167,0.0,0.0
39.0,57.0,0.7,1.66017562668228,3.0090395683429167,0.0,0.0
39.0,57.0,1.0,1.66017562668228,3.0090395683429167,0.0,0.0
39.0,65.0,0.1,2.0450633624235315,3.974516832901945,0.0,0.0
39.0,65.0,0.3,2.0450633624235315,3.974516832901945,0.0,0.0
39.0,65.0,0.7,2.0450633624235315,3.974516832901945,0.0,0.0
39.0,65.0,1.0,2.0450633624235315,3.974516832901945,0.0,0.0
39.0,73.0,0.1,3.535994239320596,4.898743244596977,0.0,0.0
39.0,73.0,0.3,3.535994239320596,4.898743244596977,0.0,0.0
39.0,73.0,0.7,3.535994239320596,4.898743244596977,0.0,0.0
39.0,73.0,1.0,3.535994239320596,4.898743244596977,0.0,0.0
39.0,81.0,0.1,4.407711927496323,6.459036093132172,0.0,0.0
39.0,81.0,0.3,4.407711927496323,6.459036093132172,0.0,0.0
39.0,81.0,0.7,4.407711927496323,6.459036093132172,0.0,0.0
39.0,81.0,1.0,4.407711927496323,6.459036093132172,0.0,0.0
39.0,89.0,0.1,5.288020948343799,7.949777744765637,0.0,0.0
39.0,89.0,0.3,5.288020948343799,7.949777744765637,0.0,0.0
39.0,89.0,0.7,5.288020948343799,7.949777744765637,0.0,0.0
39.0,89.0,1.0,5.288020948343799,7.949777744765637,0.0,0.0
39.0,97.0,0.1,5.995532186208986,10.297538878148515,0.0,0.0
39.0,97.0,0.3,5.995532186208986,10.297538878148515,0.0,0.0
39.0,97.0,0.7,5.995532186208986,10.297538878148515,0.0,0.0
39.0,97.0,1.0,5.995532186208986,10.297538878148515,0.0,0.0
39.0,105.0,0.1,5.9934216356471985,11.592826503014225,0.0,0.0
39.0,105.0,0.3,5.9934216356471985,11.592826503014225,0.0,0.0
39.0,105.0,0.7,5.9934216356471985,11.592826503014225,0.0,0.0
39.0,105.0,1.0,5.9934216356471985,11.592826503014225,0.0,0.0
39.0,113.0,0.1,5.944216044219705,11.519606043305744,0.0,0.0
39.0,113.0,0.3,5.944216044219705,11.519606043305744,0.0,0.0
39.0,113.0,0.7,5.944216044219705,11.519606043305744,0.0,0.0
39.0,113.0,1.0,5.944216044219705,11.519606043305744,0.0,0.0
39.0,121.0,0.1,5.838116474480133,11.489290443114767,0.0,0.0
39.0,121.0,0.3,5.838116474480133,11.489290443114767,0.0,0.0
39.0,121.0,0.7,5.838116474480133,11.489290443114767,0.0,0.0
39.0,121.0,1.0,5.838116474480133,11.489290443114767,0.0,0.0
39.0,127.0,0.1,5.824795473195176,11.443646429992052,0.0,0.0
39.0,127.0,0.3,5.824795473195176,11.443646429992052,0.0,0.0
39.0,127.0,0.7,5.824795473195176,11.443646429992052,0.0,0.0
39.0,127.0,1.0,5.824795473195176,11.443646429992052,0.0,0.0
40.0,1.0,0.1,0.001696913195695687,0.03436581919641879,0.0,0.0
40.0,1.0,0.3,0.001696913195695687,0.03436581919641879,0.0,0.0
40.0,1.0,0.7,0.001696913195695687,0.03436581919641879,0.0,0.0
40.0,1.0,1.0,0.001696913195695687,0.03436581919641879,0.0,0.0
40.0,9.0,0.1,0.2992190869067697,0.12290259160479673,0.0,0.0
40.0,9.0,0.3,0.2992190869067697,0.12290259160479673,0.0,0.0
40.0,9.0,0.7,0.2992190869067697,0.12290259160479673,0.0,0.0
40.0,9.0,1.0,0.2992190869067697,0.12290259160479673,0.0,0.0
40.0,17.0,0.1,0.0010550692253508498,0.41071488425084063,0.0,0.0
40.0,17.0,0.3,0.0010550692253508498,0.41071488425084063,0.0,0.0
40.0,17.0,0.7,0.0010550692253508498,0.41071488425084063,0.0,0.0
40.0,17.0,1.0,0.0010550692253508498,0.41071488425084063,0.0,0.0
40.0,25.0,0.1,0.0009483578959937384,0.7286231405996374,0.0,0.0
40.0,25.0,0.3,0.0009483578959937384,0.7286231405996374,0.0,0.0
40.0,25.0,0.7,0.0009483578959937384,0.7286231405996374,0.0,0.0
40.0,25.0,1.0,0.0009483578959937384,0.7286231405996374,0.0,0.0
40.0,33.0,0.1,0.9756890898375314,1.2531451717889617,0.0,0.0
40.0,33.0,0.3,0.9756890898375314,1.2531451717889617,0.0,0.0
40.0,33.0,0.7,0.9756890898375314,1.2531451717889617,0.0,0.0
40.0,33.0,1.0,0.9756890898375314,1.2531451717889617,0.0,0.0
40.0,41.0,0.1,1.3562630304077152,1.879735443251624,0.0,0.0
40.0,41.0,0.3,1.3562630304077152,1.879735443251624,0.0,0.0
40.0,41.0,0.7,1.3562630304077152,1.879735443251624,0.0,0.0
40.0,41.0,1.0,1.3562630304077152,1.879735443251624,0.0,0.0
40.0,49.0,0.1,1.8121329946034643,2.6906044315333104,0.0,0.0
40.0,49.0,0.3,1.8121329946034643,2.6906044315333104,0.0,0.0
40.0,49.0,0.7,1.8121329946034643,2.6906044315333104,0.0,0.0
40.0,49.0,1.0,1.8121329946034643,2.6906044315333104,0.0,0.0
40.0,57.0,0.1,2.31827239292202,3.585724087168546,0.0,0.0
40.0,57.0,0.3,2.31827239292202,3.585724087168546,0.0,0.0
40.0,57.0,0.7,2.31827239292202,3.585724087168546,0.0,0.0
40.0,57.0,1.0,2.31827239292202,3.585724087168546,0.0,0.0
40.0,65.0,0.1,2.9703777156951925,4.496346656131929,0.0,0.0
40.0,65.0,0.3,2.9703777156951925,4.496346656131929,0.0,0.0
40.0,65.0,0.7,2.9703777156951925,4.496346656131929,0.0,0.0
40.0,65.0,1.0,2.9703777156951925,4.496346656131929,0.0,0.0
40.0,73.0,0.1,3.8808943629735775,5.753368188158731,0.0,0.0
40.0,73.0,0.3,3.8808943629735775,5.753368188158731,0.0,0.0
40.0,73.0,0.7,3.8808943629735775,5.753368188158731,0.0,0.0
40.0,73.0,1.0,3.8808943629735775,5.753368188158731,0.0,0.0
40.0,81.0,0.1,4.6507432846842445,7.510794779110937,0.0,0.0
40.0,81.0,0.3,4.6507432846842445,7.510794779110937,0.0,0.0
40.0,81.0,0.7,4.6507432846842445,7.510794779110937,0.0,0.0
40.0,81.0,1.0,4.6507432846842445,7.510794779110937,0.0,0.0
40.0,89.0,0.1,5.3466683841142055,12.647597907639266,0.0,0.0
40.0,89.0,0.3,5.3466683841142055,12.647597907639266,0.0,0.0
40.0,89.0,0.7,5.3466683841142055,12.647597907639266,0.0,0.0
40.0,89.0,1.0,5.3466683841142055,12.647597907639266,0.0,0.0
40.0,97.0,0.1,5.905606721008666,12.522230489928699,0.0,0.0
40.0,97.0,0.3,5.905606721008666,12.522230489928699,0.0,0.0
40.0,97.0,0.7,5.905606721008666,12.522230489928699,0.0,0.0
40.0,97.0,1.0,5.905606721008666,12.522230489928699,0.0,0.0
40.0,105.0,0.1,5.829592615086509,12.51446984433106,0.0,0.0
40.0,105.0,0.3,5.829592615086509,12.51446984433106,0.0,0.0
40.0,105.0,0.7,5.829592615086509,12.51446984433106,0.0,0.0
40.0,105.0,1.0,5.829592615086509,12.51446984433106,0.0,0.0
40.0,113.0,0.1,5.807679934459239,12.347111528216205,0.0,0.0
40.0,113.0,0.3,5.807679934459239,12.347111528216205,0.0,0.0
40.0,113.0,0.7,5.807679934459239,12.347111528216205,0.0,0.0
40.0,113.0,1.0,5.807679934459239,12.347111528216205,0.0,0.0
40.0,121.0,0.1,5.828355939295645,12.37183228799668,0.0,0.0
40.0,121.0,0.3,5.828355939295645,12.37183228799668,0.0,0.0
40.0,121.0,0.7,5.828355939295645,12.37183228799668,0.0,0.0
40.0,121.0,1.0,5.828355939295645,12.37183228799668,0.0,0.0
40.0,127.0,0.1,5.805578851993646,12.321407561113705,0.0,0.0
40.0,127.0,0.3,5.805578851993646,12.321407561113705,0.0,0.0
40.0,127.0,0.7,5.805578851993646,12.321407561113705,0.0,0.0
40.0,127.0,1.0,5.805578851993646,12.321407561113705,0.0,0.0
41.0,1.0,0.1,0.7400634718718965,0.0027700815682522575,0.0,0.0
41.0,1.0,0.3,0.7400634718718965,0.0027700815682522575,0.0,0.0
41.0,1.0,0.7,0.7400634718718965,0.0027700815682522575,0.0,0.0
41.0,1.0,1.0,0.7400634718718965,0.0027700815682522575,0.0,0.0
41.0,9.0,0.1,0.6820057685168324,0.004715584195706034,0.0,0.0
41.0,9.0,0.3,0.6820057685168324,0.004715584195706034,0.0,0.0
41.0,9.0,0.7,0.6820057685168324,0.004715584195706034,0.0,0.0
41.0,9.0,1.0,0.6820057685168324,0.004715584195706034,0.0,0.0
41.0,17.0,0.1,0.6550065663771036,0.4380975152200461,0.0,0.0
41.0,17.0,0.3,0.6550065663771036,0.4380975152200461,0.0,0.0
41.0,17.0,0.7,0.6550065663771036,0.4380975152200461,0.0,0.0
41.0,17.0,1.0,0.6550065663771036,0.4380975152200461,0.0,0.0
41.0,25.0,0.1,0.6263683467228961,0.7704624116441064,0.0,0.0
41.0,25.0,0.3,0.6263683467228961,0.7704624116441064,0.0,0.0
41.0,25.0,0.7,0.6263683467228961,0.7704624116441064,0.0,0.0
41.0,25.0,1.0,0.6263683467228961,0.7704624116441064,0.0,0.0
41.0,33.0,0.1,0.9893001982434058,1.1643830878872183,0.0,0.0
41.0,33.0,0.3,0.9893001982434058,1.1643830878872183,0.0,0.0
41.0,33.0,0.7,0.9893001982434058,1.1643830878872183,0.0,0.0
41.0,33.0,1.0,0.9893001982434058,1.1643830878872183,0.0,0.0
41.0,41.0,0.1,1.2576476092587061,1.7056832213965447,0.0,0.0
41.0,41.0,0.3,1.2576476092587061,1.7056832213965447,0.0,0.0
41.0,41.0,0.7,1.2576476092587061,1.7056832213965447,0.0,0.0
41.0,41.0,1.0,1.2576476092587061,1.7056832213965447,0.0,0.0
41.0,49.0,0.1,1.5890591288510563,2.2221143477518766,0.0,0.0
41.0,49.0,0.3,1.5890591288510563,2.2221143477518766,0.0,0.0
41.0,49.0,0.7,1.5890591288510563,2.2221143477518766,0.0,0.0
41.0,49.0,1.0,1.5890591288510563,2.2221143477518766,0.0,0.0
41.0,57.0,0.1,1.912777232445999,2.862715231215258,0.0,0.0
41.0,57.0,0.3,1.912777232445999,2.862715231215258,0.0,0.0
41.0,57.0,0.7,1.912777232445999,2.862715231215258,0.0,0.0
41.0,57.0,1.0,1.912777232445999,2.862715231215258,0.0,0.0
41.0,65.0,0.1,2.460607141831779,3.4709535904348923,0.0,0.0
41.0,65.0,0.3,2.460607141831779,3.4709535904348923,0.0,0.0
41.0,65.0,0.7,2.460607141831779,3.4709535904348923,0.0,0.0
41.0,65.0,1.0,2.460607141831779,3.4709535904348923,0.0,0.0
41.0,73.0,0.1,3.1875750060545083,4.501264699395161,0.0,0.0
41.0,73.0,0.3,3.1875750060545083,4.501264699395161,0.0,0.0
41.0,73.0,0.7,3.1875750060545083,4.501264699395161,0.0,0.0
41.0,73.0,1.0,3.1875750060545083,4.501264699395161,0.0,0.0
41.0,81.0,0.1,3.9317678644737746,5.922851499632478,0.0,0.0
41.0,81.0,0.3,3.9317678644737746,5.922851499632478,0.0,0.0
41.0,81.0,0.7,3.9317678644737746,5.922851499632478,0.0,0.0
41.0,81.0,1.0,3.9317678644737746,5.922851499632478,0.0,0.0
41.0,89.0,0.1,4.598125835045929,7.651141167393903,0.0,0.0
41.0,89.0,0.3,4.598125835045929,7.651141167393903,0.0,0.0
41.0,89.0,0.7,4.598125835045929,7.651141167393903,0.0,0.0
41.0,89.0,1.0,4.598125835045929,7.651141167393903,0.0,0.0
41.0,97.0,0.1,5.1671125491483965,11.583847422333193,0.0,0.0
41.0,97.0,0.3,5.1671125491483965,11.583847422333193,0.0,0.0
41.0,97.0,0.7,5.1671125491483965,11.583847422333193,0.0,0.0
41.0,97.0,1.0,5.1671125491483965,11.583847422333193,0.0,0.0
41.0,105.0,0.1,5.150473219034999,11.876097748699825,0.0,0.0
41.0,105.0,0.3,5.150473219034999,11.876097748699825,0.0,0.0
41.0,105.0,0.7,5.150473219034999,11.876097748699825,0.0,0.0
41.0,105.0,1.0,5.150473219034999,11.876097748699825,0.0,0.0
41.0,113.0,0.1,5.1351277607026375,11.799315691562121,0.0,0.0
41.0,113.0,0.3,5.1351277607026375,11.799315691562121,0.0,0.0
41.0,113.0,0.7,5.1351277607026375,11.799315691562121,0.0,0.0
41.0,113.0,1.0,5.1351277607026375,11.799315691562121,0.0,0.0
41.0,121.0,0.1,5.1132178744257075,11.779652681048017,0.0,0.0
41.0,121.0,0.3,5.1132178744257075,11.779652681048017,0.0,0.0
41.0,121.0,0.7,5.1132178744257075,11.779652681048017,0.0,0.0
41.0,121.0,1.0,5.1132178744257075,11.779652681048017,0.0,0.0
41.0,127.0,0.1,4.9517166838279225,11.7605633620591,0.0,0.0
41.0,127.0,0.3,4.9517166838279225,11.7605633620591,0.0,0.0
41.0,127.0,0.7,4.9517166838279225,11.7605633620591,0.0,0.0
41.0,127.0,1.0,4.9517166838279225,11.7605633620591,0.0,0.0
42.0,1.0,0.1,1.932411134302768,0.06002906198652517,0.0,0.0
42.0,1.0,0.3,1.932411134302768,0.06002906198652517,0.0,0.0
42.0,1.0,0.7,1.932411134302768,0.06002906198652517,0.0,0.0
42.0,1.0,1.0,1.932411134302768,0.06002906198652517,0.0,0.0
42.0,9.0,0.1,1.8153176020554078,0.12018973682629357,0.0,0.0
42.0,9.0,0.3,1.8153176020554078,0.12018973682629357,0.0,0.0
42.0,9.0,0.7,1.8153176020554078,0.12018973682629357,0.0,0.0
42.0,9.0,1.0,1.8153176020554078,0.12018973682629357,0.0,0.0
42.0,17.0,0.1,1.9878610954155842,0.4062923979534697,0.0,0.0
42.0,17.0,0.3,1.9878610954155842,0.4062923979534697,0.0,0.0
42.0,17.0,0.7,1.9878610954155842,0.4062923979534697,0.0,0.0
42.0,17.0,1.0,1.9878610954155842,0.4062923979534697,0.0,0.0
42.0,25.0,0.1,2.202625072373278,0.820939336279443,0.0,0.0
42.0,25.0,0.3,2.202625072373278,0.820939336279443,0.0,0.0
42.0,25.0,0.7,2.202625072373278,0.820939336279443,0.0,0.0
42.0,25.0,1.0,2.202625072373278,0.820939336279443,0.0,0.0
42.0,33.0,0.1,2.3148898318690496,1.2929278497046026,0.0,0.0
42.0,33.0,0.3,2.3148898318690496,1.2929278497046026,0.0,0.0
42.0,33.0,0.7,2.3148898318690496,1.2929278497046026,0.0,0.0
42.0,33.0,1.0,2.3148898318690496,1.2929278497046026,0.0,0.0
42.0,41.0,0.1,2.5734969103695695,1.9996087016755482,0.0,0.0
42.0,41.0,0.3,2.5734969103695695,1.9996087016755482,0.0,0.0
42.0,41.0,0.7,2.5734969103695695,1.9996087016755482,0.0,0.0
42.0,41.0,1.0,2.5734969103695695,1.9996087016755482,0.0,0.0
42.0,49.0,0.1,2.625998706384161,2.644879092750934,0.0,0.0
42.0,49.0,0.3,2.625998706384161,2.644879092750934,0.0,0.0
42.0,49.0,0.7,2.625998706384161,2.644879092750934,0.0,0.0
42.0,49.0,1.0,2.625998706384161,2.644879092750934,0.0,0.0
42.0,57.0,0.1,2.808929922731007,3.5512619980978624,0.0,0.0
42.0,57.0,0.3,2.808929922731007,3.5512619980978624,0.0,0.0
42.0,57.0,0.7,2.808929922731007,3.5512619980978624,0.0,0.0
42.0,57.0,1.0,2.808929922731007,3.5512619980978624,0.0,0.0
42.0,65.0,0.1,3.3078149380113975,4.5315334430246965,0.0,0.0
42.0,65.0,0.3,3.3078149380113975,4.5315334430246965,0.0,0.0
42.0,65.0,0.7,3.3078149380113975,4.5315334430246965,0.0,0.0
42.0,65.0,1.0,3.3078149380113975,4.5315334430246965,0.0,0.0
42.0,73.0,0.1,3.7942028653174846,5.792401418904253,0.0,0.0
42.0,73.0,0.3,3.7942028653174846,5.792401418904253,0.0,0.0
42.0,73.0,0.7,3.7942028653174846,5.792401418904253,0.0,0.0
42.0,73.0,1.0,3.7942028653174846,5.792401418904253,0.0,0.0
42.0,81.0,0.1,4.591893182094797,7.641447294819415,0.0,0.0
42.0,81.0,0.3,4.591893182094797,7.641447294819415,0.0,0.0
42.0,81.0,0.7,4.591893182094797,7.641447294819415,0.0,0.0
42.0,81.0,1.0,4.591893182094797,7.641447294819415,0.0,0.0
42.0,89.0,0.1,5.061924854897927,9.359195913465028,0.0,0.0
42.0,89.0,0.3,5.061924854897927,9.359195913465028,0.0,0.0
42.0,89.0,0.7,5.061924854897927,9.359195913465028,0.0,0.0
42.0,89.0,1.0,5.061924854897927,9.359195913465028,0.0,0.0
42.0,97.0,0.1,5.399689009735056,11.455980086786738,0.0,0.0
42.0,97.0,0.3,5.399689009735056,11.455980086786738,0.0,0.0
42.0,97.0,0.7,5.399689009735056,11.455980086786738,0.0,0.0
42.0,97.0,1.0,5.399689009735056,11.455980086786738,0.0,0.0
42.0,105.0,0.1,5.376758362456342,13.28169641604787,0.0,0.0
42.0,105.0,0.3,5.376758362456342,13.28169641604787,0.0,0.0
42.0,105.0,0.7,5.376758362456342,13.28169641604787,0.0,0.0
42.0,105.0,1.0,5.376758362456342,13.28169641604787,0.0,0.0
42.0,113.0,0.1,5.356980513510087,13.221453244104204,0.0,0.0
42.0,113.0,0.3,5.356980513510087,13.221453244104204,0.0,0.0
42.0,113.0,0.7,5.356980513510087,13.221453244104204,0.0,0.0
42.0,113.0,1.0,5.356980513510087,13.221453244104204,0.0,0.0
42.0,121.0,0.1,5.345962459085641,13.164990318689862,0.0,0.0
42.0,121.0,0.3,5.345962459085641,13.164990318689862,0.0,0.0
42.0,121.0,0.7,5.345962459085641,13.164990318689862,0.0,0.0
42.0,121.0,1.0,5.345962459085641,13.164990318689862,0.0,0.0
42.0,127.0,0.1,5.338772998125068,13.11570666488612,0.0,0.0
42.0,127.0,0.3,5.338772998125068,13.11570666488612,0.0,0.0
42.0,127.0,0.7,5.338772998125068,13.11570666488612,0.0,0.0
42.0,127.0,1.0,5.338772998125068,13.11570666488612,0.0,0.0
43.0,1.0,0.1,1.1918672207806078,0.000552180050196613,0.0,0.0
43.0,1.0,0.3,1.1918672207806078,0.000552180050196613,0.0,0.0
43.0,1.0,0.7,1.1918672207806078,0.000552180050196613,0.0,0.0
43.0,1.0,1.0,1.1918672207806078,0.000552180050196613,0.0,0.0
43.0,9.0,0.1,0.9913958829867733,0.0005914119372258554,0.0,0.0
43.0,9.0,0.3,0.9913958829867733,0.0005914119372258554,0.0,0.0
43.0,9.0,0.7,0.9913958829867733,0.0005914119372258554,0.0,0.0
43.0,9.0,1.0,0.9913958829867733,0.0005914119372258554,0.0,0.0
43.0,17.0,0.1,0.9554200209834407,0.08456929274672366,0.0,0.0
43.0,17.0,0.3,0.9554200209834407,0.08456929274672366,0.0,0.0
43.0,17.0,0.7,0.9554200209834407,0.08456929274672366,0.0,0.0
43.0,17.0,1.0,0.9554200209834407,0.08456929274672366,0.0,0.0
43.0,25.0,0.1,0.8916536161872706,0.5867336962322968,0.0,0.0
43.0,25.0,0.3,0.8916536161872706,0.5867336962322968,0.0,0.0
43.0,25.0,0.7,0.8916536161872706,0.5867336962322968,0.0,0.0
43.0,25.0,1.0,0.8916536161872706,0.5867336962322968,0.0,0.0
43.0,33.0,0.1,1.088379257873097,1.2537708999768948,0.0,0.0
43.0,33.0,0.3,1.088379257873097,1.2537708999768948,0.0,0.0
43.0,33.0,0.7,1.088379257873097,1.2537708999768948,0.0,0.0
43.0,33.0,1.0,1.088379257873097,1.2537708999768948,0.0,0.0
43.0,41.0,0.1,1.6113567994030364,2.053820561588164,0.0,0.0
43.0,41.0,0.3,1.6113567994030364,2.053820561588164,0.0,0.0
43.0,41.0,0.7,1.6113567994030364,2.053820561588164,0.0,0.0
43.0,41.0,1.0,1.6113567994030364,2.053820561588164,0.0,0.0
43.0,49.0,0.1,2.0464551483170093,3.1047890119950106,0.0,0.0
43.0,49.0,0.3,2.0464551483170093,3.1047890119950106,0.0,0.0
43.0,49.0,0.7,2.0464551483170093,3.1047890119950106,0.0,0.0
43.0,49.0,1.0,2.0464551483170093,3.1047890119950106,0.0,0.0
43.0,57.0,0.1,2.304599808417981,4.156401033965695,0.0,0.0
43.0,57.0,0.3,2.304599808417981,4.156401033965695,0.0,0.0
43.0,57.0,0.7,2.304599808417981,4.156401033965695,0.0,0.0
43.0,57.0,1.0,2.304599808417981,4.156401033965695,0.0,0.0
43.0,65.0,0.1,2.909161359423834,5.417256812992874,0.0,0.0
43.0,65.0,0.3,2.909161359423834,5.417256812992874,0.0,0.0
43.0,65.0,0.7,2.909161359423834,5.417256812992874,0.0,0.0
43.0,65.0,1.0,2.909161359423834,5.417256812992874,0.0,0.0
43.0,73.0,0.1,3.8525020880930074,6.631438028336774,0.0,0.0
43.0,73.0,0.3,3.8525020880930074,6.631438028336774,0.0,0.0
43.0,73.0,0.7,3.8525020880930074,6.631438028336774,0.0,0.0
43.0,73.0,1.0,3.8525020880930074,6.631438028336774,0.0,0.0
43.0,81.0,0.1,4.677749207683036,8.099743010013878,0.0,0.0
43.0,81.0,0.3,4.677749207683036,8.099743010013878,0.0,0.0
43.0,81.0,0.7,4.677749207683036,8.099743010013878,0.0,0.0
43.0,81.0,1.0,4.677749207683036,8.099743010013878,0.0,0.0
43.0,89.0,0.1,5.586719304258054,9.578310282113828,0.0,0.0
43.0,89.0,0.3,5.586719304258054,9.578310282113828,0.0,0.0
43.0,89.0,0.7,5.586719304258054,9.578310282113828,0.0,0.0
43.0,89.0,1.0,5.586719304258054,9.578310282113828,0.0,0.0
43.0,97.0,0.1,6.292638477384912,11.286370691956021,0.0,0.0
43.0,97.0,0.3,6.292638477384912,11.286370691956021,0.0,0.0
43.0,97.0,0.7,6.292638477384912,11.286370691956021,0.0,0.0
43.0,97.0,1.0,6.292638477384912,11.286370691956021,0.0,0.0
43.0,105.0,0.1,6.257944650417643,14.340717562618671,0.0,0.0
43.0,105.0,0.3,6.257944650417643,14.340717562618671,0.0,0.0
43.0,105.0,0.7,6.257944650417643,14.340717562618671,0.0,0.0
43.0,105.0,1.0,6.257944650417643,14.340717562618671,0.0,0.0
43.0,113.0,0.1,6.21543287150484,14.449053122734897,0.0,0.0
43.0,113.0,0.3,6.21543287150484,14.449053122734897,0.0,0.0
43.0,113.0,0.7,6.21543287150484,14.449053122734897,0.0,0.0
43.0,113.0,1.0,6.21543287150484,14.449053122734897,0.0,0.0
43.0,121.0,0.1,6.169053859581469,14.369108672900133,0.0,0.0
43.0,121.0,0.3,6.169053859581469,14.369108672900133,0.0,0.0
43.0,121.0,0.7,6.169053859581469,14.369108672900133,0.0,0.0
43.0,121.0,1.0,6.169053859581469,14.369108672900133,0.0,0.0
43.0,127.0,0.1,6.1404540242168215,14.329875302070684,0.0,0.0
43.0,127.0,0.3,6.1404540242168215,14.329875302070684,0.0,0.0
43.0,127.0,0.7,6.1404540242168215,14.329875302070684,0.0,0.0
43.0,127.0,1.0,6.1404540242168215,14.329875302070684,0.0,0.0
44.0,1.0,0.1,2.2161659151762882,0.12983976566983135,0.0,0.0
44.0,1.0,0.3,2.2161659151762882,0.12983976566983135,0.0,0.0
44.0,1.0,0.7,2.2161659151762882,0.12983976566983135,0.0,0.0
44.0,1.0,1.0,2.2161659151762882,0.12983976566983135,0.0,0.0
44.0,9.0,0.1,2.1793636092736905,0.10471054155301761,0.0,0.0
44.0,9.0,0.3,2.1793636092736905,0.10471054155301761,0.0,0.0
44.0,9.0,0.7,2.1793636092736905,0.10471054155301761,0.0,0.0
44.0,9.0,1.0,2.1793636092736905,0.10471054155301761,0.0,0.0
44.0,17.0,0.1,2.1405628799666,0.34572697350254666,0.0,0.0
44.0,17.0,0.3,2.1405628799666,0.34572697350254666,0.0,0.0
44.0,17.0,0.7,2.1405628799666,0.34572697350254666,0.0,0.0
44.0,17.0,1.0,2.1405628799666,0.34572697350254666,0.0,0.0
44.0,25.0,0.1,2.2881737506958015,0.7300362992023516,0.0,0.0
44.0,25.0,0.3,2.2881737506958015,0.7300362992023516,0.0,0.0
44.0,25.0,0.7,2.2881737506958015,0.7300362992023516,0.0,0.0
44.0,25.0,1.0,2.2881737506958015,0.7300362992023516,0.0,0.0
44.0,33.0,0.1,2.3832741648361266,1.2414689305882178,0.0,0.0
44.0,33.0,0.3,2.3832741648361266,1.2414689305882178,0.0,0.0
44.0,33.0,0.7,2.3832741648361266,1.2414689305882178,0.0,0.0
44.0,33.0,1.0,2.3832741648361266,1.2414689305882178,0.0,0.0
44.0,41.0,0.1,2.6991710433203644,1.924407481332257,0.0,0.0
44.0,41.0,0.3,2.6991710433203644,1.924407481332257,0.0,0.0
44.0,41.0,0.7,2.6991710433203644,1.924407481332257,0.0,0.0
44.0,41.0,1.0,2.6991710433203644,1.924407481332257,0.0,0.0
44.0,49.0,0.1,2.965348536082277,2.8221041573619274,0.0,0.0
44.0,49.0,0.3,2.965348536082277,2.8221041573619274,0.0,0.0
44.0,49.0,0.7,2.965348536082277,2.8221041573619274,0.0,0.0
44.0,49.0,1.0,2.965348536082277,2.8221041573619274,0.0,0.0
44.0,57.0,0.1,3.18505276110287,3.8256394847751727,0.0,0.0
44.0,57.0,0.3,3.18505276110287,3.8256394847751727,0.0,0.0
44.0,57.0,0.7,3.18505276110287,3.8256394847751727,0.0,0.0
44.0,57.0,1.0,3.18505276110287,3.8256394847751727,0.0,0.0
44.0,65.0,0.1,3.746030597376877,5.174803923260717,0.0,0.0
44.0,65.0,0.3,3.746030597376877,5.174803923260717,0.0,0.0
44.0,65.0,0.7,3.746030597376877,5.174803923260717,0.0,0.0
44.0,65.0,1.0,3.746030597376877,5.174803923260717,0.0,0.0
44.0,73.0,0.1,4.272140653247753,6.743680971927217,0.0,0.0
44.0,73.0,0.3,4.272140653247753,6.743680971927217,0.0,0.0
44.0,73.0,0.7,4.272140653247753,6.743680971927217,0.0,0.0
44.0,73.0,1.0,4.272140653247753,6.743680971927217,0.0,0.0
44.0,81.0,0.1,5.00703347814618,8.456268892515098,0.0,0.0
44.0,81.0,0.3,5.00703347814618,8.456268892515098,0.0,0.0
44.0,81.0,0.7,5.00703347814618,8.456268892515098,0.0,0.0
44.0,81.0,1.0,5.00703347814618,8.456268892515098,0.0,0.0
44.0,89.0,0.1,5.562636518974872,10.157927644221894,0.0,0.0
44.0,89.0,0.3,5.562636518974872,10.157927644221894,0.0,0.0
44.0,89.0,0.7,5.562636518974872,10.157927644221894,0.0,0.0
44.0,89.0,1.0,5.562636518974872,10.157927644221894,0.0,0.0
44.0,97.0,0.1,5.8668909464502335,12.715774827309271,0.0,0.0
44.0,97.0,0.3,5.8668909464502335,12.715774827309271,0.0,0.0
44.0,97.0,0.7,5.8668909464502335,12.715774827309271,0.0,0.0
44.0,97.0,1.0,5.8668909464502335,12.715774827309271,0.0,0.0
44.0,105.0,0.1,5.836646112238989,16.506114726498545,0.0,0.0
44.0,105.0,0.3,5.836646112238989,16.506114726498545,0.0,0.0
44.0,105.0,0.7,5.836646112238989,16.506114726498545,0.0,0.0
44.0,105.0,1.0,5.836646112238989,16.506114726498545,0.0,0.0
44.0,113.0,0.1,5.8094039385546905,16.221667521794213,0.0,0.0
44.0,113.0,0.3,5.8094039385546905,16.221667521794213,0.0,0.0
44.0,113.0,0.7,5.8094039385546905,16.221667521794213,0.0,0.0
44.0,113.0,1.0,5.8094039385546905,16.221667521794213,0.0,0.0
44.0,121.0,0.1,5.8181123541984325,16.148824836841815,0.0,0.0
44.0,121.0,0.3,5.8181123541984325,16.148824836841815,0.0,0.0
44.0,121.0,0.7,5.8181123541984325,16.148824836841815,0.0,0.0
44.0,121.0,1.0,5.8181123541984325,16.148824836841815,0.0,0.0
44.0,127.0,0.1,5.788584570754457,15.957464011738303,0.0,0.0
44.0,127.0,0.3,5.788584570754457,15.957464011738303,0.0,0.0
44.0,127.0,0.7,5.788584570754457,15.957464011738303,0.0,0.0
44.0,127.0,1.0,5.788584570754457,15.957464011738303,0.0,0.0
45.0,1.0,0.1,0.0010694988879763228,0.2956676711705192,0.0,0.0
45.0,1.0,0.3,0.0010694988879763228,0.2956676711705192,0.0,0.0
45.0,1.0,0.7,0.0010694988879763228,0.2956676711705192,0.0,0.0
45.0,1.0,1.0,0.0010694988879763228,0.2956676711705192,0.0,0.0
45.0,9.0,0.1,0.0011917526371787014,0.28862123495674685,0.0,0.0
45.0,9.0,0.3,0.0011917526371787014,0.28862123495674685,0.0,0.0
45.0,9.0,0.7,0.0011917526371787014,0.28862123495674685,0.0,0.0
45.0,9.0,1.0,0.0011917526371787014,0.28862123495674685,0.0,0.0
45.0,17.0,0.1,0.0008403452920824455,0.6651879235377802,0.0,0.0
45.0,17.0,0.3,0.0008403452920824455,0.6651879235377802,0.0,0.0
45.0,17.0,0.7,0.0008403452920824455,0.6651879235377802,0.0,0.0
45.0,17.0,1.0,0.0008403452920824455,0.6651879235377802,0.0,0.0
45.0,25.0,0.1,0.0010265026497009865,1.0242224754807807,0.0,0.0
45.0,25.0,0.3,0.0010265026497009865,1.0242224754807807,0.0,0.0
45.0,25.0,0.7,0.0010265026497009865,1.0242224754807807,0.0,0.0
45.0,25.0,1.0,0.0010265026497009865,1.0242224754807807,0.0,0.0
45.0,33.0,0.1,0.8043419559574778,1.709519285507076,0.0,0.0
45.0,33.0,0.3,0.8043419559574778,1.709519285507076,0.0,0.0
45.0,33.0,0.7,0.8043419559574778,1.709519285507076,0.0,0.0
45.0,33.0,1.0,0.8043419559574778,1.709519285507076,0.0,0.0
45.0,41.0,0.1,1.1784882020725815,2.462059747931032,0.0,0.0
45.0,41.0,0.3,1.1784882020725815,2.462059747931032,0.0,0.0
45.0,41.0,0.7,1.1784882020725815,2.462059747931032,0.0,0.0
45.0,41.0,1.0,1.1784882020725815,2.462059747931032,0.0,0.0
45.0,49.0,0.1,1.6302404803805952,3.4063489774422924,0.0,0.0
45.0,49.0,0.3,1.6302404803805952,3.4063489774422924,0.0,0.0
45.0,49.0,0.7,1.6302404803805952,3.4063489774422924,0.0,0.0
45.0,49.0,1.0,1.6302404803805952,3.4063489774422924,0.0,0.0
45.0,57.0,0.1,1.7370409574828358,4.515743403995201,0.0,0.0
45.0,57.0,0.3,1.7370409574828358,4.515743403995201,0.0,0.0
45.0,57.0,0.7,1.7370409574828358,4.515743403995201,0.0,0.0
45.0,57.0,1.0,1.7370409574828358,4.515743403995201,0.0,0.0
45.0,65.0,0.1,2.4709842070082777,5.740124471351966,0.0,0.0
45.0,65.0,0.3,2.4709842070082777,5.740124471351966,0.0,0.0
45.0,65.0,0.7,2.4709842070082777,5.740124471351966,0.0,0.0
45.0,65.0,1.0,2.4709842070082777,5.740124471351966,0.0,0.0
45.0,73.0,0.1,3.318472207883615,7.259510853667323,0.0,0.0
45.0,73.0,0.3,3.318472207883615,7.259510853667323,0.0,0.0
45.0,73.0,0.7,3.318472207883615,7.259510853667323,0.0,0.0
45.0,73.0,1.0,3.318472207883615,7.259510853667323,0.0,0.0
45.0,81.0,0.1,4.298908439508589,9.071017738630388,0.0,0.0
45.0,81.0,0.3,4.298908439508589,9.071017738630388,0.0,0.0
45.0,81.0,0.7,4.298908439508589,9.071017738630388,0.0,0.0
45.0,81.0,1.0,4.298908439508589,9.071017738630388,0.0,0.0
45.0,89.0,0.1,5.269118078567257,10.699756696946828,0.0,0.0
45.0,89.0,0.3,5.269118078567257,10.699756696946828,0.0,0.0
45.0,89.0,0.7,5.269118078567257,10.699756696946828,0.0,0.0
45.0,89.0,1.0,5.269118078567257,10.699756696946828,0.0,0.0
45.0,97.0,0.1,5.977796885820597,13.316263819473301,0.0,0.0
45.0,97.0,0.3,5.977796885820597,13.316263819473301,0.0,0.0
45.0,97.0,0.7,5.977796885820597,13.316263819473301,0.0,0.0
45.0,97.0,1.0,5.977796885820597,13.316263819473301,0.0,0.0
45.0,105.0,0.1,5.975983593045894,15.656154740966937,0.0,0.0
45.0,105.0,0.3,5.975983593045894,15.656154740966937,0.0,0.0
45.0,105.0,0.7,5.975983593045894,15.656154740966937,0.0,0.0
45.0,105.0,1.0,5.975983593045894,15.656154740966937,0.0,0.0
45.0,113.0,0.1,5.971057733966457,15.698721500993116,0.0,0.0
45.0,113.0,0.3,5.971057733966457,15.698721500993116,0.0,0.0
45.0,113.0,0.7,5.971057733966457,15.698721500993116,0.0,0.0
45.0,113.0,1.0,5.971057733966457,15.698721500993116,0.0,0.0
45.0,121.0,0.1,5.960907595180407,15.684432007184748,0.0,0.0
45.0,121.0,0.3,5.960907595180407,15.684432007184748,0.0,0.0
45.0,121.0,0.7,5.960907595180407,15.684432007184748,0.0,0.0
45.0,121.0,1.0,5.960907595180407,15.684432007184748,0.0,0.0
45.0,127.0,0.1,5.933715056565203,15.63990638594744,0.0,0.0
45.0,127.0,0.3,5.933715056565203,15.63990638594744,0.0,0.0
45.0,127.0,0.7,5.933715056565203,15.63990638594744,0.0,0.0
45.0,127.0,1.0,5.933715056565203,15.63990638594744,0.0,0.0
46.0,1.0,0.1,0.4870863763609442,0.010206143718998226,0.0,0.0
46.0,1.0,0.3,0.4870863763609442,0.010206143718998226,0.0,0.0
46.0,1.0,0.7,0.4870863763609442,0.010206143718998226,0.0,0.0
46.0,1.0,1.0,0.4870863763609442,0.010206143718998226,0.0,0.0
46.0,9.0,0.1,0.4962557831575438,0.03409017988484844,0.0,0.0
46.0,9.0,0.3,0.4962557831575438,0.03409017988484844,0.0,0.0
46.0,9.0,0.7,0.4962557831575438,0.03409017988484844,0.0,0.0
46.0,9.0,1.0,0.4962557831575438,0.03409017988484844,0.0,0.0
46.0,17.0,0.1,0.4701884615728254,0.17193812003806558,0.0,0.0
46.0,17.0,0.3,0.4701884615728254,0.17193812003806558,0.0,0.0
46.0,17.0,0.7,0.4701884615728254,0.17193812003806558,0.0,0.0
46.0,17.0,1.0,0.4701884615728254,0.17193812003806558,0.0,0.0
46.0,25.0,0.1,1.7995881132326432,0.6351229451181954,0.0,0.0
46.0,25.0,0.3,1.7995881132326432,0.6351229451181954,0.0,0.0
46.0,25.0,0.7,1.7995881132326432,0.6351229451181954,0.0,0.0
46.0,25.0,1.0,1.7995881132326432,0.6351229451181954,0.0,0.0
46.0,33.0,0.1,2.03201863368719,1.2664362097722544,0.0,0.0
46.0,33.0,0.3,2.03201863368719,1.2664362097722544,0.0,0.0
46.0,33.0,0.7,2.03201863368719,1.2664362097722544,0.0,0.0
46.0,33.0,1.0,2.03201863368719,1.2664362097722544,0.0,0.0
46.0,41.0,0.1,2.4193237525543525,2.0059168323320744,0.0,0.0
46.0,41.0,0.3,2.4193237525543525,2.0059168323320744,0.0,0.0
46.0,41.0,0.7,2.4193237525543525,2.0059168323320744,0.0,0.0
46.0,41.0,1.0,2.4193237525543525,2.0059168323320744,0.0,0.0
46.0,49.0,0.1,2.710210278440009,2.9462175876194263,0.0,0.0
46.0,49.0,0.3,2.710210278440009,2.9462175876194263,0.0,0.0
46.0,49.0,0.7,2.710210278440009,2.9462175876194263,0.0,0.0
46.0,49.0,1.0,2.710210278440009,2.9462175876194263,0.0,0.0
46.0,57.0,0.1,2.750806078377465,3.870908003267796,0.0,0.0
46.0,57.0,0.3,2.750806078377465,3.870908003267796,0.0,0.0
46.0,57.0,0.7,2.750806078377465,3.870908003267796,0.0,0.0
46.0,57.0,1.0,2.750806078377465,3.870908003267796,0.0,0.0
46.0,65.0,0.1,3.241267913303001,5.269739533011615,0.0,0.0
46.0,65.0,0.3,3.241267913303001,5.269739533011615,0.0,0.0
46.0,65.0,0.7,3.241267913303001,5.269739533011615,0.0,0.0
46.0,65.0,1.0,3.241267913303001,5.269739533011615,0.0,0.0
46.0,73.0,0.1,4.00968436420659,6.753047299415885,0.0,0.0
46.0,73.0,0.3,4.00968436420659,6.753047299415885,0.0,0.0
46.0,73.0,0.7,4.00968436420659,6.753047299415885,0.0,0.0
46.0,73.0,1.0,4.00968436420659,6.753047299415885,0.0,0.0
46.0,81.0,0.1,4.634922284254878,8.487356735606445,0.0,0.0
46.0,81.0,0.3,4.634922284254878,8.487356735606445,0.0,0.0
46.0,81.0,0.7,4.634922284254878,8.487356735606445,0.0,0.0
46.0,81.0,1.0,4.634922284254878,8.487356735606445,0.0,0.0
46.0,89.0,0.1,5.24665932597176,10.116982574353964,0.0,0.0
46.0,89.0,0.3,5.24665932597176,10.116982574353964,0.0,0.0
46.0,89.0,0.7,5.24665932597176,10.116982574353964,0.0,0.0
46.0,89.0,1.0,5.24665932597176,10.116982574353964,0.0,0.0
46.0,97.0,0.1,5.706900012825405,12.255947461328976,0.0,0.0
46.0,97.0,0.3,5.706900012825405,12.255947461328976,0.0,0.0
46.0,97.0,0.7,5.706900012825405,12.255947461328976,0.0,0.0
46.0,97.0,1.0,5.706900012825405,12.255947461328976,0.0,0.0
46.0,105.0,0.1,5.682951352701895,14.822559867962065,0.0,0.0
46.0,105.0,0.3,5.682951352701895,14.822559867962065,0.0,0.0
46.0,105.0,0.7,5.682951352701895,14.822559867962065,0.0,0.0
46.0,105.0,1.0,5.682951352701895,14.822559867962065,0.0,0.0
46.0,113.0,0.1,5.648116208605351,14.401555814941117,0.0,0.0
46.0,113.0,0.3,5.648116208605351,14.401555814941117,0.0,0.0
46.0,113.0,0.7,5.648116208605351,14.401555814941117,0.0,0.0
46.0,113.0,1.0,5.648116208605351,14.401555814941117,0.0,0.0
46.0,121.0,0.1,5.640929684709921,14.2108834058278,0.0,0.0
46.0,121.0,0.3,5.640929684709921,14.2108834058278,0.0,0.0
46.0,121.0,0.7,5.640929684709921,14.2108834058278,0.0,0.0
46.0,121.0,1.0,5.640929684709921,14.2108834058278,0.0,0.0
46.0,127.0,0.1,5.590793672691661,14.170777995127207,0.0,0.0
46.0,127.0,0.3,5.590793672691661,14.170777995127207,0.0,0.0
46.0,127.0,0.7,5.590793672691661,14.170777995127207,0.0,0.0
46.0,127.0,1.0,5.590793672691661,14.170777995127207,0.0,0.0
47.0,1.0,0.1,0.4875602782245535,0.02524948364782176,0.0,0.0
47.0,1.0,0.3,0.4875602782245535,0.02524948364782176,0.0,0.0
47.0,1.0,0.7,0.4875602782245535,0.02524948364782176,0.0,0.0
47.0,1.0,1.0,0.4875602782245535,0.02524948364782176,0.0,0.0
47.0,9.0,0.1,0.4943704206109708,0.05191981600061305,0.0,0.0
47.0,9.0,0.3,0.4943704206109708,0.05191981600061305,0.0,0.0
47.0,9.0,0.7,0.4943704206109708,0.05191981600061305,0.0,0.0
47.0,9.0,1.0,0.4943704206109708,0.05191981600061305,0.0,0.0
47.0,17.0,0.1,0.40718389455584525,0.3214819614215105,0.0,0.0
47.0,17.0,0.3,0.40718389455584525,0.3214819614215105,0.0,0.0
47.0,17.0,0.7,0.40718389455584525,0.3214819614215105,0.0,0.0
47.0,17.0,1.0,0.40718389455584525,0.3214819614215105,0.0,0.0
47.0,25.0,0.1,0.6285918247073214,0.7658531071115222,0.0,0.0
47.0,25.0,0.3,0.6285918247073214,0.7658531071115222,0.0,0.0
47.0,25.0,0.7,0.6285918247073214,0.7658531071115222,0.0,0.0
47.0,25.0,1.0,0.6285918247073214,0.7658531071115222,0.0,0.0
47.0,33.0,0.1,0.7776237369684585,1.3287820190629758,0.0,0.0
47.0,33.0,0.3,0.7776237369684585,1.3287820190629758,0.0,0.0
47.0,33.0,0.7,0.7776237369684585,1.3287820190629758,0.0,0.0
47.0,33.0,1.0,0.7776237369684585,1.3287820190629758,0.0,0.0
47.0,41.0,0.1,1.0418004494820579,2.0362805939413517,0.0,0.0
47.0,41.0,0.3,1.0418004494820579,2.0362805939413517,0.0,0.0
47.0,41.0,0.7,1.0418004494820579,2.0362805939413517,0.0,0.0
47.0,41.0,1.0,1.0418004494820579,2.0362805939413517,0.0,0.0
47.0,49.0,0.1,1.3739489850109836,2.922348580799642,0.0,0.0
47.0,49.0,0.3,1.3739489850109836,2.922348580799642,0.0,0.0
47.0,49.0,0.7,1.3739489850109836,2.922348580799642,0.0,0.0
47.0,49.0,1.0,1.3739489850109836,2.922348580799642,0.0,0.0
47.0,57.0,0.1,1.6790384520941044,4.073852257375234,0.0,0.0
47.0,57.0,0.3,1.6790384520941044,4.073852257375234,0.0,0.0
47.0,57.0,0.7,1.6790384520941044,4.073852257375234,0.0,0.0
47.0,57.0,1.0,1.6790384520941044,4.073852257375234,0.0,0.0
47.0,65.0,0.1,2.25591667128185,5.453976782816522,0.0,0.0
47.0,65.0,0.3,2.25591667128185,5.453976782816522,0.0,0.0
47.0,65.0,0.7,2.25591667128185,5.453976782816522,0.0,0.0
47.0,65.0,1.0,2.25591667128185,5.453976782816522,0.0,0.0
47.0,73.0,0.1,3.0390812731899284,7.05344177964552,0.0,0.0
47.0,73.0,0.3,3.0390812731899284,7.05344177964552,0.0,0.0
47.0,73.0,0.7,3.0390812731899284,7.05344177964552,0.0,0.0
47.0,73.0,1.0,3.0390812731899284,7.05344177964552,0.0,0.0
47.0,81.0,0.1,3.761023945198704,9.097709282071483,0.0,0.0
47.0,81.0,0.3,3.761023945198704,9.097709282071483,0.0,0.0
47.0,81.0,0.7,3.761023945198704,9.097709282071483,0.0,0.0
47.0,81.0,1.0,3.761023945198704,9.097709282071483,0.0,0.0
47.0,89.0,0.1,4.582600002863625,11.094810643269005,0.0,0.0
47.0,89.0,0.3,4.582600002863625,11.094810643269005,0.0,0.0
47.0,89.0,0.7,4.582600002863625,11.094810643269005,0.0,0.0
47.0,89.0,1.0,4.582600002863625,11.094810643269005,0.0,0.0
47.0,97.0,0.1,5.181750454560756,13.146594780386655,0.0,0.0
47.0,97.0,0.3,5.181750454560756,13.146594780386655,0.0,0.0
47.0,97.0,0.7,5.181750454560756,13.146594780386655,0.0,0.0
47.0,97.0,1.0,5.181750454560756,13.146594780386655,0.0,0.0
47.0,105.0,0.1,5.12284760476217,16.49343311791763,0.0,0.0
47.0,105.0,0.3,5.12284760476217,16.49343311791763,0.0,0.0
47.0,105.0,0.7,5.12284760476217,16.49343311791763,0.0,0.0
47.0,105.0,1.0,5.12284760476217,16.49343311791763,0.0,0.0
47.0,113.0,0.1,5.069779719414029,16.229334626819632,0.0,0.0
47.0,113.0,0.3,5.069779719414029,16.229334626819632,0.0,0.0
47.0,113.0,0.7,5.069779719414029,16.229334626819632,0.0,0.0
47.0,113.0,1.0,5.069779719414029,16.229334626819632,0.0,0.0
47.0,121.0,0.1,5.02433809214671,16.170839710601136,0.0,0.0
47.0,121.0,0.3,5.02433809214671,16.170839710601136,0.0,0.0
47.0,121.0,0.7,5.02433809214671,16.170839710601136,0.0,0.0
47.0,121.0,1.0,5.02433809214671,16.170839710601136,0.0,0.0
47.0,127.0,0.1,5.041595387180668,16.094180616506193,0.0,0.0
47.0,127.0,0.3,5.041595387180668,16.094180616506193,0.0,0.0
47.0,127.0,0.7,5.041595387180668,16.094180616506193,0.0,0.0
47.0,127.0,1.0,5.041595387180668,16.094180616506193,0.0,0.0
48.0,1.0,0.1,0.5252365943452989,0.01628087934847357,0.0,0.0
48.0,1.0,0.3,0.5252365943452989,0.01628087934847357,0.0,0.0
48.0,1.0,0.7,0.5252365943452989,0.01628087934847357,0.0,0.0
48.0,1.0,1.0,0.5252365943452989,0.01628087934847357,0.0,0.0
48.0,9.0,0.1,0.5935721849338355,0.01867964105235333,0.0,0.0
48.0,9.0,0.3,0.5935721849338355,0.01867964105235333,0.0,0.0
48.0,9.0,0.7,0.5935721849338355,0.01867964105235333,0.0,0.0
48.0,9.0,1.0,0.5935721849338355,0.01867964105235333,0.0,0.0
48.0,17.0,0.1,0.5465023001418193,0.2357133560952982,0.0,0.0
48.0,17.0,0.3,0.5465023001418193,0.2357133560952982,0.0,0.0
48.0,17.0,0.7,0.5465023001418193,0.2357133560952982,0.0,0.0
48.0,17.0,1.0,0.5465023001418193,0.2357133560952982,0.0,0.0
48.0,25.0,0.1,0.8198883263173905,0.5537093242721485,0.0,0.0
48.0,25.0,0.3,0.8198883263173905,0.5537093242721485,0.0,0.0
48.0,25.0,0.7,0.8198883263173905,0.5537093242721485,0.0,0.0
48.0,25.0,1.0,0.8198883263173905,0.5537093242721485,0.0,0.0
48.0,33.0,0.1,1.0025798615716264,0.9244279038341676,0.0,0.0
48.0,33.0,0.3,1.0025798615716264,0.9244279038341676,0.0,0.0
48.0,33.0,0.7,1.0025798615716264,0.9244279038341676,0.0,0.0
48.0,33.0,1.0,1.0025798615716264,0.9244279038341676,0.0,0.0
48.0,41.0,0.1,1.4627970030007693,1.487027421614469,0.0,0.0
48.0,41.0,0.3,1.4627970030007693,1.487027421614469,0.0,0.0
48.0,41.0,0.7,1.4627970030007693,1.487027421614469,0.0,0.0
48.0,41.0,1.0,1.4627970030007693,1.487027421614469,0.0,0.0
48.0,49.0,0.1,1.7995317867728786,2.2008414882364726,0.0,0.0
48.0,49.0,0.3,1.7995317867728786,2.2008414882364726,0.0,0.0
48.0,49.0,0.7,1.7995317867728786,2.2008414882364726,0.0,0.0
48.0,49.0,1.0,1.7995317867728786,2.2008414882364726,0.0,0.0
48.0,57.0,0.1,2.138773324613641,3.159206011840068,0.0,0.0
48.0,57.0,0.3,2.138773324613641,3.159206011840068,0.0,0.0
48.0,57.0,0.7,2.138773324613641,3.159206011840068,0.0,0.0
48.0,57.0,1.0,2.138773324613641,3.159206011840068,0.0,0.0
48.0,65.0,0.1,2.8139633162682665,4.264922205261312,0.0,0.0
48.0,65.0,0.3,2.8139633162682665,4.264922205261312,0.0,0.0
48.0,65.0,0.7,2.8139633162682665,4.264922205261312,0.0,0.0
48.0,65.0,1.0,2.8139633162682665,4.264922205261312,0.0,0.0
48.0,73.0,0.1,3.6169707401915208,5.4853043099712115,0.0,0.0
48.0,73.0,0.3,3.6169707401915208,5.4853043099712115,0.0,0.0
48.0,73.0,0.7,3.6169707401915208,5.4853043099712115,0.0,0.0
48.0,73.0,1.0,3.6169707401915208,5.4853043099712115,0.0,0.0
48.0,81.0,0.1,4.378080223141258,7.29107778500629,0.0,0.0
48.0,81.0,0.3,4.378080223141258,7.29107778500629,0.0,0.0
48.0,81.0,0.7,4.378080223141258,7.29107778500629,0.0,0.0
48.0,81.0,1.0,4.378080223141258,7.29107778500629,0.0,0.0
48.0,89.0,0.1,5.182735571619663,9.065980571594999,0.0,0.0
48.0,89.0,0.3,5.182735571619663,9.065980571594999,0.0,0.0
48.0,89.0,0.7,5.182735571619663,9.065980571594999,0.0,0.0
48.0,89.0,1.0,5.182735571619663,9.065980571594999,0.0,0.0
48.0,97.0,0.1,5.519538315951104,10.628086344832496,0.0,0.0
48.0,97.0,0.3,5.519538315951104,10.628086344832496,0.0,0.0
48.0,97.0,0.7,5.519538315951104,10.628086344832496,0.0,0.0
48.0,97.0,1.0,5.519538315951104,10.628086344832496,0.0,0.0
48.0,105.0,0.1,5.4636419175657,12.808102142141916,0.0,0.0
48.0,105.0,0.3,5.4636419175657,12.808102142141916,0.0,0.0
48.0,105.0,0.7,5.4636419175657,12.808102142141916,0.0,0.0
48.0,105.0,1.0,5.4636419175657,12.808102142141916,0.0,0.0
48.0,113.0,0.1,5.447503914289711,12.73171930195417,0.0,0.0
48.0,113.0,0.3,5.447503914289711,12.73171930195417,0.0,0.0
48.0,113.0,0.7,5.447503914289711,12.73171930195417,0.0,0.0
48.0,113.0,1.0,5.447503914289711,12.73171930195417,0.0,0.0
48.0,121.0,0.1,5.404864466204349,12.670391569116266,0.0,0.0
48.0,121.0,0.3,5.404864466204349,12.670391569116266,0.0,0.0
48.0,121.0,0.7,5.404864466204349,12.670391569116266,0.0,0.0
48.0,121.0,1.0,5.404864466204349,12.670391569116266,0.0,0.0
48.0,127.0,0.1,5.400041507254509,12.63150857741286,0.0,0.0
48.0,127.0,0.3,5.400041507254509,12.63150857741286,0.0,0.0
48.0,127.0,0.7,5.400041507254509,12.63150857741286,0.0,0.0
48.0,127.0,1.0,5.400041507254509,12.63150857741286,0.0,0.0
49.0,1.0,0.1,0.3541726267174297,0.16785439616515618,0.0,0.0
49.0,1.0,0.3,0.3541726267174297,0.16785439616515618,0.0,0.0
49.0,1.0,0.7,0.3541726267174297,0.16785439616515618,0.0,0.0
49.0,1.0,1.0,0.3541726267174297,0.16785439616515618,0.0,0.0
49.0,9.0,0.1,1.8829813327863676,0.1422855969219346,0.0,0.0
49.0,9.0,0.3,1.8829813327863676,0.1422855969219346,0.0,0.0
49.0,9.0,0.7,1.8829813327863676,0.1422855969219346,0.0,0.0
49.0,9.0,1.0,1.8829813327863676,0.1422855969219346,0.0,0.0
49.0,17.0,0.1,1.8231007740795115,0.44230387337887705,0.0,0.0
49.0,17.0,0.3,1.8231007740795115,0.44230387337887705,0.0,0.0
49.0,17.0,0.7,1.8231007740795115,0.44230387337887705,0.0,0.0
49.0,17.0,1.0,1.8231007740795115,0.44230387337887705,0.0,0.0
49.0,25.0,0.1,1.7794637753637912,0.8352232059815271,0.0,0.0
49.0,25.0,0.3,1.7794637753637912,0.8352232059815271,0.0,0.0
49.0,25.0,0.7,1.7794637753637912,0.8352232059815271,0.0,0.0
49.0,25.0,1.0,1.7794637753637912,0.8352232059815271,0.0,0.0
49.0,33.0,0.1,2.1293176831004743,1.4117352552598121,0.0,0.0
49.0,33.0,0.3,2.1293176831004743,1.4117352552598121,0.0,0.0
49.0,33.0,0.7,2.1293176831004743,1.4117352552598121,0.0,0.0
49.0,33.0,1.0,2.1293176831004743,1.4117352552598121,0.0,0.0
49.0,41.0,0.1,2.4555941235560996,2.161210270230098,0.0,0.0
49.0,41.0,0.3,2.4555941235560996,2.161210270230098,0.0,0.0
49.0,41.0,0.7,2.4555941235560996,2.161210270230098,0.0,0.0
49.0,41.0,1.0,2.4555941235560996,2.161210270230098,0.0,0.0
49.0,49.0,0.1,2.707150969596531,3.057268367932912,0.0,0.0
49.0,49.0,0.3,2.707150969596531,3.057268367932912,0.0,0.0
49.0,49.0,0.7,2.707150969596531,3.057268367932912,0.0,0.0
49.0,49.0,1.0,2.707150969596531,3.057268367932912,0.0,0.0
49.0,57.0,0.1,2.82864801343398,4.242052880119483,0.0,0.0
49.0,57.0,0.3,2.82864801343398,4.242052880119483,0.0,0.0
49.0,57.0,0.7,2.82864801343398,4.242052880119483,0.0,0.0
49.0,57.0,1.0,2.82864801343398,4.242052880119483,0.0,0.0
49.0,65.0,0.1,3.2774846433177767,5.702234055187271,0.0,0.0
49.0,65.0,0.3,3.2774846433177767,5.702234055187271,0.0,0.0
49.0,65.0,0.7,3.2774846433177767,5.702234055187271,0.0,0.0
49.0,65.0,1.0,3.2774846433177767,5.702234055187271,0.0,0.0
49.0,73.0,0.1,3.8785009555141357,7.37147494364545,0.0,0.0
49.0,73.0,0.3,3.8785009555141357,7.37147494364545,0.0,0.0
49.0,73.0,0.7,3.8785009555141357,7.37147494364545,0.0,0.0
49.0,73.0,1.0,3.8785009555141357,7.37147494364545,0.0,0.0
49.0,81.0,0.1,4.414760862814006,9.083636616338655,0.0,0.0
49.0,81.0,0.3,4.414760862814006,9.083636616338655,0.0,0.0
49.0,81.0,0.7,4.414760862814006,9.083636616338655,0.0,0.0
49.0,81.0,1.0,4.414760862814006,9.083636616338655,0.0,0.0
49.0,89.0,0.1,5.249827705295658,10.858458377558541,0.0,0.0
49.0,89.0,0.3,5.249827705295658,10.858458377558541,0.0,0.0
49.0,89.0,0.7,5.249827705295658,10.858458377558541,0.0,0.0
49.0,89.0,1.0,5.249827705295658,10.858458377558541,0.0,0.0
49.0,97.0,0.1,5.961615040512729,12.429872120622267,0.0,0.0
49.0,97.0,0.3,5.961615040512729,12.429872120622267,0.0,0.0
49.0,97.0,0.7,5.961615040512729,12.429872120622267,0.0,0.0
49.0,97.0,1.0,5.961615040512729,12.429872120622267,0.0,0.0
49.0,105.0,0.1,6.057822962443253,13.990222457681837,0.0,0.0
49.0,105.0,0.3,6.057822962443253,13.990222457681837,0.0,0.0
49.0,105.0,0.7,6.057822962443253,13.990222457681837,0.0,0.0
49.0,105.0,1.0,6.057822962443253,13.990222457681837,0.0,0.0
49.0,113.0,0.1,6.050776310682323,16.32689546675698,0.0,0.0
49.0,113.0,0.3,6.050776310682323,16.32689546675698,0.0,0.0
49.0,113.0,0.7,6.050776310682323,16.32689546675698,0.0,0.0
49.0,113.0,1.0,6.050776310682323,16.32689546675698,0.0,0.0
49.0,121.0,0.1,5.999839436204683,16.214988858400208,0.0,0.0
49.0,121.0,0.3,5.999839436204683,16.214988858400208,0.0,0.0
49.0,121.0,0.7,5.999839436204683,16.214988858400208,0.0,0.0
49.0,121.0,1.0,5.999839436204683,16.214988858400208,0.0,0.0
49.0,127.0,0.1,6.006363521108675,16.137710915551366,0.0,0.0
49.0,127.0,0.3,6.006363521108675,16.137710915551366,0.0,0.0
49.0,127.0,0.7,6.006363521108675,16.137710915551366,0.0,0.0
49.0,127.0,1.0,6.006363521108675,16.137710915551366,0.0,0.0
50.0,1.0,0.1,0.42136495279605746,0.06743479902172979,0.0,0.0
50.0,1.0,0.3,0.42136495279605746,0.06743479902172979,0.0,0.0
50.0,1.0,0.7,0.42136495279605746,0.06743479902172979,0.0,0.0
50.0,1.0,1.0,0.42136495279605746,0.06743479902172979,0.0,0.0
50.0,9.0,0.1,0.423488690478881,0.10298556172130748,0.0,0.0
50.0,9.0,0.3,0.423488690478881,0.10298556172130748,0.0,0.0
50.0,9.0,0.7,0.423488690478881,0.10298556172130748,0.0,0.0
50.0,9.0,1.0,0.423488690478881,0.10298556172130748,0.0,0.0
50.0,17.0,0.1,0.38286102412698936,0.361068771505208,0.0,0.0
50.0,17.0,0.3,0.38286102412698936,0.361068771505208,0.0,0.0
50.0,17.0,0.7,0.38286102412698936,0.361068771505208,0.0,0.0
50.0,17.0,1.0,0.38286102412698936,0.361068771505208,0.0,0.0
50.0,25.0,0.1,0.5459859529403394,0.9372066627736021,0.0,0.0
50.0,25.0,0.3,0.5459859529403394,0.9372066627736021,0.0,0.0
50.0,25.0,0.7,0.5459859529403394,0.9372066627736021,0.0,0.0
50.0,25.0,1.0,0.5459859529403394,0.9372066627736021,0.0,0.0
50.0,33.0,0.1,0.8319914649792811,1.364014224764392,0.0,0.0
50.0,33.0,0.3,0.8319914649792811,1.364014224764392,0.0,0.0
50.0,33.0,0.7,0.8319914649792811,1.364014224764392,0.0,0.0
50.0,33.0,1.0,0.8319914649792811,1.364014224764392,0.0,0.0
50.0,41.0,0.1,1.0896183581008694,2.0418966750180747,0.0,0.0
50.0,41.0,0.3,1.0896183581008694,2.0418966750180747,0.0,0.0
50.0,41.0,0.7,1.0896183581008694,2.0418966750180747,0.0,0.0
50.0,41.0,1.0,1.0896183581008694,2.0418966750180747,0.0,0.0
50.0,49.0,0.1,1.5349104460200333,2.865255977839645,0.0,0.0
50.0,49.0,0.3,1.5349104460200333,2.865255977839645,0.0,0.0
50.0,49.0,0.7,1.5349104460200333,2.865255977839645,0.0,0.0
50.0,49.0,1.0,1.5349104460200333,2.865255977839645,0.0,0.0
50.0,57.0,0.1,1.9162792146816463,3.8642219444801222,0.0,0.0
50.0,57.0,0.3,1.9162792146816463,3.8642219444801222,0.0,0.0
50.0,57.0,0.7,1.9162792146816463,3.8642219444801222,0.0,0.0
50.0,57.0,1.0,1.9162792146816463,3.8642219444801222,0.0,0.0
50.0,65.0,0.1,2.5369336306257995,4.998442037632328,0.0,0.0
50.0,65.0,0.3,2.5369336306257995,4.998442037632328,0.0,0.0
50.0,65.0,0.7,2.5369336306257995,4.998442037632328,0.0,0.0
50.0,65.0,1.0,2.5369336306257995,4.998442037632328,0.0,0.0
50.0,73.0,0.1,3.2310621817155902,6.3848203543032165,0.0,0.0
50.0,73.0,0.3,3.2310621817155902,6.3848203543032165,0.0,0.0
50.0,73.0,0.7,3.2310621817155902,6.3848203543032165,0.0,0.0
50.0,73.0,1.0,3.2310621817155902,6.3848203543032165,0.0,0.0
50.0,81.0,0.1,3.96399853496175,8.16988695538545,0.0,0.0
50.0,81.0,0.3,3.96399853496175,8.16988695538545,0.0,0.0
50.0,81.0,0.7,3.96399853496175,8.16988695538545,0.0,0.0
50.0,81.0,1.0,3.96399853496175,8.16988695538545,0.0,0.0
50.0,89.0,0.1,4.630385563557354,9.906768535162346,0.0,0.0
50.0,89.0,0.3,4.630385563557354,9.906768535162346,0.0,0.0
50.0,89.0,0.7,4.630385563557354,9.906768535162346,0.0,0.0
50.0,89.0,1.0,4.630385563557354,9.906768535162346,0.0,0.0
50.0,97.0,0.1,4.938560679081781,12.108299670602362,0.0,0.0
50.0,97.0,0.3,4.938560679081781,12.108299670602362,0.0,0.0
50.0,97.0,0.7,4.938560679081781,12.108299670602362,0.0,0.0
50.0,97.0,1.0,4.938560679081781,12.108299670602362,0.0,0.0
50.0,105.0,0.1,4.92382884176413,15.649359563912979,0.0,0.0
50.0,105.0,0.3,4.92382884176413,15.649359563912979,0.0,0.0
50.0,105.0,0.7,4.92382884176413,15.649359563912979,0.0,0.0
50.0,105.0,1.0,4.92382884176413,15.649359563912979,0.0,0.0
50.0,113.0,0.1,4.871958749616301,15.499691946443228,0.0,0.0
50.0,113.0,0.3,4.871958749616301,15.499691946443228,0.0,0.0
50.0,113.0,0.7,4.871958749616301,15.499691946443228,0.0,0.0
50.0,113.0,1.0,4.871958749616301,15.499691946443228,0.0,0.0
50.0,121.0,0.1,4.811639647174336,15.263443817492595,0.0,0.0
50.0,121.0,0.3,4.811639647174336,15.263443817492595,0.0,0.0
50.0,121.0,0.7,4.811639647174336,15.263443817492595,0.0,0.0
50.0,121.0,1.0,4.811639647174336,15.263443817492595,0.0,0.0
50.0,127.0,0.1,4.79229505407425,15.245550721302052,0.0,0.0
50.0,127.0,0.3,4.79229505407425,15.245550721302052,0.0,0.0
50.0,127.0,0.7,4.79229505407425,15.245550721302052,0.0,0.0
50.0,127.0,1.0,4.79229505407425,15.245550721302052,0.0,0.0
51.0,1.0,0.1,0.18109693439148952,0.0796382311115221,0.0,0.0
51.0,1.0,0.3,0.18109693439148952,0.0796382311115221,0.0,0.0
51.0,1.0,0.7,0.18109693439148952,0.0796382311115221,0.0,0.0
51.0,1.0,1.0,0.18109693439148952,0.0796382311115221,0.0,0.0
51.0,9.0,0.1,0.22676538281968223,0.09745209996413824,0.0,0.0
51.0,9.0,0.3,0.22676538281968223,0.09745209996413824,0.0,0.0
51.0,9.0,0.7,0.22676538281968223,0.09745209996413824,0.0,0.0
51.0,9.0,1.0,0.22676538281968223,0.09745209996413824,0.0,0.0
51.0,17.0,0.1,0.2120102426263408,0.2176370744544692,0.0,0.0
51.0,17.0,0.3,0.2120102426263408,0.2176370744544692,0.0,0.0
51.0,17.0,0.7,0.2120102426263408,0.2176370744544692,0.0,0.0
51.0,17.0,1.0,0.2120102426263408,0.2176370744544692,0.0,0.0
51.0,25.0,0.1,0.30129682732680074,0.5806121781771084,0.0,0.0
51.0,25.0,0.3,0.30129682732680074,0.5806121781771084,0.0,0.0
51.0,25.0,0.7,0.30129682732680074,0.5806121781771084,0.0,0.0
51.0,25.0,1.0,0.30129682732680074,0.5806121781771084,0.0,0.0
51.0,33.0,0.1,2.4565687447560047,1.1374493730036113,0.0,0.0
51.0,33.0,0.3,2.4565687447560047,1.1374493730036113,0.0,0.0
51.0,33.0,0.7,2.4565687447560047,1.1374493730036113,0.0,0.0
51.0,33.0,1.0,2.4565687447560047,1.1374493730036113,0.0,0.0
51.0,41.0,0.1,2.837721389139409,1.7718611261119175,0.0,0.0
51.0,41.0,0.3,2.837721389139409,1.7718611261119175,0.0,0.0
51.0,41.0,0.7,2.837721389139409,1.7718611261119175,0.0,0.0
51.0,41.0,1.0,2.837721389139409,1.7718611261119175,0.0,0.0
51.0,49.0,0.1,3.2334437611841387,2.5009485768534834,0.0,0.0
51.0,49.0,0.3,3.2334437611841387,2.5009485768534834,0.0,0.0
51.0,49.0,0.7,3.2334437611841387,2.5009485768534834,0.0,0.0
51.0,49.0,1.0,3.2334437611841387,2.5009485768534834,0.0,0.0
51.0,57.0,0.1,3.5196324465905047,3.527583616360754,0.0,0.0
51.0,57.0,0.3,3.5196324465905047,3.527583616360754,0.0,0.0
51.0,57.0,0.7,3.5196324465905047,3.527583616360754,0.0,0.0
51.0,57.0,1.0,3.5196324465905047,3.527583616360754,0.0,0.0
51.0,65.0,0.1,4.145804486701012,4.697850389517339,0.0,0.0
51.0,65.0,0.3,4.145804486701012,4.697850389517339,0.0,0.0
51.0,65.0,0.7,4.145804486701012,4.697850389517339,0.0,0.0
51.0,65.0,1.0,4.145804486701012,4.697850389517339,0.0,0.0
51.0,73.0,0.1,4.92148815400322,6.283291897688933,0.0,0.0
51.0,73.0,0.3,4.92148815400322,6.283291897688933,0.0,0.0
51.0,73.0,0.7,4.92148815400322,6.283291897688933,0.0,0.0
51.0,73.0,1.0,4.92148815400322,6.283291897688933,0.0,0.0
51.0,81.0,0.1,5.871517081941427,7.876606472840844,0.0,0.0
51.0,81.0,0.3,5.871517081941427,7.876606472840844,0.0,0.0
51.0,81.0,0.7,5.871517081941427,7.876606472840844,0.0,0.0
51.0,81.0,1.0,5.871517081941427,7.876606472840844,0.0,0.0
51.0,89.0,0.1,6.889851612325256,9.451146972113028,0.0,0.0
51.0,89.0,0.3,6.889851612325256,9.451146972113028,0.0,0.0
51.0,89.0,0.7,6.889851612325256,9.451146972113028,0.0,0.0
51.0,89.0,1.0,6.889851612325256,9.451146972113028,0.0,0.0
51.0,97.0,0.1,7.260607350070021,11.25687650594853,0.0,0.0
51.0,97.0,0.3,7.260607350070021,11.25687650594853,0.0,0.0
51.0,97.0,0.7,7.260607350070021,11.25687650594853,0.0,0.0
51.0,97.0,1.0,7.260607350070021,11.25687650594853,0.0,0.0
51.0,105.0,0.1,7.279270059191542,13.722990758755914,0.0,0.0
51.0,105.0,0.3,7.279270059191542,13.722990758755914,0.0,0.0
51.0,105.0,0.7,7.279270059191542,13.722990758755914,0.0,0.0
51.0,105.0,1.0,7.279270059191542,13.722990758755914,0.0,0.0
51.0,113.0,0.1,7.264631138576445,14.402555536457283,0.0,0.0
51.0,113.0,0.3,7.264631138576445,14.402555536457283,0.0,0.0
51.0,113.0,0.7,7.264631138576445,14.402555536457283,0.0,0.0
51.0,113.0,1.0,7.264631138576445,14.402555536457283,0.0,0.0
51.0,121.0,0.1,7.241133556963641,14.249279417928342,0.0,0.0
51.0,121.0,0.3,7.241133556963641,14.249279417928342,0.0,0.0
51.0,121.0,0.7,7.241133556963641,14.249279417928342,0.0,0.0
51.0,121.0,1.0,7.241133556963641,14.249279417928342,0.0,0.0
51.0,127.0,0.1,7.200185852352973,14.429699418654486,0.0,0.0
51.0,127.0,0.3,7.200185852352973,14.429699418654486,0.0,0.0
51.0,127.0,0.7,7.200185852352973,14.429699418654486,0.0,0.0
51.0,127.0,1.0,7.200185852352973,14.429699418654486,0.0,0.0
52.0,1.0,0.1,0.8112251583420769,0.2615574416035151,0.0,0.0
52.0,1.0,0.3,0.8112251583420769,0.2615574416035151,0.0,0.0
52.0,1.0,0.7,0.8112251583420769,0.2615574416035151,0.0,0.0
52.0,1.0,1.0,0.8112251583420769,0.2615574416035151,0.0,0.0
52.0,9.0,0.1,0.637913934246696,0.2607048794242198,0.0,0.0
52.0,9.0,0.3,0.637913934246696,0.2607048794242198,0.0,0.0
52.0,9.0,0.7,0.637913934246696,0.2607048794242198,0.0,0.0
52.0,9.0,1.0,0.637913934246696,0.2607048794242198,0.0,0.0
52.0,17.0,0.1,0.5960499260529648,0.7817650666868704,0.0,0.0
52.0,17.0,0.3,0.5960499260529648,0.7817650666868704,0.0,0.0
52.0,17.0,0.7,0.5960499260529648,0.7817650666868704,0.0,0.0
52.0,17.0,1.0,0.5960499260529648,0.7817650666868704,0.0,0.0
52.0,25.0,0.1,0.7302747857967691,1.3677204723876466,0.0,0.0
52.0,25.0,0.3,0.7302747857967691,1.3677204723876466,0.0,0.0
52.0,25.0,0.7,0.7302747857967691,1.3677204723876466,0.0,0.0
52.0,25.0,1.0,0.7302747857967691,1.3677204723876466,0.0,0.0
52.0,33.0,0.1,0.8961863618921263,1.9945874293987453,0.0,0.0
52.0,33.0,0.3,0.8961863618921263,1.9945874293987453,0.0,0.0
52.0,33.0,0.7,0.8961863618921263,1.9945874293987453,0.0,0.0
52.0,33.0,1.0,0.8961863618921263,1.9945874293987453,0.0,0.0
52.0,41.0,0.1,1.1534671650957395,2.7196685373482943,0.0,0.0
52.0,41.0,0.3,1.1534671650957395,2.7196685373482943,0.0,0.0
52.0,41.0,0.7,1.1534671650957395,2.7196685373482943,0.0,0.0
52.0,41.0,1.0,1.1534671650957395,2.7196685373482943,0.0,0.0
52.0,49.0,0.1,1.619482316830741,3.711027882228371,0.0,0.0
52.0,49.0,0.3,1.619482316830741,3.711027882228371,0.0,0.0
52.0,49.0,0.7,1.619482316830741,3.711027882228371,0.0,0.0
52.0,49.0,1.0,1.619482316830741,3.711027882228371,0.0,0.0
52.0,57.0,0.1,2.109091382176854,4.870642907802882,0.0,0.0
52.0,57.0,0.3,2.109091382176854,4.870642907802882,0.0,0.0
52.0,57.0,0.7,2.109091382176854,4.870642907802882,0.0,0.0
52.0,57.0,1.0,2.109091382176854,4.870642907802882,0.0,0.0
52.0,65.0,0.1,2.7573353560491105,6.317780264816886,0.0,0.0
52.0,65.0,0.3,2.7573353560491105,6.317780264816886,0.0,0.0
52.0,65.0,0.7,2.7573353560491105,6.317780264816886,0.0,0.0
52.0,65.0,1.0,2.7573353560491105,6.317780264816886,0.0,0.0
52.0,73.0,0.1,3.623846522861072,7.826528022539218,0.0,0.0
52.0,73.0,0.3,3.623846522861072,7.826528022539218,0.0,0.0
52.0,73.0,0.7,3.623846522861072,7.826528022539218,0.0,0.0
52.0,73.0,1.0,3.623846522861072,7.826528022539218,0.0,0.0
52.0,81.0,0.1,4.412266366116531,9.682156268120433,0.0,0.0
52.0,81.0,0.3,4.412266366116531,9.682156268120433,0.0,0.0
52.0,81.0,0.7,4.412266366116531,9.682156268120433,0.0,0.0
52.0,81.0,1.0,4.412266366116531,9.682156268120433,0.0,0.0
52.0,89.0,0.1,4.974734427440031,11.468816453506362,0.0,0.0
52.0,89.0,0.3,4.974734427440031,11.468816453506362,0.0,0.0
52.0,89.0,0.7,4.974734427440031,11.468816453506362,0.0,0.0
52.0,89.0,1.0,4.974734427440031,11.468816453506362,0.0,0.0
52.0,97.0,0.1,5.373321723492712,13.333699399792998,0.0,0.0
52.0,97.0,0.3,5.373321723492712,13.333699399792998,0.0,0.0
52.0,97.0,0.7,5.373321723492712,13.333699399792998,0.0,0.0
52.0,97.0,1.0,5.373321723492712,13.333699399792998,0.0,0.0
52.0,105.0,0.1,5.316782298892868,15.622285596290677,0.0,0.0
52.0,105.0,0.3,5.316782298892868,15.622285596290677,0.0,0.0
52.0,105.0,0.7,5.316782298892868,15.622285596290677,0.0,0.0
52.0,105.0,1.0,5.316782298892868,15.622285596290677,0.0,0.0
52.0,113.0,0.1,5.2784142800535685,0.6060610600744308,0.0,0.0
52.0,113.0,0.3,5.2784142800535685,0.6060610600744308,0.0,0.0
52.0,113.0,0.7,5.2784142800535685,0.6060610600744308,0.0,0.0
52.0,113.0,1.0,5.2784142800535685,0.6060610600744308,0.0,0.0
52.0,121.0,0.1,5.216852053143731,3.671827014450179e-06,0.0,0.0
52.0,121.0,0.3,5.216852053143731,3.671827014450179e-06,0.0,0.0
52.0,121.0,0.7,5.216852053143731,3.671827014450179e-06,0.0,0.0
52.0,121.0,1.0,5.216852053143731,3.671827014450179e-06,0.0,0.0
52.0,127.0,0.1,5.188377634686084,3.1858545292506654e-06,0.0,0.0
52.0,127.0,0.3,5.188377634686084,3.1858545292506654e-06,0.0,0.0
52.0,127.0,0.7,5.188377634686084,3.1858545292506654e-06,0.0,0.0
52.0,127.0,1.0,5.188377634686084,3.1858545292506654e-06,0.0,0.0
53.0,1.0,0.1,1.23780447977701,0.1788855478845893,0.0,0.0
53.0,1.0,0.3,1.23780447977701,0.1788855478845893,0.0,0.0
53.0,1.0,0.7,1.23780447977701,0.1788855478845893,0.0,0.0
53.0,1.0,1.0,1.23780447977701,0.1788855478845893,0.0,0.0
53.0,9.0,0.1,1.027408663310759,0.25137884974198216,0.0,0.0
53.0,9.0,0.3,1.027408663310759,0.25137884974198216,0.0,0.0
53.0,9.0,0.7,1.027408663310759,0.25137884974198216,0.0,0.0
53.0,9.0,1.0,1.027408663310759,0.25137884974198216,0.0,0.0
53.0,17.0,0.1,0.968716382740102,0.5680994936963328,0.0,0.0
53.0,17.0,0.3,0.968716382740102,0.5680994936963328,0.0,0.0
53.0,17.0,0.7,0.968716382740102,0.5680994936963328,0.0,0.0
53.0,17.0,1.0,0.968716382740102,0.5680994936963328,0.0,0.0
53.0,25.0,0.1,0.9179136511269532,1.1287150011383713,0.0,0.0
53.0,25.0,0.3,0.9179136511269532,1.1287150011383713,0.0,0.0
53.0,25.0,0.7,0.9179136511269532,1.1287150011383713,0.0,0.0
53.0,25.0,1.0,0.9179136511269532,1.1287150011383713,0.0,0.0
53.0,33.0,0.1,1.133811846916286,1.6750755909140502,0.0,0.0
53.0,33.0,0.3,1.133811846916286,1.6750755909140502,0.0,0.0
53.0,33.0,0.7,1.133811846916286,1.6750755909140502,0.0,0.0
53.0,33.0,1.0,1.133811846916286,1.6750755909140502,0.0,0.0
53.0,41.0,0.1,1.6098265177083613,2.418527662853034,0.0,0.0
53.0,41.0,0.3,1.6098265177083613,2.418527662853034,0.0,0.0
53.0,41.0,0.7,1.6098265177083613,2.418527662853034,0.0,0.0
53.0,41.0,1.0,1.6098265177083613,2.418527662853034,0.0,0.0
53.0,49.0,0.1,2.1738971038892045,3.113859185661309,0.0,0.0
53.0,49.0,0.3,2.1738971038892045,3.113859185661309,0.0,0.0
53.0,49.0,0.7,2.1738971038892045,3.113859185661309,0.0,0.0
53.0,49.0,1.0,2.1738971038892045,3.113859185661309,0.0,0.0
53.0,57.0,0.1,2.3865939448756954,4.341341657615589,0.0,0.0
53.0,57.0,0.3,2.3865939448756954,4.341341657615589,0.0,0.0
53.0,57.0,0.7,2.3865939448756954,4.341341657615589,0.0,0.0
53.0,57.0,1.0,2.3865939448756954,4.341341657615589,0.0,0.0
53.0,65.0,0.1,3.1783225011253324,5.48286176805913,0.0,0.0
53.0,65.0,0.3,3.1783225011253324,5.48286176805913,0.0,0.0
53.0,65.0,0.7,3.1783225011253324,5.48286176805913,0.0,0.0
53.0,65.0,1.0,3.1783225011253324,5.48286176805913,0.0,0.0
53.0,73.0,0.1,4.157976667241886,6.672463250960734,0.0,0.0
53.0,73.0,0.3,4.157976667241886,6.672463250960734,0.0,0.0
53.0,73.0,0.7,4.157976667241886,6.672463250960734,0.0,0.0
53.0,73.0,1.0,4.157976667241886,6.672463250960734,0.0,0.0
53.0,81.0,0.1,5.156120604605852,8.36222162892305,0.0,0.0
53.0,81.0,0.3,5.156120604605852,8.36222162892305,0.0,0.0
53.0,81.0,0.7,5.156120604605852,8.36222162892305,0.0,0.0
53.0,81.0,1.0,5.156120604605852,8.36222162892305,0.0,0.0
53.0,89.0,0.1,6.087258209689092,10.22422974850779,0.0,0.0
53.0,89.0,0.3,6.087258209689092,10.22422974850779,0.0,0.0
53.0,89.0,0.7,6.087258209689092,10.22422974850779,0.0,0.0
53.0,89.0,1.0,6.087258209689092,10.22422974850779,0.0,0.0
53.0,97.0,0.1,6.522086430273254,14.743472911946379,0.0,0.0
53.0,97.0,0.3,6.522086430273254,14.743472911946379,0.0,0.0
53.0,97.0,0.7,6.522086430273254,14.743472911946379,0.0,0.0
53.0,97.0,1.0,6.522086430273254,14.743472911946379,0.0,0.0
53.0,105.0,0.1,6.476479701568752,15.930591559027752,0.0,0.0
53.0,105.0,0.3,6.476479701568752,15.930591559027752,0.0,0.0
53.0,105.0,0.7,6.476479701568752,15.930591559027752,0.0,0.0
53.0,105.0,1.0,6.476479701568752,15.930591559027752,0.0,0.0
53.0,113.0,0.1,6.424795371465075,15.902829475751828,0.0,0.0
53.0,113.0,0.3,6.424795371465075,15.902829475751828,0.0,0.0
53.0,113.0,0.7,6.424795371465075,15.902829475751828,0.0,0.0
53.0,113.0,1.0,6.424795371465075,15.902829475751828,0.0,0.0
53.0,121.0,0.1,6.400305642422195,15.854741947767234,0.0,0.0
53.0,121.0,0.3,6.400305642422195,15.854741947767234,0.0,0.0
53.0,121.0,0.7,6.400305642422195,15.854741947767234,0.0,0.0
53.0,121.0,1.0,6.400305642422195,15.854741947767234,0.0,0.0
53.0,127.0,0.1,6.365396351003164,15.848837267701724,0.0,0.0
53.0,127.0,0.3,6.365396351003164,15.848837267701724,0.0,0.0
53.0,127.0,0.7,6.365396351003164,15.848837267701724,0.0,0.0
53.0,127.0,1.0,6.365396351003164,15.848837267701724,0.0,0.0
54.0,1.0,0.1,1.5882082810940317,0.29967002914671076,0.0,0.0
54.0,1.0,0.3,1.5882082810940317,0.29967002914671076,0.0,0.0
54.0,1.0,0.7,1.5882082810940317,0.29967002914671076,0.0,0.0
54.0,1.0,1.0,1.5882082810940317,0.29967002914671076,0.0,0.0
54.0,9.0,0.1,1.5032474432953422,0.3251820278137794,0.0,0.0
54.0,9.0,0.3,1.5032474432953422,0.3251820278137794,0.0,0.0
54.0,9.0,0.7,1.5032474432953422,0.3251820278137794,0.0,0.0
54.0,9.0,1.0,1.5032474432953422,0.3251820278137794,0.0,0.0
54.0,17.0,0.1,1.492799677636243,0.6944591266826846,0.0,0.0
54.0,17.0,0.3,1.492799677636243,0.6944591266826846,0.0,0.0
54.0,17.0,0.7,1.492799677636243,0.6944591266826846,0.0,0.0
54.0,17.0,1.0,1.492799677636243,0.6944591266826846,0.0,0.0
54.0,25.0,0.1,1.616984499871835,1.2330294941966087,0.0,0.0
54.0,25.0,0.3,1.616984499871835,1.2330294941966087,0.0,0.0
54.0,25.0,0.7,1.616984499871835,1.2330294941966087,0.0,0.0
54.0,25.0,1.0,1.616984499871835,1.2330294941966087,0.0,0.0
54.0,33.0,0.1,1.7293130799368457,1.9474330797385535,0.0,0.0
54.0,33.0,0.3,1.7293130799368457,1.9474330797385535,0.0,0.0
54.0,33.0,0.7,1.7293130799368457,1.9474330797385535,0.0,0.0
54.0,33.0,1.0,1.7293130799368457,1.9474330797385535,0.0,0.0
54.0,41.0,0.1,1.9035012349928528,2.9868092768500056,0.0,0.0
54.0,41.0,0.3,1.9035012349928528,2.9868092768500056,0.0,0.0
54.0,41.0,0.7,1.9035012349928528,2.9868092768500056,0.0,0.0
54.0,41.0,1.0,1.9035012349928528,2.9868092768500056,0.0,0.0
54.0,49.0,0.1,2.2545608822559284,4.122200620631919,0.0,0.0
54.0,49.0,0.3,2.2545608822559284,4.122200620631919,0.0,0.0
54.0,49.0,0.7,2.2545608822559284,4.122200620631919,0.0,0.0
54.0,49.0,1.0,2.2545608822559284,4.122200620631919,0.0,0.0
54.0,57.0,0.1,2.674367788210601,5.426050369313225,0.0,0.0
54.0,57.0,0.3,2.674367788210601,5.426050369313225,0.0,0.0
54.0,57.0,0.7,2.674367788210601,5.426050369313225,0.0,0.0
54.0,57.0,1.0,2.674367788210601,5.426050369313225,0.0,0.0
54.0,65.0,0.1,3.1463937867592415,6.706909379354271,0.0,0.0
54.0,65.0,0.3,3.1463937867592415,6.706909379354271,0.0,0.0
54.0,65.0,0.7,3.1463937867592415,6.706909379354271,0.0,0.0
54.0,65.0,1.0,3.1463937867592415,6.706909379354271,0.0,0.0
54.0,73.0,0.1,3.868412476850633,8.263994581955242,0.0,0.0
54.0,73.0,0.3,3.868412476850633,8.263994581955242,0.0,0.0
54.0,73.0,0.7,3.868412476850633,8.263994581955242,0.0,0.0
54.0,73.0,1.0,3.868412476850633,8.263994581955242,0.0,0.0
54.0,81.0,0.1,4.757834678603118,10.352940101741872,0.0,0.0
54.0,81.0,0.3,4.757834678603118,10.352940101741872,0.0,0.0
54.0,81.0,0.7,4.757834678603118,10.352940101741872,0.0,0.0
54.0,81.0,1.0,4.757834678603118,10.352940101741872,0.0,0.0
54.0,89.0,0.1,5.525306633868881,12.26669561851058,0.0,0.0
54.0,89.0,0.3,5.525306633868881,12.26669561851058,0.0,0.0
54.0,89.0,0.7,5.525306633868881,12.26669561851058,0.0,0.0
54.0,89.0,1.0,5.525306633868881,12.26669561851058,0.0,0.0
54.0,97.0,0.1,5.933513488469941,14.057682618249581,0.0,0.0
54.0,97.0,0.3,5.933513488469941,14.057682618249581,0.0,0.0
54.0,97.0,0.7,5.933513488469941,14.057682618249581,0.0,0.0
54.0,97.0,1.0,5.933513488469941,14.057682618249581,0.0,0.0
54.0,105.0,0.1,5.904334860918003,17.320537273044792,0.0,0.0
54.0,105.0,0.3,5.904334860918003,17.320537273044792,0.0,0.0
54.0,105.0,0.7,5.904334860918003,17.320537273044792,0.0,0.0
54.0,105.0,1.0,5.904334860918003,17.320537273044792,0.0,0.0
54.0,113.0,0.1,5.9012308174228405,16.94412495372559,0.0,0.0
54.0,113.0,0.3,5.9012308174228405,16.94412495372559,0.0,0.0
54.0,113.0,0.7,5.9012308174228405,16.94412495372559,0.0,0.0
54.0,113.0,1.0,5.9012308174228405,16.94412495372559,0.0,0.0
54.0,121.0,0.1,5.8471324094728265,16.97478418382887,0.0,0.0
54.0,121.0,0.3,5.8471324094728265,16.97478418382887,0.0,0.0
54.0,121.0,0.7,5.8471324094728265,16.97478418382887,0.0,0.0
54.0,121.0,1.0,5.8471324094728265,16.97478418382887,0.0,0.0
54.0,127.0,0.1,5.841769191382079,16.951236082088073,0.0,0.0
54.0,127.0,0.3,5.841769191382079,16.951236082088073,0.0,0.0
54.0,127.0,0.7,5.841769191382079,16.951236082088073,0.0,0.0
54.0,127.0,1.0,5.841769191382079,16.951236082088073,0.0,0.0
55.0,1.0,0.1,0.6114066106791936,0.32606502684037014,0.0,0.0
55.0,1.0,0.3,0.6114066106791936,0.32606502684037014,0.0,0.0
55.0,1.0,0.7,0.6114066106791936,0.32606502684037014,0.0,0.0
55.0,1.0,1.0,0.6114066106791936,0.32606502684037014,0.0,0.0
55.0,9.0,0.1,0.4231639389349018,0.347778480482466,0.0,0.0
55.0,9.0,0.3,0.4231639389349018,0.347778480482466,0.0,0.0
55.0,9.0,0.7,0.4231639389349018,0.347778480482466,0.0,0.0
55.0,9.0,1.0,0.4231639389349018,0.347778480482466,0.0,0.0
55.0,17.0,0.1,0.30983976285449855,0.8339002306352749,0.0,0.0
55.0,17.0,0.3,0.30983976285449855,0.8339002306352749,0.0,0.0
55.0,17.0,0.7,0.30983976285449855,0.8339002306352749,0.0,0.0
55.0,17.0,1.0,0.30983976285449855,0.8339002306352749,0.0,0.0
55.0,25.0,0.1,0.9311161766712841,1.4216088704771184,0.0,0.0
55.0,25.0,0.3,0.9311161766712841,1.4216088704771184,0.0,0.0
55.0,25.0,0.7,0.9311161766712841,1.4216088704771184,0.0,0.0
55.0,25.0,1.0,0.9311161766712841,1.4216088704771184,0.0,0.0
55.0,33.0,0.1,1.5033399652300485,2.014925100178749,0.0,0.0
55.0,33.0,0.3,1.5033399652300485,2.014925100178749,0.0,0.0
55.0,33.0,0.7,1.5033399652300485,2.014925100178749,0.0,0.0
55.0,33.0,1.0,1.5033399652300485,2.014925100178749,0.0,0.0
55.0,41.0,0.1,2.0611002672539422,2.854374241919829,0.0,0.0
55.0,41.0,0.3,2.0611002672539422,2.854374241919829,0.0,0.0
55.0,41.0,0.7,2.0611002672539422,2.854374241919829,0.0,0.0
55.0,41.0,1.0,2.0611002672539422,2.854374241919829,0.0,0.0
55.0,49.0,0.1,2.492490062763538,3.8564727432922585,0.0,0.0
55.0,49.0,0.3,2.492490062763538,3.8564727432922585,0.0,0.0
55.0,49.0,0.7,2.492490062763538,3.8564727432922585,0.0,0.0
55.0,49.0,1.0,2.492490062763538,3.8564727432922585,0.0,0.0
55.0,57.0,0.1,2.977268953432012,5.078016864188013,0.0,0.0
55.0,57.0,0.3,2.977268953432012,5.078016864188013,0.0,0.0
55.0,57.0,0.7,2.977268953432012,5.078016864188013,0.0,0.0
55.0,57.0,1.0,2.977268953432012,5.078016864188013,0.0,0.0
55.0,65.0,0.1,3.7219134984788345,6.428633464692144,0.0,0.0
55.0,65.0,0.3,3.7219134984788345,6.428633464692144,0.0,0.0
55.0,65.0,0.7,3.7219134984788345,6.428633464692144,0.0,0.0
55.0,65.0,1.0,3.7219134984788345,6.428633464692144,0.0,0.0
55.0,73.0,0.1,4.614997182804785,7.880250628278524,0.0,0.0
55.0,73.0,0.3,4.614997182804785,7.880250628278524,0.0,0.0
55.0,73.0,0.7,4.614997182804785,7.880250628278524,0.0,0.0
55.0,73.0,1.0,4.614997182804785,7.880250628278524,0.0,0.0
55.0,81.0,0.1,5.6426579449056975,9.917937096350032,0.0,0.0
55.0,81.0,0.3,5.6426579449056975,9.917937096350032,0.0,0.0
55.0,81.0,0.7,5.6426579449056975,9.917937096350032,0.0,0.0
55.0,81.0,1.0,5.6426579449056975,9.917937096350032,0.0,0.0
55.0,89.0,0.1,6.555380440388059,13.223978621044656,0.0,0.0
55.0,89.0,0.3,6.555380440388059,13.223978621044656,0.0,0.0
55.0,89.0,0.7,6.555380440388059,13.223978621044656,0.0,0.0
55.0,89.0,1.0,6.555380440388059,13.223978621044656,0.0,0.0
55.0,97.0,0.1,7.060895014381504,17.14430231071317,0.0,0.0
55.0,97.0,0.3,7.060895014381504,17.14430231071317,0.0,0.0
55.0,97.0,0.7,7.060895014381504,17.14430231071317,0.0,0.0
55.0,97.0,1.0,7.060895014381504,17.14430231071317,0.0,0.0
55.0,105.0,0.1,7.059923200816412,17.07626378814543,0.0,0.0
55.0,105.0,0.3,7.059923200816412,17.07626378814543,0.0,0.0
55.0,105.0,0.7,7.059923200816412,17.07626378814543,0.0,0.0
55.0,105.0,1.0,7.059923200816412,17.07626378814543,0.0,0.0
55.0,113.0,0.1,7.071954225322824,17.038781335524263,0.0,0.0
55.0,113.0,0.3,7.071954225322824,17.038781335524263,0.0,0.0
55.0,113.0,0.7,7.071954225322824,17.038781335524263,0.0,0.0
55.0,113.0,1.0,7.071954225322824,17.038781335524263,0.0,0.0
55.0,121.0,0.1,7.046940660794868,17.016220268050326,0.0,0.0
55.0,121.0,0.3,7.046940660794868,17.016220268050326,0.0,0.0
55.0,121.0,0.7,7.046940660794868,17.016220268050326,0.0,0.0
55.0,121.0,1.0,7.046940660794868,17.016220268050326,0.0,0.0
55.0,127.0,0.1,7.025513442778609,16.981638947888865,0.0,0.0
55.0,127.0,0.3,7.025513442778609,16.981638947888865,0.0,0.0
55.0,127.0,0.7,7.025513442778609,16.981638947888865,0.0,0.0
55.0,127.0,1.0,7.025513442778609,16.981638947888865,0.0,0.0
56.0,1.0,0.1,2.3238252817947873,0.41873613907517093,0.0,0.0
56.0,1.0,0.3,2.3238252817947873,0.41873613907517093,0.0,0.0
56.0,1.0,0.7,2.3238252817947873,0.41873613907517093,0.0,0.0
56.0,1.0,1.0,2.3238252817947873,0.41873613907517093,0.0,0.0
56.0,9.0,0.1,2.341706742611053,0.4806843318261903,0.0,0.0
56.0,9.0,0.3,2.341706742611053,0.4806843318261903,0.0,0.0
56.0,9.0,0.7,2.341706742611053,0.4806843318261903,0.0,0.0
56.0,9.0,1.0,2.341706742611053,0.4806843318261903,0.0,0.0
56.0,17.0,0.1,2.2937629714043353,0.7212917546390439,0.0,0.0
56.0,17.0,0.3,2.2937629714043353,0.7212917546390439,0.0,0.0
56.0,17.0,0.7,2.2937629714043353,0.7212917546390439,0.0,0.0
56.0,17.0,1.0,2.2937629714043353,0.7212917546390439,0.0,0.0
56.0,25.0,0.1,2.2460076826504327,1.254200627112925,0.0,0.0
56.0,25.0,0.3,2.2460076826504327,1.254200627112925,0.0,0.0
56.0,25.0,0.7,2.2460076826504327,1.254200627112925,0.0,0.0
56.0,25.0,1.0,2.2460076826504327,1.254200627112925,0.0,0.0
56.0,33.0,0.1,2.364643364740057,1.8330623921323226,0.0,0.0
56.0,33.0,0.3,2.364643364740057,1.8330623921323226,0.0,0.0
56.0,33.0,0.7,2.364643364740057,1.8330623921323226,0.0,0.0
56.0,33.0,1.0,2.364643364740057,1.8330623921323226,0.0,0.0
56.0,41.0,0.1,2.750658684722856,2.6532288054464312,0.0,0.0
56.0,41.0,0.3,2.750658684722856,2.6532288054464312,0.0,0.0
56.0,41.0,0.7,2.750658684722856,2.6532288054464312,0.0,0.0
56.0,41.0,1.0,2.750658684722856,2.6532288054464312,0.0,0.0
56.0,49.0,0.1,3.3849680706858116,3.6011709381778543,0.0,0.0
56.0,49.0,0.3,3.3849680706858116,3.6011709381778543,0.0,0.0
56.0,49.0,0.7,3.3849680706858116,3.6011709381778543,0.0,0.0
56.0,49.0,1.0,3.3849680706858116,3.6011709381778543,0.0,0.0
56.0,57.0,0.1,3.972449003927937,4.480598881769202,0.0,0.0
56.0,57.0,0.3,3.972449003927937,4.480598881769202,0.0,0.0
56.0,57.0,0.7,3.972449003927937,4.480598881769202,0.0,0.0
56.0,57.0,1.0,3.972449003927937,4.480598881769202,0.0,0.0
56.0,65.0,0.1,4.665608804307974,5.475698711165309,0.0,0.0
56.0,65.0,0.3,4.665608804307974,5.475698711165309,0.0,0.0
56.0,65.0,0.7,4.665608804307974,5.475698711165309,0.0,0.0
56.0,65.0,1.0,4.665608804307974,5.475698711165309,0.0,0.0
56.0,73.0,0.1,5.565515374286974,6.871163823795869,0.0,0.0
56.0,73.0,0.3,5.565515374286974,6.871163823795869,0.0,0.0
56.0,73.0,0.7,5.565515374286974,6.871163823795869,0.0,0.0
56.0,73.0,1.0,5.565515374286974,6.871163823795869,0.0,0.0
56.0,81.0,0.1,6.366232986422488,8.619697997391789,0.0,0.0
56.0,81.0,0.3,6.366232986422488,8.619697997391789,0.0,0.0
56.0,81.0,0.7,6.366232986422488,8.619697997391789,0.0,0.0
56.0,81.0,1.0,6.366232986422488,8.619697997391789,0.0,0.0
56.0,89.0,0.1,7.135077042365083,10.331225589797334,0.0,0.0
56.0,89.0,0.3,7.135077042365083,10.331225589797334,0.0,0.0
56.0,89.0,0.7,7.135077042365083,10.331225589797334,0.0,0.0
56.0,89.0,1.0,7.135077042365083,10.331225589797334,0.0,0.0
56.0,97.0,0.1,7.581480290322963,12.713447257867685,0.0,0.0
56.0,97.0,0.3,7.581480290322963,12.713447257867685,0.0,0.0
56.0,97.0,0.7,7.581480290322963,12.713447257867685,0.0,0.0
56.0,97.0,1.0,7.581480290322963,12.713447257867685,0.0,0.0
56.0,105.0,0.1,7.558060656645672,15.444972996409517,0.0,0.0
56.0,105.0,0.3,7.558060656645672,15.444972996409517,0.0,0.0
56.0,105.0,0.7,7.558060656645672,15.444972996409517,0.0,0.0
56.0,105.0,1.0,7.558060656645672,15.444972996409517,0.0,0.0
56.0,113.0,0.1,7.499962274461936,15.376793563837909,0.0,0.0
56.0,113.0,0.3,7.499962274461936,15.376793563837909,0.0,0.0
56.0,113.0,0.7,7.499962274461936,15.376793563837909,0.0,0.0
56.0,113.0,1.0,7.499962274461936,15.376793563837909,0.0,0.0
56.0,121.0,0.1,7.466052566016306,15.353734439191323,0.0,0.0
56.0,121.0,0.3,7.466052566016306,15.353734439191323,0.0,0.0
56.0,121.0,0.7,7.466052566016306,15.353734439191323,0.0,0.0
56.0,121.0,1.0,7.466052566016306,15.353734439191323,0.0,0.0
56.0,127.0,0.1,7.456753887413957,15.336683222949132,0.0,0.0
56.0,127.0,0.3,7.456753887413957,15.336683222949132,0.0,0.0
56.0,127.0,0.7,7.456753887413957,15.336683222949132,0.0,0.0
56.0,127.0,1.0,7.456753887413957,15.336683222949132,0.0,0.0
57.0,1.0,0.1,1.233283819363445,0.3197010161712192,0.0,0.0
57.0,1.0,0.3,1.233283819363445,0.3197010161712192,0.0,0.0
57.0,1.0,0.7,1.233283819363445,0.3197010161712192,0.0,0.0
57.0,1.0,1.0,1.233283819363445,0.3197010161712192,0.0,0.0
57.0,9.0,0.1,1.2758708116006017,0.3614887011418684,0.0,0.0
57.0,9.0,0.3,1.2758708116006017,0.3614887011418684,0.0,0.0
57.0,9.0,0.7,1.2758708116006017,0.3614887011418684,0.0,0.0
57.0,9.0,1.0,1.2758708116006017,0.3614887011418684,0.0,0.0
57.0,17.0,0.1,1.2561289127147763,0.6256737409126845,0.0,0.0
57.0,17.0,0.3,1.2561289127147763,0.6256737409126845,0.0,0.0
57.0,17.0,0.7,1.2561289127147763,0.6256737409126845,0.0,0.0
57.0,17.0,1.0,1.2561289127147763,0.6256737409126845,0.0,0.0
57.0,25.0,0.1,1.241628951326294,0.9720360715126388,0.0,0.0
57.0,25.0,0.3,1.241628951326294,0.9720360715126388,0.0,0.0
57.0,25.0,0.7,1.241628951326294,0.9720360715126388,0.0,0.0
57.0,25.0,1.0,1.241628951326294,0.9720360715126388,0.0,0.0
57.0,33.0,0.1,1.481586525713302,1.3338204192644776,0.0,0.0
57.0,33.0,0.3,1.481586525713302,1.3338204192644776,0.0,0.0
57.0,33.0,0.7,1.481586525713302,1.3338204192644776,0.0,0.0
57.0,33.0,1.0,1.481586525713302,1.3338204192644776,0.0,0.0
57.0,41.0,0.1,1.8896955219072094,2.1454817011943956,0.0,0.0
57.0,41.0,0.3,1.8896955219072094,2.1454817011943956,0.0,0.0
57.0,41.0,0.7,1.8896955219072094,2.1454817011943956,0.0,0.0
57.0,41.0,1.0,1.8896955219072094,2.1454817011943956,0.0,0.0
57.0,49.0,0.1,2.402787446613392,2.849628388690903,0.0,0.0
57.0,49.0,0.3,2.402787446613392,2.849628388690903,0.0,0.0
57.0,49.0,0.7,2.402787446613392,2.849628388690903,0.0,0.0
57.0,49.0,1.0,2.402787446613392,2.849628388690903,0.0,0.0
57.0,57.0,0.1,2.8492681759675986,3.923709925514194,0.0,0.0
57.0,57.0,0.3,2.8492681759675986,3.923709925514194,0.0,0.0
57.0,57.0,0.7,2.8492681759675986,3.923709925514194,0.0,0.0
57.0,57.0,1.0,2.8492681759675986,3.923709925514194,0.0,0.0
57.0,65.0,0.1,3.6328012087450205,5.162084411056955,0.0,0.0
57.0,65.0,0.3,3.6328012087450205,5.162084411056955,0.0,0.0
57.0,65.0,0.7,3.6328012087450205,5.162084411056955,0.0,0.0
57.0,65.0,1.0,3.6328012087450205,5.162084411056955,0.0,0.0
57.0,73.0,0.1,4.5542946480682325,6.360725092935183,0.0,0.0
57.0,73.0,0.3,4.5542946480682325,6.360725092935183,0.0,0.0
57.0,73.0,0.7,4.5542946480682325,6.360725092935183,0.0,0.0
57.0,73.0,1.0,4.5542946480682325,6.360725092935183,0.0,0.0
57.0,81.0,0.1,5.537573111243954,8.06404172985486,0.0,0.0
57.0,81.0,0.3,5.537573111243954,8.06404172985486,0.0,0.0
57.0,81.0,0.7,5.537573111243954,8.06404172985486,0.0,0.0
57.0,81.0,1.0,5.537573111243954,8.06404172985486,0.0,0.0
57.0,89.0,0.1,6.415976742153243,9.73075123629623,0.0,0.0
57.0,89.0,0.3,6.415976742153243,9.73075123629623,0.0,0.0
57.0,89.0,0.7,6.415976742153243,9.73075123629623,0.0,0.0
57.0,89.0,1.0,6.415976742153243,9.73075123629623,0.0,0.0
57.0,97.0,0.1,7.0810417376691746,12.337832991078876,0.0,0.0
57.0,97.0,0.3,7.0810417376691746,12.337832991078876,0.0,0.0
57.0,97.0,0.7,7.0810417376691746,12.337832991078876,0.0,0.0
57.0,97.0,1.0,7.0810417376691746,12.337832991078876,0.0,0.0
57.0,105.0,0.1,7.060722754633311,15.204306313661558,0.0,0.0
57.0,105.0,0.3,7.060722754633311,15.204306313661558,0.0,0.0
57.0,105.0,0.7,7.060722754633311,15.204306313661558,0.0,0.0
57.0,105.0,1.0,7.060722754633311,15.204306313661558,0.0,0.0
57.0,113.0,0.1,7.0139925358773425,15.43450226642115,0.0,0.0
57.0,113.0,0.3,7.0139925358773425,15.43450226642115,0.0,0.0
57.0,113.0,0.7,7.0139925358773425,15.43450226642115,0.0,0.0
57.0,113.0,1.0,7.0139925358773425,15.43450226642115,0.0,0.0
57.0,121.0,0.1,6.980397095550671,15.271705833188852,0.0,0.0
57.0,121.0,0.3,6.980397095550671,15.271705833188852,0.0,0.0
57.0,121.0,0.7,6.980397095550671,15.271705833188852,0.0,0.0
57.0,121.0,1.0,6.980397095550671,15.271705833188852,0.0,0.0
57.0,127.0,0.1,6.9089587034082385,15.202305477731464,0.0,0.0
57.0,127.0,0.3,6.9089587034082385,15.202305477731464,0.0,0.0
57.0,127.0,0.7,6.9089587034082385,15.202305477731464,0.0,0.0
57.0,127.0,1.0,6.9089587034082385,15.202305477731464,0.0,0.0
58.0,1.0,0.1,1.8503098192175726,0.3199831409062326,0.0,0.0
58.0,1.0,0.3,1.8503098192175726,0.3199831409062326,0.0,0.0
58.0,1.0,0.7,1.8503098192175726,0.3199831409062326,0.0,0.0
58.0,1.0,1.0,1.8503098192175726,0.3199831409062326,0.0,0.0
58.0,9.0,0.1,1.6153954341764247,0.3166886724913662,0.0,0.0
58.0,9.0,0.3,1.6153954341764247,0.3166886724913662,0.0,0.0
58.0,9.0,0.7,1.6153954341764247,0.3166886724913662,0.0,0.0
58.0,9.0,1.0,1.6153954341764247,0.3166886724913662,0.0,0.0
58.0,17.0,0.1,1.5918782740071837,0.610934638596541,0.0,0.0
58.0,17.0,0.3,1.5918782740071837,0.610934638596541,0.0,0.0
58.0,17.0,0.7,1.5918782740071837,0.610934638596541,0.0,0.0
58.0,17.0,1.0,1.5918782740071837,0.610934638596541,0.0,0.0
58.0,25.0,0.1,1.574156818602694,1.0937134608004522,0.0,0.0
58.0,25.0,0.3,1.574156818602694,1.0937134608004522,0.0,0.0
58.0,25.0,0.7,1.574156818602694,1.0937134608004522,0.0,0.0
58.0,25.0,1.0,1.574156818602694,1.0937134608004522,0.0,0.0
58.0,33.0,0.1,1.798340632481288,1.722971783862828,0.0,0.0
58.0,33.0,0.3,1.798340632481288,1.722971783862828,0.0,0.0
58.0,33.0,0.7,1.798340632481288,1.722971783862828,0.0,0.0
58.0,33.0,1.0,1.798340632481288,1.722971783862828,0.0,0.0
58.0,41.0,0.1,2.079473230073008,2.348775896227753,0.0,0.0
58.0,41.0,0.3,2.079473230073008,2.348775896227753,0.0,0.0
58.0,41.0,0.7,2.079473230073008,2.348775896227753,0.0,0.0
58.0,41.0,1.0,2.079473230073008,2.348775896227753,0.0,0.0
58.0,49.0,0.1,2.3904569718315094,3.1158713997371734,0.0,0.0
58.0,49.0,0.3,2.3904569718315094,3.1158713997371734,0.0,0.0
58.0,49.0,0.7,2.3904569718315094,3.1158713997371734,0.0,0.0
58.0,49.0,1.0,2.3904569718315094,3.1158713997371734,0.0,0.0
58.0,57.0,0.1,2.621980888929705,4.132893999541976,0.0,0.0
58.0,57.0,0.3,2.621980888929705,4.132893999541976,0.0,0.0
58.0,57.0,0.7,2.621980888929705,4.132893999541976,0.0,0.0
58.0,57.0,1.0,2.621980888929705,4.132893999541976,0.0,0.0
58.0,65.0,0.1,3.4180689502560204,5.305693025012525,0.0,0.0
58.0,65.0,0.3,3.4180689502560204,5.305693025012525,0.0,0.0
58.0,65.0,0.7,3.4180689502560204,5.305693025012525,0.0,0.0
58.0,65.0,1.0,3.4180689502560204,5.305693025012525,0.0,0.0
58.0,73.0,0.1,3.699079524418348,6.776687263396138,0.0,0.0
58.0,73.0,0.3,3.699079524418348,6.776687263396138,0.0,0.0
58.0,73.0,0.7,3.699079524418348,6.776687263396138,0.0,0.0
58.0,73.0,1.0,3.699079524418348,6.776687263396138,0.0,0.0
58.0,81.0,0.1,4.36902689272905,8.438918737127183,0.0,0.0
58.0,81.0,0.3,4.36902689272905,8.438918737127183,0.0,0.0
58.0,81.0,0.7,4.36902689272905,8.438918737127183,0.0,0.0
58.0,81.0,1.0,4.36902689272905,8.438918737127183,0.0,0.0
58.0,89.0,0.1,5.0437166034044525,9.892454258749751,0.0,0.0
58.0,89.0,0.3,5.0437166034044525,9.892454258749751,0.0,0.0
58.0,89.0,0.7,5.0437166034044525,9.892454258749751,0.0,0.0
58.0,89.0,1.0,5.0437166034044525,9.892454258749751,0.0,0.0
58.0,97.0,0.1,5.643398466768933,12.394924202196464,0.0,0.0
58.0,97.0,0.3,5.643398466768933,12.394924202196464,0.0,0.0
58.0,97.0,0.7,5.643398466768933,12.394924202196464,0.0,0.0
58.0,97.0,1.0,5.643398466768933,12.394924202196464,0.0,0.0
58.0,105.0,0.1,5.624826519118125,15.899276274084022,0.0,0.0
58.0,105.0,0.3,5.624826519118125,15.899276274084022,0.0,0.0
58.0,105.0,0.7,5.624826519118125,15.899276274084022,0.0,0.0
58.0,105.0,1.0,5.624826519118125,15.899276274084022,0.0,0.0
58.0,113.0,0.1,5.589487944039399,15.839828353795905,0.0,0.0
58.0,113.0,0.3,5.589487944039399,15.839828353795905,0.0,0.0
58.0,113.0,0.7,5.589487944039399,15.839828353795905,0.0,0.0
58.0,113.0,1.0,5.589487944039399,15.839828353795905,0.0,0.0
58.0,121.0,0.1,6.509633876250234,15.849912124628277,0.0,0.0
58.0,121.0,0.3,6.509633876250234,15.849912124628277,0.0,0.0
58.0,121.0,0.7,6.509633876250234,15.849912124628277,0.0,0.0
58.0,121.0,1.0,6.509633876250234,15.849912124628277,0.0,0.0
58.0,127.0,0.1,5.706330728363674,15.813004229737976,0.0,0.0
58.0,127.0,0.3,5.706330728363674,15.813004229737976,0.0,0.0
58.0,127.0,0.7,5.706330728363674,15.813004229737976,0.0,0.0
58.0,127.0,1.0,5.706330728363674,15.813004229737976,0.0,0.0
59.0,1.0,0.1,0.9990062329715698,0.19637496686105585,0.0,0.0
59.0,1.0,0.3,0.9990062329715698,0.19637496686105585,0.0,0.0
59.0,1.0,0.7,0.9990062329715698,0.19637496686105585,0.0,0.0
59.0,1.0,1.0,0.9990062329715698,0.19637496686105585,0.0,0.0
59.0,9.0,0.1,0.7573624313700794,0.18914689972149024,0.0,0.0
59.0,9.0,0.3,0.7573624313700794,0.18914689972149024,0.0,0.0
59.0,9.0,0.7,0.7573624313700794,0.18914689972149024,0.0,0.0
59.0,9.0,1.0,0.7573624313700794,0.18914689972149024,0.0,0.0
59.0,17.0,0.1,0.7217287137662504,0.3889361864460758,0.0,0.0
59.0,17.0,0.3,0.7217287137662504,0.3889361864460758,0.0,0.0
59.0,17.0,0.7,0.7217287137662504,0.3889361864460758,0.0,0.0
59.0,17.0,1.0,0.7217287137662504,0.3889361864460758,0.0,0.0
59.0,25.0,0.1,0.6898637520858385,0.7209441661073566,0.0,0.0
59.0,25.0,0.3,0.6898637520858385,0.7209441661073566,0.0,0.0
59.0,25.0,0.7,0.6898637520858385,0.7209441661073566,0.0,0.0
59.0,25.0,1.0,0.6898637520858385,0.7209441661073566,0.0,0.0
59.0,33.0,0.1,0.97576024027621,1.1244338615255751,0.0,0.0
59.0,33.0,0.3,0.97576024027621,1.1244338615255751,0.0,0.0
59.0,33.0,0.7,0.97576024027621,1.1244338615255751,0.0,0.0
59.0,33.0,1.0,0.97576024027621,1.1244338615255751,0.0,0.0
59.0,41.0,0.1,1.3056248885571486,1.616542881446115,0.0,0.0
59.0,41.0,0.3,1.3056248885571486,1.616542881446115,0.0,0.0
59.0,41.0,0.7,1.3056248885571486,1.616542881446115,0.0,0.0
59.0,41.0,1.0,1.3056248885571486,1.616542881446115,0.0,0.0
59.0,49.0,0.1,1.5337481295809454,2.3181666868550583,0.0,0.0
59.0,49.0,0.3,1.5337481295809454,2.3181666868550583,0.0,0.0
59.0,49.0,0.7,1.5337481295809454,2.3181666868550583,0.0,0.0
59.0,49.0,1.0,1.5337481295809454,2.3181666868550583,0.0,0.0
59.0,57.0,0.1,2.050190629889952,3.3366525460320884,0.0,0.0
59.0,57.0,0.3,2.050190629889952,3.3366525460320884,0.0,0.0
59.0,57.0,0.7,2.050190629889952,3.3366525460320884,0.0,0.0
59.0,57.0,1.0,2.050190629889952,3.3366525460320884,0.0,0.0
59.0,65.0,0.1,2.822685156939692,4.692420439847805,0.0,0.0
59.0,65.0,0.3,2.822685156939692,4.692420439847805,0.0,0.0
59.0,65.0,0.7,2.822685156939692,4.692420439847805,0.0,0.0
59.0,65.0,1.0,2.822685156939692,4.692420439847805,0.0,0.0
59.0,73.0,0.1,3.6990202123261637,6.372872519746479,0.0,0.0
59.0,73.0,0.3,3.6990202123261637,6.372872519746479,0.0,0.0
59.0,73.0,0.7,3.6990202123261637,6.372872519746479,0.0,0.0
59.0,73.0,1.0,3.6990202123261637,6.372872519746479,0.0,0.0
59.0,81.0,0.1,4.6606014480123195,7.9526523884192875,0.0,0.0
59.0,81.0,0.3,4.6606014480123195,7.9526523884192875,0.0,0.0
59.0,81.0,0.7,4.6606014480123195,7.9526523884192875,0.0,0.0
59.0,81.0,1.0,4.6606014480123195,7.9526523884192875,0.0,0.0
59.0,89.0,0.1,5.2719861672805814,9.456656768891682,0.0,0.0
59.0,89.0,0.3,5.2719861672805814,9.456656768891682,0.0,0.0
59.0,89.0,0.7,5.2719861672805814,9.456656768891682,0.0,0.0
59.0,89.0,1.0,5.2719861672805814,9.456656768891682,0.0,0.0
59.0,97.0,0.1,6.237789009368423,11.521009878775663,0.0,0.0
59.0,97.0,0.3,6.237789009368423,11.521009878775663,0.0,0.0
59.0,97.0,0.7,6.237789009368423,11.521009878775663,0.0,0.0
59.0,97.0,1.0,6.237789009368423,11.521009878775663,0.0,0.0
59.0,105.0,0.1,6.47262761199909,13.987483660749781,0.0,0.0
59.0,105.0,0.3,6.47262761199909,13.987483660749781,0.0,0.0
59.0,105.0,0.7,6.47262761199909,13.987483660749781,0.0,0.0
59.0,105.0,1.0,6.47262761199909,13.987483660749781,0.0,0.0
59.0,113.0,0.1,6.0630844369002626,14.589718408607055,0.0,0.0
59.0,113.0,0.3,6.0630844369002626,14.589718408607055,0.0,0.0
59.0,113.0,0.7,6.0630844369002626,14.589718408607055,0.0,0.0
59.0,113.0,1.0,6.0630844369002626,14.589718408607055,0.0,0.0
59.0,121.0,0.1,6.212511027488345,14.485986768803528,0.0,0.0
59.0,121.0,0.3,6.212511027488345,14.485986768803528,0.0,0.0
59.0,121.0,0.7,6.212511027488345,14.485986768803528,0.0,0.0
59.0,121.0,1.0,6.212511027488345,14.485986768803528,0.0,0.0
59.0,127.0,0.1,6.15783687585254,14.328233547552804,0.0,0.0
59.0,127.0,0.3,6.15783687585254,14.328233547552804,0.0,0.0
59.0,127.0,0.7,6.15783687585254,14.328233547552804,0.0,0.0
59.0,127.0,1.0,6.15783687585254,14.328233547552804,0.0,0.0
60.0,1.0,0.1,1.571092958924615,0.2692809170887323,0.0,0.0
60.0,1.0,0.3,1.571092958924615,0.2692809170887323,0.0,0.0
60.0,1.0,0.7,1.571092958924615,0.2692809170887323,0.0,0.0
60.0,1.0,1.0,1.571092958924615,0.2692809170887323,0.0,0.0
60.0,9.0,0.1,1.0789021392199067,0.2793570741281742,0.0,0.0
60.0,9.0,0.3,1.0789021392199067,0.2793570741281742,0.0,0.0
60.0,9.0,0.7,1.0789021392199067,0.2793570741281742,0.0,0.0
60.0,9.0,1.0,1.0789021392199067,0.2793570741281742,0.0,0.0
60.0,17.0,0.1,1.089633359734773,0.4522542127208637,0.0,0.0
60.0,17.0,0.3,1.089633359734773,0.4522542127208637,0.0,0.0
60.0,17.0,0.7,1.089633359734773,0.4522542127208637,0.0,0.0
60.0,17.0,1.0,1.089633359734773,0.4522542127208637,0.0,0.0
60.0,25.0,0.1,1.0606825933645352,0.7956829621372583,0.0,0.0
60.0,25.0,0.3,1.0606825933645352,0.7956829621372583,0.0,0.0
60.0,25.0,0.7,1.0606825933645352,0.7956829621372583,0.0,0.0
60.0,25.0,1.0,1.0606825933645352,0.7956829621372583,0.0,0.0
60.0,33.0,0.1,1.2666879495308134,1.1547026097461883,0.0,0.0
60.0,33.0,0.3,1.2666879495308134,1.1547026097461883,0.0,0.0
60.0,33.0,0.7,1.2666879495308134,1.1547026097461883,0.0,0.0
60.0,33.0,1.0,1.2666879495308134,1.1547026097461883,0.0,0.0
60.0,41.0,0.1,1.6576957259716891,1.7284964988250011,0.0,0.0
60.0,41.0,0.3,1.6576957259716891,1.7284964988250011,0.0,0.0
60.0,41.0,0.7,1.6576957259716891,1.7284964988250011,0.0,0.0
60.0,41.0,1.0,1.6576957259716891,1.7284964988250011,0.0,0.0
60.0,49.0,0.1,2.011698475922066,2.4277778582044904,0.0,0.0
60.0,49.0,0.3,2.011698475922066,2.4277778582044904,0.0,0.0
60.0,49.0,0.7,2.011698475922066,2.4277778582044904,0.0,0.0
60.0,49.0,1.0,2.011698475922066,2.4277778582044904,0.0,0.0
60.0,57.0,0.1,2.6142338798254334,3.3972007527938772,0.0,0.0
60.0,57.0,0.3,2.6142338798254334,3.3972007527938772,0.0,0.0
60.0,57.0,0.7,2.6142338798254334,3.3972007527938772,0.0,0.0
60.0,57.0,1.0,2.6142338798254334,3.3972007527938772,0.0,0.0
60.0,65.0,0.1,3.457208644966999,4.514593965847186,0.0,0.0
60.0,65.0,0.3,3.457208644966999,4.514593965847186,0.0,0.0
60.0,65.0,0.7,3.457208644966999,4.514593965847186,0.0,0.0
60.0,65.0,1.0,3.457208644966999,4.514593965847186,0.0,0.0
60.0,73.0,0.1,4.3104966909704014,5.7588185550366315,0.0,0.0
60.0,73.0,0.3,4.3104966909704014,5.7588185550366315,0.0,0.0
60.0,73.0,0.7,4.3104966909704014,5.7588185550366315,0.0,0.0
60.0,73.0,1.0,4.3104966909704014,5.7588185550366315,0.0,0.0
60.0,81.0,0.1,5.170713349305736,7.382702005032479,0.0,0.0
60.0,81.0,0.3,5.170713349305736,7.382702005032479,0.0,0.0
60.0,81.0,0.7,5.170713349305736,7.382702005032479,0.0,0.0
60.0,81.0,1.0,5.170713349305736,7.382702005032479,0.0,0.0
60.0,89.0,0.1,5.960295084505632,8.855644631962566,0.0,0.0
60.0,89.0,0.3,5.960295084505632,8.855644631962566,0.0,0.0
60.0,89.0,0.7,5.960295084505632,8.855644631962566,0.0,0.0
60.0,89.0,1.0,5.960295084505632,8.855644631962566,0.0,0.0
60.0,97.0,0.1,6.3133790035887,10.293183411356093,0.0,0.0
60.0,97.0,0.3,6.3133790035887,10.293183411356093,0.0,0.0
60.0,97.0,0.7,6.3133790035887,10.293183411356093,0.0,0.0
60.0,97.0,1.0,6.3133790035887,10.293183411356093,0.0,0.0
60.0,105.0,0.1,6.291103985295264,13.355398091143448,0.0,0.0
60.0,105.0,0.3,6.291103985295264,13.355398091143448,0.0,0.0
60.0,105.0,0.7,6.291103985295264,13.355398091143448,0.0,0.0
60.0,105.0,1.0,6.291103985295264,13.355398091143448,0.0,0.0
60.0,113.0,0.1,6.238519109549046,6.410182975433209e-05,0.0,0.0
60.0,113.0,0.3,6.238519109549046,6.410182975433209e-05,0.0,0.0
60.0,113.0,0.7,6.238519109549046,6.410182975433209e-05,0.0,0.0
60.0,113.0,1.0,6.238519109549046,6.410182975433209e-05,0.0,0.0
60.0,121.0,0.1,6.219905568116841,3.026471663918667e-06,0.0,0.0
60.0,121.0,0.3,6.219905568116841,3.026471663918667e-06,0.0,0.0
60.0,121.0,0.7,6.219905568116841,3.026471663918667e-06,0.0,0.0
60.0,121.0,1.0,6.219905568116841,3.026471663918667e-06,0.0,0.0
60.0,127.0,0.1,6.19582206005417,3.5285340460287837e-06,0.0,0.0
60.0,127.0,0.3,6.19582206005417,3.5285340460287837e-06,0.0,0.0
60.0,127.0,0.7,6.19582206005417,3.5285340460287837e-06,0.0,0.0
60.0,127.0,1.0,6.19582206005417,3.5285340460287837e-06,0.0,0.0
61.0,1.0,0.1,1.7129007556976803,0.08567159914099359,0.0,0.0
61.0,1.0,0.3,1.7129007556976803,0.08567159914099359,0.0,0.0
61.0,1.0,0.7,1.7129007556976803,0.08567159914099359,0.0,0.0
61.0,1.0,1.0,1.7129007556976803,0.08567159914099359,0.0,0.0
61.0,9.0,0.1,1.737945390998671,0.08035907481330903,0.0,0.0
61.0,9.0,0.3,1.737945390998671,0.08035907481330903,0.0,0.0
61.0,9.0,0.7,1.737945390998671,0.08035907481330903,0.0,0.0
61.0,9.0,1.0,1.737945390998671,0.08035907481330903,0.0,0.0
61.0,17.0,0.1,1.7180880579518734,0.178895132566254,0.0,0.0
61.0,17.0,0.3,1.7180880579518734,0.178895132566254,0.0,0.0
61.0,17.0,0.7,1.7180880579518734,0.178895132566254,0.0,0.0
61.0,17.0,1.0,1.7180880579518734,0.178895132566254,0.0,0.0
61.0,25.0,0.1,1.8668673747732831,0.4519707926043978,0.0,0.0
61.0,25.0,0.3,1.8668673747732831,0.4519707926043978,0.0,0.0
61.0,25.0,0.7,1.8668673747732831,0.4519707926043978,0.0,0.0
61.0,25.0,1.0,1.8668673747732831,0.4519707926043978,0.0,0.0
61.0,33.0,0.1,2.022971158680954,0.8081876258035954,0.0,0.0
61.0,33.0,0.3,2.022971158680954,0.8081876258035954,0.0,0.0
61.0,33.0,0.7,2.022971158680954,0.8081876258035954,0.0,0.0
61.0,33.0,1.0,2.022971158680954,0.8081876258035954,0.0,0.0
61.0,41.0,0.1,2.2876422070699123,1.3599164739932768,0.0,0.0
61.0,41.0,0.3,2.2876422070699123,1.3599164739932768,0.0,0.0
61.0,41.0,0.7,2.2876422070699123,1.3599164739932768,0.0,0.0
61.0,41.0,1.0,2.2876422070699123,1.3599164739932768,0.0,0.0
61.0,49.0,0.1,2.5025429143649824,2.0636800818532364,0.0,0.0
61.0,49.0,0.3,2.5025429143649824,2.0636800818532364,0.0,0.0
61.0,49.0,0.7,2.5025429143649824,2.0636800818532364,0.0,0.0
61.0,49.0,1.0,2.5025429143649824,2.0636800818532364,0.0,0.0
61.0,57.0,0.1,2.9711633152247185,2.972666477196252,0.0,0.0
61.0,57.0,0.3,2.9711633152247185,2.972666477196252,0.0,0.0
61.0,57.0,0.7,2.9711633152247185,2.972666477196252,0.0,0.0
61.0,57.0,1.0,2.9711633152247185,2.972666477196252,0.0,0.0
61.0,65.0,0.1,3.65474195432392,4.000348577541831,0.0,0.0
61.0,65.0,0.3,3.65474195432392,4.000348577541831,0.0,0.0
61.0,65.0,0.7,3.65474195432392,4.000348577541831,0.0,0.0
61.0,65.0,1.0,3.65474195432392,4.000348577541831,0.0,0.0
61.0,73.0,0.1,4.310262686197278,5.141128685998376,0.0,0.0
61.0,73.0,0.3,4.310262686197278,5.141128685998376,0.0,0.0
61.0,73.0,0.7,4.310262686197278,5.141128685998376,0.0,0.0
61.0,73.0,1.0,4.310262686197278,5.141128685998376,0.0,0.0
61.0,81.0,0.1,5.335904158899738,6.358559637497536,0.0,0.0
61.0,81.0,0.3,5.335904158899738,6.358559637497536,0.0,0.0
61.0,81.0,0.7,5.335904158899738,6.358559637497536,0.0,0.0
61.0,81.0,1.0,5.335904158899738,6.358559637497536,0.0,0.0
61.0,89.0,0.1,6.285668511321017,7.812135145385907,0.0,0.0
61.0,89.0,0.3,6.285668511321017,7.812135145385907,0.0,0.0
61.0,89.0,0.7,6.285668511321017,7.812135145385907,0.0,0.0
61.0,89.0,1.0,6.285668511321017,7.812135145385907,0.0,0.0
61.0,97.0,0.1,7.059129067997636,10.027854712629589,0.0,0.0
61.0,97.0,0.3,7.059129067997636,10.027854712629589,0.0,0.0
61.0,97.0,0.7,7.059129067997636,10.027854712629589,0.0,0.0
61.0,97.0,1.0,7.059129067997636,10.027854712629589,0.0,0.0
61.0,105.0,0.1,7.128483061028068,12.764178221922457,0.0,0.0
61.0,105.0,0.3,7.128483061028068,12.764178221922457,0.0,0.0
61.0,105.0,0.7,7.128483061028068,12.764178221922457,0.0,0.0
61.0,105.0,1.0,7.128483061028068,12.764178221922457,0.0,0.0
61.0,113.0,0.1,7.096760814436084,13.28372058130551,0.0,0.0
61.0,113.0,0.3,7.096760814436084,13.28372058130551,0.0,0.0
61.0,113.0,0.7,7.096760814436084,13.28372058130551,0.0,0.0
61.0,113.0,1.0,7.096760814436084,13.28372058130551,0.0,0.0
61.0,121.0,0.1,7.037467553619179,13.297415338688248,0.0,0.0
61.0,121.0,0.3,7.037467553619179,13.297415338688248,0.0,0.0
61.0,121.0,0.7,7.037467553619179,13.297415338688248,0.0,0.0
61.0,121.0,1.0,7.037467553619179,13.297415338688248,0.0,0.0
61.0,127.0,0.1,7.0450185763301345,13.196480565973864,0.0,0.0
61.0,127.0,0.3,7.0450185763301345,13.196480565973864,0.0,0.0
61.0,127.0,0.7,7.0450185763301345,13.196480565973864,0.0,0.0
61.0,127.0,1.0,7.0450185763301345,13.196480565973864,0.0,0.0
62.0,1.0,0.1,1.444383693585655,0.04032589594926417,0.0,0.0
62.0,1.0,0.3,1.444383693585655,0.04032589594926417,0.0,0.0
62.0,1.0,0.7,1.444383693585655,0.04032589594926417,0.0,0.0
62.0,1.0,1.0,1.444383693585655,0.04032589594926417,0.0,0.0
62.0,9.0,0.1,1.177837766955848,0.04423701629750379,0.0,0.0
62.0,9.0,0.3,1.177837766955848,0.04423701629750379,0.0,0.0
62.0,9.0,0.7,1.177837766955848,0.04423701629750379,0.0,0.0
62.0,9.0,1.0,1.177837766955848,0.04423701629750379,0.0,0.0
62.0,17.0,0.1,1.1219726781863097,0.13851634376664143,0.0,0.0
62.0,17.0,0.3,1.1219726781863097,0.13851634376664143,0.0,0.0
62.0,17.0,0.7,1.1219726781863097,0.13851634376664143,0.0,0.0
62.0,17.0,1.0,1.1219726781863097,0.13851634376664143,0.0,0.0
62.0,25.0,0.1,1.0760980950914523,0.394148880482583,0.0,0.0
62.0,25.0,0.3,1.0760980950914523,0.394148880482583,0.0,0.0
62.0,25.0,0.7,1.0760980950914523,0.394148880482583,0.0,0.0
62.0,25.0,1.0,1.0760980950914523,0.394148880482583,0.0,0.0
62.0,33.0,0.1,1.3343809425607702,0.7024964264950354,0.0,0.0
62.0,33.0,0.3,1.3343809425607702,0.7024964264950354,0.0,0.0
62.0,33.0,0.7,1.3343809425607702,0.7024964264950354,0.0,0.0
62.0,33.0,1.0,1.3343809425607702,0.7024964264950354,0.0,0.0
62.0,41.0,0.1,1.7551531278446513,1.2149060699112664,0.0,0.0
62.0,41.0,0.3,1.7551531278446513,1.2149060699112664,0.0,0.0
62.0,41.0,0.7,1.7551531278446513,1.2149060699112664,0.0,0.0
62.0,41.0,1.0,1.7551531278446513,1.2149060699112664,0.0,0.0
62.0,49.0,0.1,2.2749400473312367,1.8229978457696088,0.0,0.0
62.0,49.0,0.3,2.2749400473312367,1.8229978457696088,0.0,0.0
62.0,49.0,0.7,2.2749400473312367,1.8229978457696088,0.0,0.0
62.0,49.0,1.0,2.2749400473312367,1.8229978457696088,0.0,0.0
62.0,57.0,0.1,2.8353275083618836,2.7929254929796925,0.0,0.0
62.0,57.0,0.3,2.8353275083618836,2.7929254929796925,0.0,0.0
62.0,57.0,0.7,2.8353275083618836,2.7929254929796925,0.0,0.0
62.0,57.0,1.0,2.8353275083618836,2.7929254929796925,0.0,0.0
62.0,65.0,0.1,3.5318067241440585,3.8591369905573827,0.0,0.0
62.0,65.0,0.3,3.5318067241440585,3.8591369905573827,0.0,0.0
62.0,65.0,0.7,3.5318067241440585,3.8591369905573827,0.0,0.0
62.0,65.0,1.0,3.5318067241440585,3.8591369905573827,0.0,0.0
62.0,73.0,0.1,4.315150858577611,5.042841709888994,0.0,0.0
62.0,73.0,0.3,4.315150858577611,5.042841709888994,0.0,0.0
62.0,73.0,0.7,4.315150858577611,5.042841709888994,0.0,0.0
62.0,73.0,1.0,4.315150858577611,5.042841709888994,0.0,0.0
62.0,81.0,0.1,5.0508313802570335,6.687898816090171,0.0,0.0
62.0,81.0,0.3,5.0508313802570335,6.687898816090171,0.0,0.0
62.0,81.0,0.7,5.0508313802570335,6.687898816090171,0.0,0.0
62.0,81.0,1.0,5.0508313802570335,6.687898816090171,0.0,0.0
62.0,89.0,0.1,5.765538138849952,8.334255768868417,0.0,0.0
62.0,89.0,0.3,5.765538138849952,8.334255768868417,0.0,0.0
62.0,89.0,0.7,5.765538138849952,8.334255768868417,0.0,0.0
62.0,89.0,1.0,5.765538138849952,8.334255768868417,0.0,0.0
62.0,97.0,0.1,6.324715386399047,9.922962721188496,0.0,0.0
62.0,97.0,0.3,6.324715386399047,9.922962721188496,0.0,0.0
62.0,97.0,0.7,6.324715386399047,9.922962721188496,0.0,0.0
62.0,97.0,1.0,6.324715386399047,9.922962721188496,0.0,0.0
62.0,105.0,0.1,6.375879019682171,12.356201649641188,0.0,0.0
62.0,105.0,0.3,6.375879019682171,12.356201649641188,0.0,0.0
62.0,105.0,0.7,6.375879019682171,12.356201649641188,0.0,0.0
62.0,105.0,1.0,6.375879019682171,12.356201649641188,0.0,0.0
62.0,113.0,0.1,6.32178250931525,12.212499628075012,0.0,0.0
62.0,113.0,0.3,6.32178250931525,12.212499628075012,0.0,0.0
62.0,113.0,0.7,6.32178250931525,12.212499628075012,0.0,0.0
62.0,113.0,1.0,6.32178250931525,12.212499628075012,0.0,0.0
62.0,121.0,0.1,6.301416224942638,12.1578563066386,0.0,0.0
62.0,121.0,0.3,6.301416224942638,12.1578563066386,0.0,0.0
62.0,121.0,0.7,6.301416224942638,12.1578563066386,0.0,0.0
62.0,121.0,1.0,6.301416224942638,12.1578563066386,0.0,0.0
62.0,127.0,0.1,6.284338094296388,12.165983545247839,0.0,0.0
62.0,127.0,0.3,6.284338094296388,12.165983545247839,0.0,0.0
62.0,127.0,0.7,6.284338094296388,12.165983545247839,0.0,0.0
62.0,127.0,1.0,6.284338094296388,12.165983545247839,0.0,0.0
63.0,1.0,0.1,1.9320778572728183,0.09558012752398792,0.0,0.0
63.0,1.0,0.3,1.9320778572728183,0.09558012752398792,0.0,0.0
63.0,1.0,0.7,1.9320778572728183,0.09558012752398792,0.0,0.0
63.0,1.0,1.0,1.9320778572728183,0.09558012752398792,0.0,0.0
63.0,9.0,0.1,1.9802133513173599,0.09931429124595421,0.0,0.0
63.0,9.0,0.3,1.9802133513173599,0.09931429124595421,0.0,0.0
63.0,9.0,0.7,1.9802133513173599,0.09931429124595421,0.0,0.0
63.0,9.0,1.0,1.9802133513173599,0.09931429124595421,0.0,0.0
63.0,17.0,0.1,1.945707139618225,0.22399755424695525,0.0,0.0
63.0,17.0,0.3,1.945707139618225,0.22399755424695525,0.0,0.0
63.0,17.0,0.7,1.945707139618225,0.22399755424695525,0.0,0.0
63.0,17.0,1.0,1.945707139618225,0.22399755424695525,0.0,0.0
63.0,25.0,0.1,1.8839153077542483,0.4819335607278098,0.0,0.0
63.0,25.0,0.3,1.8839153077542483,0.4819335607278098,0.0,0.0
63.0,25.0,0.7,1.8839153077542483,0.4819335607278098,0.0,0.0
63.0,25.0,1.0,1.8839153077542483,0.4819335607278098,0.0,0.0
63.0,33.0,0.1,2.142197854959054,0.7046076085715404,0.0,0.0
63.0,33.0,0.3,2.142197854959054,0.7046076085715404,0.0,0.0
63.0,33.0,0.7,2.142197854959054,0.7046076085715404,0.0,0.0
63.0,33.0,1.0,2.142197854959054,0.7046076085715404,0.0,0.0
63.0,41.0,0.1,2.751405222094504,1.0497700914151487,0.0,0.0
63.0,41.0,0.3,2.751405222094504,1.0497700914151487,0.0,0.0
63.0,41.0,0.7,2.751405222094504,1.0497700914151487,0.0,0.0
63.0,41.0,1.0,2.751405222094504,1.0497700914151487,0.0,0.0
63.0,49.0,0.1,3.095163096529828,1.5494987507432496,0.0,0.0
63.0,49.0,0.3,3.095163096529828,1.5494987507432496,0.0,0.0
63.0,49.0,0.7,3.095163096529828,1.5494987507432496,0.0,0.0
63.0,49.0,1.0,3.095163096529828,1.5494987507432496,0.0,0.0
63.0,57.0,0.1,3.54557589034662,2.2236553601640354,0.0,0.0
63.0,57.0,0.3,3.54557589034662,2.2236553601640354,0.0,0.0
63.0,57.0,0.7,3.54557589034662,2.2236553601640354,0.0,0.0
63.0,57.0,1.0,3.54557589034662,2.2236553601640354,0.0,0.0
63.0,65.0,0.1,4.2667761082268845,3.0389493673869357,0.0,0.0
63.0,65.0,0.3,4.2667761082268845,3.0389493673869357,0.0,0.0
63.0,65.0,0.7,4.2667761082268845,3.0389493673869357,0.0,0.0
63.0,65.0,1.0,4.2667761082268845,3.0389493673869357,0.0,0.0
63.0,73.0,0.1,5.200778616780443,4.031155367567688,0.0,0.0
63.0,73.0,0.3,5.200778616780443,4.031155367567688,0.0,0.0
63.0,73.0,0.7,5.200778616780443,4.031155367567688,0.0,0.0
63.0,73.0,1.0,5.200778616780443,4.031155367567688,0.0,0.0
63.0,81.0,0.1,6.19157155830979,5.2581493010618825,0.0,0.0
63.0,81.0,0.3,6.19157155830979,5.2581493010618825,0.0,0.0
63.0,81.0,0.7,6.19157155830979,5.2581493010618825,0.0,0.0
63.0,81.0,1.0,6.19157155830979,5.2581493010618825,0.0,0.0
63.0,89.0,0.1,7.147156839562512,6.937620731820601,0.0,0.0
63.0,89.0,0.3,7.147156839562512,6.937620731820601,0.0,0.0
63.0,89.0,0.7,7.147156839562512,6.937620731820601,0.0,0.0
63.0,89.0,1.0,7.147156839562512,6.937620731820601,0.0,0.0
63.0,97.0,0.1,7.990103957393863,8.498740134277467,0.0,0.0
63.0,97.0,0.3,7.990103957393863,8.498740134277467,0.0,0.0
63.0,97.0,0.7,7.990103957393863,8.498740134277467,0.0,0.0
63.0,97.0,1.0,7.990103957393863,8.498740134277467,0.0,0.0
63.0,105.0,0.1,8.156248465068556,10.502376489473152,0.0,0.0
63.0,105.0,0.3,8.156248465068556,10.502376489473152,0.0,0.0
63.0,105.0,0.7,8.156248465068556,10.502376489473152,0.0,0.0
63.0,105.0,1.0,8.156248465068556,10.502376489473152,0.0,0.0
63.0,113.0,0.1,8.144142517183242,11.819189149425414,0.0,0.0
63.0,113.0,0.3,8.144142517183242,11.819189149425414,0.0,0.0
63.0,113.0,0.7,8.144142517183242,11.819189149425414,0.0,0.0
63.0,113.0,1.0,8.144142517183242,11.819189149425414,0.0,0.0
63.0,121.0,0.1,8.117515441951962,11.661905301266078,0.0,0.0
63.0,121.0,0.3,8.117515441951962,11.661905301266078,0.0,0.0
63.0,121.0,0.7,8.117515441951962,11.661905301266078,0.0,0.0
63.0,121.0,1.0,8.117515441951962,11.661905301266078,0.0,0.0
63.0,127.0,0.1,8.112664432294936,11.604088475657878,0.0,0.0
63.0,127.0,0.3,8.112664432294936,11.604088475657878,0.0,0.0
63.0,127.0,0.7,8.112664432294936,11.604088475657878,0.0,0.0
63.0,127.0,1.0,8.112664432294936,11.604088475657878,0.0,0.0
64.0,1.0,0.1,1.2849870129351848,0.22880048047959795,0.0,0.0
64.0,1.0,0.3,1.2849870129351848,0.22880048047959795,0.0,0.0
64.0,1.0,0.7,1.2849870129351848,0.22880048047959795,0.0,0.0
64.0,1.0,1.0,1.2849870129351848,0.22880048047959795,0.0,0.0
64.0,9.0,0.1,0.8461910412664627,0.21467750477934758,0.0,0.0
64.0,9.0,0.3,0.8461910412664627,0.21467750477934758,0.0,0.0
64.0,9.0,0.7,0.8461910412664627,0.21467750477934758,0.0,0.0
64.0,9.0,1.0,0.8461910412664627,0.21467750477934758,0.0,0.0
64.0,17.0,0.1,0.7969900396054368,0.37870176260073846,0.0,0.0
64.0,17.0,0.3,0.7969900396054368,0.37870176260073846,0.0,0.0
64.0,17.0,0.7,0.7969900396054368,0.37870176260073846,0.0,0.0
64.0,17.0,1.0,0.7969900396054368,0.37870176260073846,0.0,0.0
64.0,25.0,0.1,0.7417566162244288,0.6157362664837264,0.0,0.0
64.0,25.0,0.3,0.7417566162244288,0.6157362664837264,0.0,0.0
64.0,25.0,0.7,0.7417566162244288,0.6157362664837264,0.0,0.0
64.0,25.0,1.0,0.7417566162244288,0.6157362664837264,0.0,0.0
64.0,33.0,0.1,0.9453768492695589,1.078830456638919,0.0,0.0
64.0,33.0,0.3,0.9453768492695589,1.078830456638919,0.0,0.0
64.0,33.0,0.7,0.9453768492695589,1.078830456638919,0.0,0.0
64.0,33.0,1.0,0.9453768492695589,1.078830456638919,0.0,0.0
64.0,41.0,0.1,1.3196570345138965,1.6714754204759503,0.0,0.0
64.0,41.0,0.3,1.3196570345138965,1.6714754204759503,0.0,0.0
64.0,41.0,0.7,1.3196570345138965,1.6714754204759503,0.0,0.0
64.0,41.0,1.0,1.3196570345138965,1.6714754204759503,0.0,0.0
64.0,49.0,0.1,1.9773544900072595,2.606279717435533,0.0,0.0
64.0,49.0,0.3,1.9773544900072595,2.606279717435533,0.0,0.0
64.0,49.0,0.7,1.9773544900072595,2.606279717435533,0.0,0.0
64.0,49.0,1.0,1.9773544900072595,2.606279717435533,0.0,0.0
64.0,57.0,0.1,2.3532166557180654,3.530602539157713,0.0,0.0
64.0,57.0,0.3,2.3532166557180654,3.530602539157713,0.0,0.0
64.0,57.0,0.7,2.3532166557180654,3.530602539157713,0.0,0.0
64.0,57.0,1.0,2.3532166557180654,3.530602539157713,0.0,0.0
64.0,65.0,0.1,3.0209736255759396,4.556044469187278,0.0,0.0
64.0,65.0,0.3,3.0209736255759396,4.556044469187278,0.0,0.0
64.0,65.0,0.7,3.0209736255759396,4.556044469187278,0.0,0.0
64.0,65.0,1.0,3.0209736255759396,4.556044469187278,0.0,0.0
64.0,73.0,0.1,3.8302633395691776,5.655206171677517,0.0,0.0
64.0,73.0,0.3,3.8302633395691776,5.655206171677517,0.0,0.0
64.0,73.0,0.7,3.8302633395691776,5.655206171677517,0.0,0.0
64.0,73.0,1.0,3.8302633395691776,5.655206171677517,0.0,0.0
64.0,81.0,0.1,4.6645012111567015,7.1952944794659865,0.0,0.0
64.0,81.0,0.3,4.6645012111567015,7.1952944794659865,0.0,0.0
64.0,81.0,0.7,4.6645012111567015,7.1952944794659865,0.0,0.0
64.0,81.0,1.0,4.6645012111567015,7.1952944794659865,0.0,0.0
64.0,89.0,0.1,5.367140270928456,8.667496791548892,0.0,0.0
64.0,89.0,0.3,5.367140270928456,8.667496791548892,0.0,0.0
64.0,89.0,0.7,5.367140270928456,8.667496791548892,0.0,0.0
64.0,89.0,1.0,5.367140270928456,8.667496791548892,0.0,0.0
64.0,97.0,0.1,5.914006023904682,9.953852304099348,0.0,0.0
64.0,97.0,0.3,5.914006023904682,9.953852304099348,0.0,0.0
64.0,97.0,0.7,5.914006023904682,9.953852304099348,0.0,0.0
64.0,97.0,1.0,5.914006023904682,9.953852304099348,0.0,0.0
64.0,105.0,0.1,6.080472692914916,1.7190970081711188e-05,0.0,0.0
64.0,105.0,0.3,6.080472692914916,1.7190970081711188e-05,0.0,0.0
64.0,105.0,0.7,6.080472692914916,1.7190970081711188e-05,0.0,0.0
64.0,105.0,1.0,6.080472692914916,1.7190970081711188e-05,0.0,0.0
64.0,113.0,0.1,5.955819518004463,2.926327316952244e-06,0.0,0.0
64.0,113.0,0.3,5.955819518004463,2.926327316952244e-06,0.0,0.0
64.0,113.0,0.7,5.955819518004463,2.926327316952244e-06,0.0,0.0
64.0,113.0,1.0,5.955819518004463,2.926327316952244e-06,0.0,0.0
64.0,121.0,0.1,5.883342186634721,3.907439821502088e-06,0.0,0.0
64.0,121.0,0.3,5.883342186634721,3.907439821502088e-06,0.0,0.0
64.0,121.0,0.7,5.883342186634721,3.907439821502088e-06,0.0,0.0
64.0,121.0,1.0,5.883342186634721,3.907439821502088e-06,0.0,0.0
64.0,127.0,0.1,5.865054671046841,3.469417728193992e-06,0.0,0.0
64.0,127.0,0.3,5.865054671046841,3.469417728193992e-06,0.0,0.0
64.0,127.0,0.7,5.865054671046841,3.469417728193992e-06,0.0,0.0
64.0,127.0,1.0,5.865054671046841,3.469417728193992e-06,0.0,0.0
65.0,1.0,0.1,0.9895410418706939,0.17093540627044226,0.0,0.0
65.0,1.0,0.3,0.9895410418706939,0.17093540627044226,0.0,0.0
65.0,1.0,0.7,0.9895410418706939,0.17093540627044226,0.0,0.0
65.0,1.0,1.0,0.9895410418706939,0.17093540627044226,0.0,0.0
65.0,9.0,0.1,0.971814892308245,0.18590251278466136,0.0,0.0
65.0,9.0,0.3,0.971814892308245,0.18590251278466136,0.0,0.0
65.0,9.0,0.7,0.971814892308245,0.18590251278466136,0.0,0.0
65.0,9.0,1.0,0.971814892308245,0.18590251278466136,0.0,0.0
65.0,17.0,0.1,0.9429915056164082,0.27477604318165966,0.0,0.0
65.0,17.0,0.3,0.9429915056164082,0.27477604318165966,0.0,0.0
65.0,17.0,0.7,0.9429915056164082,0.27477604318165966,0.0,0.0
65.0,17.0,1.0,0.9429915056164082,0.27477604318165966,0.0,0.0
65.0,25.0,0.1,0.9091898677683774,0.46353170655699927,0.0,0.0
65.0,25.0,0.3,0.9091898677683774,0.46353170655699927,0.0,0.0
65.0,25.0,0.7,0.9091898677683774,0.46353170655699927,0.0,0.0
65.0,25.0,1.0,0.9091898677683774,0.46353170655699927,0.0,0.0
65.0,33.0,0.1,1.1736286935865832,0.6571797305770261,0.0,0.0
65.0,33.0,0.3,1.1736286935865832,0.6571797305770261,0.0,0.0
65.0,33.0,0.7,1.1736286935865832,0.6571797305770261,0.0,0.0
65.0,33.0,1.0,1.1736286935865832,0.6571797305770261,0.0,0.0
65.0,41.0,0.1,1.3778894620942188,1.1755220652187073,0.0,0.0
65.0,41.0,0.3,1.3778894620942188,1.1755220652187073,0.0,0.0
65.0,41.0,0.7,1.3778894620942188,1.1755220652187073,0.0,0.0
65.0,41.0,1.0,1.3778894620942188,1.1755220652187073,0.0,0.0
65.0,49.0,0.1,2.038112591273197,1.9571847149079908,0.0,0.0
65.0,49.0,0.3,2.038112591273197,1.9571847149079908,0.0,0.0
65.0,49.0,0.7,2.038112591273197,1.9571847149079908,0.0,0.0
65.0,49.0,1.0,2.038112591273197,1.9571847149079908,0.0,0.0
65.0,57.0,0.1,2.4079443622929073,2.6831814835680627,0.0,0.0
65.0,57.0,0.3,2.4079443622929073,2.6831814835680627,0.0,0.0
65.0,57.0,0.7,2.4079443622929073,2.6831814835680627,0.0,0.0
65.0,57.0,1.0,2.4079443622929073,2.6831814835680627,0.0,0.0
65.0,65.0,0.1,3.092387000928494,3.597277302967147,0.0,0.0
65.0,65.0,0.3,3.092387000928494,3.597277302967147,0.0,0.0
65.0,65.0,0.7,3.092387000928494,3.597277302967147,0.0,0.0
65.0,65.0,1.0,3.092387000928494,3.597277302967147,0.0,0.0
65.0,73.0,0.1,3.9308603103804116,4.715608054358838,0.0,0.0
65.0,73.0,0.3,3.9308603103804116,4.715608054358838,0.0,0.0
65.0,73.0,0.7,3.9308603103804116,4.715608054358838,0.0,0.0
65.0,73.0,1.0,3.9308603103804116,4.715608054358838,0.0,0.0
65.0,81.0,0.1,4.780554780024855,6.058861455068699,0.0,0.0
65.0,81.0,0.3,4.780554780024855,6.058861455068699,0.0,0.0
65.0,81.0,0.7,4.780554780024855,6.058861455068699,0.0,0.0
65.0,81.0,1.0,4.780554780024855,6.058861455068699,0.0,0.0
65.0,89.0,0.1,5.631548820815321,7.345039104835351,0.0,0.0
65.0,89.0,0.3,5.631548820815321,7.345039104835351,0.0,0.0
65.0,89.0,0.7,5.631548820815321,7.345039104835351,0.0,0.0
65.0,89.0,1.0,5.631548820815321,7.345039104835351,0.0,0.0
65.0,97.0,0.1,6.300472751970757,9.478357831948056,0.0,0.0
65.0,97.0,0.3,6.300472751970757,9.478357831948056,0.0,0.0
65.0,97.0,0.7,6.300472751970757,9.478357831948056,0.0,0.0
65.0,97.0,1.0,6.300472751970757,9.478357831948056,0.0,0.0
65.0,105.0,0.1,6.352252860437,11.110465808063479,0.0,0.0
65.0,105.0,0.3,6.352252860437,11.110465808063479,0.0,0.0
65.0,105.0,0.7,6.352252860437,11.110465808063479,0.0,0.0
65.0,105.0,1.0,6.352252860437,11.110465808063479,0.0,0.0
65.0,113.0,0.1,6.374804685804108,10.749816466760707,0.0,0.0
65.0,113.0,0.3,6.374804685804108,10.749816466760707,0.0,0.0
65.0,113.0,0.7,6.374804685804108,10.749816466760707,0.0,0.0
65.0,113.0,1.0,6.374804685804108,10.749816466760707,0.0,0.0
65.0,121.0,0.1,6.36047792965785,10.639100633155975,0.0,0.0
65.0,121.0,0.3,6.36047792965785,10.639100633155975,0.0,0.0
65.0,121.0,0.7,6.36047792965785,10.639100633155975,0.0,0.0
65.0,121.0,1.0,6.36047792965785,10.639100633155975,0.0,0.0
65.0,127.0,0.1,6.364274307825159,10.571055129793278,0.0,0.0
65.0,127.0,0.3,6.364274307825159,10.571055129793278,0.0,0.0
65.0,127.0,0.7,6.364274307825159,10.571055129793278,0.0,0.0
65.0,127.0,1.0,6.364274307825159,10.571055129793278,0.0,0.0
66.0,1.0,0.1,1.358992730270102,0.2880158409159938,0.0,0.0
66.0,1.0,0.3,1.358992730270102,0.2880158409159938,0.0,0.0
66.0,1.0,0.7,1.358992730270102,0.2880158409159938,0.0,0.0
66.0,1.0,1.0,1.358992730270102,0.2880158409159938,0.0,0.0
66.0,9.0,0.1,1.2974092962259411,0.35327506377810136,0.0,0.0
66.0,9.0,0.3,1.2974092962259411,0.35327506377810136,0.0,0.0
66.0,9.0,0.7,1.2974092962259411,0.35327506377810136,0.0,0.0
66.0,9.0,1.0,1.2974092962259411,0.35327506377810136,0.0,0.0
66.0,17.0,0.1,1.2894210061513705,0.5600380279469255,0.0,0.0
66.0,17.0,0.3,1.2894210061513705,0.5600380279469255,0.0,0.0
66.0,17.0,0.7,1.2894210061513705,0.5600380279469255,0.0,0.0
66.0,17.0,1.0,1.2894210061513705,0.5600380279469255,0.0,0.0
66.0,25.0,0.1,1.294726769800777,0.8474692998982889,0.0,0.0
66.0,25.0,0.3,1.294726769800777,0.8474692998982889,0.0,0.0
66.0,25.0,0.7,1.294726769800777,0.8474692998982889,0.0,0.0
66.0,25.0,1.0,1.294726769800777,0.8474692998982889,0.0,0.0
66.0,33.0,0.1,1.434704128465739,1.2377812059731612,0.0,0.0
66.0,33.0,0.3,1.434704128465739,1.2377812059731612,0.0,0.0
66.0,33.0,0.7,1.434704128465739,1.2377812059731612,0.0,0.0
66.0,33.0,1.0,1.434704128465739,1.2377812059731612,0.0,0.0
66.0,41.0,0.1,1.7173627123897905,2.020553532716924,0.0,0.0
66.0,41.0,0.3,1.7173627123897905,2.020553532716924,0.0,0.0
66.0,41.0,0.7,1.7173627123897905,2.020553532716924,0.0,0.0
66.0,41.0,1.0,1.7173627123897905,2.020553532716924,0.0,0.0
66.0,49.0,0.1,2.049787175173695,3.004095935473026,0.0,0.0
66.0,49.0,0.3,2.049787175173695,3.004095935473026,0.0,0.0
66.0,49.0,0.7,2.049787175173695,3.004095935473026,0.0,0.0
66.0,49.0,1.0,2.049787175173695,3.004095935473026,0.0,0.0
66.0,57.0,0.1,2.4944625662441577,4.16456179284494,0.0,0.0
66.0,57.0,0.3,2.4944625662441577,4.16456179284494,0.0,0.0
66.0,57.0,0.7,2.4944625662441577,4.16456179284494,0.0,0.0
66.0,57.0,1.0,2.4944625662441577,4.16456179284494,0.0,0.0
66.0,65.0,0.1,3.1172301803446087,5.495082929777725,0.0,0.0
66.0,65.0,0.3,3.1172301803446087,5.495082929777725,0.0,0.0
66.0,65.0,0.7,3.1172301803446087,5.495082929777725,0.0,0.0
66.0,65.0,1.0,3.1172301803446087,5.495082929777725,0.0,0.0
66.0,73.0,0.1,3.8523869763489293,6.865695625727946,0.0,0.0
66.0,73.0,0.3,3.8523869763489293,6.865695625727946,0.0,0.0
66.0,73.0,0.7,3.8523869763489293,6.865695625727946,0.0,0.0
66.0,73.0,1.0,3.8523869763489293,6.865695625727946,0.0,0.0
66.0,81.0,0.1,4.676106618073377,8.52991817853694,0.0,0.0
66.0,81.0,0.3,4.676106618073377,8.52991817853694,0.0,0.0
66.0,81.0,0.7,4.676106618073377,8.52991817853694,0.0,0.0
66.0,81.0,1.0,4.676106618073377,8.52991817853694,0.0,0.0
66.0,89.0,0.1,5.213393951989564,10.068797704028093,0.0,0.0
66.0,89.0,0.3,5.213393951989564,10.068797704028093,0.0,0.0
66.0,89.0,0.7,5.213393951989564,10.068797704028093,0.0,0.0
66.0,89.0,1.0,5.213393951989564,10.068797704028093,0.0,0.0
66.0,97.0,0.1,5.911773895574674,11.60598027311443,0.0,0.0
66.0,97.0,0.3,5.911773895574674,11.60598027311443,0.0,0.0
66.0,97.0,0.7,5.911773895574674,11.60598027311443,0.0,0.0
66.0,97.0,1.0,5.911773895574674,11.60598027311443,0.0,0.0
66.0,105.0,0.1,5.8816548535464275,13.995869146910863,0.0,0.0
66.0,105.0,0.3,5.8816548535464275,13.995869146910863,0.0,0.0
66.0,105.0,0.7,5.8816548535464275,13.995869146910863,0.0,0.0
66.0,105.0,1.0,5.8816548535464275,13.995869146910863,0.0,0.0
66.0,113.0,0.1,5.873888165389802,14.49527042479114,0.0,0.0
66.0,113.0,0.3,5.873888165389802,14.49527042479114,0.0,0.0
66.0,113.0,0.7,5.873888165389802,14.49527042479114,0.0,0.0
66.0,113.0,1.0,5.873888165389802,14.49527042479114,0.0,0.0
66.0,121.0,0.1,5.858412141217726,14.163181339403376,0.0,0.0
66.0,121.0,0.3,5.858412141217726,14.163181339403376,0.0,0.0
66.0,121.0,0.7,5.858412141217726,14.163181339403376,0.0,0.0
66.0,121.0,1.0,5.858412141217726,14.163181339403376,0.0,0.0
66.0,127.0,0.1,5.811774419055052,14.128041399746706,0.0,0.0
66.0,127.0,0.3,5.811774419055052,14.128041399746706,0.0,0.0
66.0,127.0,0.7,5.811774419055052,14.128041399746706,0.0,0.0
66.0,127.0,1.0,5.811774419055052,14.128041399746706,0.0,0.0
67.0,1.0,0.1,0.6883812027521156,0.23075216416872685,0.0,0.0
67.0,1.0,0.3,0.6883812027521156,0.23075216416872685,0.0,0.0
67.0,1.0,0.7,0.6883812027521156,0.23075216416872685,0.0,0.0
67.0,1.0,1.0,0.6883812027521156,0.23075216416872685,0.0,0.0
67.0,9.0,0.1,0.6807904608544467,0.23614148618869688,0.0,0.0
67.0,9.0,0.3,0.6807904608544467,0.23614148618869688,0.0,0.0
67.0,9.0,0.7,0.6807904608544467,0.23614148618869688,0.0,0.0
67.0,9.0,1.0,0.6807904608544467,0.23614148618869688,0.0,0.0
67.0,17.0,0.1,0.6359217138640474,0.45579682898206497,0.0,0.0
67.0,17.0,0.3,0.6359217138640474,0.45579682898206497,0.0,0.0
67.0,17.0,0.7,0.6359217138640474,0.45579682898206497,0.0,0.0
67.0,17.0,1.0,0.6359217138640474,0.45579682898206497,0.0,0.0
67.0,25.0,0.1,0.8235561216109343,0.7581941304283019,0.0,0.0
67.0,25.0,0.3,0.8235561216109343,0.7581941304283019,0.0,0.0
67.0,25.0,0.7,0.8235561216109343,0.7581941304283019,0.0,0.0
67.0,25.0,1.0,0.8235561216109343,0.7581941304283019,0.0,0.0
67.0,33.0,0.1,1.044418613745689,1.1354710390288814,0.0,0.0
67.0,33.0,0.3,1.044418613745689,1.1354710390288814,0.0,0.0
67.0,33.0,0.7,1.044418613745689,1.1354710390288814,0.0,0.0
67.0,33.0,1.0,1.044418613745689,1.1354710390288814,0.0,0.0
67.0,41.0,0.1,1.392985591224117,1.7224032070772715,0.0,0.0
67.0,41.0,0.3,1.392985591224117,1.7224032070772715,0.0,0.0
67.0,41.0,0.7,1.392985591224117,1.7224032070772715,0.0,0.0
67.0,41.0,1.0,1.392985591224117,1.7224032070772715,0.0,0.0
67.0,49.0,0.1,1.6964035668746993,2.530957095173747,0.0,0.0
67.0,49.0,0.3,1.6964035668746993,2.530957095173747,0.0,0.0
67.0,49.0,0.7,1.6964035668746993,2.530957095173747,0.0,0.0
67.0,49.0,1.0,1.6964035668746993,2.530957095173747,0.0,0.0
67.0,57.0,0.1,2.107780430358934,3.521187121041333,0.0,0.0
67.0,57.0,0.3,2.107780430358934,3.521187121041333,0.0,0.0
67.0,57.0,0.7,2.107780430358934,3.521187121041333,0.0,0.0
67.0,57.0,1.0,2.107780430358934,3.521187121041333,0.0,0.0
67.0,65.0,0.1,2.8253084900253205,4.472764982038133,0.0,0.0
67.0,65.0,0.3,2.8253084900253205,4.472764982038133,0.0,0.0
67.0,65.0,0.7,2.8253084900253205,4.472764982038133,0.0,0.0
67.0,65.0,1.0,2.8253084900253205,4.472764982038133,0.0,0.0
67.0,73.0,0.1,3.566263964394096,5.3936536587911545,0.0,0.0
67.0,73.0,0.3,3.566263964394096,5.3936536587911545,0.0,0.0
67.0,73.0,0.7,3.566263964394096,5.3936536587911545,0.0,0.0
67.0,73.0,1.0,3.566263964394096,5.3936536587911545,0.0,0.0
67.0,81.0,0.1,4.4209574917250745,6.513221568752074,0.0,0.0
67.0,81.0,0.3,4.4209574917250745,6.513221568752074,0.0,0.0
67.0,81.0,0.7,4.4209574917250745,6.513221568752074,0.0,0.0
67.0,81.0,1.0,4.4209574917250745,6.513221568752074,0.0,0.0
67.0,89.0,0.1,5.305619750326676,7.648308068504816,0.0,0.0
67.0,89.0,0.3,5.305619750326676,7.648308068504816,0.0,0.0
67.0,89.0,0.7,5.305619750326676,7.648308068504816,0.0,0.0
67.0,89.0,1.0,5.305619750326676,7.648308068504816,0.0,0.0
67.0,97.0,0.1,5.996918377848385,9.047967770584147,0.0,0.0
67.0,97.0,0.3,5.996918377848385,9.047967770584147,0.0,0.0
67.0,97.0,0.7,5.996918377848385,9.047967770584147,0.0,0.0
67.0,97.0,1.0,5.996918377848385,9.047967770584147,0.0,0.0
67.0,105.0,0.1,6.06160321163335,11.982629648038376,0.0,0.0
67.0,105.0,0.3,6.06160321163335,11.982629648038376,0.0,0.0
67.0,105.0,0.7,6.06160321163335,11.982629648038376,0.0,0.0
67.0,105.0,1.0,6.06160321163335,11.982629648038376,0.0,0.0
67.0,113.0,0.1,6.047705197433063,11.676260075512612,0.0,0.0
67.0,113.0,0.3,6.047705197433063,11.676260075512612,0.0,0.0
67.0,113.0,0.7,6.047705197433063,11.676260075512612,0.0,0.0
67.0,113.0,1.0,6.047705197433063,11.676260075512612,0.0,0.0
67.0,121.0,0.1,6.05597713042462,11.417972877925175,0.0,0.0
67.0,121.0,0.3,6.05597713042462,11.417972877925175,0.0,0.0
67.0,121.0,0.7,6.05597713042462,11.417972877925175,0.0,0.0
67.0,121.0,1.0,6.05597713042462,11.417972877925175,0.0,0.0
67.0,127.0,0.1,6.023179229901247,11.331419527560183,0.0,0.0
67.0,127.0,0.3,6.023179229901247,11.331419527560183,0.0,0.0
67.0,127.0,0.7,6.023179229901247,11.331419527560183,0.0,0.0
67.0,127.0,1.0,6.023179229901247,11.331419527560183,0.0,0.0
68.0,1.0,0.1,1.405265336154946,0.33115404373281904,0.0,0.0
68.0,1.0,0.3,1.405265336154946,0.33115404373281904,0.0,0.0
68.0,1.0,0.7,1.405265336154946,0.33115404373281904,0.0,0.0
68.0,1.0,1.0,1.405265336154946,0.33115404373281904,0.0,0.0
68.0,9.0,0.1,1.3077205862717745,0.40068372632923116,0.0,0.0
68.0,9.0,0.3,1.3077205862717745,0.40068372632923116,0.0,0.0
68.0,9.0,0.7,1.3077205862717745,0.40068372632923116,0.0,0.0
68.0,9.0,1.0,1.3077205862717745,0.40068372632923116,0.0,0.0
68.0,17.0,0.1,1.2522954601200003,0.6850540130737383,0.0,0.0
68.0,17.0,0.3,1.2522954601200003,0.6850540130737383,0.0,0.0
68.0,17.0,0.7,1.2522954601200003,0.6850540130737383,0.0,0.0
68.0,17.0,1.0,1.2522954601200003,0.6850540130737383,0.0,0.0
68.0,25.0,0.1,1.274129250662592,0.9273834870909468,0.0,0.0
68.0,25.0,0.3,1.274129250662592,0.9273834870909468,0.0,0.0
68.0,25.0,0.7,1.274129250662592,0.9273834870909468,0.0,0.0
68.0,25.0,1.0,1.274129250662592,0.9273834870909468,0.0,0.0
68.0,33.0,0.1,1.3045903592830335,1.0712552680850882,0.0,0.0
68.0,33.0,0.3,1.3045903592830335,1.0712552680850882,0.0,0.0
68.0,33.0,0.7,1.3045903592830335,1.0712552680850882,0.0,0.0
68.0,33.0,1.0,1.3045903592830335,1.0712552680850882,0.0,0.0
68.0,41.0,0.1,1.6000007865557146,2.2715464520599293,0.0,0.0
68.0,41.0,0.3,1.6000007865557146,2.2715464520599293,0.0,0.0
68.0,41.0,0.7,1.6000007865557146,2.2715464520599293,0.0,0.0
68.0,41.0,1.0,1.6000007865557146,2.2715464520599293,0.0,0.0
68.0,49.0,0.1,1.853672728255799,2.942254984951219,0.0,0.0
68.0,49.0,0.3,1.853672728255799,2.942254984951219,0.0,0.0
68.0,49.0,0.7,1.853672728255799,2.942254984951219,0.0,0.0
68.0,49.0,1.0,1.853672728255799,2.942254984951219,0.0,0.0
68.0,57.0,0.1,2.1816906387942967,4.2644120644458,0.0,0.0
68.0,57.0,0.3,2.1816906387942967,4.2644120644458,0.0,0.0
68.0,57.0,0.7,2.1816906387942967,4.2644120644458,0.0,0.0
68.0,57.0,1.0,2.1816906387942967,4.2644120644458,0.0,0.0
68.0,65.0,0.1,2.7603838032753902,5.145582557713391,0.0,0.0
68.0,65.0,0.3,2.7603838032753902,5.145582557713391,0.0,0.0
68.0,65.0,0.7,2.7603838032753902,5.145582557713391,0.0,0.0
68.0,65.0,1.0,2.7603838032753902,5.145582557713391,0.0,0.0
68.0,73.0,0.1,3.4488690292816253,6.222319076544918,0.0,0.0
68.0,73.0,0.3,3.4488690292816253,6.222319076544918,0.0,0.0
68.0,73.0,0.7,3.4488690292816253,6.222319076544918,0.0,0.0
68.0,73.0,1.0,3.4488690292816253,6.222319076544918,0.0,0.0
68.0,81.0,0.1,4.300994783880524,7.519935281171614,0.0,0.0
68.0,81.0,0.3,4.300994783880524,7.519935281171614,0.0,0.0
68.0,81.0,0.7,4.300994783880524,7.519935281171614,0.0,0.0
68.0,81.0,1.0,4.300994783880524,7.519935281171614,0.0,0.0
68.0,89.0,0.1,5.060612639365213,8.806681168455432,0.0,0.0
68.0,89.0,0.3,5.060612639365213,8.806681168455432,0.0,0.0
68.0,89.0,0.7,5.060612639365213,8.806681168455432,0.0,0.0
68.0,89.0,1.0,5.060612639365213,8.806681168455432,0.0,0.0
68.0,97.0,0.1,5.6219013433902045,11.468444479360539,0.0,0.0
68.0,97.0,0.3,5.6219013433902045,11.468444479360539,0.0,0.0
68.0,97.0,0.7,5.6219013433902045,11.468444479360539,0.0,0.0
68.0,97.0,1.0,5.6219013433902045,11.468444479360539,0.0,0.0
68.0,105.0,0.1,5.519157148276805,13.172281043815033,0.0,0.0
68.0,105.0,0.3,5.519157148276805,13.172281043815033,0.0,0.0
68.0,105.0,0.7,5.519157148276805,13.172281043815033,0.0,0.0
68.0,105.0,1.0,5.519157148276805,13.172281043815033,0.0,0.0
68.0,113.0,0.1,5.487749665712259,13.553891056058617,0.0,0.0
68.0,113.0,0.3,5.487749665712259,13.553891056058617,0.0,0.0
68.0,113.0,0.7,5.487749665712259,13.553891056058617,0.0,0.0
68.0,113.0,1.0,5.487749665712259,13.553891056058617,0.0,0.0
68.0,121.0,0.1,5.502920047438039,13.526813227294406,0.0,0.0
68.0,121.0,0.3,5.502920047438039,13.526813227294406,0.0,0.0
68.0,121.0,0.7,5.502920047438039,13.526813227294406,0.0,0.0
68.0,121.0,1.0,5.502920047438039,13.526813227294406,0.0,0.0
68.0,127.0,0.1,5.515401605947841,13.5172400962045,0.0,0.0
68.0,127.0,0.3,5.515401605947841,13.5172400962045,0.0,0.0
68.0,127.0,0.7,5.515401605947841,13.5172400962045,0.0,0.0
68.0,127.0,1.0,5.515401605947841,13.5172400962045,0.0,0.0
69.0,1.0,0.1,0.5817055752398569,0.09831391435805817,0.0,0.0
69.0,1.0,0.3,0.5817055752398569,0.09831391435805817,0.0,0.0
69.0,1.0,0.7,0.5817055752398569,0.09831391435805817,0.0,0.0
69.0,1.0,1.0,0.5817055752398569,0.09831391435805817,0.0,0.0
69.0,9.0,0.1,0.5986087935531749,0.11791023624321355,0.0,0.0
69.0,9.0,0.3,0.5986087935531749,0.11791023624321355,0.0,0.0
69.0,9.0,0.7,0.5986087935531749,0.11791023624321355,0.0,0.0
69.0,9.0,1.0,0.5986087935531749,0.11791023624321355,0.0,0.0
69.0,17.0,0.1,0.593165851257695,0.23413458827485406,0.0,0.0
69.0,17.0,0.3,0.593165851257695,0.23413458827485406,0.0,0.0
69.0,17.0,0.7,0.593165851257695,0.23413458827485406,0.0,0.0
69.0,17.0,1.0,0.593165851257695,0.23413458827485406,0.0,0.0
69.0,25.0,0.1,0.5767040051379789,0.4579529972174875,0.0,0.0
69.0,25.0,0.3,0.5767040051379789,0.4579529972174875,0.0,0.0
69.0,25.0,0.7,0.5767040051379789,0.4579529972174875,0.0,0.0
69.0,25.0,1.0,0.5767040051379789,0.4579529972174875,0.0,0.0
69.0,33.0,0.1,0.9458685219246981,0.8625461064406218,0.0,0.0
69.0,33.0,0.3,0.9458685219246981,0.8625461064406218,0.0,0.0
69.0,33.0,0.7,0.9458685219246981,0.8625461064406218,0.0,0.0
69.0,33.0,1.0,0.9458685219246981,0.8625461064406218,0.0,0.0
69.0,41.0,0.1,1.1109763674266417,1.570173465774055,0.0,0.0
69.0,41.0,0.3,1.1109763674266417,1.570173465774055,0.0,0.0
69.0,41.0,0.7,1.1109763674266417,1.570173465774055,0.0,0.0
69.0,41.0,1.0,1.1109763674266417,1.570173465774055,0.0,0.0
69.0,49.0,0.1,1.7125242705260635,2.574854920124109,0.0,0.0
69.0,49.0,0.3,1.7125242705260635,2.574854920124109,0.0,0.0
69.0,49.0,0.7,1.7125242705260635,2.574854920124109,0.0,0.0
69.0,49.0,1.0,1.7125242705260635,2.574854920124109,0.0,0.0
69.0,57.0,0.1,2.0706155361702896,3.774151141151943,0.0,0.0
69.0,57.0,0.3,2.0706155361702896,3.774151141151943,0.0,0.0
69.0,57.0,0.7,2.0706155361702896,3.774151141151943,0.0,0.0
69.0,57.0,1.0,2.0706155361702896,3.774151141151943,0.0,0.0
69.0,65.0,0.1,2.6486724496746565,5.01897447560442,0.0,0.0
69.0,65.0,0.3,2.6486724496746565,5.01897447560442,0.0,0.0
69.0,65.0,0.7,2.6486724496746565,5.01897447560442,0.0,0.0
69.0,65.0,1.0,2.6486724496746565,5.01897447560442,0.0,0.0
69.0,73.0,0.1,3.2407757831544197,6.379866596661969,0.0,0.0
69.0,73.0,0.3,3.2407757831544197,6.379866596661969,0.0,0.0
69.0,73.0,0.7,3.2407757831544197,6.379866596661969,0.0,0.0
69.0,73.0,1.0,3.2407757831544197,6.379866596661969,0.0,0.0
69.0,81.0,0.1,3.9866038931083954,7.695802205419805,0.0,0.0
69.0,81.0,0.3,3.9866038931083954,7.695802205419805,0.0,0.0
69.0,81.0,0.7,3.9866038931083954,7.695802205419805,0.0,0.0
69.0,81.0,1.0,3.9866038931083954,7.695802205419805,0.0,0.0
69.0,89.0,0.1,4.819899924460391,9.027751365697013,0.0,0.0
69.0,89.0,0.3,4.819899924460391,9.027751365697013,0.0,0.0
69.0,89.0,0.7,4.819899924460391,9.027751365697013,0.0,0.0
69.0,89.0,1.0,4.819899924460391,9.027751365697013,0.0,0.0
69.0,97.0,0.1,5.511818807694635,10.660045961891132,0.0,0.0
69.0,97.0,0.3,5.511818807694635,10.660045961891132,0.0,0.0
69.0,97.0,0.7,5.511818807694635,10.660045961891132,0.0,0.0
69.0,97.0,1.0,5.511818807694635,10.660045961891132,0.0,0.0
69.0,105.0,0.1,5.636039239223015,12.93053147784528,0.0,0.0
69.0,105.0,0.3,5.636039239223015,12.93053147784528,0.0,0.0
69.0,105.0,0.7,5.636039239223015,12.93053147784528,0.0,0.0
69.0,105.0,1.0,5.636039239223015,12.93053147784528,0.0,0.0
69.0,113.0,0.1,5.635808200896418,13.385701818973605,0.0,0.0
69.0,113.0,0.3,5.635808200896418,13.385701818973605,0.0,0.0
69.0,113.0,0.7,5.635808200896418,13.385701818973605,0.0,0.0
69.0,113.0,1.0,5.635808200896418,13.385701818973605,0.0,0.0
69.0,121.0,0.1,5.6699977730698095,13.245551246933708,0.0,0.0
69.0,121.0,0.3,5.6699977730698095,13.245551246933708,0.0,0.0
69.0,121.0,0.7,5.6699977730698095,13.245551246933708,0.0,0.0
69.0,121.0,1.0,5.6699977730698095,13.245551246933708,0.0,0.0
69.0,127.0,0.1,5.602008795098252,13.058606926057832,0.0,0.0
69.0,127.0,0.3,5.602008795098252,13.058606926057832,0.0,0.0
69.0,127.0,0.7,5.602008795098252,13.058606926057832,0.0,0.0
69.0,127.0,1.0,5.602008795098252,13.058606926057832,0.0,0.0
70.0,1.0,0.1,1.4686233745043924,0.20134860017738196,0.0,0.0
70.0,1.0,0.3,1.4686233745043924,0.20134860017738196,0.0,0.0
70.0,1.0,0.7,1.4686233745043924,0.20134860017738196,0.0,0.0
70.0,1.0,1.0,1.4686233745043924,0.20134860017738196,0.0,0.0
70.0,9.0,0.1,1.3800664924568777,0.21377198822868776,0.0,0.0
70.0,9.0,0.3,1.3800664924568777,0.21377198822868776,0.0,0.0
70.0,9.0,0.7,1.3800664924568777,0.21377198822868776,0.0,0.0
70.0,9.0,1.0,1.3800664924568777,0.21377198822868776,0.0,0.0
70.0,17.0,0.1,1.3608934091579457,0.3776121031952305,0.0,0.0
70.0,17.0,0.3,1.3608934091579457,0.3776121031952305,0.0,0.0
70.0,17.0,0.7,1.3608934091579457,0.3776121031952305,0.0,0.0
70.0,17.0,1.0,1.3608934091579457,0.3776121031952305,0.0,0.0
70.0,25.0,0.1,1.3088855522890597,0.6292428907617817,0.0,0.0
70.0,25.0,0.3,1.3088855522890597,0.6292428907617817,0.0,0.0
70.0,25.0,0.7,1.3088855522890597,0.6292428907617817,0.0,0.0
70.0,25.0,1.0,1.3088855522890597,0.6292428907617817,0.0,0.0
70.0,33.0,0.1,1.4578826718329825,1.0180624111902514,0.0,0.0
70.0,33.0,0.3,1.4578826718329825,1.0180624111902514,0.0,0.0
70.0,33.0,0.7,1.4578826718329825,1.0180624111902514,0.0,0.0
70.0,33.0,1.0,1.4578826718329825,1.0180624111902514,0.0,0.0
70.0,41.0,0.1,1.5517937363822596,1.513843284810351,0.0,0.0
70.0,41.0,0.3,1.5517937363822596,1.513843284810351,0.0,0.0
70.0,41.0,0.7,1.5517937363822596,1.513843284810351,0.0,0.0
70.0,41.0,1.0,1.5517937363822596,1.513843284810351,0.0,0.0
70.0,49.0,0.1,1.7808994760727925,2.254236373177583,0.0,0.0
70.0,49.0,0.3,1.7808994760727925,2.254236373177583,0.0,0.0
70.0,49.0,0.7,1.7808994760727925,2.254236373177583,0.0,0.0
70.0,49.0,1.0,1.7808994760727925,2.254236373177583,0.0,0.0
70.0,57.0,0.1,1.9987757495342207,3.258647523392427,0.0,0.0
70.0,57.0,0.3,1.9987757495342207,3.258647523392427,0.0,0.0
70.0,57.0,0.7,1.9987757495342207,3.258647523392427,0.0,0.0
70.0,57.0,1.0,1.9987757495342207,3.258647523392427,0.0,0.0
70.0,65.0,0.1,2.3573674406249836,4.323527680927367,0.0,0.0
70.0,65.0,0.3,2.3573674406249836,4.323527680927367,0.0,0.0
70.0,65.0,0.7,2.3573674406249836,4.323527680927367,0.0,0.0
70.0,65.0,1.0,2.3573674406249836,4.323527680927367,0.0,0.0
70.0,73.0,0.1,2.828569956778394,5.434453319554116,0.0,0.0
70.0,73.0,0.3,2.828569956778394,5.434453319554116,0.0,0.0
70.0,73.0,0.7,2.828569956778394,5.434453319554116,0.0,0.0
70.0,73.0,1.0,2.828569956778394,5.434453319554116,0.0,0.0
70.0,81.0,0.1,3.3134868393598857,6.773213715236931,0.0,0.0
70.0,81.0,0.3,3.3134868393598857,6.773213715236931,0.0,0.0
70.0,81.0,0.7,3.3134868393598857,6.773213715236931,0.0,0.0
70.0,81.0,1.0,3.3134868393598857,6.773213715236931,0.0,0.0
70.0,89.0,0.1,3.7821298905714036,8.211762174934275,0.0,0.0
70.0,89.0,0.3,3.7821298905714036,8.211762174934275,0.0,0.0
70.0,89.0,0.7,3.7821298905714036,8.211762174934275,0.0,0.0
70.0,89.0,1.0,3.7821298905714036,8.211762174934275,0.0,0.0
70.0,97.0,0.1,4.202281560178674,9.833580024080552,0.0,0.0
70.0,97.0,0.3,4.202281560178674,9.833580024080552,0.0,0.0
70.0,97.0,0.7,4.202281560178674,9.833580024080552,0.0,0.0
70.0,97.0,1.0,4.202281560178674,9.833580024080552,0.0,0.0
70.0,105.0,0.1,4.158362413899817,12.675123449722209,0.0,0.0
70.0,105.0,0.3,4.158362413899817,12.675123449722209,0.0,0.0
70.0,105.0,0.7,4.158362413899817,12.675123449722209,0.0,0.0
70.0,105.0,1.0,4.158362413899817,12.675123449722209,0.0,0.0
70.0,113.0,0.1,4.167570284523043,12.250340357137194,0.0,0.0
70.0,113.0,0.3,4.167570284523043,12.250340357137194,0.0,0.0
70.0,113.0,0.7,4.167570284523043,12.250340357137194,0.0,0.0
70.0,113.0,1.0,4.167570284523043,12.250340357137194,0.0,0.0
70.0,121.0,0.1,4.121044078874539,12.121961616021276,0.0,0.0
70.0,121.0,0.3,4.121044078874539,12.121961616021276,0.0,0.0
70.0,121.0,0.7,4.121044078874539,12.121961616021276,0.0,0.0
70.0,121.0,1.0,4.121044078874539,12.121961616021276,0.0,0.0
70.0,127.0,0.1,4.11735390839018,12.077982156960935,0.0,0.0
70.0,127.0,0.3,4.11735390839018,12.077982156960935,0.0,0.0
70.0,127.0,0.7,4.11735390839018,12.077982156960935,0.0,0.0
70.0,127.0,1.0,4.11735390839018,12.077982156960935,0.0,0.0
71.0,1.0,0.1,0.8670145024645182,0.05475279413256355,0.0,0.0
71.0,1.0,0.3,0.8670145024645182,0.05475279413256355,0.0,0.0
71.0,1.0,0.7,0.8670145024645182,0.05475279413256355,0.0,0.0
71.0,1.0,1.0,0.8670145024645182,0.05475279413256355,0.0,0.0
71.0,9.0,0.1,0.6984874313951787,0.06500062582549912,0.0,0.0
71.0,9.0,0.3,0.6984874313951787,0.06500062582549912,0.0,0.0
71.0,9.0,0.7,0.6984874313951787,0.06500062582549912,0.0,0.0
71.0,9.0,1.0,0.6984874313951787,0.06500062582549912,0.0,0.0
71.0,17.0,0.1,0.8426182799606436,0.27130761123390223,0.0,0.0
71.0,17.0,0.3,0.8426182799606436,0.27130761123390223,0.0,0.0
71.0,17.0,0.7,0.8426182799606436,0.27130761123390223,0.0,0.0
71.0,17.0,1.0,0.8426182799606436,0.27130761123390223,0.0,0.0
71.0,25.0,0.1,0.8409316137998031,0.674688321003621,0.0,0.0
71.0,25.0,0.3,0.8409316137998031,0.674688321003621,0.0,0.0
71.0,25.0,0.7,0.8409316137998031,0.674688321003621,0.0,0.0
71.0,25.0,1.0,0.8409316137998031,0.674688321003621,0.0,0.0
71.0,33.0,0.1,0.8215492063575386,1.0116133701216374,0.0,0.0
71.0,33.0,0.3,0.8215492063575386,1.0116133701216374,0.0,0.0
71.0,33.0,0.7,0.8215492063575386,1.0116133701216374,0.0,0.0
71.0,33.0,1.0,0.8215492063575386,1.0116133701216374,0.0,0.0
71.0,41.0,0.1,1.199473029867644,1.462751687143796,0.0,0.0
71.0,41.0,0.3,1.199473029867644,1.462751687143796,0.0,0.0
71.0,41.0,0.7,1.199473029867644,1.462751687143796,0.0,0.0
71.0,41.0,1.0,1.199473029867644,1.462751687143796,0.0,0.0
71.0,49.0,0.1,1.707919921405184,2.093018225884031,0.0,0.0
71.0,49.0,0.3,1.707919921405184,2.093018225884031,0.0,0.0
71.0,49.0,0.7,1.707919921405184,2.093018225884031,0.0,0.0
71.0,49.0,1.0,1.707919921405184,2.093018225884031,0.0,0.0
71.0,57.0,0.1,1.8685580979200034,3.040701528316799,0.0,0.0
71.0,57.0,0.3,1.8685580979200034,3.040701528316799,0.0,0.0
71.0,57.0,0.7,1.8685580979200034,3.040701528316799,0.0,0.0
71.0,57.0,1.0,1.8685580979200034,3.040701528316799,0.0,0.0
71.0,65.0,0.1,2.666760743583051,4.030252692158136,0.0,0.0
71.0,65.0,0.3,2.666760743583051,4.030252692158136,0.0,0.0
71.0,65.0,0.7,2.666760743583051,4.030252692158136,0.0,0.0
71.0,65.0,1.0,2.666760743583051,4.030252692158136,0.0,0.0
71.0,73.0,0.1,3.4227657372147724,5.185137769433601,0.0,0.0
71.0,73.0,0.3,3.4227657372147724,5.185137769433601,0.0,0.0
71.0,73.0,0.7,3.4227657372147724,5.185137769433601,0.0,0.0
71.0,73.0,1.0,3.4227657372147724,5.185137769433601,0.0,0.0
71.0,81.0,0.1,4.410242961800721,6.327762358409302,0.0,0.0
71.0,81.0,0.3,4.410242961800721,6.327762358409302,0.0,0.0
71.0,81.0,0.7,4.410242961800721,6.327762358409302,0.0,0.0
71.0,81.0,1.0,4.410242961800721,6.327762358409302,0.0,0.0
71.0,89.0,0.1,5.282283932683708,7.5652586927948,0.0,0.0
71.0,89.0,0.3,5.282283932683708,7.5652586927948,0.0,0.0
71.0,89.0,0.7,5.282283932683708,7.5652586927948,0.0,0.0
71.0,89.0,1.0,5.282283932683708,7.5652586927948,0.0,0.0
71.0,97.0,0.1,5.920012815405039,9.058025886620733,0.0,0.0
71.0,97.0,0.3,5.920012815405039,9.058025886620733,0.0,0.0
71.0,97.0,0.7,5.920012815405039,9.058025886620733,0.0,0.0
71.0,97.0,1.0,5.920012815405039,9.058025886620733,0.0,0.0
71.0,105.0,0.1,5.934037394971388,11.64813107109143,0.0,0.0
71.0,105.0,0.3,5.934037394971388,11.64813107109143,0.0,0.0
71.0,105.0,0.7,5.934037394971388,11.64813107109143,0.0,0.0
71.0,105.0,1.0,5.934037394971388,11.64813107109143,0.0,0.0
71.0,113.0,0.1,5.913218014479207,11.472589374929061,0.0,0.0
71.0,113.0,0.3,5.913218014479207,11.472589374929061,0.0,0.0
71.0,113.0,0.7,5.913218014479207,11.472589374929061,0.0,0.0
71.0,113.0,1.0,5.913218014479207,11.472589374929061,0.0,0.0
71.0,121.0,0.1,5.901503485961497,11.467698040259794,0.0,0.0
71.0,121.0,0.3,5.901503485961497,11.467698040259794,0.0,0.0
71.0,121.0,0.7,5.901503485961497,11.467698040259794,0.0,0.0
71.0,121.0,1.0,5.901503485961497,11.467698040259794,0.0,0.0
71.0,127.0,0.1,5.887377458837868,11.441492355265803,0.0,0.0
71.0,127.0,0.3,5.887377458837868,11.441492355265803,0.0,0.0
71.0,127.0,0.7,5.887377458837868,11.441492355265803,0.0,0.0
71.0,127.0,1.0,5.887377458837868,11.441492355265803,0.0,0.0
72.0,1.0,0.1,0.00015730240522614578,0.14779710315147476,0.0,0.0
72.0,1.0,0.3,0.00015730240522614578,0.14779710315147476,0.0,0.0
72.0,1.0,0.7,0.00015730240522614578,0.14779710315147476,0.0,0.0
72.0,1.0,1.0,0.00015730240522614578,0.14779710315147476,0.0,0.0
72.0,9.0,0.1,4.142285283256382e-05,0.13517094977827335,0.0,0.0
72.0,9.0,0.3,4.142285283256382e-05,0.13517094977827335,0.0,0.0
72.0,9.0,0.7,4.142285283256382e-05,0.13517094977827335,0.0,0.0
72.0,9.0,1.0,4.142285283256382e-05,0.13517094977827335,0.0,0.0
72.0,17.0,0.1,5.2811512674544236e-05,0.318423527265188,0.0,0.0
72.0,17.0,0.3,5.2811512674544236e-05,0.318423527265188,0.0,0.0
72.0,17.0,0.7,5.2811512674544236e-05,0.318423527265188,0.0,0.0
72.0,17.0,1.0,5.2811512674544236e-05,0.318423527265188,0.0,0.0
72.0,25.0,0.1,4.610142232708628e-05,0.55004529581121,0.0,0.0
72.0,25.0,0.3,4.610142232708628e-05,0.55004529581121,0.0,0.0
72.0,25.0,0.7,4.610142232708628e-05,0.55004529581121,0.0,0.0
72.0,25.0,1.0,4.610142232708628e-05,0.55004529581121,0.0,0.0
72.0,33.0,0.1,4.458988182979579e-05,0.9338567400131468,0.0,0.0
72.0,33.0,0.3,4.458988182979579e-05,0.9338567400131468,0.0,0.0
72.0,33.0,0.7,4.458988182979579e-05,0.9338567400131468,0.0,0.0
72.0,33.0,1.0,4.458988182979579e-05,0.9338567400131468,0.0,0.0
72.0,41.0,0.1,6.676571074194722e-05,1.5343495178019033,0.0,0.0
72.0,41.0,0.3,6.676571074194722e-05,1.5343495178019033,0.0,0.0
72.0,41.0,0.7,6.676571074194722e-05,1.5343495178019033,0.0,0.0
72.0,41.0,1.0,6.676571074194722e-05,1.5343495178019033,0.0,0.0
72.0,49.0,0.1,6.125892088823363e-05,2.3404231277367904,0.0,0.0
72.0,49.0,0.3,6.125892088823363e-05,2.3404231277367904,0.0,0.0
72.0,49.0,0.7,6.125892088823363e-05,2.3404231277367904,0.0,0.0
72.0,49.0,1.0,6.125892088823363e-05,2.3404231277367904,0.0,0.0
72.0,57.0,0.1,5.4567107007814516e-05,3.248074825886062,0.0,0.0
72.0,57.0,0.3,5.4567107007814516e-05,3.248074825886062,0.0,0.0
72.0,57.0,0.7,5.4567107007814516e-05,3.248074825886062,0.0,0.0
72.0,57.0,1.0,5.4567107007814516e-05,3.248074825886062,0.0,0.0
72.0,65.0,0.1,1.2550299317049518,4.232756899528466,0.0,0.0
72.0,65.0,0.3,1.2550299317049518,4.232756899528466,0.0,0.0
72.0,65.0,0.7,1.2550299317049518,4.232756899528466,0.0,0.0
72.0,65.0,1.0,1.2550299317049518,4.232756899528466,0.0,0.0
72.0,73.0,0.1,2.0697710021222053,5.2645279010586155,0.0,0.0
72.0,73.0,0.3,2.0697710021222053,5.2645279010586155,0.0,0.0
72.0,73.0,0.7,2.0697710021222053,5.2645279010586155,0.0,0.0
72.0,73.0,1.0,2.0697710021222053,5.2645279010586155,0.0,0.0
72.0,81.0,0.1,2.865477113543915,6.63561386043321,0.0,0.0
72.0,81.0,0.3,2.865477113543915,6.63561386043321,0.0,0.0
72.0,81.0,0.7,2.865477113543915,6.63561386043321,0.0,0.0
72.0,81.0,1.0,2.865477113543915,6.63561386043321,0.0,0.0
72.0,89.0,0.1,3.595113352920184,7.900802399061316,0.0,0.0
72.0,89.0,0.3,3.595113352920184,7.900802399061316,0.0,0.0
72.0,89.0,0.7,3.595113352920184,7.900802399061316,0.0,0.0
72.0,89.0,1.0,3.595113352920184,7.900802399061316,0.0,0.0
72.0,97.0,0.1,4.045678950486693,8.993606324629251,0.0,0.0
72.0,97.0,0.3,4.045678950486693,8.993606324629251,0.0,0.0
72.0,97.0,0.7,4.045678950486693,8.993606324629251,0.0,0.0
72.0,97.0,1.0,4.045678950486693,8.993606324629251,0.0,0.0
72.0,105.0,0.1,4.027098805443412,11.35873225306339,0.0,0.0
72.0,105.0,0.3,4.027098805443412,11.35873225306339,0.0,0.0
72.0,105.0,0.7,4.027098805443412,11.35873225306339,0.0,0.0
72.0,105.0,1.0,4.027098805443412,11.35873225306339,0.0,0.0
72.0,113.0,0.1,4.014119720709696,11.060910919905002,0.0,0.0
72.0,113.0,0.3,4.014119720709696,11.060910919905002,0.0,0.0
72.0,113.0,0.7,4.014119720709696,11.060910919905002,0.0,0.0
72.0,113.0,1.0,4.014119720709696,11.060910919905002,0.0,0.0
72.0,121.0,0.1,4.005864205391283,11.010716184017879,0.0,0.0
72.0,121.0,0.3,4.005864205391283,11.010716184017879,0.0,0.0
72.0,121.0,0.7,4.005864205391283,11.010716184017879,0.0,0.0
72.0,121.0,1.0,4.005864205391283,11.010716184017879,0.0,0.0
72.0,127.0,0.1,4.008169884851954,10.968218230448144,0.0,0.0
72.0,127.0,0.3,4.008169884851954,10.968218230448144,0.0,0.0
72.0,127.0,0.7,4.008169884851954,10.968218230448144,0.0,0.0
72.0,127.0,1.0,4.008169884851954,10.968218230448144,0.0,0.0
73.0,1.0,0.1,1.5828666494484618,0.07918521897611122,0.0,0.0
73.0,1.0,0.3,1.5828666494484618,0.07918521897611122,0.0,0.0
73.0,1.0,0.7,1.5828666494484618,0.07918521897611122,0.0,0.0
73.0,1.0,1.0,1.5828666494484618,0.07918521897611122,0.0,0.0
73.0,9.0,0.1,1.5660334684823136,0.059199510711609754,0.0,0.0
73.0,9.0,0.3,1.5660334684823136,0.059199510711609754,0.0,0.0
73.0,9.0,0.7,1.5660334684823136,0.059199510711609754,0.0,0.0
73.0,9.0,1.0,1.5660334684823136,0.059199510711609754,0.0,0.0
73.0,17.0,0.1,1.5661032585495267,0.3415418304246345,0.0,0.0
73.0,17.0,0.3,1.5661032585495267,0.3415418304246345,0.0,0.0
73.0,17.0,0.7,1.5661032585495267,0.3415418304246345,0.0,0.0
73.0,17.0,1.0,1.5661032585495267,0.3415418304246345,0.0,0.0
73.0,25.0,0.1,1.555785116470699,0.6433681034477465,0.0,0.0
73.0,25.0,0.3,1.555785116470699,0.6433681034477465,0.0,0.0
73.0,25.0,0.7,1.555785116470699,0.6433681034477465,0.0,0.0
73.0,25.0,1.0,1.555785116470699,0.6433681034477465,0.0,0.0
73.0,33.0,0.1,1.6254701067572606,1.0938991868618708,0.0,0.0
73.0,33.0,0.3,1.6254701067572606,1.0938991868618708,0.0,0.0
73.0,33.0,0.7,1.6254701067572606,1.0938991868618708,0.0,0.0
73.0,33.0,1.0,1.6254701067572606,1.0938991868618708,0.0,0.0
73.0,41.0,0.1,1.7038773307171524,1.7600183621724208,0.0,0.0
73.0,41.0,0.3,1.7038773307171524,1.7600183621724208,0.0,0.0
73.0,41.0,0.7,1.7038773307171524,1.7600183621724208,0.0,0.0
73.0,41.0,1.0,1.7038773307171524,1.7600183621724208,0.0,0.0
73.0,49.0,0.1,1.7628193978356888,2.478347521541224,0.0,0.0
73.0,49.0,0.3,1.7628193978356888,2.478347521541224,0.0,0.0
73.0,49.0,0.7,1.7628193978356888,2.478347521541224,0.0,0.0
73.0,49.0,1.0,1.7628193978356888,2.478347521541224,0.0,0.0
73.0,57.0,0.1,1.9923149081405538,3.3732026776790707,0.0,0.0
73.0,57.0,0.3,1.9923149081405538,3.3732026776790707,0.0,0.0
73.0,57.0,0.7,1.9923149081405538,3.3732026776790707,0.0,0.0
73.0,57.0,1.0,1.9923149081405538,3.3732026776790707,0.0,0.0
73.0,65.0,0.1,2.274017373766976,4.592060243892136,0.0,0.0
73.0,65.0,0.3,2.274017373766976,4.592060243892136,0.0,0.0
73.0,65.0,0.7,2.274017373766976,4.592060243892136,0.0,0.0
73.0,65.0,1.0,2.274017373766976,4.592060243892136,0.0,0.0
73.0,73.0,0.1,2.659535021611504,5.713429074426379,0.0,0.0
73.0,73.0,0.3,2.659535021611504,5.713429074426379,0.0,0.0
73.0,73.0,0.7,2.659535021611504,5.713429074426379,0.0,0.0
73.0,73.0,1.0,2.659535021611504,5.713429074426379,0.0,0.0
73.0,81.0,0.1,3.3517746591487714,6.8954644745446165,0.0,0.0
73.0,81.0,0.3,3.3517746591487714,6.8954644745446165,0.0,0.0
73.0,81.0,0.7,3.3517746591487714,6.8954644745446165,0.0,0.0
73.0,81.0,1.0,3.3517746591487714,6.8954644745446165,0.0,0.0
73.0,89.0,0.1,3.9876897840461365,8.042235428176708,0.0,0.0
73.0,89.0,0.3,3.9876897840461365,8.042235428176708,0.0,0.0
73.0,89.0,0.7,3.9876897840461365,8.042235428176708,0.0,0.0
73.0,89.0,1.0,3.9876897840461365,8.042235428176708,0.0,0.0
73.0,97.0,0.1,4.488546209806738,10.364279834402797,0.0,0.0
73.0,97.0,0.3,4.488546209806738,10.364279834402797,0.0,0.0
73.0,97.0,0.7,4.488546209806738,10.364279834402797,0.0,0.0
73.0,97.0,1.0,4.488546209806738,10.364279834402797,0.0,0.0
73.0,105.0,0.1,4.583829174717739,11.273458076673895,0.0,0.0
73.0,105.0,0.3,4.583829174717739,11.273458076673895,0.0,0.0
73.0,105.0,0.7,4.583829174717739,11.273458076673895,0.0,0.0
73.0,105.0,1.0,4.583829174717739,11.273458076673895,0.0,0.0
73.0,113.0,0.1,4.5163196698748544,11.481309294030368,0.0,0.0
73.0,113.0,0.3,4.5163196698748544,11.481309294030368,0.0,0.0
73.0,113.0,0.7,4.5163196698748544,11.481309294030368,0.0,0.0
73.0,113.0,1.0,4.5163196698748544,11.481309294030368,0.0,0.0
73.0,121.0,0.1,4.5014958758967545,11.331442628424497,0.0,0.0
73.0,121.0,0.3,4.5014958758967545,11.331442628424497,0.0,0.0
73.0,121.0,0.7,4.5014958758967545,11.331442628424497,0.0,0.0
73.0,121.0,1.0,4.5014958758967545,11.331442628424497,0.0,0.0
73.0,127.0,0.1,4.459170299510376,11.27749327623422,0.0,0.0
73.0,127.0,0.3,4.459170299510376,11.27749327623422,0.0,0.0
73.0,127.0,0.7,4.459170299510376,11.27749327623422,0.0,0.0
73.0,127.0,1.0,4.459170299510376,11.27749327623422,0.0,0.0
74.0,1.0,0.1,1.0554500260492365,0.25021249431192016,0.0,0.0
74.0,1.0,0.3,1.0554500260492365,0.25021249431192016,0.0,0.0
74.0,1.0,0.7,1.0554500260492365,0.25021249431192016,0.0,0.0
74.0,1.0,1.0,1.0554500260492365,0.25021249431192016,0.0,0.0
74.0,9.0,0.1,0.8980725370291752,0.2705736794457573,0.0,0.0
74.0,9.0,0.3,0.8980725370291752,0.2705736794457573,0.0,0.0
74.0,9.0,0.7,0.8980725370291752,0.2705736794457573,0.0,0.0
74.0,9.0,1.0,0.8980725370291752,0.2705736794457573,0.0,0.0
74.0,17.0,0.1,0.8780034393419907,0.46521693329911046,0.0,0.0
74.0,17.0,0.3,0.8780034393419907,0.46521693329911046,0.0,0.0
74.0,17.0,0.7,0.8780034393419907,0.46521693329911046,0.0,0.0
74.0,17.0,1.0,0.8780034393419907,0.46521693329911046,0.0,0.0
74.0,25.0,0.1,0.8463253375853145,0.777542865050665,0.0,0.0
74.0,25.0,0.3,0.8463253375853145,0.777542865050665,0.0,0.0
74.0,25.0,0.7,0.8463253375853145,0.777542865050665,0.0,0.0
74.0,25.0,1.0,0.8463253375853145,0.777542865050665,0.0,0.0
74.0,33.0,0.1,0.9841568254041592,1.1126357398755726,0.0,0.0
74.0,33.0,0.3,0.9841568254041592,1.1126357398755726,0.0,0.0
74.0,33.0,0.7,0.9841568254041592,1.1126357398755726,0.0,0.0
74.0,33.0,1.0,0.9841568254041592,1.1126357398755726,0.0,0.0
74.0,41.0,0.1,1.1091175904593544,1.5626895438381039,0.0,0.0
74.0,41.0,0.3,1.1091175904593544,1.5626895438381039,0.0,0.0
74.0,41.0,0.7,1.1091175904593544,1.5626895438381039,0.0,0.0
74.0,41.0,1.0,1.1091175904593544,1.5626895438381039,0.0,0.0
74.0,49.0,0.1,1.5580215290703463,2.3349399869340894,0.0,0.0
74.0,49.0,0.3,1.5580215290703463,2.3349399869340894,0.0,0.0
74.0,49.0,0.7,1.5580215290703463,2.3349399869340894,0.0,0.0
74.0,49.0,1.0,1.5580215290703463,2.3349399869340894,0.0,0.0
74.0,57.0,0.1,1.818382375962824,3.35876755943866,0.0,0.0
74.0,57.0,0.3,1.818382375962824,3.35876755943866,0.0,0.0
74.0,57.0,0.7,1.818382375962824,3.35876755943866,0.0,0.0
74.0,57.0,1.0,1.818382375962824,3.35876755943866,0.0,0.0
74.0,65.0,0.1,2.562552252101491,4.422484959191297,0.0,0.0
74.0,65.0,0.3,2.562552252101491,4.422484959191297,0.0,0.0
74.0,65.0,0.7,2.562552252101491,4.422484959191297,0.0,0.0
74.0,65.0,1.0,2.562552252101491,4.422484959191297,0.0,0.0
74.0,73.0,0.1,3.3509819095751205,5.42173178547692,0.0,0.0
74.0,73.0,0.3,3.3509819095751205,5.42173178547692,0.0,0.0
74.0,73.0,0.7,3.3509819095751205,5.42173178547692,0.0,0.0
74.0,73.0,1.0,3.3509819095751205,5.42173178547692,0.0,0.0
74.0,81.0,0.1,4.025011066456929,6.59536208807009,0.0,0.0
74.0,81.0,0.3,4.025011066456929,6.59536208807009,0.0,0.0
74.0,81.0,0.7,4.025011066456929,6.59536208807009,0.0,0.0
74.0,81.0,1.0,4.025011066456929,6.59536208807009,0.0,0.0
74.0,89.0,0.1,4.807999145459858,7.695555286773987,0.0,0.0
74.0,89.0,0.3,4.807999145459858,7.695555286773987,0.0,0.0
74.0,89.0,0.7,4.807999145459858,7.695555286773987,0.0,0.0
74.0,89.0,1.0,4.807999145459858,7.695555286773987,0.0,0.0
74.0,97.0,0.1,5.301827055565697,9.632115719390331,0.0,0.0
74.0,97.0,0.3,5.301827055565697,9.632115719390331,0.0,0.0
74.0,97.0,0.7,5.301827055565697,9.632115719390331,0.0,0.0
74.0,97.0,1.0,5.301827055565697,9.632115719390331,0.0,0.0
74.0,105.0,0.1,5.277172956143582,12.642530150426843,0.0,0.0
74.0,105.0,0.3,5.277172956143582,12.642530150426843,0.0,0.0
74.0,105.0,0.7,5.277172956143582,12.642530150426843,0.0,0.0
74.0,105.0,1.0,5.277172956143582,12.642530150426843,0.0,0.0
74.0,113.0,0.1,5.244131605381151,12.375513391604967,0.0,0.0
74.0,113.0,0.3,5.244131605381151,12.375513391604967,0.0,0.0
74.0,113.0,0.7,5.244131605381151,12.375513391604967,0.0,0.0
74.0,113.0,1.0,5.244131605381151,12.375513391604967,0.0,0.0
74.0,121.0,0.1,5.245077201806392,12.25643656649068,0.0,0.0
74.0,121.0,0.3,5.245077201806392,12.25643656649068,0.0,0.0
74.0,121.0,0.7,5.245077201806392,12.25643656649068,0.0,0.0
74.0,121.0,1.0,5.245077201806392,12.25643656649068,0.0,0.0
74.0,127.0,0.1,5.202478995457591,12.244326637317993,0.0,0.0
74.0,127.0,0.3,5.202478995457591,12.244326637317993,0.0,0.0
74.0,127.0,0.7,5.202478995457591,12.244326637317993,0.0,0.0
74.0,127.0,1.0,5.202478995457591,12.244326637317993,0.0,0.0
75.0,1.0,0.1,1.5655545977565948,0.4322740167469755,0.0,0.0
75.0,1.0,0.3,1.5655545977565948,0.4322740167469755,0.0,0.0
75.0,1.0,0.7,1.5655545977565948,0.4322740167469755,0.0,0.0
75.0,1.0,1.0,1.5655545977565948,0.4322740167469755,0.0,0.0
75.0,9.0,0.1,1.4842023843584218,0.5604817605463838,0.0,0.0
75.0,9.0,0.3,1.4842023843584218,0.5604817605463838,0.0,0.0
75.0,9.0,0.7,1.4842023843584218,0.5604817605463838,0.0,0.0
75.0,9.0,1.0,1.4842023843584218,0.5604817605463838,0.0,0.0
75.0,17.0,0.1,1.4195064086125875,0.7647425848243471,0.0,0.0
75.0,17.0,0.3,1.4195064086125875,0.7647425848243471,0.0,0.0
75.0,17.0,0.7,1.4195064086125875,0.7647425848243471,0.0,0.0
75.0,17.0,1.0,1.4195064086125875,0.7647425848243471,0.0,0.0
75.0,25.0,0.1,1.6003735204726453,1.0236642397446338,0.0,0.0
75.0,25.0,0.3,1.6003735204726453,1.0236642397446338,0.0,0.0
75.0,25.0,0.7,1.6003735204726453,1.0236642397446338,0.0,0.0
75.0,25.0,1.0,1.6003735204726453,1.0236642397446338,0.0,0.0
75.0,33.0,0.1,1.596310371285838,1.164387712054488,0.0,0.0
75.0,33.0,0.3,1.596310371285838,1.164387712054488,0.0,0.0
75.0,33.0,0.7,1.596310371285838,1.164387712054488,0.0,0.0
75.0,33.0,1.0,1.596310371285838,1.164387712054488,0.0,0.0
75.0,41.0,0.1,1.6479054410232141,1.818312204192983,0.0,0.0
75.0,41.0,0.3,1.6479054410232141,1.818312204192983,0.0,0.0
75.0,41.0,0.7,1.6479054410232141,1.818312204192983,0.0,0.0
75.0,41.0,1.0,1.6479054410232141,1.818312204192983,0.0,0.0
75.0,49.0,0.1,1.6580816152062328,2.5442826906391605,0.0,0.0
75.0,49.0,0.3,1.6580816152062328,2.5442826906391605,0.0,0.0
75.0,49.0,0.7,1.6580816152062328,2.5442826906391605,0.0,0.0
75.0,49.0,1.0,1.6580816152062328,2.5442826906391605,0.0,0.0
75.0,57.0,0.1,1.7288830103212331,3.316876310913433,0.0,0.0
75.0,57.0,0.3,1.7288830103212331,3.316876310913433,0.0,0.0
75.0,57.0,0.7,1.7288830103212331,3.316876310913433,0.0,0.0
75.0,57.0,1.0,1.7288830103212331,3.316876310913433,0.0,0.0
75.0,65.0,0.1,1.9179956096471753,4.260006798902266,0.0,0.0
75.0,65.0,0.3,1.9179956096471753,4.260006798902266,0.0,0.0
75.0,65.0,0.7,1.9179956096471753,4.260006798902266,0.0,0.0
75.0,65.0,1.0,1.9179956096471753,4.260006798902266,0.0,0.0
75.0,73.0,0.1,2.2310521284199907,5.401837400104189,0.0,0.0
75.0,73.0,0.3,2.2310521284199907,5.401837400104189,0.0,0.0
75.0,73.0,0.7,2.2310521284199907,5.401837400104189,0.0,0.0
75.0,73.0,1.0,2.2310521284199907,5.401837400104189,0.0,0.0
75.0,81.0,0.1,2.5827005174868733,6.665688583170999,0.0,0.0
75.0,81.0,0.3,2.5827005174868733,6.665688583170999,0.0,0.0
75.0,81.0,0.7,2.5827005174868733,6.665688583170999,0.0,0.0
75.0,81.0,1.0,2.5827005174868733,6.665688583170999,0.0,0.0
75.0,89.0,0.1,3.006171421206555,7.811897887171368,0.0,0.0
75.0,89.0,0.3,3.006171421206555,7.811897887171368,0.0,0.0
75.0,89.0,0.7,3.006171421206555,7.811897887171368,0.0,0.0
75.0,89.0,1.0,3.006171421206555,7.811897887171368,0.0,0.0
75.0,97.0,0.1,3.4421367173220205,9.399565577787747,0.0,0.0
75.0,97.0,0.3,3.4421367173220205,9.399565577787747,0.0,0.0
75.0,97.0,0.7,3.4421367173220205,9.399565577787747,0.0,0.0
75.0,97.0,1.0,3.4421367173220205,9.399565577787747,0.0,0.0
75.0,105.0,0.1,3.5094372780164513,11.107607161202461,0.0,0.0
75.0,105.0,0.3,3.5094372780164513,11.107607161202461,0.0,0.0
75.0,105.0,0.7,3.5094372780164513,11.107607161202461,0.0,0.0
75.0,105.0,1.0,3.5094372780164513,11.107607161202461,0.0,0.0
75.0,113.0,0.1,3.454830468148306,11.858882690091852,0.0,0.0
75.0,113.0,0.3,3.454830468148306,11.858882690091852,0.0,0.0
75.0,113.0,0.7,3.454830468148306,11.858882690091852,0.0,0.0
75.0,113.0,1.0,3.454830468148306,11.858882690091852,0.0,0.0
75.0,121.0,0.1,3.4661817055399737,11.821482916423152,0.0,0.0
75.0,121.0,0.3,3.4661817055399737,11.821482916423152,0.0,0.0
75.0,121.0,0.7,3.4661817055399737,11.821482916423152,0.0,0.0
75.0,121.0,1.0,3.4661817055399737,11.821482916423152,0.0,0.0
75.0,127.0,0.1,3.4698501997731146,11.817981813061019,0.0,0.0
75.0,127.0,0.3,3.4698501997731146,11.817981813061019,0.0,0.0
75.0,127.0,0.7,3.4698501997731146,11.817981813061019,0.0,0.0
75.0,127.0,1.0,3.4698501997731146,11.817981813061019,0.0,0.0
76.0,1.0,0.1,1.128584595669467,0.06602328285990845,0.0,0.0
76.0,1.0,0.3,1.128584595669467,0.06602328285990845,0.0,0.0
76.0,1.0,0.7,1.128584595669467,0.06602328285990845,0.0,0.0
76.0,1.0,1.0,1.128584595669467,0.06602328285990845,0.0,0.0
76.0,9.0,0.1,0.7736779016176577,0.10228463997484763,0.0,0.0
76.0,9.0,0.3,0.7736779016176577,0.10228463997484763,0.0,0.0
76.0,9.0,0.7,0.7736779016176577,0.10228463997484763,0.0,0.0
76.0,9.0,1.0,0.7736779016176577,0.10228463997484763,0.0,0.0
76.0,17.0,0.1,0.7385334345694783,0.22777303462773593,0.0,0.0
76.0,17.0,0.3,0.7385334345694783,0.22777303462773593,0.0,0.0
76.0,17.0,0.7,0.7385334345694783,0.22777303462773593,0.0,0.0
76.0,17.0,1.0,0.7385334345694783,0.22777303462773593,0.0,0.0
76.0,25.0,0.1,0.7181128073165314,0.5154122434230614,0.0,0.0
76.0,25.0,0.3,0.7181128073165314,0.5154122434230614,0.0,0.0
76.0,25.0,0.7,0.7181128073165314,0.5154122434230614,0.0,0.0
76.0,25.0,1.0,0.7181128073165314,0.5154122434230614,0.0,0.0
76.0,33.0,0.1,0.9334973528688637,0.7166110774673912,0.0,0.0
76.0,33.0,0.3,0.9334973528688637,0.7166110774673912,0.0,0.0
76.0,33.0,0.7,0.9334973528688637,0.7166110774673912,0.0,0.0
76.0,33.0,1.0,0.9334973528688637,0.7166110774673912,0.0,0.0
76.0,41.0,0.1,1.0200839988661963,0.9988579047337753,0.0,0.0
76.0,41.0,0.3,1.0200839988661963,0.9988579047337753,0.0,0.0
76.0,41.0,0.7,1.0200839988661963,0.9988579047337753,0.0,0.0
76.0,41.0,1.0,1.0200839988661963,0.9988579047337753,0.0,0.0
76.0,49.0,0.1,1.7221612915312028,1.454410862610688,0.0,0.0
76.0,49.0,0.3,1.7221612915312028,1.454410862610688,0.0,0.0
76.0,49.0,0.7,1.7221612915312028,1.454410862610688,0.0,0.0
76.0,49.0,1.0,1.7221612915312028,1.454410862610688,0.0,0.0
76.0,57.0,0.1,1.934434364620937,2.1488637864672286,0.0,0.0
76.0,57.0,0.3,1.934434364620937,2.1488637864672286,0.0,0.0
76.0,57.0,0.7,1.934434364620937,2.1488637864672286,0.0,0.0
76.0,57.0,1.0,1.934434364620937,2.1488637864672286,0.0,0.0
76.0,65.0,0.1,2.557216539687242,3.130383878726151,0.0,0.0
76.0,65.0,0.3,2.557216539687242,3.130383878726151,0.0,0.0
76.0,65.0,0.7,2.557216539687242,3.130383878726151,0.0,0.0
76.0,65.0,1.0,2.557216539687242,3.130383878726151,0.0,0.0
76.0,73.0,0.1,3.2318980760863614,4.128650148053461,0.0,0.0
76.0,73.0,0.3,3.2318980760863614,4.128650148053461,0.0,0.0
76.0,73.0,0.7,3.2318980760863614,4.128650148053461,0.0,0.0
76.0,73.0,1.0,3.2318980760863614,4.128650148053461,0.0,0.0
76.0,81.0,0.1,4.033455004311855,5.029608274608345,0.0,0.0
76.0,81.0,0.3,4.033455004311855,5.029608274608345,0.0,0.0
76.0,81.0,0.7,4.033455004311855,5.029608274608345,0.0,0.0
76.0,81.0,1.0,4.033455004311855,5.029608274608345,0.0,0.0
76.0,89.0,0.1,4.572338991992575,5.923753332716536,0.0,0.0
76.0,89.0,0.3,4.572338991992575,5.923753332716536,0.0,0.0
76.0,89.0,0.7,4.572338991992575,5.923753332716536,0.0,0.0
76.0,89.0,1.0,4.572338991992575,5.923753332716536,0.0,0.0
76.0,97.0,0.1,5.085122973801226,7.281766575037304,0.0,0.0
76.0,97.0,0.3,5.085122973801226,7.281766575037304,0.0,0.0
76.0,97.0,0.7,5.085122973801226,7.281766575037304,0.0,0.0
76.0,97.0,1.0,5.085122973801226,7.281766575037304,0.0,0.0
76.0,105.0,0.1,5.064618364051309,11.18575360166828,0.0,0.0
76.0,105.0,0.3,5.064618364051309,11.18575360166828,0.0,0.0
76.0,105.0,0.7,5.064618364051309,11.18575360166828,0.0,0.0
76.0,105.0,1.0,5.064618364051309,11.18575360166828,0.0,0.0
76.0,113.0,0.1,5.070024054766199,11.134545270710575,0.0,0.0
76.0,113.0,0.3,5.070024054766199,11.134545270710575,0.0,0.0
76.0,113.0,0.7,5.070024054766199,11.134545270710575,0.0,0.0
76.0,113.0,1.0,5.070024054766199,11.134545270710575,0.0,0.0
76.0,121.0,0.1,5.052575448911064,11.06767406657692,0.0,0.0
76.0,121.0,0.3,5.052575448911064,11.06767406657692,0.0,0.0
76.0,121.0,0.7,5.052575448911064,11.06767406657692,0.0,0.0
76.0,121.0,1.0,5.052575448911064,11.06767406657692,0.0,0.0
76.0,127.0,0.1,5.024370935277393,11.046990773208137,0.0,0.0
76.0,127.0,0.3,5.024370935277393,11.046990773208137,0.0,0.0
76.0,127.0,0.7,5.024370935277393,11.046990773208137,0.0,0.0
76.0,127.0,1.0,5.024370935277393,11.046990773208137,0.0,0.0
77.0,1.0,0.1,0.4720541832242476,0.05926486008983421,0.0,0.0
77.0,1.0,0.3,0.4720541832242476,0.05926486008983421,0.0,0.0
77.0,1.0,0.7,0.4720541832242476,0.05926486008983421,0.0,0.0
77.0,1.0,1.0,0.4720541832242476,0.05926486008983421,0.0,0.0
77.0,9.0,0.1,0.3652427327572131,0.05717245755343595,0.0,0.0
77.0,9.0,0.3,0.3652427327572131,0.05717245755343595,0.0,0.0
77.0,9.0,0.7,0.3652427327572131,0.05717245755343595,0.0,0.0
77.0,9.0,1.0,0.3652427327572131,0.05717245755343595,0.0,0.0
77.0,17.0,0.1,0.3517865710139268,0.11709641537374622,0.0,0.0
77.0,17.0,0.3,0.3517865710139268,0.11709641537374622,0.0,0.0
77.0,17.0,0.7,0.3517865710139268,0.11709641537374622,0.0,0.0
77.0,17.0,1.0,0.3517865710139268,0.11709641537374622,0.0,0.0
77.0,25.0,0.1,0.32206768713562084,0.2536866266902914,0.0,0.0
77.0,25.0,0.3,0.32206768713562084,0.2536866266902914,0.0,0.0
77.0,25.0,0.7,0.32206768713562084,0.2536866266902914,0.0,0.0
77.0,25.0,1.0,0.32206768713562084,0.2536866266902914,0.0,0.0
77.0,33.0,0.1,0.567689027583474,0.5098460817719019,0.0,0.0
77.0,33.0,0.3,0.567689027583474,0.5098460817719019,0.0,0.0
77.0,33.0,0.7,0.567689027583474,0.5098460817719019,0.0,0.0
77.0,33.0,1.0,0.567689027583474,0.5098460817719019,0.0,0.0
77.0,41.0,0.1,0.8288867381996706,0.7846282709414658,0.0,0.0
77.0,41.0,0.3,0.8288867381996706,0.7846282709414658,0.0,0.0
77.0,41.0,0.7,0.8288867381996706,0.7846282709414658,0.0,0.0
77.0,41.0,1.0,0.8288867381996706,0.7846282709414658,0.0,0.0
77.0,49.0,0.1,1.1458393832144491,1.1614548183336437,0.0,0.0
77.0,49.0,0.3,1.1458393832144491,1.1614548183336437,0.0,0.0
77.0,49.0,0.7,1.1458393832144491,1.1614548183336437,0.0,0.0
77.0,49.0,1.0,1.1458393832144491,1.1614548183336437,0.0,0.0
77.0,57.0,0.1,1.2708892874860818,1.8135786563600873,0.0,0.0
77.0,57.0,0.3,1.2708892874860818,1.8135786563600873,0.0,0.0
77.0,57.0,0.7,1.2708892874860818,1.8135786563600873,0.0,0.0
77.0,57.0,1.0,1.2708892874860818,1.8135786563600873,0.0,0.0
77.0,65.0,0.1,2.0878223861652483,2.65089819092927,0.0,0.0
77.0,65.0,0.3,2.0878223861652483,2.65089819092927,0.0,0.0
77.0,65.0,0.7,2.0878223861652483,2.65089819092927,0.0,0.0
77.0,65.0,1.0,2.0878223861652483,2.65089819092927,0.0,0.0
77.0,73.0,0.1,3.068516344013566,3.7234012170934347,0.0,0.0
77.0,73.0,0.3,3.068516344013566,3.7234012170934347,0.0,0.0
77.0,73.0,0.7,3.068516344013566,3.7234012170934347,0.0,0.0
77.0,73.0,1.0,3.068516344013566,3.7234012170934347,0.0,0.0
77.0,81.0,0.1,3.9827716152574832,4.757228873640248,0.0,0.0
77.0,81.0,0.3,3.9827716152574832,4.757228873640248,0.0,0.0
77.0,81.0,0.7,3.9827716152574832,4.757228873640248,0.0,0.0
77.0,81.0,1.0,3.9827716152574832,4.757228873640248,0.0,0.0
77.0,89.0,0.1,4.79187004404962,5.749527679361322,0.0,0.0
77.0,89.0,0.3,4.79187004404962,5.749527679361322,0.0,0.0
77.0,89.0,0.7,4.79187004404962,5.749527679361322,0.0,0.0
77.0,89.0,1.0,4.79187004404962,5.749527679361322,0.0,0.0
77.0,97.0,0.1,5.360302773728831,7.161659822108553,0.0,0.0
77.0,97.0,0.3,5.360302773728831,7.161659822108553,0.0,0.0
77.0,97.0,0.7,5.360302773728831,7.161659822108553,0.0,0.0
77.0,97.0,1.0,5.360302773728831,7.161659822108553,0.0,0.0
77.0,105.0,0.1,5.47649540663762,10.271728379490398,0.0,0.0
77.0,105.0,0.3,5.47649540663762,10.271728379490398,0.0,0.0
77.0,105.0,0.7,5.47649540663762,10.271728379490398,0.0,0.0
77.0,105.0,1.0,5.47649540663762,10.271728379490398,0.0,0.0
77.0,113.0,0.1,5.446409200415833,9.768621746384236,0.0,0.0
77.0,113.0,0.3,5.446409200415833,9.768621746384236,0.0,0.0
77.0,113.0,0.7,5.446409200415833,9.768621746384236,0.0,0.0
77.0,113.0,1.0,5.446409200415833,9.768621746384236,0.0,0.0
77.0,121.0,0.1,5.42027807910722,9.426290171464395,0.0,0.0
77.0,121.0,0.3,5.42027807910722,9.426290171464395,0.0,0.0
77.0,121.0,0.7,5.42027807910722,9.426290171464395,0.0,0.0
77.0,121.0,1.0,5.42027807910722,9.426290171464395,0.0,0.0
77.0,127.0,0.1,5.430855675770891,9.596078035859017,0.0,0.0
77.0,127.0,0.3,5.430855675770891,9.596078035859017,0.0,0.0
77.0,127.0,0.7,5.430855675770891,9.596078035859017,0.0,0.0
77.0,127.0,1.0,5.430855675770891,9.596078035859017,0.0,0.0
78.0,1.0,0.1,1.5710402245478103,0.021428132984203246,0.0,0.0
78.0,1.0,0.3,1.5710402245478103,0.021428132984203246,0.0,0.0
78.0,1.0,0.7,1.5710402245478103,0.021428132984203246,0.0,0.0
78.0,1.0,1.0,1.5710402245478103,0.021428132984203246,0.0,0.0
78.0,9.0,0.1,1.5601149982745905,0.03579999062496198,0.0,0.0
78.0,9.0,0.3,1.5601149982745905,0.03579999062496198,0.0,0.0
78.0,9.0,0.7,1.5601149982745905,0.03579999062496198,0.0,0.0
78.0,9.0,1.0,1.5601149982745905,0.03579999062496198,0.0,0.0
78.0,17.0,0.1,1.583609456946636,0.0689527041417346,0.0,0.0
78.0,17.0,0.3,1.583609456946636,0.0689527041417346,0.0,0.0
78.0,17.0,0.7,1.583609456946636,0.0689527041417346,0.0,0.0
78.0,17.0,1.0,1.583609456946636,0.0689527041417346,0.0,0.0
78.0,25.0,0.1,1.6224113255061505,0.24705719197420722,0.0,0.0
78.0,25.0,0.3,1.6224113255061505,0.24705719197420722,0.0,0.0
78.0,25.0,0.7,1.6224113255061505,0.24705719197420722,0.0,0.0
78.0,25.0,1.0,1.6224113255061505,0.24705719197420722,0.0,0.0
78.0,33.0,0.1,1.6971541224062698,0.5356432743559723,0.0,0.0
78.0,33.0,0.3,1.6971541224062698,0.5356432743559723,0.0,0.0
78.0,33.0,0.7,1.6971541224062698,0.5356432743559723,0.0,0.0
78.0,33.0,1.0,1.6971541224062698,0.5356432743559723,0.0,0.0
78.0,41.0,0.1,1.688636181992707,0.7760503827227716,0.0,0.0
78.0,41.0,0.3,1.688636181992707,0.7760503827227716,0.0,0.0
78.0,41.0,0.7,1.688636181992707,0.7760503827227716,0.0,0.0
78.0,41.0,1.0,1.688636181992707,0.7760503827227716,0.0,0.0
78.0,49.0,0.1,1.78997015210422,1.2793085336504422,0.0,0.0
78.0,49.0,0.3,1.78997015210422,1.2793085336504422,0.0,0.0
78.0,49.0,0.7,1.78997015210422,1.2793085336504422,0.0,0.0
78.0,49.0,1.0,1.78997015210422,1.2793085336504422,0.0,0.0
78.0,57.0,0.1,1.917583544151571,1.9648239947514867,0.0,0.0
78.0,57.0,0.3,1.917583544151571,1.9648239947514867,0.0,0.0
78.0,57.0,0.7,1.917583544151571,1.9648239947514867,0.0,0.0
78.0,57.0,1.0,1.917583544151571,1.9648239947514867,0.0,0.0
78.0,65.0,0.1,2.1964840554850817,2.820818971040778,0.0,0.0
78.0,65.0,0.3,2.1964840554850817,2.820818971040778,0.0,0.0
78.0,65.0,0.7,2.1964840554850817,2.820818971040778,0.0,0.0
78.0,65.0,1.0,2.1964840554850817,2.820818971040778,0.0,0.0
78.0,73.0,0.1,2.6044365726867986,3.864230705537976,0.0,0.0
78.0,73.0,0.3,2.6044365726867986,3.864230705537976,0.0,0.0
78.0,73.0,0.7,2.6044365726867986,3.864230705537976,0.0,0.0
78.0,73.0,1.0,2.6044365726867986,3.864230705537976,0.0,0.0
78.0,81.0,0.1,3.0003970021255904,5.136396648580334,0.0,0.0
78.0,81.0,0.3,3.0003970021255904,5.136396648580334,0.0,0.0
78.0,81.0,0.7,3.0003970021255904,5.136396648580334,0.0,0.0
78.0,81.0,1.0,3.0003970021255904,5.136396648580334,0.0,0.0
78.0,89.0,0.1,3.4683967061491607,6.241624313923494,0.0,0.0
78.0,89.0,0.3,3.4683967061491607,6.241624313923494,0.0,0.0
78.0,89.0,0.7,3.4683967061491607,6.241624313923494,0.0,0.0
78.0,89.0,1.0,3.4683967061491607,6.241624313923494,0.0,0.0
78.0,97.0,0.1,3.896147703478008,8.462368739524567,0.0,0.0
78.0,97.0,0.3,3.896147703478008,8.462368739524567,0.0,0.0
78.0,97.0,0.7,3.896147703478008,8.462368739524567,0.0,0.0
78.0,97.0,1.0,3.896147703478008,8.462368739524567,0.0,0.0
78.0,105.0,0.1,3.884661315324811,11.013491786122149,0.0,0.0
78.0,105.0,0.3,3.884661315324811,11.013491786122149,0.0,0.0
78.0,105.0,0.7,3.884661315324811,11.013491786122149,0.0,0.0
78.0,105.0,1.0,3.884661315324811,11.013491786122149,0.0,0.0
78.0,113.0,0.1,3.8770950697277073,10.999621371272232,0.0,0.0
78.0,113.0,0.3,3.8770950697277073,10.999621371272232,0.0,0.0
78.0,113.0,0.7,3.8770950697277073,10.999621371272232,0.0,0.0
78.0,113.0,1.0,3.8770950697277073,10.999621371272232,0.0,0.0
78.0,121.0,0.1,3.8610093608340312,3.048594694865952,0.0,0.0
78.0,121.0,0.3,3.8610093608340312,3.048594694865952,0.0,0.0
78.0,121.0,0.7,3.8610093608340312,3.048594694865952,0.0,0.0
78.0,121.0,1.0,3.8610093608340312,3.048594694865952,0.0,0.0
78.0,127.0,0.1,3.854469966427223,3.2101162126599267e-06,0.0,0.0
78.0,127.0,0.3,3.854469966427223,3.2101162126599267e-06,0.0,0.0
78.0,127.0,0.7,3.854469966427223,3.2101162126599267e-06,0.0,0.0
78.0,127.0,1.0,3.854469966427223,3.2101162126599267e-06,0.0,0.0
79.0,1.0,0.1,0.6912468843522754,0.13025601959929367,0.0,0.0
79.0,1.0,0.3,0.6912468843522754,0.13025601959929367,0.0,0.0
79.0,1.0,0.7,0.6912468843522754,0.13025601959929367,0.0,0.0
79.0,1.0,1.0,0.6912468843522754,0.13025601959929367,0.0,0.0
79.0,9.0,0.1,0.6519257078627566,0.13860715829163361,0.0,0.0
79.0,9.0,0.3,0.6519257078627566,0.13860715829163361,0.0,0.0
79.0,9.0,0.7,0.6519257078627566,0.13860715829163361,0.0,0.0
79.0,9.0,1.0,0.6519257078627566,0.13860715829163361,0.0,0.0
79.0,17.0,0.1,0.63046870956539,0.2485632653973359,0.0,0.0
79.0,17.0,0.3,0.63046870956539,0.2485632653973359,0.0,0.0
79.0,17.0,0.7,0.63046870956539,0.2485632653973359,0.0,0.0
79.0,17.0,1.0,0.63046870956539,0.2485632653973359,0.0,0.0
79.0,25.0,0.1,0.6087599549366745,0.46756281877360983,0.0,0.0
79.0,25.0,0.3,0.6087599549366745,0.46756281877360983,0.0,0.0
79.0,25.0,0.7,0.6087599549366745,0.46756281877360983,0.0,0.0
79.0,25.0,1.0,0.6087599549366745,0.46756281877360983,0.0,0.0
79.0,33.0,0.1,0.701256768214498,0.7944692517733117,0.0,0.0
79.0,33.0,0.3,0.701256768214498,0.7944692517733117,0.0,0.0
79.0,33.0,0.7,0.701256768214498,0.7944692517733117,0.0,0.0
79.0,33.0,1.0,0.701256768214498,0.7944692517733117,0.0,0.0
79.0,41.0,0.1,0.9105613445945043,1.2053538351675308,0.0,0.0
79.0,41.0,0.3,0.9105613445945043,1.2053538351675308,0.0,0.0
79.0,41.0,0.7,0.9105613445945043,1.2053538351675308,0.0,0.0
79.0,41.0,1.0,0.9105613445945043,1.2053538351675308,0.0,0.0
79.0,49.0,0.1,1.3058461124764886,1.8238727246044129,0.0,0.0
79.0,49.0,0.3,1.3058461124764886,1.8238727246044129,0.0,0.0
79.0,49.0,0.7,1.3058461124764886,1.8238727246044129,0.0,0.0
79.0,49.0,1.0,1.3058461124764886,1.8238727246044129,0.0,0.0
79.0,57.0,0.1,1.4000164390668026,2.578241923046391,0.0,0.0
79.0,57.0,0.3,1.4000164390668026,2.578241923046391,0.0,0.0
79.0,57.0,0.7,1.4000164390668026,2.578241923046391,0.0,0.0
79.0,57.0,1.0,1.4000164390668026,2.578241923046391,0.0,0.0
79.0,65.0,0.1,1.9102166469318504,3.5142146305543984,0.0,0.0
79.0,65.0,0.3,1.9102166469318504,3.5142146305543984,0.0,0.0
79.0,65.0,0.7,1.9102166469318504,3.5142146305543984,0.0,0.0
79.0,65.0,1.0,1.9102166469318504,3.5142146305543984,0.0,0.0
79.0,73.0,0.1,2.5658569607905855,4.572132561270586,0.0,0.0
79.0,73.0,0.3,2.5658569607905855,4.572132561270586,0.0,0.0
79.0,73.0,0.7,2.5658569607905855,4.572132561270586,0.0,0.0
79.0,73.0,1.0,2.5658569607905855,4.572132561270586,0.0,0.0
79.0,81.0,0.1,3.2374707555285873,5.667407407748345,0.0,0.0
79.0,81.0,0.3,3.2374707555285873,5.667407407748345,0.0,0.0
79.0,81.0,0.7,3.2374707555285873,5.667407407748345,0.0,0.0
79.0,81.0,1.0,3.2374707555285873,5.667407407748345,0.0,0.0
79.0,89.0,0.1,3.935598112255154,6.6154713058622105,0.0,0.0
79.0,89.0,0.3,3.935598112255154,6.6154713058622105,0.0,0.0
79.0,89.0,0.7,3.935598112255154,6.6154713058622105,0.0,0.0
79.0,89.0,1.0,3.935598112255154,6.6154713058622105,0.0,0.0
79.0,97.0,0.1,4.413943926010237,9.623836549684889,0.0,0.0
79.0,97.0,0.3,4.413943926010237,9.623836549684889,0.0,0.0
79.0,97.0,0.7,4.413943926010237,9.623836549684889,0.0,0.0
79.0,97.0,1.0,4.413943926010237,9.623836549684889,0.0,0.0
79.0,105.0,0.1,4.454388821065131,10.882038097486813,0.0,0.0
79.0,105.0,0.3,4.454388821065131,10.882038097486813,0.0,0.0
79.0,105.0,0.7,4.454388821065131,10.882038097486813,0.0,0.0
79.0,105.0,1.0,4.454388821065131,10.882038097486813,0.0,0.0
79.0,113.0,0.1,4.449111430613307,10.861509986668928,0.0,0.0
79.0,113.0,0.3,4.449111430613307,10.861509986668928,0.0,0.0
79.0,113.0,0.7,4.449111430613307,10.861509986668928,0.0,0.0
79.0,113.0,1.0,4.449111430613307,10.861509986668928,0.0,0.0
79.0,121.0,0.1,4.457760738274659,10.814279308214468,0.0,0.0
79.0,121.0,0.3,4.457760738274659,10.814279308214468,0.0,0.0
79.0,121.0,0.7,4.457760738274659,10.814279308214468,0.0,0.0
79.0,121.0,1.0,4.457760738274659,10.814279308214468,0.0,0.0
79.0,127.0,0.1,4.402776533097341,10.816965261806471,0.0,0.0
79.0,127.0,0.3,4.402776533097341,10.816965261806471,0.0,0.0
79.0,127.0,0.7,4.402776533097341,10.816965261806471,0.0,0.0
79.0,127.0,1.0,4.402776533097341,10.816965261806471,0.0,0.0
80.0,1.0,0.1,1.6067150298400228,0.3660448209004557,0.0,0.0
80.0,1.0,0.3,1.6067150298400228,0.3660448209004557,0.0,0.0
80.0,1.0,0.7,1.6067150298400228,0.3660448209004557,0.0,0.0
80.0,1.0,1.0,1.6067150298400228,0.3660448209004557,0.0,0.0
80.0,9.0,0.1,1.4945944896254941,0.35132101056491627,0.0,0.0
80.0,9.0,0.3,1.4945944896254941,0.35132101056491627,0.0,0.0
80.0,9.0,0.7,1.4945944896254941,0.35132101056491627,0.0,0.0
80.0,9.0,1.0,1.4945944896254941,0.35132101056491627,0.0,0.0
80.0,17.0,0.1,1.5533049912256522,0.6250775838606861,0.0,0.0
80.0,17.0,0.3,1.5533049912256522,0.6250775838606861,0.0,0.0
80.0,17.0,0.7,1.5533049912256522,0.6250775838606861,0.0,0.0
80.0,17.0,1.0,1.5533049912256522,0.6250775838606861,0.0,0.0
80.0,25.0,0.1,1.7475323779968817,1.106392013114975,0.0,0.0
80.0,25.0,0.3,1.7475323779968817,1.106392013114975,0.0,0.0
80.0,25.0,0.7,1.7475323779968817,1.106392013114975,0.0,0.0
80.0,25.0,1.0,1.7475323779968817,1.106392013114975,0.0,0.0
80.0,33.0,0.1,1.648257369982011,1.5723688519958636,0.0,0.0
80.0,33.0,0.3,1.648257369982011,1.5723688519958636,0.0,0.0
80.0,33.0,0.7,1.648257369982011,1.5723688519958636,0.0,0.0
80.0,33.0,1.0,1.648257369982011,1.5723688519958636,0.0,0.0
80.0,41.0,0.1,1.7881508565357926,2.097980198473502,0.0,0.0
80.0,41.0,0.3,1.7881508565357926,2.097980198473502,0.0,0.0
80.0,41.0,0.7,1.7881508565357926,2.097980198473502,0.0,0.0
80.0,41.0,1.0,1.7881508565357926,2.097980198473502,0.0,0.0
80.0,49.0,0.1,1.9103387806338377,2.7853276259862008,0.0,0.0
80.0,49.0,0.3,1.9103387806338377,2.7853276259862008,0.0,0.0
80.0,49.0,0.7,1.9103387806338377,2.7853276259862008,0.0,0.0
80.0,49.0,1.0,1.9103387806338377,2.7853276259862008,0.0,0.0
80.0,57.0,0.1,2.082614088014649,3.6501409114132723,0.0,0.0
80.0,57.0,0.3,2.082614088014649,3.6501409114132723,0.0,0.0
80.0,57.0,0.7,2.082614088014649,3.6501409114132723,0.0,0.0
80.0,57.0,1.0,2.082614088014649,3.6501409114132723,0.0,0.0
80.0,65.0,0.1,2.377716489040709,4.75617753949725,0.0,0.0
80.0,65.0,0.3,2.377716489040709,4.75617753949725,0.0,0.0
80.0,65.0,0.7,2.377716489040709,4.75617753949725,0.0,0.0
80.0,65.0,1.0,2.377716489040709,4.75617753949725,0.0,0.0
80.0,73.0,0.1,2.7462172013049684,5.976195382465245,0.0,0.0
80.0,73.0,0.3,2.7462172013049684,5.976195382465245,0.0,0.0
80.0,73.0,0.7,2.7462172013049684,5.976195382465245,0.0,0.0
80.0,73.0,1.0,2.7462172013049684,5.976195382465245,0.0,0.0
80.0,81.0,0.1,3.37494663221283,7.569324340447219,0.0,0.0
80.0,81.0,0.3,3.37494663221283,7.569324340447219,0.0,0.0
80.0,81.0,0.7,3.37494663221283,7.569324340447219,0.0,0.0
80.0,81.0,1.0,3.37494663221283,7.569324340447219,0.0,0.0
80.0,89.0,0.1,4.003338683198059,9.256149939154433,0.0,0.0
80.0,89.0,0.3,4.003338683198059,9.256149939154433,0.0,0.0
80.0,89.0,0.7,4.003338683198059,9.256149939154433,0.0,0.0
80.0,89.0,1.0,4.003338683198059,9.256149939154433,0.0,0.0
80.0,97.0,0.1,4.305684916389911,11.501688127058111,0.0,0.0
80.0,97.0,0.3,4.305684916389911,11.501688127058111,0.0,0.0
80.0,97.0,0.7,4.305684916389911,11.501688127058111,0.0,0.0
80.0,97.0,1.0,4.305684916389911,11.501688127058111,0.0,0.0
80.0,105.0,0.1,4.289731433996992,13.594106908290968,0.0,0.0
80.0,105.0,0.3,4.289731433996992,13.594106908290968,0.0,0.0
80.0,105.0,0.7,4.289731433996992,13.594106908290968,0.0,0.0
80.0,105.0,1.0,4.289731433996992,13.594106908290968,0.0,0.0
80.0,113.0,0.1,4.313003210249532,13.81311835290817,0.0,0.0
80.0,113.0,0.3,4.313003210249532,13.81311835290817,0.0,0.0
80.0,113.0,0.7,4.313003210249532,13.81311835290817,0.0,0.0
80.0,113.0,1.0,4.313003210249532,13.81311835290817,0.0,0.0
80.0,121.0,0.1,4.2415439481847415,13.716863547962609,0.0,0.0
80.0,121.0,0.3,4.2415439481847415,13.716863547962609,0.0,0.0
80.0,121.0,0.7,4.2415439481847415,13.716863547962609,0.0,0.0
80.0,121.0,1.0,4.2415439481847415,13.716863547962609,0.0,0.0
80.0,127.0,0.1,4.314544357852435,13.752026992926677,0.0,0.0
80.0,127.0,0.3,4.314544357852435,13.752026992926677,0.0,0.0
80.0,127.0,0.7,4.314544357852435,13.752026992926677,0.0,0.0
80.0,127.0,1.0,4.314544357852435,13.752026992926677,0.0,0.0
81.0,1.0,0.1,0.5317600102095725,0.003774081685948624,0.0,0.0
81.0,1.0,0.3,0.5317600102095725,0.003774081685948624,0.0,0.0
81.0,1.0,0.7,0.5317600102095725,0.003774081685948624,0.0,0.0
81.0,1.0,1.0,0.5317600102095725,0.003774081685948624,0.0,0.0
81.0,9.0,0.1,0.5558851979755329,0.002273632357652455,0.0,0.0
81.0,9.0,0.3,0.5558851979755329,0.002273632357652455,0.0,0.0
81.0,9.0,0.7,0.5558851979755329,0.002273632357652455,0.0,0.0
81.0,9.0,1.0,0.5558851979755329,0.002273632357652455,0.0,0.0
81.0,17.0,0.1,0.5533206933095024,0.018861182071535663,0.0,0.0
81.0,17.0,0.3,0.5533206933095024,0.018861182071535663,0.0,0.0
81.0,17.0,0.7,0.5533206933095024,0.018861182071535663,0.0,0.0
81.0,17.0,1.0,0.5533206933095024,0.018861182071535663,0.0,0.0
81.0,25.0,0.1,0.5464663085326763,0.1783554348535831,0.0,0.0
81.0,25.0,0.3,0.5464663085326763,0.1783554348535831,0.0,0.0
81.0,25.0,0.7,0.5464663085326763,0.1783554348535831,0.0,0.0
81.0,25.0,1.0,0.5464663085326763,0.1783554348535831,0.0,0.0
81.0,33.0,0.1,0.6717718601330147,0.41741853570124826,0.0,0.0
81.0,33.0,0.3,0.6717718601330147,0.41741853570124826,0.0,0.0
81.0,33.0,0.7,0.6717718601330147,0.41741853570124826,0.0,0.0
81.0,33.0,1.0,0.6717718601330147,0.41741853570124826,0.0,0.0
81.0,41.0,0.1,1.0440225830707255,0.7045750187459491,0.0,0.0
81.0,41.0,0.3,1.0440225830707255,0.7045750187459491,0.0,0.0
81.0,41.0,0.7,1.0440225830707255,0.7045750187459491,0.0,0.0
81.0,41.0,1.0,1.0440225830707255,0.7045750187459491,0.0,0.0
81.0,49.0,0.1,1.2412661086512966,1.0409744059256971,0.0,0.0
81.0,49.0,0.3,1.2412661086512966,1.0409744059256971,0.0,0.0
81.0,49.0,0.7,1.2412661086512966,1.0409744059256971,0.0,0.0
81.0,49.0,1.0,1.2412661086512966,1.0409744059256971,0.0,0.0
81.0,57.0,0.1,1.3411743684458548,1.6189760776626252,0.0,0.0
81.0,57.0,0.3,1.3411743684458548,1.6189760776626252,0.0,0.0
81.0,57.0,0.7,1.3411743684458548,1.6189760776626252,0.0,0.0
81.0,57.0,1.0,1.3411743684458548,1.6189760776626252,0.0,0.0
81.0,65.0,0.1,1.8924616643220165,2.445197992057462,0.0,0.0
81.0,65.0,0.3,1.8924616643220165,2.445197992057462,0.0,0.0
81.0,65.0,0.7,1.8924616643220165,2.445197992057462,0.0,0.0
81.0,65.0,1.0,1.8924616643220165,2.445197992057462,0.0,0.0
81.0,73.0,0.1,2.4815060579600576,3.2741439644525356,0.0,0.0
81.0,73.0,0.3,2.4815060579600576,3.2741439644525356,0.0,0.0
81.0,73.0,0.7,2.4815060579600576,3.2741439644525356,0.0,0.0
81.0,73.0,1.0,2.4815060579600576,3.2741439644525356,0.0,0.0
81.0,81.0,0.1,3.2623372819671443,4.286071651057565,0.0,0.0
81.0,81.0,0.3,3.2623372819671443,4.286071651057565,0.0,0.0
81.0,81.0,0.7,3.2623372819671443,4.286071651057565,0.0,0.0
81.0,81.0,1.0,3.2623372819671443,4.286071651057565,0.0,0.0
81.0,89.0,0.1,3.99703926422012,5.574235727812841,0.0,0.0
81.0,89.0,0.3,3.99703926422012,5.574235727812841,0.0,0.0
81.0,89.0,0.7,3.99703926422012,5.574235727812841,0.0,0.0
81.0,89.0,1.0,3.99703926422012,5.574235727812841,0.0,0.0
81.0,97.0,0.1,4.560439919508473,7.4976202887990135,0.0,0.0
81.0,97.0,0.3,4.560439919508473,7.4976202887990135,0.0,0.0
81.0,97.0,0.7,4.560439919508473,7.4976202887990135,0.0,0.0
81.0,97.0,1.0,4.560439919508473,7.4976202887990135,0.0,0.0
81.0,105.0,0.1,4.565876511590941,9.359454687240106,0.0,0.0
81.0,105.0,0.3,4.565876511590941,9.359454687240106,0.0,0.0
81.0,105.0,0.7,4.565876511590941,9.359454687240106,0.0,0.0
81.0,105.0,1.0,4.565876511590941,9.359454687240106,0.0,0.0
81.0,113.0,0.1,4.496239604181153,9.02618787153786,0.0,0.0
81.0,113.0,0.3,4.496239604181153,9.02618787153786,0.0,0.0
81.0,113.0,0.7,4.496239604181153,9.02618787153786,0.0,0.0
81.0,113.0,1.0,4.496239604181153,9.02618787153786,0.0,0.0
81.0,121.0,0.1,4.494292848417606,8.72867960158056,0.0,0.0
81.0,121.0,0.3,4.494292848417606,8.72867960158056,0.0,0.0
81.0,121.0,0.7,4.494292848417606,8.72867960158056,0.0,0.0
81.0,121.0,1.0,4.494292848417606,8.72867960158056,0.0,0.0
81.0,127.0,0.1,4.50046987037936,8.622308303487175,0.0,0.0
81.0,127.0,0.3,4.50046987037936,8.622308303487175,0.0,0.0
81.0,127.0,0.7,4.50046987037936,8.622308303487175,0.0,0.0
81.0,127.0,1.0,4.50046987037936,8.622308303487175,0.0,0.0
82.0,1.0,0.1,1.585969068988543,0.10026791494220251,0.0,0.0
82.0,1.0,0.3,1.585969068988543,0.10026791494220251,0.0,0.0
82.0,1.0,0.7,1.585969068988543,0.10026791494220251,0.0,0.0
82.0,1.0,1.0,1.585969068988543,0.10026791494220251,0.0,0.0
82.0,9.0,0.1,1.473704492998673,0.11932525299533886,0.0,0.0
82.0,9.0,0.3,1.473704492998673,0.11932525299533886,0.0,0.0
82.0,9.0,0.7,1.473704492998673,0.11932525299533886,0.0,0.0
82.0,9.0,1.0,1.473704492998673,0.11932525299533886,0.0,0.0
82.0,17.0,0.1,1.5350107521351632,0.2288656919335721,0.0,0.0
82.0,17.0,0.3,1.5350107521351632,0.2288656919335721,0.0,0.0
82.0,17.0,0.7,1.5350107521351632,0.2288656919335721,0.0,0.0
82.0,17.0,1.0,1.5350107521351632,0.2288656919335721,0.0,0.0
82.0,25.0,0.1,1.6620235661906588,0.720641253828293,0.0,0.0
82.0,25.0,0.3,1.6620235661906588,0.720641253828293,0.0,0.0
82.0,25.0,0.7,1.6620235661906588,0.720641253828293,0.0,0.0
82.0,25.0,1.0,1.6620235661906588,0.720641253828293,0.0,0.0
82.0,33.0,0.1,1.4868767290372296,1.385631857185082,0.0,0.0
82.0,33.0,0.3,1.4868767290372296,1.385631857185082,0.0,0.0
82.0,33.0,0.7,1.4868767290372296,1.385631857185082,0.0,0.0
82.0,33.0,1.0,1.4868767290372296,1.385631857185082,0.0,0.0
82.0,41.0,0.1,1.7153461764148443,1.9366280319873168,0.0,0.0
82.0,41.0,0.3,1.7153461764148443,1.9366280319873168,0.0,0.0
82.0,41.0,0.7,1.7153461764148443,1.9366280319873168,0.0,0.0
82.0,41.0,1.0,1.7153461764148443,1.9366280319873168,0.0,0.0
82.0,49.0,0.1,1.8810471048231736,2.543556740982313,0.0,0.0
82.0,49.0,0.3,1.8810471048231736,2.543556740982313,0.0,0.0
82.0,49.0,0.7,1.8810471048231736,2.543556740982313,0.0,0.0
82.0,49.0,1.0,1.8810471048231736,2.543556740982313,0.0,0.0
82.0,57.0,0.1,1.9508826364750278,3.3803793372839435,0.0,0.0
82.0,57.0,0.3,1.9508826364750278,3.3803793372839435,0.0,0.0
82.0,57.0,0.7,1.9508826364750278,3.3803793372839435,0.0,0.0
82.0,57.0,1.0,1.9508826364750278,3.3803793372839435,0.0,0.0
82.0,65.0,0.1,2.120604629261868,4.355220209952079,0.0,0.0
82.0,65.0,0.3,2.120604629261868,4.355220209952079,0.0,0.0
82.0,65.0,0.7,2.120604629261868,4.355220209952079,0.0,0.0
82.0,65.0,1.0,2.120604629261868,4.355220209952079,0.0,0.0
82.0,73.0,0.1,2.299004964920145,5.382361695023995,0.0,0.0
82.0,73.0,0.3,2.299004964920145,5.382361695023995,0.0,0.0
82.0,73.0,0.7,2.299004964920145,5.382361695023995,0.0,0.0
82.0,73.0,1.0,2.299004964920145,5.382361695023995,0.0,0.0
82.0,81.0,0.1,2.676354916852871,6.637799382741601,0.0,0.0
82.0,81.0,0.3,2.676354916852871,6.637799382741601,0.0,0.0
82.0,81.0,0.7,2.676354916852871,6.637799382741601,0.0,0.0
82.0,81.0,1.0,2.676354916852871,6.637799382741601,0.0,0.0
82.0,89.0,0.1,3.325210080474113,7.827009398290514,0.0,0.0
82.0,89.0,0.3,3.325210080474113,7.827009398290514,0.0,0.0
82.0,89.0,0.7,3.325210080474113,7.827009398290514,0.0,0.0
82.0,89.0,1.0,3.325210080474113,7.827009398290514,0.0,0.0
82.0,97.0,0.1,3.66143022715888,9.557281684770992,0.0,0.0
82.0,97.0,0.3,3.66143022715888,9.557281684770992,0.0,0.0
82.0,97.0,0.7,3.66143022715888,9.557281684770992,0.0,0.0
82.0,97.0,1.0,3.66143022715888,9.557281684770992,0.0,0.0
82.0,105.0,0.1,3.6296814837651237,12.880908128928095,0.0,0.0
82.0,105.0,0.3,3.6296814837651237,12.880908128928095,0.0,0.0
82.0,105.0,0.7,3.6296814837651237,12.880908128928095,0.0,0.0
82.0,105.0,1.0,3.6296814837651237,12.880908128928095,0.0,0.0
82.0,113.0,0.1,3.578972603648181,12.603257662769169,0.0,0.0
82.0,113.0,0.3,3.578972603648181,12.603257662769169,0.0,0.0
82.0,113.0,0.7,3.578972603648181,12.603257662769169,0.0,0.0
82.0,113.0,1.0,3.578972603648181,12.603257662769169,0.0,0.0
82.0,121.0,0.1,3.5842729043661947,12.538781880952962,0.0,0.0
82.0,121.0,0.3,3.5842729043661947,12.538781880952962,0.0,0.0
82.0,121.0,0.7,3.5842729043661947,12.538781880952962,0.0,0.0
82.0,121.0,1.0,3.5842729043661947,12.538781880952962,0.0,0.0
82.0,127.0,0.1,3.554616471691317,11.97198348218537,0.0,0.0
82.0,127.0,0.3,3.554616471691317,11.97198348218537,0.0,0.0
82.0,127.0,0.7,3.554616471691317,11.97198348218537,0.0,0.0
82.0,127.0,1.0,3.554616471691317,11.97198348218537,0.0,0.0
83.0,1.0,0.1,0.453247966416362,0.049511806209422395,0.0,0.0
83.0,1.0,0.3,0.453247966416362,0.049511806209422395,0.0,0.0
83.0,1.0,0.7,0.453247966416362,0.049511806209422395,0.0,0.0
83.0,1.0,1.0,0.453247966416362,0.049511806209422395,0.0,0.0
83.0,9.0,0.1,0.3724557767672217,0.055461647333599345,0.0,0.0
83.0,9.0,0.3,0.3724557767672217,0.055461647333599345,0.0,0.0
83.0,9.0,0.7,0.3724557767672217,0.055461647333599345,0.0,0.0
83.0,9.0,1.0,0.3724557767672217,0.055461647333599345,0.0,0.0
83.0,17.0,0.1,0.35860925242997055,0.05893123404154483,0.0,0.0
83.0,17.0,0.3,0.35860925242997055,0.05893123404154483,0.0,0.0
83.0,17.0,0.7,0.35860925242997055,0.05893123404154483,0.0,0.0
83.0,17.0,1.0,0.35860925242997055,0.05893123404154483,0.0,0.0
83.0,25.0,0.1,0.3407318461141138,0.15673629591451022,0.0,0.0
83.0,25.0,0.3,0.3407318461141138,0.15673629591451022,0.0,0.0
83.0,25.0,0.7,0.3407318461141138,0.15673629591451022,0.0,0.0
83.0,25.0,1.0,0.3407318461141138,0.15673629591451022,0.0,0.0
83.0,33.0,0.1,0.4400838566838909,0.2854766183340062,0.0,0.0
83.0,33.0,0.3,0.4400838566838909,0.2854766183340062,0.0,0.0
83.0,33.0,0.7,0.4400838566838909,0.2854766183340062,0.0,0.0
83.0,33.0,1.0,0.4400838566838909,0.2854766183340062,0.0,0.0
83.0,41.0,0.1,0.7231229979156312,0.5808338317930694,0.0,0.0
83.0,41.0,0.3,0.7231229979156312,0.5808338317930694,0.0,0.0
83.0,41.0,0.7,0.7231229979156312,0.5808338317930694,0.0,0.0
83.0,41.0,1.0,0.7231229979156312,0.5808338317930694,0.0,0.0
83.0,49.0,0.1,0.8803147543759255,0.8503860191810446,0.0,0.0
83.0,49.0,0.3,0.8803147543759255,0.8503860191810446,0.0,0.0
83.0,49.0,0.7,0.8803147543759255,0.8503860191810446,0.0,0.0
83.0,49.0,1.0,0.8803147543759255,0.8503860191810446,0.0,0.0
83.0,57.0,0.1,1.1330800299304618,1.3372255923761611,0.0,0.0
83.0,57.0,0.3,1.1330800299304618,1.3372255923761611,0.0,0.0
83.0,57.0,0.7,1.1330800299304618,1.3372255923761611,0.0,0.0
83.0,57.0,1.0,1.1330800299304618,1.3372255923761611,0.0,0.0
83.0,65.0,0.1,1.5371204262226184,1.9083825222246313,0.0,0.0
83.0,65.0,0.3,1.5371204262226184,1.9083825222246313,0.0,0.0
83.0,65.0,0.7,1.5371204262226184,1.9083825222246313,0.0,0.0
83.0,65.0,1.0,1.5371204262226184,1.9083825222246313,0.0,0.0
83.0,73.0,0.1,1.9905058189294778,2.6109441157756645,0.0,0.0
83.0,73.0,0.3,1.9905058189294778,2.6109441157756645,0.0,0.0
83.0,73.0,0.7,1.9905058189294778,2.6109441157756645,0.0,0.0
83.0,73.0,1.0,1.9905058189294778,2.6109441157756645,0.0,0.0
83.0,81.0,0.1,2.4854019180839337,3.4091666416463897,0.0,0.0
83.0,81.0,0.3,2.4854019180839337,3.4091666416463897,0.0,0.0
83.0,81.0,0.7,2.4854019180839337,3.4091666416463897,0.0,0.0
83.0,81.0,1.0,2.4854019180839337,3.4091666416463897,0.0,0.0
83.0,89.0,0.1,3.2047172998844076,4.282086981360053,0.0,0.0
83.0,89.0,0.3,3.2047172998844076,4.282086981360053,0.0,0.0
83.0,89.0,0.7,3.2047172998844076,4.282086981360053,0.0,0.0
83.0,89.0,1.0,3.2047172998844076,4.282086981360053,0.0,0.0
83.0,97.0,0.1,3.708319183006914,5.25856121748828,0.0,0.0
83.0,97.0,0.3,3.708319183006914,5.25856121748828,0.0,0.0
83.0,97.0,0.7,3.708319183006914,5.25856121748828,0.0,0.0
83.0,97.0,1.0,3.708319183006914,5.25856121748828,0.0,0.0
83.0,105.0,0.1,3.8175225427993302,6.748582211898194,0.0,0.0
83.0,105.0,0.3,3.8175225427993302,6.748582211898194,0.0,0.0
83.0,105.0,0.7,3.8175225427993302,6.748582211898194,0.0,0.0
83.0,105.0,1.0,3.8175225427993302,6.748582211898194,0.0,0.0
83.0,113.0,0.1,3.779897032207789,7.358927252121995,0.0,0.0
83.0,113.0,0.3,3.779897032207789,7.358927252121995,0.0,0.0
83.0,113.0,0.7,3.779897032207789,7.358927252121995,0.0,0.0
83.0,113.0,1.0,3.779897032207789,7.358927252121995,0.0,0.0
83.0,121.0,0.1,3.784697492233997,7.212297443332615,0.0,0.0
83.0,121.0,0.3,3.784697492233997,7.212297443332615,0.0,0.0
83.0,121.0,0.7,3.784697492233997,7.212297443332615,0.0,0.0
83.0,121.0,1.0,3.784697492233997,7.212297443332615,0.0,0.0
83.0,127.0,0.1,3.7650598239674125,7.195294034672922,0.0,0.0
83.0,127.0,0.3,3.7650598239674125,7.195294034672922,0.0,0.0
83.0,127.0,0.7,3.7650598239674125,7.195294034672922,0.0,0.0
83.0,127.0,1.0,3.7650598239674125,7.195294034672922,0.0,0.0
84.0,1.0,0.1,1.0482152613516316,0.07900638102889322,0.0,0.0
84.0,1.0,0.3,1.0482152613516316,0.07900638102889322,0.0,0.0
84.0,1.0,0.7,1.0482152613516316,0.07900638102889322,0.0,0.0
84.0,1.0,1.0,1.0482152613516316,0.07900638102889322,0.0,0.0
84.0,9.0,0.1,0.811649399003007,0.0750045688178869,0.0,0.0
84.0,9.0,0.3,0.811649399003007,0.0750045688178869,0.0,0.0
84.0,9.0,0.7,0.811649399003007,0.0750045688178869,0.0,0.0
84.0,9.0,1.0,0.811649399003007,0.0750045688178869,0.0,0.0
84.0,17.0,0.1,0.8040156377962941,0.08536227854311182,0.0,0.0
84.0,17.0,0.3,0.8040156377962941,0.08536227854311182,0.0,0.0
84.0,17.0,0.7,0.8040156377962941,0.08536227854311182,0.0,0.0
84.0,17.0,1.0,0.8040156377962941,0.08536227854311182,0.0,0.0
84.0,25.0,0.1,0.7742497009573487,0.3553371696099997,0.0,0.0
84.0,25.0,0.3,0.7742497009573487,0.3553371696099997,0.0,0.0
84.0,25.0,0.7,0.7742497009573487,0.3553371696099997,0.0,0.0
84.0,25.0,1.0,0.7742497009573487,0.3553371696099997,0.0,0.0
84.0,33.0,0.1,0.7954997561514717,0.6420271637033553,0.0,0.0
84.0,33.0,0.3,0.7954997561514717,0.6420271637033553,0.0,0.0
84.0,33.0,0.7,0.7954997561514717,0.6420271637033553,0.0,0.0
84.0,33.0,1.0,0.7954997561514717,0.6420271637033553,0.0,0.0
84.0,41.0,0.1,0.9458458420465512,1.0055296976277401,0.0,0.0
84.0,41.0,0.3,0.9458458420465512,1.0055296976277401,0.0,0.0
84.0,41.0,0.7,0.9458458420465512,1.0055296976277401,0.0,0.0
84.0,41.0,1.0,0.9458458420465512,1.0055296976277401,0.0,0.0
84.0,49.0,0.1,1.1347247896421258,1.498837441089981,0.0,0.0
84.0,49.0,0.3,1.1347247896421258,1.498837441089981,0.0,0.0
84.0,49.0,0.7,1.1347247896421258,1.498837441089981,0.0,0.0
84.0,49.0,1.0,1.1347247896421258,1.498837441089981,0.0,0.0
84.0,57.0,0.1,1.1959505285874277,2.01223359367924,0.0,0.0
84.0,57.0,0.3,1.1959505285874277,2.01223359367924,0.0,0.0
84.0,57.0,0.7,1.1959505285874277,2.01223359367924,0.0,0.0
84.0,57.0,1.0,1.1959505285874277,2.01223359367924,0.0,0.0
84.0,65.0,0.1,1.6669205257139554,2.748847070565793,0.0,0.0
84.0,65.0,0.3,1.6669205257139554,2.748847070565793,0.0,0.0
84.0,65.0,0.7,1.6669205257139554,2.748847070565793,0.0,0.0
84.0,65.0,1.0,1.6669205257139554,2.748847070565793,0.0,0.0
84.0,73.0,0.1,2.2714874856293688,3.7602243604657906,0.0,0.0
84.0,73.0,0.3,2.2714874856293688,3.7602243604657906,0.0,0.0
84.0,73.0,0.7,2.2714874856293688,3.7602243604657906,0.0,0.0
84.0,73.0,1.0,2.2714874856293688,3.7602243604657906,0.0,0.0
84.0,81.0,0.1,2.7480340655921713,4.865040878830579,0.0,0.0
84.0,81.0,0.3,2.7480340655921713,4.865040878830579,0.0,0.0
84.0,81.0,0.7,2.7480340655921713,4.865040878830579,0.0,0.0
84.0,81.0,1.0,2.7480340655921713,4.865040878830579,0.0,0.0
84.0,89.0,0.1,2.957815245991344,5.922717003077203,0.0,0.0
84.0,89.0,0.3,2.957815245991344,5.922717003077203,0.0,0.0
84.0,89.0,0.7,2.957815245991344,5.922717003077203,0.0,0.0
84.0,89.0,1.0,2.957815245991344,5.922717003077203,0.0,0.0
84.0,97.0,0.1,3.1225779421977866,7.424950978753121,0.0,0.0
84.0,97.0,0.3,3.1225779421977866,7.424950978753121,0.0,0.0
84.0,97.0,0.7,3.1225779421977866,7.424950978753121,0.0,0.0
84.0,97.0,1.0,3.1225779421977866,7.424950978753121,0.0,0.0
84.0,105.0,0.1,3.0765297076482536,9.898493624771298,0.0,0.0
84.0,105.0,0.3,3.0765297076482536,9.898493624771298,0.0,0.0
84.0,105.0,0.7,3.0765297076482536,9.898493624771298,0.0,0.0
84.0,105.0,1.0,3.0765297076482536,9.898493624771298,0.0,0.0
84.0,113.0,0.1,3.0530330914071246,9.54748856002689,0.0,0.0
84.0,113.0,0.3,3.0530330914071246,9.54748856002689,0.0,0.0
84.0,113.0,0.7,3.0530330914071246,9.54748856002689,0.0,0.0
84.0,113.0,1.0,3.0530330914071246,9.54748856002689,0.0,0.0
84.0,121.0,0.1,3.0819724313016703,9.951133361786223,0.0,0.0
84.0,121.0,0.3,3.0819724313016703,9.951133361786223,0.0,0.0
84.0,121.0,0.7,3.0819724313016703,9.951133361786223,0.0,0.0
84.0,121.0,1.0,3.0819724313016703,9.951133361786223,0.0,0.0
84.0,127.0,0.1,3.032773568010895,9.942565635863321,0.0,0.0
84.0,127.0,0.3,3.032773568010895,9.942565635863321,0.0,0.0
84.0,127.0,0.7,3.032773568010895,9.942565635863321,0.0,0.0
84.0,127.0,1.0,3.032773568010895,9.942565635863321,0.0,0.0
85.0,1.0,0.1,1.423125968708717,0.04900210217501799,0.0,0.0
85.0,1.0,0.3,1.423125968708717,0.04900210217501799,0.0,0.0
85.0,1.0,0.7,1.423125968708717,0.04900210217501799,0.0,0.0
85.0,1.0,1.0,1.423125968708717,0.04900210217501799,0.0,0.0
85.0,9.0,0.1,1.3063293810078362,0.04767023030147649,0.0,0.0
85.0,9.0,0.3,1.3063293810078362,0.04767023030147649,0.0,0.0
85.0,9.0,0.7,1.3063293810078362,0.04767023030147649,0.0,0.0
85.0,9.0,1.0,1.3063293810078362,0.04767023030147649,0.0,0.0
85.0,17.0,0.1,1.3364263608946951,0.038451467115646246,0.0,0.0
85.0,17.0,0.3,1.3364263608946951,0.038451467115646246,0.0,0.0
85.0,17.0,0.7,1.3364263608946951,0.038451467115646246,0.0,0.0
85.0,17.0,1.0,1.3364263608946951,0.038451467115646246,0.0,0.0
85.0,25.0,0.1,1.1930348598965073,0.060102021472538195,0.0,0.0
85.0,25.0,0.3,1.1930348598965073,0.060102021472538195,0.0,0.0
85.0,25.0,0.7,1.1930348598965073,0.060102021472538195,0.0,0.0
85.0,25.0,1.0,1.1930348598965073,0.060102021472538195,0.0,0.0
85.0,33.0,0.1,1.3932469991618308,0.22969602675108708,0.0,0.0
85.0,33.0,0.3,1.3932469991618308,0.22969602675108708,0.0,0.0
85.0,33.0,0.7,1.3932469991618308,0.22969602675108708,0.0,0.0
85.0,33.0,1.0,1.3932469991618308,0.22969602675108708,0.0,0.0
85.0,41.0,0.1,1.415294012843,0.5198086774242451,0.0,0.0
85.0,41.0,0.3,1.415294012843,0.5198086774242451,0.0,0.0
85.0,41.0,0.7,1.415294012843,0.5198086774242451,0.0,0.0
85.0,41.0,1.0,1.415294012843,0.5198086774242451,0.0,0.0
85.0,49.0,0.1,1.6401515190843796,0.8790817453569423,0.0,0.0
85.0,49.0,0.3,1.6401515190843796,0.8790817453569423,0.0,0.0
85.0,49.0,0.7,1.6401515190843796,0.8790817453569423,0.0,0.0
85.0,49.0,1.0,1.6401515190843796,0.8790817453569423,0.0,0.0
85.0,57.0,0.1,1.678574083335716,1.2218923677391729,0.0,0.0
85.0,57.0,0.3,1.678574083335716,1.2218923677391729,0.0,0.0
85.0,57.0,0.7,1.678574083335716,1.2218923677391729,0.0,0.0
85.0,57.0,1.0,1.678574083335716,1.2218923677391729,0.0,0.0
85.0,65.0,0.1,1.9670540914322554,1.6497680983451215,0.0,0.0
85.0,65.0,0.3,1.9670540914322554,1.6497680983451215,0.0,0.0
85.0,65.0,0.7,1.9670540914322554,1.6497680983451215,0.0,0.0
85.0,65.0,1.0,1.9670540914322554,1.6497680983451215,0.0,0.0
85.0,73.0,0.1,2.288725449971123,2.2759745806815905,0.0,0.0
85.0,73.0,0.3,2.288725449971123,2.2759745806815905,0.0,0.0
85.0,73.0,0.7,2.288725449971123,2.2759745806815905,0.0,0.0
85.0,73.0,1.0,2.288725449971123,2.2759745806815905,0.0,0.0
85.0,81.0,0.1,2.4680351254238913,3.0809494945732196,0.0,0.0
85.0,81.0,0.3,2.4680351254238913,3.0809494945732196,0.0,0.0
85.0,81.0,0.7,2.4680351254238913,3.0809494945732196,0.0,0.0
85.0,81.0,1.0,2.4680351254238913,3.0809494945732196,0.0,0.0
85.0,89.0,0.1,2.6991094107133002,4.037332603860385,0.0,0.0
85.0,89.0,0.3,2.6991094107133002,4.037332603860385,0.0,0.0
85.0,89.0,0.7,2.6991094107133002,4.037332603860385,0.0,0.0
85.0,89.0,1.0,2.6991094107133002,4.037332603860385,0.0,0.0
85.0,97.0,0.1,2.916835775837512,5.222289036589548,0.0,0.0
85.0,97.0,0.3,2.916835775837512,5.222289036589548,0.0,0.0
85.0,97.0,0.7,2.916835775837512,5.222289036589548,0.0,0.0
85.0,97.0,1.0,2.916835775837512,5.222289036589548,0.0,0.0
85.0,105.0,0.1,2.976591499295515,6.538733474056968,0.0,0.0
85.0,105.0,0.3,2.976591499295515,6.538733474056968,0.0,0.0
85.0,105.0,0.7,2.976591499295515,6.538733474056968,0.0,0.0
85.0,105.0,1.0,2.976591499295515,6.538733474056968,0.0,0.0
85.0,113.0,0.1,2.953351397299798,8.120748037898291,0.0,0.0
85.0,113.0,0.3,2.953351397299798,8.120748037898291,0.0,0.0
85.0,113.0,0.7,2.953351397299798,8.120748037898291,0.0,0.0
85.0,113.0,1.0,2.953351397299798,8.120748037898291,0.0,0.0
85.0,121.0,0.1,2.951679315176186,8.354680928439366,0.0,0.0
85.0,121.0,0.3,2.951679315176186,8.354680928439366,0.0,0.0
85.0,121.0,0.7,2.951679315176186,8.354680928439366,0.0,0.0
85.0,121.0,1.0,2.951679315176186,8.354680928439366,0.0,0.0
85.0,127.0,0.1,2.9448276599063283,8.263481193185319,0.0,0.0
85.0,127.0,0.3,2.9448276599063283,8.263481193185319,0.0,0.0
85.0,127.0,0.7,2.9448276599063283,8.263481193185319,0.0,0.0
85.0,127.0,1.0,2.9448276599063283,8.263481193185319,0.0,0.0
86.0,1.0,0.1,0.5993287432953892,0.0038571988235323613,0.0,0.0
86.0,1.0,0.3,0.5993287432953892,0.0038571988235323613,0.0,0.0
86.0,1.0,0.7,0.5993287432953892,0.0038571988235323613,0.0,0.0
86.0,1.0,1.0,0.5993287432953892,0.0038571988235323613,0.0,0.0
86.0,9.0,0.1,0.556120670093186,0.014547721182289674,0.0,0.0
86.0,9.0,0.3,0.556120670093186,0.014547721182289674,0.0,0.0
86.0,9.0,0.7,0.556120670093186,0.014547721182289674,0.0,0.0
86.0,9.0,1.0,0.556120670093186,0.014547721182289674,0.0,0.0
86.0,17.0,0.1,0.5191295241457468,0.02853888945834751,0.0,0.0
86.0,17.0,0.3,0.5191295241457468,0.02853888945834751,0.0,0.0
86.0,17.0,0.7,0.5191295241457468,0.02853888945834751,0.0,0.0
86.0,17.0,1.0,0.5191295241457468,0.02853888945834751,0.0,0.0
86.0,25.0,0.1,0.43971766504241344,0.12383334975126702,0.0,0.0
86.0,25.0,0.3,0.43971766504241344,0.12383334975126702,0.0,0.0
86.0,25.0,0.7,0.43971766504241344,0.12383334975126702,0.0,0.0
86.0,25.0,1.0,0.43971766504241344,0.12383334975126702,0.0,0.0
86.0,33.0,0.1,0.5783989509688641,0.2805803383548721,0.0,0.0
86.0,33.0,0.3,0.5783989509688641,0.2805803383548721,0.0,0.0
86.0,33.0,0.7,0.5783989509688641,0.2805803383548721,0.0,0.0
86.0,33.0,1.0,0.5783989509688641,0.2805803383548721,0.0,0.0
86.0,41.0,0.1,0.7728586662977123,0.5162656406584208,0.0,0.0
86.0,41.0,0.3,0.7728586662977123,0.5162656406584208,0.0,0.0
86.0,41.0,0.7,0.7728586662977123,0.5162656406584208,0.0,0.0
86.0,41.0,1.0,0.7728586662977123,0.5162656406584208,0.0,0.0
86.0,49.0,0.1,1.0508607247278567,0.8600721448957129,0.0,0.0
86.0,49.0,0.3,1.0508607247278567,0.8600721448957129,0.0,0.0
86.0,49.0,0.7,1.0508607247278567,0.8600721448957129,0.0,0.0
86.0,49.0,1.0,1.0508607247278567,0.8600721448957129,0.0,0.0
86.0,57.0,0.1,1.1252814748343936,1.2733326878561086,0.0,0.0
86.0,57.0,0.3,1.1252814748343936,1.2733326878561086,0.0,0.0
86.0,57.0,0.7,1.1252814748343936,1.2733326878561086,0.0,0.0
86.0,57.0,1.0,1.1252814748343936,1.2733326878561086,0.0,0.0
86.0,65.0,0.1,1.4284375819693849,1.8618117268068026,0.0,0.0
86.0,65.0,0.3,1.4284375819693849,1.8618117268068026,0.0,0.0
86.0,65.0,0.7,1.4284375819693849,1.8618117268068026,0.0,0.0
86.0,65.0,1.0,1.4284375819693849,1.8618117268068026,0.0,0.0
86.0,73.0,0.1,1.7127515808526086,2.625066120411553,0.0,0.0
86.0,73.0,0.3,1.7127515808526086,2.625066120411553,0.0,0.0
86.0,73.0,0.7,1.7127515808526086,2.625066120411553,0.0,0.0
86.0,73.0,1.0,1.7127515808526086,2.625066120411553,0.0,0.0
86.0,81.0,0.1,2.398302469551537,3.4427298618668924,0.0,0.0
86.0,81.0,0.3,2.398302469551537,3.4427298618668924,0.0,0.0
86.0,81.0,0.7,2.398302469551537,3.4427298618668924,0.0,0.0
86.0,81.0,1.0,2.398302469551537,3.4427298618668924,0.0,0.0
86.0,89.0,0.1,3.0336367100840955,4.312423185303481,0.0,0.0
86.0,89.0,0.3,3.0336367100840955,4.312423185303481,0.0,0.0
86.0,89.0,0.7,3.0336367100840955,4.312423185303481,0.0,0.0
86.0,89.0,1.0,3.0336367100840955,4.312423185303481,0.0,0.0
86.0,97.0,0.1,3.343478287144354,6.307242318698691,0.0,0.0
86.0,97.0,0.3,3.343478287144354,6.307242318698691,0.0,0.0
86.0,97.0,0.7,3.343478287144354,6.307242318698691,0.0,0.0
86.0,97.0,1.0,3.343478287144354,6.307242318698691,0.0,0.0
86.0,105.0,0.1,3.3408459922786933,7.911126059226064,0.0,0.0
86.0,105.0,0.3,3.3408459922786933,7.911126059226064,0.0,0.0
86.0,105.0,0.7,3.3408459922786933,7.911126059226064,0.0,0.0
86.0,105.0,1.0,3.3408459922786933,7.911126059226064,0.0,0.0
86.0,113.0,0.1,3.2980524478497704,7.553493149184342,0.0,0.0
86.0,113.0,0.3,3.2980524478497704,7.553493149184342,0.0,0.0
86.0,113.0,0.7,3.2980524478497704,7.553493149184342,0.0,0.0
86.0,113.0,1.0,3.2980524478497704,7.553493149184342,0.0,0.0
86.0,121.0,0.1,3.332764686056087,7.496490556241048,0.0,0.0
86.0,121.0,0.3,3.332764686056087,7.496490556241048,0.0,0.0
86.0,121.0,0.7,3.332764686056087,7.496490556241048,0.0,0.0
86.0,121.0,1.0,3.332764686056087,7.496490556241048,0.0,0.0
86.0,127.0,0.1,2.3343314389184946,7.487000261453368,0.0,0.0
86.0,127.0,0.3,2.3343314389184946,7.487000261453368,0.0,0.0
86.0,127.0,0.7,2.3343314389184946,7.487000261453368,0.0,0.0
86.0,127.0,1.0,2.3343314389184946,7.487000261453368,0.0,0.0
87.0,1.0,0.1,0.6361404046014703,0.056459153920235934,0.0,0.0
87.0,1.0,0.3,0.6361404046014703,0.056459153920235934,0.0,0.0
87.0,1.0,0.7,0.6361404046014703,0.056459153920235934,0.0,0.0
87.0,1.0,1.0,0.6361404046014703,0.056459153920235934,0.0,0.0
87.0,9.0,0.1,0.4553177269894109,0.06543226210599695,0.0,0.0
87.0,9.0,0.3,0.4553177269894109,0.06543226210599695,0.0,0.0
87.0,9.0,0.7,0.4553177269894109,0.06543226210599695,0.0,0.0
87.0,9.0,1.0,0.4553177269894109,0.06543226210599695,0.0,0.0
87.0,17.0,0.1,0.45474018652620746,0.06488741057454606,0.0,0.0
87.0,17.0,0.3,0.45474018652620746,0.06488741057454606,0.0,0.0
87.0,17.0,0.7,0.45474018652620746,0.06488741057454606,0.0,0.0
87.0,17.0,1.0,0.45474018652620746,0.06488741057454606,0.0,0.0
87.0,25.0,0.1,0.4224837521582756,0.06727417896251725,0.0,0.0
87.0,25.0,0.3,0.4224837521582756,0.06727417896251725,0.0,0.0
87.0,25.0,0.7,0.4224837521582756,0.06727417896251725,0.0,0.0
87.0,25.0,1.0,0.4224837521582756,0.06727417896251725,0.0,0.0
87.0,33.0,0.1,0.4115628522056211,0.2517636440499068,0.0,0.0
87.0,33.0,0.3,0.4115628522056211,0.2517636440499068,0.0,0.0
87.0,33.0,0.7,0.4115628522056211,0.2517636440499068,0.0,0.0
87.0,33.0,1.0,0.4115628522056211,0.2517636440499068,0.0,0.0
87.0,41.0,0.1,0.7116493325606644,0.4977693516657562,0.0,0.0
87.0,41.0,0.3,0.7116493325606644,0.4977693516657562,0.0,0.0
87.0,41.0,0.7,0.7116493325606644,0.4977693516657562,0.0,0.0
87.0,41.0,1.0,0.7116493325606644,0.4977693516657562,0.0,0.0
87.0,49.0,0.1,0.8862760173626864,0.8771658717207242,0.0,0.0
87.0,49.0,0.3,0.8862760173626864,0.8771658717207242,0.0,0.0
87.0,49.0,0.7,0.8862760173626864,0.8771658717207242,0.0,0.0
87.0,49.0,1.0,0.8862760173626864,0.8771658717207242,0.0,0.0
87.0,57.0,0.1,1.0463950095806434,1.3167858716439302,0.0,0.0
87.0,57.0,0.3,1.0463950095806434,1.3167858716439302,0.0,0.0
87.0,57.0,0.7,1.0463950095806434,1.3167858716439302,0.0,0.0
87.0,57.0,1.0,1.0463950095806434,1.3167858716439302,0.0,0.0
87.0,65.0,0.1,1.3261512680095864,1.8225452546492606,0.0,0.0
87.0,65.0,0.3,1.3261512680095864,1.8225452546492606,0.0,0.0
87.0,65.0,0.7,1.3261512680095864,1.8225452546492606,0.0,0.0
87.0,65.0,1.0,1.3261512680095864,1.8225452546492606,0.0,0.0
87.0,73.0,0.1,1.6526986583161292,2.459767687343849,0.0,0.0
87.0,73.0,0.3,1.6526986583161292,2.459767687343849,0.0,0.0
87.0,73.0,0.7,1.6526986583161292,2.459767687343849,0.0,0.0
87.0,73.0,1.0,1.6526986583161292,2.459767687343849,0.0,0.0
87.0,81.0,0.1,1.991962936393817,3.0802829414428734,0.0,0.0
87.0,81.0,0.3,1.991962936393817,3.0802829414428734,0.0,0.0
87.0,81.0,0.7,1.991962936393817,3.0802829414428734,0.0,0.0
87.0,81.0,1.0,1.991962936393817,3.0802829414428734,0.0,0.0
87.0,89.0,0.1,2.7119372686540855,3.7453757573808626,0.0,0.0
87.0,89.0,0.3,2.7119372686540855,3.7453757573808626,0.0,0.0
87.0,89.0,0.7,2.7119372686540855,3.7453757573808626,0.0,0.0
87.0,89.0,1.0,2.7119372686540855,3.7453757573808626,0.0,0.0
87.0,97.0,0.1,3.327863327905818,4.507532620832948,0.0,0.0
87.0,97.0,0.3,3.327863327905818,4.507532620832948,0.0,0.0
87.0,97.0,0.7,3.327863327905818,4.507532620832948,0.0,0.0
87.0,97.0,1.0,3.327863327905818,4.507532620832948,0.0,0.0
87.0,105.0,0.1,3.346454809697047,5.324793754412817,0.0,0.0
87.0,105.0,0.3,3.346454809697047,5.324793754412817,0.0,0.0
87.0,105.0,0.7,3.346454809697047,5.324793754412817,0.0,0.0
87.0,105.0,1.0,3.346454809697047,5.324793754412817,0.0,0.0
87.0,113.0,0.1,3.2692217741121414,6.428503601450926,0.0,0.0
87.0,113.0,0.3,3.2692217741121414,6.428503601450926,0.0,0.0
87.0,113.0,0.7,3.2692217741121414,6.428503601450926,0.0,0.0
87.0,113.0,1.0,3.2692217741121414,6.428503601450926,0.0,0.0
87.0,121.0,0.1,3.1882938766344973,6.838051948278944,0.0,0.0
87.0,121.0,0.3,3.1882938766344973,6.838051948278944,0.0,0.0
87.0,121.0,0.7,3.1882938766344973,6.838051948278944,0.0,0.0
87.0,121.0,1.0,3.1882938766344973,6.838051948278944,0.0,0.0
87.0,127.0,0.1,2.497833877602028,6.919216695780796,0.0,0.0
87.0,127.0,0.3,2.497833877602028,6.919216695780796,0.0,0.0
87.0,127.0,0.7,2.497833877602028,6.919216695780796,0.0,0.0
87.0,127.0,1.0,2.497833877602028,6.919216695780796,0.0,0.0
88.0,1.0,0.1,0.5402268392411453,0.02190729422154631,0.0,0.0
88.0,1.0,0.3,0.5402268392411453,0.02190729422154631,0.0,0.0
88.0,1.0,0.7,0.5402268392411453,0.02190729422154631,0.0,0.0
88.0,1.0,1.0,0.5402268392411453,0.02190729422154631,0.0,0.0
88.0,9.0,0.1,0.3278934928891151,0.027158051662429652,0.0,0.0
88.0,9.0,0.3,0.3278934928891151,0.027158051662429652,0.0,0.0
88.0,9.0,0.7,0.3278934928891151,0.027158051662429652,0.0,0.0
88.0,9.0,1.0,0.3278934928891151,0.027158051662429652,0.0,0.0
88.0,17.0,0.1,0.35900864502196517,0.02479805405418856,0.0,0.0
88.0,17.0,0.3,0.35900864502196517,0.02479805405418856,0.0,0.0
88.0,17.0,0.7,0.35900864502196517,0.02479805405418856,0.0,0.0
88.0,17.0,1.0,0.35900864502196517,0.02479805405418856,0.0,0.0
88.0,25.0,0.1,0.31248379830812595,0.05509701902632876,0.0,0.0
88.0,25.0,0.3,0.31248379830812595,0.05509701902632876,0.0,0.0
88.0,25.0,0.7,0.31248379830812595,0.05509701902632876,0.0,0.0
88.0,25.0,1.0,0.31248379830812595,0.05509701902632876,0.0,0.0
88.0,33.0,0.1,0.3045544517519396,0.281216898700254,0.0,0.0
88.0,33.0,0.3,0.3045544517519396,0.281216898700254,0.0,0.0
88.0,33.0,0.7,0.3045544517519396,0.281216898700254,0.0,0.0
88.0,33.0,1.0,0.3045544517519396,0.281216898700254,0.0,0.0
88.0,41.0,0.1,0.4137034037493359,0.6134965353966229,0.0,0.0
88.0,41.0,0.3,0.4137034037493359,0.6134965353966229,0.0,0.0
88.0,41.0,0.7,0.4137034037493359,0.6134965353966229,0.0,0.0
88.0,41.0,1.0,0.4137034037493359,0.6134965353966229,0.0,0.0
88.0,49.0,0.1,0.53843678024699,0.9503980676728623,0.0,0.0
88.0,49.0,0.3,0.53843678024699,0.9503980676728623,0.0,0.0
88.0,49.0,0.7,0.53843678024699,0.9503980676728623,0.0,0.0
88.0,49.0,1.0,0.53843678024699,0.9503980676728623,0.0,0.0
88.0,57.0,0.1,0.7147622240859035,1.4474958193303546,0.0,0.0
88.0,57.0,0.3,0.7147622240859035,1.4474958193303546,0.0,0.0
88.0,57.0,0.7,0.7147622240859035,1.4474958193303546,0.0,0.0
88.0,57.0,1.0,0.7147622240859035,1.4474958193303546,0.0,0.0
88.0,65.0,0.1,0.8034995115392441,2.1714710165162634,0.0,0.0
88.0,65.0,0.3,0.8034995115392441,2.1714710165162634,0.0,0.0
88.0,65.0,0.7,0.8034995115392441,2.1714710165162634,0.0,0.0
88.0,65.0,1.0,0.8034995115392441,2.1714710165162634,0.0,0.0
88.0,73.0,0.1,1.2006550610260305,2.9743463068915155,0.0,0.0
88.0,73.0,0.3,1.2006550610260305,2.9743463068915155,0.0,0.0
88.0,73.0,0.7,1.2006550610260305,2.9743463068915155,0.0,0.0
88.0,73.0,1.0,1.2006550610260305,2.9743463068915155,0.0,0.0
88.0,81.0,0.1,1.7493441348067458,3.8577163775840337,0.0,0.0
88.0,81.0,0.3,1.7493441348067458,3.8577163775840337,0.0,0.0
88.0,81.0,0.7,1.7493441348067458,3.8577163775840337,0.0,0.0
88.0,81.0,1.0,1.7493441348067458,3.8577163775840337,0.0,0.0
88.0,89.0,0.1,2.3643980533850977,4.819233022805896,0.0,0.0
88.0,89.0,0.3,2.3643980533850977,4.819233022805896,0.0,0.0
88.0,89.0,0.7,2.3643980533850977,4.819233022805896,0.0,0.0
88.0,89.0,1.0,2.3643980533850977,4.819233022805896,0.0,0.0
88.0,97.0,0.1,2.718711952909561,6.444250525267228,0.0,0.0
88.0,97.0,0.3,2.718711952909561,6.444250525267228,0.0,0.0
88.0,97.0,0.7,2.718711952909561,6.444250525267228,0.0,0.0
88.0,97.0,1.0,2.718711952909561,6.444250525267228,0.0,0.0
88.0,105.0,0.1,2.7509134040496344,8.887010006291518,0.0,0.0
88.0,105.0,0.3,2.7509134040496344,8.887010006291518,0.0,0.0
88.0,105.0,0.7,2.7509134040496344,8.887010006291518,0.0,0.0
88.0,105.0,1.0,2.7509134040496344,8.887010006291518,0.0,0.0
88.0,113.0,0.1,2.718561831588542,8.655638289737217,0.0,0.0
88.0,113.0,0.3,2.718561831588542,8.655638289737217,0.0,0.0
88.0,113.0,0.7,2.718561831588542,8.655638289737217,0.0,0.0
88.0,113.0,1.0,2.718561831588542,8.655638289737217,0.0,0.0
88.0,121.0,0.1,2.6671760929616397,8.579156360860054,0.0,0.0
88.0,121.0,0.3,2.6671760929616397,8.579156360860054,0.0,0.0
88.0,121.0,0.7,2.6671760929616397,8.579156360860054,0.0,0.0
88.0,121.0,1.0,2.6671760929616397,8.579156360860054,0.0,0.0
88.0,127.0,0.1,1.379170103229829,8.575157239839927,0.0,0.0
88.0,127.0,0.3,1.379170103229829,8.575157239839927,0.0,0.0
88.0,127.0,0.7,1.379170103229829,8.575157239839927,0.0,0.0
88.0,127.0,1.0,1.379170103229829,8.575157239839927,0.0,0.0
89.0,1.0,0.1,0.5297617109892436,0.058243977411972944,0.0,0.0
89.0,1.0,0.3,0.5297617109892436,0.058243977411972944,0.0,0.0
89.0,1.0,0.7,0.5297617109892436,0.058243977411972944,0.0,0.0
89.0,1.0,1.0,0.5297617109892436,0.058243977411972944,0.0,0.0
89.0,9.0,0.1,0.38603493518599424,0.06406363989577826,0.0,0.0
89.0,9.0,0.3,0.38603493518599424,0.06406363989577826,0.0,0.0
89.0,9.0,0.7,0.38603493518599424,0.06406363989577826,0.0,0.0
89.0,9.0,1.0,0.38603493518599424,0.06406363989577826,0.0,0.0
89.0,17.0,0.1,0.38634830491778444,0.061208651177897304,0.0,0.0
89.0,17.0,0.3,0.38634830491778444,0.061208651177897304,0.0,0.0
89.0,17.0,0.7,0.38634830491778444,0.061208651177897304,0.0,0.0
89.0,17.0,1.0,0.38634830491778444,0.061208651177897304,0.0,0.0
89.0,25.0,0.1,0.5353474683464321,0.25744775186656477,0.0,0.0
89.0,25.0,0.3,0.5353474683464321,0.25744775186656477,0.0,0.0
89.0,25.0,0.7,0.5353474683464321,0.25744775186656477,0.0,0.0
89.0,25.0,1.0,0.5353474683464321,0.25744775186656477,0.0,0.0
89.0,33.0,0.1,0.5385255012640267,0.601864861236152,0.0,0.0
89.0,33.0,0.3,0.5385255012640267,0.601864861236152,0.0,0.0
89.0,33.0,0.7,0.5385255012640267,0.601864861236152,0.0,0.0
89.0,33.0,1.0,0.5385255012640267,0.601864861236152,0.0,0.0
89.0,41.0,0.1,0.7015554224509775,0.938551670327454,0.0,0.0
89.0,41.0,0.3,0.7015554224509775,0.938551670327454,0.0,0.0
89.0,41.0,0.7,0.7015554224509775,0.938551670327454,0.0,0.0
89.0,41.0,1.0,0.7015554224509775,0.938551670327454,0.0,0.0
89.0,49.0,0.1,0.7947229886657724,1.4834307996469343,0.0,0.0
89.0,49.0,0.3,0.7947229886657724,1.4834307996469343,0.0,0.0
89.0,49.0,0.7,0.7947229886657724,1.4834307996469343,0.0,0.0
89.0,49.0,1.0,0.7947229886657724,1.4834307996469343,0.0,0.0
89.0,57.0,0.1,0.881418629485054,2.0974138144854235,0.0,0.0
89.0,57.0,0.3,0.881418629485054,2.0974138144854235,0.0,0.0
89.0,57.0,0.7,0.881418629485054,2.0974138144854235,0.0,0.0
89.0,57.0,1.0,0.881418629485054,2.0974138144854235,0.0,0.0
89.0,65.0,0.1,1.0168042279228175,2.727133977849753,0.0,0.0
89.0,65.0,0.3,1.0168042279228175,2.727133977849753,0.0,0.0
89.0,65.0,0.7,1.0168042279228175,2.727133977849753,0.0,0.0
89.0,65.0,1.0,1.0168042279228175,2.727133977849753,0.0,0.0
89.0,73.0,0.1,1.3629425058195825,3.374279914327796,0.0,0.0
89.0,73.0,0.3,1.3629425058195825,3.374279914327796,0.0,0.0
89.0,73.0,0.7,1.3629425058195825,3.374279914327796,0.0,0.0
89.0,73.0,1.0,1.3629425058195825,3.374279914327796,0.0,0.0
89.0,81.0,0.1,2.0075662171659125,4.157761493198228,0.0,0.0
89.0,81.0,0.3,2.0075662171659125,4.157761493198228,0.0,0.0
89.0,81.0,0.7,2.0075662171659125,4.157761493198228,0.0,0.0
89.0,81.0,1.0,2.0075662171659125,4.157761493198228,0.0,0.0
89.0,89.0,0.1,2.717393212342246,5.017940276145042,0.0,0.0
89.0,89.0,0.3,2.717393212342246,5.017940276145042,0.0,0.0
89.0,89.0,0.7,2.717393212342246,5.017940276145042,0.0,0.0
89.0,89.0,1.0,2.717393212342246,5.017940276145042,0.0,0.0
89.0,97.0,0.1,3.296510067900517,6.207188345070548,0.0,0.0
89.0,97.0,0.3,3.296510067900517,6.207188345070548,0.0,0.0
89.0,97.0,0.7,3.296510067900517,6.207188345070548,0.0,0.0
89.0,97.0,1.0,3.296510067900517,6.207188345070548,0.0,0.0
89.0,105.0,0.1,3.2201850882600502,7.669917501218375,0.0,0.0
89.0,105.0,0.3,3.2201850882600502,7.669917501218375,0.0,0.0
89.0,105.0,0.7,3.2201850882600502,7.669917501218375,0.0,0.0
89.0,105.0,1.0,3.2201850882600502,7.669917501218375,0.0,0.0
89.0,113.0,0.1,3.169353239080122,7.420627350548728,0.0,0.0
89.0,113.0,0.3,3.169353239080122,7.420627350548728,0.0,0.0
89.0,113.0,0.7,3.169353239080122,7.420627350548728,0.0,0.0
89.0,113.0,1.0,3.169353239080122,7.420627350548728,0.0,0.0
89.0,121.0,0.1,3.2297075479097694,7.218328909595794,0.0,0.0
89.0,121.0,0.3,3.2297075479097694,7.218328909595794,0.0,0.0
89.0,121.0,0.7,3.2297075479097694,7.218328909595794,0.0,0.0
89.0,121.0,1.0,3.2297075479097694,7.218328909595794,0.0,0.0
89.0,127.0,0.1,1.9288364231319368,7.318446644195323,0.0,0.0
89.0,127.0,0.3,1.9288364231319368,7.318446644195323,0.0,0.0
89.0,127.0,0.7,1.9288364231319368,7.318446644195323,0.0,0.0
89.0,127.0,1.0,1.9288364231319368,7.318446644195323,0.0,0.0
90.0,1.0,0.1,0.30571459798750833,0.025050351481955606,0.0,0.0
90.0,1.0,0.3,0.30571459798750833,0.025050351481955606,0.0,0.0
90.0,1.0,0.7,0.30571459798750833,0.025050351481955606,0.0,0.0
90.0,1.0,1.0,0.30571459798750833,0.025050351481955606,0.0,0.0
90.0,9.0,0.1,0.2486338849623777,0.015277788346509143,0.0,0.0
90.0,9.0,0.3,0.2486338849623777,0.015277788346509143,0.0,0.0
90.0,9.0,0.7,0.2486338849623777,0.015277788346509143,0.0,0.0
90.0,9.0,1.0,0.2486338849623777,0.015277788346509143,0.0,0.0
90.0,17.0,0.1,0.2548931520762219,0.02501230349291941,0.0,0.0
90.0,17.0,0.3,0.2548931520762219,0.02501230349291941,0.0,0.0
90.0,17.0,0.7,0.2548931520762219,0.02501230349291941,0.0,0.0
90.0,17.0,1.0,0.2548931520762219,0.02501230349291941,0.0,0.0
90.0,25.0,0.1,0.23216267528307802,0.10511340206938952,0.0,0.0
90.0,25.0,0.3,0.23216267528307802,0.10511340206938952,0.0,0.0
90.0,25.0,0.7,0.23216267528307802,0.10511340206938952,0.0,0.0
90.0,25.0,1.0,0.23216267528307802,0.10511340206938952,0.0,0.0
90.0,33.0,0.1,0.3096254447804134,0.29227753024158687,0.0,0.0
90.0,33.0,0.3,0.3096254447804134,0.29227753024158687,0.0,0.0
90.0,33.0,0.7,0.3096254447804134,0.29227753024158687,0.0,0.0
90.0,33.0,1.0,0.3096254447804134,0.29227753024158687,0.0,0.0
90.0,41.0,0.1,0.40735181940519677,0.563679618576759,0.0,0.0
90.0,41.0,0.3,0.40735181940519677,0.563679618576759,0.0,0.0
90.0,41.0,0.7,0.40735181940519677,0.563679618576759,0.0,0.0
90.0,41.0,1.0,0.40735181940519677,0.563679618576759,0.0,0.0
90.0,49.0,0.1,0.5331475238545405,0.928712152929221,0.0,0.0
90.0,49.0,0.3,0.5331475238545405,0.928712152929221,0.0,0.0
90.0,49.0,0.7,0.5331475238545405,0.928712152929221,0.0,0.0
90.0,49.0,1.0,0.5331475238545405,0.928712152929221,0.0,0.0
90.0,57.0,0.1,0.721098601811717,1.3316182908626348,0.0,0.0
90.0,57.0,0.3,0.721098601811717,1.3316182908626348,0.0,0.0
90.0,57.0,0.7,0.721098601811717,1.3316182908626348,0.0,0.0
90.0,57.0,1.0,0.721098601811717,1.3316182908626348,0.0,0.0
90.0,65.0,0.1,0.8242370641811847,1.8389027660713837,0.0,0.0
90.0,65.0,0.3,0.8242370641811847,1.8389027660713837,0.0,0.0
90.0,65.0,0.7,0.8242370641811847,1.8389027660713837,0.0,0.0
90.0,65.0,1.0,0.8242370641811847,1.8389027660713837,0.0,0.0
90.0,73.0,0.1,0.9717461824118375,2.550374273980489,0.0,0.0
90.0,73.0,0.3,0.9717461824118375,2.550374273980489,0.0,0.0
90.0,73.0,0.7,0.9717461824118375,2.550374273980489,0.0,0.0
90.0,73.0,1.0,0.9717461824118375,2.550374273980489,0.0,0.0
90.0,81.0,0.1,1.5395159105879472,3.288510911112772,0.0,0.0
90.0,81.0,0.3,1.5395159105879472,3.288510911112772,0.0,0.0
90.0,81.0,0.7,1.5395159105879472,3.288510911112772,0.0,0.0
90.0,81.0,1.0,1.5395159105879472,3.288510911112772,0.0,0.0
90.0,89.0,0.1,2.0008254680447135,4.287994899030519,0.0,0.0
90.0,89.0,0.3,2.0008254680447135,4.287994899030519,0.0,0.0
90.0,89.0,0.7,2.0008254680447135,4.287994899030519,0.0,0.0
90.0,89.0,1.0,2.0008254680447135,4.287994899030519,0.0,0.0
90.0,97.0,0.1,2.365135417176989,5.6543945566981915,0.0,0.0
90.0,97.0,0.3,2.365135417176989,5.6543945566981915,0.0,0.0
90.0,97.0,0.7,2.365135417176989,5.6543945566981915,0.0,0.0
90.0,97.0,1.0,2.365135417176989,5.6543945566981915,0.0,0.0
90.0,105.0,0.1,2.3054693727541666,6.764569831350934,0.0,0.0
90.0,105.0,0.3,2.3054693727541666,6.764569831350934,0.0,0.0
90.0,105.0,0.7,2.3054693727541666,6.764569831350934,0.0,0.0
90.0,105.0,1.0,2.3054693727541666,6.764569831350934,0.0,0.0
90.0,113.0,0.1,2.4402823196087278,7.3442985791734925,0.0,0.0
90.0,113.0,0.3,2.4402823196087278,7.3442985791734925,0.0,0.0
90.0,113.0,0.7,2.4402823196087278,7.3442985791734925,0.0,0.0
90.0,113.0,1.0,2.4402823196087278,7.3442985791734925,0.0,0.0
90.0,121.0,0.1,2.3904145410003372,7.438836333294074,0.0,0.0
90.0,121.0,0.3,2.3904145410003372,7.438836333294074,0.0,0.0
90.0,121.0,0.7,2.3904145410003372,7.438836333294074,0.0,0.0
90.0,121.0,1.0,2.3904145410003372,7.438836333294074,0.0,0.0
90.0,127.0,0.1,1.368480218516999,7.313415565605662,0.0,0.0
90.0,127.0,0.3,1.368480218516999,7.313415565605662,0.0,0.0
90.0,127.0,0.7,1.368480218516999,7.313415565605662,0.0,0.0
90.0,127.0,1.0,1.368480218516999,7.313415565605662,0.0,0.0
91.0,1.0,0.1,1.069880943169521,0.06167989916212381,0.0,0.0
91.0,1.0,0.3,1.069880943169521,0.06167989916212381,0.0,0.0
91.0,1.0,0.7,1.069880943169521,0.06167989916212381,0.0,0.0
91.0,1.0,1.0,1.069880943169521,0.06167989916212381,0.0,0.0
91.0,9.0,0.1,0.535261455789252,0.02577826365376496,0.0,0.0
91.0,9.0,0.3,0.535261455789252,0.02577826365376496,0.0,0.0
91.0,9.0,0.7,0.535261455789252,0.02577826365376496,0.0,0.0
91.0,9.0,1.0,0.535261455789252,0.02577826365376496,0.0,0.0
91.0,17.0,0.1,0.5629365642280092,0.022604481471027234,0.0,0.0
91.0,17.0,0.3,0.5629365642280092,0.022604481471027234,0.0,0.0
91.0,17.0,0.7,0.5629365642280092,0.022604481471027234,0.0,0.0
91.0,17.0,1.0,0.5629365642280092,0.022604481471027234,0.0,0.0
91.0,25.0,0.1,0.5235904065932012,0.026117167861192475,0.0,0.0
91.0,25.0,0.3,0.5235904065932012,0.026117167861192475,0.0,0.0
91.0,25.0,0.7,0.5235904065932012,0.026117167861192475,0.0,0.0
91.0,25.0,1.0,0.5235904065932012,0.026117167861192475,0.0,0.0
91.0,33.0,0.1,0.554122284470881,0.1547913376361767,0.0,0.0
91.0,33.0,0.3,0.554122284470881,0.1547913376361767,0.0,0.0
91.0,33.0,0.7,0.554122284470881,0.1547913376361767,0.0,0.0
91.0,33.0,1.0,0.554122284470881,0.1547913376361767,0.0,0.0
91.0,41.0,0.1,0.6018038995475729,0.4159110667036869,0.0,0.0
91.0,41.0,0.3,0.6018038995475729,0.4159110667036869,0.0,0.0
91.0,41.0,0.7,0.6018038995475729,0.4159110667036869,0.0,0.0
91.0,41.0,1.0,0.6018038995475729,0.4159110667036869,0.0,0.0
91.0,49.0,0.1,1.0067732927113844,0.7628467659670518,0.0,0.0
91.0,49.0,0.3,1.0067732927113844,0.7628467659670518,0.0,0.0
91.0,49.0,0.7,1.0067732927113844,0.7628467659670518,0.0,0.0
91.0,49.0,1.0,1.0067732927113844,0.7628467659670518,0.0,0.0
91.0,57.0,0.1,1.1840478005400832,1.1040637960552127,0.0,0.0
91.0,57.0,0.3,1.1840478005400832,1.1040637960552127,0.0,0.0
91.0,57.0,0.7,1.1840478005400832,1.1040637960552127,0.0,0.0
91.0,57.0,1.0,1.1840478005400832,1.1040637960552127,0.0,0.0
91.0,65.0,0.1,1.527898780156049,1.5944776205357567,0.0,0.0
91.0,65.0,0.3,1.527898780156049,1.5944776205357567,0.0,0.0
91.0,65.0,0.7,1.527898780156049,1.5944776205357567,0.0,0.0
91.0,65.0,1.0,1.527898780156049,1.5944776205357567,0.0,0.0
91.0,73.0,0.1,1.698538312169856,2.059557485726952,0.0,0.0
91.0,73.0,0.3,1.698538312169856,2.059557485726952,0.0,0.0
91.0,73.0,0.7,1.698538312169856,2.059557485726952,0.0,0.0
91.0,73.0,1.0,1.698538312169856,2.059557485726952,0.0,0.0
91.0,81.0,0.1,1.9714514976256263,2.7510004660730965,0.0,0.0
91.0,81.0,0.3,1.9714514976256263,2.7510004660730965,0.0,0.0
91.0,81.0,0.7,1.9714514976256263,2.7510004660730965,0.0,0.0
91.0,81.0,1.0,1.9714514976256263,2.7510004660730965,0.0,0.0
91.0,89.0,0.1,2.3117266493127437,3.348775445938294,0.0,0.0
91.0,89.0,0.3,2.3117266493127437,3.348775445938294,0.0,0.0
91.0,89.0,0.7,2.3117266493127437,3.348775445938294,0.0,0.0
91.0,89.0,1.0,2.3117266493127437,3.348775445938294,0.0,0.0
91.0,97.0,0.1,2.7838120525016867,4.04136831329435,0.0,0.0
91.0,97.0,0.3,2.7838120525016867,4.04136831329435,0.0,0.0
91.0,97.0,0.7,2.7838120525016867,4.04136831329435,0.0,0.0
91.0,97.0,1.0,2.7838120525016867,4.04136831329435,0.0,0.0
91.0,105.0,0.1,3.1863816318722025,4.6488267170317545,0.0,0.0
91.0,105.0,0.3,3.1863816318722025,4.6488267170317545,0.0,0.0
91.0,105.0,0.7,3.1863816318722025,4.6488267170317545,0.0,0.0
91.0,105.0,1.0,3.1863816318722025,4.6488267170317545,0.0,0.0
91.0,113.0,0.1,3.1656962483419675,5.7018792562898994,0.0,0.0
91.0,113.0,0.3,3.1656962483419675,5.7018792562898994,0.0,0.0
91.0,113.0,0.7,3.1656962483419675,5.7018792562898994,0.0,0.0
91.0,113.0,1.0,3.1656962483419675,5.7018792562898994,0.0,0.0
91.0,121.0,0.1,3.1380524199573543,6.436314982260782,0.0,0.0
91.0,121.0,0.3,3.1380524199573543,6.436314982260782,0.0,0.0
91.0,121.0,0.7,3.1380524199573543,6.436314982260782,0.0,0.0
91.0,121.0,1.0,3.1380524199573543,6.436314982260782,0.0,0.0
91.0,127.0,0.1,2.081256870848798,6.458483142723858,0.0,0.0
91.0,127.0,0.3,2.081256870848798,6.458483142723858,0.0,0.0
91.0,127.0,0.7,2.081256870848798,6.458483142723858,0.0,0.0
91.0,127.0,1.0,2.081256870848798,6.458483142723858,0.0,0.0
92.0,1.0,0.1,0.2871824869395604,0.03526798658826491,0.0,0.0
92.0,1.0,0.3,0.2871824869395604,0.03526798658826491,0.0,0.0
92.0,1.0,0.7,0.2871824869395604,0.03526798658826491,0.0,0.0
92.0,1.0,1.0,0.2871824869395604,0.03526798658826491,0.0,0.0
92.0,9.0,0.1,0.31159340552615405,0.015204155854430745,0.0,0.0
92.0,9.0,0.3,0.31159340552615405,0.015204155854430745,0.0,0.0
92.0,9.0,0.7,0.31159340552615405,0.015204155854430745,0.0,0.0
92.0,9.0,1.0,0.31159340552615405,0.015204155854430745,0.0,0.0
92.0,17.0,0.1,0.3147795429057799,0.010443946445230756,0.0,0.0
92.0,17.0,0.3,0.3147795429057799,0.010443946445230756,0.0,0.0
92.0,17.0,0.7,0.3147795429057799,0.010443946445230756,0.0,0.0
92.0,17.0,1.0,0.3147795429057799,0.010443946445230756,0.0,0.0
92.0,25.0,0.1,0.30953262646537083,0.040280784914258,0.0,0.0
92.0,25.0,0.3,0.30953262646537083,0.040280784914258,0.0,0.0
92.0,25.0,0.7,0.30953262646537083,0.040280784914258,0.0,0.0
92.0,25.0,1.0,0.30953262646537083,0.040280784914258,0.0,0.0
92.0,33.0,0.1,0.3008111125529316,0.17757003643953276,0.0,0.0
92.0,33.0,0.3,0.3008111125529316,0.17757003643953276,0.0,0.0
92.0,33.0,0.7,0.3008111125529316,0.17757003643953276,0.0,0.0
92.0,33.0,1.0,0.3008111125529316,0.17757003643953276,0.0,0.0
92.0,41.0,0.1,0.37429425223557133,0.452962433034391,0.0,0.0
92.0,41.0,0.3,0.37429425223557133,0.452962433034391,0.0,0.0
92.0,41.0,0.7,0.37429425223557133,0.452962433034391,0.0,0.0
92.0,41.0,1.0,0.37429425223557133,0.452962433034391,0.0,0.0
92.0,49.0,0.1,0.6072648010897624,0.893463079443075,0.0,0.0
92.0,49.0,0.3,0.6072648010897624,0.893463079443075,0.0,0.0
92.0,49.0,0.7,0.6072648010897624,0.893463079443075,0.0,0.0
92.0,49.0,1.0,0.6072648010897624,0.893463079443075,0.0,0.0
92.0,57.0,0.1,0.8263318368440471,1.2449969301686283,0.0,0.0
92.0,57.0,0.3,0.8263318368440471,1.2449969301686283,0.0,0.0
92.0,57.0,0.7,0.8263318368440471,1.2449969301686283,0.0,0.0
92.0,57.0,1.0,0.8263318368440471,1.2449969301686283,0.0,0.0
92.0,65.0,0.1,1.2008018591826897,1.7856199679889815,0.0,0.0
92.0,65.0,0.3,1.2008018591826897,1.7856199679889815,0.0,0.0
92.0,65.0,0.7,1.2008018591826897,1.7856199679889815,0.0,0.0
92.0,65.0,1.0,1.2008018591826897,1.7856199679889815,0.0,0.0
92.0,73.0,0.1,1.5886077182296658,2.3152305953756325,0.0,0.0
92.0,73.0,0.3,1.5886077182296658,2.3152305953756325,0.0,0.0
92.0,73.0,0.7,1.5886077182296658,2.3152305953756325,0.0,0.0
92.0,73.0,1.0,1.5886077182296658,2.3152305953756325,0.0,0.0
92.0,81.0,0.1,2.0429714681381386,2.937543210249371,0.0,0.0
92.0,81.0,0.3,2.0429714681381386,2.937543210249371,0.0,0.0
92.0,81.0,0.7,2.0429714681381386,2.937543210249371,0.0,0.0
92.0,81.0,1.0,2.0429714681381386,2.937543210249371,0.0,0.0
92.0,89.0,0.1,2.426449431564973,3.723236348821269,0.0,0.0
92.0,89.0,0.3,2.426449431564973,3.723236348821269,0.0,0.0
92.0,89.0,0.7,2.426449431564973,3.723236348821269,0.0,0.0
92.0,89.0,1.0,2.426449431564973,3.723236348821269,0.0,0.0
92.0,97.0,0.1,2.762063069744561,4.616021837844779,0.0,0.0
92.0,97.0,0.3,2.762063069744561,4.616021837844779,0.0,0.0
92.0,97.0,0.7,2.762063069744561,4.616021837844779,0.0,0.0
92.0,97.0,1.0,2.762063069744561,4.616021837844779,0.0,0.0
92.0,105.0,0.1,2.92362233629909,5.200547018990572,0.0,0.0
92.0,105.0,0.3,2.92362233629909,5.200547018990572,0.0,0.0
92.0,105.0,0.7,2.92362233629909,5.200547018990572,0.0,0.0
92.0,105.0,1.0,2.92362233629909,5.200547018990572,0.0,0.0
92.0,113.0,0.1,2.924141166712796,6.519390841172383,0.0,0.0
92.0,113.0,0.3,2.924141166712796,6.519390841172383,0.0,0.0
92.0,113.0,0.7,2.924141166712796,6.519390841172383,0.0,0.0
92.0,113.0,1.0,2.924141166712796,6.519390841172383,0.0,0.0
92.0,121.0,0.1,2.9068007742417183,6.043736999853343,0.0,0.0
92.0,121.0,0.3,2.9068007742417183,6.043736999853343,0.0,0.0
92.0,121.0,0.7,2.9068007742417183,6.043736999853343,0.0,0.0
92.0,121.0,1.0,2.9068007742417183,6.043736999853343,0.0,0.0
92.0,127.0,0.1,2.8933483299004257,6.076825039460497,0.0,0.0
92.0,127.0,0.3,2.8933483299004257,6.076825039460497,0.0,0.0
92.0,127.0,0.7,2.8933483299004257,6.076825039460497,0.0,0.0
92.0,127.0,1.0,2.8933483299004257,6.076825039460497,0.0,0.0
93.0,1.0,0.1,0.35829987662989643,0.08373175858751337,0.0,0.0
93.0,1.0,0.3,0.35829987662989643,0.08373175858751337,0.0,0.0
93.0,1.0,0.7,0.35829987662989643,0.08373175858751337,0.0,0.0
93.0,1.0,1.0,0.35829987662989643,0.08373175858751337,0.0,0.0
93.0,9.0,0.1,0.13120084987033337,0.08564715742257147,0.0,0.0
93.0,9.0,0.3,0.13120084987033337,0.08564715742257147,0.0,0.0
93.0,9.0,0.7,0.13120084987033337,0.08564715742257147,0.0,0.0
93.0,9.0,1.0,0.13120084987033337,0.08564715742257147,0.0,0.0
93.0,17.0,0.1,0.12186730565794007,0.07758458978400903,0.0,0.0
93.0,17.0,0.3,0.12186730565794007,0.07758458978400903,0.0,0.0
93.0,17.0,0.7,0.12186730565794007,0.07758458978400903,0.0,0.0
93.0,17.0,1.0,0.12186730565794007,0.07758458978400903,0.0,0.0
93.0,25.0,0.1,0.11717493708682625,0.2233441741284565,0.0,0.0
93.0,25.0,0.3,0.11717493708682625,0.2233441741284565,0.0,0.0
93.0,25.0,0.7,0.11717493708682625,0.2233441741284565,0.0,0.0
93.0,25.0,1.0,0.11717493708682625,0.2233441741284565,0.0,0.0
93.0,33.0,0.1,0.11018909767955519,0.43521946167388925,0.0,0.0
93.0,33.0,0.3,0.11018909767955519,0.43521946167388925,0.0,0.0
93.0,33.0,0.7,0.11018909767955519,0.43521946167388925,0.0,0.0
93.0,33.0,1.0,0.11018909767955519,0.43521946167388925,0.0,0.0
93.0,41.0,0.1,0.17728948745712222,0.8250951681127521,0.0,0.0
93.0,41.0,0.3,0.17728948745712222,0.8250951681127521,0.0,0.0
93.0,41.0,0.7,0.17728948745712222,0.8250951681127521,0.0,0.0
93.0,41.0,1.0,0.17728948745712222,0.8250951681127521,0.0,0.0
93.0,49.0,0.1,0.4542293329187993,1.277538268795999,0.0,0.0
93.0,49.0,0.3,0.4542293329187993,1.277538268795999,0.0,0.0
93.0,49.0,0.7,0.4542293329187993,1.277538268795999,0.0,0.0
93.0,49.0,1.0,0.4542293329187993,1.277538268795999,0.0,0.0
93.0,57.0,0.1,0.6915673450883638,1.7071116513403648,0.0,0.0
93.0,57.0,0.3,0.6915673450883638,1.7071116513403648,0.0,0.0
93.0,57.0,0.7,0.6915673450883638,1.7071116513403648,0.0,0.0
93.0,57.0,1.0,0.6915673450883638,1.7071116513403648,0.0,0.0
93.0,65.0,0.1,1.0244166654360924,2.210990990332337,0.0,0.0
93.0,65.0,0.3,1.0244166654360924,2.210990990332337,0.0,0.0
93.0,65.0,0.7,1.0244166654360924,2.210990990332337,0.0,0.0
93.0,65.0,1.0,1.0244166654360924,2.210990990332337,0.0,0.0
93.0,73.0,0.1,1.3313992027457255,2.8270591601476127,0.0,0.0
93.0,73.0,0.3,1.3313992027457255,2.8270591601476127,0.0,0.0
93.0,73.0,0.7,1.3313992027457255,2.8270591601476127,0.0,0.0
93.0,73.0,1.0,1.3313992027457255,2.8270591601476127,0.0,0.0
93.0,81.0,0.1,1.6997257370353849,3.633944783331271,0.0,0.0
93.0,81.0,0.3,1.6997257370353849,3.633944783331271,0.0,0.0
93.0,81.0,0.7,1.6997257370353849,3.633944783331271,0.0,0.0
93.0,81.0,1.0,1.6997257370353849,3.633944783331271,0.0,0.0
93.0,89.0,0.1,2.049286266787271,4.49272260546333,0.0,0.0
93.0,89.0,0.3,2.049286266787271,4.49272260546333,0.0,0.0
93.0,89.0,0.7,2.049286266787271,4.49272260546333,0.0,0.0
93.0,89.0,1.0,2.049286266787271,4.49272260546333,0.0,0.0
93.0,97.0,0.1,2.159907205577598,5.638915253375595,0.0,0.0
93.0,97.0,0.3,2.159907205577598,5.638915253375595,0.0,0.0
93.0,97.0,0.7,2.159907205577598,5.638915253375595,0.0,0.0
93.0,97.0,1.0,2.159907205577598,5.638915253375595,0.0,0.0
93.0,105.0,0.1,2.5235645409164977,7.584879618297369,0.0,0.0
93.0,105.0,0.3,2.5235645409164977,7.584879618297369,0.0,0.0
93.0,105.0,0.7,2.5235645409164977,7.584879618297369,0.0,0.0
93.0,105.0,1.0,2.5235645409164977,7.584879618297369,0.0,0.0
93.0,113.0,0.1,2.563420519465322,7.779099650436216,0.0,0.0
93.0,113.0,0.3,2.563420519465322,7.779099650436216,0.0,0.0
93.0,113.0,0.7,2.563420519465322,7.779099650436216,0.0,0.0
93.0,113.0,1.0,2.563420519465322,7.779099650436216,0.0,0.0
93.0,121.0,0.1,2.610329606051931,7.553241475786671,0.0,0.0
93.0,121.0,0.3,2.610329606051931,7.553241475786671,0.0,0.0
93.0,121.0,0.7,2.610329606051931,7.553241475786671,0.0,0.0
93.0,121.0,1.0,2.610329606051931,7.553241475786671,0.0,0.0
93.0,127.0,0.1,2.6356688645036805,7.412818585350448,0.0,0.0
93.0,127.0,0.3,2.6356688645036805,7.412818585350448,0.0,0.0
93.0,127.0,0.7,2.6356688645036805,7.412818585350448,0.0,0.0
93.0,127.0,1.0,2.6356688645036805,7.412818585350448,0.0,0.0
94.0,1.0,0.1,0.42913566247713214,0.04465737104032203,0.0,0.0
94.0,1.0,0.3,0.42913566247713214,0.04465737104032203,0.0,0.0
94.0,1.0,0.7,0.42913566247713214,0.04465737104032203,0.0,0.0
94.0,1.0,1.0,0.42913566247713214,0.04465737104032203,0.0,0.0
94.0,9.0,0.1,0.27074925066821315,0.04204740607573593,0.0,0.0
94.0,9.0,0.3,0.27074925066821315,0.04204740607573593,0.0,0.0
94.0,9.0,0.7,0.27074925066821315,0.04204740607573593,0.0,0.0
94.0,9.0,1.0,0.27074925066821315,0.04204740607573593,0.0,0.0
94.0,17.0,0.1,0.26246400146574517,0.04974995603880366,0.0,0.0
94.0,17.0,0.3,0.26246400146574517,0.04974995603880366,0.0,0.0
94.0,17.0,0.7,0.26246400146574517,0.04974995603880366,0.0,0.0
94.0,17.0,1.0,0.26246400146574517,0.04974995603880366,0.0,0.0
94.0,25.0,0.1,0.258895827666376,0.17720077686554947,0.0,0.0
94.0,25.0,0.3,0.258895827666376,0.17720077686554947,0.0,0.0
94.0,25.0,0.7,0.258895827666376,0.17720077686554947,0.0,0.0
94.0,25.0,1.0,0.258895827666376,0.17720077686554947,0.0,0.0
94.0,33.0,0.1,0.25524576094060236,0.459776128878121,0.0,0.0
94.0,33.0,0.3,0.25524576094060236,0.459776128878121,0.0,0.0
94.0,33.0,0.7,0.25524576094060236,0.459776128878121,0.0,0.0
94.0,33.0,1.0,0.25524576094060236,0.459776128878121,0.0,0.0
94.0,41.0,0.1,0.39491363637115784,0.7886140369424106,0.0,0.0
94.0,41.0,0.3,0.39491363637115784,0.7886140369424106,0.0,0.0
94.0,41.0,0.7,0.39491363637115784,0.7886140369424106,0.0,0.0
94.0,41.0,1.0,0.39491363637115784,0.7886140369424106,0.0,0.0
94.0,49.0,0.1,0.5435704457478725,1.2037027949831212,0.0,0.0
94.0,49.0,0.3,0.5435704457478725,1.2037027949831212,0.0,0.0
94.0,49.0,0.7,0.5435704457478725,1.2037027949831212,0.0,0.0
94.0,49.0,1.0,0.5435704457478725,1.2037027949831212,0.0,0.0
94.0,57.0,0.1,0.7321193469938796,1.6259015862162762,0.0,0.0
94.0,57.0,0.3,0.7321193469938796,1.6259015862162762,0.0,0.0
94.0,57.0,0.7,0.7321193469938796,1.6259015862162762,0.0,0.0
94.0,57.0,1.0,0.7321193469938796,1.6259015862162762,0.0,0.0
94.0,65.0,0.1,1.048875846252121,2.126463397958099,0.0,0.0
94.0,65.0,0.3,1.048875846252121,2.126463397958099,0.0,0.0
94.0,65.0,0.7,1.048875846252121,2.126463397958099,0.0,0.0
94.0,65.0,1.0,1.048875846252121,2.126463397958099,0.0,0.0
94.0,73.0,0.1,1.3840185954280426,2.6964470847074633,0.0,0.0
94.0,73.0,0.3,1.3840185954280426,2.6964470847074633,0.0,0.0
94.0,73.0,0.7,1.3840185954280426,2.6964470847074633,0.0,0.0
94.0,73.0,1.0,1.3840185954280426,2.6964470847074633,0.0,0.0
94.0,81.0,0.1,1.8543665376853893,3.346843278064499,0.0,0.0
94.0,81.0,0.3,1.8543665376853893,3.346843278064499,0.0,0.0
94.0,81.0,0.7,1.8543665376853893,3.346843278064499,0.0,0.0
94.0,81.0,1.0,1.8543665376853893,3.346843278064499,0.0,0.0
94.0,89.0,0.1,2.2157777830615326,4.111315477972133,0.0,0.0
94.0,89.0,0.3,2.2157777830615326,4.111315477972133,0.0,0.0
94.0,89.0,0.7,2.2157777830615326,4.111315477972133,0.0,0.0
94.0,89.0,1.0,2.2157777830615326,4.111315477972133,0.0,0.0
94.0,97.0,0.1,2.5261076285703514,4.914337255297361,0.0,0.0
94.0,97.0,0.3,2.5261076285703514,4.914337255297361,0.0,0.0
94.0,97.0,0.7,2.5261076285703514,4.914337255297361,0.0,0.0
94.0,97.0,1.0,2.5261076285703514,4.914337255297361,0.0,0.0
94.0,105.0,0.1,2.5783588568288462,5.56069107910774,0.0,0.0
94.0,105.0,0.3,2.5783588568288462,5.56069107910774,0.0,0.0
94.0,105.0,0.7,2.5783588568288462,5.56069107910774,0.0,0.0
94.0,105.0,1.0,2.5783588568288462,5.56069107910774,0.0,0.0
94.0,113.0,0.1,2.555573140392159,6.9544620817052705,0.0,0.0
94.0,113.0,0.3,2.555573140392159,6.9544620817052705,0.0,0.0
94.0,113.0,0.7,2.555573140392159,6.9544620817052705,0.0,0.0
94.0,113.0,1.0,2.555573140392159,6.9544620817052705,0.0,0.0
94.0,121.0,0.1,2.008847580259449,6.865557793438183,0.0,0.0
94.0,121.0,0.3,2.008847580259449,6.865557793438183,0.0,0.0
94.0,121.0,0.7,2.008847580259449,6.865557793438183,0.0,0.0
94.0,121.0,1.0,2.008847580259449,6.865557793438183,0.0,0.0
94.0,127.0,0.1,2.0809203771613167,6.783471314927132,0.0,0.0
94.0,127.0,0.3,2.0809203771613167,6.783471314927132,0.0,0.0
94.0,127.0,0.7,2.0809203771613167,6.783471314927132,0.0,0.0
94.0,127.0,1.0,2.0809203771613167,6.783471314927132,0.0,0.0
95.0,1.0,0.1,0.591535355287609,0.032503969956906326,0.0,0.0
95.0,1.0,0.3,0.591535355287609,0.032503969956906326,0.0,0.0
95.0,1.0,0.7,0.591535355287609,0.032503969956906326,0.0,0.0
95.0,1.0,1.0,0.591535355287609,0.032503969956906326,0.0,0.0
95.0,9.0,0.1,0.3407466472263707,0.023763085636827795,0.0,0.0
95.0,9.0,0.3,0.3407466472263707,0.023763085636827795,0.0,0.0
95.0,9.0,0.7,0.3407466472263707,0.023763085636827795,0.0,0.0
95.0,9.0,1.0,0.3407466472263707,0.023763085636827795,0.0,0.0
95.0,17.0,0.1,0.33827656197374617,0.028123415685739228,0.0,0.0
95.0,17.0,0.3,0.33827656197374617,0.028123415685739228,0.0,0.0
95.0,17.0,0.7,0.33827656197374617,0.028123415685739228,0.0,0.0
95.0,17.0,1.0,0.33827656197374617,0.028123415685739228,0.0,0.0
95.0,25.0,0.1,0.33497680970260885,0.08559350728925476,0.0,0.0
95.0,25.0,0.3,0.33497680970260885,0.08559350728925476,0.0,0.0
95.0,25.0,0.7,0.33497680970260885,0.08559350728925476,0.0,0.0
95.0,25.0,1.0,0.33497680970260885,0.08559350728925476,0.0,0.0
95.0,33.0,0.1,0.32667327686965497,0.21684683578798056,0.0,0.0
95.0,33.0,0.3,0.32667327686965497,0.21684683578798056,0.0,0.0
95.0,33.0,0.7,0.32667327686965497,0.21684683578798056,0.0,0.0
95.0,33.0,1.0,0.32667327686965497,0.21684683578798056,0.0,0.0
95.0,41.0,0.1,0.4878177289118894,0.5396188887979378,0.0,0.0
95.0,41.0,0.3,0.4878177289118894,0.5396188887979378,0.0,0.0
95.0,41.0,0.7,0.4878177289118894,0.5396188887979378,0.0,0.0
95.0,41.0,1.0,0.4878177289118894,0.5396188887979378,0.0,0.0
95.0,49.0,0.1,0.651139609163968,0.8919200453797587,0.0,0.0
95.0,49.0,0.3,0.651139609163968,0.8919200453797587,0.0,0.0
95.0,49.0,0.7,0.651139609163968,0.8919200453797587,0.0,0.0
95.0,49.0,1.0,0.651139609163968,0.8919200453797587,0.0,0.0
95.0,57.0,0.1,0.795640382416536,1.2541407084138048,0.0,0.0
95.0,57.0,0.3,0.795640382416536,1.2541407084138048,0.0,0.0
95.0,57.0,0.7,0.795640382416536,1.2541407084138048,0.0,0.0
95.0,57.0,1.0,0.795640382416536,1.2541407084138048,0.0,0.0
95.0,65.0,0.1,1.1261106226398756,1.729847168391414,0.0,0.0
95.0,65.0,0.3,1.1261106226398756,1.729847168391414,0.0,0.0
95.0,65.0,0.7,1.1261106226398756,1.729847168391414,0.0,0.0
95.0,65.0,1.0,1.1261106226398756,1.729847168391414,0.0,0.0
95.0,73.0,0.1,1.5431446373350064,2.241779413254081,0.0,0.0
95.0,73.0,0.3,1.5431446373350064,2.241779413254081,0.0,0.0
95.0,73.0,0.7,1.5431446373350064,2.241779413254081,0.0,0.0
95.0,73.0,1.0,1.5431446373350064,2.241779413254081,0.0,0.0
95.0,81.0,0.1,2.0368400772762936,2.84614645850135,0.0,0.0
95.0,81.0,0.3,2.0368400772762936,2.84614645850135,0.0,0.0
95.0,81.0,0.7,2.0368400772762936,2.84614645850135,0.0,0.0
95.0,81.0,1.0,2.0368400772762936,2.84614645850135,0.0,0.0
95.0,89.0,0.1,2.4727657480037513,3.486308641495603,0.0,0.0
95.0,89.0,0.3,2.4727657480037513,3.486308641495603,0.0,0.0
95.0,89.0,0.7,2.4727657480037513,3.486308641495603,0.0,0.0
95.0,89.0,1.0,2.4727657480037513,3.486308641495603,0.0,0.0
95.0,97.0,0.1,2.870252835414867,4.3040297329416175,0.0,0.0
95.0,97.0,0.3,2.870252835414867,4.3040297329416175,0.0,0.0
95.0,97.0,0.7,2.870252835414867,4.3040297329416175,0.0,0.0
95.0,97.0,1.0,2.870252835414867,4.3040297329416175,0.0,0.0
95.0,105.0,0.1,3.047229851269298,5.760059069854524,0.0,0.0
95.0,105.0,0.3,3.047229851269298,5.760059069854524,0.0,0.0
95.0,105.0,0.7,3.047229851269298,5.760059069854524,0.0,0.0
95.0,105.0,1.0,3.047229851269298,5.760059069854524,0.0,0.0
95.0,113.0,0.1,3.013643258426762,6.771170459124032,0.0,0.0
95.0,113.0,0.3,3.013643258426762,6.771170459124032,0.0,0.0
95.0,113.0,0.7,3.013643258426762,6.771170459124032,0.0,0.0
95.0,113.0,1.0,3.013643258426762,6.771170459124032,0.0,0.0
95.0,121.0,0.1,2.993834860876592,6.564718291698567,0.0,0.0
95.0,121.0,0.3,2.993834860876592,6.564718291698567,0.0,0.0
95.0,121.0,0.7,2.993834860876592,6.564718291698567,0.0,0.0
95.0,121.0,1.0,2.993834860876592,6.564718291698567,0.0,0.0
95.0,127.0,0.1,2.999655947543806,6.51446965152121,0.0,0.0
95.0,127.0,0.3,2.999655947543806,6.51446965152121,0.0,0.0
95.0,127.0,0.7,2.999655947543806,6.51446965152121,0.0,0.0
95.0,127.0,1.0,2.999655947543806,6.51446965152121,0.0,0.0
96.0,1.0,0.1,0.5846287083784186,0.05386631518169763,0.0,0.0
96.0,1.0,0.3,0.5846287083784186,0.05386631518169763,0.0,0.0
96.0,1.0,0.7,0.5846287083784186,0.05386631518169763,0.0,0.0
96.0,1.0,1.0,0.5846287083784186,0.05386631518169763,0.0,0.0
96.0,9.0,0.1,0.3754330213072192,0.10458693455742682,0.0,0.0
96.0,9.0,0.3,0.3754330213072192,0.10458693455742682,0.0,0.0
96.0,9.0,0.7,0.3754330213072192,0.10458693455742682,0.0,0.0
96.0,9.0,1.0,0.3754330213072192,0.10458693455742682,0.0,0.0
96.0,17.0,0.1,0.3670295275306679,0.06200058126017809,0.0,0.0
96.0,17.0,0.3,0.3670295275306679,0.06200058126017809,0.0,0.0
96.0,17.0,0.7,0.3670295275306679,0.06200058126017809,0.0,0.0
96.0,17.0,1.0,0.3670295275306679,0.06200058126017809,0.0,0.0
96.0,25.0,0.1,0.35434645465765635,0.1773535598389657,0.0,0.0
96.0,25.0,0.3,0.35434645465765635,0.1773535598389657,0.0,0.0
96.0,25.0,0.7,0.35434645465765635,0.1773535598389657,0.0,0.0
96.0,25.0,1.0,0.35434645465765635,0.1773535598389657,0.0,0.0
96.0,33.0,0.1,0.35059440601881275,0.3551218388771147,0.0,0.0
96.0,33.0,0.3,0.35059440601881275,0.3551218388771147,0.0,0.0
96.0,33.0,0.7,0.35059440601881275,0.3551218388771147,0.0,0.0
96.0,33.0,1.0,0.35059440601881275,0.3551218388771147,0.0,0.0
96.0,41.0,0.1,0.4248575074461617,0.7254157193073388,0.0,0.0
96.0,41.0,0.3,0.4248575074461617,0.7254157193073388,0.0,0.0
96.0,41.0,0.7,0.4248575074461617,0.7254157193073388,0.0,0.0
96.0,41.0,1.0,0.4248575074461617,0.7254157193073388,0.0,0.0
96.0,49.0,0.1,0.573525275521333,1.1889777417796212,0.0,0.0
96.0,49.0,0.3,0.573525275521333,1.1889777417796212,0.0,0.0
96.0,49.0,0.7,0.573525275521333,1.1889777417796212,0.0,0.0
96.0,49.0,1.0,0.573525275521333,1.1889777417796212,0.0,0.0
96.0,57.0,0.1,0.759817366747761,1.7039792737799488,0.0,0.0
96.0,57.0,0.3,0.759817366747761,1.7039792737799488,0.0,0.0
96.0,57.0,0.7,0.759817366747761,1.7039792737799488,0.0,0.0
96.0,57.0,1.0,0.759817366747761,1.7039792737799488,0.0,0.0
96.0,65.0,0.1,1.0891351427449487,2.3312082688537177,0.0,0.0
96.0,65.0,0.3,1.0891351427449487,2.3312082688537177,0.0,0.0
96.0,65.0,0.7,1.0891351427449487,2.3312082688537177,0.0,0.0
96.0,65.0,1.0,1.0891351427449487,2.3312082688537177,0.0,0.0
96.0,73.0,0.1,1.4289419902686438,3.010677944728906,0.0,0.0
96.0,73.0,0.3,1.4289419902686438,3.010677944728906,0.0,0.0
96.0,73.0,0.7,1.4289419902686438,3.010677944728906,0.0,0.0
96.0,73.0,1.0,1.4289419902686438,3.010677944728906,0.0,0.0
96.0,81.0,0.1,1.8300640217506527,3.712787460390934,0.0,0.0
96.0,81.0,0.3,1.8300640217506527,3.712787460390934,0.0,0.0
96.0,81.0,0.7,1.8300640217506527,3.712787460390934,0.0,0.0
96.0,81.0,1.0,1.8300640217506527,3.712787460390934,0.0,0.0
96.0,89.0,0.1,2.127193062282998,4.461091784735614,0.0,0.0
96.0,89.0,0.3,2.127193062282998,4.461091784735614,0.0,0.0
96.0,89.0,0.7,2.127193062282998,4.461091784735614,0.0,0.0
96.0,89.0,1.0,2.127193062282998,4.461091784735614,0.0,0.0
96.0,97.0,0.1,2.346930415604685,5.543026688862034,0.0,0.0
96.0,97.0,0.3,2.346930415604685,5.543026688862034,0.0,0.0
96.0,97.0,0.7,2.346930415604685,5.543026688862034,0.0,0.0
96.0,97.0,1.0,2.346930415604685,5.543026688862034,0.0,0.0
96.0,105.0,0.1,2.460391971197089,7.05806002893119,0.0,0.0
96.0,105.0,0.3,2.460391971197089,7.05806002893119,0.0,0.0
96.0,105.0,0.7,2.460391971197089,7.05806002893119,0.0,0.0
96.0,105.0,1.0,2.460391971197089,7.05806002893119,0.0,0.0
96.0,113.0,0.1,2.458826618989609,7.385437245035635,0.0,0.0
96.0,113.0,0.3,2.458826618989609,7.385437245035635,0.0,0.0
96.0,113.0,0.7,2.458826618989609,7.385437245035635,0.0,0.0
96.0,113.0,1.0,2.458826618989609,7.385437245035635,0.0,0.0
96.0,121.0,0.1,2.467973886524719,7.428856652863852,0.0,0.0
96.0,121.0,0.3,2.467973886524719,7.428856652863852,0.0,0.0
96.0,121.0,0.7,2.467973886524719,7.428856652863852,0.0,0.0
96.0,121.0,1.0,2.467973886524719,7.428856652863852,0.0,0.0
96.0,127.0,0.1,2.466936395986003,7.440702365448085,0.0,0.0
96.0,127.0,0.3,2.466936395986003,7.440702365448085,0.0,0.0
96.0,127.0,0.7,2.466936395986003,7.440702365448085,0.0,0.0
96.0,127.0,1.0,2.466936395986003,7.440702365448085,0.0,0.0
97.0,1.0,0.1,0.5609887976788885,0.015718722968534108,0.0,0.0
97.0,1.0,0.3,0.5609887976788885,0.015718722968534108,0.0,0.0
97.0,1.0,0.7,0.5609887976788885,0.015718722968534108,0.0,0.0
97.0,1.0,1.0,0.5609887976788885,0.015718722968534108,0.0,0.0
97.0,9.0,0.1,0.43286919962665144,0.014689112305323326,0.0,0.0
97.0,9.0,0.3,0.43286919962665144,0.014689112305323326,0.0,0.0
97.0,9.0,0.7,0.43286919962665144,0.014689112305323326,0.0,0.0
97.0,9.0,1.0,0.43286919962665144,0.014689112305323326,0.0,0.0
97.0,17.0,0.1,0.4290859308640399,0.00928756672807114,0.0,0.0
97.0,17.0,0.3,0.4290859308640399,0.00928756672807114,0.0,0.0
97.0,17.0,0.7,0.4290859308640399,0.00928756672807114,0.0,0.0
97.0,17.0,1.0,0.4290859308640399,0.00928756672807114,0.0,0.0
97.0,25.0,0.1,0.43112844713761744,0.17137540392206757,0.0,0.0
97.0,25.0,0.3,0.43112844713761744,0.17137540392206757,0.0,0.0
97.0,25.0,0.7,0.43112844713761744,0.17137540392206757,0.0,0.0
97.0,25.0,1.0,0.43112844713761744,0.17137540392206757,0.0,0.0
97.0,33.0,0.1,0.4221372432281863,0.3043913745781123,0.0,0.0
97.0,33.0,0.3,0.4221372432281863,0.3043913745781123,0.0,0.0
97.0,33.0,0.7,0.4221372432281863,0.3043913745781123,0.0,0.0
97.0,33.0,1.0,0.4221372432281863,0.3043913745781123,0.0,0.0
97.0,41.0,0.1,0.5824276461836009,0.6295640557861181,0.0,0.0
97.0,41.0,0.3,0.5824276461836009,0.6295640557861181,0.0,0.0
97.0,41.0,0.7,0.5824276461836009,0.6295640557861181,0.0,0.0
97.0,41.0,1.0,0.5824276461836009,0.6295640557861181,0.0,0.0
97.0,49.0,0.1,0.733255517018991,1.092650500395766,0.0,0.0
97.0,49.0,0.3,0.733255517018991,1.092650500395766,0.0,0.0
97.0,49.0,0.7,0.733255517018991,1.092650500395766,0.0,0.0
97.0,49.0,1.0,0.733255517018991,1.092650500395766,0.0,0.0
97.0,57.0,0.1,0.8707793037872614,1.513227805110805,0.0,0.0
97.0,57.0,0.3,0.8707793037872614,1.513227805110805,0.0,0.0
97.0,57.0,0.7,0.8707793037872614,1.513227805110805,0.0,0.0
97.0,57.0,1.0,0.8707793037872614,1.513227805110805,0.0,0.0
97.0,65.0,0.1,1.0875959816915448,1.9590998613407946,0.0,0.0
97.0,65.0,0.3,1.0875959816915448,1.9590998613407946,0.0,0.0
97.0,65.0,0.7,1.0875959816915448,1.9590998613407946,0.0,0.0
97.0,65.0,1.0,1.0875959816915448,1.9590998613407946,0.0,0.0
97.0,73.0,0.1,1.4740808727527415,2.526418618242498,0.0,0.0
97.0,73.0,0.3,1.4740808727527415,2.526418618242498,0.0,0.0
97.0,73.0,0.7,1.4740808727527415,2.526418618242498,0.0,0.0
97.0,73.0,1.0,1.4740808727527415,2.526418618242498,0.0,0.0
97.0,81.0,0.1,1.875236820484264,3.156289796843922,0.0,0.0
97.0,81.0,0.3,1.875236820484264,3.156289796843922,0.0,0.0
97.0,81.0,0.7,1.875236820484264,3.156289796843922,0.0,0.0
97.0,81.0,1.0,1.875236820484264,3.156289796843922,0.0,0.0
97.0,89.0,0.1,2.3303971024296914,3.7678206665381007,0.0,0.0
97.0,89.0,0.3,2.3303971024296914,3.7678206665381007,0.0,0.0
97.0,89.0,0.7,2.3303971024296914,3.7678206665381007,0.0,0.0
97.0,89.0,1.0,2.3303971024296914,3.7678206665381007,0.0,0.0
97.0,97.0,0.1,2.707535961157668,4.694138664903051,0.0,0.0
97.0,97.0,0.3,2.707535961157668,4.694138664903051,0.0,0.0
97.0,97.0,0.7,2.707535961157668,4.694138664903051,0.0,0.0
97.0,97.0,1.0,2.707535961157668,4.694138664903051,0.0,0.0
97.0,105.0,0.1,3.0189648905987965,5.639932181757054,0.0,0.0
97.0,105.0,0.3,3.0189648905987965,5.639932181757054,0.0,0.0
97.0,105.0,0.7,3.0189648905987965,5.639932181757054,0.0,0.0
97.0,105.0,1.0,3.0189648905987965,5.639932181757054,0.0,0.0
97.0,113.0,0.1,2.9970886180188865,6.699625811773206,0.0,0.0
97.0,113.0,0.3,2.9970886180188865,6.699625811773206,0.0,0.0
97.0,113.0,0.7,2.9970886180188865,6.699625811773206,0.0,0.0
97.0,113.0,1.0,2.9970886180188865,6.699625811773206,0.0,0.0
97.0,121.0,0.1,2.973397459554327,6.845980760200863,0.0,0.0
97.0,121.0,0.3,2.973397459554327,6.845980760200863,0.0,0.0
97.0,121.0,0.7,2.973397459554327,6.845980760200863,0.0,0.0
97.0,121.0,1.0,2.973397459554327,6.845980760200863,0.0,0.0
97.0,127.0,0.1,2.962486947990605,6.9260932018663945,0.0,0.0
97.0,127.0,0.3,2.962486947990605,6.9260932018663945,0.0,0.0
97.0,127.0,0.7,2.962486947990605,6.9260932018663945,0.0,0.0
97.0,127.0,1.0,2.962486947990605,6.9260932018663945,0.0,0.0
98.0,1.0,0.1,0.6862221727798719,0.06958312698385331,0.0,0.0
98.0,1.0,0.3,0.6862221727798719,0.06958312698385331,0.0,0.0
98.0,1.0,0.7,0.6862221727798719,0.06958312698385331,0.0,0.0
98.0,1.0,1.0,0.6862221727798719,0.06958312698385331,0.0,0.0
98.0,9.0,0.1,0.3994310592185432,0.06809222580442209,0.0,0.0
98.0,9.0,0.3,0.3994310592185432,0.06809222580442209,0.0,0.0
98.0,9.0,0.7,0.3994310592185432,0.06809222580442209,0.0,0.0
98.0,9.0,1.0,0.3994310592185432,0.06809222580442209,0.0,0.0
98.0,17.0,0.1,0.39190280911095904,0.0679444020427524,0.0,0.0
98.0,17.0,0.3,0.39190280911095904,0.0679444020427524,0.0,0.0
98.0,17.0,0.7,0.39190280911095904,0.0679444020427524,0.0,0.0
98.0,17.0,1.0,0.39190280911095904,0.0679444020427524,0.0,0.0
98.0,25.0,0.1,0.38502707738721065,0.2552867340541141,0.0,0.0
98.0,25.0,0.3,0.38502707738721065,0.2552867340541141,0.0,0.0
98.0,25.0,0.7,0.38502707738721065,0.2552867340541141,0.0,0.0
98.0,25.0,1.0,0.38502707738721065,0.2552867340541141,0.0,0.0
98.0,33.0,0.1,0.38066129054486636,0.6363002624125269,0.0,0.0
98.0,33.0,0.3,0.38066129054486636,0.6363002624125269,0.0,0.0
98.0,33.0,0.7,0.38066129054486636,0.6363002624125269,0.0,0.0
98.0,33.0,1.0,0.38066129054486636,0.6363002624125269,0.0,0.0
98.0,41.0,0.1,0.4604159020520201,1.0239931074026276,0.0,0.0
98.0,41.0,0.3,0.4604159020520201,1.0239931074026276,0.0,0.0
98.0,41.0,0.7,0.4604159020520201,1.0239931074026276,0.0,0.0
98.0,41.0,1.0,0.4604159020520201,1.0239931074026276,0.0,0.0
98.0,49.0,0.1,0.666470774299616,1.53637462140622,0.0,0.0
98.0,49.0,0.3,0.666470774299616,1.53637462140622,0.0,0.0
98.0,49.0,0.7,0.666470774299616,1.53637462140622,0.0,0.0
98.0,49.0,1.0,0.666470774299616,1.53637462140622,0.0,0.0
98.0,57.0,0.1,0.7945367347951433,1.9543079556809018,0.0,0.0
98.0,57.0,0.3,0.7945367347951433,1.9543079556809018,0.0,0.0
98.0,57.0,0.7,0.7945367347951433,1.9543079556809018,0.0,0.0
98.0,57.0,1.0,0.7945367347951433,1.9543079556809018,0.0,0.0
98.0,65.0,0.1,1.0414011169748152,2.5760119085959037,0.0,0.0
98.0,65.0,0.3,1.0414011169748152,2.5760119085959037,0.0,0.0
98.0,65.0,0.7,1.0414011169748152,2.5760119085959037,0.0,0.0
98.0,65.0,1.0,1.0414011169748152,2.5760119085959037,0.0,0.0
98.0,73.0,0.1,1.3978316687578227,3.2827229590997486,0.0,0.0
98.0,73.0,0.3,1.3978316687578227,3.2827229590997486,0.0,0.0
98.0,73.0,0.7,1.3978316687578227,3.2827229590997486,0.0,0.0
98.0,73.0,1.0,1.3978316687578227,3.2827229590997486,0.0,0.0
98.0,81.0,0.1,1.738453643717403,4.0767079178793555,0.0,0.0
98.0,81.0,0.3,1.738453643717403,4.0767079178793555,0.0,0.0
98.0,81.0,0.7,1.738453643717403,4.0767079178793555,0.0,0.0
98.0,81.0,1.0,1.738453643717403,4.0767079178793555,0.0,0.0
98.0,89.0,0.1,2.081112077806114,4.899245259660544,0.0,0.0
98.0,89.0,0.3,2.081112077806114,4.899245259660544,0.0,0.0
98.0,89.0,0.7,2.081112077806114,4.899245259660544,0.0,0.0
98.0,89.0,1.0,2.081112077806114,4.899245259660544,0.0,0.0
98.0,97.0,0.1,2.344554891229822,5.847452919636719,0.0,0.0
98.0,97.0,0.3,2.344554891229822,5.847452919636719,0.0,0.0
98.0,97.0,0.7,2.344554891229822,5.847452919636719,0.0,0.0
98.0,97.0,1.0,2.344554891229822,5.847452919636719,0.0,0.0
98.0,105.0,0.1,2.5487570023212407,7.380164771037034,0.0,0.0
98.0,105.0,0.3,2.5487570023212407,7.380164771037034,0.0,0.0
98.0,105.0,0.7,2.5487570023212407,7.380164771037034,0.0,0.0
98.0,105.0,1.0,2.5487570023212407,7.380164771037034,0.0,0.0
98.0,113.0,0.1,2.534182364477578,8.154036075779677,0.0,0.0
98.0,113.0,0.3,2.534182364477578,8.154036075779677,0.0,0.0
98.0,113.0,0.7,2.534182364477578,8.154036075779677,0.0,0.0
98.0,113.0,1.0,2.534182364477578,8.154036075779677,0.0,0.0
98.0,121.0,0.1,2.5307752512113644,8.133591465019524,0.0,0.0
98.0,121.0,0.3,2.5307752512113644,8.133591465019524,0.0,0.0
98.0,121.0,0.7,2.5307752512113644,8.133591465019524,0.0,0.0
98.0,121.0,1.0,2.5307752512113644,8.133591465019524,0.0,0.0
98.0,127.0,0.1,2.5062766331690356,8.091767513418201,0.0,0.0
98.0,127.0,0.3,2.5062766331690356,8.091767513418201,0.0,0.0
98.0,127.0,0.7,2.5062766331690356,8.091767513418201,0.0,0.0
98.0,127.0,1.0,2.5062766331690356,8.091767513418201,0.0,0.0
99.0,1.0,0.1,0.7334686382850466,0.03858016198897663,0.0,0.0
99.0,1.0,0.3,0.7334686382850466,0.03858016198897663,0.0,0.0
99.0,1.0,0.7,0.7334686382850466,0.03858016198897663,0.0,0.0
99.0,1.0,1.0,0.7334686382850466,0.03858016198897663,0.0,0.0
99.0,9.0,0.1,0.43400496006985767,0.026710739449935447,0.0,0.0
99.0,9.0,0.3,0.43400496006985767,0.026710739449935447,0.0,0.0
99.0,9.0,0.7,0.43400496006985767,0.026710739449935447,0.0,0.0
99.0,9.0,1.0,0.43400496006985767,0.026710739449935447,0.0,0.0
99.0,17.0,0.1,0.42598765252756365,0.025825850022936164,0.0,0.0
99.0,17.0,0.3,0.42598765252756365,0.025825850022936164,0.0,0.0
99.0,17.0,0.7,0.42598765252756365,0.025825850022936164,0.0,0.0
99.0,17.0,1.0,0.42598765252756365,0.025825850022936164,0.0,0.0
99.0,25.0,0.1,0.42109602158873416,0.10538466824512474,0.0,0.0
99.0,25.0,0.3,0.42109602158873416,0.10538466824512474,0.0,0.0
99.0,25.0,0.7,0.42109602158873416,0.10538466824512474,0.0,0.0
99.0,25.0,1.0,0.42109602158873416,0.10538466824512474,0.0,0.0
99.0,33.0,0.1,0.4177068211544754,0.40295281847083975,0.0,0.0
99.0,33.0,0.3,0.4177068211544754,0.40295281847083975,0.0,0.0
99.0,33.0,0.7,0.4177068211544754,0.40295281847083975,0.0,0.0
99.0,33.0,1.0,0.4177068211544754,0.40295281847083975,0.0,0.0
99.0,41.0,0.1,0.5014840314443781,0.8004307857341627,0.0,0.0
99.0,41.0,0.3,0.5014840314443781,0.8004307857341627,0.0,0.0
99.0,41.0,0.7,0.5014840314443781,0.8004307857341627,0.0,0.0
99.0,41.0,1.0,0.5014840314443781,0.8004307857341627,0.0,0.0
99.0,49.0,0.1,0.6572238774320883,1.3303954612830815,0.0,0.0
99.0,49.0,0.3,0.6572238774320883,1.3303954612830815,0.0,0.0
99.0,49.0,0.7,0.6572238774320883,1.3303954612830815,0.0,0.0
99.0,49.0,1.0,0.6572238774320883,1.3303954612830815,0.0,0.0
99.0,57.0,0.1,0.8518009172853935,1.814706900568715,0.0,0.0
99.0,57.0,0.3,0.8518009172853935,1.814706900568715,0.0,0.0
99.0,57.0,0.7,0.8518009172853935,1.814706900568715,0.0,0.0
99.0,57.0,1.0,0.8518009172853935,1.814706900568715,0.0,0.0
99.0,65.0,0.1,1.089885563847457,2.2981878811942775,0.0,0.0
99.0,65.0,0.3,1.089885563847457,2.2981878811942775,0.0,0.0
99.0,65.0,0.7,1.089885563847457,2.2981878811942775,0.0,0.0
99.0,65.0,1.0,1.089885563847457,2.2981878811942775,0.0,0.0
99.0,73.0,0.1,1.4463786950716615,2.886845087763035,0.0,0.0
99.0,73.0,0.3,1.4463786950716615,2.886845087763035,0.0,0.0
99.0,73.0,0.7,1.4463786950716615,2.886845087763035,0.0,0.0
99.0,73.0,1.0,1.4463786950716615,2.886845087763035,0.0,0.0
99.0,81.0,0.1,1.7579847009609286,3.5355692789320456,0.0,0.0
99.0,81.0,0.3,1.7579847009609286,3.5355692789320456,0.0,0.0
99.0,81.0,0.7,1.7579847009609286,3.5355692789320456,0.0,0.0
99.0,81.0,1.0,1.7579847009609286,3.5355692789320456,0.0,0.0
99.0,89.0,0.1,2.2187378304647782,4.2703730551041,0.0,0.0
99.0,89.0,0.3,2.2187378304647782,4.2703730551041,0.0,0.0
99.0,89.0,0.7,2.2187378304647782,4.2703730551041,0.0,0.0
99.0,89.0,1.0,2.2187378304647782,4.2703730551041,0.0,0.0
99.0,97.0,0.1,2.7360634857104373,5.008540241747251,0.0,0.0
99.0,97.0,0.3,2.7360634857104373,5.008540241747251,0.0,0.0
99.0,97.0,0.7,2.7360634857104373,5.008540241747251,0.0,0.0
99.0,97.0,1.0,2.7360634857104373,5.008540241747251,0.0,0.0
99.0,105.0,0.1,2.9652936407045964,5.4952722327025825,0.0,0.0
99.0,105.0,0.3,2.9652936407045964,5.4952722327025825,0.0,0.0
99.0,105.0,0.7,2.9652936407045964,5.4952722327025825,0.0,0.0
99.0,105.0,1.0,2.9652936407045964,5.4952722327025825,0.0,0.0
99.0,113.0,0.1,2.8928477940813737,6.94874855190833,0.0,0.0
99.0,113.0,0.3,2.8928477940813737,6.94874855190833,0.0,0.0
99.0,113.0,0.7,2.8928477940813737,6.94874855190833,0.0,0.0
99.0,113.0,1.0,2.8928477940813737,6.94874855190833,0.0,0.0
99.0,121.0,0.1,2.856261055873238,6.987090911823081,0.0,0.0
99.0,121.0,0.3,2.856261055873238,6.987090911823081,0.0,0.0
99.0,121.0,0.7,2.856261055873238,6.987090911823081,0.0,0.0
99.0,121.0,1.0,2.856261055873238,6.987090911823081,0.0,0.0
99.0,127.0,0.1,2.8524060329071377,6.995671652831766,0.0,0.0
99.0,127.0,0.3,2.8524060329071377,6.995671652831766,0.0,0.0
99.0,127.0,0.7,2.8524060329071377,6.995671652831766,0.0,0.0
99.0,127.0,1.0,2.8524060329071377,6.995671652831766,0.0,0.0
100.0,1.0,0.1,0.3741487622722287,0.00864682645910159,0.0,0.0
100.0,1.0,0.3,0.3741487622722287,0.00864682645910159,0.0,0.0
100.0,1.0,0.7,0.3741487622722287,0.00864682645910159,0.0,0.0
100.0,1.0,1.0,0.3741487622722287,0.00864682645910159,0.0,0.0
100.0,9.0,0.1,0.24915071219674337,0.007414711224469377,0.0,0.0
100.0,9.0,0.3,0.24915071219674337,0.007414711224469377,0.0,0.0
100.0,9.0,0.7,0.24915071219674337,0.007414711224469377,0.0,0.0
100.0,9.0,1.0,0.24915071219674337,0.007414711224469377,0.0,0.0
100.0,17.0,0.1,0.24060717108165178,0.006975592721243786,0.0,0.0
100.0,17.0,0.3,0.24060717108165178,0.006975592721243786,0.0,0.0
100.0,17.0,0.7,0.24060717108165178,0.006975592721243786,0.0,0.0
100.0,17.0,1.0,0.24060717108165178,0.006975592721243786,0.0,0.0
100.0,25.0,0.1,0.23477184439036525,0.09936906747612162,0.0,0.0
100.0,25.0,0.3,0.23477184439036525,0.09936906747612162,0.0,0.0
100.0,25.0,0.7,0.23477184439036525,0.09936906747612162,0.0,0.0
100.0,25.0,1.0,0.23477184439036525,0.09936906747612162,0.0,0.0
100.0,33.0,0.1,0.22511922552967206,0.4187725984983777,0.0,0.0
100.0,33.0,0.3,0.22511922552967206,0.4187725984983777,0.0,0.0
100.0,33.0,0.7,0.22511922552967206,0.4187725984983777,0.0,0.0
100.0,33.0,1.0,0.22511922552967206,0.4187725984983777,0.0,0.0
100.0,41.0,0.1,0.2704456109585234,0.8075317885666913,0.0,0.0
100.0,41.0,0.3,0.2704456109585234,0.8075317885666913,0.0,0.0
100.0,41.0,0.7,0.2704456109585234,0.8075317885666913,0.0,0.0
100.0,41.0,1.0,0.2704456109585234,0.8075317885666913,0.0,0.0
100.0,49.0,0.1,0.4086844161942115,1.3087836555654453,0.0,0.0
100.0,49.0,0.3,0.4086844161942115,1.3087836555654453,0.0,0.0
100.0,49.0,0.7,0.4086844161942115,1.3087836555654453,0.0,0.0
100.0,49.0,1.0,0.4086844161942115,1.3087836555654453,0.0,0.0
100.0,57.0,0.1,0.5946340279148106,1.7695538003128861,0.0,0.0
100.0,57.0,0.3,0.5946340279148106,1.7695538003128861,0.0,0.0
100.0,57.0,0.7,0.5946340279148106,1.7695538003128861,0.0,0.0
100.0,57.0,1.0,0.5946340279148106,1.7695538003128861,0.0,0.0
100.0,65.0,0.1,0.975198132583862,2.3156900869516286,0.0,0.0
100.0,65.0,0.3,0.975198132583862,2.3156900869516286,0.0,0.0
100.0,65.0,0.7,0.975198132583862,2.3156900869516286,0.0,0.0
100.0,65.0,1.0,0.975198132583862,2.3156900869516286,0.0,0.0
100.0,73.0,0.1,1.4371406261039783,2.823724738123935,0.0,0.0
100.0,73.0,0.3,1.4371406261039783,2.823724738123935,0.0,0.0
100.0,73.0,0.7,1.4371406261039783,2.823724738123935,0.0,0.0
100.0,73.0,1.0,1.4371406261039783,2.823724738123935,0.0,0.0
100.0,81.0,0.1,1.8676411783540559,3.4173221062458,0.0,0.0
100.0,81.0,0.3,1.8676411783540559,3.4173221062458,0.0,0.0
100.0,81.0,0.7,1.8676411783540559,3.4173221062458,0.0,0.0
100.0,81.0,1.0,1.8676411783540559,3.4173221062458,0.0,0.0
100.0,89.0,0.1,2.4216359690958718,4.128829640235976,0.0,0.0
100.0,89.0,0.3,2.4216359690958718,4.128829640235976,0.0,0.0
100.0,89.0,0.7,2.4216359690958718,4.128829640235976,0.0,0.0
100.0,89.0,1.0,2.4216359690958718,4.128829640235976,0.0,0.0
100.0,97.0,0.1,3.020405468006925,4.746080577153789,0.0,0.0
100.0,97.0,0.3,3.020405468006925,4.746080577153789,0.0,0.0
100.0,97.0,0.7,3.020405468006925,4.746080577153789,0.0,0.0
100.0,97.0,1.0,3.020405468006925,4.746080577153789,0.0,0.0
100.0,105.0,0.1,2.841110451436441,5.209041768419393,0.0,0.0
100.0,105.0,0.3,2.841110451436441,5.209041768419393,0.0,0.0
100.0,105.0,0.7,2.841110451436441,5.209041768419393,0.0,0.0
100.0,105.0,1.0,2.841110451436441,5.209041768419393,0.0,0.0
100.0,113.0,0.1,2.8767749823740103,6.754275090253869,0.0,0.0
100.0,113.0,0.3,2.8767749823740103,6.754275090253869,0.0,0.0
100.0,113.0,0.7,2.8767749823740103,6.754275090253869,0.0,0.0
100.0,113.0,1.0,2.8767749823740103,6.754275090253869,0.0,0.0
100.0,121.0,0.1,2.9000640170990986,6.728910886934409,0.0,0.0
100.0,121.0,0.3,2.9000640170990986,6.728910886934409,0.0,0.0
100.0,121.0,0.7,2.9000640170990986,6.728910886934409,0.0,0.0
100.0,121.0,1.0,2.9000640170990986,6.728910886934409,0.0,0.0
100.0,127.0,0.1,2.911539554987054,6.759233575617371,0.0,0.0
100.0,127.0,0.3,2.911539554987054,6.759233575617371,0.0,0.0
100.0,127.0,0.7,2.911539554987054,6.759233575617371,0.0,0.0
100.0,127.0,1.0,2.911539554987054,6.759233575617371,0.0,0.0
101.0,1.0,0.1,0.5571534902727316,0.005806111068540986,0.0,0.0
101.0,1.0,0.3,0.5571534902727316,0.005806111068540986,0.0,0.0
101.0,1.0,0.7,0.5571534902727316,0.005806111068540986,0.0,0.0
101.0,1.0,1.0,0.5571534902727316,0.005806111068540986,0.0,0.0
101.0,9.0,0.1,0.3968214104294594,0.003458527154017204,0.0,0.0
101.0,9.0,0.3,0.3968214104294594,0.003458527154017204,0.0,0.0
101.0,9.0,0.7,0.3968214104294594,0.003458527154017204,0.0,0.0
101.0,9.0,1.0,0.3968214104294594,0.003458527154017204,0.0,0.0
101.0,17.0,0.1,0.3985475513924309,0.0046477159153767746,0.0,0.0
101.0,17.0,0.3,0.3985475513924309,0.0046477159153767746,0.0,0.0
101.0,17.0,0.7,0.3985475513924309,0.0046477159153767746,0.0,0.0
101.0,17.0,1.0,0.3985475513924309,0.0046477159153767746,0.0,0.0
101.0,25.0,0.1,0.39131167043061627,0.20330286783262566,0.0,0.0
101.0,25.0,0.3,0.39131167043061627,0.20330286783262566,0.0,0.0
101.0,25.0,0.7,0.39131167043061627,0.20330286783262566,0.0,0.0
101.0,25.0,1.0,0.39131167043061627,0.20330286783262566,0.0,0.0
101.0,33.0,0.1,0.4889524210960745,0.5679362462445816,0.0,0.0
101.0,33.0,0.3,0.4889524210960745,0.5679362462445816,0.0,0.0
101.0,33.0,0.7,0.4889524210960745,0.5679362462445816,0.0,0.0
101.0,33.0,1.0,0.4889524210960745,0.5679362462445816,0.0,0.0
101.0,41.0,0.1,0.5866220216823634,1.034206496911751,0.0,0.0
101.0,41.0,0.3,0.5866220216823634,1.034206496911751,0.0,0.0
101.0,41.0,0.7,0.5866220216823634,1.034206496911751,0.0,0.0
101.0,41.0,1.0,0.5866220216823634,1.034206496911751,0.0,0.0
101.0,49.0,0.1,0.7612405962208768,1.542323649586913,0.0,0.0
101.0,49.0,0.3,0.7612405962208768,1.542323649586913,0.0,0.0
101.0,49.0,0.7,0.7612405962208768,1.542323649586913,0.0,0.0
101.0,49.0,1.0,0.7612405962208768,1.542323649586913,0.0,0.0
101.0,57.0,0.1,0.9743667426731817,1.9710474800845457,0.0,0.0
101.0,57.0,0.3,0.9743667426731817,1.9710474800845457,0.0,0.0
101.0,57.0,0.7,0.9743667426731817,1.9710474800845457,0.0,0.0
101.0,57.0,1.0,0.9743667426731817,1.9710474800845457,0.0,0.0
101.0,65.0,0.1,1.2855045482660905,2.50355931742252,0.0,0.0
101.0,65.0,0.3,1.2855045482660905,2.50355931742252,0.0,0.0
101.0,65.0,0.7,1.2855045482660905,2.50355931742252,0.0,0.0
101.0,65.0,1.0,1.2855045482660905,2.50355931742252,0.0,0.0
101.0,73.0,0.1,1.6120175111187087,3.0204263055844285,0.0,0.0
101.0,73.0,0.3,1.6120175111187087,3.0204263055844285,0.0,0.0
101.0,73.0,0.7,1.6120175111187087,3.0204263055844285,0.0,0.0
101.0,73.0,1.0,1.6120175111187087,3.0204263055844285,0.0,0.0
101.0,81.0,0.1,1.9693685389148625,3.6106564554028373,0.0,0.0
101.0,81.0,0.3,1.9693685389148625,3.6106564554028373,0.0,0.0
101.0,81.0,0.7,1.9693685389148625,3.6106564554028373,0.0,0.0
101.0,81.0,1.0,1.9693685389148625,3.6106564554028373,0.0,0.0
101.0,89.0,0.1,2.3963088434781086,4.28875080701062,0.0,0.0
101.0,89.0,0.3,2.3963088434781086,4.28875080701062,0.0,0.0
101.0,89.0,0.7,2.3963088434781086,4.28875080701062,0.0,0.0
101.0,89.0,1.0,2.3963088434781086,4.28875080701062,0.0,0.0
101.0,97.0,0.1,2.7094512216502364,5.14213463764625,0.0,0.0
101.0,97.0,0.3,2.7094512216502364,5.14213463764625,0.0,0.0
101.0,97.0,0.7,2.7094512216502364,5.14213463764625,0.0,0.0
101.0,97.0,1.0,2.7094512216502364,5.14213463764625,0.0,0.0
101.0,105.0,0.1,3.0327650942090205,6.9398084234682695,0.0,0.0
101.0,105.0,0.3,3.0327650942090205,6.9398084234682695,0.0,0.0
101.0,105.0,0.7,3.0327650942090205,6.9398084234682695,0.0,0.0
101.0,105.0,1.0,3.0327650942090205,6.9398084234682695,0.0,0.0
101.0,113.0,0.1,3.0247857657792467,6.900491782363444,0.0,0.0
101.0,113.0,0.3,3.0247857657792467,6.900491782363444,0.0,0.0
101.0,113.0,0.7,3.0247857657792467,6.900491782363444,0.0,0.0
101.0,113.0,1.0,3.0247857657792467,6.900491782363444,0.0,0.0
101.0,121.0,0.1,3.0218891123791796,6.95641766174052,0.0,0.0
101.0,121.0,0.3,3.0218891123791796,6.95641766174052,0.0,0.0
101.0,121.0,0.7,3.0218891123791796,6.95641766174052,0.0,0.0
101.0,121.0,1.0,3.0218891123791796,6.95641766174052,0.0,0.0
101.0,127.0,0.1,3.016150074663346,6.971838452154269,0.0,0.0
101.0,127.0,0.3,3.016150074663346,6.971838452154269,0.0,0.0
101.0,127.0,0.7,3.016150074663346,6.971838452154269,0.0,0.0
101.0,127.0,1.0,3.016150074663346,6.971838452154269,0.0,0.0
102.0,1.0,0.1,0.2269079292663804,0.041909465665922414,0.0,0.0
102.0,1.0,0.3,0.2269079292663804,0.041909465665922414,0.0,0.0
102.0,1.0,0.7,0.2269079292663804,0.041909465665922414,0.0,0.0
102.0,1.0,1.0,0.2269079292663804,0.041909465665922414,0.0,0.0
102.0,9.0,0.1,0.23972939635690793,0.03476505869052676,0.0,0.0
102.0,9.0,0.3,0.23972939635690793,0.03476505869052676,0.0,0.0
102.0,9.0,0.7,0.23972939635690793,0.03476505869052676,0.0,0.0
102.0,9.0,1.0,0.23972939635690793,0.03476505869052676,0.0,0.0
102.0,17.0,0.1,0.23718661505678684,0.04079346415916163,0.0,0.0
102.0,17.0,0.3,0.23718661505678684,0.04079346415916163,0.0,0.0
102.0,17.0,0.7,0.23718661505678684,0.04079346415916163,0.0,0.0
102.0,17.0,1.0,0.23718661505678684,0.04079346415916163,0.0,0.0
102.0,25.0,0.1,0.22805140375967026,0.16909185205378652,0.0,0.0
102.0,25.0,0.3,0.22805140375967026,0.16909185205378652,0.0,0.0
102.0,25.0,0.7,0.22805140375967026,0.16909185205378652,0.0,0.0
102.0,25.0,1.0,0.22805140375967026,0.16909185205378652,0.0,0.0
102.0,33.0,0.1,0.21612231491337633,0.4196487036592989,0.0,0.0
102.0,33.0,0.3,0.21612231491337633,0.4196487036592989,0.0,0.0
102.0,33.0,0.7,0.21612231491337633,0.4196487036592989,0.0,0.0
102.0,33.0,1.0,0.21612231491337633,0.4196487036592989,0.0,0.0
102.0,41.0,0.1,0.2965075010300961,0.7369692106334034,0.0,0.0
102.0,41.0,0.3,0.2965075010300961,0.7369692106334034,0.0,0.0
102.0,41.0,0.7,0.2965075010300961,0.7369692106334034,0.0,0.0
102.0,41.0,1.0,0.2965075010300961,0.7369692106334034,0.0,0.0
102.0,49.0,0.1,0.4536656715428875,1.148088053940146,0.0,0.0
102.0,49.0,0.3,0.4536656715428875,1.148088053940146,0.0,0.0
102.0,49.0,0.7,0.4536656715428875,1.148088053940146,0.0,0.0
102.0,49.0,1.0,0.4536656715428875,1.148088053940146,0.0,0.0
102.0,57.0,0.1,0.6552770277696357,1.5229282465806901,0.0,0.0
102.0,57.0,0.3,0.6552770277696357,1.5229282465806901,0.0,0.0
102.0,57.0,0.7,0.6552770277696357,1.5229282465806901,0.0,0.0
102.0,57.0,1.0,0.6552770277696357,1.5229282465806901,0.0,0.0
102.0,65.0,0.1,0.9410097176977823,2.0246203234720976,0.0,0.0
102.0,65.0,0.3,0.9410097176977823,2.0246203234720976,0.0,0.0
102.0,65.0,0.7,0.9410097176977823,2.0246203234720976,0.0,0.0
102.0,65.0,1.0,0.9410097176977823,2.0246203234720976,0.0,0.0
102.0,73.0,0.1,1.2251260211765012,2.57559195891779,0.0,0.0
102.0,73.0,0.3,1.2251260211765012,2.57559195891779,0.0,0.0
102.0,73.0,0.7,1.2251260211765012,2.57559195891779,0.0,0.0
102.0,73.0,1.0,1.2251260211765012,2.57559195891779,0.0,0.0
102.0,81.0,0.1,1.6326217100795795,3.1572076274589027,0.0,0.0
102.0,81.0,0.3,1.6326217100795795,3.1572076274589027,0.0,0.0
102.0,81.0,0.7,1.6326217100795795,3.1572076274589027,0.0,0.0
102.0,81.0,1.0,1.6326217100795795,3.1572076274589027,0.0,0.0
102.0,89.0,0.1,1.9322861635408692,3.707409663926764,0.0,0.0
102.0,89.0,0.3,1.9322861635408692,3.707409663926764,0.0,0.0
102.0,89.0,0.7,1.9322861635408692,3.707409663926764,0.0,0.0
102.0,89.0,1.0,1.9322861635408692,3.707409663926764,0.0,0.0
102.0,97.0,0.1,2.346863941511262,4.42434185732677,0.0,0.0
102.0,97.0,0.3,2.346863941511262,4.42434185732677,0.0,0.0
102.0,97.0,0.7,2.346863941511262,4.42434185732677,0.0,0.0
102.0,97.0,1.0,2.346863941511262,4.42434185732677,0.0,0.0
102.0,105.0,0.1,2.284769864458061,5.902350657240451,0.0,0.0
102.0,105.0,0.3,2.284769864458061,5.902350657240451,0.0,0.0
102.0,105.0,0.7,2.284769864458061,5.902350657240451,0.0,0.0
102.0,105.0,1.0,2.284769864458061,5.902350657240451,0.0,0.0
102.0,113.0,0.1,2.322078470368657,6.275718533552477,0.0,0.0
102.0,113.0,0.3,2.322078470368657,6.275718533552477,0.0,0.0
102.0,113.0,0.7,2.322078470368657,6.275718533552477,0.0,0.0
102.0,113.0,1.0,2.322078470368657,6.275718533552477,0.0,0.0
102.0,121.0,0.1,2.3427006211386248,6.32220897169361,0.0,0.0
102.0,121.0,0.3,2.3427006211386248,6.32220897169361,0.0,0.0
102.0,121.0,0.7,2.3427006211386248,6.32220897169361,0.0,0.0
102.0,121.0,1.0,2.3427006211386248,6.32220897169361,0.0,0.0
102.0,127.0,0.1,2.356792598300994,6.325353994193043,0.0,0.0
102.0,127.0,0.3,2.356792598300994,6.325353994193043,0.0,0.0
102.0,127.0,0.7,2.356792598300994,6.325353994193043,0.0,0.0
102.0,127.0,1.0,2.356792598300994,6.325353994193043,0.0,0.0
103.0,1.0,0.1,0.6305678780969316,0.055133485476471886,0.0,0.0
103.0,1.0,0.3,0.6305678780969316,0.055133485476471886,0.0,0.0
103.0,1.0,0.7,0.6305678780969316,0.055133485476471886,0.0,0.0
103.0,1.0,1.0,0.6305678780969316,0.055133485476471886,0.0,0.0
103.0,9.0,0.1,0.37810213914945734,0.07773644158066667,0.0,0.0
103.0,9.0,0.3,0.37810213914945734,0.07773644158066667,0.0,0.0
103.0,9.0,0.7,0.37810213914945734,0.07773644158066667,0.0,0.0
103.0,9.0,1.0,0.37810213914945734,0.07773644158066667,0.0,0.0
103.0,17.0,0.1,0.3807477678545641,0.0736440210233178,0.0,0.0
103.0,17.0,0.3,0.3807477678545641,0.0736440210233178,0.0,0.0
103.0,17.0,0.7,0.3807477678545641,0.0736440210233178,0.0,0.0
103.0,17.0,1.0,0.3807477678545641,0.0736440210233178,0.0,0.0
103.0,25.0,0.1,0.3758592236749425,0.29280221147222063,0.0,0.0
103.0,25.0,0.3,0.3758592236749425,0.29280221147222063,0.0,0.0
103.0,25.0,0.7,0.3758592236749425,0.29280221147222063,0.0,0.0
103.0,25.0,1.0,0.3758592236749425,0.29280221147222063,0.0,0.0
103.0,33.0,0.1,0.3665355931514581,0.5852934844253911,0.0,0.0
103.0,33.0,0.3,0.3665355931514581,0.5852934844253911,0.0,0.0
103.0,33.0,0.7,0.3665355931514581,0.5852934844253911,0.0,0.0
103.0,33.0,1.0,0.3665355931514581,0.5852934844253911,0.0,0.0
103.0,41.0,0.1,0.46181379282811796,1.024043051505132,0.0,0.0
103.0,41.0,0.3,0.46181379282811796,1.024043051505132,0.0,0.0
103.0,41.0,0.7,0.46181379282811796,1.024043051505132,0.0,0.0
103.0,41.0,1.0,0.46181379282811796,1.024043051505132,0.0,0.0
103.0,49.0,0.1,0.6360892893595862,1.4502563688322354,0.0,0.0
103.0,49.0,0.3,0.6360892893595862,1.4502563688322354,0.0,0.0
103.0,49.0,0.7,0.6360892893595862,1.4502563688322354,0.0,0.0
103.0,49.0,1.0,0.6360892893595862,1.4502563688322354,0.0,0.0
103.0,57.0,0.1,0.87904558352381,1.9169691415358272,0.0,0.0
103.0,57.0,0.3,0.87904558352381,1.9169691415358272,0.0,0.0
103.0,57.0,0.7,0.87904558352381,1.9169691415358272,0.0,0.0
103.0,57.0,1.0,0.87904558352381,1.9169691415358272,0.0,0.0
103.0,65.0,0.1,1.2500619122475176,2.0325181546478834,0.0,0.0
103.0,65.0,0.3,1.2500619122475176,2.0325181546478834,0.0,0.0
103.0,65.0,0.7,1.2500619122475176,2.0325181546478834,0.0,0.0
103.0,65.0,1.0,1.2500619122475176,2.0325181546478834,0.0,0.0
103.0,73.0,0.1,1.5730167067479586,2.4129489578108894,0.0,0.0
103.0,73.0,0.3,1.5730167067479586,2.4129489578108894,0.0,0.0
103.0,73.0,0.7,1.5730167067479586,2.4129489578108894,0.0,0.0
103.0,73.0,1.0,1.5730167067479586,2.4129489578108894,0.0,0.0
103.0,81.0,0.1,2.116446679849134,2.921395991457516,0.0,0.0
103.0,81.0,0.3,2.116446679849134,2.921395991457516,0.0,0.0
103.0,81.0,0.7,2.116446679849134,2.921395991457516,0.0,0.0
103.0,81.0,1.0,2.116446679849134,2.921395991457516,0.0,0.0
103.0,89.0,0.1,2.489280979825311,3.617538772329715,0.0,0.0
103.0,89.0,0.3,2.489280979825311,3.617538772329715,0.0,0.0
103.0,89.0,0.7,2.489280979825311,3.617538772329715,0.0,0.0
103.0,89.0,1.0,2.489280979825311,3.617538772329715,0.0,0.0
103.0,97.0,0.1,2.8132579838493825,4.324103200563245,0.0,0.0
103.0,97.0,0.3,2.8132579838493825,4.324103200563245,0.0,0.0
103.0,97.0,0.7,2.8132579838493825,4.324103200563245,0.0,0.0
103.0,97.0,1.0,2.8132579838493825,4.324103200563245,0.0,0.0
103.0,105.0,0.1,3.1156705845948762,5.304162907225722,0.0,0.0
103.0,105.0,0.3,3.1156705845948762,5.304162907225722,0.0,0.0
103.0,105.0,0.7,3.1156705845948762,5.304162907225722,0.0,0.0
103.0,105.0,1.0,3.1156705845948762,5.304162907225722,0.0,0.0
103.0,113.0,0.1,3.1178586989697896,5.924192347062323,0.0,0.0
103.0,113.0,0.3,3.1178586989697896,5.924192347062323,0.0,0.0
103.0,113.0,0.7,3.1178586989697896,5.924192347062323,0.0,0.0
103.0,113.0,1.0,3.1178586989697896,5.924192347062323,0.0,0.0
103.0,121.0,0.1,3.1067147846751473,5.961535824170299,0.0,0.0
103.0,121.0,0.3,3.1067147846751473,5.961535824170299,0.0,0.0
103.0,121.0,0.7,3.1067147846751473,5.961535824170299,0.0,0.0
103.0,121.0,1.0,3.1067147846751473,5.961535824170299,0.0,0.0
103.0,127.0,0.1,3.109934218644042,5.970426837548509,0.0,0.0
103.0,127.0,0.3,3.109934218644042,5.970426837548509,0.0,0.0
103.0,127.0,0.7,3.109934218644042,5.970426837548509,0.0,0.0
103.0,127.0,1.0,3.109934218644042,5.970426837548509,0.0,0.0
104.0,1.0,0.1,0.27520659897713645,0.02938143386794515,0.0,0.0
104.0,1.0,0.3,0.27520659897713645,0.02938143386794515,0.0,0.0
104.0,1.0,0.7,0.27520659897713645,0.02938143386794515,0.0,0.0
104.0,1.0,1.0,0.27520659897713645,0.02938143386794515,0.0,0.0
104.0,9.0,0.1,0.31104702978993304,0.04088680090082007,0.0,0.0
104.0,9.0,0.3,0.31104702978993304,0.04088680090082007,0.0,0.0
104.0,9.0,0.7,0.31104702978993304,0.04088680090082007,0.0,0.0
104.0,9.0,1.0,0.31104702978993304,0.04088680090082007,0.0,0.0
104.0,17.0,0.1,0.3142666383425895,0.03747445529606122,0.0,0.0
104.0,17.0,0.3,0.3142666383425895,0.03747445529606122,0.0,0.0
104.0,17.0,0.7,0.3142666383425895,0.03747445529606122,0.0,0.0
104.0,17.0,1.0,0.3142666383425895,0.03747445529606122,0.0,0.0
104.0,25.0,0.1,0.3110658131569347,0.22588572577528052,0.0,0.0
104.0,25.0,0.3,0.3110658131569347,0.22588572577528052,0.0,0.0
104.0,25.0,0.7,0.3110658131569347,0.22588572577528052,0.0,0.0
104.0,25.0,1.0,0.3110658131569347,0.22588572577528052,0.0,0.0
104.0,33.0,0.1,0.3049358925617388,0.38032023385536856,0.0,0.0
104.0,33.0,0.3,0.3049358925617388,0.38032023385536856,0.0,0.0
104.0,33.0,0.7,0.3049358925617388,0.38032023385536856,0.0,0.0
104.0,33.0,1.0,0.3049358925617388,0.38032023385536856,0.0,0.0
104.0,41.0,0.1,0.3879264039331428,0.7590056278906139,0.0,0.0
104.0,41.0,0.3,0.3879264039331428,0.7590056278906139,0.0,0.0
104.0,41.0,0.7,0.3879264039331428,0.7590056278906139,0.0,0.0
104.0,41.0,1.0,0.3879264039331428,0.7590056278906139,0.0,0.0
104.0,49.0,0.1,0.5298980826280335,1.2173573888079916,0.0,0.0
104.0,49.0,0.3,0.5298980826280335,1.2173573888079916,0.0,0.0
104.0,49.0,0.7,0.5298980826280335,1.2173573888079916,0.0,0.0
104.0,49.0,1.0,0.5298980826280335,1.2173573888079916,0.0,0.0
104.0,57.0,0.1,0.7175787823800986,1.492703880332107,0.0,0.0
104.0,57.0,0.3,0.7175787823800986,1.492703880332107,0.0,0.0
104.0,57.0,0.7,0.7175787823800986,1.492703880332107,0.0,0.0
104.0,57.0,1.0,0.7175787823800986,1.492703880332107,0.0,0.0
104.0,65.0,0.1,0.9612227620557057,1.8765512313864021,0.0,0.0
104.0,65.0,0.3,0.9612227620557057,1.8765512313864021,0.0,0.0
104.0,65.0,0.7,0.9612227620557057,1.8765512313864021,0.0,0.0
104.0,65.0,1.0,0.9612227620557057,1.8765512313864021,0.0,0.0
104.0,73.0,0.1,1.2523718671796313,2.270765940930144,0.0,0.0
104.0,73.0,0.3,1.2523718671796313,2.270765940930144,0.0,0.0
104.0,73.0,0.7,1.2523718671796313,2.270765940930144,0.0,0.0
104.0,73.0,1.0,1.2523718671796313,2.270765940930144,0.0,0.0
104.0,81.0,0.1,1.5487105933107455,2.759159871497372,0.0,0.0
104.0,81.0,0.3,1.5487105933107455,2.759159871497372,0.0,0.0
104.0,81.0,0.7,1.5487105933107455,2.759159871497372,0.0,0.0
104.0,81.0,1.0,1.5487105933107455,2.759159871497372,0.0,0.0
104.0,89.0,0.1,1.9176222919915134,3.3800963254885024,0.0,0.0
104.0,89.0,0.3,1.9176222919915134,3.3800963254885024,0.0,0.0
104.0,89.0,0.7,1.9176222919915134,3.3800963254885024,0.0,0.0
104.0,89.0,1.0,1.9176222919915134,3.3800963254885024,0.0,0.0
104.0,97.0,0.1,2.1974152316818936,4.111963366757078,0.0,0.0
104.0,97.0,0.3,2.1974152316818936,4.111963366757078,0.0,0.0
104.0,97.0,0.7,2.1974152316818936,4.111963366757078,0.0,0.0
104.0,97.0,1.0,2.1974152316818936,4.111963366757078,0.0,0.0
104.0,105.0,0.1,2.4997345610246327,4.910592752758651,0.0,0.0
104.0,105.0,0.3,2.4997345610246327,4.910592752758651,0.0,0.0
104.0,105.0,0.7,2.4997345610246327,4.910592752758651,0.0,0.0
104.0,105.0,1.0,2.4997345610246327,4.910592752758651,0.0,0.0
104.0,113.0,0.1,2.480153830063001,5.577358254730485,0.0,0.0
104.0,113.0,0.3,2.480153830063001,5.577358254730485,0.0,0.0
104.0,113.0,0.7,2.480153830063001,5.577358254730485,0.0,0.0
104.0,113.0,1.0,2.480153830063001,5.577358254730485,0.0,0.0
104.0,121.0,0.1,2.472833889929313,5.703185925714992,0.0,0.0
104.0,121.0,0.3,2.472833889929313,5.703185925714992,0.0,0.0
104.0,121.0,0.7,2.472833889929313,5.703185925714992,0.0,0.0
104.0,121.0,1.0,2.472833889929313,5.703185925714992,0.0,0.0
104.0,127.0,0.1,2.4630051448092862,5.7822380490149765,0.0,0.0
104.0,127.0,0.3,2.4630051448092862,5.7822380490149765,0.0,0.0
104.0,127.0,0.7,2.4630051448092862,5.7822380490149765,0.0,0.0
104.0,127.0,1.0,2.4630051448092862,5.7822380490149765,0.0,0.0
105.0,1.0,0.1,0.321822751370828,0.11119577884367653,0.0,0.0
105.0,1.0,0.3,0.321822751370828,0.11119577884367653,0.0,0.0
105.0,1.0,0.7,0.321822751370828,0.11119577884367653,0.0,0.0
105.0,1.0,1.0,0.321822751370828,0.11119577884367653,0.0,0.0
105.0,9.0,0.1,0.28367066068957536,0.12247025174651024,0.0,0.0
105.0,9.0,0.3,0.28367066068957536,0.12247025174651024,0.0,0.0
105.0,9.0,0.7,0.28367066068957536,0.12247025174651024,0.0,0.0
105.0,9.0,1.0,0.28367066068957536,0.12247025174651024,0.0,0.0
105.0,17.0,0.1,0.28145354142174805,0.12330477195232055,0.0,0.0
105.0,17.0,0.3,0.28145354142174805,0.12330477195232055,0.0,0.0
105.0,17.0,0.7,0.28145354142174805,0.12330477195232055,0.0,0.0
105.0,17.0,1.0,0.28145354142174805,0.12330477195232055,0.0,0.0
105.0,25.0,0.1,0.2823385380749933,0.30488773048031564,0.0,0.0
105.0,25.0,0.3,0.2823385380749933,0.30488773048031564,0.0,0.0
105.0,25.0,0.7,0.2823385380749933,0.30488773048031564,0.0,0.0
105.0,25.0,1.0,0.2823385380749933,0.30488773048031564,0.0,0.0
105.0,33.0,0.1,0.273116675356284,0.49579491432808015,0.0,0.0
105.0,33.0,0.3,0.273116675356284,0.49579491432808015,0.0,0.0
105.0,33.0,0.7,0.273116675356284,0.49579491432808015,0.0,0.0
105.0,33.0,1.0,0.273116675356284,0.49579491432808015,0.0,0.0
105.0,41.0,0.1,0.4180081096615467,0.7264743681533508,0.0,0.0
105.0,41.0,0.3,0.4180081096615467,0.7264743681533508,0.0,0.0
105.0,41.0,0.7,0.4180081096615467,0.7264743681533508,0.0,0.0
105.0,41.0,1.0,0.4180081096615467,0.7264743681533508,0.0,0.0
105.0,49.0,0.1,0.5502015874881536,1.1433013806911765,0.0,0.0
105.0,49.0,0.3,0.5502015874881536,1.1433013806911765,0.0,0.0
105.0,49.0,0.7,0.5502015874881536,1.1433013806911765,0.0,0.0
105.0,49.0,1.0,0.5502015874881536,1.1433013806911765,0.0,0.0
105.0,57.0,0.1,0.7271013751208167,1.5533403934744843,0.0,0.0
105.0,57.0,0.3,0.7271013751208167,1.5533403934744843,0.0,0.0
105.0,57.0,0.7,0.7271013751208167,1.5533403934744843,0.0,0.0
105.0,57.0,1.0,0.7271013751208167,1.5533403934744843,0.0,0.0
105.0,65.0,0.1,0.9811487303863664,1.922908013253805,0.0,0.0
105.0,65.0,0.3,0.9811487303863664,1.922908013253805,0.0,0.0
105.0,65.0,0.7,0.9811487303863664,1.922908013253805,0.0,0.0
105.0,65.0,1.0,0.9811487303863664,1.922908013253805,0.0,0.0
105.0,73.0,0.1,1.2902201251524952,2.2996330892856935,0.0,0.0
105.0,73.0,0.3,1.2902201251524952,2.2996330892856935,0.0,0.0
105.0,73.0,0.7,1.2902201251524952,2.2996330892856935,0.0,0.0
105.0,73.0,1.0,1.2902201251524952,2.2996330892856935,0.0,0.0
105.0,81.0,0.1,1.6717057449735415,2.795041297321546,0.0,0.0
105.0,81.0,0.3,1.6717057449735415,2.795041297321546,0.0,0.0
105.0,81.0,0.7,1.6717057449735415,2.795041297321546,0.0,0.0
105.0,81.0,1.0,1.6717057449735415,2.795041297321546,0.0,0.0
105.0,89.0,0.1,1.988959854555682,3.3433693655574057,0.0,0.0
105.0,89.0,0.3,1.988959854555682,3.3433693655574057,0.0,0.0
105.0,89.0,0.7,1.988959854555682,3.3433693655574057,0.0,0.0
105.0,89.0,1.0,1.988959854555682,3.3433693655574057,0.0,0.0
105.0,97.0,0.1,2.2817264978606753,3.902720000272343,0.0,0.0
105.0,97.0,0.3,2.2817264978606753,3.902720000272343,0.0,0.0
105.0,97.0,0.7,2.2817264978606753,3.902720000272343,0.0,0.0
105.0,97.0,1.0,2.2817264978606753,3.902720000272343,0.0,0.0
105.0,105.0,0.1,2.536890172459793,4.403169479905326,0.0,0.0
105.0,105.0,0.3,2.536890172459793,4.403169479905326,0.0,0.0
105.0,105.0,0.7,2.536890172459793,4.403169479905326,0.0,0.0
105.0,105.0,1.0,2.536890172459793,4.403169479905326,0.0,0.0
105.0,113.0,0.1,2.5272052948183,5.741260005151806,0.0,0.0
105.0,113.0,0.3,2.5272052948183,5.741260005151806,0.0,0.0
105.0,113.0,0.7,2.5272052948183,5.741260005151806,0.0,0.0
105.0,113.0,1.0,2.5272052948183,5.741260005151806,0.0,0.0
105.0,121.0,0.1,2.4982749276473317,5.7690619365582565,0.0,0.0
105.0,121.0,0.3,2.4982749276473317,5.7690619365582565,0.0,0.0
105.0,121.0,0.7,2.4982749276473317,5.7690619365582565,0.0,0.0
105.0,121.0,1.0,2.4982749276473317,5.7690619365582565,0.0,0.0
105.0,127.0,0.1,2.503764070521719,5.783723155371399,0.0,0.0
105.0,127.0,0.3,2.503764070521719,5.783723155371399,0.0,0.0
105.0,127.0,0.7,2.503764070521719,5.783723155371399,0.0,0.0
105.0,127.0,1.0,2.503764070521719,5.783723155371399,0.0,0.0
106.0,1.0,0.1,0.31546422597199386,0.04707722553105009,0.0,0.0
106.0,1.0,0.3,0.31546422597199386,0.04707722553105009,0.0,0.0
106.0,1.0,0.7,0.31546422597199386,0.04707722553105009,0.0,0.0
106.0,1.0,1.0,0.31546422597199386,0.04707722553105009,0.0,0.0
106.0,9.0,0.1,0.3241338994591137,0.06023258978793271,0.0,0.0
106.0,9.0,0.3,0.3241338994591137,0.06023258978793271,0.0,0.0
106.0,9.0,0.7,0.3241338994591137,0.06023258978793271,0.0,0.0
106.0,9.0,1.0,0.3241338994591137,0.06023258978793271,0.0,0.0
106.0,17.0,0.1,0.32647992981685503,0.0625303802589788,0.0,0.0
106.0,17.0,0.3,0.32647992981685503,0.0625303802589788,0.0,0.0
106.0,17.0,0.7,0.32647992981685503,0.0625303802589788,0.0,0.0
106.0,17.0,1.0,0.32647992981685503,0.0625303802589788,0.0,0.0
106.0,25.0,0.1,0.32709850139008173,0.09980176979331722,0.0,0.0
106.0,25.0,0.3,0.32709850139008173,0.09980176979331722,0.0,0.0
106.0,25.0,0.7,0.32709850139008173,0.09980176979331722,0.0,0.0
106.0,25.0,1.0,0.32709850139008173,0.09980176979331722,0.0,0.0
106.0,33.0,0.1,0.33245107719133915,0.3926349273800849,0.0,0.0
106.0,33.0,0.3,0.33245107719133915,0.3926349273800849,0.0,0.0
106.0,33.0,0.7,0.33245107719133915,0.3926349273800849,0.0,0.0
106.0,33.0,1.0,0.33245107719133915,0.3926349273800849,0.0,0.0
106.0,41.0,0.1,0.4189111179617058,0.8127036230458697,0.0,0.0
106.0,41.0,0.3,0.4189111179617058,0.8127036230458697,0.0,0.0
106.0,41.0,0.7,0.4189111179617058,0.8127036230458697,0.0,0.0
106.0,41.0,1.0,0.4189111179617058,0.8127036230458697,0.0,0.0
106.0,49.0,0.1,0.6182127630989711,1.191927883295678,0.0,0.0
106.0,49.0,0.3,0.6182127630989711,1.191927883295678,0.0,0.0
106.0,49.0,0.7,0.6182127630989711,1.191927883295678,0.0,0.0
106.0,49.0,1.0,0.6182127630989711,1.191927883295678,0.0,0.0
106.0,57.0,0.1,0.7697726221082652,1.7507832249447337,0.0,0.0
106.0,57.0,0.3,0.7697726221082652,1.7507832249447337,0.0,0.0
106.0,57.0,0.7,0.7697726221082652,1.7507832249447337,0.0,0.0
106.0,57.0,1.0,0.7697726221082652,1.7507832249447337,0.0,0.0
106.0,65.0,0.1,1.0470296722766423,2.2987991694366516,0.0,0.0
106.0,65.0,0.3,1.0470296722766423,2.2987991694366516,0.0,0.0
106.0,65.0,0.7,1.0470296722766423,2.2987991694366516,0.0,0.0
106.0,65.0,1.0,1.0470296722766423,2.2987991694366516,0.0,0.0
106.0,73.0,0.1,1.3956904341641148,2.542125459402367,0.0,0.0
106.0,73.0,0.3,1.3956904341641148,2.542125459402367,0.0,0.0
106.0,73.0,0.7,1.3956904341641148,2.542125459402367,0.0,0.0
106.0,73.0,1.0,1.3956904341641148,2.542125459402367,0.0,0.0
106.0,81.0,0.1,1.598208614570919,2.794723093317531,0.0,0.0
106.0,81.0,0.3,1.598208614570919,2.794723093317531,0.0,0.0
106.0,81.0,0.7,1.598208614570919,2.794723093317531,0.0,0.0
106.0,81.0,1.0,1.598208614570919,2.794723093317531,0.0,0.0
106.0,89.0,0.1,2.097535470994884,3.3526608480474622,0.0,0.0
106.0,89.0,0.3,2.097535470994884,3.3526608480474622,0.0,0.0
106.0,89.0,0.7,2.097535470994884,3.3526608480474622,0.0,0.0
106.0,89.0,1.0,2.097535470994884,3.3526608480474622,0.0,0.0
106.0,97.0,0.1,2.3738065009422624,4.09075777596005,0.0,0.0
106.0,97.0,0.3,2.3738065009422624,4.09075777596005,0.0,0.0
106.0,97.0,0.7,2.3738065009422624,4.09075777596005,0.0,0.0
106.0,97.0,1.0,2.3738065009422624,4.09075777596005,0.0,0.0
106.0,105.0,0.1,2.6227211901303478,4.609057480275755,0.0,0.0
106.0,105.0,0.3,2.6227211901303478,4.609057480275755,0.0,0.0
106.0,105.0,0.7,2.6227211901303478,4.609057480275755,0.0,0.0
106.0,105.0,1.0,2.6227211901303478,4.609057480275755,0.0,0.0
106.0,113.0,0.1,2.598861122194681,5.70440318687816,0.0,0.0
106.0,113.0,0.3,2.598861122194681,5.70440318687816,0.0,0.0
106.0,113.0,0.7,2.598861122194681,5.70440318687816,0.0,0.0
106.0,113.0,1.0,2.598861122194681,5.70440318687816,0.0,0.0
106.0,121.0,0.1,2.625183750100805,5.64137958623673,0.0,0.0
106.0,121.0,0.3,2.625183750100805,5.64137958623673,0.0,0.0
106.0,121.0,0.7,2.625183750100805,5.64137958623673,0.0,0.0
106.0,121.0,1.0,2.625183750100805,5.64137958623673,0.0,0.0
106.0,127.0,0.1,2.6076781445193,5.8395122888033875,0.0,0.0
106.0,127.0,0.3,2.6076781445193,5.8395122888033875,0.0,0.0
106.0,127.0,0.7,2.6076781445193,5.8395122888033875,0.0,0.0
106.0,127.0,1.0,2.6076781445193,5.8395122888033875,0.0,0.0
107.0,1.0,0.1,0.3471780381682985,0.07255479727797053,0.0,0.0
107.0,1.0,0.3,0.3471780381682985,0.07255479727797053,0.0,0.0
107.0,1.0,0.7,0.3471780381682985,0.07255479727797053,0.0,0.0
107.0,1.0,1.0,0.3471780381682985,0.07255479727797053,0.0,0.0
107.0,9.0,0.1,0.2702605206927156,0.07630055623345736,0.0,0.0
107.0,9.0,0.3,0.2702605206927156,0.07630055623345736,0.0,0.0
107.0,9.0,0.7,0.2702605206927156,0.07630055623345736,0.0,0.0
107.0,9.0,1.0,0.2702605206927156,0.07630055623345736,0.0,0.0
107.0,17.0,0.1,0.2689414919878636,0.08103047807153897,0.0,0.0
107.0,17.0,0.3,0.2689414919878636,0.08103047807153897,0.0,0.0
107.0,17.0,0.7,0.2689414919878636,0.08103047807153897,0.0,0.0
107.0,17.0,1.0,0.2689414919878636,0.08103047807153897,0.0,0.0
107.0,25.0,0.1,0.26373772962264846,0.18799849674543795,0.0,0.0
107.0,25.0,0.3,0.26373772962264846,0.18799849674543795,0.0,0.0
107.0,25.0,0.7,0.26373772962264846,0.18799849674543795,0.0,0.0
107.0,25.0,1.0,0.26373772962264846,0.18799849674543795,0.0,0.0
107.0,33.0,0.1,0.25345111224446015,0.48676828758610846,0.0,0.0
107.0,33.0,0.3,0.25345111224446015,0.48676828758610846,0.0,0.0
107.0,33.0,0.7,0.25345111224446015,0.48676828758610846,0.0,0.0
107.0,33.0,1.0,0.25345111224446015,0.48676828758610846,0.0,0.0
107.0,41.0,0.1,0.3250311090606837,0.9170115582289793,0.0,0.0
107.0,41.0,0.3,0.3250311090606837,0.9170115582289793,0.0,0.0
107.0,41.0,0.7,0.3250311090606837,0.9170115582289793,0.0,0.0
107.0,41.0,1.0,0.3250311090606837,0.9170115582289793,0.0,0.0
107.0,49.0,0.1,0.5838531332237707,1.412655365011916,0.0,0.0
107.0,49.0,0.3,0.5838531332237707,1.412655365011916,0.0,0.0
107.0,49.0,0.7,0.5838531332237707,1.412655365011916,0.0,0.0
107.0,49.0,1.0,0.5838531332237707,1.412655365011916,0.0,0.0
107.0,57.0,0.1,0.7468994908807476,1.8141729998358074,0.0,0.0
107.0,57.0,0.3,0.7468994908807476,1.8141729998358074,0.0,0.0
107.0,57.0,0.7,0.7468994908807476,1.8141729998358074,0.0,0.0
107.0,57.0,1.0,0.7468994908807476,1.8141729998358074,0.0,0.0
107.0,65.0,0.1,1.1017810110990693,2.1848457335697176,0.0,0.0
107.0,65.0,0.3,1.1017810110990693,2.1848457335697176,0.0,0.0
107.0,65.0,0.7,1.1017810110990693,2.1848457335697176,0.0,0.0
107.0,65.0,1.0,1.1017810110990693,2.1848457335697176,0.0,0.0
107.0,73.0,0.1,1.4703043895455077,2.185079090119145,0.0,0.0
107.0,73.0,0.3,1.4703043895455077,2.185079090119145,0.0,0.0
107.0,73.0,0.7,1.4703043895455077,2.185079090119145,0.0,0.0
107.0,73.0,1.0,1.4703043895455077,2.185079090119145,0.0,0.0
107.0,81.0,0.1,1.8807983257484062,2.676169609551353,0.0,0.0
107.0,81.0,0.3,1.8807983257484062,2.676169609551353,0.0,0.0
107.0,81.0,0.7,1.8807983257484062,2.676169609551353,0.0,0.0
107.0,81.0,1.0,1.8807983257484062,2.676169609551353,0.0,0.0
107.0,89.0,0.1,2.263238539178631,3.4131448966618794,0.0,0.0
107.0,89.0,0.3,2.263238539178631,3.4131448966618794,0.0,0.0
107.0,89.0,0.7,2.263238539178631,3.4131448966618794,0.0,0.0
107.0,89.0,1.0,2.263238539178631,3.4131448966618794,0.0,0.0
107.0,97.0,0.1,2.668015840577574,4.128323356225084,0.0,0.0
107.0,97.0,0.3,2.668015840577574,4.128323356225084,0.0,0.0
107.0,97.0,0.7,2.668015840577574,4.128323356225084,0.0,0.0
107.0,97.0,1.0,2.668015840577574,4.128323356225084,0.0,0.0
107.0,105.0,0.1,2.9333010683039724,5.016515160659794,0.0,0.0
107.0,105.0,0.3,2.9333010683039724,5.016515160659794,0.0,0.0
107.0,105.0,0.7,2.9333010683039724,5.016515160659794,0.0,0.0
107.0,105.0,1.0,2.9333010683039724,5.016515160659794,0.0,0.0
107.0,113.0,0.1,2.9065439601194476,5.525453364960555,0.0,0.0
107.0,113.0,0.3,2.9065439601194476,5.525453364960555,0.0,0.0
107.0,113.0,0.7,2.9065439601194476,5.525453364960555,0.0,0.0
107.0,113.0,1.0,2.9065439601194476,5.525453364960555,0.0,0.0
107.0,121.0,0.1,2.873220651891263,5.732920910598491,0.0,0.0
107.0,121.0,0.3,2.873220651891263,5.732920910598491,0.0,0.0
107.0,121.0,0.7,2.873220651891263,5.732920910598491,0.0,0.0
107.0,121.0,1.0,2.873220651891263,5.732920910598491,0.0,0.0
107.0,127.0,0.1,2.869090109500317,5.786289170797672,0.0,0.0
107.0,127.0,0.3,2.869090109500317,5.786289170797672,0.0,0.0
107.0,127.0,0.7,2.869090109500317,5.786289170797672,0.0,0.0
107.0,127.0,1.0,2.869090109500317,5.786289170797672,0.0,0.0
108.0,1.0,0.1,0.4268240593342608,0.035111503013114574,0.0,0.0
108.0,1.0,0.3,0.4268240593342608,0.035111503013114574,0.0,0.0
108.0,1.0,0.7,0.4268240593342608,0.035111503013114574,0.0,0.0
108.0,1.0,1.0,0.4268240593342608,0.035111503013114574,0.0,0.0
108.0,9.0,0.1,0.3306425637724252,0.041808422889171644,0.0,0.0
108.0,9.0,0.3,0.3306425637724252,0.041808422889171644,0.0,0.0
108.0,9.0,0.7,0.3306425637724252,0.041808422889171644,0.0,0.0
108.0,9.0,1.0,0.3306425637724252,0.041808422889171644,0.0,0.0
108.0,17.0,0.1,0.32457566514696107,0.03537519332566711,0.0,0.0
108.0,17.0,0.3,0.32457566514696107,0.03537519332566711,0.0,0.0
108.0,17.0,0.7,0.32457566514696107,0.03537519332566711,0.0,0.0
108.0,17.0,1.0,0.32457566514696107,0.03537519332566711,0.0,0.0
108.0,25.0,0.1,0.3160321859132493,0.18644954580580056,0.0,0.0
108.0,25.0,0.3,0.3160321859132493,0.18644954580580056,0.0,0.0
108.0,25.0,0.7,0.3160321859132493,0.18644954580580056,0.0,0.0
108.0,25.0,1.0,0.3160321859132493,0.18644954580580056,0.0,0.0
108.0,33.0,0.1,0.3133583540959887,0.37480111084687207,0.0,0.0
108.0,33.0,0.3,0.3133583540959887,0.37480111084687207,0.0,0.0
108.0,33.0,0.7,0.3133583540959887,0.37480111084687207,0.0,0.0
108.0,33.0,1.0,0.3133583540959887,0.37480111084687207,0.0,0.0
108.0,41.0,0.1,0.3855932419095233,0.6540535681585331,0.0,0.0
108.0,41.0,0.3,0.3855932419095233,0.6540535681585331,0.0,0.0
108.0,41.0,0.7,0.3855932419095233,0.6540535681585331,0.0,0.0
108.0,41.0,1.0,0.3855932419095233,0.6540535681585331,0.0,0.0
108.0,49.0,0.1,0.5193331924562381,0.9979395083144788,0.0,0.0
108.0,49.0,0.3,0.5193331924562381,0.9979395083144788,0.0,0.0
108.0,49.0,0.7,0.5193331924562381,0.9979395083144788,0.0,0.0
108.0,49.0,1.0,0.5193331924562381,0.9979395083144788,0.0,0.0
108.0,57.0,0.1,0.7291408384889496,1.361744029027956,0.0,0.0
108.0,57.0,0.3,0.7291408384889496,1.361744029027956,0.0,0.0
108.0,57.0,0.7,0.7291408384889496,1.361744029027956,0.0,0.0
108.0,57.0,1.0,0.7291408384889496,1.361744029027956,0.0,0.0
108.0,65.0,0.1,0.8894823426974928,1.747646259915227,0.0,0.0
108.0,65.0,0.3,0.8894823426974928,1.747646259915227,0.0,0.0
108.0,65.0,0.7,0.8894823426974928,1.747646259915227,0.0,0.0
108.0,65.0,1.0,0.8894823426974928,1.747646259915227,0.0,0.0
108.0,73.0,0.1,1.2429975610716362,2.1604571801775316,0.0,0.0
108.0,73.0,0.3,1.2429975610716362,2.1604571801775316,0.0,0.0
108.0,73.0,0.7,1.2429975610716362,2.1604571801775316,0.0,0.0
108.0,73.0,1.0,1.2429975610716362,2.1604571801775316,0.0,0.0
108.0,81.0,0.1,1.4294625370986531,2.609739281216272,0.0,0.0
108.0,81.0,0.3,1.4294625370986531,2.609739281216272,0.0,0.0
108.0,81.0,0.7,1.4294625370986531,2.609739281216272,0.0,0.0
108.0,81.0,1.0,1.4294625370986531,2.609739281216272,0.0,0.0
108.0,89.0,0.1,1.9235492059457524,3.147715716596942,0.0,0.0
108.0,89.0,0.3,1.9235492059457524,3.147715716596942,0.0,0.0
108.0,89.0,0.7,1.9235492059457524,3.147715716596942,0.0,0.0
108.0,89.0,1.0,1.9235492059457524,3.147715716596942,0.0,0.0
108.0,97.0,0.1,2.2133838166856035,3.636364349913234,0.0,0.0
108.0,97.0,0.3,2.2133838166856035,3.636364349913234,0.0,0.0
108.0,97.0,0.7,2.2133838166856035,3.636364349913234,0.0,0.0
108.0,97.0,1.0,2.2133838166856035,3.636364349913234,0.0,0.0
108.0,105.0,0.1,2.333766993660396,4.0192772274298,0.0,0.0
108.0,105.0,0.3,2.333766993660396,4.0192772274298,0.0,0.0
108.0,105.0,0.7,2.333766993660396,4.0192772274298,0.0,0.0
108.0,105.0,1.0,2.333766993660396,4.0192772274298,0.0,0.0
108.0,113.0,0.1,2.356764111174934,4.786857525143182,0.0,0.0
108.0,113.0,0.3,2.356764111174934,4.786857525143182,0.0,0.0
108.0,113.0,0.7,2.356764111174934,4.786857525143182,0.0,0.0
108.0,113.0,1.0,2.356764111174934,4.786857525143182,0.0,0.0
108.0,121.0,0.1,2.3462967327498268,4.962309143778611,0.0,0.0
108.0,121.0,0.3,2.3462967327498268,4.962309143778611,0.0,0.0
108.0,121.0,0.7,2.3462967327498268,4.962309143778611,0.0,0.0
108.0,121.0,1.0,2.3462967327498268,4.962309143778611,0.0,0.0
108.0,127.0,0.1,2.342953475890471,5.023734913199064,0.0,0.0
108.0,127.0,0.3,2.342953475890471,5.023734913199064,0.0,0.0
108.0,127.0,0.7,2.342953475890471,5.023734913199064,0.0,0.0
108.0,127.0,1.0,2.342953475890471,5.023734913199064,0.0,0.0
