pitch,vel,dur,db(lab),db(audi),duration(lab),duration(audi)
21.0,1.0,0.1,-3.822855700071168,-1.660581298615164,0.0,0.0
21.0,1.0,0.3,-3.822855700071168,-1.660581298615164,0.0,0.0
21.0,1.0,0.7,-3.822855700071168,-1.660581298615164,0.0,0.0
21.0,1.0,1.0,-3.822855700071168,-1.660581298615164,0.0,0.0
21.0,9.0,0.1,-4.120232522647133,-1.5986017404960917,0.0,0.0
21.0,9.0,0.3,-4.120232522647133,-1.5986017404960917,0.0,0.0
21.0,9.0,0.7,-4.120232522647133,-1.5986017404960917,0.0,0.0
21.0,9.0,1.0,-4.120232522647133,-1.5986017404960917,0.0,0.0
21.0,17.0,0.1,-0.989754613215307,0.49922839073231073,0.0,0.0
21.0,17.0,0.3,-0.989754613215307,0.49922839073231073,0.0,0.0
21.0,17.0,0.7,-0.989754613215307,0.49922839073231073,0.0,0.0
21.0,17.0,1.0,-0.989754613215307,0.49922839073231073,0.0,0.0
21.0,25.0,0.1,-4.1465756557237405,0.7918773067646769,0.0,0.0
21.0,25.0,0.3,-4.1465756557237405,0.7918773067646769,0.0,0.0
21.0,25.0,0.7,-4.1465756557237405,0.7918773067646769,0.0,0.0
21.0,25.0,1.0,-4.1465756557237405,0.7918773067646769,0.0,0.0
21.0,33.0,0.1,0.6720267300613378,1.287725345371554,0.0,0.0
21.0,33.0,0.3,0.6720267300613378,1.287725345371554,0.0,0.0
21.0,33.0,0.7,0.6720267300613378,1.287725345371554,0.0,0.0
21.0,33.0,1.0,0.6720267300613378,1.287725345371554,0.0,0.0
21.0,41.0,0.1,0.8251859349086914,1.9697823363422118,0.0,0.0
21.0,41.0,0.3,0.8251859349086914,1.9697823363422118,0.0,0.0
21.0,41.0,0.7,0.8251859349086914,1.9697823363422118,0.0,0.0
21.0,41.0,1.0,0.8251859349086914,1.9697823363422118,0.0,0.0
21.0,49.0,0.1,1.2610598399530597,2.267959939744344,0.0,0.0
21.0,49.0,0.3,1.2610598399530597,2.267959939744344,0.0,0.0
21.0,49.0,0.7,1.2610598399530597,2.267959939744344,0.0,0.0
21.0,49.0,1.0,1.2610598399530597,2.267959939744344,0.0,0.0
21.0,57.0,0.1,1.320041605258851,2.7616108455687414,0.0,0.0
21.0,57.0,0.3,1.320041605258851,2.7616108455687414,0.0,0.0
21.0,57.0,0.7,1.320041605258851,2.7616108455687414,0.0,0.0
21.0,57.0,1.0,1.320041605258851,2.7616108455687414,0.0,0.0
21.0,65.0,0.1,1.614050465764014,3.356306832435084,0.0,0.0
21.0,65.0,0.3,1.614050465764014,3.356306832435084,0.0,0.0
21.0,65.0,0.7,1.614050465764014,3.356306832435084,0.0,0.0
21.0,65.0,1.0,1.614050465764014,3.356306832435084,0.0,0.0
21.0,73.0,0.1,2.2770036148303068,4.3182944001707275,0.0,0.0
21.0,73.0,0.3,2.2770036148303068,4.3182944001707275,0.0,0.0
21.0,73.0,0.7,2.2770036148303068,4.3182944001707275,0.0,0.0
21.0,73.0,1.0,2.2770036148303068,4.3182944001707275,0.0,0.0
21.0,81.0,0.1,2.7589820707747723,5.434474764853617,0.0,0.0
21.0,81.0,0.3,2.7589820707747723,5.434474764853617,0.0,0.0
21.0,81.0,0.7,2.7589820707747723,5.434474764853617,0.0,0.0
21.0,81.0,1.0,2.7589820707747723,5.434474764853617,0.0,0.0
21.0,89.0,0.1,3.140824492018592,7.239671370667818,0.0,0.0
21.0,89.0,0.3,3.140824492018592,7.239671370667818,0.0,0.0
21.0,89.0,0.7,3.140824492018592,7.239671370667818,0.0,0.0
21.0,89.0,1.0,3.140824492018592,7.239671370667818,0.0,0.0
21.0,97.0,0.1,3.236857591595098,9.919943393110072,0.0,0.0
21.0,97.0,0.3,3.236857591595098,9.919943393110072,0.0,0.0
21.0,97.0,0.7,3.236857591595098,9.919943393110072,0.0,0.0
21.0,97.0,1.0,3.236857591595098,9.919943393110072,0.0,0.0
21.0,105.0,0.1,3.254641140623663,10.900587717669278,0.0,0.0
21.0,105.0,0.3,3.254641140623663,10.900587717669278,0.0,0.0
21.0,105.0,0.7,3.254641140623663,10.900587717669278,0.0,0.0
21.0,105.0,1.0,3.254641140623663,10.900587717669278,0.0,0.0
21.0,113.0,0.1,3.175246258434799,10.920471731819358,0.0,0.0
21.0,113.0,0.3,3.175246258434799,10.920471731819358,0.0,0.0
21.0,113.0,0.7,3.175246258434799,10.920471731819358,0.0,0.0
21.0,113.0,1.0,3.175246258434799,10.920471731819358,0.0,0.0
21.0,121.0,0.1,3.1794134712802955,10.686151533275275,0.0,0.0
21.0,121.0,0.3,3.1794134712802955,10.686151533275275,0.0,0.0
21.0,121.0,0.7,3.1794134712802955,10.686151533275275,0.0,0.0
21.0,121.0,1.0,3.1794134712802955,10.686151533275275,0.0,0.0
21.0,127.0,0.1,3.1925666501677625,10.67347529482402,0.0,0.0
21.0,127.0,0.3,3.1925666501677625,10.67347529482402,0.0,0.0
21.0,127.0,0.7,3.1925666501677625,10.67347529482402,0.0,0.0
21.0,127.0,1.0,3.1925666501677625,10.67347529482402,0.0,0.0
22.0,1.0,0.1,0.7465395668444675,-0.2604262662966102,0.0,0.0
22.0,1.0,0.3,0.7465395668444675,-0.2604262662966102,0.0,0.0
22.0,1.0,0.7,0.7465395668444675,-0.2604262662966102,0.0,0.0
22.0,1.0,1.0,0.7465395668444675,-0.2604262662966102,0.0,0.0
22.0,9.0,0.1,0.7520546477979276,0.1815677136313932,0.0,0.0
22.0,9.0,0.3,0.7520546477979276,0.1815677136313932,0.0,0.0
22.0,9.0,0.7,0.7520546477979276,0.1815677136313932,0.0,0.0
22.0,9.0,1.0,0.7520546477979276,0.1815677136313932,0.0,0.0
22.0,17.0,0.1,0.7416144238250015,0.6794336203038133,0.0,0.0
22.0,17.0,0.3,0.7416144238250015,0.6794336203038133,0.0,0.0
22.0,17.0,0.7,0.7416144238250015,0.6794336203038133,0.0,0.0
22.0,17.0,1.0,0.7416144238250015,0.6794336203038133,0.0,0.0
22.0,25.0,0.1,0.5801317309186171,1.0410651896815344,0.0,0.0
22.0,25.0,0.3,0.5801317309186171,1.0410651896815344,0.0,0.0
22.0,25.0,0.7,0.5801317309186171,1.0410651896815344,0.0,0.0
22.0,25.0,1.0,0.5801317309186171,1.0410651896815344,0.0,0.0
22.0,33.0,0.1,0.6703284138034882,1.5541483571073753,0.0,0.0
22.0,33.0,0.3,0.6703284138034882,1.5541483571073753,0.0,0.0
22.0,33.0,0.7,0.6703284138034882,1.5541483571073753,0.0,0.0
22.0,33.0,1.0,0.6703284138034882,1.5541483571073753,0.0,0.0
22.0,41.0,0.1,0.9950789206684058,2.0238043669286605,0.0,0.0
22.0,41.0,0.3,0.9950789206684058,2.0238043669286605,0.0,0.0
22.0,41.0,0.7,0.9950789206684058,2.0238043669286605,0.0,0.0
22.0,41.0,1.0,0.9950789206684058,2.0238043669286605,0.0,0.0
22.0,49.0,0.1,1.3612656932608922,2.2708884754742926,0.0,0.0
22.0,49.0,0.3,1.3612656932608922,2.2708884754742926,0.0,0.0
22.0,49.0,0.7,1.3612656932608922,2.2708884754742926,0.0,0.0
22.0,49.0,1.0,1.3612656932608922,2.2708884754742926,0.0,0.0
22.0,57.0,0.1,1.5431359472127562,2.61551805575004,0.0,0.0
22.0,57.0,0.3,1.5431359472127562,2.61551805575004,0.0,0.0
22.0,57.0,0.7,1.5431359472127562,2.61551805575004,0.0,0.0
22.0,57.0,1.0,1.5431359472127562,2.61551805575004,0.0,0.0
22.0,65.0,0.1,1.8682112679870253,3.1822025703205847,0.0,0.0
22.0,65.0,0.3,1.8682112679870253,3.1822025703205847,0.0,0.0
22.0,65.0,0.7,1.8682112679870253,3.1822025703205847,0.0,0.0
22.0,65.0,1.0,1.8682112679870253,3.1822025703205847,0.0,0.0
22.0,73.0,0.1,2.7022765004031015,4.010409428349336,0.0,0.0
22.0,73.0,0.3,2.7022765004031015,4.010409428349336,0.0,0.0
22.0,73.0,0.7,2.7022765004031015,4.010409428349336,0.0,0.0
22.0,73.0,1.0,2.7022765004031015,4.010409428349336,0.0,0.0
22.0,81.0,0.1,3.114851418336482,5.425388754191284,0.0,0.0
22.0,81.0,0.3,3.114851418336482,5.425388754191284,0.0,0.0
22.0,81.0,0.7,3.114851418336482,5.425388754191284,0.0,0.0
22.0,81.0,1.0,3.114851418336482,5.425388754191284,0.0,0.0
22.0,89.0,0.1,3.1943959287227988,7.718220711721482,0.0,0.0
22.0,89.0,0.3,3.1943959287227988,7.718220711721482,0.0,0.0
22.0,89.0,0.7,3.1943959287227988,7.718220711721482,0.0,0.0
22.0,89.0,1.0,3.1943959287227988,7.718220711721482,0.0,0.0
22.0,97.0,0.1,3.2441500255318414,10.358555776030695,0.0,0.0
22.0,97.0,0.3,3.2441500255318414,10.358555776030695,0.0,0.0
22.0,97.0,0.7,3.2441500255318414,10.358555776030695,0.0,0.0
22.0,97.0,1.0,3.2441500255318414,10.358555776030695,0.0,0.0
22.0,105.0,0.1,3.2478391159624147,10.318221406730574,0.0,0.0
22.0,105.0,0.3,3.2478391159624147,10.318221406730574,0.0,0.0
22.0,105.0,0.7,3.2478391159624147,10.318221406730574,0.0,0.0
22.0,105.0,1.0,3.2478391159624147,10.318221406730574,0.0,0.0
22.0,113.0,0.1,3.2496618823491397,10.624394348919353,0.0,0.0
22.0,113.0,0.3,3.2496618823491397,10.624394348919353,0.0,0.0
22.0,113.0,0.7,3.2496618823491397,10.624394348919353,0.0,0.0
22.0,113.0,1.0,3.2496618823491397,10.624394348919353,0.0,0.0
22.0,121.0,0.1,3.2505542809583874,9.530364784774791,0.0,0.0
22.0,121.0,0.3,3.2505542809583874,9.530364784774791,0.0,0.0
22.0,121.0,0.7,3.2505542809583874,9.530364784774791,0.0,0.0
22.0,121.0,1.0,3.2505542809583874,9.530364784774791,0.0,0.0
22.0,127.0,0.1,3.244063235899871,9.742039484430986,0.0,0.0
22.0,127.0,0.3,3.244063235899871,9.742039484430986,0.0,0.0
22.0,127.0,0.7,3.244063235899871,9.742039484430986,0.0,0.0
22.0,127.0,1.0,3.244063235899871,9.742039484430986,0.0,0.0
23.0,1.0,0.1,0.7520756205971822,-0.7725032477235807,0.0,0.0
23.0,1.0,0.3,0.7520756205971822,-0.7725032477235807,0.0,0.0
23.0,1.0,0.7,0.7520756205971822,-0.7725032477235807,0.0,0.0
23.0,1.0,1.0,0.7520756205971822,-0.7725032477235807,0.0,0.0
23.0,9.0,0.1,0.9192689138021932,-1.433739340325568,0.0,0.0
23.0,9.0,0.3,0.9192689138021932,-1.433739340325568,0.0,0.0
23.0,9.0,0.7,0.9192689138021932,-1.433739340325568,0.0,0.0
23.0,9.0,1.0,0.9192689138021932,-1.433739340325568,0.0,0.0
23.0,17.0,0.1,0.7851910677194636,0.6173977745992196,0.0,0.0
23.0,17.0,0.3,0.7851910677194636,0.6173977745992196,0.0,0.0
23.0,17.0,0.7,0.7851910677194636,0.6173977745992196,0.0,0.0
23.0,17.0,1.0,0.7851910677194636,0.6173977745992196,0.0,0.0
23.0,25.0,0.1,0.7317203738524494,0.8749879435527118,0.0,0.0
23.0,25.0,0.3,0.7317203738524494,0.8749879435527118,0.0,0.0
23.0,25.0,0.7,0.7317203738524494,0.8749879435527118,0.0,0.0
23.0,25.0,1.0,0.7317203738524494,0.8749879435527118,0.0,0.0
23.0,33.0,0.1,0.7701202280399738,1.497227903279637,0.0,0.0
23.0,33.0,0.3,0.7701202280399738,1.497227903279637,0.0,0.0
23.0,33.0,0.7,0.7701202280399738,1.497227903279637,0.0,0.0
23.0,33.0,1.0,0.7701202280399738,1.497227903279637,0.0,0.0
23.0,41.0,0.1,0.9600513990783903,1.992957769880658,0.0,0.0
23.0,41.0,0.3,0.9600513990783903,1.992957769880658,0.0,0.0
23.0,41.0,0.7,0.9600513990783903,1.992957769880658,0.0,0.0
23.0,41.0,1.0,0.9600513990783903,1.992957769880658,0.0,0.0
23.0,49.0,0.1,1.308162802785373,2.218402494248235,0.0,0.0
23.0,49.0,0.3,1.308162802785373,2.218402494248235,0.0,0.0
23.0,49.0,0.7,1.308162802785373,2.218402494248235,0.0,0.0
23.0,49.0,1.0,1.308162802785373,2.218402494248235,0.0,0.0
23.0,57.0,0.1,1.5732991552502362,2.531016963296687,0.0,0.0
23.0,57.0,0.3,1.5732991552502362,2.531016963296687,0.0,0.0
23.0,57.0,0.7,1.5732991552502362,2.531016963296687,0.0,0.0
23.0,57.0,1.0,1.5732991552502362,2.531016963296687,0.0,0.0
23.0,65.0,0.1,1.899211412581475,3.1237810891405107,0.0,0.0
23.0,65.0,0.3,1.899211412581475,3.1237810891405107,0.0,0.0
23.0,65.0,0.7,1.899211412581475,3.1237810891405107,0.0,0.0
23.0,65.0,1.0,1.899211412581475,3.1237810891405107,0.0,0.0
23.0,73.0,0.1,2.600795156319008,3.9944639840011558,0.0,0.0
23.0,73.0,0.3,2.600795156319008,3.9944639840011558,0.0,0.0
23.0,73.0,0.7,2.600795156319008,3.9944639840011558,0.0,0.0
23.0,73.0,1.0,2.600795156319008,3.9944639840011558,0.0,0.0
23.0,81.0,0.1,3.0942520352800074,5.310663372302446,0.0,0.0
23.0,81.0,0.3,3.0942520352800074,5.310663372302446,0.0,0.0
23.0,81.0,0.7,3.0942520352800074,5.310663372302446,0.0,0.0
23.0,81.0,1.0,3.0942520352800074,5.310663372302446,0.0,0.0
23.0,89.0,0.1,3.177969926022798,7.4259837556156985,0.0,0.0
23.0,89.0,0.3,3.177969926022798,7.4259837556156985,0.0,0.0
23.0,89.0,0.7,3.177969926022798,7.4259837556156985,0.0,0.0
23.0,89.0,1.0,3.177969926022798,7.4259837556156985,0.0,0.0
23.0,97.0,0.1,3.243922472232522,9.377860942445858,0.0,0.0
23.0,97.0,0.3,3.243922472232522,9.377860942445858,0.0,0.0
23.0,97.0,0.7,3.243922472232522,9.377860942445858,0.0,0.0
23.0,97.0,1.0,3.243922472232522,9.377860942445858,0.0,0.0
23.0,105.0,0.1,3.2321308306773044,9.40542938229959,0.0,0.0
23.0,105.0,0.3,3.2321308306773044,9.40542938229959,0.0,0.0
23.0,105.0,0.7,3.2321308306773044,9.40542938229959,0.0,0.0
23.0,105.0,1.0,3.2321308306773044,9.40542938229959,0.0,0.0
23.0,113.0,0.1,3.229928396173893,9.6497881604917,0.0,0.0
23.0,113.0,0.3,3.229928396173893,9.6497881604917,0.0,0.0
23.0,113.0,0.7,3.229928396173893,9.6497881604917,0.0,0.0
23.0,113.0,1.0,3.229928396173893,9.6497881604917,0.0,0.0
23.0,121.0,0.1,3.2250702945573613,9.4327570944871,0.0,0.0
23.0,121.0,0.3,3.2250702945573613,9.4327570944871,0.0,0.0
23.0,121.0,0.7,3.2250702945573613,9.4327570944871,0.0,0.0
23.0,121.0,1.0,3.2250702945573613,9.4327570944871,0.0,0.0
23.0,127.0,0.1,3.2263296631658385,9.736748553684336,0.0,0.0
23.0,127.0,0.3,3.2263296631658385,9.736748553684336,0.0,0.0
23.0,127.0,0.7,3.2263296631658385,9.736748553684336,0.0,0.0
23.0,127.0,1.0,3.2263296631658385,9.736748553684336,0.0,0.0
24.0,1.0,0.1,-1.8028292762411369,-0.4554975625134861,0.0,0.0
24.0,1.0,0.3,-1.8028292762411369,-0.4554975625134861,0.0,0.0
24.0,1.0,0.7,-1.8028292762411369,-0.4554975625134861,0.0,0.0
24.0,1.0,1.0,-1.8028292762411369,-0.4554975625134861,0.0,0.0
24.0,9.0,0.1,-2.0664735297339734,-0.43312784645975727,0.0,0.0
24.0,9.0,0.3,-2.0664735297339734,-0.43312784645975727,0.0,0.0
24.0,9.0,0.7,-2.0664735297339734,-0.43312784645975727,0.0,0.0
24.0,9.0,1.0,-2.0664735297339734,-0.43312784645975727,0.0,0.0
24.0,17.0,0.1,-2.1227996342045676,0.4303665396796913,0.0,0.0
24.0,17.0,0.3,-2.1227996342045676,0.4303665396796913,0.0,0.0
24.0,17.0,0.7,-2.1227996342045676,0.4303665396796913,0.0,0.0
24.0,17.0,1.0,-2.1227996342045676,0.4303665396796913,0.0,0.0
24.0,25.0,0.1,-1.864897895913795,0.7003481332890515,0.0,0.0
24.0,25.0,0.3,-1.864897895913795,0.7003481332890515,0.0,0.0
24.0,25.0,0.7,-1.864897895913795,0.7003481332890515,0.0,0.0
24.0,25.0,1.0,-1.864897895913795,0.7003481332890515,0.0,0.0
24.0,33.0,0.1,0.7466827308974615,1.1097713705720824,0.0,0.0
24.0,33.0,0.3,0.7466827308974615,1.1097713705720824,0.0,0.0
24.0,33.0,0.7,0.7466827308974615,1.1097713705720824,0.0,0.0
24.0,33.0,1.0,0.7466827308974615,1.1097713705720824,0.0,0.0
24.0,41.0,0.1,0.930254331466654,1.8403363530308712,0.0,0.0
24.0,41.0,0.3,0.930254331466654,1.8403363530308712,0.0,0.0
24.0,41.0,0.7,0.930254331466654,1.8403363530308712,0.0,0.0
24.0,41.0,1.0,0.930254331466654,1.8403363530308712,0.0,0.0
24.0,49.0,0.1,1.2649117745045688,2.209213735025918,0.0,0.0
24.0,49.0,0.3,1.2649117745045688,2.209213735025918,0.0,0.0
24.0,49.0,0.7,1.2649117745045688,2.209213735025918,0.0,0.0
24.0,49.0,1.0,1.2649117745045688,2.209213735025918,0.0,0.0
24.0,57.0,0.1,1.4178286901638233,2.553723176215355,0.0,0.0
24.0,57.0,0.3,1.4178286901638233,2.553723176215355,0.0,0.0
24.0,57.0,0.7,1.4178286901638233,2.553723176215355,0.0,0.0
24.0,57.0,1.0,1.4178286901638233,2.553723176215355,0.0,0.0
24.0,65.0,0.1,1.6693770725441976,3.10109330356727,0.0,0.0
24.0,65.0,0.3,1.6693770725441976,3.10109330356727,0.0,0.0
24.0,65.0,0.7,1.6693770725441976,3.10109330356727,0.0,0.0
24.0,65.0,1.0,1.6693770725441976,3.10109330356727,0.0,0.0
24.0,73.0,0.1,2.2607637038488573,3.797397435877729,0.0,0.0
24.0,73.0,0.3,2.2607637038488573,3.797397435877729,0.0,0.0
24.0,73.0,0.7,2.2607637038488573,3.797397435877729,0.0,0.0
24.0,73.0,1.0,2.2607637038488573,3.797397435877729,0.0,0.0
24.0,81.0,0.1,2.850924288238773,5.276767566246323,0.0,0.0
24.0,81.0,0.3,2.850924288238773,5.276767566246323,0.0,0.0
24.0,81.0,0.7,2.850924288238773,5.276767566246323,0.0,0.0
24.0,81.0,1.0,2.850924288238773,5.276767566246323,0.0,0.0
24.0,89.0,0.1,3.095226412079642,8.006340596706453,0.0,0.0
24.0,89.0,0.3,3.095226412079642,8.006340596706453,0.0,0.0
24.0,89.0,0.7,3.095226412079642,8.006340596706453,0.0,0.0
24.0,89.0,1.0,3.095226412079642,8.006340596706453,0.0,0.0
24.0,97.0,0.1,3.1228401007525934,10.05057462897346,0.0,0.0
24.0,97.0,0.3,3.1228401007525934,10.05057462897346,0.0,0.0
24.0,97.0,0.7,3.1228401007525934,10.05057462897346,0.0,0.0
24.0,97.0,1.0,3.1228401007525934,10.05057462897346,0.0,0.0
24.0,105.0,0.1,3.1210590819883244,10.25444050128269,0.0,0.0
24.0,105.0,0.3,3.1210590819883244,10.25444050128269,0.0,0.0
24.0,105.0,0.7,3.1210590819883244,10.25444050128269,0.0,0.0
24.0,105.0,1.0,3.1210590819883244,10.25444050128269,0.0,0.0
24.0,113.0,0.1,3.1204812431552043,9.664842569746021,0.0,0.0
24.0,113.0,0.3,3.1204812431552043,9.664842569746021,0.0,0.0
24.0,113.0,0.7,3.1204812431552043,9.664842569746021,0.0,0.0
24.0,113.0,1.0,3.1204812431552043,9.664842569746021,0.0,0.0
24.0,121.0,0.1,3.1153130828580524,9.713665934676035,0.0,0.0
24.0,121.0,0.3,3.1153130828580524,9.713665934676035,0.0,0.0
24.0,121.0,0.7,3.1153130828580524,9.713665934676035,0.0,0.0
24.0,121.0,1.0,3.1153130828580524,9.713665934676035,0.0,0.0
24.0,127.0,0.1,3.1152488966771488,10.160241453884668,0.0,0.0
24.0,127.0,0.3,3.1152488966771488,10.160241453884668,0.0,0.0
24.0,127.0,0.7,3.1152488966771488,10.160241453884668,0.0,0.0
24.0,127.0,1.0,3.1152488966771488,10.160241453884668,0.0,0.0
25.0,1.0,0.1,-1.9682031604108456,-1.4299013356963808,0.0,0.0
25.0,1.0,0.3,-1.9682031604108456,-1.4299013356963808,0.0,0.0
25.0,1.0,0.7,-1.9682031604108456,-1.4299013356963808,0.0,0.0
25.0,1.0,1.0,-1.9682031604108456,-1.4299013356963808,0.0,0.0
25.0,9.0,0.1,1.0711149074807977,-1.6351983315165588,0.0,0.0
25.0,9.0,0.3,1.0711149074807977,-1.6351983315165588,0.0,0.0
25.0,9.0,0.7,1.0711149074807977,-1.6351983315165588,0.0,0.0
25.0,9.0,1.0,1.0711149074807977,-1.6351983315165588,0.0,0.0
25.0,17.0,0.1,-1.8179075361187917,-0.7843704412827808,0.0,0.0
25.0,17.0,0.3,-1.8179075361187917,-0.7843704412827808,0.0,0.0
25.0,17.0,0.7,-1.8179075361187917,-0.7843704412827808,0.0,0.0
25.0,17.0,1.0,-1.8179075361187917,-0.7843704412827808,0.0,0.0
25.0,25.0,0.1,-2.3343947737928925,-0.10860760288463234,0.0,0.0
25.0,25.0,0.3,-2.3343947737928925,-0.10860760288463234,0.0,0.0
25.0,25.0,0.7,-2.3343947737928925,-0.10860760288463234,0.0,0.0
25.0,25.0,1.0,-2.3343947737928925,-0.10860760288463234,0.0,0.0
25.0,33.0,0.1,1.1851479362035247,0.8818129303339857,0.0,0.0
25.0,33.0,0.3,1.1851479362035247,0.8818129303339857,0.0,0.0
25.0,33.0,0.7,1.1851479362035247,0.8818129303339857,0.0,0.0
25.0,33.0,1.0,1.1851479362035247,0.8818129303339857,0.0,0.0
25.0,41.0,0.1,1.1912432869150922,1.5825182634311603,0.0,0.0
25.0,41.0,0.3,1.1912432869150922,1.5825182634311603,0.0,0.0
25.0,41.0,0.7,1.1912432869150922,1.5825182634311603,0.0,0.0
25.0,41.0,1.0,1.1912432869150922,1.5825182634311603,0.0,0.0
25.0,49.0,0.1,1.4125518012149343,2.06722830196393,0.0,0.0
25.0,49.0,0.3,1.4125518012149343,2.06722830196393,0.0,0.0
25.0,49.0,0.7,1.4125518012149343,2.06722830196393,0.0,0.0
25.0,49.0,1.0,1.4125518012149343,2.06722830196393,0.0,0.0
25.0,57.0,0.1,1.676723735386735,2.413231842722348,0.0,0.0
25.0,57.0,0.3,1.676723735386735,2.413231842722348,0.0,0.0
25.0,57.0,0.7,1.676723735386735,2.413231842722348,0.0,0.0
25.0,57.0,1.0,1.676723735386735,2.413231842722348,0.0,0.0
25.0,65.0,0.1,2.315456998014932,2.9005839237575652,0.0,0.0
25.0,65.0,0.3,2.315456998014932,2.9005839237575652,0.0,0.0
25.0,65.0,0.7,2.315456998014932,2.9005839237575652,0.0,0.0
25.0,65.0,1.0,2.315456998014932,2.9005839237575652,0.0,0.0
25.0,73.0,0.1,3.019779093496862,3.463374270378427,0.0,0.0
25.0,73.0,0.3,3.019779093496862,3.463374270378427,0.0,0.0
25.0,73.0,0.7,3.019779093496862,3.463374270378427,0.0,0.0
25.0,73.0,1.0,3.019779093496862,3.463374270378427,0.0,0.0
25.0,81.0,0.1,3.2075109582460977,4.546121125860283,0.0,0.0
25.0,81.0,0.3,3.2075109582460977,4.546121125860283,0.0,0.0
25.0,81.0,0.7,3.2075109582460977,4.546121125860283,0.0,0.0
25.0,81.0,1.0,3.2075109582460977,4.546121125860283,0.0,0.0
25.0,89.0,0.1,3.362833445402095,5.6845080884390295,0.0,0.0
25.0,89.0,0.3,3.362833445402095,5.6845080884390295,0.0,0.0
25.0,89.0,0.7,3.362833445402095,5.6845080884390295,0.0,0.0
25.0,89.0,1.0,3.362833445402095,5.6845080884390295,0.0,0.0
25.0,97.0,0.1,3.510730849956366,8.991514715790501,0.0,0.0
25.0,97.0,0.3,3.510730849956366,8.991514715790501,0.0,0.0
25.0,97.0,0.7,3.510730849956366,8.991514715790501,0.0,0.0
25.0,97.0,1.0,3.510730849956366,8.991514715790501,0.0,0.0
25.0,105.0,0.1,3.4897274777620666,8.951609148758221,0.0,0.0
25.0,105.0,0.3,3.4897274777620666,8.951609148758221,0.0,0.0
25.0,105.0,0.7,3.4897274777620666,8.951609148758221,0.0,0.0
25.0,105.0,1.0,3.4897274777620666,8.951609148758221,0.0,0.0
25.0,113.0,0.1,3.484411663995549,9.734555652880413,0.0,0.0
25.0,113.0,0.3,3.484411663995549,9.734555652880413,0.0,0.0
25.0,113.0,0.7,3.484411663995549,9.734555652880413,0.0,0.0
25.0,113.0,1.0,3.484411663995549,9.734555652880413,0.0,0.0
25.0,121.0,0.1,3.4753935279639996,9.213301901037935,0.0,0.0
25.0,121.0,0.3,3.4753935279639996,9.213301901037935,0.0,0.0
25.0,121.0,0.7,3.4753935279639996,9.213301901037935,0.0,0.0
25.0,121.0,1.0,3.4753935279639996,9.213301901037935,0.0,0.0
25.0,127.0,0.1,3.472193932029177,9.358407543471142,0.0,0.0
25.0,127.0,0.3,3.472193932029177,9.358407543471142,0.0,0.0
25.0,127.0,0.7,3.472193932029177,9.358407543471142,0.0,0.0
25.0,127.0,1.0,3.472193932029177,9.358407543471142,0.0,0.0
26.0,1.0,0.1,0.642133554135462,0.23456891327061064,0.0,0.0
26.0,1.0,0.3,0.642133554135462,0.23456891327061064,0.0,0.0
26.0,1.0,0.7,0.642133554135462,0.23456891327061064,0.0,0.0
26.0,1.0,1.0,0.642133554135462,0.23456891327061064,0.0,0.0
26.0,9.0,0.1,0.6968041698490268,0.31998723840091736,0.0,0.0
26.0,9.0,0.3,0.6968041698490268,0.31998723840091736,0.0,0.0
26.0,9.0,0.7,0.6968041698490268,0.31998723840091736,0.0,0.0
26.0,9.0,1.0,0.6968041698490268,0.31998723840091736,0.0,0.0
26.0,17.0,0.1,-2.103214377270975,0.7032963191862366,0.0,0.0
26.0,17.0,0.3,-2.103214377270975,0.7032963191862366,0.0,0.0
26.0,17.0,0.7,-2.103214377270975,0.7032963191862366,0.0,0.0
26.0,17.0,1.0,-2.103214377270975,0.7032963191862366,0.0,0.0
26.0,25.0,0.1,-1.7941730707356742,1.012275699917098,0.0,0.0
26.0,25.0,0.3,-1.7941730707356742,1.012275699917098,0.0,0.0
26.0,25.0,0.7,-1.7941730707356742,1.012275699917098,0.0,0.0
26.0,25.0,1.0,-1.7941730707356742,1.012275699917098,0.0,0.0
26.0,33.0,0.1,0.7454004143820934,1.5773579358069463,0.0,0.0
26.0,33.0,0.3,0.7454004143820934,1.5773579358069463,0.0,0.0
26.0,33.0,0.7,0.7454004143820934,1.5773579358069463,0.0,0.0
26.0,33.0,1.0,0.7454004143820934,1.5773579358069463,0.0,0.0
26.0,41.0,0.1,0.8514305161248743,2.111381042000479,0.0,0.0
26.0,41.0,0.3,0.8514305161248743,2.111381042000479,0.0,0.0
26.0,41.0,0.7,0.8514305161248743,2.111381042000479,0.0,0.0
26.0,41.0,1.0,0.8514305161248743,2.111381042000479,0.0,0.0
26.0,49.0,0.1,1.2063920288084211,2.369733559624858,0.0,0.0
26.0,49.0,0.3,1.2063920288084211,2.369733559624858,0.0,0.0
26.0,49.0,0.7,1.2063920288084211,2.369733559624858,0.0,0.0
26.0,49.0,1.0,1.2063920288084211,2.369733559624858,0.0,0.0
26.0,57.0,0.1,1.4086715864009638,2.8392683457594745,0.0,0.0
26.0,57.0,0.3,1.4086715864009638,2.8392683457594745,0.0,0.0
26.0,57.0,0.7,1.4086715864009638,2.8392683457594745,0.0,0.0
26.0,57.0,1.0,1.4086715864009638,2.8392683457594745,0.0,0.0
26.0,65.0,0.1,1.6584758065503495,3.493520872053386,0.0,0.0
26.0,65.0,0.3,1.6584758065503495,3.493520872053386,0.0,0.0
26.0,65.0,0.7,1.6584758065503495,3.493520872053386,0.0,0.0
26.0,65.0,1.0,1.6584758065503495,3.493520872053386,0.0,0.0
26.0,73.0,0.1,2.474123425818841,4.358736268704801,0.0,0.0
26.0,73.0,0.3,2.474123425818841,4.358736268704801,0.0,0.0
26.0,73.0,0.7,2.474123425818841,4.358736268704801,0.0,0.0
26.0,73.0,1.0,2.474123425818841,4.358736268704801,0.0,0.0
26.0,81.0,0.1,2.9718348375332266,5.46363787437867,0.0,0.0
26.0,81.0,0.3,2.9718348375332266,5.46363787437867,0.0,0.0
26.0,81.0,0.7,2.9718348375332266,5.46363787437867,0.0,0.0
26.0,81.0,1.0,2.9718348375332266,5.46363787437867,0.0,0.0
26.0,89.0,0.1,3.1693765404301604,6.801909753077654,0.0,0.0
26.0,89.0,0.3,3.1693765404301604,6.801909753077654,0.0,0.0
26.0,89.0,0.7,3.1693765404301604,6.801909753077654,0.0,0.0
26.0,89.0,1.0,3.1693765404301604,6.801909753077654,0.0,0.0
26.0,97.0,0.1,3.2018174759674842,9.24438719943263,0.0,0.0
26.0,97.0,0.3,3.2018174759674842,9.24438719943263,0.0,0.0
26.0,97.0,0.7,3.2018174759674842,9.24438719943263,0.0,0.0
26.0,97.0,1.0,3.2018174759674842,9.24438719943263,0.0,0.0
26.0,105.0,0.1,3.203692700740119,9.572706733843352,0.0,0.0
26.0,105.0,0.3,3.203692700740119,9.572706733843352,0.0,0.0
26.0,105.0,0.7,3.203692700740119,9.572706733843352,0.0,0.0
26.0,105.0,1.0,3.203692700740119,9.572706733843352,0.0,0.0
26.0,113.0,0.1,3.2041395936801553,9.656167651105452,0.0,0.0
26.0,113.0,0.3,3.2041395936801553,9.656167651105452,0.0,0.0
26.0,113.0,0.7,3.2041395936801553,9.656167651105452,0.0,0.0
26.0,113.0,1.0,3.2041395936801553,9.656167651105452,0.0,0.0
26.0,121.0,0.1,3.198673538970183,9.232442985339326,0.0,0.0
26.0,121.0,0.3,3.198673538970183,9.232442985339326,0.0,0.0
26.0,121.0,0.7,3.198673538970183,9.232442985339326,0.0,0.0
26.0,121.0,1.0,3.198673538970183,9.232442985339326,0.0,0.0
26.0,127.0,0.1,3.1937485320814165,9.450077987176503,0.0,0.0
26.0,127.0,0.3,3.1937485320814165,9.450077987176503,0.0,0.0
26.0,127.0,0.7,3.1937485320814165,9.450077987176503,0.0,0.0
26.0,127.0,1.0,3.1937485320814165,9.450077987176503,0.0,0.0
27.0,1.0,0.1,-3.251387677969398,0.3180018648907171,0.0,0.0
27.0,1.0,0.3,-3.251387677969398,0.3180018648907171,0.0,0.0
27.0,1.0,0.7,-3.251387677969398,0.3180018648907171,0.0,0.0
27.0,1.0,1.0,-3.251387677969398,0.3180018648907171,0.0,0.0
27.0,9.0,0.1,-3.2706048318688197,-0.4896646968374813,0.0,0.0
27.0,9.0,0.3,-3.2706048318688197,-0.4896646968374813,0.0,0.0
27.0,9.0,0.7,-3.2706048318688197,-0.4896646968374813,0.0,0.0
27.0,9.0,1.0,-3.2706048318688197,-0.4896646968374813,0.0,0.0
27.0,17.0,0.1,-3.323488665720247,-0.022492886207206714,0.0,0.0
27.0,17.0,0.3,-3.323488665720247,-0.022492886207206714,0.0,0.0
27.0,17.0,0.7,-3.323488665720247,-0.022492886207206714,0.0,0.0
27.0,17.0,1.0,-3.323488665720247,-0.022492886207206714,0.0,0.0
27.0,25.0,0.1,-3.251838679892691,1.0087922018635695,0.0,0.0
27.0,25.0,0.3,-3.251838679892691,1.0087922018635695,0.0,0.0
27.0,25.0,0.7,-3.251838679892691,1.0087922018635695,0.0,0.0
27.0,25.0,1.0,-3.251838679892691,1.0087922018635695,0.0,0.0
27.0,33.0,0.1,0.6653677399480533,1.5381623953609866,0.0,0.0
27.0,33.0,0.3,0.6653677399480533,1.5381623953609866,0.0,0.0
27.0,33.0,0.7,0.6653677399480533,1.5381623953609866,0.0,0.0
27.0,33.0,1.0,0.6653677399480533,1.5381623953609866,0.0,0.0
27.0,41.0,0.1,0.8871299358711802,1.9816390949884521,0.0,0.0
27.0,41.0,0.3,0.8871299358711802,1.9816390949884521,0.0,0.0
27.0,41.0,0.7,0.8871299358711802,1.9816390949884521,0.0,0.0
27.0,41.0,1.0,0.8871299358711802,1.9816390949884521,0.0,0.0
27.0,49.0,0.1,1.2513976229688886,2.2716505570142727,0.0,0.0
27.0,49.0,0.3,1.2513976229688886,2.2716505570142727,0.0,0.0
27.0,49.0,0.7,1.2513976229688886,2.2716505570142727,0.0,0.0
27.0,49.0,1.0,1.2513976229688886,2.2716505570142727,0.0,0.0
27.0,57.0,0.1,1.4581970934159834,2.55567283963593,0.0,0.0
27.0,57.0,0.3,1.4581970934159834,2.55567283963593,0.0,0.0
27.0,57.0,0.7,1.4581970934159834,2.55567283963593,0.0,0.0
27.0,57.0,1.0,1.4581970934159834,2.55567283963593,0.0,0.0
27.0,65.0,0.1,1.737840128794554,2.9929671030998635,0.0,0.0
27.0,65.0,0.3,1.737840128794554,2.9929671030998635,0.0,0.0
27.0,65.0,0.7,1.737840128794554,2.9929671030998635,0.0,0.0
27.0,65.0,1.0,1.737840128794554,2.9929671030998635,0.0,0.0
27.0,73.0,0.1,2.6550006748651724,3.8777010810290795,0.0,0.0
27.0,73.0,0.3,2.6550006748651724,3.8777010810290795,0.0,0.0
27.0,73.0,0.7,2.6550006748651724,3.8777010810290795,0.0,0.0
27.0,73.0,1.0,2.6550006748651724,3.8777010810290795,0.0,0.0
27.0,81.0,0.1,3.1275072877519126,4.982364452582137,0.0,0.0
27.0,81.0,0.3,3.1275072877519126,4.982364452582137,0.0,0.0
27.0,81.0,0.7,3.1275072877519126,4.982364452582137,0.0,0.0
27.0,81.0,1.0,3.1275072877519126,4.982364452582137,0.0,0.0
27.0,89.0,0.1,3.263445234595087,7.314625438992548,0.0,0.0
27.0,89.0,0.3,3.263445234595087,7.314625438992548,0.0,0.0
27.0,89.0,0.7,3.263445234595087,7.314625438992548,0.0,0.0
27.0,89.0,1.0,3.263445234595087,7.314625438992548,0.0,0.0
27.0,97.0,0.1,3.4587718253408064,8.77928324680489,0.0,0.0
27.0,97.0,0.3,3.4587718253408064,8.77928324680489,0.0,0.0
27.0,97.0,0.7,3.4587718253408064,8.77928324680489,0.0,0.0
27.0,97.0,1.0,3.4587718253408064,8.77928324680489,0.0,0.0
27.0,105.0,0.1,3.4647705389104817,9.424167991201461,0.0,0.0
27.0,105.0,0.3,3.4647705389104817,9.424167991201461,0.0,0.0
27.0,105.0,0.7,3.4647705389104817,9.424167991201461,0.0,0.0
27.0,105.0,1.0,3.4647705389104817,9.424167991201461,0.0,0.0
27.0,113.0,0.1,3.4420968386320254,9.303348731191585,0.0,0.0
27.0,113.0,0.3,3.4420968386320254,9.303348731191585,0.0,0.0
27.0,113.0,0.7,3.4420968386320254,9.303348731191585,0.0,0.0
27.0,113.0,1.0,3.4420968386320254,9.303348731191585,0.0,0.0
27.0,121.0,0.1,3.423247087164577,8.561321337792396,0.0,0.0
27.0,121.0,0.3,3.423247087164577,8.561321337792396,0.0,0.0
27.0,121.0,0.7,3.423247087164577,8.561321337792396,0.0,0.0
27.0,121.0,1.0,3.423247087164577,8.561321337792396,0.0,0.0
27.0,127.0,0.1,3.41808283329085,8.966365356971377,0.0,0.0
27.0,127.0,0.3,3.41808283329085,8.966365356971377,0.0,0.0
27.0,127.0,0.7,3.41808283329085,8.966365356971377,0.0,0.0
27.0,127.0,1.0,3.41808283329085,8.966365356971377,0.0,0.0
28.0,1.0,0.1,-3.2822016104901177,-0.2899790320327464,0.0,0.0
28.0,1.0,0.3,-3.2822016104901177,-0.2899790320327464,0.0,0.0
28.0,1.0,0.7,-3.2822016104901177,-0.2899790320327464,0.0,0.0
28.0,1.0,1.0,-3.2822016104901177,-0.2899790320327464,0.0,0.0
28.0,9.0,0.1,-3.7203870633987908,-0.06802980719384222,0.0,0.0
28.0,9.0,0.3,-3.7203870633987908,-0.06802980719384222,0.0,0.0
28.0,9.0,0.7,-3.7203870633987908,-0.06802980719384222,0.0,0.0
28.0,9.0,1.0,-3.7203870633987908,-0.06802980719384222,0.0,0.0
28.0,17.0,0.1,-3.309899424918938,0.6266641473660619,0.0,0.0
28.0,17.0,0.3,-3.309899424918938,0.6266641473660619,0.0,0.0
28.0,17.0,0.7,-3.309899424918938,0.6266641473660619,0.0,0.0
28.0,17.0,1.0,-3.309899424918938,0.6266641473660619,0.0,0.0
28.0,25.0,0.1,-3.562125062456401,0.8009165429443812,0.0,0.0
28.0,25.0,0.3,-3.562125062456401,0.8009165429443812,0.0,0.0
28.0,25.0,0.7,-3.562125062456401,0.8009165429443812,0.0,0.0
28.0,25.0,1.0,-3.562125062456401,0.8009165429443812,0.0,0.0
28.0,33.0,0.1,-3.843687829842235,1.1929049860382146,0.0,0.0
28.0,33.0,0.3,-3.843687829842235,1.1929049860382146,0.0,0.0
28.0,33.0,0.7,-3.843687829842235,1.1929049860382146,0.0,0.0
28.0,33.0,1.0,-3.843687829842235,1.1929049860382146,0.0,0.0
28.0,41.0,0.1,0.868435640697282,1.7999070267612736,0.0,0.0
28.0,41.0,0.3,0.868435640697282,1.7999070267612736,0.0,0.0
28.0,41.0,0.7,0.868435640697282,1.7999070267612736,0.0,0.0
28.0,41.0,1.0,0.868435640697282,1.7999070267612736,0.0,0.0
28.0,49.0,0.1,1.3558639905502403,2.1050017320219134,0.0,0.0
28.0,49.0,0.3,1.3558639905502403,2.1050017320219134,0.0,0.0
28.0,49.0,0.7,1.3558639905502403,2.1050017320219134,0.0,0.0
28.0,49.0,1.0,1.3558639905502403,2.1050017320219134,0.0,0.0
28.0,57.0,0.1,1.439897104958311,2.4553634118302012,0.0,0.0
28.0,57.0,0.3,1.439897104958311,2.4553634118302012,0.0,0.0
28.0,57.0,0.7,1.439897104958311,2.4553634118302012,0.0,0.0
28.0,57.0,1.0,1.439897104958311,2.4553634118302012,0.0,0.0
28.0,65.0,0.1,1.7642045763540053,2.905858400496727,0.0,0.0
28.0,65.0,0.3,1.7642045763540053,2.905858400496727,0.0,0.0
28.0,65.0,0.7,1.7642045763540053,2.905858400496727,0.0,0.0
28.0,65.0,1.0,1.7642045763540053,2.905858400496727,0.0,0.0
28.0,73.0,0.1,2.8297527702731387,3.628993913248747,0.0,0.0
28.0,73.0,0.3,2.8297527702731387,3.628993913248747,0.0,0.0
28.0,73.0,0.7,2.8297527702731387,3.628993913248747,0.0,0.0
28.0,73.0,1.0,2.8297527702731387,3.628993913248747,0.0,0.0
28.0,81.0,0.1,3.174335936808424,5.114727843795676,0.0,0.0
28.0,81.0,0.3,3.174335936808424,5.114727843795676,0.0,0.0
28.0,81.0,0.7,3.174335936808424,5.114727843795676,0.0,0.0
28.0,81.0,1.0,3.174335936808424,5.114727843795676,0.0,0.0
28.0,89.0,0.1,3.28185942631823,6.58810915731042,0.0,0.0
28.0,89.0,0.3,3.28185942631823,6.58810915731042,0.0,0.0
28.0,89.0,0.7,3.28185942631823,6.58810915731042,0.0,0.0
28.0,89.0,1.0,3.28185942631823,6.58810915731042,0.0,0.0
28.0,97.0,0.1,3.300042577497558,8.719382425855216,0.0,0.0
28.0,97.0,0.3,3.300042577497558,8.719382425855216,0.0,0.0
28.0,97.0,0.7,3.300042577497558,8.719382425855216,0.0,0.0
28.0,97.0,1.0,3.300042577497558,8.719382425855216,0.0,0.0
28.0,105.0,0.1,3.3036820596766003,8.827101717985226,0.0,0.0
28.0,105.0,0.3,3.3036820596766003,8.827101717985226,0.0,0.0
28.0,105.0,0.7,3.3036820596766003,8.827101717985226,0.0,0.0
28.0,105.0,1.0,3.3036820596766003,8.827101717985226,0.0,0.0
28.0,113.0,0.1,3.2923966930703368,9.203158255138263,0.0,0.0
28.0,113.0,0.3,3.2923966930703368,9.203158255138263,0.0,0.0
28.0,113.0,0.7,3.2923966930703368,9.203158255138263,0.0,0.0
28.0,113.0,1.0,3.2923966930703368,9.203158255138263,0.0,0.0
28.0,121.0,0.1,3.290185338833729,9.061474315680936,0.0,0.0
28.0,121.0,0.3,3.290185338833729,9.061474315680936,0.0,0.0
28.0,121.0,0.7,3.290185338833729,9.061474315680936,0.0,0.0
28.0,121.0,1.0,3.290185338833729,9.061474315680936,0.0,0.0
28.0,127.0,0.1,3.2878859951036996,9.430889426346111,0.0,0.0
28.0,127.0,0.3,3.2878859951036996,9.430889426346111,0.0,0.0
28.0,127.0,0.7,3.2878859951036996,9.430889426346111,0.0,0.0
28.0,127.0,1.0,3.2878859951036996,9.430889426346111,0.0,0.0
29.0,1.0,0.1,-3.466723866744249,-0.6072211813915611,0.0,0.0
29.0,1.0,0.3,-3.466723866744249,-0.6072211813915611,0.0,0.0
29.0,1.0,0.7,-3.466723866744249,-0.6072211813915611,0.0,0.0
29.0,1.0,1.0,-3.466723866744249,-0.6072211813915611,0.0,0.0
29.0,9.0,0.1,-2.5465303092385874,-1.226802728297733,0.0,0.0
29.0,9.0,0.3,-2.5465303092385874,-1.226802728297733,0.0,0.0
29.0,9.0,0.7,-2.5465303092385874,-1.226802728297733,0.0,0.0
29.0,9.0,1.0,-2.5465303092385874,-1.226802728297733,0.0,0.0
29.0,17.0,0.1,-3.378674318685891,0.6439693832018301,0.0,0.0
29.0,17.0,0.3,-3.378674318685891,0.6439693832018301,0.0,0.0
29.0,17.0,0.7,-3.378674318685891,0.6439693832018301,0.0,0.0
29.0,17.0,1.0,-3.378674318685891,0.6439693832018301,0.0,0.0
29.0,25.0,0.1,-3.359047733782436,0.9696370269010586,0.0,0.0
29.0,25.0,0.3,-3.359047733782436,0.9696370269010586,0.0,0.0
29.0,25.0,0.7,-3.359047733782436,0.9696370269010586,0.0,0.0
29.0,25.0,1.0,-3.359047733782436,0.9696370269010586,0.0,0.0
29.0,33.0,0.1,-3.424979914009885,1.3557828623193344,0.0,0.0
29.0,33.0,0.3,-3.424979914009885,1.3557828623193344,0.0,0.0
29.0,33.0,0.7,-3.424979914009885,1.3557828623193344,0.0,0.0
29.0,33.0,1.0,-3.424979914009885,1.3557828623193344,0.0,0.0
29.0,41.0,0.1,1.1543585911180667,1.951775348069356,0.0,0.0
29.0,41.0,0.3,1.1543585911180667,1.951775348069356,0.0,0.0
29.0,41.0,0.7,1.1543585911180667,1.951775348069356,0.0,0.0
29.0,41.0,1.0,1.1543585911180667,1.951775348069356,0.0,0.0
29.0,49.0,0.1,1.44276886468301,2.187358160841332,0.0,0.0
29.0,49.0,0.3,1.44276886468301,2.187358160841332,0.0,0.0
29.0,49.0,0.7,1.44276886468301,2.187358160841332,0.0,0.0
29.0,49.0,1.0,1.44276886468301,2.187358160841332,0.0,0.0
29.0,57.0,0.1,1.6181216867687416,2.6488062174802454,0.0,0.0
29.0,57.0,0.3,1.6181216867687416,2.6488062174802454,0.0,0.0
29.0,57.0,0.7,1.6181216867687416,2.6488062174802454,0.0,0.0
29.0,57.0,1.0,1.6181216867687416,2.6488062174802454,0.0,0.0
29.0,65.0,0.1,2.237474829930958,3.228462626719993,0.0,0.0
29.0,65.0,0.3,2.237474829930958,3.228462626719993,0.0,0.0
29.0,65.0,0.7,2.237474829930958,3.228462626719993,0.0,0.0
29.0,65.0,1.0,2.237474829930958,3.228462626719993,0.0,0.0
29.0,73.0,0.1,2.9053105815158737,4.328644169838981,0.0,0.0
29.0,73.0,0.3,2.9053105815158737,4.328644169838981,0.0,0.0
29.0,73.0,0.7,2.9053105815158737,4.328644169838981,0.0,0.0
29.0,73.0,1.0,2.9053105815158737,4.328644169838981,0.0,0.0
29.0,81.0,0.1,3.1947474577049295,5.460963872179593,0.0,0.0
29.0,81.0,0.3,3.1947474577049295,5.460963872179593,0.0,0.0
29.0,81.0,0.7,3.1947474577049295,5.460963872179593,0.0,0.0
29.0,81.0,1.0,3.1947474577049295,5.460963872179593,0.0,0.0
29.0,89.0,0.1,3.4137862226902915,8.291417972333363,0.0,0.0
29.0,89.0,0.3,3.4137862226902915,8.291417972333363,0.0,0.0
29.0,89.0,0.7,3.4137862226902915,8.291417972333363,0.0,0.0
29.0,89.0,1.0,3.4137862226902915,8.291417972333363,0.0,0.0
29.0,97.0,0.1,3.741116428259016,8.275782070101549,0.0,0.0
29.0,97.0,0.3,3.741116428259016,8.275782070101549,0.0,0.0
29.0,97.0,0.7,3.741116428259016,8.275782070101549,0.0,0.0
29.0,97.0,1.0,3.741116428259016,8.275782070101549,0.0,0.0
29.0,105.0,0.1,3.676129385189294,9.213607606209603,0.0,0.0
29.0,105.0,0.3,3.676129385189294,9.213607606209603,0.0,0.0
29.0,105.0,0.7,3.676129385189294,9.213607606209603,0.0,0.0
29.0,105.0,1.0,3.676129385189294,9.213607606209603,0.0,0.0
29.0,113.0,0.1,3.761966903970909,8.89805444693005,0.0,0.0
29.0,113.0,0.3,3.761966903970909,8.89805444693005,0.0,0.0
29.0,113.0,0.7,3.761966903970909,8.89805444693005,0.0,0.0
29.0,113.0,1.0,3.761966903970909,8.89805444693005,0.0,0.0
29.0,121.0,0.1,3.7279697762938078,8.349084963402904,0.0,0.0
29.0,121.0,0.3,3.7279697762938078,8.349084963402904,0.0,0.0
29.0,121.0,0.7,3.7279697762938078,8.349084963402904,0.0,0.0
29.0,121.0,1.0,3.7279697762938078,8.349084963402904,0.0,0.0
29.0,127.0,0.1,3.654362076702189,9.781060569240255,0.0,0.0
29.0,127.0,0.3,3.654362076702189,9.781060569240255,0.0,0.0
29.0,127.0,0.7,3.654362076702189,9.781060569240255,0.0,0.0
29.0,127.0,1.0,3.654362076702189,9.781060569240255,0.0,0.0
30.0,1.0,0.1,0.8925022479120233,0.02125490329812077,0.0,0.0
30.0,1.0,0.3,0.8925022479120233,0.02125490329812077,0.0,0.0
30.0,1.0,0.7,0.8925022479120233,0.02125490329812077,0.0,0.0
30.0,1.0,1.0,0.8925022479120233,0.02125490329812077,0.0,0.0
30.0,9.0,0.1,-2.080791542319422,0.40933222246213397,0.0,0.0
30.0,9.0,0.3,-2.080791542319422,0.40933222246213397,0.0,0.0
30.0,9.0,0.7,-2.080791542319422,0.40933222246213397,0.0,0.0
30.0,9.0,1.0,-2.080791542319422,0.40933222246213397,0.0,0.0
30.0,17.0,0.1,0.7313407163428725,0.6825541406138463,0.0,0.0
30.0,17.0,0.3,0.7313407163428725,0.6825541406138463,0.0,0.0
30.0,17.0,0.7,0.7313407163428725,0.6825541406138463,0.0,0.0
30.0,17.0,1.0,0.7313407163428725,0.6825541406138463,0.0,0.0
30.0,25.0,0.1,-2.19799689374722,1.0028960002271101,0.0,0.0
30.0,25.0,0.3,-2.19799689374722,1.0028960002271101,0.0,0.0
30.0,25.0,0.7,-2.19799689374722,1.0028960002271101,0.0,0.0
30.0,25.0,1.0,-2.19799689374722,1.0028960002271101,0.0,0.0
30.0,33.0,0.1,0.907395589951856,1.3623159126897342,0.0,0.0
30.0,33.0,0.3,0.907395589951856,1.3623159126897342,0.0,0.0
30.0,33.0,0.7,0.907395589951856,1.3623159126897342,0.0,0.0
30.0,33.0,1.0,0.907395589951856,1.3623159126897342,0.0,0.0
30.0,41.0,0.1,1.2689048253786679,1.9545082206601236,0.0,0.0
30.0,41.0,0.3,1.2689048253786679,1.9545082206601236,0.0,0.0
30.0,41.0,0.7,1.2689048253786679,1.9545082206601236,0.0,0.0
30.0,41.0,1.0,1.2689048253786679,1.9545082206601236,0.0,0.0
30.0,49.0,0.1,1.5378015624566475,2.1826270310575957,0.0,0.0
30.0,49.0,0.3,1.5378015624566475,2.1826270310575957,0.0,0.0
30.0,49.0,0.7,1.5378015624566475,2.1826270310575957,0.0,0.0
30.0,49.0,1.0,1.5378015624566475,2.1826270310575957,0.0,0.0
30.0,57.0,0.1,1.6327070300819242,2.5487688766838885,0.0,0.0
30.0,57.0,0.3,1.6327070300819242,2.5487688766838885,0.0,0.0
30.0,57.0,0.7,1.6327070300819242,2.5487688766838885,0.0,0.0
30.0,57.0,1.0,1.6327070300819242,2.5487688766838885,0.0,0.0
30.0,65.0,0.1,2.2523585007350126,3.0435683921390013,0.0,0.0
30.0,65.0,0.3,2.2523585007350126,3.0435683921390013,0.0,0.0
30.0,65.0,0.7,2.2523585007350126,3.0435683921390013,0.0,0.0
30.0,65.0,1.0,2.2523585007350126,3.0435683921390013,0.0,0.0
30.0,73.0,0.1,3.001413318786942,3.7190123208955863,0.0,0.0
30.0,73.0,0.3,3.001413318786942,3.7190123208955863,0.0,0.0
30.0,73.0,0.7,3.001413318786942,3.7190123208955863,0.0,0.0
30.0,73.0,1.0,3.001413318786942,3.7190123208955863,0.0,0.0
30.0,81.0,0.1,3.2255657263527855,4.839026320739307,0.0,0.0
30.0,81.0,0.3,3.2255657263527855,4.839026320739307,0.0,0.0
30.0,81.0,0.7,3.2255657263527855,4.839026320739307,0.0,0.0
30.0,81.0,1.0,3.2255657263527855,4.839026320739307,0.0,0.0
30.0,89.0,0.1,3.426738402069777,6.008228572597579,0.0,0.0
30.0,89.0,0.3,3.426738402069777,6.008228572597579,0.0,0.0
30.0,89.0,0.7,3.426738402069777,6.008228572597579,0.0,0.0
30.0,89.0,1.0,3.426738402069777,6.008228572597579,0.0,0.0
30.0,97.0,0.1,3.5574278274200064,9.44543527234616,0.0,0.0
30.0,97.0,0.3,3.5574278274200064,9.44543527234616,0.0,0.0
30.0,97.0,0.7,3.5574278274200064,9.44543527234616,0.0,0.0
30.0,97.0,1.0,3.5574278274200064,9.44543527234616,0.0,0.0
30.0,105.0,0.1,3.543585230763435,8.568294690414504,0.0,0.0
30.0,105.0,0.3,3.543585230763435,8.568294690414504,0.0,0.0
30.0,105.0,0.7,3.543585230763435,8.568294690414504,0.0,0.0
30.0,105.0,1.0,3.543585230763435,8.568294690414504,0.0,0.0
30.0,113.0,0.1,3.5662580057794324,9.557614562348407,0.0,0.0
30.0,113.0,0.3,3.5662580057794324,9.557614562348407,0.0,0.0
30.0,113.0,0.7,3.5662580057794324,9.557614562348407,0.0,0.0
30.0,113.0,1.0,3.5662580057794324,9.557614562348407,0.0,0.0
30.0,121.0,0.1,3.4988143274323322,9.559670919605999,0.0,0.0
30.0,121.0,0.3,3.4988143274323322,9.559670919605999,0.0,0.0
30.0,121.0,0.7,3.4988143274323322,9.559670919605999,0.0,0.0
30.0,121.0,1.0,3.4988143274323322,9.559670919605999,0.0,0.0
30.0,127.0,0.1,3.5035903508420785,9.444206086681042,0.0,0.0
30.0,127.0,0.3,3.5035903508420785,9.444206086681042,0.0,0.0
30.0,127.0,0.7,3.5035903508420785,9.444206086681042,0.0,0.0
30.0,127.0,1.0,3.5035903508420785,9.444206086681042,0.0,0.0
31.0,1.0,0.1,0.7424679790569975,0.4438968284886827,0.0,0.0
31.0,1.0,0.3,0.7424679790569975,0.4438968284886827,0.0,0.0
31.0,1.0,0.7,0.7424679790569975,0.4438968284886827,0.0,0.0
31.0,1.0,1.0,0.7424679790569975,0.4438968284886827,0.0,0.0
31.0,9.0,0.1,0.7711141162470667,-0.25984251978898226,0.0,0.0
31.0,9.0,0.3,0.7711141162470667,-0.25984251978898226,0.0,0.0
31.0,9.0,0.7,0.7711141162470667,-0.25984251978898226,0.0,0.0
31.0,9.0,1.0,0.7711141162470667,-0.25984251978898226,0.0,0.0
31.0,17.0,0.1,0.7400950038525427,0.5454151082317429,0.0,0.0
31.0,17.0,0.3,0.7400950038525427,0.5454151082317429,0.0,0.0
31.0,17.0,0.7,0.7400950038525427,0.5454151082317429,0.0,0.0
31.0,17.0,1.0,0.7400950038525427,0.5454151082317429,0.0,0.0
31.0,25.0,0.1,0.7099088728607937,0.7984431325277643,0.0,0.0
31.0,25.0,0.3,0.7099088728607937,0.7984431325277643,0.0,0.0
31.0,25.0,0.7,0.7099088728607937,0.7984431325277643,0.0,0.0
31.0,25.0,1.0,0.7099088728607937,0.7984431325277643,0.0,0.0
31.0,33.0,0.1,0.8513134961239402,1.2646226184843705,0.0,0.0
31.0,33.0,0.3,0.8513134961239402,1.2646226184843705,0.0,0.0
31.0,33.0,0.7,0.8513134961239402,1.2646226184843705,0.0,0.0
31.0,33.0,1.0,0.8513134961239402,1.2646226184843705,0.0,0.0
31.0,41.0,0.1,1.2069122738737295,1.8705489627487673,0.0,0.0
31.0,41.0,0.3,1.2069122738737295,1.8705489627487673,0.0,0.0
31.0,41.0,0.7,1.2069122738737295,1.8705489627487673,0.0,0.0
31.0,41.0,1.0,1.2069122738737295,1.8705489627487673,0.0,0.0
31.0,49.0,0.1,1.3404381622772106,2.1699077965975007,0.0,0.0
31.0,49.0,0.3,1.3404381622772106,2.1699077965975007,0.0,0.0
31.0,49.0,0.7,1.3404381622772106,2.1699077965975007,0.0,0.0
31.0,49.0,1.0,1.3404381622772106,2.1699077965975007,0.0,0.0
31.0,57.0,0.1,1.5854505120551046,2.5803568245360444,0.0,0.0
31.0,57.0,0.3,1.5854505120551046,2.5803568245360444,0.0,0.0
31.0,57.0,0.7,1.5854505120551046,2.5803568245360444,0.0,0.0
31.0,57.0,1.0,1.5854505120551046,2.5803568245360444,0.0,0.0
31.0,65.0,0.1,2.0509333481629044,3.0758893712626105,0.0,0.0
31.0,65.0,0.3,2.0509333481629044,3.0758893712626105,0.0,0.0
31.0,65.0,0.7,2.0509333481629044,3.0758893712626105,0.0,0.0
31.0,65.0,1.0,2.0509333481629044,3.0758893712626105,0.0,0.0
31.0,73.0,0.1,2.789728820089037,4.091116308964402,0.0,0.0
31.0,73.0,0.3,2.789728820089037,4.091116308964402,0.0,0.0
31.0,73.0,0.7,2.789728820089037,4.091116308964402,0.0,0.0
31.0,73.0,1.0,2.789728820089037,4.091116308964402,0.0,0.0
31.0,81.0,0.1,3.1476552515568113,5.124260844322789,0.0,0.0
31.0,81.0,0.3,3.1476552515568113,5.124260844322789,0.0,0.0
31.0,81.0,0.7,3.1476552515568113,5.124260844322789,0.0,0.0
31.0,81.0,1.0,3.1476552515568113,5.124260844322789,0.0,0.0
31.0,89.0,0.1,3.264797759440961,6.867947282600408,0.0,0.0
31.0,89.0,0.3,3.264797759440961,6.867947282600408,0.0,0.0
31.0,89.0,0.7,3.264797759440961,6.867947282600408,0.0,0.0
31.0,89.0,1.0,3.264797759440961,6.867947282600408,0.0,0.0
31.0,97.0,0.1,3.434210959398248,8.89079519779586,0.0,0.0
31.0,97.0,0.3,3.434210959398248,8.89079519779586,0.0,0.0
31.0,97.0,0.7,3.434210959398248,8.89079519779586,0.0,0.0
31.0,97.0,1.0,3.434210959398248,8.89079519779586,0.0,0.0
31.0,105.0,0.1,3.413949757904404,8.134952657776694,0.0,0.0
31.0,105.0,0.3,3.413949757904404,8.134952657776694,0.0,0.0
31.0,105.0,0.7,3.413949757904404,8.134952657776694,0.0,0.0
31.0,105.0,1.0,3.413949757904404,8.134952657776694,0.0,0.0
31.0,113.0,0.1,3.4096922308241937,8.873631369559616,0.0,0.0
31.0,113.0,0.3,3.4096922308241937,8.873631369559616,0.0,0.0
31.0,113.0,0.7,3.4096922308241937,8.873631369559616,0.0,0.0
31.0,113.0,1.0,3.4096922308241937,8.873631369559616,0.0,0.0
31.0,121.0,0.1,3.415559663193519,8.580407449341227,0.0,0.0
31.0,121.0,0.3,3.415559663193519,8.580407449341227,0.0,0.0
31.0,121.0,0.7,3.415559663193519,8.580407449341227,0.0,0.0
31.0,121.0,1.0,3.415559663193519,8.580407449341227,0.0,0.0
31.0,127.0,0.1,3.3974473035292956,8.448645142284748,0.0,0.0
31.0,127.0,0.3,3.3974473035292956,8.448645142284748,0.0,0.0
31.0,127.0,0.7,3.3974473035292956,8.448645142284748,0.0,0.0
31.0,127.0,1.0,3.3974473035292956,8.448645142284748,0.0,0.0
32.0,1.0,0.1,0.7167207517187684,-1.942339125149824,0.0,0.0
32.0,1.0,0.3,0.7167207517187684,-1.942339125149824,0.0,0.0
32.0,1.0,0.7,0.7167207517187684,-1.942339125149824,0.0,0.0
32.0,1.0,1.0,0.7167207517187684,-1.942339125149824,0.0,0.0
32.0,9.0,0.1,0.3454316024086285,-1.9348923537637177,0.0,0.0
32.0,9.0,0.3,0.3454316024086285,-1.9348923537637177,0.0,0.0
32.0,9.0,0.7,0.3454316024086285,-1.9348923537637177,0.0,0.0
32.0,9.0,1.0,0.3454316024086285,-1.9348923537637177,0.0,0.0
32.0,17.0,0.1,0.7551327663431634,1.1004587164175874,0.0,0.0
32.0,17.0,0.3,0.7551327663431634,1.1004587164175874,0.0,0.0
32.0,17.0,0.7,0.7551327663431634,1.1004587164175874,0.0,0.0
32.0,17.0,1.0,0.7551327663431634,1.1004587164175874,0.0,0.0
32.0,25.0,0.1,0.7025859185494291,1.7042942280385076,0.0,0.0
32.0,25.0,0.3,0.7025859185494291,1.7042942280385076,0.0,0.0
32.0,25.0,0.7,0.7025859185494291,1.7042942280385076,0.0,0.0
32.0,25.0,1.0,0.7025859185494291,1.7042942280385076,0.0,0.0
32.0,33.0,0.1,0.6919654966245984,2.0962712841538576,0.0,0.0
32.0,33.0,0.3,0.6919654966245984,2.0962712841538576,0.0,0.0
32.0,33.0,0.7,0.6919654966245984,2.0962712841538576,0.0,0.0
32.0,33.0,1.0,0.6919654966245984,2.0962712841538576,0.0,0.0
32.0,41.0,0.1,1.1990894659164026,2.2984828377321,0.0,0.0
32.0,41.0,0.3,1.1990894659164026,2.2984828377321,0.0,0.0
32.0,41.0,0.7,1.1990894659164026,2.2984828377321,0.0,0.0
32.0,41.0,1.0,1.1990894659164026,2.2984828377321,0.0,0.0
32.0,49.0,0.1,1.3644128686316392,2.7881990192891117,0.0,0.0
32.0,49.0,0.3,1.3644128686316392,2.7881990192891117,0.0,0.0
32.0,49.0,0.7,1.3644128686316392,2.7881990192891117,0.0,0.0
32.0,49.0,1.0,1.3644128686316392,2.7881990192891117,0.0,0.0
32.0,57.0,0.1,1.5696411109240578,3.2779804065506486,0.0,0.0
32.0,57.0,0.3,1.5696411109240578,3.2779804065506486,0.0,0.0
32.0,57.0,0.7,1.5696411109240578,3.2779804065506486,0.0,0.0
32.0,57.0,1.0,1.5696411109240578,3.2779804065506486,0.0,0.0
32.0,65.0,0.1,2.041482373586665,4.1365550598581216,0.0,0.0
32.0,65.0,0.3,2.041482373586665,4.1365550598581216,0.0,0.0
32.0,65.0,0.7,2.041482373586665,4.1365550598581216,0.0,0.0
32.0,65.0,1.0,2.041482373586665,4.1365550598581216,0.0,0.0
32.0,73.0,0.1,2.7764611970128024,5.28558526953935,0.0,0.0
32.0,73.0,0.3,2.7764611970128024,5.28558526953935,0.0,0.0
32.0,73.0,0.7,2.7764611970128024,5.28558526953935,0.0,0.0
32.0,73.0,1.0,2.7764611970128024,5.28558526953935,0.0,0.0
32.0,81.0,0.1,3.1653554127308845,7.357646872767624,0.0,0.0
32.0,81.0,0.3,3.1653554127308845,7.357646872767624,0.0,0.0
32.0,81.0,0.7,3.1653554127308845,7.357646872767624,0.0,0.0
32.0,81.0,1.0,3.1653554127308845,7.357646872767624,0.0,0.0
32.0,89.0,0.1,3.2521459955914183,9.288221211247027,0.0,0.0
32.0,89.0,0.3,3.2521459955914183,9.288221211247027,0.0,0.0
32.0,89.0,0.7,3.2521459955914183,9.288221211247027,0.0,0.0
32.0,89.0,1.0,3.2521459955914183,9.288221211247027,0.0,0.0
32.0,97.0,0.1,3.347789122034325,9.916045196917562,0.0,0.0
32.0,97.0,0.3,3.347789122034325,9.916045196917562,0.0,0.0
32.0,97.0,0.7,3.347789122034325,9.916045196917562,0.0,0.0
32.0,97.0,1.0,3.347789122034325,9.916045196917562,0.0,0.0
32.0,105.0,0.1,3.3332944188804556,10.184066472517065,0.0,0.0
32.0,105.0,0.3,3.3332944188804556,10.184066472517065,0.0,0.0
32.0,105.0,0.7,3.3332944188804556,10.184066472517065,0.0,0.0
32.0,105.0,1.0,3.3332944188804556,10.184066472517065,0.0,0.0
32.0,113.0,0.1,3.3294014887471404,9.691374342742996,0.0,0.0
32.0,113.0,0.3,3.3294014887471404,9.691374342742996,0.0,0.0
32.0,113.0,0.7,3.3294014887471404,9.691374342742996,0.0,0.0
32.0,113.0,1.0,3.3294014887471404,9.691374342742996,0.0,0.0
32.0,121.0,0.1,3.316896179973638,10.006037544451402,0.0,0.0
32.0,121.0,0.3,3.316896179973638,10.006037544451402,0.0,0.0
32.0,121.0,0.7,3.316896179973638,10.006037544451402,0.0,0.0
32.0,121.0,1.0,3.316896179973638,10.006037544451402,0.0,0.0
32.0,127.0,0.1,3.3086846988131877,9.305332223208419,0.0,0.0
32.0,127.0,0.3,3.3086846988131877,9.305332223208419,0.0,0.0
32.0,127.0,0.7,3.3086846988131877,9.305332223208419,0.0,0.0
32.0,127.0,1.0,3.3086846988131877,9.305332223208419,0.0,0.0
33.0,1.0,0.1,0.6407535624114917,-1.6504811829100154,0.0,0.0
33.0,1.0,0.3,0.6407535624114917,-1.6504811829100154,0.0,0.0
33.0,1.0,0.7,0.6407535624114917,-1.6504811829100154,0.0,0.0
33.0,1.0,1.0,0.6407535624114917,-1.6504811829100154,0.0,0.0
33.0,9.0,0.1,0.7293022478954949,-0.9463733647551307,0.0,0.0
33.0,9.0,0.3,0.7293022478954949,-0.9463733647551307,0.0,0.0
33.0,9.0,0.7,0.7293022478954949,-0.9463733647551307,0.0,0.0
33.0,9.0,1.0,0.7293022478954949,-0.9463733647551307,0.0,0.0
33.0,17.0,0.1,0.6444767871909354,0.45568711025681097,0.0,0.0
33.0,17.0,0.3,0.6444767871909354,0.45568711025681097,0.0,0.0
33.0,17.0,0.7,0.6444767871909354,0.45568711025681097,0.0,0.0
33.0,17.0,1.0,0.6444767871909354,0.45568711025681097,0.0,0.0
33.0,25.0,0.1,0.5861407416932745,0.9006226523085421,0.0,0.0
33.0,25.0,0.3,0.5861407416932745,0.9006226523085421,0.0,0.0
33.0,25.0,0.7,0.5861407416932745,0.9006226523085421,0.0,0.0
33.0,25.0,1.0,0.5861407416932745,0.9006226523085421,0.0,0.0
33.0,33.0,0.1,0.6650650668690516,1.430340422571985,0.0,0.0
33.0,33.0,0.3,0.6650650668690516,1.430340422571985,0.0,0.0
33.0,33.0,0.7,0.6650650668690516,1.430340422571985,0.0,0.0
33.0,33.0,1.0,0.6650650668690516,1.430340422571985,0.0,0.0
33.0,41.0,0.1,0.9085246307650165,2.058992272161414,0.0,0.0
33.0,41.0,0.3,0.9085246307650165,2.058992272161414,0.0,0.0
33.0,41.0,0.7,0.9085246307650165,2.058992272161414,0.0,0.0
33.0,41.0,1.0,0.9085246307650165,2.058992272161414,0.0,0.0
33.0,49.0,0.1,1.2005217701754969,2.3090362984445214,0.0,0.0
33.0,49.0,0.3,1.2005217701754969,2.3090362984445214,0.0,0.0
33.0,49.0,0.7,1.2005217701754969,2.3090362984445214,0.0,0.0
33.0,49.0,1.0,1.2005217701754969,2.3090362984445214,0.0,0.0
33.0,57.0,0.1,1.4060698581675557,2.7242181452524017,0.0,0.0
33.0,57.0,0.3,1.4060698581675557,2.7242181452524017,0.0,0.0
33.0,57.0,0.7,1.4060698581675557,2.7242181452524017,0.0,0.0
33.0,57.0,1.0,1.4060698581675557,2.7242181452524017,0.0,0.0
33.0,65.0,0.1,1.7031823494094671,3.27535726094621,0.0,0.0
33.0,65.0,0.3,1.7031823494094671,3.27535726094621,0.0,0.0
33.0,65.0,0.7,1.7031823494094671,3.27535726094621,0.0,0.0
33.0,65.0,1.0,1.7031823494094671,3.27535726094621,0.0,0.0
33.0,73.0,0.1,2.589095447408255,4.313807532886013,0.0,0.0
33.0,73.0,0.3,2.589095447408255,4.313807532886013,0.0,0.0
33.0,73.0,0.7,2.589095447408255,4.313807532886013,0.0,0.0
33.0,73.0,1.0,2.589095447408255,4.313807532886013,0.0,0.0
33.0,81.0,0.1,3.1072888505844705,5.331008772140892,0.0,0.0
33.0,81.0,0.3,3.1072888505844705,5.331008772140892,0.0,0.0
33.0,81.0,0.7,3.1072888505844705,5.331008772140892,0.0,0.0
33.0,81.0,1.0,3.1072888505844705,5.331008772140892,0.0,0.0
33.0,89.0,0.1,3.26161854967771,8.925444238561942,0.0,0.0
33.0,89.0,0.3,3.26161854967771,8.925444238561942,0.0,0.0
33.0,89.0,0.7,3.26161854967771,8.925444238561942,0.0,0.0
33.0,89.0,1.0,3.26161854967771,8.925444238561942,0.0,0.0
33.0,97.0,0.1,3.446474788803207,8.947431333214867,0.0,0.0
33.0,97.0,0.3,3.446474788803207,8.947431333214867,0.0,0.0
33.0,97.0,0.7,3.446474788803207,8.947431333214867,0.0,0.0
33.0,97.0,1.0,3.446474788803207,8.947431333214867,0.0,0.0
33.0,105.0,0.1,3.4461574814049123,8.828116108242407,0.0,0.0
33.0,105.0,0.3,3.4461574814049123,8.828116108242407,0.0,0.0
33.0,105.0,0.7,3.4461574814049123,8.828116108242407,0.0,0.0
33.0,105.0,1.0,3.4461574814049123,8.828116108242407,0.0,0.0
33.0,113.0,0.1,3.438720064682498,9.12198129332644,0.0,0.0
33.0,113.0,0.3,3.438720064682498,9.12198129332644,0.0,0.0
33.0,113.0,0.7,3.438720064682498,9.12198129332644,0.0,0.0
33.0,113.0,1.0,3.438720064682498,9.12198129332644,0.0,0.0
33.0,121.0,0.1,3.405651776355264,9.37538588798206,0.0,0.0
33.0,121.0,0.3,3.405651776355264,9.37538588798206,0.0,0.0
33.0,121.0,0.7,3.405651776355264,9.37538588798206,0.0,0.0
33.0,121.0,1.0,3.405651776355264,9.37538588798206,0.0,0.0
33.0,127.0,0.1,3.397407710017398,8.983805057672576,0.0,0.0
33.0,127.0,0.3,3.397407710017398,8.983805057672576,0.0,0.0
33.0,127.0,0.7,3.397407710017398,8.983805057672576,0.0,0.0
33.0,127.0,1.0,3.397407710017398,8.983805057672576,0.0,0.0
34.0,1.0,0.1,0.6869468693031865,-1.72644778056569,0.0,0.0
34.0,1.0,0.3,0.6869468693031865,-1.72644778056569,0.0,0.0
34.0,1.0,0.7,0.6869468693031865,-1.72644778056569,0.0,0.0
34.0,1.0,1.0,0.6869468693031865,-1.72644778056569,0.0,0.0
34.0,9.0,0.1,-2.2626569540284116,-1.449461245967376,0.0,0.0
34.0,9.0,0.3,-2.2626569540284116,-1.449461245967376,0.0,0.0
34.0,9.0,0.7,-2.2626569540284116,-1.449461245967376,0.0,0.0
34.0,9.0,1.0,-2.2626569540284116,-1.449461245967376,0.0,0.0
34.0,17.0,0.1,0.7463335883984118,-0.8725934442502374,0.0,0.0
34.0,17.0,0.3,0.7463335883984118,-0.8725934442502374,0.0,0.0
34.0,17.0,0.7,0.7463335883984118,-0.8725934442502374,0.0,0.0
34.0,17.0,1.0,0.7463335883984118,-0.8725934442502374,0.0,0.0
34.0,25.0,0.1,0.7224265577861267,0.8582270637752436,0.0,0.0
34.0,25.0,0.3,0.7224265577861267,0.8582270637752436,0.0,0.0
34.0,25.0,0.7,0.7224265577861267,0.8582270637752436,0.0,0.0
34.0,25.0,1.0,0.7224265577861267,0.8582270637752436,0.0,0.0
34.0,33.0,0.1,0.6625933519429773,1.4810880805040205,0.0,0.0
34.0,33.0,0.3,0.6625933519429773,1.4810880805040205,0.0,0.0
34.0,33.0,0.7,0.6625933519429773,1.4810880805040205,0.0,0.0
34.0,33.0,1.0,0.6625933519429773,1.4810880805040205,0.0,0.0
34.0,41.0,0.1,0.9083060539756892,1.9389936499904388,0.0,0.0
34.0,41.0,0.3,0.9083060539756892,1.9389936499904388,0.0,0.0
34.0,41.0,0.7,0.9083060539756892,1.9389936499904388,0.0,0.0
34.0,41.0,1.0,0.9083060539756892,1.9389936499904388,0.0,0.0
34.0,49.0,0.1,1.282425516213233,2.2158482986652306,0.0,0.0
34.0,49.0,0.3,1.282425516213233,2.2158482986652306,0.0,0.0
34.0,49.0,0.7,1.282425516213233,2.2158482986652306,0.0,0.0
34.0,49.0,1.0,1.282425516213233,2.2158482986652306,0.0,0.0
34.0,57.0,0.1,1.4272804127745247,2.6120155082016403,0.0,0.0
34.0,57.0,0.3,1.4272804127745247,2.6120155082016403,0.0,0.0
34.0,57.0,0.7,1.4272804127745247,2.6120155082016403,0.0,0.0
34.0,57.0,1.0,1.4272804127745247,2.6120155082016403,0.0,0.0
34.0,65.0,0.1,1.6946014371797835,3.1499724051311526,0.0,0.0
34.0,65.0,0.3,1.6946014371797835,3.1499724051311526,0.0,0.0
34.0,65.0,0.7,1.6946014371797835,3.1499724051311526,0.0,0.0
34.0,65.0,1.0,1.6946014371797835,3.1499724051311526,0.0,0.0
34.0,73.0,0.1,2.6112222354359913,3.795591410796901,0.0,0.0
34.0,73.0,0.3,2.6112222354359913,3.795591410796901,0.0,0.0
34.0,73.0,0.7,2.6112222354359913,3.795591410796901,0.0,0.0
34.0,73.0,1.0,2.6112222354359913,3.795591410796901,0.0,0.0
34.0,81.0,0.1,3.1318017468422528,5.133492982711083,0.0,0.0
34.0,81.0,0.3,3.1318017468422528,5.133492982711083,0.0,0.0
34.0,81.0,0.7,3.1318017468422528,5.133492982711083,0.0,0.0
34.0,81.0,1.0,3.1318017468422528,5.133492982711083,0.0,0.0
34.0,89.0,0.1,3.2287435786951386,8.437400868611716,0.0,0.0
34.0,89.0,0.3,3.2287435786951386,8.437400868611716,0.0,0.0
34.0,89.0,0.7,3.2287435786951386,8.437400868611716,0.0,0.0
34.0,89.0,1.0,3.2287435786951386,8.437400868611716,0.0,0.0
34.0,97.0,0.1,3.2832334552508122,9.118091374115707,0.0,0.0
34.0,97.0,0.3,3.2832334552508122,9.118091374115707,0.0,0.0
34.0,97.0,0.7,3.2832334552508122,9.118091374115707,0.0,0.0
34.0,97.0,1.0,3.2832334552508122,9.118091374115707,0.0,0.0
34.0,105.0,0.1,3.2779618826667023,9.466196422927228,0.0,0.0
34.0,105.0,0.3,3.2779618826667023,9.466196422927228,0.0,0.0
34.0,105.0,0.7,3.2779618826667023,9.466196422927228,0.0,0.0
34.0,105.0,1.0,3.2779618826667023,9.466196422927228,0.0,0.0
34.0,113.0,0.1,3.2770117413222324,9.15737387679978,0.0,0.0
34.0,113.0,0.3,3.2770117413222324,9.15737387679978,0.0,0.0
34.0,113.0,0.7,3.2770117413222324,9.15737387679978,0.0,0.0
34.0,113.0,1.0,3.2770117413222324,9.15737387679978,0.0,0.0
34.0,121.0,0.1,3.2701231392832066,9.375753206193796,0.0,0.0
34.0,121.0,0.3,3.2701231392832066,9.375753206193796,0.0,0.0
34.0,121.0,0.7,3.2701231392832066,9.375753206193796,0.0,0.0
34.0,121.0,1.0,3.2701231392832066,9.375753206193796,0.0,0.0
34.0,127.0,0.1,3.27150403806781,9.348731931093925,0.0,0.0
34.0,127.0,0.3,3.27150403806781,9.348731931093925,0.0,0.0
34.0,127.0,0.7,3.27150403806781,9.348731931093925,0.0,0.0
34.0,127.0,1.0,3.27150403806781,9.348731931093925,0.0,0.0
35.0,1.0,0.1,-3.4716562521050784,-1.8582268397840658,0.0,0.0
35.0,1.0,0.3,-3.4716562521050784,-1.8582268397840658,0.0,0.0
35.0,1.0,0.7,-3.4716562521050784,-1.8582268397840658,0.0,0.0
35.0,1.0,1.0,-3.4716562521050784,-1.8582268397840658,0.0,0.0
35.0,9.0,0.1,-3.897190311145363,-1.762470540101175,0.0,0.0
35.0,9.0,0.3,-3.897190311145363,-1.762470540101175,0.0,0.0
35.0,9.0,0.7,-3.897190311145363,-1.762470540101175,0.0,0.0
35.0,9.0,1.0,-3.897190311145363,-1.762470540101175,0.0,0.0
35.0,17.0,0.1,-3.5784432246262687,-1.1657982360727748,0.0,0.0
35.0,17.0,0.3,-3.5784432246262687,-1.1657982360727748,0.0,0.0
35.0,17.0,0.7,-3.5784432246262687,-1.1657982360727748,0.0,0.0
35.0,17.0,1.0,-3.5784432246262687,-1.1657982360727748,0.0,0.0
35.0,25.0,0.1,-2.5600952574731766,0.6803964490575994,0.0,0.0
35.0,25.0,0.3,-2.5600952574731766,0.6803964490575994,0.0,0.0
35.0,25.0,0.7,-2.5600952574731766,0.6803964490575994,0.0,0.0
35.0,25.0,1.0,-2.5600952574731766,0.6803964490575994,0.0,0.0
35.0,33.0,0.1,0.8420282178670973,0.8737490298145785,0.0,0.0
35.0,33.0,0.3,0.8420282178670973,0.8737490298145785,0.0,0.0
35.0,33.0,0.7,0.8420282178670973,0.8737490298145785,0.0,0.0
35.0,33.0,1.0,0.8420282178670973,0.8737490298145785,0.0,0.0
35.0,41.0,0.1,1.1781731942859828,1.4850084642959356,0.0,0.0
35.0,41.0,0.3,1.1781731942859828,1.4850084642959356,0.0,0.0
35.0,41.0,0.7,1.1781731942859828,1.4850084642959356,0.0,0.0
35.0,41.0,1.0,1.1781731942859828,1.4850084642959356,0.0,0.0
35.0,49.0,0.1,1.345525510869718,2.009677768186995,0.0,0.0
35.0,49.0,0.3,1.345525510869718,2.009677768186995,0.0,0.0
35.0,49.0,0.7,1.345525510869718,2.009677768186995,0.0,0.0
35.0,49.0,1.0,1.345525510869718,2.009677768186995,0.0,0.0
35.0,57.0,0.1,1.4996896193498361,2.365742856360124,0.0,0.0
35.0,57.0,0.3,1.4996896193498361,2.365742856360124,0.0,0.0
35.0,57.0,0.7,1.4996896193498361,2.365742856360124,0.0,0.0
35.0,57.0,1.0,1.4996896193498361,2.365742856360124,0.0,0.0
35.0,65.0,0.1,1.7817406252949084,2.870952504526713,0.0,0.0
35.0,65.0,0.3,1.7817406252949084,2.870952504526713,0.0,0.0
35.0,65.0,0.7,1.7817406252949084,2.870952504526713,0.0,0.0
35.0,65.0,1.0,1.7817406252949084,2.870952504526713,0.0,0.0
35.0,73.0,0.1,2.86649826656436,3.458057158139935,0.0,0.0
35.0,73.0,0.3,2.86649826656436,3.458057158139935,0.0,0.0
35.0,73.0,0.7,2.86649826656436,3.458057158139935,0.0,0.0
35.0,73.0,1.0,2.86649826656436,3.458057158139935,0.0,0.0
35.0,81.0,0.1,3.193627460252933,4.923849004445203,0.0,0.0
35.0,81.0,0.3,3.193627460252933,4.923849004445203,0.0,0.0
35.0,81.0,0.7,3.193627460252933,4.923849004445203,0.0,0.0
35.0,81.0,1.0,3.193627460252933,4.923849004445203,0.0,0.0
35.0,89.0,0.1,3.3770604297047617,8.81727556537965,0.0,0.0
35.0,89.0,0.3,3.3770604297047617,8.81727556537965,0.0,0.0
35.0,89.0,0.7,3.3770604297047617,8.81727556537965,0.0,0.0
35.0,89.0,1.0,3.3770604297047617,8.81727556537965,0.0,0.0
35.0,97.0,0.1,3.5141309073087967,9.579396738634035,0.0,0.0
35.0,97.0,0.3,3.5141309073087967,9.579396738634035,0.0,0.0
35.0,97.0,0.7,3.5141309073087967,9.579396738634035,0.0,0.0
35.0,97.0,1.0,3.5141309073087967,9.579396738634035,0.0,0.0
35.0,105.0,0.1,3.5124041532110377,9.358100222091846,0.0,0.0
35.0,105.0,0.3,3.5124041532110377,9.358100222091846,0.0,0.0
35.0,105.0,0.7,3.5124041532110377,9.358100222091846,0.0,0.0
35.0,105.0,1.0,3.5124041532110377,9.358100222091846,0.0,0.0
35.0,113.0,0.1,3.506154382986045,9.777817140686626,0.0,0.0
35.0,113.0,0.3,3.506154382986045,9.777817140686626,0.0,0.0
35.0,113.0,0.7,3.506154382986045,9.777817140686626,0.0,0.0
35.0,113.0,1.0,3.506154382986045,9.777817140686626,0.0,0.0
35.0,121.0,0.1,3.5119789960003085,9.448621173456234,0.0,0.0
35.0,121.0,0.3,3.5119789960003085,9.448621173456234,0.0,0.0
35.0,121.0,0.7,3.5119789960003085,9.448621173456234,0.0,0.0
35.0,121.0,1.0,3.5119789960003085,9.448621173456234,0.0,0.0
35.0,127.0,0.1,3.4965800695819254,9.395786118847711,0.0,0.0
35.0,127.0,0.3,3.4965800695819254,9.395786118847711,0.0,0.0
35.0,127.0,0.7,3.4965800695819254,9.395786118847711,0.0,0.0
35.0,127.0,1.0,3.4965800695819254,9.395786118847711,0.0,0.0
36.0,1.0,0.1,0.7254455749766662,-1.0923225877323302,0.0,0.0
36.0,1.0,0.3,0.7254455749766662,-1.0923225877323302,0.0,0.0
36.0,1.0,0.7,0.7254455749766662,-1.0923225877323302,0.0,0.0
36.0,1.0,1.0,0.7254455749766662,-1.0923225877323302,0.0,0.0
36.0,9.0,0.1,-3.783497815789887,-1.627846380909873,0.0,0.0
36.0,9.0,0.3,-3.783497815789887,-1.627846380909873,0.0,0.0
36.0,9.0,0.7,-3.783497815789887,-1.627846380909873,0.0,0.0
36.0,9.0,1.0,-3.783497815789887,-1.627846380909873,0.0,0.0
36.0,17.0,0.1,-3.4300141242099835,0.3820845549353286,0.0,0.0
36.0,17.0,0.3,-3.4300141242099835,0.3820845549353286,0.0,0.0
36.0,17.0,0.7,-3.4300141242099835,0.3820845549353286,0.0,0.0
36.0,17.0,1.0,-3.4300141242099835,0.3820845549353286,0.0,0.0
36.0,25.0,0.1,-3.6522270867737268,0.7900171841087953,0.0,0.0
36.0,25.0,0.3,-3.6522270867737268,0.7900171841087953,0.0,0.0
36.0,25.0,0.7,-3.6522270867737268,0.7900171841087953,0.0,0.0
36.0,25.0,1.0,-3.6522270867737268,0.7900171841087953,0.0,0.0
36.0,33.0,0.1,1.1399407300830555,1.2746890467459124,0.0,0.0
36.0,33.0,0.3,1.1399407300830555,1.2746890467459124,0.0,0.0
36.0,33.0,0.7,1.1399407300830555,1.2746890467459124,0.0,0.0
36.0,33.0,1.0,1.1399407300830555,1.2746890467459124,0.0,0.0
36.0,41.0,0.1,1.0679479582312201,1.9718728509228667,0.0,0.0
36.0,41.0,0.3,1.0679479582312201,1.9718728509228667,0.0,0.0
36.0,41.0,0.7,1.0679479582312201,1.9718728509228667,0.0,0.0
36.0,41.0,1.0,1.0679479582312201,1.9718728509228667,0.0,0.0
36.0,49.0,0.1,1.5046023145835217,2.3249028742579614,0.0,0.0
36.0,49.0,0.3,1.5046023145835217,2.3249028742579614,0.0,0.0
36.0,49.0,0.7,1.5046023145835217,2.3249028742579614,0.0,0.0
36.0,49.0,1.0,1.5046023145835217,2.3249028742579614,0.0,0.0
36.0,57.0,0.1,1.7072384836240853,2.876358953239865,0.0,0.0
36.0,57.0,0.3,1.7072384836240853,2.876358953239865,0.0,0.0
36.0,57.0,0.7,1.7072384836240853,2.876358953239865,0.0,0.0
36.0,57.0,1.0,1.7072384836240853,2.876358953239865,0.0,0.0
36.0,65.0,0.1,2.5918447593166842,3.4592901418310427,0.0,0.0
36.0,65.0,0.3,2.5918447593166842,3.4592901418310427,0.0,0.0
36.0,65.0,0.7,2.5918447593166842,3.4592901418310427,0.0,0.0
36.0,65.0,1.0,2.5918447593166842,3.4592901418310427,0.0,0.0
36.0,73.0,0.1,3.069446975550493,4.145443912541937,0.0,0.0
36.0,73.0,0.3,3.069446975550493,4.145443912541937,0.0,0.0
36.0,73.0,0.7,3.069446975550493,4.145443912541937,0.0,0.0
36.0,73.0,1.0,3.069446975550493,4.145443912541937,0.0,0.0
36.0,81.0,0.1,3.2198520581854364,5.472222284679067,0.0,0.0
36.0,81.0,0.3,3.2198520581854364,5.472222284679067,0.0,0.0
36.0,81.0,0.7,3.2198520581854364,5.472222284679067,0.0,0.0
36.0,81.0,1.0,3.2198520581854364,5.472222284679067,0.0,0.0
36.0,89.0,0.1,3.3605112224173865,7.911842400179149,0.0,0.0
36.0,89.0,0.3,3.3605112224173865,7.911842400179149,0.0,0.0
36.0,89.0,0.7,3.3605112224173865,7.911842400179149,0.0,0.0
36.0,89.0,1.0,3.3605112224173865,7.911842400179149,0.0,0.0
36.0,97.0,0.1,3.440911855700951,9.524980500124588,0.0,0.0
36.0,97.0,0.3,3.440911855700951,9.524980500124588,0.0,0.0
36.0,97.0,0.7,3.440911855700951,9.524980500124588,0.0,0.0
36.0,97.0,1.0,3.440911855700951,9.524980500124588,0.0,0.0
36.0,105.0,0.1,3.4270618989587214,9.27093184307234,0.0,0.0
36.0,105.0,0.3,3.4270618989587214,9.27093184307234,0.0,0.0
36.0,105.0,0.7,3.4270618989587214,9.27093184307234,0.0,0.0
36.0,105.0,1.0,3.4270618989587214,9.27093184307234,0.0,0.0
36.0,113.0,0.1,3.426773501635976,9.48593963933983,0.0,0.0
36.0,113.0,0.3,3.426773501635976,9.48593963933983,0.0,0.0
36.0,113.0,0.7,3.426773501635976,9.48593963933983,0.0,0.0
36.0,113.0,1.0,3.426773501635976,9.48593963933983,0.0,0.0
36.0,121.0,0.1,3.429378554348232,9.434443881167397,0.0,0.0
36.0,121.0,0.3,3.429378554348232,9.434443881167397,0.0,0.0
36.0,121.0,0.7,3.429378554348232,9.434443881167397,0.0,0.0
36.0,121.0,1.0,3.429378554348232,9.434443881167397,0.0,0.0
36.0,127.0,0.1,3.407684337047574,9.261149779158169,0.0,0.0
36.0,127.0,0.3,3.407684337047574,9.261149779158169,0.0,0.0
36.0,127.0,0.7,3.407684337047574,9.261149779158169,0.0,0.0
36.0,127.0,1.0,3.407684337047574,9.261149779158169,0.0,0.0
37.0,1.0,0.1,0.7853656969950737,-1.4421397539657794,0.0,0.0
37.0,1.0,0.3,0.7853656969950737,-1.4421397539657794,0.0,0.0
37.0,1.0,0.7,0.7853656969950737,-1.4421397539657794,0.0,0.0
37.0,1.0,1.0,0.7853656969950737,-1.4421397539657794,0.0,0.0
37.0,9.0,0.1,0.7563603548925121,-1.9559815937282263,0.0,0.0
37.0,9.0,0.3,0.7563603548925121,-1.9559815937282263,0.0,0.0
37.0,9.0,0.7,0.7563603548925121,-1.9559815937282263,0.0,0.0
37.0,9.0,1.0,0.7563603548925121,-1.9559815937282263,0.0,0.0
37.0,17.0,0.1,0.7696133912740379,0.3577578935594294,0.0,0.0
37.0,17.0,0.3,0.7696133912740379,0.3577578935594294,0.0,0.0
37.0,17.0,0.7,0.7696133912740379,0.3577578935594294,0.0,0.0
37.0,17.0,1.0,0.7696133912740379,0.3577578935594294,0.0,0.0
37.0,25.0,0.1,-2.1975962472969446,0.818425509815034,0.0,0.0
37.0,25.0,0.3,-2.1975962472969446,0.818425509815034,0.0,0.0
37.0,25.0,0.7,-2.1975962472969446,0.818425509815034,0.0,0.0
37.0,25.0,1.0,-2.1975962472969446,0.818425509815034,0.0,0.0
37.0,33.0,0.1,0.8875941391126405,1.2084476912423516,0.0,0.0
37.0,33.0,0.3,0.8875941391126405,1.2084476912423516,0.0,0.0
37.0,33.0,0.7,0.8875941391126405,1.2084476912423516,0.0,0.0
37.0,33.0,1.0,0.8875941391126405,1.2084476912423516,0.0,0.0
37.0,41.0,0.1,1.2703871054223712,1.9080969276260804,0.0,0.0
37.0,41.0,0.3,1.2703871054223712,1.9080969276260804,0.0,0.0
37.0,41.0,0.7,1.2703871054223712,1.9080969276260804,0.0,0.0
37.0,41.0,1.0,1.2703871054223712,1.9080969276260804,0.0,0.0
37.0,49.0,0.1,1.4181120494919797,2.241911560626358,0.0,0.0
37.0,49.0,0.3,1.4181120494919797,2.241911560626358,0.0,0.0
37.0,49.0,0.7,1.4181120494919797,2.241911560626358,0.0,0.0
37.0,49.0,1.0,1.4181120494919797,2.241911560626358,0.0,0.0
37.0,57.0,0.1,1.5212903218843326,2.584908308912917,0.0,0.0
37.0,57.0,0.3,1.5212903218843326,2.584908308912917,0.0,0.0
37.0,57.0,0.7,1.5212903218843326,2.584908308912917,0.0,0.0
37.0,57.0,1.0,1.5212903218843326,2.584908308912917,0.0,0.0
37.0,65.0,0.1,1.7608386809615166,3.131084827971398,0.0,0.0
37.0,65.0,0.3,1.7608386809615166,3.131084827971398,0.0,0.0
37.0,65.0,0.7,1.7608386809615166,3.131084827971398,0.0,0.0
37.0,65.0,1.0,1.7608386809615166,3.131084827971398,0.0,0.0
37.0,73.0,0.1,2.660363299771127,3.773064788749256,0.0,0.0
37.0,73.0,0.3,2.660363299771127,3.773064788749256,0.0,0.0
37.0,73.0,0.7,2.660363299771127,3.773064788749256,0.0,0.0
37.0,73.0,1.0,2.660363299771127,3.773064788749256,0.0,0.0
37.0,81.0,0.1,3.1287420237396373,5.234534515001208,0.0,0.0
37.0,81.0,0.3,3.1287420237396373,5.234534515001208,0.0,0.0
37.0,81.0,0.7,3.1287420237396373,5.234534515001208,0.0,0.0
37.0,81.0,1.0,3.1287420237396373,5.234534515001208,0.0,0.0
37.0,89.0,0.1,3.2988734696969173,6.87362154199194,0.0,0.0
37.0,89.0,0.3,3.2988734696969173,6.87362154199194,0.0,0.0
37.0,89.0,0.7,3.2988734696969173,6.87362154199194,0.0,0.0
37.0,89.0,1.0,3.2988734696969173,6.87362154199194,0.0,0.0
37.0,97.0,0.1,3.457280180331042,8.878211655227911,0.0,0.0
37.0,97.0,0.3,3.457280180331042,8.878211655227911,0.0,0.0
37.0,97.0,0.7,3.457280180331042,8.878211655227911,0.0,0.0
37.0,97.0,1.0,3.457280180331042,8.878211655227911,0.0,0.0
37.0,105.0,0.1,3.454355581507412,9.105890334548164,0.0,0.0
37.0,105.0,0.3,3.454355581507412,9.105890334548164,0.0,0.0
37.0,105.0,0.7,3.454355581507412,9.105890334548164,0.0,0.0
37.0,105.0,1.0,3.454355581507412,9.105890334548164,0.0,0.0
37.0,113.0,0.1,3.4423875088083804,9.111195592414981,0.0,0.0
37.0,113.0,0.3,3.4423875088083804,9.111195592414981,0.0,0.0
37.0,113.0,0.7,3.4423875088083804,9.111195592414981,0.0,0.0
37.0,113.0,1.0,3.4423875088083804,9.111195592414981,0.0,0.0
37.0,121.0,0.1,3.426729809249818,8.881826499276693,0.0,0.0
37.0,121.0,0.3,3.426729809249818,8.881826499276693,0.0,0.0
37.0,121.0,0.7,3.426729809249818,8.881826499276693,0.0,0.0
37.0,121.0,1.0,3.426729809249818,8.881826499276693,0.0,0.0
37.0,127.0,0.1,3.4084893892068244,8.92143581399407,0.0,0.0
37.0,127.0,0.3,3.4084893892068244,8.92143581399407,0.0,0.0
37.0,127.0,0.7,3.4084893892068244,8.92143581399407,0.0,0.0
37.0,127.0,1.0,3.4084893892068244,8.92143581399407,0.0,0.0
38.0,1.0,0.1,-1.8770238275416624,-1.853692400710637,0.0,0.0
38.0,1.0,0.3,-1.8770238275416624,-1.853692400710637,0.0,0.0
38.0,1.0,0.7,-1.8770238275416624,-1.853692400710637,0.0,0.0
38.0,1.0,1.0,-1.8770238275416624,-1.853692400710637,0.0,0.0
38.0,9.0,0.1,-1.9344758843878804,-1.7504960083315462,0.0,0.0
38.0,9.0,0.3,-1.9344758843878804,-1.7504960083315462,0.0,0.0
38.0,9.0,0.7,-1.9344758843878804,-1.7504960083315462,0.0,0.0
38.0,9.0,1.0,-1.9344758843878804,-1.7504960083315462,0.0,0.0
38.0,17.0,0.1,-1.649130541761253,-1.160108722217158,0.0,0.0
38.0,17.0,0.3,-1.649130541761253,-1.160108722217158,0.0,0.0
38.0,17.0,0.7,-1.649130541761253,-1.160108722217158,0.0,0.0
38.0,17.0,1.0,-1.649130541761253,-1.160108722217158,0.0,0.0
38.0,25.0,0.1,-1.9295061067948163,0.7448104041618415,0.0,0.0
38.0,25.0,0.3,-1.9295061067948163,0.7448104041618415,0.0,0.0
38.0,25.0,0.7,-1.9295061067948163,0.7448104041618415,0.0,0.0
38.0,25.0,1.0,-1.9295061067948163,0.7448104041618415,0.0,0.0
38.0,33.0,0.1,1.2444671598566261,1.117640693309425,0.0,0.0
38.0,33.0,0.3,1.2444671598566261,1.117640693309425,0.0,0.0
38.0,33.0,0.7,1.2444671598566261,1.117640693309425,0.0,0.0
38.0,33.0,1.0,1.2444671598566261,1.117640693309425,0.0,0.0
38.0,41.0,0.1,1.4348974131337136,1.6884510100605725,0.0,0.0
38.0,41.0,0.3,1.4348974131337136,1.6884510100605725,0.0,0.0
38.0,41.0,0.7,1.4348974131337136,1.6884510100605725,0.0,0.0
38.0,41.0,1.0,1.4348974131337136,1.6884510100605725,0.0,0.0
38.0,49.0,0.1,1.6142346228655848,2.173993343878824,0.0,0.0
38.0,49.0,0.3,1.6142346228655848,2.173993343878824,0.0,0.0
38.0,49.0,0.7,1.6142346228655848,2.173993343878824,0.0,0.0
38.0,49.0,1.0,1.6142346228655848,2.173993343878824,0.0,0.0
38.0,57.0,0.1,1.734821740307894,2.561115557344596,0.0,0.0
38.0,57.0,0.3,1.734821740307894,2.561115557344596,0.0,0.0
38.0,57.0,0.7,1.734821740307894,2.561115557344596,0.0,0.0
38.0,57.0,1.0,1.734821740307894,2.561115557344596,0.0,0.0
38.0,65.0,0.1,2.437371870414672,3.0910143163266546,0.0,0.0
38.0,65.0,0.3,2.437371870414672,3.0910143163266546,0.0,0.0
38.0,65.0,0.7,2.437371870414672,3.0910143163266546,0.0,0.0
38.0,65.0,1.0,2.437371870414672,3.0910143163266546,0.0,0.0
38.0,73.0,0.1,3.0235818729491646,3.8522518805519312,0.0,0.0
38.0,73.0,0.3,3.0235818729491646,3.8522518805519312,0.0,0.0
38.0,73.0,0.7,3.0235818729491646,3.8522518805519312,0.0,0.0
38.0,73.0,1.0,3.0235818729491646,3.8522518805519312,0.0,0.0
38.0,81.0,0.1,3.1970825301530663,4.823399200439546,0.0,0.0
38.0,81.0,0.3,3.1970825301530663,4.823399200439546,0.0,0.0
38.0,81.0,0.7,3.1970825301530663,4.823399200439546,0.0,0.0
38.0,81.0,1.0,3.1970825301530663,4.823399200439546,0.0,0.0
38.0,89.0,0.1,3.3553899643291656,5.655053217368516,0.0,0.0
38.0,89.0,0.3,3.3553899643291656,5.655053217368516,0.0,0.0
38.0,89.0,0.7,3.3553899643291656,5.655053217368516,0.0,0.0
38.0,89.0,1.0,3.3553899643291656,5.655053217368516,0.0,0.0
38.0,97.0,0.1,3.5161811269788803,9.3631816783784,0.0,0.0
38.0,97.0,0.3,3.5161811269788803,9.3631816783784,0.0,0.0
38.0,97.0,0.7,3.5161811269788803,9.3631816783784,0.0,0.0
38.0,97.0,1.0,3.5161811269788803,9.3631816783784,0.0,0.0
38.0,105.0,0.1,3.5108931761681816,9.34394699035381,0.0,0.0
38.0,105.0,0.3,3.5108931761681816,9.34394699035381,0.0,0.0
38.0,105.0,0.7,3.5108931761681816,9.34394699035381,0.0,0.0
38.0,105.0,1.0,3.5108931761681816,9.34394699035381,0.0,0.0
38.0,113.0,0.1,3.49636217786266,9.299212172675112,0.0,0.0
38.0,113.0,0.3,3.49636217786266,9.299212172675112,0.0,0.0
38.0,113.0,0.7,3.49636217786266,9.299212172675112,0.0,0.0
38.0,113.0,1.0,3.49636217786266,9.299212172675112,0.0,0.0
38.0,121.0,0.1,3.4899460302368515,9.229918131444288,0.0,0.0
38.0,121.0,0.3,3.4899460302368515,9.229918131444288,0.0,0.0
38.0,121.0,0.7,3.4899460302368515,9.229918131444288,0.0,0.0
38.0,121.0,1.0,3.4899460302368515,9.229918131444288,0.0,0.0
38.0,127.0,0.1,3.483038881983011,9.212577221071562,0.0,0.0
38.0,127.0,0.3,3.483038881983011,9.212577221071562,0.0,0.0
38.0,127.0,0.7,3.483038881983011,9.212577221071562,0.0,0.0
38.0,127.0,1.0,3.483038881983011,9.212577221071562,0.0,0.0
39.0,1.0,0.1,-2.0073859440711947,-1.8469400441615933,0.0,0.0
39.0,1.0,0.3,-2.0073859440711947,-1.8469400441615933,0.0,0.0
39.0,1.0,0.7,-2.0073859440711947,-1.8469400441615933,0.0,0.0
39.0,1.0,1.0,-2.0073859440711947,-1.8469400441615933,0.0,0.0
39.0,9.0,0.1,-2.1026653186351645,-1.8943485194004224,0.0,0.0
39.0,9.0,0.3,-2.1026653186351645,-1.8943485194004224,0.0,0.0
39.0,9.0,0.7,-2.1026653186351645,-1.8943485194004224,0.0,0.0
39.0,9.0,1.0,-2.1026653186351645,-1.8943485194004224,0.0,0.0
39.0,17.0,0.1,-1.9838975065404185,0.0264438722418725,0.0,0.0
39.0,17.0,0.3,-1.9838975065404185,0.0264438722418725,0.0,0.0
39.0,17.0,0.7,-1.9838975065404185,0.0264438722418725,0.0,0.0
39.0,17.0,1.0,-1.9838975065404185,0.0264438722418725,0.0,0.0
39.0,25.0,0.1,-1.5064179523220165,0.6653885206282666,0.0,0.0
39.0,25.0,0.3,-1.5064179523220165,0.6653885206282666,0.0,0.0
39.0,25.0,0.7,-1.5064179523220165,0.6653885206282666,0.0,0.0
39.0,25.0,1.0,-1.5064179523220165,0.6653885206282666,0.0,0.0
39.0,33.0,0.1,-2.428717925526624,0.8877034375426749,0.0,0.0
39.0,33.0,0.3,-2.428717925526624,0.8877034375426749,0.0,0.0
39.0,33.0,0.7,-2.428717925526624,0.8877034375426749,0.0,0.0
39.0,33.0,1.0,-2.428717925526624,0.8877034375426749,0.0,0.0
39.0,41.0,0.1,1.1459385033071559,1.3747140118571912,0.0,0.0
39.0,41.0,0.3,1.1459385033071559,1.3747140118571912,0.0,0.0
39.0,41.0,0.7,1.1459385033071559,1.3747140118571912,0.0,0.0
39.0,41.0,1.0,1.1459385033071559,1.3747140118571912,0.0,0.0
39.0,49.0,0.1,1.2482238528963976,1.9085290315914762,0.0,0.0
39.0,49.0,0.3,1.2482238528963976,1.9085290315914762,0.0,0.0
39.0,49.0,0.7,1.2482238528963976,1.9085290315914762,0.0,0.0
39.0,49.0,1.0,1.2482238528963976,1.9085290315914762,0.0,0.0
39.0,57.0,0.1,1.2695969554029718,2.3298169234176367,0.0,0.0
39.0,57.0,0.3,1.2695969554029718,2.3298169234176367,0.0,0.0
39.0,57.0,0.7,1.2695969554029718,2.3298169234176367,0.0,0.0
39.0,57.0,1.0,1.2695969554029718,2.3298169234176367,0.0,0.0
39.0,65.0,0.1,1.4591801505694302,2.8303282369264053,0.0,0.0
39.0,65.0,0.3,1.4591801505694302,2.8303282369264053,0.0,0.0
39.0,65.0,0.7,1.4591801505694302,2.8303282369264053,0.0,0.0
39.0,65.0,1.0,1.4591801505694302,2.8303282369264053,0.0,0.0
39.0,73.0,0.1,2.6138269095374635,3.2953210632391987,0.0,0.0
39.0,73.0,0.3,2.6138269095374635,3.2953210632391987,0.0,0.0
39.0,73.0,0.7,2.6138269095374635,3.2953210632391987,0.0,0.0
39.0,73.0,1.0,2.6138269095374635,3.2953210632391987,0.0,0.0
39.0,81.0,0.1,3.104157352483084,4.466494221425221,0.0,0.0
39.0,81.0,0.3,3.104157352483084,4.466494221425221,0.0,0.0
39.0,81.0,0.7,3.104157352483084,4.466494221425221,0.0,0.0
39.0,81.0,1.0,3.104157352483084,4.466494221425221,0.0,0.0
39.0,89.0,0.1,3.2791605022718886,5.3715597310807395,0.0,0.0
39.0,89.0,0.3,3.2791605022718886,5.3715597310807395,0.0,0.0
39.0,89.0,0.7,3.2791605022718886,5.3715597310807395,0.0,0.0
39.0,89.0,1.0,3.2791605022718886,5.3715597310807395,0.0,0.0
39.0,97.0,0.1,3.5138540647776417,7.318133264541553,0.0,0.0
39.0,97.0,0.3,3.5138540647776417,7.318133264541553,0.0,0.0
39.0,97.0,0.7,3.5138540647776417,7.318133264541553,0.0,0.0
39.0,97.0,1.0,3.5138540647776417,7.318133264541553,0.0,0.0
39.0,105.0,0.1,3.518232537077747,8.322458923970775,0.0,0.0
39.0,105.0,0.3,3.518232537077747,8.322458923970775,0.0,0.0
39.0,105.0,0.7,3.518232537077747,8.322458923970775,0.0,0.0
39.0,105.0,1.0,3.518232537077747,8.322458923970775,0.0,0.0
39.0,113.0,0.1,3.514318814530711,8.297874216807275,0.0,0.0
39.0,113.0,0.3,3.514318814530711,8.297874216807275,0.0,0.0
39.0,113.0,0.7,3.514318814530711,8.297874216807275,0.0,0.0
39.0,113.0,1.0,3.514318814530711,8.297874216807275,0.0,0.0
39.0,121.0,0.1,3.4982912193705906,8.213496134634847,0.0,0.0
39.0,121.0,0.3,3.4982912193705906,8.213496134634847,0.0,0.0
39.0,121.0,0.7,3.4982912193705906,8.213496134634847,0.0,0.0
39.0,121.0,1.0,3.4982912193705906,8.213496134634847,0.0,0.0
39.0,127.0,0.1,3.4926019622319133,8.200446154691816,0.0,0.0
39.0,127.0,0.3,3.4926019622319133,8.200446154691816,0.0,0.0
39.0,127.0,0.7,3.4926019622319133,8.200446154691816,0.0,0.0
39.0,127.0,1.0,3.4926019622319133,8.200446154691816,0.0,0.0
40.0,1.0,0.1,-1.399367981932013,-1.7459105731785707,0.0,0.0
40.0,1.0,0.3,-1.399367981932013,-1.7459105731785707,0.0,0.0
40.0,1.0,0.7,-1.399367981932013,-1.7459105731785707,0.0,0.0
40.0,1.0,1.0,-1.399367981932013,-1.7459105731785707,0.0,0.0
40.0,9.0,0.1,-1.79777198327378,-0.11862538978274922,0.0,0.0
40.0,9.0,0.3,-1.79777198327378,-0.11862538978274922,0.0,0.0
40.0,9.0,0.7,-1.79777198327378,-0.11862538978274922,0.0,0.0
40.0,9.0,1.0,-1.79777198327378,-0.11862538978274922,0.0,0.0
40.0,17.0,0.1,-2.0838429171841506,0.6500805464083844,0.0,0.0
40.0,17.0,0.3,-2.0838429171841506,0.6500805464083844,0.0,0.0
40.0,17.0,0.7,-2.0838429171841506,0.6500805464083844,0.0,0.0
40.0,17.0,1.0,-2.0838429171841506,0.6500805464083844,0.0,0.0
40.0,25.0,0.1,-2.1397373498563965,0.847718452495453,0.0,0.0
40.0,25.0,0.3,-2.1397373498563965,0.847718452495453,0.0,0.0
40.0,25.0,0.7,-2.1397373498563965,0.847718452495453,0.0,0.0
40.0,25.0,1.0,-2.1397373498563965,0.847718452495453,0.0,0.0
40.0,33.0,0.1,-2.292593817614832,1.2503845844756172,0.0,0.0
40.0,33.0,0.3,-2.292593817614832,1.2503845844756172,0.0,0.0
40.0,33.0,0.7,-2.292593817614832,1.2503845844756172,0.0,0.0
40.0,33.0,1.0,-2.292593817614832,1.2503845844756172,0.0,0.0
40.0,41.0,0.1,1.1762669247890627,1.7666410535398698,0.0,0.0
40.0,41.0,0.3,1.1762669247890627,1.7666410535398698,0.0,0.0
40.0,41.0,0.7,1.1762669247890627,1.7666410535398698,0.0,0.0
40.0,41.0,1.0,1.1762669247890627,1.7666410535398698,0.0,0.0
40.0,49.0,0.1,1.4236271808293255,2.1492964079659593,0.0,0.0
40.0,49.0,0.3,1.4236271808293255,2.1492964079659593,0.0,0.0
40.0,49.0,0.7,1.4236271808293255,2.1492964079659593,0.0,0.0
40.0,49.0,1.0,1.4236271808293255,2.1492964079659593,0.0,0.0
40.0,57.0,0.1,1.6531351729076027,2.5070279315849255,0.0,0.0
40.0,57.0,0.3,1.6531351729076027,2.5070279315849255,0.0,0.0
40.0,57.0,0.7,1.6531351729076027,2.5070279315849255,0.0,0.0
40.0,57.0,1.0,1.6531351729076027,2.5070279315849255,0.0,0.0
40.0,65.0,0.1,2.515267929541016,2.9845421725768975,0.0,0.0
40.0,65.0,0.3,2.515267929541016,2.9845421725768975,0.0,0.0
40.0,65.0,0.7,2.515267929541016,2.9845421725768975,0.0,0.0
40.0,65.0,1.0,2.515267929541016,2.9845421725768975,0.0,0.0
40.0,73.0,0.1,2.9405335627375346,3.653503351655127,0.0,0.0
40.0,73.0,0.3,2.9405335627375346,3.653503351655127,0.0,0.0
40.0,73.0,0.7,2.9405335627375346,3.653503351655127,0.0,0.0
40.0,73.0,1.0,2.9405335627375346,3.653503351655127,0.0,0.0
40.0,81.0,0.1,3.170566370324516,5.1011617262862154,0.0,0.0
40.0,81.0,0.3,3.170566370324516,5.1011617262862154,0.0,0.0
40.0,81.0,0.7,3.170566370324516,5.1011617262862154,0.0,0.0
40.0,81.0,1.0,3.170566370324516,5.1011617262862154,0.0,0.0
40.0,89.0,0.1,3.300099820556911,9.091680977446183,0.0,0.0
40.0,89.0,0.3,3.300099820556911,9.091680977446183,0.0,0.0
40.0,89.0,0.7,3.300099820556911,9.091680977446183,0.0,0.0
40.0,89.0,1.0,3.300099820556911,9.091680977446183,0.0,0.0
40.0,97.0,0.1,3.5354715744987955,9.080819192859861,0.0,0.0
40.0,97.0,0.3,3.5354715744987955,9.080819192859861,0.0,0.0
40.0,97.0,0.7,3.5354715744987955,9.080819192859861,0.0,0.0
40.0,97.0,1.0,3.5354715744987955,9.080819192859861,0.0,0.0
40.0,105.0,0.1,3.5097582482340584,9.098902516955624,0.0,0.0
40.0,105.0,0.3,3.5097582482340584,9.098902516955624,0.0,0.0
40.0,105.0,0.7,3.5097582482340584,9.098902516955624,0.0,0.0
40.0,105.0,1.0,3.5097582482340584,9.098902516955624,0.0,0.0
40.0,113.0,0.1,3.4923485967131027,9.000648637177932,0.0,0.0
40.0,113.0,0.3,3.4923485967131027,9.000648637177932,0.0,0.0
40.0,113.0,0.7,3.4923485967131027,9.000648637177932,0.0,0.0
40.0,113.0,1.0,3.4923485967131027,9.000648637177932,0.0,0.0
40.0,121.0,0.1,3.4955138389471374,9.011574543435458,0.0,0.0
40.0,121.0,0.3,3.4955138389471374,9.011574543435458,0.0,0.0
40.0,121.0,0.7,3.4955138389471374,9.011574543435458,0.0,0.0
40.0,121.0,1.0,3.4955138389471374,9.011574543435458,0.0,0.0
40.0,127.0,0.1,3.4781012426696676,9.003743054144143,0.0,0.0
40.0,127.0,0.3,3.4781012426696676,9.003743054144143,0.0,0.0
40.0,127.0,0.7,3.4781012426696676,9.003743054144143,0.0,0.0
40.0,127.0,1.0,3.4781012426696676,9.003743054144143,0.0,0.0
41.0,1.0,0.1,-2.3144684255060577,-1.7808786551714166,0.0,0.0
41.0,1.0,0.3,-2.3144684255060577,-1.7808786551714166,0.0,0.0
41.0,1.0,0.7,-2.3144684255060577,-1.7808786551714166,0.0,0.0
41.0,1.0,1.0,-2.3144684255060577,-1.7808786551714166,0.0,0.0
41.0,9.0,0.1,-2.093261235730095,-1.9052012538363032,0.0,0.0
41.0,9.0,0.3,-2.093261235730095,-1.9052012538363032,0.0,0.0
41.0,9.0,0.7,-2.093261235730095,-1.9052012538363032,0.0,0.0
41.0,9.0,1.0,-2.093261235730095,-1.9052012538363032,0.0,0.0
41.0,17.0,0.1,-1.8210879587008992,0.5823393902255951,0.0,0.0
41.0,17.0,0.3,-1.8210879587008992,0.5823393902255951,0.0,0.0
41.0,17.0,0.7,-1.8210879587008992,0.5823393902255951,0.0,0.0
41.0,17.0,1.0,-1.8210879587008992,0.5823393902255951,0.0,0.0
41.0,25.0,0.1,0.6353941700843291,0.8316226203466558,0.0,0.0
41.0,25.0,0.3,0.6353941700843291,0.8316226203466558,0.0,0.0
41.0,25.0,0.7,0.6353941700843291,0.8316226203466558,0.0,0.0
41.0,25.0,1.0,0.6353941700843291,0.8316226203466558,0.0,0.0
41.0,33.0,0.1,-0.13486830431089802,1.1962358631646257,0.0,0.0
41.0,33.0,0.3,-0.13486830431089802,1.1962358631646257,0.0,0.0
41.0,33.0,0.7,-0.13486830431089802,1.1962358631646257,0.0,0.0
41.0,33.0,1.0,-0.13486830431089802,1.1962358631646257,0.0,0.0
41.0,41.0,0.1,0.876177437511589,1.6979491256881047,0.0,0.0
41.0,41.0,0.3,0.876177437511589,1.6979491256881047,0.0,0.0
41.0,41.0,0.7,0.876177437511589,1.6979491256881047,0.0,0.0
41.0,41.0,1.0,0.876177437511589,1.6979491256881047,0.0,0.0
41.0,49.0,0.1,1.2355321021455172,2.035977067667926,0.0,0.0
41.0,49.0,0.3,1.2355321021455172,2.035977067667926,0.0,0.0
41.0,49.0,0.7,1.2355321021455172,2.035977067667926,0.0,0.0
41.0,49.0,1.0,1.2355321021455172,2.035977067667926,0.0,0.0
41.0,57.0,0.1,1.4422505821098879,2.3398925881291444,0.0,0.0
41.0,57.0,0.3,1.4422505821098879,2.3398925881291444,0.0,0.0
41.0,57.0,0.7,1.4422505821098879,2.3398925881291444,0.0,0.0
41.0,57.0,1.0,1.4422505821098879,2.3398925881291444,0.0,0.0
41.0,65.0,0.1,1.6764014562854166,2.6518023305009604,0.0,0.0
41.0,65.0,0.3,1.6764014562854166,2.6518023305009604,0.0,0.0
41.0,65.0,0.7,1.6764014562854166,2.6518023305009604,0.0,0.0
41.0,65.0,1.0,1.6764014562854166,2.6518023305009604,0.0,0.0
41.0,73.0,0.1,2.2757192606365253,3.221890525154179,0.0,0.0
41.0,73.0,0.3,2.2757192606365253,3.221890525154179,0.0,0.0
41.0,73.0,0.7,2.2757192606365253,3.221890525154179,0.0,0.0
41.0,73.0,1.0,2.2757192606365253,3.221890525154179,0.0,0.0
41.0,81.0,0.1,3.081670687294605,4.297506082502646,0.0,0.0
41.0,81.0,0.3,3.081670687294605,4.297506082502646,0.0,0.0
41.0,81.0,0.7,3.081670687294605,4.297506082502646,0.0,0.0
41.0,81.0,1.0,3.081670687294605,4.297506082502646,0.0,0.0
41.0,89.0,0.1,3.2260482962048314,5.503468423727874,0.0,0.0
41.0,89.0,0.3,3.2260482962048314,5.503468423727874,0.0,0.0
41.0,89.0,0.7,3.2260482962048314,5.503468423727874,0.0,0.0
41.0,89.0,1.0,3.2260482962048314,5.503468423727874,0.0,0.0
41.0,97.0,0.1,3.3583125567220957,8.916738532878636,0.0,0.0
41.0,97.0,0.3,3.3583125567220957,8.916738532878636,0.0,0.0
41.0,97.0,0.7,3.3583125567220957,8.916738532878636,0.0,0.0
41.0,97.0,1.0,3.3583125567220957,8.916738532878636,0.0,0.0
41.0,105.0,0.1,3.4178213073077055,9.130375292865116,0.0,0.0
41.0,105.0,0.3,3.4178213073077055,9.130375292865116,0.0,0.0
41.0,105.0,0.7,3.4178213073077055,9.130375292865116,0.0,0.0
41.0,105.0,1.0,3.4178213073077055,9.130375292865116,0.0,0.0
41.0,113.0,0.1,3.408307099923793,9.065336503670697,0.0,0.0
41.0,113.0,0.3,3.408307099923793,9.065336503670697,0.0,0.0
41.0,113.0,0.7,3.408307099923793,9.065336503670697,0.0,0.0
41.0,113.0,1.0,3.408307099923793,9.065336503670697,0.0,0.0
41.0,121.0,0.1,3.3154236085780577,8.866529941349215,0.0,0.0
41.0,121.0,0.3,3.3154236085780577,8.866529941349215,0.0,0.0
41.0,121.0,0.7,3.3154236085780577,8.866529941349215,0.0,0.0
41.0,121.0,1.0,3.3154236085780577,8.866529941349215,0.0,0.0
41.0,127.0,0.1,3.318755590915917,8.990924499544139,0.0,0.0
41.0,127.0,0.3,3.318755590915917,8.990924499544139,0.0,0.0
41.0,127.0,0.7,3.318755590915917,8.990924499544139,0.0,0.0
41.0,127.0,1.0,3.318755590915917,8.990924499544139,0.0,0.0
42.0,1.0,0.1,-3.5851625184236493,-0.6516454155849287,0.0,0.0
42.0,1.0,0.3,-3.5851625184236493,-0.6516454155849287,0.0,0.0
42.0,1.0,0.7,-3.5851625184236493,-0.6516454155849287,0.0,0.0
42.0,1.0,1.0,-3.5851625184236493,-0.6516454155849287,0.0,0.0
42.0,9.0,0.1,-4.180563114090004,-1.6076713654477337,0.0,0.0
42.0,9.0,0.3,-4.180563114090004,-1.6076713654477337,0.0,0.0
42.0,9.0,0.7,-4.180563114090004,-1.6076713654477337,0.0,0.0
42.0,9.0,1.0,-4.180563114090004,-1.6076713654477337,0.0,0.0
42.0,17.0,0.1,-2.8602369950750726,0.647268857216276,0.0,0.0
42.0,17.0,0.3,-2.8602369950750726,0.647268857216276,0.0,0.0
42.0,17.0,0.7,-2.8602369950750726,0.647268857216276,0.0,0.0
42.0,17.0,1.0,-2.8602369950750726,0.647268857216276,0.0,0.0
42.0,25.0,0.1,-3.1851147841226766,0.9229086993973731,0.0,0.0
42.0,25.0,0.3,-3.1851147841226766,0.9229086993973731,0.0,0.0
42.0,25.0,0.7,-3.1851147841226766,0.9229086993973731,0.0,0.0
42.0,25.0,1.0,-3.1851147841226766,0.9229086993973731,0.0,0.0
42.0,33.0,0.1,1.1847213373384349,1.322767327920787,0.0,0.0
42.0,33.0,0.3,1.1847213373384349,1.322767327920787,0.0,0.0
42.0,33.0,0.7,1.1847213373384349,1.322767327920787,0.0,0.0
42.0,33.0,1.0,1.1847213373384349,1.322767327920787,0.0,0.0
42.0,41.0,0.1,1.5293058426015904,1.8772025164451511,0.0,0.0
42.0,41.0,0.3,1.5293058426015904,1.8772025164451511,0.0,0.0
42.0,41.0,0.7,1.5293058426015904,1.8772025164451511,0.0,0.0
42.0,41.0,1.0,1.5293058426015904,1.8772025164451511,0.0,0.0
42.0,49.0,0.1,1.56149065281033,2.1468103991144,0.0,0.0
42.0,49.0,0.3,1.56149065281033,2.1468103991144,0.0,0.0
42.0,49.0,0.7,1.56149065281033,2.1468103991144,0.0,0.0
42.0,49.0,1.0,1.56149065281033,2.1468103991144,0.0,0.0
42.0,57.0,0.1,1.746133408629185,2.4292832420207593,0.0,0.0
42.0,57.0,0.3,1.746133408629185,2.4292832420207593,0.0,0.0
42.0,57.0,0.7,1.746133408629185,2.4292832420207593,0.0,0.0
42.0,57.0,1.0,1.746133408629185,2.4292832420207593,0.0,0.0
42.0,65.0,0.1,2.5612802111127255,2.948512820827282,0.0,0.0
42.0,65.0,0.3,2.5612802111127255,2.948512820827282,0.0,0.0
42.0,65.0,0.7,2.5612802111127255,2.948512820827282,0.0,0.0
42.0,65.0,1.0,2.5612802111127255,2.948512820827282,0.0,0.0
42.0,73.0,0.1,3.038225663970957,3.4837041126449106,0.0,0.0
42.0,73.0,0.3,3.038225663970957,3.4837041126449106,0.0,0.0
42.0,73.0,0.7,3.038225663970957,3.4837041126449106,0.0,0.0
42.0,73.0,1.0,3.038225663970957,3.4837041126449106,0.0,0.0
42.0,81.0,0.1,3.219606171218242,4.941069089391873,0.0,0.0
42.0,81.0,0.3,3.219606171218242,4.941069089391873,0.0,0.0
42.0,81.0,0.7,3.219606171218242,4.941069089391873,0.0,0.0
42.0,81.0,1.0,3.219606171218242,4.941069089391873,0.0,0.0
42.0,89.0,0.1,3.4333317970091235,5.8065838458558385,0.0,0.0
42.0,89.0,0.3,3.4333317970091235,5.8065838458558385,0.0,0.0
42.0,89.0,0.7,3.4333317970091235,5.8065838458558385,0.0,0.0
42.0,89.0,1.0,3.4333317970091235,5.8065838458558385,0.0,0.0
42.0,97.0,0.1,3.5761377371948027,8.014956699058915,0.0,0.0
42.0,97.0,0.3,3.5761377371948027,8.014956699058915,0.0,0.0
42.0,97.0,0.7,3.5761377371948027,8.014956699058915,0.0,0.0
42.0,97.0,1.0,3.5761377371948027,8.014956699058915,0.0,0.0
42.0,105.0,0.1,3.567154990039685,9.143768225760414,0.0,0.0
42.0,105.0,0.3,3.567154990039685,9.143768225760414,0.0,0.0
42.0,105.0,0.7,3.567154990039685,9.143768225760414,0.0,0.0
42.0,105.0,1.0,3.567154990039685,9.143768225760414,0.0,0.0
42.0,113.0,0.1,3.555219552245952,9.04727501994191,0.0,0.0
42.0,113.0,0.3,3.555219552245952,9.04727501994191,0.0,0.0
42.0,113.0,0.7,3.555219552245952,9.04727501994191,0.0,0.0
42.0,113.0,1.0,3.555219552245952,9.04727501994191,0.0,0.0
42.0,121.0,0.1,3.5524220698347504,8.990014815041636,0.0,0.0
42.0,121.0,0.3,3.5524220698347504,8.990014815041636,0.0,0.0
42.0,121.0,0.7,3.5524220698347504,8.990014815041636,0.0,0.0
42.0,121.0,1.0,3.5524220698347504,8.990014815041636,0.0,0.0
42.0,127.0,0.1,3.5384485681977624,8.964957523695956,0.0,0.0
42.0,127.0,0.3,3.5384485681977624,8.964957523695956,0.0,0.0
42.0,127.0,0.7,3.5384485681977624,8.964957523695956,0.0,0.0
42.0,127.0,1.0,3.5384485681977624,8.964957523695956,0.0,0.0
43.0,1.0,0.1,-3.802400094209063,-1.8325451867919182,0.0,0.0
43.0,1.0,0.3,-3.802400094209063,-1.8325451867919182,0.0,0.0
43.0,1.0,0.7,-3.802400094209063,-1.8325451867919182,0.0,0.0
43.0,1.0,1.0,-3.802400094209063,-1.8325451867919182,0.0,0.0
43.0,9.0,0.1,-3.8740424425976547,-1.9188815484507298,0.0,0.0
43.0,9.0,0.3,-3.8740424425976547,-1.9188815484507298,0.0,0.0
43.0,9.0,0.7,-3.8740424425976547,-1.9188815484507298,0.0,0.0
43.0,9.0,1.0,-3.8740424425976547,-1.9188815484507298,0.0,0.0
43.0,17.0,0.1,-3.7561360400627537,-1.7091208366865673,0.0,0.0
43.0,17.0,0.3,-3.7561360400627537,-1.7091208366865673,0.0,0.0
43.0,17.0,0.7,-3.7561360400627537,-1.7091208366865673,0.0,0.0
43.0,17.0,1.0,-3.7561360400627537,-1.7091208366865673,0.0,0.0
43.0,25.0,0.1,-4.003842221978606,0.6876467709671663,0.0,0.0
43.0,25.0,0.3,-4.003842221978606,0.6876467709671663,0.0,0.0
43.0,25.0,0.7,-4.003842221978606,0.6876467709671663,0.0,0.0
43.0,25.0,1.0,-4.003842221978606,0.6876467709671663,0.0,0.0
43.0,33.0,0.1,-3.6419485340243165,1.0661664164294178,0.0,0.0
43.0,33.0,0.3,-3.6419485340243165,1.0661664164294178,0.0,0.0
43.0,33.0,0.7,-3.6419485340243165,1.0661664164294178,0.0,0.0
43.0,33.0,1.0,-3.6419485340243165,1.0661664164294178,0.0,0.0
43.0,41.0,0.1,1.2454421978337546,1.7860354435538235,0.0,0.0
43.0,41.0,0.3,1.2454421978337546,1.7860354435538235,0.0,0.0
43.0,41.0,0.7,1.2454421978337546,1.7860354435538235,0.0,0.0
43.0,41.0,1.0,1.2454421978337546,1.7860354435538235,0.0,0.0
43.0,49.0,0.1,1.4413318699398587,2.2173727251994912,0.0,0.0
43.0,49.0,0.3,1.4413318699398587,2.2173727251994912,0.0,0.0
43.0,49.0,0.7,1.4413318699398587,2.2173727251994912,0.0,0.0
43.0,49.0,1.0,1.4413318699398587,2.2173727251994912,0.0,0.0
43.0,57.0,0.1,1.5569048498368723,2.5784382616721806,0.0,0.0
43.0,57.0,0.3,1.5569048498368723,2.5784382616721806,0.0,0.0
43.0,57.0,0.7,1.5569048498368723,2.5784382616721806,0.0,0.0
43.0,57.0,1.0,1.5569048498368723,2.5784382616721806,0.0,0.0
43.0,65.0,0.1,1.763289243984721,3.1115331984648984,0.0,0.0
43.0,65.0,0.3,1.763289243984721,3.1115331984648984,0.0,0.0
43.0,65.0,0.7,1.763289243984721,3.1115331984648984,0.0,0.0
43.0,65.0,1.0,1.763289243984721,3.1115331984648984,0.0,0.0
43.0,73.0,0.1,2.7226913394353858,3.7625601420025347,0.0,0.0
43.0,73.0,0.3,2.7226913394353858,3.7625601420025347,0.0,0.0
43.0,73.0,0.7,2.7226913394353858,3.7625601420025347,0.0,0.0
43.0,73.0,1.0,2.7226913394353858,3.7625601420025347,0.0,0.0
43.0,81.0,0.1,3.1117423799763304,4.920557065255228,0.0,0.0
43.0,81.0,0.3,3.1117423799763304,4.920557065255228,0.0,0.0
43.0,81.0,0.7,3.1117423799763304,4.920557065255228,0.0,0.0
43.0,81.0,1.0,3.1117423799763304,4.920557065255228,0.0,0.0
43.0,89.0,0.1,3.2691243016450695,5.73682519683289,0.0,0.0
43.0,89.0,0.3,3.2691243016450695,5.73682519683289,0.0,0.0
43.0,89.0,0.7,3.2691243016450695,5.73682519683289,0.0,0.0
43.0,89.0,1.0,3.2691243016450695,5.73682519683289,0.0,0.0
43.0,97.0,0.1,3.485163560994351,7.671232749516866,0.0,0.0
43.0,97.0,0.3,3.485163560994351,7.671232749516866,0.0,0.0
43.0,97.0,0.7,3.485163560994351,7.671232749516866,0.0,0.0
43.0,97.0,1.0,3.485163560994351,7.671232749516866,0.0,0.0
43.0,105.0,0.1,3.4708226734509156,9.83795835732709,0.0,0.0
43.0,105.0,0.3,3.4708226734509156,9.83795835732709,0.0,0.0
43.0,105.0,0.7,3.4708226734509156,9.83795835732709,0.0,0.0
43.0,105.0,1.0,3.4708226734509156,9.83795835732709,0.0,0.0
43.0,113.0,0.1,3.461698036012239,9.729153102273251,0.0,0.0
43.0,113.0,0.3,3.461698036012239,9.729153102273251,0.0,0.0
43.0,113.0,0.7,3.461698036012239,9.729153102273251,0.0,0.0
43.0,113.0,1.0,3.461698036012239,9.729153102273251,0.0,0.0
43.0,121.0,0.1,3.449961103526373,9.756425659421751,0.0,0.0
43.0,121.0,0.3,3.449961103526373,9.756425659421751,0.0,0.0
43.0,121.0,0.7,3.449961103526373,9.756425659421751,0.0,0.0
43.0,121.0,1.0,3.449961103526373,9.756425659421751,0.0,0.0
43.0,127.0,0.1,3.4359035601299235,9.726329248533926,0.0,0.0
43.0,127.0,0.3,3.4359035601299235,9.726329248533926,0.0,0.0
43.0,127.0,0.7,3.4359035601299235,9.726329248533926,0.0,0.0
43.0,127.0,1.0,3.4359035601299235,9.726329248533926,0.0,0.0
44.0,1.0,0.1,-3.7567381867413676,0.3215289647589456,0.0,0.0
44.0,1.0,0.3,-3.7567381867413676,0.3215289647589456,0.0,0.0
44.0,1.0,0.7,-3.7567381867413676,0.3215289647589456,0.0,0.0
44.0,1.0,1.0,-3.7567381867413676,0.3215289647589456,0.0,0.0
44.0,9.0,0.1,-3.4252673756741903,-0.5802415310425069,0.0,0.0
44.0,9.0,0.3,-3.4252673756741903,-0.5802415310425069,0.0,0.0
44.0,9.0,0.7,-3.4252673756741903,-0.5802415310425069,0.0,0.0
44.0,9.0,1.0,-3.4252673756741903,-0.5802415310425069,0.0,0.0
44.0,17.0,0.1,-2.890699191422871,0.46275804357426237,0.0,0.0
44.0,17.0,0.3,-2.890699191422871,0.46275804357426237,0.0,0.0
44.0,17.0,0.7,-2.890699191422871,0.46275804357426237,0.0,0.0
44.0,17.0,1.0,-2.890699191422871,0.46275804357426237,0.0,0.0
44.0,25.0,0.1,-3.8301244561266907,0.7730207096197317,0.0,0.0
44.0,25.0,0.3,-3.8301244561266907,0.7730207096197317,0.0,0.0
44.0,25.0,0.7,-3.8301244561266907,0.7730207096197317,0.0,0.0
44.0,25.0,1.0,-3.8301244561266907,0.7730207096197317,0.0,0.0
44.0,33.0,0.1,-1.910045654205365,1.1837493273461308,0.0,0.0
44.0,33.0,0.3,-1.910045654205365,1.1837493273461308,0.0,0.0
44.0,33.0,0.7,-1.910045654205365,1.1837493273461308,0.0,0.0
44.0,33.0,1.0,-1.910045654205365,1.1837493273461308,0.0,0.0
44.0,41.0,0.1,1.3779170650380068,2.0170206741122625,0.0,0.0
44.0,41.0,0.3,1.3779170650380068,2.0170206741122625,0.0,0.0
44.0,41.0,0.7,1.3779170650380068,2.0170206741122625,0.0,0.0
44.0,41.0,1.0,1.3779170650380068,2.0170206741122625,0.0,0.0
44.0,49.0,0.1,1.5252898240568218,2.3195742315986196,0.0,0.0
44.0,49.0,0.3,1.5252898240568218,2.3195742315986196,0.0,0.0
44.0,49.0,0.7,1.5252898240568218,2.3195742315986196,0.0,0.0
44.0,49.0,1.0,1.5252898240568218,2.3195742315986196,0.0,0.0
44.0,57.0,0.1,1.6414414704242017,2.616731177955764,0.0,0.0
44.0,57.0,0.3,1.6414414704242017,2.616731177955764,0.0,0.0
44.0,57.0,0.7,1.6414414704242017,2.616731177955764,0.0,0.0
44.0,57.0,1.0,1.6414414704242017,2.616731177955764,0.0,0.0
44.0,65.0,0.1,2.376611043824566,3.2339364309573586,0.0,0.0
44.0,65.0,0.3,2.376611043824566,3.2339364309573586,0.0,0.0
44.0,65.0,0.7,2.376611043824566,3.2339364309573586,0.0,0.0
44.0,65.0,1.0,2.376611043824566,3.2339364309573586,0.0,0.0
44.0,73.0,0.1,2.9339197682602483,4.144518499978648,0.0,0.0
44.0,73.0,0.3,2.9339197682602483,4.144518499978648,0.0,0.0
44.0,73.0,0.7,2.9339197682602483,4.144518499978648,0.0,0.0
44.0,73.0,1.0,2.9339197682602483,4.144518499978648,0.0,0.0
44.0,81.0,0.1,3.181379641929595,5.339549522208488,0.0,0.0
44.0,81.0,0.3,3.181379641929595,5.339549522208488,0.0,0.0
44.0,81.0,0.7,3.181379641929595,5.339549522208488,0.0,0.0
44.0,81.0,1.0,3.181379641929595,5.339549522208488,0.0,0.0
44.0,89.0,0.1,3.3999773161930165,6.75126048085356,0.0,0.0
44.0,89.0,0.3,3.3999773161930165,6.75126048085356,0.0,0.0
44.0,89.0,0.7,3.3999773161930165,6.75126048085356,0.0,0.0
44.0,89.0,1.0,3.3999773161930165,6.75126048085356,0.0,0.0
44.0,97.0,0.1,3.5354838172922425,8.772753563381318,0.0,0.0
44.0,97.0,0.3,3.5354838172922425,8.772753563381318,0.0,0.0
44.0,97.0,0.7,3.5354838172922425,8.772753563381318,0.0,0.0
44.0,97.0,1.0,3.5354838172922425,8.772753563381318,0.0,0.0
44.0,105.0,0.1,3.5264824381066933,10.563374577199777,0.0,0.0
44.0,105.0,0.3,3.5264824381066933,10.563374577199777,0.0,0.0
44.0,105.0,0.7,3.5264824381066933,10.563374577199777,0.0,0.0
44.0,105.0,1.0,3.5264824381066933,10.563374577199777,0.0,0.0
44.0,113.0,0.1,3.5176252843615794,10.690069708052235,0.0,0.0
44.0,113.0,0.3,3.5176252843615794,10.690069708052235,0.0,0.0
44.0,113.0,0.7,3.5176252843615794,10.690069708052235,0.0,0.0
44.0,113.0,1.0,3.5176252843615794,10.690069708052235,0.0,0.0
44.0,121.0,0.1,3.5065441257409016,10.702020952949383,0.0,0.0
44.0,121.0,0.3,3.5065441257409016,10.702020952949383,0.0,0.0
44.0,121.0,0.7,3.5065441257409016,10.702020952949383,0.0,0.0
44.0,121.0,1.0,3.5065441257409016,10.702020952949383,0.0,0.0
44.0,127.0,0.1,3.4924024217583964,10.714303155303009,0.0,0.0
44.0,127.0,0.3,3.4924024217583964,10.714303155303009,0.0,0.0
44.0,127.0,0.7,3.4924024217583964,10.714303155303009,0.0,0.0
44.0,127.0,1.0,3.4924024217583964,10.714303155303009,0.0,0.0
45.0,1.0,0.1,-1.966582607482562,-1.0959778695647802,0.0,0.0
45.0,1.0,0.3,-1.966582607482562,-1.0959778695647802,0.0,0.0
45.0,1.0,0.7,-1.966582607482562,-1.0959778695647802,0.0,0.0
45.0,1.0,1.0,-1.966582607482562,-1.0959778695647802,0.0,0.0
45.0,9.0,0.1,-2.029016200061287,-1.1632971539155774,0.0,0.0
45.0,9.0,0.3,-2.029016200061287,-1.1632971539155774,0.0,0.0
45.0,9.0,0.7,-2.029016200061287,-1.1632971539155774,0.0,0.0
45.0,9.0,1.0,-2.029016200061287,-1.1632971539155774,0.0,0.0
45.0,17.0,0.1,-2.288504987831936,-0.39229896604087805,0.0,0.0
45.0,17.0,0.3,-2.288504987831936,-0.39229896604087805,0.0,0.0
45.0,17.0,0.7,-2.288504987831936,-0.39229896604087805,0.0,0.0
45.0,17.0,1.0,-2.288504987831936,-0.39229896604087805,0.0,0.0
45.0,25.0,0.1,-2.3256200846087394,1.0118358906351017,0.0,0.0
45.0,25.0,0.3,-2.3256200846087394,1.0118358906351017,0.0,0.0
45.0,25.0,0.7,-2.3256200846087394,1.0118358906351017,0.0,0.0
45.0,25.0,1.0,-2.3256200846087394,1.0118358906351017,0.0,0.0
45.0,33.0,0.1,0.6842000805512634,1.6959994040793225,0.0,0.0
45.0,33.0,0.3,0.6842000805512634,1.6959994040793225,0.0,0.0
45.0,33.0,0.7,0.6842000805512634,1.6959994040793225,0.0,0.0
45.0,33.0,1.0,0.6842000805512634,1.6959994040793225,0.0,0.0
45.0,41.0,0.1,0.9005498398062078,2.1740375133801804,0.0,0.0
45.0,41.0,0.3,0.9005498398062078,2.1740375133801804,0.0,0.0
45.0,41.0,0.7,0.9005498398062078,2.1740375133801804,0.0,0.0
45.0,41.0,1.0,0.9005498398062078,2.1740375133801804,0.0,0.0
45.0,49.0,0.1,1.280772936238521,2.503881162828219,0.0,0.0
45.0,49.0,0.3,1.280772936238521,2.503881162828219,0.0,0.0
45.0,49.0,0.7,1.280772936238521,2.503881162828219,0.0,0.0
45.0,49.0,1.0,1.280772936238521,2.503881162828219,0.0,0.0
45.0,57.0,0.1,1.3440018731937553,2.976178778365938,0.0,0.0
45.0,57.0,0.3,1.3440018731937553,2.976178778365938,0.0,0.0
45.0,57.0,0.7,1.3440018731937553,2.976178778365938,0.0,0.0
45.0,57.0,1.0,1.3440018731937553,2.976178778365938,0.0,0.0
45.0,65.0,0.1,1.6863375507063876,3.4436826856577003,0.0,0.0
45.0,65.0,0.3,1.6863375507063876,3.4436826856577003,0.0,0.0
45.0,65.0,0.7,1.6863375507063876,3.4436826856577003,0.0,0.0
45.0,65.0,1.0,1.6863375507063876,3.4436826856577003,0.0,0.0
45.0,73.0,0.1,2.606611005530235,4.450953441585239,0.0,0.0
45.0,73.0,0.3,2.606611005530235,4.450953441585239,0.0,0.0
45.0,73.0,0.7,2.606611005530235,4.450953441585239,0.0,0.0
45.0,73.0,1.0,2.606611005530235,4.450953441585239,0.0,0.0
45.0,81.0,0.1,3.145768682272145,5.516935366097747,0.0,0.0
45.0,81.0,0.3,3.145768682272145,5.516935366097747,0.0,0.0
45.0,81.0,0.7,3.145768682272145,5.516935366097747,0.0,0.0
45.0,81.0,1.0,3.145768682272145,5.516935366097747,0.0,0.0
45.0,89.0,0.1,3.3569842965030547,7.257994376128552,0.0,0.0
45.0,89.0,0.3,3.3569842965030547,7.257994376128552,0.0,0.0
45.0,89.0,0.7,3.3569842965030547,7.257994376128552,0.0,0.0
45.0,89.0,1.0,3.3569842965030547,7.257994376128552,0.0,0.0
45.0,97.0,0.1,4.0964139683502125,9.39842713256516,0.0,0.0
45.0,97.0,0.3,4.0964139683502125,9.39842713256516,0.0,0.0
45.0,97.0,0.7,4.0964139683502125,9.39842713256516,0.0,0.0
45.0,97.0,1.0,4.0964139683502125,9.39842713256516,0.0,0.0
45.0,105.0,0.1,4.045700172613817,10.474850732421501,0.0,0.0
45.0,105.0,0.3,4.045700172613817,10.474850732421501,0.0,0.0
45.0,105.0,0.7,4.045700172613817,10.474850732421501,0.0,0.0
45.0,105.0,1.0,4.045700172613817,10.474850732421501,0.0,0.0
45.0,113.0,0.1,3.9314523071858187,10.56763311505038,0.0,0.0
45.0,113.0,0.3,3.9314523071858187,10.56763311505038,0.0,0.0
45.0,113.0,0.7,3.9314523071858187,10.56763311505038,0.0,0.0
45.0,113.0,1.0,3.9314523071858187,10.56763311505038,0.0,0.0
45.0,121.0,0.1,3.904366543957328,10.551159739091661,0.0,0.0
45.0,121.0,0.3,3.904366543957328,10.551159739091661,0.0,0.0
45.0,121.0,0.7,3.904366543957328,10.551159739091661,0.0,0.0
45.0,121.0,1.0,3.904366543957328,10.551159739091661,0.0,0.0
45.0,127.0,0.1,3.892396142253464,10.53030742864,0.0,0.0
45.0,127.0,0.3,3.892396142253464,10.53030742864,0.0,0.0
45.0,127.0,0.7,3.892396142253464,10.53030742864,0.0,0.0
45.0,127.0,1.0,3.892396142253464,10.53030742864,0.0,0.0
46.0,1.0,0.1,-2.3156525198247797,-1.6599384050514998,0.0,0.0
46.0,1.0,0.3,-2.3156525198247797,-1.6599384050514998,0.0,0.0
46.0,1.0,0.7,-2.3156525198247797,-1.6599384050514998,0.0,0.0
46.0,1.0,1.0,-2.3156525198247797,-1.6599384050514998,0.0,0.0
46.0,9.0,0.1,-2.151606737784138,-1.962887933912113,0.0,0.0
46.0,9.0,0.3,-2.151606737784138,-1.962887933912113,0.0,0.0
46.0,9.0,0.7,-2.151606737784138,-1.962887933912113,0.0,0.0
46.0,9.0,1.0,-2.151606737784138,-1.962887933912113,0.0,0.0
46.0,17.0,0.1,-2.0789319614236383,-1.1665428338603103,0.0,0.0
46.0,17.0,0.3,-2.0789319614236383,-1.1665428338603103,0.0,0.0
46.0,17.0,0.7,-2.0789319614236383,-1.1665428338603103,0.0,0.0
46.0,17.0,1.0,-2.0789319614236383,-1.1665428338603103,0.0,0.0
46.0,25.0,0.1,-1.9745402332974058,-0.11455652208475248,0.0,0.0
46.0,25.0,0.3,-1.9745402332974058,-0.11455652208475248,0.0,0.0
46.0,25.0,0.7,-1.9745402332974058,-0.11455652208475248,0.0,0.0
46.0,25.0,1.0,-1.9745402332974058,-0.11455652208475248,0.0,0.0
46.0,33.0,0.1,-2.251132734154271,1.3538252243426716,0.0,0.0
46.0,33.0,0.3,-2.251132734154271,1.3538252243426716,0.0,0.0
46.0,33.0,0.7,-2.251132734154271,1.3538252243426716,0.0,0.0
46.0,33.0,1.0,-2.251132734154271,1.3538252243426716,0.0,0.0
46.0,41.0,0.1,0.949851571161014,1.965528302266619,0.0,0.0
46.0,41.0,0.3,0.949851571161014,1.965528302266619,0.0,0.0
46.0,41.0,0.7,0.949851571161014,1.965528302266619,0.0,0.0
46.0,41.0,1.0,0.949851571161014,1.965528302266619,0.0,0.0
46.0,49.0,0.1,1.30929846838707,2.4036479159777153,0.0,0.0
46.0,49.0,0.3,1.30929846838707,2.4036479159777153,0.0,0.0
46.0,49.0,0.7,1.30929846838707,2.4036479159777153,0.0,0.0
46.0,49.0,1.0,1.30929846838707,2.4036479159777153,0.0,0.0
46.0,57.0,0.1,1.3451033696272534,2.8522322270528413,0.0,0.0
46.0,57.0,0.3,1.3451033696272534,2.8522322270528413,0.0,0.0
46.0,57.0,0.7,1.3451033696272534,2.8522322270528413,0.0,0.0
46.0,57.0,1.0,1.3451033696272534,2.8522322270528413,0.0,0.0
46.0,65.0,0.1,1.6766050202146876,3.6180415935593357,0.0,0.0
46.0,65.0,0.3,1.6766050202146876,3.6180415935593357,0.0,0.0
46.0,65.0,0.7,1.6766050202146876,3.6180415935593357,0.0,0.0
46.0,65.0,1.0,1.6766050202146876,3.6180415935593357,0.0,0.0
46.0,73.0,0.1,2.6996412806445784,4.754370008417661,0.0,0.0
46.0,73.0,0.3,2.6996412806445784,4.754370008417661,0.0,0.0
46.0,73.0,0.7,2.6996412806445784,4.754370008417661,0.0,0.0
46.0,73.0,1.0,2.6996412806445784,4.754370008417661,0.0,0.0
46.0,81.0,0.1,3.1214025240098033,5.727997405314184,0.0,0.0
46.0,81.0,0.3,3.1214025240098033,5.727997405314184,0.0,0.0
46.0,81.0,0.7,3.1214025240098033,5.727997405314184,0.0,0.0
46.0,81.0,1.0,3.1214025240098033,5.727997405314184,0.0,0.0
46.0,89.0,0.1,3.264572214009087,7.55983290906975,0.0,0.0
46.0,89.0,0.3,3.264572214009087,7.55983290906975,0.0,0.0
46.0,89.0,0.7,3.264572214009087,7.55983290906975,0.0,0.0
46.0,89.0,1.0,3.264572214009087,7.55983290906975,0.0,0.0
46.0,97.0,0.1,3.4569211673834204,9.37740896316834,0.0,0.0
46.0,97.0,0.3,3.4569211673834204,9.37740896316834,0.0,0.0
46.0,97.0,0.7,3.4569211673834204,9.37740896316834,0.0,0.0
46.0,97.0,1.0,3.4569211673834204,9.37740896316834,0.0,0.0
46.0,105.0,0.1,3.383896321315837,10.655427106642204,0.0,0.0
46.0,105.0,0.3,3.383896321315837,10.655427106642204,0.0,0.0
46.0,105.0,0.7,3.383896321315837,10.655427106642204,0.0,0.0
46.0,105.0,1.0,3.383896321315837,10.655427106642204,0.0,0.0
46.0,113.0,0.1,3.4363350389154013,10.459650924138515,0.0,0.0
46.0,113.0,0.3,3.4363350389154013,10.459650924138515,0.0,0.0
46.0,113.0,0.7,3.4363350389154013,10.459650924138515,0.0,0.0
46.0,113.0,1.0,3.4363350389154013,10.459650924138515,0.0,0.0
46.0,121.0,0.1,3.425735393879672,10.350733551358063,0.0,0.0
46.0,121.0,0.3,3.425735393879672,10.350733551358063,0.0,0.0
46.0,121.0,0.7,3.425735393879672,10.350733551358063,0.0,0.0
46.0,121.0,1.0,3.425735393879672,10.350733551358063,0.0,0.0
46.0,127.0,0.1,3.366874198461307,10.310052914420343,0.0,0.0
46.0,127.0,0.3,3.366874198461307,10.310052914420343,0.0,0.0
46.0,127.0,0.7,3.366874198461307,10.310052914420343,0.0,0.0
46.0,127.0,1.0,3.366874198461307,10.310052914420343,0.0,0.0
47.0,1.0,0.1,-2.07848331789598,-1.7792613388286336,0.0,0.0
47.0,1.0,0.3,-2.07848331789598,-1.7792613388286336,0.0,0.0
47.0,1.0,0.7,-2.07848331789598,-1.7792613388286336,0.0,0.0
47.0,1.0,1.0,-2.07848331789598,-1.7792613388286336,0.0,0.0
47.0,9.0,0.1,-1.4967211138601455,-1.1513879200703707,0.0,0.0
47.0,9.0,0.3,-1.4967211138601455,-1.1513879200703707,0.0,0.0
47.0,9.0,0.7,-1.4967211138601455,-1.1513879200703707,0.0,0.0
47.0,9.0,1.0,-1.4967211138601455,-1.1513879200703707,0.0,0.0
47.0,17.0,0.1,-1.6994034935639164,-0.7922539029893447,0.0,0.0
47.0,17.0,0.3,-1.6994034935639164,-0.7922539029893447,0.0,0.0
47.0,17.0,0.7,-1.6994034935639164,-0.7922539029893447,0.0,0.0
47.0,17.0,1.0,-1.6994034935639164,-0.7922539029893447,0.0,0.0
47.0,25.0,0.1,-2.108646090442411,0.10962827242963934,0.0,0.0
47.0,25.0,0.3,-2.108646090442411,0.10962827242963934,0.0,0.0
47.0,25.0,0.7,-2.108646090442411,0.10962827242963934,0.0,0.0
47.0,25.0,1.0,-2.108646090442411,0.10962827242963934,0.0,0.0
47.0,33.0,0.1,0.27473261319867776,1.3178247647002583,0.0,0.0
47.0,33.0,0.3,0.27473261319867776,1.3178247647002583,0.0,0.0
47.0,33.0,0.7,0.27473261319867776,1.3178247647002583,0.0,0.0
47.0,33.0,1.0,0.27473261319867776,1.3178247647002583,0.0,0.0
47.0,41.0,0.1,0.9338845068592101,1.9645879662855483,0.0,0.0
47.0,41.0,0.3,0.9338845068592101,1.9645879662855483,0.0,0.0
47.0,41.0,0.7,0.9338845068592101,1.9645879662855483,0.0,0.0
47.0,41.0,1.0,0.9338845068592101,1.9645879662855483,0.0,0.0
47.0,49.0,0.1,1.2578207256872422,1.2213946041086368,0.0,0.0
47.0,49.0,0.3,1.2578207256872422,1.2213946041086368,0.0,0.0
47.0,49.0,0.7,1.2578207256872422,1.2213946041086368,0.0,0.0
47.0,49.0,1.0,1.2578207256872422,1.2213946041086368,0.0,0.0
47.0,57.0,0.1,1.406701473896777,2.7551532662666376,0.0,0.0
47.0,57.0,0.3,1.406701473896777,2.7551532662666376,0.0,0.0
47.0,57.0,0.7,1.406701473896777,2.7551532662666376,0.0,0.0
47.0,57.0,1.0,1.406701473896777,2.7551532662666376,0.0,0.0
47.0,65.0,0.1,1.6689639640274636,3.436008538909911,0.0,0.0
47.0,65.0,0.3,1.6689639640274636,3.436008538909911,0.0,0.0
47.0,65.0,0.7,1.6689639640274636,3.436008538909911,0.0,0.0
47.0,65.0,1.0,1.6689639640274636,3.436008538909911,0.0,0.0
47.0,73.0,0.1,2.4416902874022175,4.450002372556519,0.0,0.0
47.0,73.0,0.3,2.4416902874022175,4.450002372556519,0.0,0.0
47.0,73.0,0.7,2.4416902874022175,4.450002372556519,0.0,0.0
47.0,73.0,1.0,2.4416902874022175,4.450002372556519,0.0,0.0
47.0,81.0,0.1,3.042710306667096,5.600243851715804,0.0,0.0
47.0,81.0,0.3,3.042710306667096,5.600243851715804,0.0,0.0
47.0,81.0,0.7,3.042710306667096,5.600243851715804,0.0,0.0
47.0,81.0,1.0,3.042710306667096,5.600243851715804,0.0,0.0
47.0,89.0,0.1,3.2274115158729386,7.482519431700762,0.0,0.0
47.0,89.0,0.3,3.2274115158729386,7.482519431700762,0.0,0.0
47.0,89.0,0.7,3.2274115158729386,7.482519431700762,0.0,0.0
47.0,89.0,1.0,3.2274115158729386,7.482519431700762,0.0,0.0
47.0,97.0,0.1,3.3877153191683864,9.19488904758367,0.0,0.0
47.0,97.0,0.3,3.3877153191683864,9.19488904758367,0.0,0.0
47.0,97.0,0.7,3.3877153191683864,9.19488904758367,0.0,0.0
47.0,97.0,1.0,3.3877153191683864,9.19488904758367,0.0,0.0
47.0,105.0,0.1,3.453971383849774,10.822513830531827,0.0,0.0
47.0,105.0,0.3,3.453971383849774,10.822513830531827,0.0,0.0
47.0,105.0,0.7,3.453971383849774,10.822513830531827,0.0,0.0
47.0,105.0,1.0,3.453971383849774,10.822513830531827,0.0,0.0
47.0,113.0,0.1,3.438484678312312,10.710644646095368,0.0,0.0
47.0,113.0,0.3,3.438484678312312,10.710644646095368,0.0,0.0
47.0,113.0,0.7,3.438484678312312,10.710644646095368,0.0,0.0
47.0,113.0,1.0,3.438484678312312,10.710644646095368,0.0,0.0
47.0,121.0,0.1,3.427424008748134,10.721556253190679,0.0,0.0
47.0,121.0,0.3,3.427424008748134,10.721556253190679,0.0,0.0
47.0,121.0,0.7,3.427424008748134,10.721556253190679,0.0,0.0
47.0,121.0,1.0,3.427424008748134,10.721556253190679,0.0,0.0
47.0,127.0,0.1,3.3438399820480327,10.713130348612303,0.0,0.0
47.0,127.0,0.3,3.3438399820480327,10.713130348612303,0.0,0.0
47.0,127.0,0.7,3.3438399820480327,10.713130348612303,0.0,0.0
47.0,127.0,1.0,3.3438399820480327,10.713130348612303,0.0,0.0
48.0,1.0,0.1,-2.254315154930562,-1.8891039208508331,0.0,0.0
48.0,1.0,0.3,-2.254315154930562,-1.8891039208508331,0.0,0.0
48.0,1.0,0.7,-2.254315154930562,-1.8891039208508331,0.0,0.0
48.0,1.0,1.0,-2.254315154930562,-1.8891039208508331,0.0,0.0
48.0,9.0,0.1,-1.9759649136167556,-2.0794426947065268,0.0,0.0
48.0,9.0,0.3,-1.9759649136167556,-2.0794426947065268,0.0,0.0
48.0,9.0,0.7,-1.9759649136167556,-2.0794426947065268,0.0,0.0
48.0,9.0,1.0,-1.9759649136167556,-2.0794426947065268,0.0,0.0
48.0,17.0,0.1,-1.496475981175838,0.35432140399642653,0.0,0.0
48.0,17.0,0.3,-1.496475981175838,0.35432140399642653,0.0,0.0
48.0,17.0,0.7,-1.496475981175838,0.35432140399642653,0.0,0.0
48.0,17.0,1.0,-1.496475981175838,0.35432140399642653,0.0,0.0
48.0,25.0,0.1,-1.797366007186865,0.7412752680076636,0.0,0.0
48.0,25.0,0.3,-1.797366007186865,0.7412752680076636,0.0,0.0
48.0,25.0,0.7,-1.797366007186865,0.7412752680076636,0.0,0.0
48.0,25.0,1.0,-1.797366007186865,0.7412752680076636,0.0,0.0
48.0,33.0,0.1,1.3071309387243508,1.0771837897188234,0.0,0.0
48.0,33.0,0.3,1.3071309387243508,1.0771837897188234,0.0,0.0
48.0,33.0,0.7,1.3071309387243508,1.0771837897188234,0.0,0.0
48.0,33.0,1.0,1.3071309387243508,1.0771837897188234,0.0,0.0
48.0,41.0,0.1,1.5243185952146578,1.6852569722127655,0.0,0.0
48.0,41.0,0.3,1.5243185952146578,1.6852569722127655,0.0,0.0
48.0,41.0,0.7,1.5243185952146578,1.6852569722127655,0.0,0.0
48.0,41.0,1.0,1.5243185952146578,1.6852569722127655,0.0,0.0
48.0,49.0,0.1,1.6642746513560742,2.143333007251245,0.0,0.0
48.0,49.0,0.3,1.6642746513560742,2.143333007251245,0.0,0.0
48.0,49.0,0.7,1.6642746513560742,2.143333007251245,0.0,0.0
48.0,49.0,1.0,1.6642746513560742,2.143333007251245,0.0,0.0
48.0,57.0,0.1,1.940941241086026,2.562828949114929,0.0,0.0
48.0,57.0,0.3,1.940941241086026,2.562828949114929,0.0,0.0
48.0,57.0,0.7,1.940941241086026,2.562828949114929,0.0,0.0
48.0,57.0,1.0,1.940941241086026,2.562828949114929,0.0,0.0
48.0,65.0,0.1,2.7645646271271933,2.911045582667223,0.0,0.0
48.0,65.0,0.3,2.7645646271271933,2.911045582667223,0.0,0.0
48.0,65.0,0.7,2.7645646271271933,2.911045582667223,0.0,0.0
48.0,65.0,1.0,2.7645646271271933,2.911045582667223,0.0,0.0
48.0,73.0,0.1,3.1418265134184726,3.827059636754777,0.0,0.0
48.0,73.0,0.3,3.1418265134184726,3.827059636754777,0.0,0.0
48.0,73.0,0.7,3.1418265134184726,3.827059636754777,0.0,0.0
48.0,73.0,1.0,3.1418265134184726,3.827059636754777,0.0,0.0
48.0,81.0,0.1,3.3071483219938744,5.255277272427274,0.0,0.0
48.0,81.0,0.3,3.3071483219938744,5.255277272427274,0.0,0.0
48.0,81.0,0.7,3.3071483219938744,5.255277272427274,0.0,0.0
48.0,81.0,1.0,3.3071483219938744,5.255277272427274,0.0,0.0
48.0,89.0,0.1,3.896357904391845,6.681458201115804,0.0,0.0
48.0,89.0,0.3,3.896357904391845,6.681458201115804,0.0,0.0
48.0,89.0,0.7,3.896357904391845,6.681458201115804,0.0,0.0
48.0,89.0,1.0,3.896357904391845,6.681458201115804,0.0,0.0
48.0,97.0,0.1,5.028460737100502,8.233798491039627,0.0,0.0
48.0,97.0,0.3,5.028460737100502,8.233798491039627,0.0,0.0
48.0,97.0,0.7,5.028460737100502,8.233798491039627,0.0,0.0
48.0,97.0,1.0,5.028460737100502,8.233798491039627,0.0,0.0
48.0,105.0,0.1,4.869244304104236,9.877104586064439,0.0,0.0
48.0,105.0,0.3,4.869244304104236,9.877104586064439,0.0,0.0
48.0,105.0,0.7,4.869244304104236,9.877104586064439,0.0,0.0
48.0,105.0,1.0,4.869244304104236,9.877104586064439,0.0,0.0
48.0,113.0,0.1,4.802611055033861,9.74091589017221,0.0,0.0
48.0,113.0,0.3,4.802611055033861,9.74091589017221,0.0,0.0
48.0,113.0,0.7,4.802611055033861,9.74091589017221,0.0,0.0
48.0,113.0,1.0,4.802611055033861,9.74091589017221,0.0,0.0
48.0,121.0,0.1,4.760180367236757,9.75814852887357,0.0,0.0
48.0,121.0,0.3,4.760180367236757,9.75814852887357,0.0,0.0
48.0,121.0,0.7,4.760180367236757,9.75814852887357,0.0,0.0
48.0,121.0,1.0,4.760180367236757,9.75814852887357,0.0,0.0
48.0,127.0,0.1,4.667622085589805,9.735689000790035,0.0,0.0
48.0,127.0,0.3,4.667622085589805,9.735689000790035,0.0,0.0
48.0,127.0,0.7,4.667622085589805,9.735689000790035,0.0,0.0
48.0,127.0,1.0,4.667622085589805,9.735689000790035,0.0,0.0
49.0,1.0,0.1,-2.1737511179018414,-1.5606745958690822,0.0,0.0
49.0,1.0,0.3,-2.1737511179018414,-1.5606745958690822,0.0,0.0
49.0,1.0,0.7,-2.1737511179018414,-1.5606745958690822,0.0,0.0
49.0,1.0,1.0,-2.1737511179018414,-1.5606745958690822,0.0,0.0
49.0,9.0,0.1,-2.0037602859375534,-0.3818885116014375,0.0,0.0
49.0,9.0,0.3,-2.0037602859375534,-0.3818885116014375,0.0,0.0
49.0,9.0,0.7,-2.0037602859375534,-0.3818885116014375,0.0,0.0
49.0,9.0,1.0,-2.0037602859375534,-0.3818885116014375,0.0,0.0
49.0,17.0,0.1,-1.864185519252065,0.6211552620813068,0.0,0.0
49.0,17.0,0.3,-1.864185519252065,0.6211552620813068,0.0,0.0
49.0,17.0,0.7,-1.864185519252065,0.6211552620813068,0.0,0.0
49.0,17.0,1.0,-1.864185519252065,0.6211552620813068,0.0,0.0
49.0,25.0,0.1,-2.166651729257098,0.7880850643672722,0.0,0.0
49.0,25.0,0.3,-2.166651729257098,0.7880850643672722,0.0,0.0
49.0,25.0,0.7,-2.166651729257098,0.7880850643672722,0.0,0.0
49.0,25.0,1.0,-2.166651729257098,0.7880850643672722,0.0,0.0
49.0,33.0,0.1,1.0464836039696837,1.2823043299747112,0.0,0.0
49.0,33.0,0.3,1.0464836039696837,1.2823043299747112,0.0,0.0
49.0,33.0,0.7,1.0464836039696837,1.2823043299747112,0.0,0.0
49.0,33.0,1.0,1.0464836039696837,1.2823043299747112,0.0,0.0
49.0,41.0,0.1,1.3616136817640792,0.947828184202623,0.0,0.0
49.0,41.0,0.3,1.3616136817640792,0.947828184202623,0.0,0.0
49.0,41.0,0.7,1.3616136817640792,0.947828184202623,0.0,0.0
49.0,41.0,1.0,1.3616136817640792,0.947828184202623,0.0,0.0
49.0,49.0,0.1,1.5351064412576096,2.3218475840181543,0.0,0.0
49.0,49.0,0.3,1.5351064412576096,2.3218475840181543,0.0,0.0
49.0,49.0,0.7,1.5351064412576096,2.3218475840181543,0.0,0.0
49.0,49.0,1.0,1.5351064412576096,2.3218475840181543,0.0,0.0
49.0,57.0,0.1,1.6576885011985807,2.4261988900057476,0.0,0.0
49.0,57.0,0.3,1.6576885011985807,2.4261988900057476,0.0,0.0
49.0,57.0,0.7,1.6576885011985807,2.4261988900057476,0.0,0.0
49.0,57.0,1.0,1.6576885011985807,2.4261988900057476,0.0,0.0
49.0,65.0,0.1,2.134168428944615,3.2980635709804824,0.0,0.0
49.0,65.0,0.3,2.134168428944615,3.2980635709804824,0.0,0.0
49.0,65.0,0.7,2.134168428944615,3.2980635709804824,0.0,0.0
49.0,65.0,1.0,2.134168428944615,3.2980635709804824,0.0,0.0
49.0,73.0,0.1,2.867925028206692,4.366896653932463,0.0,0.0
49.0,73.0,0.3,2.867925028206692,4.366896653932463,0.0,0.0
49.0,73.0,0.7,2.867925028206692,4.366896653932463,0.0,0.0
49.0,73.0,1.0,2.867925028206692,4.366896653932463,0.0,0.0
49.0,81.0,0.1,3.177645090845634,5.4621171415389,0.0,0.0
49.0,81.0,0.3,3.177645090845634,5.4621171415389,0.0,0.0
49.0,81.0,0.7,3.177645090845634,5.4621171415389,0.0,0.0
49.0,81.0,1.0,3.177645090845634,5.4621171415389,0.0,0.0
49.0,89.0,0.1,3.42005491386376,7.198251242273088,0.0,0.0
49.0,89.0,0.3,3.42005491386376,7.198251242273088,0.0,0.0
49.0,89.0,0.7,3.42005491386376,7.198251242273088,0.0,0.0
49.0,89.0,1.0,3.42005491386376,7.198251242273088,0.0,0.0
49.0,97.0,0.1,4.318712690423004,8.584698827825274,0.0,0.0
49.0,97.0,0.3,4.318712690423004,8.584698827825274,0.0,0.0
49.0,97.0,0.7,4.318712690423004,8.584698827825274,0.0,0.0
49.0,97.0,1.0,4.318712690423004,8.584698827825274,0.0,0.0
49.0,105.0,0.1,4.751684521590384,9.730817581003242,0.0,0.0
49.0,105.0,0.3,4.751684521590384,9.730817581003242,0.0,0.0
49.0,105.0,0.7,4.751684521590384,9.730817581003242,0.0,0.0
49.0,105.0,1.0,4.751684521590384,9.730817581003242,0.0,0.0
49.0,113.0,0.1,4.6749771395899025,10.813808284666196,0.0,0.0
49.0,113.0,0.3,4.6749771395899025,10.813808284666196,0.0,0.0
49.0,113.0,0.7,4.6749771395899025,10.813808284666196,0.0,0.0
49.0,113.0,1.0,4.6749771395899025,10.813808284666196,0.0,0.0
49.0,121.0,0.1,4.625352572538393,10.799397655668571,0.0,0.0
49.0,121.0,0.3,4.625352572538393,10.799397655668571,0.0,0.0
49.0,121.0,0.7,4.625352572538393,10.799397655668571,0.0,0.0
49.0,121.0,1.0,4.625352572538393,10.799397655668571,0.0,0.0
49.0,127.0,0.1,4.578589128725473,10.79593612723274,0.0,0.0
49.0,127.0,0.3,4.578589128725473,10.79593612723274,0.0,0.0
49.0,127.0,0.7,4.578589128725473,10.79593612723274,0.0,0.0
49.0,127.0,1.0,4.578589128725473,10.79593612723274,0.0,0.0
50.0,1.0,0.1,-3.513613033504547,-1.7639087404643459,0.0,0.0
50.0,1.0,0.3,-3.513613033504547,-1.7639087404643459,0.0,0.0
50.0,1.0,0.7,-3.513613033504547,-1.7639087404643459,0.0,0.0
50.0,1.0,1.0,-3.513613033504547,-1.7639087404643459,0.0,0.0
50.0,9.0,0.1,-1.6481620514565154,-1.0507657428219594,0.0,0.0
50.0,9.0,0.3,-1.6481620514565154,-1.0507657428219594,0.0,0.0
50.0,9.0,0.7,-1.6481620514565154,-1.0507657428219594,0.0,0.0
50.0,9.0,1.0,-1.6481620514565154,-1.0507657428219594,0.0,0.0
50.0,17.0,0.1,-1.953272583955019,-0.5983947971848516,0.0,0.0
50.0,17.0,0.3,-1.953272583955019,-0.5983947971848516,0.0,0.0
50.0,17.0,0.7,-1.953272583955019,-0.5983947971848516,0.0,0.0
50.0,17.0,1.0,-1.953272583955019,-0.5983947971848516,0.0,0.0
50.0,25.0,0.1,-1.1102350615157657,0.9245632370277386,0.0,0.0
50.0,25.0,0.3,-1.1102350615157657,0.9245632370277386,0.0,0.0
50.0,25.0,0.7,-1.1102350615157657,0.9245632370277386,0.0,0.0
50.0,25.0,1.0,-1.1102350615157657,0.9245632370277386,0.0,0.0
50.0,33.0,0.1,0.7404779336018258,1.4094943205430055,0.0,0.0
50.0,33.0,0.3,0.7404779336018258,1.4094943205430055,0.0,0.0
50.0,33.0,0.7,0.7404779336018258,1.4094943205430055,0.0,0.0
50.0,33.0,1.0,0.7404779336018258,1.4094943205430055,0.0,0.0
50.0,41.0,0.1,0.8524062920150416,2.0645538963092522,0.0,0.0
50.0,41.0,0.3,0.8524062920150416,2.0645538963092522,0.0,0.0
50.0,41.0,0.7,0.8524062920150416,2.0645538963092522,0.0,0.0
50.0,41.0,1.0,0.8524062920150416,2.0645538963092522,0.0,0.0
50.0,49.0,0.1,1.2889917820051002,2.3480809195315304,0.0,0.0
50.0,49.0,0.3,1.2889917820051002,2.3480809195315304,0.0,0.0
50.0,49.0,0.7,1.2889917820051002,2.3480809195315304,0.0,0.0
50.0,49.0,1.0,1.2889917820051002,2.3480809195315304,0.0,0.0
50.0,57.0,0.1,1.5045606202384068,2.241979516757968,0.0,0.0
50.0,57.0,0.3,1.5045606202384068,2.241979516757968,0.0,0.0
50.0,57.0,0.7,1.5045606202384068,2.241979516757968,0.0,0.0
50.0,57.0,1.0,1.5045606202384068,2.241979516757968,0.0,0.0
50.0,65.0,0.1,1.8564949332640004,3.236528554683143,0.0,0.0
50.0,65.0,0.3,1.8564949332640004,3.236528554683143,0.0,0.0
50.0,65.0,0.7,1.8564949332640004,3.236528554683143,0.0,0.0
50.0,65.0,1.0,1.8564949332640004,3.236528554683143,0.0,0.0
50.0,73.0,0.1,2.750708398757702,4.06836888443806,0.0,0.0
50.0,73.0,0.3,2.750708398757702,4.06836888443806,0.0,0.0
50.0,73.0,0.7,2.750708398757702,4.06836888443806,0.0,0.0
50.0,73.0,1.0,2.750708398757702,4.06836888443806,0.0,0.0
50.0,81.0,0.1,3.1601488605105197,5.218649077413612,0.0,0.0
50.0,81.0,0.3,3.1601488605105197,5.218649077413612,0.0,0.0
50.0,81.0,0.7,3.1601488605105197,5.218649077413612,0.0,0.0
50.0,81.0,1.0,3.1601488605105197,5.218649077413612,0.0,0.0
50.0,89.0,0.1,3.284415455991717,6.559664110392542,0.0,0.0
50.0,89.0,0.3,3.284415455991717,6.559664110392542,0.0,0.0
50.0,89.0,0.7,3.284415455991717,6.559664110392542,0.0,0.0
50.0,89.0,1.0,3.284415455991717,6.559664110392542,0.0,0.0
50.0,97.0,0.1,3.383725097859265,8.467340117230162,0.0,0.0
50.0,97.0,0.3,3.383725097859265,8.467340117230162,0.0,0.0
50.0,97.0,0.7,3.383725097859265,8.467340117230162,0.0,0.0
50.0,97.0,1.0,3.383725097859265,8.467340117230162,0.0,0.0
50.0,105.0,0.1,3.374343244161403,10.572993169435058,0.0,0.0
50.0,105.0,0.3,3.374343244161403,10.572993169435058,0.0,0.0
50.0,105.0,0.7,3.374343244161403,10.572993169435058,0.0,0.0
50.0,105.0,1.0,3.374343244161403,10.572993169435058,0.0,0.0
50.0,113.0,0.1,3.3598569550176425,10.581443767082156,0.0,0.0
50.0,113.0,0.3,3.3598569550176425,10.581443767082156,0.0,0.0
50.0,113.0,0.7,3.3598569550176425,10.581443767082156,0.0,0.0
50.0,113.0,1.0,3.3598569550176425,10.581443767082156,0.0,0.0
50.0,121.0,0.1,3.346169344955595,10.512713217302327,0.0,0.0
50.0,121.0,0.3,3.346169344955595,10.512713217302327,0.0,0.0
50.0,121.0,0.7,3.346169344955595,10.512713217302327,0.0,0.0
50.0,121.0,1.0,3.346169344955595,10.512713217302327,0.0,0.0
50.0,127.0,0.1,3.3341203192144633,10.454572508854472,0.0,0.0
50.0,127.0,0.3,3.3341203192144633,10.454572508854472,0.0,0.0
50.0,127.0,0.7,3.3341203192144633,10.454572508854472,0.0,0.0
50.0,127.0,1.0,3.3341203192144633,10.454572508854472,0.0,0.0
51.0,1.0,0.1,-3.704767383865094,-0.27753778784771643,0.0,0.0
51.0,1.0,0.3,-3.704767383865094,-0.27753778784771643,0.0,0.0
51.0,1.0,0.7,-3.704767383865094,-0.27753778784771643,0.0,0.0
51.0,1.0,1.0,-3.704767383865094,-0.27753778784771643,0.0,0.0
51.0,9.0,0.1,-3.829636561639356,-1.251871751871781,0.0,0.0
51.0,9.0,0.3,-3.829636561639356,-1.251871751871781,0.0,0.0
51.0,9.0,0.7,-3.829636561639356,-1.251871751871781,0.0,0.0
51.0,9.0,1.0,-3.829636561639356,-1.251871751871781,0.0,0.0
51.0,17.0,0.1,-3.7552814347882677,-0.6051321734778767,0.0,0.0
51.0,17.0,0.3,-3.7552814347882677,-0.6051321734778767,0.0,0.0
51.0,17.0,0.7,-3.7552814347882677,-0.6051321734778767,0.0,0.0
51.0,17.0,1.0,-3.7552814347882677,-0.6051321734778767,0.0,0.0
51.0,25.0,0.1,-3.6413257866342406,0.7320638680161351,0.0,0.0
51.0,25.0,0.3,-3.6413257866342406,0.7320638680161351,0.0,0.0
51.0,25.0,0.7,-3.6413257866342406,0.7320638680161351,0.0,0.0
51.0,25.0,1.0,-3.6413257866342406,0.7320638680161351,0.0,0.0
51.0,33.0,0.1,1.3196219806595657,1.0754212057775714,0.0,0.0
51.0,33.0,0.3,1.3196219806595657,1.0754212057775714,0.0,0.0
51.0,33.0,0.7,1.3196219806595657,1.0754212057775714,0.0,0.0
51.0,33.0,1.0,1.3196219806595657,1.0754212057775714,0.0,0.0
51.0,41.0,0.1,1.5118513909245814,0.84866957085583,0.0,0.0
51.0,41.0,0.3,1.5118513909245814,0.84866957085583,0.0,0.0
51.0,41.0,0.7,1.5118513909245814,0.84866957085583,0.0,0.0
51.0,41.0,1.0,1.5118513909245814,0.84866957085583,0.0,0.0
51.0,49.0,0.1,1.8339374850791923,1.3800678642404813,0.0,0.0
51.0,49.0,0.3,1.8339374850791923,1.3800678642404813,0.0,0.0
51.0,49.0,0.7,1.8339374850791923,1.3800678642404813,0.0,0.0
51.0,49.0,1.0,1.8339374850791923,1.3800678642404813,0.0,0.0
51.0,57.0,0.1,2.356055599702224,2.169371968974988,0.0,0.0
51.0,57.0,0.3,2.356055599702224,2.169371968974988,0.0,0.0
51.0,57.0,0.7,2.356055599702224,2.169371968974988,0.0,0.0
51.0,57.0,1.0,2.356055599702224,2.169371968974988,0.0,0.0
51.0,65.0,0.1,3.012416744841936,3.025730405102851,0.0,0.0
51.0,65.0,0.3,3.012416744841936,3.025730405102851,0.0,0.0
51.0,65.0,0.7,3.012416744841936,3.025730405102851,0.0,0.0
51.0,65.0,1.0,3.012416744841936,3.025730405102851,0.0,0.0
51.0,73.0,0.1,3.2218281009761984,3.9680091989631765,0.0,0.0
51.0,73.0,0.3,3.2218281009761984,3.9680091989631765,0.0,0.0
51.0,73.0,0.7,3.2218281009761984,3.9680091989631765,0.0,0.0
51.0,73.0,1.0,3.2218281009761984,3.9680091989631765,0.0,0.0
51.0,81.0,0.1,3.5525385583716,5.143789797150683,0.0,0.0
51.0,81.0,0.3,3.5525385583716,5.143789797150683,0.0,0.0
51.0,81.0,0.7,3.5525385583716,5.143789797150683,0.0,0.0
51.0,81.0,1.0,3.5525385583716,5.143789797150683,0.0,0.0
51.0,89.0,0.1,6.440962385860241,6.346846050097546,0.0,0.0
51.0,89.0,0.3,6.440962385860241,6.346846050097546,0.0,0.0
51.0,89.0,0.7,6.440962385860241,6.346846050097546,0.0,0.0
51.0,89.0,1.0,6.440962385860241,6.346846050097546,0.0,0.0
51.0,97.0,0.1,6.63029985354617,8.218108685208565,0.0,0.0
51.0,97.0,0.3,6.63029985354617,8.218108685208565,0.0,0.0
51.0,97.0,0.7,6.63029985354617,8.218108685208565,0.0,0.0
51.0,97.0,1.0,6.63029985354617,8.218108685208565,0.0,0.0
51.0,105.0,0.1,6.610561290334003,10.052558099523953,0.0,0.0
51.0,105.0,0.3,6.610561290334003,10.052558099523953,0.0,0.0
51.0,105.0,0.7,6.610561290334003,10.052558099523953,0.0,0.0
51.0,105.0,1.0,6.610561290334003,10.052558099523953,0.0,0.0
51.0,113.0,0.1,6.533997992348182,10.322641542057804,0.0,0.0
51.0,113.0,0.3,6.533997992348182,10.322641542057804,0.0,0.0
51.0,113.0,0.7,6.533997992348182,10.322641542057804,0.0,0.0
51.0,113.0,1.0,6.533997992348182,10.322641542057804,0.0,0.0
51.0,121.0,0.1,6.53357984105132,10.210266915237652,0.0,0.0
51.0,121.0,0.3,6.53357984105132,10.210266915237652,0.0,0.0
51.0,121.0,0.7,6.53357984105132,10.210266915237652,0.0,0.0
51.0,121.0,1.0,6.53357984105132,10.210266915237652,0.0,0.0
51.0,127.0,0.1,6.538155198366267,10.330571276945896,0.0,0.0
51.0,127.0,0.3,6.538155198366267,10.330571276945896,0.0,0.0
51.0,127.0,0.7,6.538155198366267,10.330571276945896,0.0,0.0
51.0,127.0,1.0,6.538155198366267,10.330571276945896,0.0,0.0
52.0,1.0,0.1,0.8808894197073178,0.5230202192413088,0.0,0.0
52.0,1.0,0.3,0.8808894197073178,0.5230202192413088,0.0,0.0
52.0,1.0,0.7,0.8808894197073178,0.5230202192413088,0.0,0.0
52.0,1.0,1.0,0.8808894197073178,0.5230202192413088,0.0,0.0
52.0,9.0,0.1,-1.858671417331167,-0.9178975438606689,0.0,0.0
52.0,9.0,0.3,-1.858671417331167,-0.9178975438606689,0.0,0.0
52.0,9.0,0.7,-1.858671417331167,-0.9178975438606689,0.0,0.0
52.0,9.0,1.0,-1.858671417331167,-0.9178975438606689,0.0,0.0
52.0,17.0,0.1,-1.5473430607030403,0.8521132649962304,0.0,0.0
52.0,17.0,0.3,-1.5473430607030403,0.8521132649962304,0.0,0.0
52.0,17.0,0.7,-1.5473430607030403,0.8521132649962304,0.0,0.0
52.0,17.0,1.0,-1.5473430607030403,0.8521132649962304,0.0,0.0
52.0,25.0,0.1,0.8885029500716632,1.330128962767461,0.0,0.0
52.0,25.0,0.3,0.8885029500716632,1.330128962767461,0.0,0.0
52.0,25.0,0.7,0.8885029500716632,1.330128962767461,0.0,0.0
52.0,25.0,1.0,0.8885029500716632,1.330128962767461,0.0,0.0
52.0,33.0,0.1,1.1376916105059067,1.903830437177434,0.0,0.0
52.0,33.0,0.3,1.1376916105059067,1.903830437177434,0.0,0.0
52.0,33.0,0.7,1.1376916105059067,1.903830437177434,0.0,0.0
52.0,33.0,1.0,1.1376916105059067,1.903830437177434,0.0,0.0
52.0,41.0,0.1,1.3307831645255306,2.169735739122541,0.0,0.0
52.0,41.0,0.3,1.3307831645255306,2.169735739122541,0.0,0.0
52.0,41.0,0.7,1.3307831645255306,2.169735739122541,0.0,0.0
52.0,41.0,1.0,1.3307831645255306,2.169735739122541,0.0,0.0
52.0,49.0,0.1,1.58776172264141,2.559942450529933,0.0,0.0
52.0,49.0,0.3,1.58776172264141,2.559942450529933,0.0,0.0
52.0,49.0,0.7,1.58776172264141,2.559942450529933,0.0,0.0
52.0,49.0,1.0,1.58776172264141,2.559942450529933,0.0,0.0
52.0,57.0,0.1,2.1744862003725394,3.0864066970593496,0.0,0.0
52.0,57.0,0.3,2.1744862003725394,3.0864066970593496,0.0,0.0
52.0,57.0,0.7,2.1744862003725394,3.0864066970593496,0.0,0.0
52.0,57.0,1.0,2.1744862003725394,3.0864066970593496,0.0,0.0
52.0,65.0,0.1,2.89844741690225,3.749195776678478,0.0,0.0
52.0,65.0,0.3,2.89844741690225,3.749195776678478,0.0,0.0
52.0,65.0,0.7,2.89844741690225,3.749195776678478,0.0,0.0
52.0,65.0,1.0,2.89844741690225,3.749195776678478,0.0,0.0
52.0,73.0,0.1,3.2000224709879563,4.845557729100369,0.0,0.0
52.0,73.0,0.3,3.2000224709879563,4.845557729100369,0.0,0.0
52.0,73.0,0.7,3.2000224709879563,4.845557729100369,0.0,0.0
52.0,73.0,1.0,3.2000224709879563,4.845557729100369,0.0,0.0
52.0,81.0,0.1,3.4066044745524646,5.884439814296867,0.0,0.0
52.0,81.0,0.3,3.4066044745524646,5.884439814296867,0.0,0.0
52.0,81.0,0.7,3.4066044745524646,5.884439814296867,0.0,0.0
52.0,81.0,1.0,3.4066044745524646,5.884439814296867,0.0,0.0
52.0,89.0,0.1,3.5861179531670904,7.947271728527407,0.0,0.0
52.0,89.0,0.3,3.5861179531670904,7.947271728527407,0.0,0.0
52.0,89.0,0.7,3.5861179531670904,7.947271728527407,0.0,0.0
52.0,89.0,1.0,3.5861179531670904,7.947271728527407,0.0,0.0
52.0,97.0,0.1,4.716828403222305,9.462234940087692,0.0,0.0
52.0,97.0,0.3,4.716828403222305,9.462234940087692,0.0,0.0
52.0,97.0,0.7,4.716828403222305,9.462234940087692,0.0,0.0
52.0,97.0,1.0,4.716828403222305,9.462234940087692,0.0,0.0
52.0,105.0,0.1,4.548992254344254,10.605282908267963,0.0,0.0
52.0,105.0,0.3,4.548992254344254,10.605282908267963,0.0,0.0
52.0,105.0,0.7,4.548992254344254,10.605282908267963,0.0,0.0
52.0,105.0,1.0,4.548992254344254,10.605282908267963,0.0,0.0
52.0,113.0,0.1,4.3355167895325994,0.6767005684676629,0.0,0.0
52.0,113.0,0.3,4.3355167895325994,0.6767005684676629,0.0,0.0
52.0,113.0,0.7,4.3355167895325994,0.6767005684676629,0.0,0.0
52.0,113.0,1.0,4.3355167895325994,0.6767005684676629,0.0,0.0
52.0,121.0,0.1,4.1634513454137565,-2.7985630694884724,0.0,0.0
52.0,121.0,0.3,4.1634513454137565,-2.7985630694884724,0.0,0.0
52.0,121.0,0.7,4.1634513454137565,-2.7985630694884724,0.0,0.0
52.0,121.0,1.0,4.1634513454137565,-2.7985630694884724,0.0,0.0
52.0,127.0,0.1,4.027735768630164,-3.1015243820651572,0.0,0.0
52.0,127.0,0.3,4.027735768630164,-3.1015243820651572,0.0,0.0
52.0,127.0,0.7,4.027735768630164,-3.1015243820651572,0.0,0.0
52.0,127.0,1.0,4.027735768630164,-3.1015243820651572,0.0,0.0
53.0,1.0,0.1,1.1959626453298013,-1.107148111827653,0.0,0.0
53.0,1.0,0.3,1.1959626453298013,-1.107148111827653,0.0,0.0
53.0,1.0,0.7,1.1959626453298013,-1.107148111827653,0.0,0.0
53.0,1.0,1.0,1.1959626453298013,-1.107148111827653,0.0,0.0
53.0,9.0,0.1,-1.9312216732771466,-0.8150252851327653,0.0,0.0
53.0,9.0,0.3,-1.9312216732771466,-0.8150252851327653,0.0,0.0
53.0,9.0,0.7,-1.9312216732771466,-0.8150252851327653,0.0,0.0
53.0,9.0,1.0,-1.9312216732771466,-0.8150252851327653,0.0,0.0
53.0,17.0,0.1,-1.9815083444891377,0.7050196819137665,0.0,0.0
53.0,17.0,0.3,-1.9815083444891377,0.7050196819137665,0.0,0.0
53.0,17.0,0.7,-1.9815083444891377,0.7050196819137665,0.0,0.0
53.0,17.0,1.0,-1.9815083444891377,0.7050196819137665,0.0,0.0
53.0,25.0,0.1,-1.9153851971410443,1.057439110835813,0.0,0.0
53.0,25.0,0.3,-1.9153851971410443,1.057439110835813,0.0,0.0
53.0,25.0,0.7,-1.9153851971410443,1.057439110835813,0.0,0.0
53.0,25.0,1.0,-1.9153851971410443,1.057439110835813,0.0,0.0
53.0,33.0,0.1,1.1497862887667543,1.5166432420032725,0.0,0.0
53.0,33.0,0.3,1.1497862887667543,1.5166432420032725,0.0,0.0
53.0,33.0,0.7,1.1497862887667543,1.5166432420032725,0.0,0.0
53.0,33.0,1.0,1.1497862887667543,1.5166432420032725,0.0,0.0
53.0,41.0,0.1,1.4256209337235124,2.051092017805281,0.0,0.0
53.0,41.0,0.3,1.4256209337235124,2.051092017805281,0.0,0.0
53.0,41.0,0.7,1.4256209337235124,2.051092017805281,0.0,0.0
53.0,41.0,1.0,1.4256209337235124,2.051092017805281,0.0,0.0
53.0,49.0,0.1,1.6793402308732652,2.3090445403504036,0.0,0.0
53.0,49.0,0.3,1.6793402308732652,2.3090445403504036,0.0,0.0
53.0,49.0,0.7,1.6793402308732652,2.3090445403504036,0.0,0.0
53.0,49.0,1.0,1.6793402308732652,2.3090445403504036,0.0,0.0
53.0,57.0,0.1,1.7522850819039655,2.9007742552005875,0.0,0.0
53.0,57.0,0.3,1.7522850819039655,2.9007742552005875,0.0,0.0
53.0,57.0,0.7,1.7522850819039655,2.9007742552005875,0.0,0.0
53.0,57.0,1.0,1.7522850819039655,2.9007742552005875,0.0,0.0
53.0,65.0,0.1,2.710056189993464,3.363959329195386,0.0,0.0
53.0,65.0,0.3,2.710056189993464,3.363959329195386,0.0,0.0
53.0,65.0,0.7,2.710056189993464,3.363959329195386,0.0,0.0
53.0,65.0,1.0,2.710056189993464,3.363959329195386,0.0,0.0
53.0,73.0,0.1,3.1741761914048547,4.2521524296735445,0.0,0.0
53.0,73.0,0.3,3.1741761914048547,4.2521524296735445,0.0,0.0
53.0,73.0,0.7,3.1741761914048547,4.2521524296735445,0.0,0.0
53.0,73.0,1.0,3.1741761914048547,4.2521524296735445,0.0,0.0
53.0,81.0,0.1,3.478485871370725,5.471426448449216,0.0,0.0
53.0,81.0,0.3,3.478485871370725,5.471426448449216,0.0,0.0
53.0,81.0,0.7,3.478485871370725,5.471426448449216,0.0,0.0
53.0,81.0,1.0,3.478485871370725,5.471426448449216,0.0,0.0
53.0,89.0,0.1,4.890545605152639,7.33682010043238,0.0,0.0
53.0,89.0,0.3,4.890545605152639,7.33682010043238,0.0,0.0
53.0,89.0,0.7,4.890545605152639,7.33682010043238,0.0,0.0
53.0,89.0,1.0,4.890545605152639,7.33682010043238,0.0,0.0
53.0,97.0,0.1,6.358548286633887,10.4836365451392,0.0,0.0
53.0,97.0,0.3,6.358548286633887,10.4836365451392,0.0,0.0
53.0,97.0,0.7,6.358548286633887,10.4836365451392,0.0,0.0
53.0,97.0,1.0,6.358548286633887,10.4836365451392,0.0,0.0
53.0,105.0,0.1,6.3360381342731795,10.862311185036907,0.0,0.0
53.0,105.0,0.3,6.3360381342731795,10.862311185036907,0.0,0.0
53.0,105.0,0.7,6.3360381342731795,10.862311185036907,0.0,0.0
53.0,105.0,1.0,6.3360381342731795,10.862311185036907,0.0,0.0
53.0,113.0,0.1,6.3242217171470525,10.835422010111621,0.0,0.0
53.0,113.0,0.3,6.3242217171470525,10.835422010111621,0.0,0.0
53.0,113.0,0.7,6.3242217171470525,10.835422010111621,0.0,0.0
53.0,113.0,1.0,6.3242217171470525,10.835422010111621,0.0,0.0
53.0,121.0,0.1,6.296535917497769,10.832666614824966,0.0,0.0
53.0,121.0,0.3,6.296535917497769,10.832666614824966,0.0,0.0
53.0,121.0,0.7,6.296535917497769,10.832666614824966,0.0,0.0
53.0,121.0,1.0,6.296535917497769,10.832666614824966,0.0,0.0
53.0,127.0,0.1,6.3067371725827055,10.84024226002288,0.0,0.0
53.0,127.0,0.3,6.3067371725827055,10.84024226002288,0.0,0.0
53.0,127.0,0.7,6.3067371725827055,10.84024226002288,0.0,0.0
53.0,127.0,1.0,6.3067371725827055,10.84024226002288,0.0,0.0
54.0,1.0,0.1,-1.0585998721630654,0.39323418972553,0.0,0.0
54.0,1.0,0.3,-1.0585998721630654,0.39323418972553,0.0,0.0
54.0,1.0,0.7,-1.0585998721630654,0.39323418972553,0.0,0.0
54.0,1.0,1.0,-1.0585998721630654,0.39323418972553,0.0,0.0
54.0,9.0,0.1,-1.7547492081555565,-0.8500381230061989,0.0,0.0
54.0,9.0,0.3,-1.7547492081555565,-0.8500381230061989,0.0,0.0
54.0,9.0,0.7,-1.7547492081555565,-0.8500381230061989,0.0,0.0
54.0,9.0,1.0,-1.7547492081555565,-0.8500381230061989,0.0,0.0
54.0,17.0,0.1,-2.1724795421057594,-0.19356733759284178,0.0,0.0
54.0,17.0,0.3,-2.1724795421057594,-0.19356733759284178,0.0,0.0
54.0,17.0,0.7,-2.1724795421057594,-0.19356733759284178,0.0,0.0
54.0,17.0,1.0,-2.1724795421057594,-0.19356733759284178,0.0,0.0
54.0,25.0,0.1,-0.8583082362223577,0.4573965492441552,0.0,0.0
54.0,25.0,0.3,-0.8583082362223577,0.4573965492441552,0.0,0.0
54.0,25.0,0.7,-0.8583082362223577,0.4573965492441552,0.0,0.0
54.0,25.0,1.0,-0.8583082362223577,0.4573965492441552,0.0,0.0
54.0,33.0,0.1,-0.732028901164762,1.9308835355769431,0.0,0.0
54.0,33.0,0.3,-0.732028901164762,1.9308835355769431,0.0,0.0
54.0,33.0,0.7,-0.732028901164762,1.9308835355769431,0.0,0.0
54.0,33.0,1.0,-0.732028901164762,1.9308835355769431,0.0,0.0
54.0,41.0,0.1,0.7586130117291143,2.2607434332100986,0.0,0.0
54.0,41.0,0.3,0.7586130117291143,2.2607434332100986,0.0,0.0
54.0,41.0,0.7,0.7586130117291143,2.2607434332100986,0.0,0.0
54.0,41.0,1.0,0.7586130117291143,2.2607434332100986,0.0,0.0
54.0,49.0,0.1,1.1665912446736983,2.6846865423847626,0.0,0.0
54.0,49.0,0.3,1.1665912446736983,2.6846865423847626,0.0,0.0
54.0,49.0,0.7,1.1665912446736983,2.6846865423847626,0.0,0.0
54.0,49.0,1.0,1.1665912446736983,2.6846865423847626,0.0,0.0
54.0,57.0,0.1,1.475267722395413,3.239329524487518,0.0,0.0
54.0,57.0,0.3,1.475267722395413,3.239329524487518,0.0,0.0
54.0,57.0,0.7,1.475267722395413,3.239329524487518,0.0,0.0
54.0,57.0,1.0,1.475267722395413,3.239329524487518,0.0,0.0
54.0,65.0,0.1,1.663233392433428,3.8627413176685983,0.0,0.0
54.0,65.0,0.3,1.663233392433428,3.8627413176685983,0.0,0.0
54.0,65.0,0.7,1.663233392433428,3.8627413176685983,0.0,0.0
54.0,65.0,1.0,1.663233392433428,3.8627413176685983,0.0,0.0
54.0,73.0,0.1,2.5655662054803923,5.026263057809939,0.0,0.0
54.0,73.0,0.3,2.5655662054803923,5.026263057809939,0.0,0.0
54.0,73.0,0.7,2.5655662054803923,5.026263057809939,0.0,0.0
54.0,73.0,1.0,2.5655662054803923,5.026263057809939,0.0,0.0
54.0,81.0,0.1,3.0628732141712796,6.623831689699869,0.0,0.0
54.0,81.0,0.3,3.0628732141712796,6.623831689699869,0.0,0.0
54.0,81.0,0.7,3.0628732141712796,6.623831689699869,0.0,0.0
54.0,81.0,1.0,3.0628732141712796,6.623831689699869,0.0,0.0
54.0,89.0,0.1,3.2677713125758143,8.593091735197946,0.0,0.0
54.0,89.0,0.3,3.2677713125758143,8.593091735197946,0.0,0.0
54.0,89.0,0.7,3.2677713125758143,8.593091735197946,0.0,0.0
54.0,89.0,1.0,3.2677713125758143,8.593091735197946,0.0,0.0
54.0,97.0,0.1,3.3609552051500797,9.814056643200619,0.0,0.0
54.0,97.0,0.3,3.3609552051500797,9.814056643200619,0.0,0.0
54.0,97.0,0.7,3.3609552051500797,9.814056643200619,0.0,0.0
54.0,97.0,1.0,3.3609552051500797,9.814056643200619,0.0,0.0
54.0,105.0,0.1,3.345185026345435,11.038810129199058,0.0,0.0
54.0,105.0,0.3,3.345185026345435,11.038810129199058,0.0,0.0
54.0,105.0,0.7,3.345185026345435,11.038810129199058,0.0,0.0
54.0,105.0,1.0,3.345185026345435,11.038810129199058,0.0,0.0
54.0,113.0,0.1,3.338520548310161,10.93546491735557,0.0,0.0
54.0,113.0,0.3,3.338520548310161,10.93546491735557,0.0,0.0
54.0,113.0,0.7,3.338520548310161,10.93546491735557,0.0,0.0
54.0,113.0,1.0,3.338520548310161,10.93546491735557,0.0,0.0
54.0,121.0,0.1,3.300737045113758,10.963589837184184,0.0,0.0
54.0,121.0,0.3,3.300737045113758,10.963589837184184,0.0,0.0
54.0,121.0,0.7,3.300737045113758,10.963589837184184,0.0,0.0
54.0,121.0,1.0,3.300737045113758,10.963589837184184,0.0,0.0
54.0,127.0,0.1,3.31552188646932,10.965777963743802,0.0,0.0
54.0,127.0,0.3,3.31552188646932,10.965777963743802,0.0,0.0
54.0,127.0,0.7,3.31552188646932,10.965777963743802,0.0,0.0
54.0,127.0,1.0,3.31552188646932,10.965777963743802,0.0,0.0
55.0,1.0,0.1,-2.14314829979078,-0.9700951131631648,0.0,0.0
55.0,1.0,0.3,-2.14314829979078,-0.9700951131631648,0.0,0.0
55.0,1.0,0.7,-2.14314829979078,-0.9700951131631648,0.0,0.0
55.0,1.0,1.0,-2.14314829979078,-0.9700951131631648,0.0,0.0
55.0,9.0,0.1,-2.0628196653163418,-0.8510607870979314,0.0,0.0
55.0,9.0,0.3,-2.0628196653163418,-0.8510607870979314,0.0,0.0
55.0,9.0,0.7,-2.0628196653163418,-0.8510607870979314,0.0,0.0
55.0,9.0,1.0,-2.0628196653163418,-0.8510607870979314,0.0,0.0
55.0,17.0,0.1,-2.118228581573601,0.9666102600949339,0.0,0.0
55.0,17.0,0.3,-2.118228581573601,0.9666102600949339,0.0,0.0
55.0,17.0,0.7,-2.118228581573601,0.9666102600949339,0.0,0.0
55.0,17.0,1.0,-2.118228581573601,0.9666102600949339,0.0,0.0
55.0,25.0,0.1,-2.1674563600494166,1.3965239676962138,0.0,0.0
55.0,25.0,0.3,-2.1674563600494166,1.3965239676962138,0.0,0.0
55.0,25.0,0.7,-2.1674563600494166,1.3965239676962138,0.0,0.0
55.0,25.0,1.0,-2.1674563600494166,1.3965239676962138,0.0,0.0
55.0,33.0,0.1,1.1173164397970452,1.8264905611635363,0.0,0.0
55.0,33.0,0.3,1.1173164397970452,1.8264905611635363,0.0,0.0
55.0,33.0,0.7,1.1173164397970452,1.8264905611635363,0.0,0.0
55.0,33.0,1.0,1.1173164397970452,1.8264905611635363,0.0,0.0
55.0,41.0,0.1,1.4140826009295995,2.177428456395828,0.0,0.0
55.0,41.0,0.3,1.4140826009295995,2.177428456395828,0.0,0.0
55.0,41.0,0.7,1.4140826009295995,2.177428456395828,0.0,0.0
55.0,41.0,1.0,1.4140826009295995,2.177428456395828,0.0,0.0
55.0,49.0,0.1,1.59332553338729,2.549740226771644,0.0,0.0
55.0,49.0,0.3,1.59332553338729,2.549740226771644,0.0,0.0
55.0,49.0,0.7,1.59332553338729,2.549740226771644,0.0,0.0
55.0,49.0,1.0,1.59332553338729,2.549740226771644,0.0,0.0
55.0,57.0,0.1,1.8056581844918018,2.722368884318427,0.0,0.0
55.0,57.0,0.3,1.8056581844918018,2.722368884318427,0.0,0.0
55.0,57.0,0.7,1.8056581844918018,2.722368884318427,0.0,0.0
55.0,57.0,1.0,1.8056581844918018,2.722368884318427,0.0,0.0
55.0,65.0,0.1,2.7203713511270773,3.751504354012343,0.0,0.0
55.0,65.0,0.3,2.7203713511270773,3.751504354012343,0.0,0.0
55.0,65.0,0.7,2.7203713511270773,3.751504354012343,0.0,0.0
55.0,65.0,1.0,2.7203713511270773,3.751504354012343,0.0,0.0
55.0,73.0,0.1,3.163902191697131,4.821850106152802,0.0,0.0
55.0,73.0,0.3,3.163902191697131,4.821850106152802,0.0,0.0
55.0,73.0,0.7,3.163902191697131,4.821850106152802,0.0,0.0
55.0,73.0,1.0,3.163902191697131,4.821850106152802,0.0,0.0
55.0,81.0,0.1,3.3929645751593687,6.061589955892981,0.0,0.0
55.0,81.0,0.3,3.3929645751593687,6.061589955892981,0.0,0.0
55.0,81.0,0.7,3.3929645751593687,6.061589955892981,0.0,0.0
55.0,81.0,1.0,3.3929645751593687,6.061589955892981,0.0,0.0
55.0,89.0,0.1,4.751762206650883,9.260851838332218,0.0,0.0
55.0,89.0,0.3,4.751762206650883,9.260851838332218,0.0,0.0
55.0,89.0,0.7,4.751762206650883,9.260851838332218,0.0,0.0
55.0,89.0,1.0,4.751762206650883,9.260851838332218,0.0,0.0
55.0,97.0,0.1,6.351625579554439,10.976482310362522,0.0,0.0
55.0,97.0,0.3,6.351625579554439,10.976482310362522,0.0,0.0
55.0,97.0,0.7,6.351625579554439,10.976482310362522,0.0,0.0
55.0,97.0,1.0,6.351625579554439,10.976482310362522,0.0,0.0
55.0,105.0,0.1,6.352159515562009,10.94370036745621,0.0,0.0
55.0,105.0,0.3,6.352159515562009,10.94370036745621,0.0,0.0
55.0,105.0,0.7,6.352159515562009,10.94370036745621,0.0,0.0
55.0,105.0,1.0,6.352159515562009,10.94370036745621,0.0,0.0
55.0,113.0,0.1,6.333097205273159,10.950842198493698,0.0,0.0
55.0,113.0,0.3,6.333097205273159,10.950842198493698,0.0,0.0
55.0,113.0,0.7,6.333097205273159,10.950842198493698,0.0,0.0
55.0,113.0,1.0,6.333097205273159,10.950842198493698,0.0,0.0
55.0,121.0,0.1,6.326923287203794,10.954691684537758,0.0,0.0
55.0,121.0,0.3,6.326923287203794,10.954691684537758,0.0,0.0
55.0,121.0,0.7,6.326923287203794,10.954691684537758,0.0,0.0
55.0,121.0,1.0,6.326923287203794,10.954691684537758,0.0,0.0
55.0,127.0,0.1,6.324429612777215,10.922444752043738,0.0,0.0
55.0,127.0,0.3,6.324429612777215,10.922444752043738,0.0,0.0
55.0,127.0,0.7,6.324429612777215,10.922444752043738,0.0,0.0
55.0,127.0,1.0,6.324429612777215,10.922444752043738,0.0,0.0
56.0,1.0,0.1,1.2119598874204325,0.6502292010291355,0.0,0.0
56.0,1.0,0.3,1.2119598874204325,0.6502292010291355,0.0,0.0
56.0,1.0,0.7,1.2119598874204325,0.6502292010291355,0.0,0.0
56.0,1.0,1.0,1.2119598874204325,0.6502292010291355,0.0,0.0
56.0,9.0,0.1,1.2216187099036357,-0.7722371305167468,0.0,0.0
56.0,9.0,0.3,1.2216187099036357,-0.7722371305167468,0.0,0.0
56.0,9.0,0.7,1.2216187099036357,-0.7722371305167468,0.0,0.0
56.0,9.0,1.0,1.2216187099036357,-0.7722371305167468,0.0,0.0
56.0,17.0,0.1,1.1885385757903486,0.907636812147619,0.0,0.0
56.0,17.0,0.3,1.1885385757903486,0.907636812147619,0.0,0.0
56.0,17.0,0.7,1.1885385757903486,0.907636812147619,0.0,0.0
56.0,17.0,1.0,1.1885385757903486,0.907636812147619,0.0,0.0
56.0,25.0,0.1,1.1935098950335092,1.4491096987101442,0.0,0.0
56.0,25.0,0.3,1.1935098950335092,1.4491096987101442,0.0,0.0
56.0,25.0,0.7,1.1935098950335092,1.4491096987101442,0.0,0.0
56.0,25.0,1.0,1.1935098950335092,1.4491096987101442,0.0,0.0
56.0,33.0,0.1,1.273910398802164,1.9865358217783373,0.0,0.0
56.0,33.0,0.3,1.273910398802164,1.9865358217783373,0.0,0.0
56.0,33.0,0.7,1.273910398802164,1.9865358217783373,0.0,0.0
56.0,33.0,1.0,1.273910398802164,1.9865358217783373,0.0,0.0
56.0,41.0,0.1,1.4349934642430224,2.2642557491591457,0.0,0.0
56.0,41.0,0.3,1.4349934642430224,2.2642557491591457,0.0,0.0
56.0,41.0,0.7,1.4349934642430224,2.2642557491591457,0.0,0.0
56.0,41.0,1.0,1.4349934642430224,2.2642557491591457,0.0,0.0
56.0,49.0,0.1,1.7558615500321135,2.6128058573950703,0.0,0.0
56.0,49.0,0.3,1.7558615500321135,2.6128058573950703,0.0,0.0
56.0,49.0,0.7,1.7558615500321135,2.6128058573950703,0.0,0.0
56.0,49.0,1.0,1.7558615500321135,2.6128058573950703,0.0,0.0
56.0,57.0,0.1,2.4829543809971772,2.959742597392968,0.0,0.0
56.0,57.0,0.3,2.4829543809971772,2.959742597392968,0.0,0.0
56.0,57.0,0.7,2.4829543809971772,2.959742597392968,0.0,0.0
56.0,57.0,1.0,2.4829543809971772,2.959742597392968,0.0,0.0
56.0,65.0,0.1,3.015929533957587,3.344817569428715,0.0,0.0
56.0,65.0,0.3,3.015929533957587,3.344817569428715,0.0,0.0
56.0,65.0,0.7,3.015929533957587,3.344817569428715,0.0,0.0
56.0,65.0,1.0,3.015929533957587,3.344817569428715,0.0,0.0
56.0,73.0,0.1,3.247134205924068,4.641577990944008,0.0,0.0
56.0,73.0,0.3,3.247134205924068,4.641577990944008,0.0,0.0
56.0,73.0,0.7,3.247134205924068,4.641577990944008,0.0,0.0
56.0,73.0,1.0,3.247134205924068,4.641577990944008,0.0,0.0
56.0,81.0,0.1,3.4662509974431956,5.835925349164542,0.0,0.0
56.0,81.0,0.3,3.4662509974431956,5.835925349164542,0.0,0.0
56.0,81.0,0.7,3.4662509974431956,5.835925349164542,0.0,0.0
56.0,81.0,1.0,3.4662509974431956,5.835925349164542,0.0,0.0
56.0,89.0,0.1,4.357207943981409,7.931885560735911,0.0,0.0
56.0,89.0,0.3,4.357207943981409,7.931885560735911,0.0,0.0
56.0,89.0,0.7,4.357207943981409,7.931885560735911,0.0,0.0
56.0,89.0,1.0,4.357207943981409,7.931885560735911,0.0,0.0
56.0,97.0,0.1,6.403203429805366,9.874401417921753,0.0,0.0
56.0,97.0,0.3,6.403203429805366,9.874401417921753,0.0,0.0
56.0,97.0,0.7,6.403203429805366,9.874401417921753,0.0,0.0
56.0,97.0,1.0,6.403203429805366,9.874401417921753,0.0,0.0
56.0,105.0,0.1,6.367776508657094,10.928192391119083,0.0,0.0
56.0,105.0,0.3,6.367776508657094,10.928192391119083,0.0,0.0
56.0,105.0,0.7,6.367776508657094,10.928192391119083,0.0,0.0
56.0,105.0,1.0,6.367776508657094,10.928192391119083,0.0,0.0
56.0,113.0,0.1,6.359752905521657,10.923970860331009,0.0,0.0
56.0,113.0,0.3,6.359752905521657,10.923970860331009,0.0,0.0
56.0,113.0,0.7,6.359752905521657,10.923970860331009,0.0,0.0
56.0,113.0,1.0,6.359752905521657,10.923970860331009,0.0,0.0
56.0,121.0,0.1,6.351110468666589,10.882814593151299,0.0,0.0
56.0,121.0,0.3,6.351110468666589,10.882814593151299,0.0,0.0
56.0,121.0,0.7,6.351110468666589,10.882814593151299,0.0,0.0
56.0,121.0,1.0,6.351110468666589,10.882814593151299,0.0,0.0
56.0,127.0,0.1,5.283209169502835,10.88908119091872,0.0,0.0
56.0,127.0,0.3,5.283209169502835,10.88908119091872,0.0,0.0
56.0,127.0,0.7,5.283209169502835,10.88908119091872,0.0,0.0
56.0,127.0,1.0,5.283209169502835,10.88908119091872,0.0,0.0
57.0,1.0,0.1,-3.497689566996347,0.6037096247469513,0.0,0.0
57.0,1.0,0.3,-3.497689566996347,0.6037096247469513,0.0,0.0
57.0,1.0,0.7,-3.497689566996347,0.6037096247469513,0.0,0.0
57.0,1.0,1.0,-3.497689566996347,0.6037096247469513,0.0,0.0
57.0,9.0,0.1,-3.2335145095449604,-0.38353356624429275,0.0,0.0
57.0,9.0,0.3,-3.2335145095449604,-0.38353356624429275,0.0,0.0
57.0,9.0,0.7,-3.2335145095449604,-0.38353356624429275,0.0,0.0
57.0,9.0,1.0,-3.2335145095449604,-0.38353356624429275,0.0,0.0
57.0,17.0,0.1,-1.4699557829573024,0.23108338638673906,0.0,0.0
57.0,17.0,0.3,-1.4699557829573024,0.23108338638673906,0.0,0.0
57.0,17.0,0.7,-1.4699557829573024,0.23108338638673906,0.0,0.0
57.0,17.0,1.0,-1.4699557829573024,0.23108338638673906,0.0,0.0
57.0,25.0,0.1,-3.5452161160700184,0.5603417090356916,0.0,0.0
57.0,25.0,0.3,-3.5452161160700184,0.5603417090356916,0.0,0.0
57.0,25.0,0.7,-3.5452161160700184,0.5603417090356916,0.0,0.0
57.0,25.0,1.0,-3.5452161160700184,0.5603417090356916,0.0,0.0
57.0,33.0,0.1,1.3134910760867484,1.6343122185595447,0.0,0.0
57.0,33.0,0.3,1.3134910760867484,1.6343122185595447,0.0,0.0
57.0,33.0,0.7,1.3134910760867484,1.6343122185595447,0.0,0.0
57.0,33.0,1.0,1.3134910760867484,1.6343122185595447,0.0,0.0
57.0,41.0,0.1,1.5020718519211214,2.163590892608129,0.0,0.0
57.0,41.0,0.3,1.5020718519211214,2.163590892608129,0.0,0.0
57.0,41.0,0.7,1.5020718519211214,2.163590892608129,0.0,0.0
57.0,41.0,1.0,1.5020718519211214,2.163590892608129,0.0,0.0
57.0,49.0,0.1,1.7161925372886784,2.4524032399020497,0.0,0.0
57.0,49.0,0.3,1.7161925372886784,2.4524032399020497,0.0,0.0
57.0,49.0,0.7,1.7161925372886784,2.4524032399020497,0.0,0.0
57.0,49.0,1.0,1.7161925372886784,2.4524032399020497,0.0,0.0
57.0,57.0,0.1,2.280058443822771,2.9546815241976065,0.0,0.0
57.0,57.0,0.3,2.280058443822771,2.9546815241976065,0.0,0.0
57.0,57.0,0.7,2.280058443822771,2.9546815241976065,0.0,0.0
57.0,57.0,1.0,2.280058443822771,2.9546815241976065,0.0,0.0
57.0,65.0,0.1,2.9405865212895264,3.3001192390386542,0.0,0.0
57.0,65.0,0.3,2.9405865212895264,3.3001192390386542,0.0,0.0
57.0,65.0,0.7,2.9405865212895264,3.3001192390386542,0.0,0.0
57.0,65.0,1.0,2.9405865212895264,3.3001192390386542,0.0,0.0
57.0,73.0,0.1,3.1933964224213027,4.782799481392342,0.0,0.0
57.0,73.0,0.3,3.1933964224213027,4.782799481392342,0.0,0.0
57.0,73.0,0.7,3.1933964224213027,4.782799481392342,0.0,0.0
57.0,73.0,1.0,3.1933964224213027,4.782799481392342,0.0,0.0
57.0,81.0,0.1,3.550489868322642,5.976792533542381,0.0,0.0
57.0,81.0,0.3,3.550489868322642,5.976792533542381,0.0,0.0
57.0,81.0,0.7,3.550489868322642,5.976792533542381,0.0,0.0
57.0,81.0,1.0,3.550489868322642,5.976792533542381,0.0,0.0
57.0,89.0,0.1,6.314711981424745,7.983799593597462,0.0,0.0
57.0,89.0,0.3,6.314711981424745,7.983799593597462,0.0,0.0
57.0,89.0,0.7,6.314711981424745,7.983799593597462,0.0,0.0
57.0,89.0,1.0,6.314711981424745,7.983799593597462,0.0,0.0
57.0,97.0,0.1,6.643528821332436,9.943756052336528,0.0,0.0
57.0,97.0,0.3,6.643528821332436,9.943756052336528,0.0,0.0
57.0,97.0,0.7,6.643528821332436,9.943756052336528,0.0,0.0
57.0,97.0,1.0,6.643528821332436,9.943756052336528,0.0,0.0
57.0,105.0,0.1,6.646081809075779,11.036379980610262,0.0,0.0
57.0,105.0,0.3,6.646081809075779,11.036379980610262,0.0,0.0
57.0,105.0,0.7,6.646081809075779,11.036379980610262,0.0,0.0
57.0,105.0,1.0,6.646081809075779,11.036379980610262,0.0,0.0
57.0,113.0,0.1,6.637899341585946,11.01993679199769,0.0,0.0
57.0,113.0,0.3,6.637899341585946,11.01993679199769,0.0,0.0
57.0,113.0,0.7,6.637899341585946,11.01993679199769,0.0,0.0
57.0,113.0,1.0,6.637899341585946,11.01993679199769,0.0,0.0
57.0,121.0,0.1,6.633921051885387,10.980168288241252,0.0,0.0
57.0,121.0,0.3,6.633921051885387,10.980168288241252,0.0,0.0
57.0,121.0,0.7,6.633921051885387,10.980168288241252,0.0,0.0
57.0,121.0,1.0,6.633921051885387,10.980168288241252,0.0,0.0
57.0,127.0,0.1,6.61082571490221,11.010384682314163,0.0,0.0
57.0,127.0,0.3,6.61082571490221,11.010384682314163,0.0,0.0
57.0,127.0,0.7,6.61082571490221,11.010384682314163,0.0,0.0
57.0,127.0,1.0,6.61082571490221,11.010384682314163,0.0,0.0
58.0,1.0,0.1,0.868816883876699,-0.7711281493756896,0.0,0.0
58.0,1.0,0.3,0.868816883876699,-0.7711281493756896,0.0,0.0
58.0,1.0,0.7,0.868816883876699,-0.7711281493756896,0.0,0.0
58.0,1.0,1.0,0.868816883876699,-0.7711281493756896,0.0,0.0
58.0,9.0,0.1,-3.818579069448857,-0.9276584340390472,0.0,0.0
58.0,9.0,0.3,-3.818579069448857,-0.9276584340390472,0.0,0.0
58.0,9.0,0.7,-3.818579069448857,-0.9276584340390472,0.0,0.0
58.0,9.0,1.0,-3.818579069448857,-0.9276584340390472,0.0,0.0
58.0,17.0,0.1,-3.535352187516186,-0.21423193303475335,0.0,0.0
58.0,17.0,0.3,-3.535352187516186,-0.21423193303475335,0.0,0.0
58.0,17.0,0.7,-3.535352187516186,-0.21423193303475335,0.0,0.0
58.0,17.0,1.0,-3.535352187516186,-0.21423193303475335,0.0,0.0
58.0,25.0,0.1,-3.777327685903135,1.4499315538486082,0.0,0.0
58.0,25.0,0.3,-3.777327685903135,1.4499315538486082,0.0,0.0
58.0,25.0,0.7,-3.777327685903135,1.4499315538486082,0.0,0.0
58.0,25.0,1.0,-3.777327685903135,1.4499315538486082,0.0,0.0
58.0,33.0,0.1,0.7819078686578673,2.0462588367505354,0.0,0.0
58.0,33.0,0.3,0.7819078686578673,2.0462588367505354,0.0,0.0
58.0,33.0,0.7,0.7819078686578673,2.0462588367505354,0.0,0.0
58.0,33.0,1.0,0.7819078686578673,2.0462588367505354,0.0,0.0
58.0,41.0,0.1,1.3791551336463919,2.2912162491610024,0.0,0.0
58.0,41.0,0.3,1.3791551336463919,2.2912162491610024,0.0,0.0
58.0,41.0,0.7,1.3791551336463919,2.2912162491610024,0.0,0.0
58.0,41.0,1.0,1.3791551336463919,2.2912162491610024,0.0,0.0
58.0,49.0,0.1,1.6359388008310243,2.534518036895692,0.0,0.0
58.0,49.0,0.3,1.6359388008310243,2.534518036895692,0.0,0.0
58.0,49.0,0.7,1.6359388008310243,2.534518036895692,0.0,0.0
58.0,49.0,1.0,1.6359388008310243,2.534518036895692,0.0,0.0
58.0,57.0,0.1,1.881127525302237,2.9752762426594934,0.0,0.0
58.0,57.0,0.3,1.881127525302237,2.9752762426594934,0.0,0.0
58.0,57.0,0.7,1.881127525302237,2.9752762426594934,0.0,0.0
58.0,57.0,1.0,1.881127525302237,2.9752762426594934,0.0,0.0
58.0,65.0,0.1,2.648359944207358,3.5422203790989397,0.0,0.0
58.0,65.0,0.3,2.648359944207358,3.5422203790989397,0.0,0.0
58.0,65.0,0.7,2.648359944207358,3.5422203790989397,0.0,0.0
58.0,65.0,1.0,2.648359944207358,3.5422203790989397,0.0,0.0
58.0,73.0,0.1,3.1823886178818217,4.967716662783172,0.0,0.0
58.0,73.0,0.3,3.1823886178818217,4.967716662783172,0.0,0.0
58.0,73.0,0.7,3.1823886178818217,4.967716662783172,0.0,0.0
58.0,73.0,1.0,3.1823886178818217,4.967716662783172,0.0,0.0
58.0,81.0,0.1,3.4129371160216717,6.003642745740559,0.0,0.0
58.0,81.0,0.3,3.4129371160216717,6.003642745740559,0.0,0.0
58.0,81.0,0.7,3.4129371160216717,6.003642745740559,0.0,0.0
58.0,81.0,1.0,3.4129371160216717,6.003642745740559,0.0,0.0
58.0,89.0,0.1,4.0881580568085205,7.529808167955388,0.0,0.0
58.0,89.0,0.3,4.0881580568085205,7.529808167955388,0.0,0.0
58.0,89.0,0.7,4.0881580568085205,7.529808167955388,0.0,0.0
58.0,89.0,1.0,4.0881580568085205,7.529808167955388,0.0,0.0
58.0,97.0,0.1,6.32567210425069,9.561362830795455,0.0,0.0
58.0,97.0,0.3,6.32567210425069,9.561362830795455,0.0,0.0
58.0,97.0,0.7,6.32567210425069,9.561362830795455,0.0,0.0
58.0,97.0,1.0,6.32567210425069,9.561362830795455,0.0,0.0
58.0,105.0,0.1,6.311235566467577,10.993022116268122,0.0,0.0
58.0,105.0,0.3,6.311235566467577,10.993022116268122,0.0,0.0
58.0,105.0,0.7,6.311235566467577,10.993022116268122,0.0,0.0
58.0,105.0,1.0,6.311235566467577,10.993022116268122,0.0,0.0
58.0,113.0,0.1,6.299534248789458,10.95533610429568,0.0,0.0
58.0,113.0,0.3,6.299534248789458,10.95533610429568,0.0,0.0
58.0,113.0,0.7,6.299534248789458,10.95533610429568,0.0,0.0
58.0,113.0,1.0,6.299534248789458,10.95533610429568,0.0,0.0
58.0,121.0,0.1,6.343580741018035,10.971694859799857,0.0,0.0
58.0,121.0,0.3,6.343580741018035,10.971694859799857,0.0,0.0
58.0,121.0,0.7,6.343580741018035,10.971694859799857,0.0,0.0
58.0,121.0,1.0,6.343580741018035,10.971694859799857,0.0,0.0
58.0,127.0,0.1,4.175422021610385,10.970374706815674,0.0,0.0
58.0,127.0,0.3,4.175422021610385,10.970374706815674,0.0,0.0
58.0,127.0,0.7,4.175422021610385,10.970374706815674,0.0,0.0
58.0,127.0,1.0,4.175422021610385,10.970374706815674,0.0,0.0
59.0,1.0,0.1,-3.568976831422642,-0.9617251564506455,0.0,0.0
59.0,1.0,0.3,-3.568976831422642,-0.9617251564506455,0.0,0.0
59.0,1.0,0.7,-3.568976831422642,-0.9617251564506455,0.0,0.0
59.0,1.0,1.0,-3.568976831422642,-0.9617251564506455,0.0,0.0
59.0,9.0,0.1,-0.2133330819147996,-1.1672505356922744,0.0,0.0
59.0,9.0,0.3,-0.2133330819147996,-1.1672505356922744,0.0,0.0
59.0,9.0,0.7,-0.2133330819147996,-1.1672505356922744,0.0,0.0
59.0,9.0,1.0,-0.2133330819147996,-1.1672505356922744,0.0,0.0
59.0,17.0,0.1,-2.1613879500074065,0.725916231938192,0.0,0.0
59.0,17.0,0.3,-2.1613879500074065,0.725916231938192,0.0,0.0
59.0,17.0,0.7,-2.1613879500074065,0.725916231938192,0.0,0.0
59.0,17.0,1.0,-2.1613879500074065,0.725916231938192,0.0,0.0
59.0,25.0,0.1,-2.3139754307363463,1.1025352035074758,0.0,0.0
59.0,25.0,0.3,-2.3139754307363463,1.1025352035074758,0.0,0.0
59.0,25.0,0.7,-2.3139754307363463,1.1025352035074758,0.0,0.0
59.0,25.0,1.0,-2.3139754307363463,1.1025352035074758,0.0,0.0
59.0,33.0,0.1,0.512647534275794,1.4329028764798726,0.0,0.0
59.0,33.0,0.3,0.512647534275794,1.4329028764798726,0.0,0.0
59.0,33.0,0.7,0.512647534275794,1.4329028764798726,0.0,0.0
59.0,33.0,1.0,0.512647534275794,1.4329028764798726,0.0,0.0
59.0,41.0,0.1,1.3874763172026547,1.9452826361067908,0.0,0.0
59.0,41.0,0.3,1.3874763172026547,1.9452826361067908,0.0,0.0
59.0,41.0,0.7,1.3874763172026547,1.9452826361067908,0.0,0.0
59.0,41.0,1.0,1.3874763172026547,1.9452826361067908,0.0,0.0
59.0,49.0,0.1,1.296577592091444,1.5801592692037731,0.0,0.0
59.0,49.0,0.3,1.296577592091444,1.5801592692037731,0.0,0.0
59.0,49.0,0.7,1.296577592091444,1.5801592692037731,0.0,0.0
59.0,49.0,1.0,1.296577592091444,1.5801592692037731,0.0,0.0
59.0,57.0,0.1,1.594286222828169,2.3869474978216756,0.0,0.0
59.0,57.0,0.3,1.594286222828169,2.3869474978216756,0.0,0.0
59.0,57.0,0.7,1.594286222828169,2.3869474978216756,0.0,0.0
59.0,57.0,1.0,1.594286222828169,2.3869474978216756,0.0,0.0
59.0,65.0,0.1,2.311493760334662,3.3131650535974773,0.0,0.0
59.0,65.0,0.3,2.311493760334662,3.3131650535974773,0.0,0.0
59.0,65.0,0.7,2.311493760334662,3.3131650535974773,0.0,0.0
59.0,65.0,1.0,2.311493760334662,3.3131650535974773,0.0,0.0
59.0,73.0,0.1,3.089792468052574,4.380093157814927,0.0,0.0
59.0,73.0,0.3,3.089792468052574,4.380093157814927,0.0,0.0
59.0,73.0,0.7,3.089792468052574,4.380093157814927,0.0,0.0
59.0,73.0,1.0,3.089792468052574,4.380093157814927,0.0,0.0
59.0,81.0,0.1,3.293440568369352,5.245993374953417,0.0,0.0
59.0,81.0,0.3,3.293440568369352,5.245993374953417,0.0,0.0
59.0,81.0,0.7,3.293440568369352,5.245993374953417,0.0,0.0
59.0,81.0,1.0,3.293440568369352,5.245993374953417,0.0,0.0
59.0,89.0,0.1,3.575077645409549,6.229295044415275,0.0,0.0
59.0,89.0,0.3,3.575077645409549,6.229295044415275,0.0,0.0
59.0,89.0,0.7,3.575077645409549,6.229295044415275,0.0,0.0
59.0,89.0,1.0,3.575077645409549,6.229295044415275,0.0,0.0
59.0,97.0,0.1,6.419551605689943,8.492320635417482,0.0,0.0
59.0,97.0,0.3,6.419551605689943,8.492320635417482,0.0,0.0
59.0,97.0,0.7,6.419551605689943,8.492320635417482,0.0,0.0
59.0,97.0,1.0,6.419551605689943,8.492320635417482,0.0,0.0
59.0,105.0,0.1,6.5027365985847405,10.313659670671829,0.0,0.0
59.0,105.0,0.3,6.5027365985847405,10.313659670671829,0.0,0.0
59.0,105.0,0.7,6.5027365985847405,10.313659670671829,0.0,0.0
59.0,105.0,1.0,6.5027365985847405,10.313659670671829,0.0,0.0
59.0,113.0,0.1,6.158146639336383,10.495688289269744,0.0,0.0
59.0,113.0,0.3,6.158146639336383,10.495688289269744,0.0,0.0
59.0,113.0,0.7,6.158146639336383,10.495688289269744,0.0,0.0
59.0,113.0,1.0,6.158146639336383,10.495688289269744,0.0,0.0
59.0,121.0,0.1,6.352755640319223,10.349579320940258,0.0,0.0
59.0,121.0,0.3,6.352755640319223,10.349579320940258,0.0,0.0
59.0,121.0,0.7,6.352755640319223,10.349579320940258,0.0,0.0
59.0,121.0,1.0,6.352755640319223,10.349579320940258,0.0,0.0
59.0,127.0,0.1,6.339591092495985,10.257893683466987,0.0,0.0
59.0,127.0,0.3,6.339591092495985,10.257893683466987,0.0,0.0
59.0,127.0,0.7,6.339591092495985,10.257893683466987,0.0,0.0
59.0,127.0,1.0,6.339591092495985,10.257893683466987,0.0,0.0
60.0,1.0,0.1,1.6620965002528443,0.643651765741228,0.0,0.0
60.0,1.0,0.3,1.6620965002528443,0.643651765741228,0.0,0.0
60.0,1.0,0.7,1.6620965002528443,0.643651765741228,0.0,0.0
60.0,1.0,1.0,1.6620965002528443,0.643651765741228,0.0,0.0
60.0,9.0,0.1,1.3831871519582286,0.6800385452687303,0.0,0.0
60.0,9.0,0.3,1.3831871519582286,0.6800385452687303,0.0,0.0
60.0,9.0,0.7,1.3831871519582286,0.6800385452687303,0.0,0.0
60.0,9.0,1.0,1.3831871519582286,0.6800385452687303,0.0,0.0
60.0,17.0,0.1,1.396151644957886,0.8905752848922844,0.0,0.0
60.0,17.0,0.3,1.396151644957886,0.8905752848922844,0.0,0.0
60.0,17.0,0.7,1.396151644957886,0.8905752848922844,0.0,0.0
60.0,17.0,1.0,1.396151644957886,0.8905752848922844,0.0,0.0
60.0,25.0,0.1,1.3489604164512725,1.2237334280006775,0.0,0.0
60.0,25.0,0.3,1.3489604164512725,1.2237334280006775,0.0,0.0
60.0,25.0,0.7,1.3489604164512725,1.2237334280006775,0.0,0.0
60.0,25.0,1.0,1.3489604164512725,1.2237334280006775,0.0,0.0
60.0,33.0,0.1,1.439945719635337,1.5584933846879494,0.0,0.0
60.0,33.0,0.3,1.439945719635337,1.5584933846879494,0.0,0.0
60.0,33.0,0.7,1.439945719635337,1.5584933846879494,0.0,0.0
60.0,33.0,1.0,1.439945719635337,1.5584933846879494,0.0,0.0
60.0,41.0,0.1,1.6634493611076377,2.090865036877075,0.0,0.0
60.0,41.0,0.3,1.6634493611076377,2.090865036877075,0.0,0.0
60.0,41.0,0.7,1.6634493611076377,2.090865036877075,0.0,0.0
60.0,41.0,1.0,1.6634493611076377,2.090865036877075,0.0,0.0
60.0,49.0,0.1,1.9036499619090432,2.349349141474373,0.0,0.0
60.0,49.0,0.3,1.9036499619090432,2.349349141474373,0.0,0.0
60.0,49.0,0.7,1.9036499619090432,2.349349141474373,0.0,0.0
60.0,49.0,1.0,1.9036499619090432,2.349349141474373,0.0,0.0
60.0,57.0,0.1,2.745301990080563,2.9107266155520772,0.0,0.0
60.0,57.0,0.3,2.745301990080563,2.9107266155520772,0.0,0.0
60.0,57.0,0.7,2.745301990080563,2.9107266155520772,0.0,0.0
60.0,57.0,1.0,2.745301990080563,2.9107266155520772,0.0,0.0
60.0,65.0,0.1,3.172536559290925,3.5441879098161237,0.0,0.0
60.0,65.0,0.3,3.172536559290925,3.5441879098161237,0.0,0.0
60.0,65.0,0.7,3.172536559290925,3.5441879098161237,0.0,0.0
60.0,65.0,1.0,3.172536559290925,3.5441879098161237,0.0,0.0
60.0,73.0,0.1,3.392335046715993,4.776584330748131,0.0,0.0
60.0,73.0,0.3,3.392335046715993,4.776584330748131,0.0,0.0
60.0,73.0,0.7,3.392335046715993,4.776584330748131,0.0,0.0
60.0,73.0,1.0,3.392335046715993,4.776584330748131,0.0,0.0
60.0,81.0,0.1,4.796351105298421,5.737405375835669,0.0,0.0
60.0,81.0,0.3,4.796351105298421,5.737405375835669,0.0,0.0
60.0,81.0,0.7,4.796351105298421,5.737405375835669,0.0,0.0
60.0,81.0,1.0,4.796351105298421,5.737405375835669,0.0,0.0
60.0,89.0,0.1,6.490195694871264,7.4839568183884,0.0,0.0
60.0,89.0,0.3,6.490195694871264,7.4839568183884,0.0,0.0
60.0,89.0,0.7,6.490195694871264,7.4839568183884,0.0,0.0
60.0,89.0,1.0,6.490195694871264,7.4839568183884,0.0,0.0
60.0,97.0,0.1,6.611928774536249,8.834897665858062,0.0,0.0
60.0,97.0,0.3,6.611928774536249,8.834897665858062,0.0,0.0
60.0,97.0,0.7,6.611928774536249,8.834897665858062,0.0,0.0
60.0,97.0,1.0,6.611928774536249,8.834897665858062,0.0,0.0
60.0,105.0,0.1,6.606551502746881,10.535658791973326,0.0,0.0
60.0,105.0,0.3,6.606551502746881,10.535658791973326,0.0,0.0
60.0,105.0,0.7,6.606551502746881,10.535658791973326,0.0,0.0
60.0,105.0,1.0,6.606551502746881,10.535658791973326,0.0,0.0
60.0,113.0,0.1,6.585562036552098,-2.5071185325327043,0.0,0.0
60.0,113.0,0.3,6.585562036552098,-2.5071185325327043,0.0,0.0
60.0,113.0,0.7,6.585562036552098,-2.5071185325327043,0.0,0.0
60.0,113.0,1.0,6.585562036552098,-2.5071185325327043,0.0,0.0
60.0,121.0,0.1,6.586695521308601,-2.8427320032351657,0.0,0.0
60.0,121.0,0.3,6.586695521308601,-2.8427320032351657,0.0,0.0
60.0,121.0,0.7,6.586695521308601,-2.8427320032351657,0.0,0.0
60.0,121.0,1.0,6.586695521308601,-2.8427320032351657,0.0,0.0
60.0,127.0,0.1,6.575857348327396,-2.912652943007407,0.0,0.0
60.0,127.0,0.3,6.575857348327396,-2.912652943007407,0.0,0.0
60.0,127.0,0.7,6.575857348327396,-2.912652943007407,0.0,0.0
60.0,127.0,1.0,6.575857348327396,-2.912652943007407,0.0,0.0
61.0,1.0,0.1,0.7813250739340034,-1.1004296083561491,0.0,0.0
61.0,1.0,0.3,0.7813250739340034,-1.1004296083561491,0.0,0.0
61.0,1.0,0.7,0.7813250739340034,-1.1004296083561491,0.0,0.0
61.0,1.0,1.0,0.7813250739340034,-1.1004296083561491,0.0,0.0
61.0,9.0,0.1,0.7486313010980805,0.2995319457181483,0.0,0.0
61.0,9.0,0.3,0.7486313010980805,0.2995319457181483,0.0,0.0
61.0,9.0,0.7,0.7486313010980805,0.2995319457181483,0.0,0.0
61.0,9.0,1.0,0.7486313010980805,0.2995319457181483,0.0,0.0
61.0,17.0,0.1,0.7506398602187953,0.5388384923241665,0.0,0.0
61.0,17.0,0.3,0.7506398602187953,0.5388384923241665,0.0,0.0
61.0,17.0,0.7,0.7506398602187953,0.5388384923241665,0.0,0.0
61.0,17.0,1.0,0.7506398602187953,0.5388384923241665,0.0,0.0
61.0,25.0,0.1,0.6648481587254567,0.8232413051086839,0.0,0.0
61.0,25.0,0.3,0.6648481587254567,0.8232413051086839,0.0,0.0
61.0,25.0,0.7,0.6648481587254567,0.8232413051086839,0.0,0.0
61.0,25.0,1.0,0.6648481587254567,0.8232413051086839,0.0,0.0
61.0,33.0,0.1,1.1251716667050067,1.1457182288518954,0.0,0.0
61.0,33.0,0.3,1.1251716667050067,1.1457182288518954,0.0,0.0
61.0,33.0,0.7,1.1251716667050067,1.1457182288518954,0.0,0.0
61.0,33.0,1.0,1.1251716667050067,1.1457182288518954,0.0,0.0
61.0,41.0,0.1,1.185273663410292,1.7264057219992213,0.0,0.0
61.0,41.0,0.3,1.185273663410292,1.7264057219992213,0.0,0.0
61.0,41.0,0.7,1.185273663410292,1.7264057219992213,0.0,0.0
61.0,41.0,1.0,1.185273663410292,1.7264057219992213,0.0,0.0
61.0,49.0,0.1,1.356790788951184,2.172282312912874,0.0,0.0
61.0,49.0,0.3,1.356790788951184,2.172282312912874,0.0,0.0
61.0,49.0,0.7,1.356790788951184,2.172282312912874,0.0,0.0
61.0,49.0,1.0,1.356790788951184,2.172282312912874,0.0,0.0
61.0,57.0,0.1,1.5362361216821179,2.609485481391474,0.0,0.0
61.0,57.0,0.3,1.5362361216821179,2.609485481391474,0.0,0.0
61.0,57.0,0.7,1.5362361216821179,2.609485481391474,0.0,0.0
61.0,57.0,1.0,1.5362361216821179,2.609485481391474,0.0,0.0
61.0,65.0,0.1,2.210387618671094,3.202719107177999,0.0,0.0
61.0,65.0,0.3,2.210387618671094,3.202719107177999,0.0,0.0
61.0,65.0,0.7,2.210387618671094,3.202719107177999,0.0,0.0
61.0,65.0,1.0,2.210387618671094,3.202719107177999,0.0,0.0
61.0,73.0,0.1,2.8800448139699633,4.198949024906347,0.0,0.0
61.0,73.0,0.3,2.8800448139699633,4.198949024906347,0.0,0.0
61.0,73.0,0.7,2.8800448139699633,4.198949024906347,0.0,0.0
61.0,73.0,1.0,2.8800448139699633,4.198949024906347,0.0,0.0
61.0,81.0,0.1,3.195967360933565,5.145141382902098,0.0,0.0
61.0,81.0,0.3,3.195967360933565,5.145141382902098,0.0,0.0
61.0,81.0,0.7,3.195967360933565,5.145141382902098,0.0,0.0
61.0,81.0,1.0,3.195967360933565,5.145141382902098,0.0,0.0
61.0,89.0,0.1,3.4673589477923557,6.054155346112808,0.0,0.0
61.0,89.0,0.3,3.4673589477923557,6.054155346112808,0.0,0.0
61.0,89.0,0.7,3.4673589477923557,6.054155346112808,0.0,0.0
61.0,89.0,1.0,3.4673589477923557,6.054155346112808,0.0,0.0
61.0,97.0,0.1,4.19673603680249,8.545941155393098,0.0,0.0
61.0,97.0,0.3,4.19673603680249,8.545941155393098,0.0,0.0
61.0,97.0,0.7,4.19673603680249,8.545941155393098,0.0,0.0
61.0,97.0,1.0,4.19673603680249,8.545941155393098,0.0,0.0
61.0,105.0,0.1,4.145192439457248,10.102684887299732,0.0,0.0
61.0,105.0,0.3,4.145192439457248,10.102684887299732,0.0,0.0
61.0,105.0,0.7,4.145192439457248,10.102684887299732,0.0,0.0
61.0,105.0,1.0,4.145192439457248,10.102684887299732,0.0,0.0
61.0,113.0,0.1,4.141304767972904,10.167489100331661,0.0,0.0
61.0,113.0,0.3,4.141304767972904,10.167489100331661,0.0,0.0
61.0,113.0,0.7,4.141304767972904,10.167489100331661,0.0,0.0
61.0,113.0,1.0,4.141304767972904,10.167489100331661,0.0,0.0
61.0,121.0,0.1,4.145923745699835,10.273373793299191,0.0,0.0
61.0,121.0,0.3,4.145923745699835,10.273373793299191,0.0,0.0
61.0,121.0,0.7,4.145923745699835,10.273373793299191,0.0,0.0
61.0,121.0,1.0,4.145923745699835,10.273373793299191,0.0,0.0
61.0,127.0,0.1,4.125006592675811,10.200871068808354,0.0,0.0
61.0,127.0,0.3,4.125006592675811,10.200871068808354,0.0,0.0
61.0,127.0,0.7,4.125006592675811,10.200871068808354,0.0,0.0
61.0,127.0,1.0,4.125006592675811,10.200871068808354,0.0,0.0
62.0,1.0,0.1,1.5449460147174965,-1.0915589370575205,0.0,0.0
62.0,1.0,0.3,1.5449460147174965,-1.0915589370575205,0.0,0.0
62.0,1.0,0.7,1.5449460147174965,-1.0915589370575205,0.0,0.0
62.0,1.0,1.0,1.5449460147174965,-1.0915589370575205,0.0,0.0
62.0,9.0,0.1,1.406610069140343,-1.3202402898633385,0.0,0.0
62.0,9.0,0.3,1.406610069140343,-1.3202402898633385,0.0,0.0
62.0,9.0,0.7,1.406610069140343,-1.3202402898633385,0.0,0.0
62.0,9.0,1.0,1.406610069140343,-1.3202402898633385,0.0,0.0
62.0,17.0,0.1,1.3557560618567615,-0.751509764663262,0.0,0.0
62.0,17.0,0.3,1.3557560618567615,-0.751509764663262,0.0,0.0
62.0,17.0,0.7,1.3557560618567615,-0.751509764663262,0.0,0.0
62.0,17.0,1.0,1.3557560618567615,-0.751509764663262,0.0,0.0
62.0,25.0,0.1,1.3580488939701532,0.769080484462928,0.0,0.0
62.0,25.0,0.3,1.3580488939701532,0.769080484462928,0.0,0.0
62.0,25.0,0.7,1.3580488939701532,0.769080484462928,0.0,0.0
62.0,25.0,1.0,1.3580488939701532,0.769080484462928,0.0,0.0
62.0,33.0,0.1,1.465349883635612,1.1436594908030027,0.0,0.0
62.0,33.0,0.3,1.465349883635612,1.1436594908030027,0.0,0.0
62.0,33.0,0.7,1.465349883635612,1.1436594908030027,0.0,0.0
62.0,33.0,1.0,1.465349883635612,1.1436594908030027,0.0,0.0
62.0,41.0,0.1,1.6794848415574903,1.5698966466165736,0.0,0.0
62.0,41.0,0.3,1.6794848415574903,1.5698966466165736,0.0,0.0
62.0,41.0,0.7,1.6794848415574903,1.5698966466165736,0.0,0.0
62.0,41.0,1.0,1.6794848415574903,1.5698966466165736,0.0,0.0
62.0,49.0,0.1,2.318543280382569,2.1228081540787924,0.0,0.0
62.0,49.0,0.3,2.318543280382569,2.1228081540787924,0.0,0.0
62.0,49.0,0.7,2.318543280382569,2.1228081540787924,0.0,0.0
62.0,49.0,1.0,2.318543280382569,2.1228081540787924,0.0,0.0
62.0,57.0,0.1,2.880400556196513,2.6917229341368416,0.0,0.0
62.0,57.0,0.3,2.880400556196513,2.6917229341368416,0.0,0.0
62.0,57.0,0.7,2.880400556196513,2.6917229341368416,0.0,0.0
62.0,57.0,1.0,2.880400556196513,2.6917229341368416,0.0,0.0
62.0,65.0,0.1,3.1601982345888464,3.307466636145319,0.0,0.0
62.0,65.0,0.3,3.1601982345888464,3.307466636145319,0.0,0.0
62.0,65.0,0.7,3.1601982345888464,3.307466636145319,0.0,0.0
62.0,65.0,1.0,3.1601982345888464,3.307466636145319,0.0,0.0
62.0,73.0,0.1,3.4048216070726016,4.181333397880081,0.0,0.0
62.0,73.0,0.3,3.4048216070726016,4.181333397880081,0.0,0.0
62.0,73.0,0.7,3.4048216070726016,4.181333397880081,0.0,0.0
62.0,73.0,1.0,3.4048216070726016,4.181333397880081,0.0,0.0
62.0,81.0,0.1,4.341228783472165,5.41709059354987,0.0,0.0
62.0,81.0,0.3,4.341228783472165,5.41709059354987,0.0,0.0
62.0,81.0,0.7,4.341228783472165,5.41709059354987,0.0,0.0
62.0,81.0,1.0,4.341228783472165,5.41709059354987,0.0,0.0
62.0,89.0,0.1,6.544029123015546,6.835205588749397,0.0,0.0
62.0,89.0,0.3,6.544029123015546,6.835205588749397,0.0,0.0
62.0,89.0,0.7,6.544029123015546,6.835205588749397,0.0,0.0
62.0,89.0,1.0,6.544029123015546,6.835205588749397,0.0,0.0
62.0,97.0,0.1,6.749198089830481,8.53903930453833,0.0,0.0
62.0,97.0,0.3,6.749198089830481,8.53903930453833,0.0,0.0
62.0,97.0,0.7,6.749198089830481,8.53903930453833,0.0,0.0
62.0,97.0,1.0,6.749198089830481,8.53903930453833,0.0,0.0
62.0,105.0,0.1,6.774639343186416,10.027761103586474,0.0,0.0
62.0,105.0,0.3,6.774639343186416,10.027761103586474,0.0,0.0
62.0,105.0,0.7,6.774639343186416,10.027761103586474,0.0,0.0
62.0,105.0,1.0,6.774639343186416,10.027761103586474,0.0,0.0
62.0,113.0,0.1,6.772215081996999,9.889795092430441,0.0,0.0
62.0,113.0,0.3,6.772215081996999,9.889795092430441,0.0,0.0
62.0,113.0,0.7,6.772215081996999,9.889795092430441,0.0,0.0
62.0,113.0,1.0,6.772215081996999,9.889795092430441,0.0,0.0
62.0,121.0,0.1,6.749664569406572,9.903215243029997,0.0,0.0
62.0,121.0,0.3,6.749664569406572,9.903215243029997,0.0,0.0
62.0,121.0,0.7,6.749664569406572,9.903215243029997,0.0,0.0
62.0,121.0,1.0,6.749664569406572,9.903215243029997,0.0,0.0
62.0,127.0,0.1,6.762448078167389,9.897249486937818,0.0,0.0
62.0,127.0,0.3,6.762448078167389,9.897249486937818,0.0,0.0
62.0,127.0,0.7,6.762448078167389,9.897249486937818,0.0,0.0
62.0,127.0,1.0,6.762448078167389,9.897249486937818,0.0,0.0
63.0,1.0,0.1,0.9051088234614535,-1.72995920979268,0.0,0.0
63.0,1.0,0.3,0.9051088234614535,-1.72995920979268,0.0,0.0
63.0,1.0,0.7,0.9051088234614535,-1.72995920979268,0.0,0.0
63.0,1.0,1.0,0.9051088234614535,-1.72995920979268,0.0,0.0
63.0,9.0,0.1,0.8964683229206374,-1.7590187362527405,0.0,0.0
63.0,9.0,0.3,0.8964683229206374,-1.7590187362527405,0.0,0.0
63.0,9.0,0.7,0.8964683229206374,-1.7590187362527405,0.0,0.0
63.0,9.0,1.0,0.8964683229206374,-1.7590187362527405,0.0,0.0
63.0,17.0,0.1,0.8741966933884721,-1.2725687117447038,0.0,0.0
63.0,17.0,0.3,0.8741966933884721,-1.2725687117447038,0.0,0.0
63.0,17.0,0.7,0.8741966933884721,-1.2725687117447038,0.0,0.0
63.0,17.0,1.0,0.8741966933884721,-1.2725687117447038,0.0,0.0
63.0,25.0,0.1,0.874742017395667,0.6949422230341852,0.0,0.0
63.0,25.0,0.3,0.874742017395667,0.6949422230341852,0.0,0.0
63.0,25.0,0.7,0.874742017395667,0.6949422230341852,0.0,0.0
63.0,25.0,1.0,0.874742017395667,0.6949422230341852,0.0,0.0
63.0,33.0,0.1,0.9841183413690786,0.8471239795923177,0.0,0.0
63.0,33.0,0.3,0.9841183413690786,0.8471239795923177,0.0,0.0
63.0,33.0,0.7,0.9841183413690786,0.8471239795923177,0.0,0.0
63.0,33.0,1.0,0.9841183413690786,0.8471239795923177,0.0,0.0
63.0,41.0,0.1,1.3969557515715794,1.2561238290185643,0.0,0.0
63.0,41.0,0.3,1.3969557515715794,1.2561238290185643,0.0,0.0
63.0,41.0,0.7,1.3969557515715794,1.2561238290185643,0.0,0.0
63.0,41.0,1.0,1.3969557515715794,1.2561238290185643,0.0,0.0
63.0,49.0,0.1,1.5134502392556857,1.8782640941579822,0.0,0.0
63.0,49.0,0.3,1.5134502392556857,1.8782640941579822,0.0,0.0
63.0,49.0,0.7,1.5134502392556857,1.8782640941579822,0.0,0.0
63.0,49.0,1.0,1.5134502392556857,1.8782640941579822,0.0,0.0
63.0,57.0,0.1,1.7144613502465125,2.4355295448352234,0.0,0.0
63.0,57.0,0.3,1.7144613502465125,2.4355295448352234,0.0,0.0
63.0,57.0,0.7,1.7144613502465125,2.4355295448352234,0.0,0.0
63.0,57.0,1.0,1.7144613502465125,2.4355295448352234,0.0,0.0
63.0,65.0,0.1,2.5997446299709006,2.922869935583012,0.0,0.0
63.0,65.0,0.3,2.5997446299709006,2.922869935583012,0.0,0.0
63.0,65.0,0.7,2.5997446299709006,2.922869935583012,0.0,0.0
63.0,65.0,1.0,2.5997446299709006,2.922869935583012,0.0,0.0
63.0,73.0,0.1,3.106505122487701,3.5268740186432073,0.0,0.0
63.0,73.0,0.3,3.106505122487701,3.5268740186432073,0.0,0.0
63.0,73.0,0.7,3.106505122487701,3.5268740186432073,0.0,0.0
63.0,73.0,1.0,3.106505122487701,3.5268740186432073,0.0,0.0
63.0,81.0,0.1,3.2756905068391635,4.611565356110838,0.0,0.0
63.0,81.0,0.3,3.2756905068391635,4.611565356110838,0.0,0.0
63.0,81.0,0.7,3.2756905068391635,4.611565356110838,0.0,0.0
63.0,81.0,1.0,3.2756905068391635,4.611565356110838,0.0,0.0
63.0,89.0,0.1,3.5748788241055656,5.621186579191126,0.0,0.0
63.0,89.0,0.3,3.5748788241055656,5.621186579191126,0.0,0.0
63.0,89.0,0.7,3.5748788241055656,5.621186579191126,0.0,0.0
63.0,89.0,1.0,3.5748788241055656,5.621186579191126,0.0,0.0
63.0,97.0,0.1,6.407449922534285,7.344311823030682,0.0,0.0
63.0,97.0,0.3,6.407449922534285,7.344311823030682,0.0,0.0
63.0,97.0,0.7,6.407449922534285,7.344311823030682,0.0,0.0
63.0,97.0,1.0,6.407449922534285,7.344311823030682,0.0,0.0
63.0,105.0,0.1,6.300989544505187,9.309077397902325,0.0,0.0
63.0,105.0,0.3,6.300989544505187,9.309077397902325,0.0,0.0
63.0,105.0,0.7,6.300989544505187,9.309077397902325,0.0,0.0
63.0,105.0,1.0,6.300989544505187,9.309077397902325,0.0,0.0
63.0,113.0,0.1,6.4001719481792225,10.221204494375725,0.0,0.0
63.0,113.0,0.3,6.4001719481792225,10.221204494375725,0.0,0.0
63.0,113.0,0.7,6.4001719481792225,10.221204494375725,0.0,0.0
63.0,113.0,1.0,6.4001719481792225,10.221204494375725,0.0,0.0
63.0,121.0,0.1,6.29217154663441,10.112355136287764,0.0,0.0
63.0,121.0,0.3,6.29217154663441,10.112355136287764,0.0,0.0
63.0,121.0,0.7,6.29217154663441,10.112355136287764,0.0,0.0
63.0,121.0,1.0,6.29217154663441,10.112355136287764,0.0,0.0
63.0,127.0,0.1,6.409882176188111,10.099238914380365,0.0,0.0
63.0,127.0,0.3,6.409882176188111,10.099238914380365,0.0,0.0
63.0,127.0,0.7,6.409882176188111,10.099238914380365,0.0,0.0
63.0,127.0,1.0,6.409882176188111,10.099238914380365,0.0,0.0
64.0,1.0,0.1,0.8549534358836248,0.1331999134302481,0.0,0.0
64.0,1.0,0.3,0.8549534358836248,0.1331999134302481,0.0,0.0
64.0,1.0,0.7,0.8549534358836248,0.1331999134302481,0.0,0.0
64.0,1.0,1.0,0.8549534358836248,0.1331999134302481,0.0,0.0
64.0,9.0,0.1,0.5251259722674231,0.027083694175011885,0.0,0.0
64.0,9.0,0.3,0.5251259722674231,0.027083694175011885,0.0,0.0
64.0,9.0,0.7,0.5251259722674231,0.027083694175011885,0.0,0.0
64.0,9.0,1.0,0.5251259722674231,0.027083694175011885,0.0,0.0
64.0,17.0,0.1,0.46218295076648286,0.6186788217800125,0.0,0.0
64.0,17.0,0.3,0.46218295076648286,0.6186788217800125,0.0,0.0
64.0,17.0,0.7,0.46218295076648286,0.6186788217800125,0.0,0.0
64.0,17.0,1.0,0.46218295076648286,0.6186788217800125,0.0,0.0
64.0,25.0,0.1,-0.047583812610960674,0.8047276707641777,0.0,0.0
64.0,25.0,0.3,-0.047583812610960674,0.8047276707641777,0.0,0.0
64.0,25.0,0.7,-0.047583812610960674,0.8047276707641777,0.0,0.0
64.0,25.0,1.0,-0.047583812610960674,0.8047276707641777,0.0,0.0
64.0,33.0,0.1,0.6384960202581161,1.3132257010510626,0.0,0.0
64.0,33.0,0.3,0.6384960202581161,1.3132257010510626,0.0,0.0
64.0,33.0,0.7,0.6384960202581161,1.3132257010510626,0.0,0.0
64.0,33.0,1.0,0.6384960202581161,1.3132257010510626,0.0,0.0
64.0,41.0,0.1,0.9691878757159935,1.8631572794300064,0.0,0.0
64.0,41.0,0.3,0.9691878757159935,1.8631572794300064,0.0,0.0
64.0,41.0,0.7,0.9691878757159935,1.8631572794300064,0.0,0.0
64.0,41.0,1.0,0.9691878757159935,1.8631572794300064,0.0,0.0
64.0,49.0,0.1,1.426841801399343,2.4410252468349873,0.0,0.0
64.0,49.0,0.3,1.426841801399343,2.4410252468349873,0.0,0.0
64.0,49.0,0.7,1.426841801399343,2.4410252468349873,0.0,0.0
64.0,49.0,1.0,1.426841801399343,2.4410252468349873,0.0,0.0
64.0,57.0,0.1,1.6375679719052987,2.913822053580991,0.0,0.0
64.0,57.0,0.3,1.6375679719052987,2.913822053580991,0.0,0.0
64.0,57.0,0.7,1.6375679719052987,2.913822053580991,0.0,0.0
64.0,57.0,1.0,1.6375679719052987,2.913822053580991,0.0,0.0
64.0,65.0,0.1,2.0866514828969622,3.5007307521779434,0.0,0.0
64.0,65.0,0.3,2.0866514828969622,3.5007307521779434,0.0,0.0
64.0,65.0,0.7,2.0866514828969622,3.5007307521779434,0.0,0.0
64.0,65.0,1.0,2.0866514828969622,3.5007307521779434,0.0,0.0
64.0,73.0,0.1,2.8602398583744346,4.650505170933474,0.0,0.0
64.0,73.0,0.3,2.8602398583744346,4.650505170933474,0.0,0.0
64.0,73.0,0.7,2.8602398583744346,4.650505170933474,0.0,0.0
64.0,73.0,1.0,2.8602398583744346,4.650505170933474,0.0,0.0
64.0,81.0,0.1,3.2073013944089244,5.630441101671159,0.0,0.0
64.0,81.0,0.3,3.2073013944089244,5.630441101671159,0.0,0.0
64.0,81.0,0.7,3.2073013944089244,5.630441101671159,0.0,0.0
64.0,81.0,1.0,3.2073013944089244,5.630441101671159,0.0,0.0
64.0,89.0,0.1,3.3413954351821396,7.2568369937352255,0.0,0.0
64.0,89.0,0.3,3.3413954351821396,7.2568369937352255,0.0,0.0
64.0,89.0,0.7,3.3413954351821396,7.2568369937352255,0.0,0.0
64.0,89.0,1.0,3.3413954351821396,7.2568369937352255,0.0,0.0
64.0,97.0,0.1,3.4260081729503136,8.551051001513706,0.0,0.0
64.0,97.0,0.3,3.4260081729503136,8.551051001513706,0.0,0.0
64.0,97.0,0.7,3.4260081729503136,8.551051001513706,0.0,0.0
64.0,97.0,1.0,3.4260081729503136,8.551051001513706,0.0,0.0
64.0,105.0,0.1,3.4755520055763967,-2.8342500827649184,0.0,0.0
64.0,105.0,0.3,3.4755520055763967,-2.8342500827649184,0.0,0.0
64.0,105.0,0.7,3.4755520055763967,-2.8342500827649184,0.0,0.0
64.0,105.0,1.0,3.4755520055763967,-2.8342500827649184,0.0,0.0
64.0,113.0,0.1,3.4600152685581533,-2.899160604711051,0.0,0.0
64.0,113.0,0.3,3.4600152685581533,-2.899160604711051,0.0,0.0
64.0,113.0,0.7,3.4600152685581533,-2.899160604711051,0.0,0.0
64.0,113.0,1.0,3.4600152685581533,-2.899160604711051,0.0,0.0
64.0,121.0,0.1,3.467569270047934,-2.889440144436721,0.0,0.0
64.0,121.0,0.3,3.467569270047934,-2.889440144436721,0.0,0.0
64.0,121.0,0.7,3.467569270047934,-2.889440144436721,0.0,0.0
64.0,121.0,1.0,3.467569270047934,-2.889440144436721,0.0,0.0
64.0,127.0,0.1,3.447076184551146,-2.7935089119394094,0.0,0.0
64.0,127.0,0.3,3.447076184551146,-2.7935089119394094,0.0,0.0
64.0,127.0,0.7,3.447076184551146,-2.7935089119394094,0.0,0.0
64.0,127.0,1.0,3.447076184551146,-2.7935089119394094,0.0,0.0
65.0,1.0,0.1,0.6743521814148628,0.3441890291606703,0.0,0.0
65.0,1.0,0.3,0.6743521814148628,0.3441890291606703,0.0,0.0
65.0,1.0,0.7,0.6743521814148628,0.3441890291606703,0.0,0.0
65.0,1.0,1.0,0.6743521814148628,0.3441890291606703,0.0,0.0
65.0,9.0,0.1,0.6771248764683071,0.4068962485353701,0.0,0.0
65.0,9.0,0.3,0.6771248764683071,0.4068962485353701,0.0,0.0
65.0,9.0,0.7,0.6771248764683071,0.4068962485353701,0.0,0.0
65.0,9.0,1.0,0.6771248764683071,0.4068962485353701,0.0,0.0
65.0,17.0,0.1,0.6772029289510417,0.6311674377143204,0.0,0.0
65.0,17.0,0.3,0.6772029289510417,0.6311674377143204,0.0,0.0
65.0,17.0,0.7,0.6772029289510417,0.6311674377143204,0.0,0.0
65.0,17.0,1.0,0.6772029289510417,0.6311674377143204,0.0,0.0
65.0,25.0,0.1,0.6328204806044759,0.7588562216012575,0.0,0.0
65.0,25.0,0.3,0.6328204806044759,0.7588562216012575,0.0,0.0
65.0,25.0,0.7,0.6328204806044759,0.7588562216012575,0.0,0.0
65.0,25.0,1.0,0.6328204806044759,0.7588562216012575,0.0,0.0
65.0,33.0,0.1,0.7823849046918148,0.9319514372826111,0.0,0.0
65.0,33.0,0.3,0.7823849046918148,0.9319514372826111,0.0,0.0
65.0,33.0,0.7,0.7823849046918148,0.9319514372826111,0.0,0.0
65.0,33.0,1.0,0.7823849046918148,0.9319514372826111,0.0,0.0
65.0,41.0,0.1,0.9412731248317534,1.6827044176369639,0.0,0.0
65.0,41.0,0.3,0.9412731248317534,1.6827044176369639,0.0,0.0
65.0,41.0,0.7,0.9412731248317534,1.6827044176369639,0.0,0.0
65.0,41.0,1.0,0.9412731248317534,1.6827044176369639,0.0,0.0
65.0,49.0,0.1,1.3747536452618838,2.1678925680581775,0.0,0.0
65.0,49.0,0.3,1.3747536452618838,2.1678925680581775,0.0,0.0
65.0,49.0,0.7,1.3747536452618838,2.1678925680581775,0.0,0.0
65.0,49.0,1.0,1.3747536452618838,2.1678925680581775,0.0,0.0
65.0,57.0,0.1,1.558620072561659,2.482547679304646,0.0,0.0
65.0,57.0,0.3,1.558620072561659,2.482547679304646,0.0,0.0
65.0,57.0,0.7,1.558620072561659,2.482547679304646,0.0,0.0
65.0,57.0,1.0,1.558620072561659,2.482547679304646,0.0,0.0
65.0,65.0,0.1,2.0978726378226336,2.9962229385140207,0.0,0.0
65.0,65.0,0.3,2.0978726378226336,2.9962229385140207,0.0,0.0
65.0,65.0,0.7,2.0978726378226336,2.9962229385140207,0.0,0.0
65.0,65.0,1.0,2.0978726378226336,2.9962229385140207,0.0,0.0
65.0,73.0,0.1,3.0798330296967653,3.890912016997087,0.0,0.0
65.0,73.0,0.3,3.0798330296967653,3.890912016997087,0.0,0.0
65.0,73.0,0.7,3.0798330296967653,3.890912016997087,0.0,0.0
65.0,73.0,1.0,3.0798330296967653,3.890912016997087,0.0,0.0
65.0,81.0,0.1,3.2213061325410237,4.989566207782542,0.0,0.0
65.0,81.0,0.3,3.2213061325410237,4.989566207782542,0.0,0.0
65.0,81.0,0.7,3.2213061325410237,4.989566207782542,0.0,0.0
65.0,81.0,1.0,3.2213061325410237,4.989566207782542,0.0,0.0
65.0,89.0,0.1,3.4969760417874385,5.585253906858085,0.0,0.0
65.0,89.0,0.3,3.4969760417874385,5.585253906858085,0.0,0.0
65.0,89.0,0.7,3.4969760417874385,5.585253906858085,0.0,0.0
65.0,89.0,1.0,3.4969760417874385,5.585253906858085,0.0,0.0
65.0,97.0,0.1,4.434927724783055,7.782825674333947,0.0,0.0
65.0,97.0,0.3,4.434927724783055,7.782825674333947,0.0,0.0
65.0,97.0,0.7,4.434927724783055,7.782825674333947,0.0,0.0
65.0,97.0,1.0,4.434927724783055,7.782825674333947,0.0,0.0
65.0,105.0,0.1,4.549990978168144,9.330826911126499,0.0,0.0
65.0,105.0,0.3,4.549990978168144,9.330826911126499,0.0,0.0
65.0,105.0,0.7,4.549990978168144,9.330826911126499,0.0,0.0
65.0,105.0,1.0,4.549990978168144,9.330826911126499,0.0,0.0
65.0,113.0,0.1,4.43190025728748,9.447988281135318,0.0,0.0
65.0,113.0,0.3,4.43190025728748,9.447988281135318,0.0,0.0
65.0,113.0,0.7,4.43190025728748,9.447988281135318,0.0,0.0
65.0,113.0,1.0,4.43190025728748,9.447988281135318,0.0,0.0
65.0,121.0,0.1,4.519012034243378,9.399273880926929,0.0,0.0
65.0,121.0,0.3,4.519012034243378,9.399273880926929,0.0,0.0
65.0,121.0,0.7,4.519012034243378,9.399273880926929,0.0,0.0
65.0,121.0,1.0,4.519012034243378,9.399273880926929,0.0,0.0
65.0,127.0,0.1,4.46627055984508,9.342904839313713,0.0,0.0
65.0,127.0,0.3,4.46627055984508,9.342904839313713,0.0,0.0
65.0,127.0,0.7,4.46627055984508,9.342904839313713,0.0,0.0
65.0,127.0,1.0,4.46627055984508,9.342904839313713,0.0,0.0
66.0,1.0,0.1,0.6879013673614034,0.548380763688616,0.0,0.0
66.0,1.0,0.3,0.6879013673614034,0.548380763688616,0.0,0.0
66.0,1.0,0.7,0.6879013673614034,0.548380763688616,0.0,0.0
66.0,1.0,1.0,0.6879013673614034,0.548380763688616,0.0,0.0
66.0,9.0,0.1,0.6690317292876155,-0.9765710495550255,0.0,0.0
66.0,9.0,0.3,0.6690317292876155,-0.9765710495550255,0.0,0.0
66.0,9.0,0.7,0.6690317292876155,-0.9765710495550255,0.0,0.0
66.0,9.0,1.0,0.6690317292876155,-0.9765710495550255,0.0,0.0
66.0,17.0,0.1,0.6535783884887941,0.7964779598784766,0.0,0.0
66.0,17.0,0.3,0.6535783884887941,0.7964779598784766,0.0,0.0
66.0,17.0,0.7,0.6535783884887941,0.7964779598784766,0.0,0.0
66.0,17.0,1.0,0.6535783884887941,0.7964779598784766,0.0,0.0
66.0,25.0,0.1,0.6354933992957997,1.0451321398766913,0.0,0.0
66.0,25.0,0.3,0.6354933992957997,1.0451321398766913,0.0,0.0
66.0,25.0,0.7,0.6354933992957997,1.0451321398766913,0.0,0.0
66.0,25.0,1.0,0.6354933992957997,1.0451321398766913,0.0,0.0
66.0,33.0,0.1,0.8485206966636072,1.5774981252472797,0.0,0.0
66.0,33.0,0.3,0.8485206966636072,1.5774981252472797,0.0,0.0
66.0,33.0,0.7,0.8485206966636072,1.5774981252472797,0.0,0.0
66.0,33.0,1.0,0.8485206966636072,1.5774981252472797,0.0,0.0
66.0,41.0,0.1,1.231714764764282,1.0178913136905416,0.0,0.0
66.0,41.0,0.3,1.231714764764282,1.0178913136905416,0.0,0.0
66.0,41.0,0.7,1.231714764764282,1.0178913136905416,0.0,0.0
66.0,41.0,1.0,1.231714764764282,1.0178913136905416,0.0,0.0
66.0,49.0,0.1,1.5241529645821803,2.467078211848135,0.0,0.0
66.0,49.0,0.3,1.5241529645821803,2.467078211848135,0.0,0.0
66.0,49.0,0.7,1.5241529645821803,2.467078211848135,0.0,0.0
66.0,49.0,1.0,1.5241529645821803,2.467078211848135,0.0,0.0
66.0,57.0,0.1,1.7047880552264272,3.103058310403196,0.0,0.0
66.0,57.0,0.3,1.7047880552264272,3.103058310403196,0.0,0.0
66.0,57.0,0.7,1.7047880552264272,3.103058310403196,0.0,0.0
66.0,57.0,1.0,1.7047880552264272,3.103058310403196,0.0,0.0
66.0,65.0,0.1,2.723019031318379,3.896545588496037,0.0,0.0
66.0,65.0,0.3,2.723019031318379,3.896545588496037,0.0,0.0
66.0,65.0,0.7,2.723019031318379,3.896545588496037,0.0,0.0
66.0,65.0,1.0,2.723019031318379,3.896545588496037,0.0,0.0
66.0,73.0,0.1,3.1699258159586274,5.0510353712566225,0.0,0.0
66.0,73.0,0.3,3.1699258159586274,5.0510353712566225,0.0,0.0
66.0,73.0,0.7,3.1699258159586274,5.0510353712566225,0.0,0.0
66.0,73.0,1.0,3.1699258159586274,5.0510353712566225,0.0,0.0
66.0,81.0,0.1,3.3536921484866506,6.2338078115592035,0.0,0.0
66.0,81.0,0.3,3.3536921484866506,6.2338078115592035,0.0,0.0
66.0,81.0,0.7,3.3536921484866506,6.2338078115592035,0.0,0.0
66.0,81.0,1.0,3.3536921484866506,6.2338078115592035,0.0,0.0
66.0,89.0,0.1,3.493802015034625,8.059223112137724,0.0,0.0
66.0,89.0,0.3,3.493802015034625,8.059223112137724,0.0,0.0
66.0,89.0,0.7,3.493802015034625,8.059223112137724,0.0,0.0
66.0,89.0,1.0,3.493802015034625,8.059223112137724,0.0,0.0
66.0,97.0,0.1,6.360928208899623,9.29448970959896,0.0,0.0
66.0,97.0,0.3,6.360928208899623,9.29448970959896,0.0,0.0
66.0,97.0,0.7,6.360928208899623,9.29448970959896,0.0,0.0
66.0,97.0,1.0,6.360928208899623,9.29448970959896,0.0,0.0
66.0,105.0,0.1,6.321857380310557,10.648767159147882,0.0,0.0
66.0,105.0,0.3,6.321857380310557,10.648767159147882,0.0,0.0
66.0,105.0,0.7,6.321857380310557,10.648767159147882,0.0,0.0
66.0,105.0,1.0,6.321857380310557,10.648767159147882,0.0,0.0
66.0,113.0,0.1,6.330138499877421,10.692289572047798,0.0,0.0
66.0,113.0,0.3,6.330138499877421,10.692289572047798,0.0,0.0
66.0,113.0,0.7,6.330138499877421,10.692289572047798,0.0,0.0
66.0,113.0,1.0,6.330138499877421,10.692289572047798,0.0,0.0
66.0,121.0,0.1,6.3312706896298625,10.589265430067822,0.0,0.0
66.0,121.0,0.3,6.3312706896298625,10.589265430067822,0.0,0.0
66.0,121.0,0.7,6.3312706896298625,10.589265430067822,0.0,0.0
66.0,121.0,1.0,6.3312706896298625,10.589265430067822,0.0,0.0
66.0,127.0,0.1,6.321202498066187,10.632818049563497,0.0,0.0
66.0,127.0,0.3,6.321202498066187,10.632818049563497,0.0,0.0
66.0,127.0,0.7,6.321202498066187,10.632818049563497,0.0,0.0
66.0,127.0,1.0,6.321202498066187,10.632818049563497,0.0,0.0
67.0,1.0,0.1,1.2393853380720716,0.5687310680662079,0.0,0.0
67.0,1.0,0.3,1.2393853380720716,0.5687310680662079,0.0,0.0
67.0,1.0,0.7,1.2393853380720716,0.5687310680662079,0.0,0.0
67.0,1.0,1.0,1.2393853380720716,0.5687310680662079,0.0,0.0
67.0,9.0,0.1,1.2318389199897812,0.508524198582073,0.0,0.0
67.0,9.0,0.3,1.2318389199897812,0.508524198582073,0.0,0.0
67.0,9.0,0.7,1.2318389199897812,0.508524198582073,0.0,0.0
67.0,9.0,1.0,1.2318389199897812,0.508524198582073,0.0,0.0
67.0,17.0,0.1,1.2001383030314012,0.7910123548174481,0.0,0.0
67.0,17.0,0.3,1.2001383030314012,0.7910123548174481,0.0,0.0
67.0,17.0,0.7,1.2001383030314012,0.7910123548174481,0.0,0.0
67.0,17.0,1.0,1.2001383030314012,0.7910123548174481,0.0,0.0
67.0,25.0,0.1,1.3426860841132107,1.2271303703665828,0.0,0.0
67.0,25.0,0.3,1.3426860841132107,1.2271303703665828,0.0,0.0
67.0,25.0,0.7,1.3426860841132107,1.2271303703665828,0.0,0.0
67.0,25.0,1.0,1.3426860841132107,1.2271303703665828,0.0,0.0
67.0,33.0,0.1,1.470726465132072,1.8404282770733407,0.0,0.0
67.0,33.0,0.3,1.470726465132072,1.8404282770733407,0.0,0.0
67.0,33.0,0.7,1.470726465132072,1.8404282770733407,0.0,0.0
67.0,33.0,1.0,1.470726465132072,1.8404282770733407,0.0,0.0
67.0,41.0,0.1,1.6537174476814953,2.3174952557661643,0.0,0.0
67.0,41.0,0.3,1.6537174476814953,2.3174952557661643,0.0,0.0
67.0,41.0,0.7,1.6537174476814953,2.3174952557661643,0.0,0.0
67.0,41.0,1.0,1.6537174476814953,2.3174952557661643,0.0,0.0
67.0,49.0,0.1,1.9249381102034906,2.64230735726745,0.0,0.0
67.0,49.0,0.3,1.9249381102034906,2.64230735726745,0.0,0.0
67.0,49.0,0.7,1.9249381102034906,2.64230735726745,0.0,0.0
67.0,49.0,1.0,1.9249381102034906,2.64230735726745,0.0,0.0
67.0,57.0,0.1,2.652613268071406,3.1550452412681915,0.0,0.0
67.0,57.0,0.3,2.652613268071406,3.1550452412681915,0.0,0.0
67.0,57.0,0.7,2.652613268071406,3.1550452412681915,0.0,0.0
67.0,57.0,1.0,2.652613268071406,3.1550452412681915,0.0,0.0
67.0,65.0,0.1,3.141299788111775,3.953397038008972,0.0,0.0
67.0,65.0,0.3,3.141299788111775,3.953397038008972,0.0,0.0
67.0,65.0,0.7,3.141299788111775,3.953397038008972,0.0,0.0
67.0,65.0,1.0,3.141299788111775,3.953397038008972,0.0,0.0
67.0,73.0,0.1,3.3136909325297004,5.125032029847027,0.0,0.0
67.0,73.0,0.3,3.3136909325297004,5.125032029847027,0.0,0.0
67.0,73.0,0.7,3.3136909325297004,5.125032029847027,0.0,0.0
67.0,73.0,1.0,3.3136909325297004,5.125032029847027,0.0,0.0
67.0,81.0,0.1,4.476812301226798,6.067473192316051,0.0,0.0
67.0,81.0,0.3,4.476812301226798,6.067473192316051,0.0,0.0
67.0,81.0,0.7,4.476812301226798,6.067473192316051,0.0,0.0
67.0,81.0,1.0,4.476812301226798,6.067473192316051,0.0,0.0
67.0,89.0,0.1,6.56748845662631,7.7548819771112205,0.0,0.0
67.0,89.0,0.3,6.56748845662631,7.7548819771112205,0.0,0.0
67.0,89.0,0.7,6.56748845662631,7.7548819771112205,0.0,0.0
67.0,89.0,1.0,6.56748845662631,7.7548819771112205,0.0,0.0
67.0,97.0,0.1,6.911234270524062,9.54983751074146,0.0,0.0
67.0,97.0,0.3,6.911234270524062,9.54983751074146,0.0,0.0
67.0,97.0,0.7,6.911234270524062,9.54983751074146,0.0,0.0
67.0,97.0,1.0,6.911234270524062,9.54983751074146,0.0,0.0
67.0,105.0,0.1,6.951549724797808,10.912740357027229,0.0,0.0
67.0,105.0,0.3,6.951549724797808,10.912740357027229,0.0,0.0
67.0,105.0,0.7,6.951549724797808,10.912740357027229,0.0,0.0
67.0,105.0,1.0,6.951549724797808,10.912740357027229,0.0,0.0
67.0,113.0,0.1,6.936387258302059,10.68641879147418,0.0,0.0
67.0,113.0,0.3,6.936387258302059,10.68641879147418,0.0,0.0
67.0,113.0,0.7,6.936387258302059,10.68641879147418,0.0,0.0
67.0,113.0,1.0,6.936387258302059,10.68641879147418,0.0,0.0
67.0,121.0,0.1,6.9331254655251735,10.691865241089682,0.0,0.0
67.0,121.0,0.3,6.9331254655251735,10.691865241089682,0.0,0.0
67.0,121.0,0.7,6.9331254655251735,10.691865241089682,0.0,0.0
67.0,121.0,1.0,6.9331254655251735,10.691865241089682,0.0,0.0
67.0,127.0,0.1,6.934468312182348,10.442931476476092,0.0,0.0
67.0,127.0,0.3,6.934468312182348,10.442931476476092,0.0,0.0
67.0,127.0,0.7,6.934468312182348,10.442931476476092,0.0,0.0
67.0,127.0,1.0,6.934468312182348,10.442931476476092,0.0,0.0
68.0,1.0,0.1,0.8228201366179567,0.6778978078697787,0.0,0.0
68.0,1.0,0.3,0.8228201366179567,0.6778978078697787,0.0,0.0
68.0,1.0,0.7,0.8228201366179567,0.6778978078697787,0.0,0.0
68.0,1.0,1.0,0.8228201366179567,0.6778978078697787,0.0,0.0
68.0,9.0,0.1,0.3090880156835266,-0.7646381543543024,0.0,0.0
68.0,9.0,0.3,0.3090880156835266,-0.7646381543543024,0.0,0.0
68.0,9.0,0.7,0.3090880156835266,-0.7646381543543024,0.0,0.0
68.0,9.0,1.0,0.3090880156835266,-0.7646381543543024,0.0,0.0
68.0,17.0,0.1,0.17446143893573246,0.9733322188372964,0.0,0.0
68.0,17.0,0.3,0.17446143893573246,0.9733322188372964,0.0,0.0
68.0,17.0,0.7,0.17446143893573246,0.9733322188372964,0.0,0.0
68.0,17.0,1.0,0.17446143893573246,0.9733322188372964,0.0,0.0
68.0,25.0,0.1,0.20872698043789945,1.3960894239186108,0.0,0.0
68.0,25.0,0.3,0.20872698043789945,1.3960894239186108,0.0,0.0
68.0,25.0,0.7,0.20872698043789945,1.3960894239186108,0.0,0.0
68.0,25.0,1.0,0.20872698043789945,1.3960894239186108,0.0,0.0
68.0,33.0,0.1,0.6268803952378811,1.7119971204366715,0.0,0.0
68.0,33.0,0.3,0.6268803952378811,1.7119971204366715,0.0,0.0
68.0,33.0,0.7,0.6268803952378811,1.7119971204366715,0.0,0.0
68.0,33.0,1.0,0.6268803952378811,1.7119971204366715,0.0,0.0
68.0,41.0,0.1,1.0540473035683244,2.319660126794783,0.0,0.0
68.0,41.0,0.3,1.0540473035683244,2.319660126794783,0.0,0.0
68.0,41.0,0.7,1.0540473035683244,2.319660126794783,0.0,0.0
68.0,41.0,1.0,1.0540473035683244,2.319660126794783,0.0,0.0
68.0,49.0,0.1,1.3488280001069692,2.526082357797573,0.0,0.0
68.0,49.0,0.3,1.3488280001069692,2.526082357797573,0.0,0.0
68.0,49.0,0.7,1.3488280001069692,2.526082357797573,0.0,0.0
68.0,49.0,1.0,1.3488280001069692,2.526082357797573,0.0,0.0
68.0,57.0,0.1,1.5899626585674147,3.05916994962677,0.0,0.0
68.0,57.0,0.3,1.5899626585674147,3.05916994962677,0.0,0.0
68.0,57.0,0.7,1.5899626585674147,3.05916994962677,0.0,0.0
68.0,57.0,1.0,1.5899626585674147,3.05916994962677,0.0,0.0
68.0,65.0,0.1,2.5118440990304185,3.6817325890441577,0.0,0.0
68.0,65.0,0.3,2.5118440990304185,3.6817325890441577,0.0,0.0
68.0,65.0,0.7,2.5118440990304185,3.6817325890441577,0.0,0.0
68.0,65.0,1.0,2.5118440990304185,3.6817325890441577,0.0,0.0
68.0,73.0,0.1,3.1427902364184748,4.858147402193336,0.0,0.0
68.0,73.0,0.3,3.1427902364184748,4.858147402193336,0.0,0.0
68.0,73.0,0.7,3.1427902364184748,4.858147402193336,0.0,0.0
68.0,73.0,1.0,3.1427902364184748,4.858147402193336,0.0,0.0
68.0,81.0,0.1,3.385794701562196,5.878315394091637,0.0,0.0
68.0,81.0,0.3,3.385794701562196,5.878315394091637,0.0,0.0
68.0,81.0,0.7,3.385794701562196,5.878315394091637,0.0,0.0
68.0,81.0,1.0,3.385794701562196,5.878315394091637,0.0,0.0
68.0,89.0,0.1,4.6527866143941505,7.608568706129606,0.0,0.0
68.0,89.0,0.3,4.6527866143941505,7.608568706129606,0.0,0.0
68.0,89.0,0.7,4.6527866143941505,7.608568706129606,0.0,0.0
68.0,89.0,1.0,4.6527866143941505,7.608568706129606,0.0,0.0
68.0,97.0,0.1,6.403280250518549,9.858226295844451,0.0,0.0
68.0,97.0,0.3,6.403280250518549,9.858226295844451,0.0,0.0
68.0,97.0,0.7,6.403280250518549,9.858226295844451,0.0,0.0
68.0,97.0,1.0,6.403280250518549,9.858226295844451,0.0,0.0
68.0,105.0,0.1,4.1887661881397875,10.873062959724242,0.0,0.0
68.0,105.0,0.3,4.1887661881397875,10.873062959724242,0.0,0.0
68.0,105.0,0.7,4.1887661881397875,10.873062959724242,0.0,0.0
68.0,105.0,1.0,4.1887661881397875,10.873062959724242,0.0,0.0
68.0,113.0,0.1,6.321504595223959,10.969556556963154,0.0,0.0
68.0,113.0,0.3,6.321504595223959,10.969556556963154,0.0,0.0
68.0,113.0,0.7,6.321504595223959,10.969556556963154,0.0,0.0
68.0,113.0,1.0,6.321504595223959,10.969556556963154,0.0,0.0
68.0,121.0,0.1,6.318225314500026,10.900596798857409,0.0,0.0
68.0,121.0,0.3,6.318225314500026,10.900596798857409,0.0,0.0
68.0,121.0,0.7,6.318225314500026,10.900596798857409,0.0,0.0
68.0,121.0,1.0,6.318225314500026,10.900596798857409,0.0,0.0
68.0,127.0,0.1,6.3177173382546,10.907862407674342,0.0,0.0
68.0,127.0,0.3,6.3177173382546,10.907862407674342,0.0,0.0
68.0,127.0,0.7,6.3177173382546,10.907862407674342,0.0,0.0
68.0,127.0,1.0,6.3177173382546,10.907862407674342,0.0,0.0
69.0,1.0,0.1,0.6311,0.176,0.0,0.0
69.0,1.0,0.3,0.6311,0.176,0.0,0.0
69.0,1.0,0.7,0.6311,0.176,0.0,0.0
69.0,1.0,1.0,0.6311,0.176,0.0,0.0
69.0,9.0,0.1,0.6649,0.3114,0.0,0.0
69.0,9.0,0.3,0.6649,0.3114,0.0,0.0
69.0,9.0,0.7,0.6649,0.3114,0.0,0.0
69.0,9.0,1.0,0.6649,0.3114,0.0,0.0
69.0,17.0,0.1,0.7914,0.6311,0.0,0.0
69.0,17.0,0.3,0.7914,0.6311,0.0,0.0
69.0,17.0,0.7,0.7914,0.6311,0.0,0.0
69.0,17.0,1.0,0.7914,0.6311,0.0,0.0
69.0,25.0,0.1,0.7612,0.821,0.0,0.0
69.0,25.0,0.3,0.7612,0.821,0.0,0.0
69.0,25.0,0.7,0.7612,0.821,0.0,0.0
69.0,25.0,1.0,0.7612,0.821,0.0,0.0
69.0,33.0,0.1,0.9868,1.2286,0.0,0.0
69.0,33.0,0.3,0.9868,1.2286,0.0,0.0
69.0,33.0,0.7,0.9868,1.2286,0.0,0.0
69.0,33.0,1.0,0.9868,1.2286,0.0,0.0
69.0,41.0,0.1,1.1364,2.0046,0.0,0.0
69.0,41.0,0.3,1.1364,2.0046,0.0,0.0
69.0,41.0,0.7,1.1364,2.0046,0.0,0.0
69.0,41.0,1.0,1.1364,2.0046,0.0,0.0
69.0,49.0,0.1,1.5389,2.3579,0.0,0.0
69.0,49.0,0.3,1.5389,2.3579,0.0,0.0
69.0,49.0,0.7,1.5389,2.3579,0.0,0.0
69.0,49.0,1.0,1.5389,2.3579,0.0,0.0
69.0,57.0,0.1,1.7748,2.8447,0.0,0.0
69.0,57.0,0.3,1.7748,2.8447,0.0,0.0
69.0,57.0,0.7,1.7748,2.8447,0.0,0.0
69.0,57.0,1.0,1.7748,2.8447,0.0,0.0
69.0,65.0,0.1,2.5197,3.5013,0.0,0.0
69.0,65.0,0.3,2.5197,3.5013,0.0,0.0
69.0,65.0,0.7,2.5197,3.5013,0.0,0.0
69.0,65.0,1.0,2.5197,3.5013,0.0,0.0
69.0,73.0,0.1,3.0759,4.8989,0.0,0.0
69.0,73.0,0.3,3.0759,4.8989,0.0,0.0
69.0,73.0,0.7,3.0759,4.8989,0.0,0.0
69.0,73.0,1.0,3.0759,4.8989,0.0,0.0
69.0,81.0,0.1,3.2942,5.7634,0.0,0.0
69.0,81.0,0.3,3.2942,5.7634,0.0,0.0
69.0,81.0,0.7,3.2942,5.7634,0.0,0.0
69.0,81.0,1.0,3.2942,5.7634,0.0,0.0
69.0,89.0,0.1,3.6013,7.5753,0.0,0.0
69.0,89.0,0.3,3.6013,7.5753,0.0,0.0
69.0,89.0,0.7,3.6013,7.5753,0.0,0.0
69.0,89.0,1.0,3.6013,7.5753,0.0,0.0
69.0,97.0,0.1,4.945,9.2894,0.0,0.0
69.0,97.0,0.3,4.945,9.2894,0.0,0.0
69.0,97.0,0.7,4.945,9.2894,0.0,0.0
69.0,97.0,1.0,4.945,9.2894,0.0,0.0
69.0,105.0,0.1,5.6954,10.7959,0.0,0.0
69.0,105.0,0.3,5.6954,10.7959,0.0,0.0
69.0,105.0,0.7,5.6954,10.7959,0.0,0.0
69.0,105.0,1.0,5.6954,10.7959,0.0,0.0
69.0,113.0,0.1,6.2865,10.8799,0.0,0.0
69.0,113.0,0.3,6.2865,10.8799,0.0,0.0
69.0,113.0,0.7,6.2865,10.8799,0.0,0.0
69.0,113.0,1.0,6.2865,10.8799,0.0,0.0
69.0,121.0,0.1,6.3117,10.804968007459024,0.0,0.0
69.0,121.0,0.3,6.3117,10.804968007459024,0.0,0.0
69.0,121.0,0.7,6.3117,10.804968007459024,0.0,0.0
69.0,121.0,1.0,6.3117,10.804968007459024,0.0,0.0
69.0,127.0,0.1,6.3744,10.773720207081737,0.0,0.0
69.0,127.0,0.3,6.3744,10.773720207081737,0.0,0.0
69.0,127.0,0.7,6.3744,10.773720207081737,0.0,0.0
69.0,127.0,1.0,6.3744,10.773720207081737,0.0,0.0
70.0,1.0,0.1,0.7545347005366614,0.4348367004666497,0.0,0.0
70.0,1.0,0.3,0.7545347005366614,0.4348367004666497,0.0,0.0
70.0,1.0,0.7,0.7545347005366614,0.4348367004666497,0.0,0.0
70.0,1.0,1.0,0.7545347005366614,0.4348367004666497,0.0,0.0
70.0,9.0,0.1,0.4901007140477897,0.4519727020579951,0.0,0.0
70.0,9.0,0.3,0.4901007140477897,0.4519727020579951,0.0,0.0
70.0,9.0,0.7,0.4901007140477897,0.4519727020579951,0.0,0.0
70.0,9.0,1.0,0.4901007140477897,0.4519727020579951,0.0,0.0
70.0,17.0,0.1,0.7274102311370905,0.6865020065487898,0.0,0.0
70.0,17.0,0.3,0.7274102311370905,0.6865020065487898,0.0,0.0
70.0,17.0,0.7,0.7274102311370905,0.6865020065487898,0.0,0.0
70.0,17.0,1.0,0.7274102311370905,0.6865020065487898,0.0,0.0
70.0,25.0,0.1,0.6583867407673015,0.9836647035741993,0.0,0.0
70.0,25.0,0.3,0.6583867407673015,0.9836647035741993,0.0,0.0
70.0,25.0,0.7,0.6583867407673015,0.9836647035741993,0.0,0.0
70.0,25.0,1.0,0.6583867407673015,0.9836647035741993,0.0,0.0
70.0,33.0,0.1,0.6815194358841687,1.5549192356005759,0.0,0.0
70.0,33.0,0.3,0.6815194358841687,1.5549192356005759,0.0,0.0
70.0,33.0,0.7,0.6815194358841687,1.5549192356005759,0.0,0.0
70.0,33.0,1.0,0.6815194358841687,1.5549192356005759,0.0,0.0
70.0,41.0,0.1,1.1732099101304099,2.116713636153259,0.0,0.0
70.0,41.0,0.3,1.1732099101304099,2.116713636153259,0.0,0.0
70.0,41.0,0.7,1.1732099101304099,2.116713636153259,0.0,0.0
70.0,41.0,1.0,1.1732099101304099,2.116713636153259,0.0,0.0
70.0,49.0,0.1,1.448122692206709,2.592252991814154,0.0,0.0
70.0,49.0,0.3,1.448122692206709,2.592252991814154,0.0,0.0
70.0,49.0,0.7,1.448122692206709,2.592252991814154,0.0,0.0
70.0,49.0,1.0,1.448122692206709,2.592252991814154,0.0,0.0
70.0,57.0,0.1,1.6471177544646525,3.213817282707201,0.0,0.0
70.0,57.0,0.3,1.6471177544646525,3.213817282707201,0.0,0.0
70.0,57.0,0.7,1.6471177544646525,3.213817282707201,0.0,0.0
70.0,57.0,1.0,1.6471177544646525,3.213817282707201,0.0,0.0
70.0,65.0,0.1,2.482566689487848,4.030294163481287,0.0,0.0
70.0,65.0,0.3,2.482566689487848,4.030294163481287,0.0,0.0
70.0,65.0,0.7,2.482566689487848,4.030294163481287,0.0,0.0
70.0,65.0,1.0,2.482566689487848,4.030294163481287,0.0,0.0
70.0,73.0,0.1,3.110787360854749,5.105207034948529,0.0,0.0
70.0,73.0,0.3,3.110787360854749,5.105207034948529,0.0,0.0
70.0,73.0,0.7,3.110787360854749,5.105207034948529,0.0,0.0
70.0,73.0,1.0,3.110787360854749,5.105207034948529,0.0,0.0
70.0,81.0,0.1,3.292642707414335,6.17278708161305,0.0,0.0
70.0,81.0,0.3,3.292642707414335,6.17278708161305,0.0,0.0
70.0,81.0,0.7,3.292642707414335,6.17278708161305,0.0,0.0
70.0,81.0,1.0,3.292642707414335,6.17278708161305,0.0,0.0
70.0,89.0,0.1,3.549374303000281,8.159516437892046,0.0,0.0
70.0,89.0,0.3,3.549374303000281,8.159516437892046,0.0,0.0
70.0,89.0,0.7,3.549374303000281,8.159516437892046,0.0,0.0
70.0,89.0,1.0,3.549374303000281,8.159516437892046,0.0,0.0
70.0,97.0,0.1,4.309774510162185,9.649315646283972,0.0,0.0
70.0,97.0,0.3,4.309774510162185,9.649315646283972,0.0,0.0
70.0,97.0,0.7,4.309774510162185,9.649315646283972,0.0,0.0
70.0,97.0,1.0,4.309774510162185,9.649315646283972,0.0,0.0
70.0,105.0,0.1,4.275947213542755,11.008118281862789,0.0,0.0
70.0,105.0,0.3,4.275947213542755,11.008118281862789,0.0,0.0
70.0,105.0,0.7,4.275947213542755,11.008118281862789,0.0,0.0
70.0,105.0,1.0,4.275947213542755,11.008118281862789,0.0,0.0
70.0,113.0,0.1,4.011749490729708,10.885898149171934,0.0,0.0
70.0,113.0,0.3,4.011749490729708,10.885898149171934,0.0,0.0
70.0,113.0,0.7,4.011749490729708,10.885898149171934,0.0,0.0
70.0,113.0,1.0,4.011749490729708,10.885898149171934,0.0,0.0
70.0,121.0,0.1,4.073514641008122,10.938168911565,0.0,0.0
70.0,121.0,0.3,4.073514641008122,10.938168911565,0.0,0.0
70.0,121.0,0.7,4.073514641008122,10.938168911565,0.0,0.0
70.0,121.0,1.0,4.073514641008122,10.938168911565,0.0,0.0
70.0,127.0,0.1,3.9699850937108048,10.852359867093009,0.0,0.0
70.0,127.0,0.3,3.9699850937108048,10.852359867093009,0.0,0.0
70.0,127.0,0.7,3.9699850937108048,10.852359867093009,0.0,0.0
70.0,127.0,1.0,3.9699850937108048,10.852359867093009,0.0,0.0
71.0,1.0,0.1,-0.5012328898556977,-0.5159089862787392,0.0,0.0
71.0,1.0,0.3,-0.5012328898556977,-0.5159089862787392,0.0,0.0
71.0,1.0,0.7,-0.5012328898556977,-0.5159089862787392,0.0,0.0
71.0,1.0,1.0,-0.5012328898556977,-0.5159089862787392,0.0,0.0
71.0,9.0,0.1,-1.6757812341294314,-1.3881338670353365,0.0,0.0
71.0,9.0,0.3,-1.6757812341294314,-1.3881338670353365,0.0,0.0
71.0,9.0,0.7,-1.6757812341294314,-1.3881338670353365,0.0,0.0
71.0,9.0,1.0,-1.6757812341294314,-1.3881338670353365,0.0,0.0
71.0,17.0,0.1,-0.6275867191394597,-0.629784150014131,0.0,0.0
71.0,17.0,0.3,-0.6275867191394597,-0.629784150014131,0.0,0.0
71.0,17.0,0.7,-0.6275867191394597,-0.629784150014131,0.0,0.0
71.0,17.0,1.0,-0.6275867191394597,-0.629784150014131,0.0,0.0
71.0,25.0,0.1,-0.5698499882716845,0.9982280361638123,0.0,0.0
71.0,25.0,0.3,-0.5698499882716845,0.9982280361638123,0.0,0.0
71.0,25.0,0.7,-0.5698499882716845,0.9982280361638123,0.0,0.0
71.0,25.0,1.0,-0.5698499882716845,0.9982280361638123,0.0,0.0
71.0,33.0,0.1,-0.5689599375535921,1.640603053839704,0.0,0.0
71.0,33.0,0.3,-0.5689599375535921,1.640603053839704,0.0,0.0
71.0,33.0,0.7,-0.5689599375535921,1.640603053839704,0.0,0.0
71.0,33.0,1.0,-0.5689599375535921,1.640603053839704,0.0,0.0
71.0,41.0,0.1,0.7569512103417966,1.1014133836880453,0.0,0.0
71.0,41.0,0.3,0.7569512103417966,1.1014133836880453,0.0,0.0
71.0,41.0,0.7,0.7569512103417966,1.1014133836880453,0.0,0.0
71.0,41.0,1.0,0.7569512103417966,1.1014133836880453,0.0,0.0
71.0,49.0,0.1,1.3028850953560789,2.3349527732562483,0.0,0.0
71.0,49.0,0.3,1.3028850953560789,2.3349527732562483,0.0,0.0
71.0,49.0,0.7,1.3028850953560789,2.3349527732562483,0.0,0.0
71.0,49.0,1.0,1.3028850953560789,2.3349527732562483,0.0,0.0
71.0,57.0,0.1,1.3805872721201835,2.6146273585633915,0.0,0.0
71.0,57.0,0.3,1.3805872721201835,2.6146273585633915,0.0,0.0
71.0,57.0,0.7,1.3805872721201835,2.6146273585633915,0.0,0.0
71.0,57.0,1.0,1.3805872721201835,2.6146273585633915,0.0,0.0
71.0,65.0,0.1,1.992727205206164,3.2956084953135574,0.0,0.0
71.0,65.0,0.3,1.992727205206164,3.2956084953135574,0.0,0.0
71.0,65.0,0.7,1.992727205206164,3.2956084953135574,0.0,0.0
71.0,65.0,1.0,1.992727205206164,3.2956084953135574,0.0,0.0
71.0,73.0,0.1,3.051116771637054,4.598293063524708,0.0,0.0
71.0,73.0,0.3,3.051116771637054,4.598293063524708,0.0,0.0
71.0,73.0,0.7,3.051116771637054,4.598293063524708,0.0,0.0
71.0,73.0,1.0,3.051116771637054,4.598293063524708,0.0,0.0
71.0,81.0,0.1,3.262868600836899,5.427315396902249,0.0,0.0
71.0,81.0,0.3,3.262868600836899,5.427315396902249,0.0,0.0
71.0,81.0,0.7,3.262868600836899,5.427315396902249,0.0,0.0
71.0,81.0,1.0,3.262868600836899,5.427315396902249,0.0,0.0
71.0,89.0,0.1,4.075742368628344,6.7966626886796,0.0,0.0
71.0,89.0,0.3,4.075742368628344,6.7966626886796,0.0,0.0
71.0,89.0,0.7,4.075742368628344,6.7966626886796,0.0,0.0
71.0,89.0,1.0,4.075742368628344,6.7966626886796,0.0,0.0
71.0,97.0,0.1,6.295351882061172,8.846972905334754,0.0,0.0
71.0,97.0,0.3,6.295351882061172,8.846972905334754,0.0,0.0
71.0,97.0,0.7,6.295351882061172,8.846972905334754,0.0,0.0
71.0,97.0,1.0,6.295351882061172,8.846972905334754,0.0,0.0
71.0,105.0,0.1,6.311413662069605,10.821963813937106,0.0,0.0
71.0,105.0,0.3,6.311413662069605,10.821963813937106,0.0,0.0
71.0,105.0,0.7,6.311413662069605,10.821963813937106,0.0,0.0
71.0,105.0,1.0,6.311413662069605,10.821963813937106,0.0,0.0
71.0,113.0,0.1,6.315004453069035,10.824261071501397,0.0,0.0
71.0,113.0,0.3,6.315004453069035,10.824261071501397,0.0,0.0
71.0,113.0,0.7,6.315004453069035,10.824261071501397,0.0,0.0
71.0,113.0,1.0,6.315004453069035,10.824261071501397,0.0,0.0
71.0,121.0,0.1,6.3234006102808795,10.71530522271738,0.0,0.0
71.0,121.0,0.3,6.3234006102808795,10.71530522271738,0.0,0.0
71.0,121.0,0.7,6.3234006102808795,10.71530522271738,0.0,0.0
71.0,121.0,1.0,6.3234006102808795,10.71530522271738,0.0,0.0
71.0,127.0,0.1,6.308098996494143,10.81307991241332,0.0,0.0
71.0,127.0,0.3,6.308098996494143,10.81307991241332,0.0,0.0
71.0,127.0,0.7,6.308098996494143,10.81307991241332,0.0,0.0
71.0,127.0,1.0,6.308098996494143,10.81307991241332,0.0,0.0
72.0,1.0,0.1,-3.0632835531049647,0.5791654600548386,0.0,0.0
72.0,1.0,0.3,-3.0632835531049647,0.5791654600548386,0.0,0.0
72.0,1.0,0.7,-3.0632835531049647,0.5791654600548386,0.0,0.0
72.0,1.0,1.0,-3.0632835531049647,0.5791654600548386,0.0,0.0
72.0,9.0,0.1,-3.5059850464821096,-0.6862965081356118,0.0,0.0
72.0,9.0,0.3,-3.5059850464821096,-0.6862965081356118,0.0,0.0
72.0,9.0,0.7,-3.5059850464821096,-0.6862965081356118,0.0,0.0
72.0,9.0,1.0,-3.5059850464821096,-0.6862965081356118,0.0,0.0
72.0,17.0,0.1,-3.687086606524927,0.7147417885013911,0.0,0.0
72.0,17.0,0.3,-3.687086606524927,0.7147417885013911,0.0,0.0
72.0,17.0,0.7,-3.687086606524927,0.7147417885013911,0.0,0.0
72.0,17.0,1.0,-3.687086606524927,0.7147417885013911,0.0,0.0
72.0,25.0,0.1,-4.071795361457269,1.0212686595799434,0.0,0.0
72.0,25.0,0.3,-4.071795361457269,1.0212686595799434,0.0,0.0
72.0,25.0,0.7,-4.071795361457269,1.0212686595799434,0.0,0.0
72.0,25.0,1.0,-4.071795361457269,1.0212686595799434,0.0,0.0
72.0,33.0,0.1,-3.616748055064895,1.4930526499313446,0.0,0.0
72.0,33.0,0.3,-3.616748055064895,1.4930526499313446,0.0,0.0
72.0,33.0,0.7,-3.616748055064895,1.4930526499313446,0.0,0.0
72.0,33.0,1.0,-3.616748055064895,1.4930526499313446,0.0,0.0
72.0,41.0,0.1,-3.4484953894610744,2.2305822385479415,0.0,0.0
72.0,41.0,0.3,-3.4484953894610744,2.2305822385479415,0.0,0.0
72.0,41.0,0.7,-3.4484953894610744,2.2305822385479415,0.0,0.0
72.0,41.0,1.0,-3.4484953894610744,2.2305822385479415,0.0,0.0
72.0,49.0,0.1,-3.585210933373907,2.7386928810114677,0.0,0.0
72.0,49.0,0.3,-3.585210933373907,2.7386928810114677,0.0,0.0
72.0,49.0,0.7,-3.585210933373907,2.7386928810114677,0.0,0.0
72.0,49.0,1.0,-3.585210933373907,2.7386928810114677,0.0,0.0
72.0,57.0,0.1,-3.801147644576342,3.359045790777883,0.0,0.0
72.0,57.0,0.3,-3.801147644576342,3.359045790777883,0.0,0.0
72.0,57.0,0.7,-3.801147644576342,3.359045790777883,0.0,0.0
72.0,57.0,1.0,-3.801147644576342,3.359045790777883,0.0,0.0
72.0,65.0,0.1,1.639089120553605,4.1930899220941145,0.0,0.0
72.0,65.0,0.3,1.639089120553605,4.1930899220941145,0.0,0.0
72.0,65.0,0.7,1.639089120553605,4.1930899220941145,0.0,0.0
72.0,65.0,1.0,1.639089120553605,4.1930899220941145,0.0,0.0
72.0,73.0,0.1,2.917175796060439,5.17790611776931,0.0,0.0
72.0,73.0,0.3,2.917175796060439,5.17790611776931,0.0,0.0
72.0,73.0,0.7,2.917175796060439,5.17790611776931,0.0,0.0
72.0,73.0,1.0,2.917175796060439,5.17790611776931,0.0,0.0
72.0,81.0,0.1,3.223933488308657,6.2702574099885435,0.0,0.0
72.0,81.0,0.3,3.223933488308657,6.2702574099885435,0.0,0.0
72.0,81.0,0.7,3.223933488308657,6.2702574099885435,0.0,0.0
72.0,81.0,1.0,3.223933488308657,6.2702574099885435,0.0,0.0
72.0,89.0,0.1,3.535728850525856,7.887294946509486,0.0,0.0
72.0,89.0,0.3,3.535728850525856,7.887294946509486,0.0,0.0
72.0,89.0,0.7,3.535728850525856,7.887294946509486,0.0,0.0
72.0,89.0,1.0,3.535728850525856,7.887294946509486,0.0,0.0
72.0,97.0,0.1,5.9974602510212165,9.255698472783415,0.0,0.0
72.0,97.0,0.3,5.9974602510212165,9.255698472783415,0.0,0.0
72.0,97.0,0.7,5.9974602510212165,9.255698472783415,0.0,0.0
72.0,97.0,1.0,5.9974602510212165,9.255698472783415,0.0,0.0
72.0,105.0,0.1,5.901078019698148,10.543589135036942,0.0,0.0
72.0,105.0,0.3,5.901078019698148,10.543589135036942,0.0,0.0
72.0,105.0,0.7,5.901078019698148,10.543589135036942,0.0,0.0
72.0,105.0,1.0,5.901078019698148,10.543589135036942,0.0,0.0
72.0,113.0,0.1,6.159783776660362,10.64879620656351,0.0,0.0
72.0,113.0,0.3,6.159783776660362,10.64879620656351,0.0,0.0
72.0,113.0,0.7,6.159783776660362,10.64879620656351,0.0,0.0
72.0,113.0,1.0,6.159783776660362,10.64879620656351,0.0,0.0
72.0,121.0,0.1,6.343545409150366,10.491110818439314,0.0,0.0
72.0,121.0,0.3,6.343545409150366,10.491110818439314,0.0,0.0
72.0,121.0,0.7,6.343545409150366,10.491110818439314,0.0,0.0
72.0,121.0,1.0,6.343545409150366,10.491110818439314,0.0,0.0
72.0,127.0,0.1,5.960420388916894,10.489379225987125,0.0,0.0
72.0,127.0,0.3,5.960420388916894,10.489379225987125,0.0,0.0
72.0,127.0,0.7,5.960420388916894,10.489379225987125,0.0,0.0
72.0,127.0,1.0,5.960420388916894,10.489379225987125,0.0,0.0
73.0,1.0,0.1,-0.4918520163845532,0.2648266941361867,0.0,0.0
73.0,1.0,0.3,-0.4918520163845532,0.2648266941361867,0.0,0.0
73.0,1.0,0.7,-0.4918520163845532,0.2648266941361867,0.0,0.0
73.0,1.0,1.0,-0.4918520163845532,0.2648266941361867,0.0,0.0
73.0,9.0,0.1,-0.46741361366333845,-0.3588523465649773,0.0,0.0
73.0,9.0,0.3,-0.46741361366333845,-0.3588523465649773,0.0,0.0
73.0,9.0,0.7,-0.46741361366333845,-0.3588523465649773,0.0,0.0
73.0,9.0,1.0,-0.46741361366333845,-0.3588523465649773,0.0,0.0
73.0,17.0,0.1,-0.291642600329322,0.7411013117181184,0.0,0.0
73.0,17.0,0.3,-0.291642600329322,0.7411013117181184,0.0,0.0
73.0,17.0,0.7,-0.291642600329322,0.7411013117181184,0.0,0.0
73.0,17.0,1.0,-0.291642600329322,0.7411013117181184,0.0,0.0
73.0,25.0,0.1,-0.4603269659414395,1.1566637049888158,0.0,0.0
73.0,25.0,0.3,-0.4603269659414395,1.1566637049888158,0.0,0.0
73.0,25.0,0.7,-0.4603269659414395,1.1566637049888158,0.0,0.0
73.0,25.0,1.0,-0.4603269659414395,1.1566637049888158,0.0,0.0
73.0,33.0,0.1,-0.4165662105136523,1.7917899137671776,0.0,0.0
73.0,33.0,0.3,-0.4165662105136523,1.7917899137671776,0.0,0.0
73.0,33.0,0.7,-0.4165662105136523,1.7917899137671776,0.0,0.0
73.0,33.0,1.0,-0.4165662105136523,1.7917899137671776,0.0,0.0
73.0,41.0,0.1,0.6876855084756014,2.3119480182476524,0.0,0.0
73.0,41.0,0.3,0.6876855084756014,2.3119480182476524,0.0,0.0
73.0,41.0,0.7,0.6876855084756014,2.3119480182476524,0.0,0.0
73.0,41.0,1.0,0.6876855084756014,2.3119480182476524,0.0,0.0
73.0,49.0,0.1,1.2273463538006488,2.808437302839614,0.0,0.0
73.0,49.0,0.3,1.2273463538006488,2.808437302839614,0.0,0.0
73.0,49.0,0.7,1.2273463538006488,2.808437302839614,0.0,0.0
73.0,49.0,1.0,1.2273463538006488,2.808437302839614,0.0,0.0
73.0,57.0,0.1,1.5412280145264035,3.3877714199567412,0.0,0.0
73.0,57.0,0.3,1.5412280145264035,3.3877714199567412,0.0,0.0
73.0,57.0,0.7,1.5412280145264035,3.3877714199567412,0.0,0.0
73.0,57.0,1.0,1.5412280145264035,3.3877714199567412,0.0,0.0
73.0,65.0,0.1,1.9428439011226362,4.36779731860532,0.0,0.0
73.0,65.0,0.3,1.9428439011226362,4.36779731860532,0.0,0.0
73.0,65.0,0.7,1.9428439011226362,4.36779731860532,0.0,0.0
73.0,65.0,1.0,1.9428439011226362,4.36779731860532,0.0,0.0
73.0,73.0,0.1,2.9486244878090053,5.275166128705388,0.0,0.0
73.0,73.0,0.3,2.9486244878090053,5.275166128705388,0.0,0.0
73.0,73.0,0.7,2.9486244878090053,5.275166128705388,0.0,0.0
73.0,73.0,1.0,2.9486244878090053,5.275166128705388,0.0,0.0
73.0,81.0,0.1,3.144426668462334,6.253350664318533,0.0,0.0
73.0,81.0,0.3,3.144426668462334,6.253350664318533,0.0,0.0
73.0,81.0,0.7,3.144426668462334,6.253350664318533,0.0,0.0
73.0,81.0,1.0,3.144426668462334,6.253350664318533,0.0,0.0
73.0,89.0,0.1,3.4085538679294545,7.682585896546191,0.0,0.0
73.0,89.0,0.3,3.4085538679294545,7.682585896546191,0.0,0.0
73.0,89.0,0.7,3.4085538679294545,7.682585896546191,0.0,0.0
73.0,89.0,1.0,3.4085538679294545,7.682585896546191,0.0,0.0
73.0,97.0,0.1,3.5441201987478297,9.807154757542893,0.0,0.0
73.0,97.0,0.3,3.5441201987478297,9.807154757542893,0.0,0.0
73.0,97.0,0.7,3.5441201987478297,9.807154757542893,0.0,0.0
73.0,97.0,1.0,3.5441201987478297,9.807154757542893,0.0,0.0
73.0,105.0,0.1,3.5254006122855928,10.331376252288601,0.0,0.0
73.0,105.0,0.3,3.5254006122855928,10.331376252288601,0.0,0.0
73.0,105.0,0.7,3.5254006122855928,10.331376252288601,0.0,0.0
73.0,105.0,1.0,3.5254006122855928,10.331376252288601,0.0,0.0
73.0,113.0,0.1,3.5134326815777968,10.600915197448362,0.0,0.0
73.0,113.0,0.3,3.5134326815777968,10.600915197448362,0.0,0.0
73.0,113.0,0.7,3.5134326815777968,10.600915197448362,0.0,0.0
73.0,113.0,1.0,3.5134326815777968,10.600915197448362,0.0,0.0
73.0,121.0,0.1,3.5239158259389063,10.4245808533214,0.0,0.0
73.0,121.0,0.3,3.5239158259389063,10.4245808533214,0.0,0.0
73.0,121.0,0.7,3.5239158259389063,10.4245808533214,0.0,0.0
73.0,121.0,1.0,3.5239158259389063,10.4245808533214,0.0,0.0
73.0,127.0,0.1,3.4820323390836765,10.47501559910142,0.0,0.0
73.0,127.0,0.3,3.4820323390836765,10.47501559910142,0.0,0.0
73.0,127.0,0.7,3.4820323390836765,10.47501559910142,0.0,0.0
73.0,127.0,1.0,3.4820323390836765,10.47501559910142,0.0,0.0
74.0,1.0,0.1,0.7204246732855549,0.6416873888946721,0.0,0.0
74.0,1.0,0.3,0.7204246732855549,0.6416873888946721,0.0,0.0
74.0,1.0,0.7,0.7204246732855549,0.6416873888946721,0.0,0.0
74.0,1.0,1.0,0.7204246732855549,0.6416873888946721,0.0,0.0
74.0,9.0,0.1,-0.10656884332692429,0.670973781047602,0.0,0.0
74.0,9.0,0.3,-0.10656884332692429,0.670973781047602,0.0,0.0
74.0,9.0,0.7,-0.10656884332692429,0.670973781047602,0.0,0.0
74.0,9.0,1.0,-0.10656884332692429,0.670973781047602,0.0,0.0
74.0,17.0,0.1,-0.00719035740797791,0.8668230544486043,0.0,0.0
74.0,17.0,0.3,-0.00719035740797791,0.8668230544486043,0.0,0.0
74.0,17.0,0.7,-0.00719035740797791,0.8668230544486043,0.0,0.0
74.0,17.0,1.0,-0.00719035740797791,0.8668230544486043,0.0,0.0
74.0,25.0,0.1,-0.1790776917523733,1.15513029833826,0.0,0.0
74.0,25.0,0.3,-0.1790776917523733,1.15513029833826,0.0,0.0
74.0,25.0,0.7,-0.1790776917523733,1.15513029833826,0.0,0.0
74.0,25.0,1.0,-0.1790776917523733,1.15513029833826,0.0,0.0
74.0,33.0,0.1,0.6064610471302564,1.5666083086668376,0.0,0.0
74.0,33.0,0.3,0.6064610471302564,1.5666083086668376,0.0,0.0
74.0,33.0,0.7,0.6064610471302564,1.5666083086668376,0.0,0.0
74.0,33.0,1.0,0.6064610471302564,1.5666083086668376,0.0,0.0
74.0,41.0,0.1,0.6665127472625546,2.1516935887110615,0.0,0.0
74.0,41.0,0.3,0.6665127472625546,2.1516935887110615,0.0,0.0
74.0,41.0,0.7,0.6665127472625546,2.1516935887110615,0.0,0.0
74.0,41.0,1.0,0.6665127472625546,2.1516935887110615,0.0,0.0
74.0,49.0,0.1,1.1046968614260926,2.0986546027483834,0.0,0.0
74.0,49.0,0.3,1.1046968614260926,2.0986546027483834,0.0,0.0
74.0,49.0,0.7,1.1046968614260926,2.0986546027483834,0.0,0.0
74.0,49.0,1.0,1.1046968614260926,2.0986546027483834,0.0,0.0
74.0,57.0,0.1,1.3206294394379925,3.3075695093288733,0.0,0.0
74.0,57.0,0.3,1.3206294394379925,3.3075695093288733,0.0,0.0
74.0,57.0,0.7,1.3206294394379925,3.3075695093288733,0.0,0.0
74.0,57.0,1.0,1.3206294394379925,3.3075695093288733,0.0,0.0
74.0,65.0,0.1,1.7345805762075366,4.188830270650686,0.0,0.0
74.0,65.0,0.3,1.7345805762075366,4.188830270650686,0.0,0.0
74.0,65.0,0.7,1.7345805762075366,4.188830270650686,0.0,0.0
74.0,65.0,1.0,1.7345805762075366,4.188830270650686,0.0,0.0
74.0,73.0,0.1,2.8285920662785684,5.0944231765032075,0.0,0.0
74.0,73.0,0.3,2.8285920662785684,5.0944231765032075,0.0,0.0
74.0,73.0,0.7,2.8285920662785684,5.0944231765032075,0.0,0.0
74.0,73.0,1.0,2.8285920662785684,5.0944231765032075,0.0,0.0
74.0,81.0,0.1,3.1066594514714674,5.9439557527751,0.0,0.0
74.0,81.0,0.3,3.1066594514714674,5.9439557527751,0.0,0.0
74.0,81.0,0.7,3.1066594514714674,5.9439557527751,0.0,0.0
74.0,81.0,1.0,3.1066594514714674,5.9439557527751,0.0,0.0
74.0,89.0,0.1,3.2998747706045246,7.513949100251979,0.0,0.0
74.0,89.0,0.3,3.2998747706045246,7.513949100251979,0.0,0.0
74.0,89.0,0.7,3.2998747706045246,7.513949100251979,0.0,0.0
74.0,89.0,1.0,3.2998747706045246,7.513949100251979,0.0,0.0
74.0,97.0,0.1,3.384969666279147,9.50033832656691,0.0,0.0
74.0,97.0,0.3,3.384969666279147,9.50033832656691,0.0,0.0
74.0,97.0,0.7,3.384969666279147,9.50033832656691,0.0,0.0
74.0,97.0,1.0,3.384969666279147,9.50033832656691,0.0,0.0
74.0,105.0,0.1,3.3766964816699097,11.043401766085658,0.0,0.0
74.0,105.0,0.3,3.3766964816699097,11.043401766085658,0.0,0.0
74.0,105.0,0.7,3.3766964816699097,11.043401766085658,0.0,0.0
74.0,105.0,1.0,3.3766964816699097,11.043401766085658,0.0,0.0
74.0,113.0,0.1,3.3782623157893896,10.967517618584575,0.0,0.0
74.0,113.0,0.3,3.3782623157893896,10.967517618584575,0.0,0.0
74.0,113.0,0.7,3.3782623157893896,10.967517618584575,0.0,0.0
74.0,113.0,1.0,3.3782623157893896,10.967517618584575,0.0,0.0
74.0,121.0,0.1,3.3819050796318986,11.00115151025504,0.0,0.0
74.0,121.0,0.3,3.3819050796318986,11.00115151025504,0.0,0.0
74.0,121.0,0.7,3.3819050796318986,11.00115151025504,0.0,0.0
74.0,121.0,1.0,3.3819050796318986,11.00115151025504,0.0,0.0
74.0,127.0,0.1,3.3628454811105604,10.971978613208226,0.0,0.0
74.0,127.0,0.3,3.3628454811105604,10.971978613208226,0.0,0.0
74.0,127.0,0.7,3.3628454811105604,10.971978613208226,0.0,0.0
74.0,127.0,1.0,3.3628454811105604,10.971978613208226,0.0,0.0
75.0,1.0,0.1,-2.7830254200656928,0.8007195537506065,0.0,0.0
75.0,1.0,0.3,-2.7830254200656928,0.8007195537506065,0.0,0.0
75.0,1.0,0.7,-2.7830254200656928,0.8007195537506065,0.0,0.0
75.0,1.0,1.0,-2.7830254200656928,0.8007195537506065,0.0,0.0
75.0,9.0,0.1,0.326503845344878,0.9603702492753757,0.0,0.0
75.0,9.0,0.3,0.326503845344878,0.9603702492753757,0.0,0.0
75.0,9.0,0.7,0.326503845344878,0.9603702492753757,0.0,0.0
75.0,9.0,1.0,0.326503845344878,0.9603702492753757,0.0,0.0
75.0,17.0,0.1,0.46863393160886213,1.1229882339270922,0.0,0.0
75.0,17.0,0.3,0.46863393160886213,1.1229882339270922,0.0,0.0
75.0,17.0,0.7,0.46863393160886213,1.1229882339270922,0.0,0.0
75.0,17.0,1.0,0.46863393160886213,1.1229882339270922,0.0,0.0
75.0,25.0,0.1,-2.9646206119856346,1.6266283498899172,0.0,0.0
75.0,25.0,0.3,-2.9646206119856346,1.6266283498899172,0.0,0.0
75.0,25.0,0.7,-2.9646206119856346,1.6266283498899172,0.0,0.0
75.0,25.0,1.0,-2.9646206119856346,1.6266283498899172,0.0,0.0
75.0,33.0,0.1,-3.756516273784281,1.8837031323138593,0.0,0.0
75.0,33.0,0.3,-3.756516273784281,1.8837031323138593,0.0,0.0
75.0,33.0,0.7,-3.756516273784281,1.8837031323138593,0.0,0.0
75.0,33.0,1.0,-3.756516273784281,1.8837031323138593,0.0,0.0
75.0,41.0,0.1,-1.8574071422232354,2.3746630572994563,0.0,0.0
75.0,41.0,0.3,-1.8574071422232354,2.3746630572994563,0.0,0.0
75.0,41.0,0.7,-1.8574071422232354,2.3746630572994563,0.0,0.0
75.0,41.0,1.0,-1.8574071422232354,2.3746630572994563,0.0,0.0
75.0,49.0,0.1,-1.040662819710119,2.8534885271737447,0.0,0.0
75.0,49.0,0.3,-1.040662819710119,2.8534885271737447,0.0,0.0
75.0,49.0,0.7,-1.040662819710119,2.8534885271737447,0.0,0.0
75.0,49.0,1.0,-1.040662819710119,2.8534885271737447,0.0,0.0
75.0,57.0,0.1,0.6593969336379119,3.3532263560735025,0.0,0.0
75.0,57.0,0.3,0.6593969336379119,3.3532263560735025,0.0,0.0
75.0,57.0,0.7,0.6593969336379119,3.3532263560735025,0.0,0.0
75.0,57.0,1.0,0.6593969336379119,3.3532263560735025,0.0,0.0
75.0,65.0,0.1,1.4930928872213252,4.529067551432849,0.0,0.0
75.0,65.0,0.3,1.4930928872213252,4.529067551432849,0.0,0.0
75.0,65.0,0.7,1.4930928872213252,4.529067551432849,0.0,0.0
75.0,65.0,1.0,1.4930928872213252,4.529067551432849,0.0,0.0
75.0,73.0,0.1,2.3441917705396333,5.36731346478013,0.0,0.0
75.0,73.0,0.3,2.3441917705396333,5.36731346478013,0.0,0.0
75.0,73.0,0.7,2.3441917705396333,5.36731346478013,0.0,0.0
75.0,73.0,1.0,2.3441917705396333,5.36731346478013,0.0,0.0
75.0,81.0,0.1,2.920391108161973,6.5200807981709685,0.0,0.0
75.0,81.0,0.3,2.920391108161973,6.5200807981709685,0.0,0.0
75.0,81.0,0.7,2.920391108161973,6.5200807981709685,0.0,0.0
75.0,81.0,1.0,2.920391108161973,6.5200807981709685,0.0,0.0
75.0,89.0,0.1,3.2195483435947843,8.028714881199047,0.0,0.0
75.0,89.0,0.3,3.2195483435947843,8.028714881199047,0.0,0.0
75.0,89.0,0.7,3.2195483435947843,8.028714881199047,0.0,0.0
75.0,89.0,1.0,3.2195483435947843,8.028714881199047,0.0,0.0
75.0,97.0,0.1,3.3444530053973276,9.375792303922955,0.0,0.0
75.0,97.0,0.3,3.3444530053973276,9.375792303922955,0.0,0.0
75.0,97.0,0.7,3.3444530053973276,9.375792303922955,0.0,0.0
75.0,97.0,1.0,3.3444530053973276,9.375792303922955,0.0,0.0
75.0,105.0,0.1,3.3833116744250873,10.445895813528175,0.0,0.0
75.0,105.0,0.3,3.3833116744250873,10.445895813528175,0.0,0.0
75.0,105.0,0.7,3.3833116744250873,10.445895813528175,0.0,0.0
75.0,105.0,1.0,3.3833116744250873,10.445895813528175,0.0,0.0
75.0,113.0,0.1,3.37241403827891,10.67288364217163,0.0,0.0
75.0,113.0,0.3,3.37241403827891,10.67288364217163,0.0,0.0
75.0,113.0,0.7,3.37241403827891,10.67288364217163,0.0,0.0
75.0,113.0,1.0,3.37241403827891,10.67288364217163,0.0,0.0
75.0,121.0,0.1,3.3558228115223137,10.715425438292732,0.0,0.0
75.0,121.0,0.3,3.3558228115223137,10.715425438292732,0.0,0.0
75.0,121.0,0.7,3.3558228115223137,10.715425438292732,0.0,0.0
75.0,121.0,1.0,3.3558228115223137,10.715425438292732,0.0,0.0
75.0,127.0,0.1,3.354926732652545,10.770384079382426,0.0,0.0
75.0,127.0,0.3,3.354926732652545,10.770384079382426,0.0,0.0
75.0,127.0,0.7,3.354926732652545,10.770384079382426,0.0,0.0
75.0,127.0,1.0,3.354926732652545,10.770384079382426,0.0,0.0
76.0,1.0,0.1,1.292361597842656,-0.46764053139628653,0.0,0.0
76.0,1.0,0.3,1.292361597842656,-0.46764053139628653,0.0,0.0
76.0,1.0,0.7,1.292361597842656,-0.46764053139628653,0.0,0.0
76.0,1.0,1.0,1.292361597842656,-0.46764053139628653,0.0,0.0
76.0,9.0,0.1,0.8266918182945199,-1.1297245375148863,0.0,0.0
76.0,9.0,0.3,0.8266918182945199,-1.1297245375148863,0.0,0.0
76.0,9.0,0.7,0.8266918182945199,-1.1297245375148863,0.0,0.0
76.0,9.0,1.0,0.8266918182945199,-1.1297245375148863,0.0,0.0
76.0,17.0,0.1,0.7430209383492975,0.4697112014724766,0.0,0.0
76.0,17.0,0.3,0.7430209383492975,0.4697112014724766,0.0,0.0
76.0,17.0,0.7,0.7430209383492975,0.4697112014724766,0.0,0.0
76.0,17.0,1.0,0.7430209383492975,0.4697112014724766,0.0,0.0
76.0,25.0,0.1,0.7611515540033716,0.7733499565203699,0.0,0.0
76.0,25.0,0.3,0.7611515540033716,0.7733499565203699,0.0,0.0
76.0,25.0,0.7,0.7611515540033716,0.7733499565203699,0.0,0.0
76.0,25.0,1.0,0.7611515540033716,0.7733499565203699,0.0,0.0
76.0,33.0,0.1,1.1786070595177258,1.2209747314299313,0.0,0.0
76.0,33.0,0.3,1.1786070595177258,1.2209747314299313,0.0,0.0
76.0,33.0,0.7,1.1786070595177258,1.2209747314299313,0.0,0.0
76.0,33.0,1.0,1.1786070595177258,1.2209747314299313,0.0,0.0
76.0,41.0,0.1,1.2130379853687236,1.7941823521322982,0.0,0.0
76.0,41.0,0.3,1.2130379853687236,1.7941823521322982,0.0,0.0
76.0,41.0,0.7,1.2130379853687236,1.7941823521322982,0.0,0.0
76.0,41.0,1.0,1.2130379853687236,1.7941823521322982,0.0,0.0
76.0,49.0,0.1,1.7389382393363473,2.092119674453969,0.0,0.0
76.0,49.0,0.3,1.7389382393363473,2.092119674453969,0.0,0.0
76.0,49.0,0.7,1.7389382393363473,2.092119674453969,0.0,0.0
76.0,49.0,1.0,1.7389382393363473,2.092119674453969,0.0,0.0
76.0,57.0,0.1,2.060138790391945,2.4159153406244136,0.0,0.0
76.0,57.0,0.3,2.060138790391945,2.4159153406244136,0.0,0.0
76.0,57.0,0.7,2.060138790391945,2.4159153406244136,0.0,0.0
76.0,57.0,1.0,2.060138790391945,2.4159153406244136,0.0,0.0
76.0,65.0,0.1,2.937864709424945,3.304996643620024,0.0,0.0
76.0,65.0,0.3,2.937864709424945,3.304996643620024,0.0,0.0
76.0,65.0,0.7,2.937864709424945,3.304996643620024,0.0,0.0
76.0,65.0,1.0,2.937864709424945,3.304996643620024,0.0,0.0
76.0,73.0,0.1,3.1914863858932523,4.405627144155607,0.0,0.0
76.0,73.0,0.3,3.1914863858932523,4.405627144155607,0.0,0.0
76.0,73.0,0.7,3.1914863858932523,4.405627144155607,0.0,0.0
76.0,73.0,1.0,3.1914863858932523,4.405627144155607,0.0,0.0
76.0,81.0,0.1,3.3206212791669696,5.125971047946291,0.0,0.0
76.0,81.0,0.3,3.3206212791669696,5.125971047946291,0.0,0.0
76.0,81.0,0.7,3.3206212791669696,5.125971047946291,0.0,0.0
76.0,81.0,1.0,3.3206212791669696,5.125971047946291,0.0,0.0
76.0,89.0,0.1,3.7442814258500854,5.520175770859941,0.0,0.0
76.0,89.0,0.3,3.7442814258500854,5.520175770859941,0.0,0.0
76.0,89.0,0.7,3.7442814258500854,5.520175770859941,0.0,0.0
76.0,89.0,1.0,3.7442814258500854,5.520175770859941,0.0,0.0
76.0,97.0,0.1,5.325482244644087,7.56100787637547,0.0,0.0
76.0,97.0,0.3,5.325482244644087,7.56100787637547,0.0,0.0
76.0,97.0,0.7,5.325482244644087,7.56100787637547,0.0,0.0
76.0,97.0,1.0,5.325482244644087,7.56100787637547,0.0,0.0
76.0,105.0,0.1,4.910895201664347,10.266441699490908,0.0,0.0
76.0,105.0,0.3,4.910895201664347,10.266441699490908,0.0,0.0
76.0,105.0,0.7,4.910895201664347,10.266441699490908,0.0,0.0
76.0,105.0,1.0,4.910895201664347,10.266441699490908,0.0,0.0
76.0,113.0,0.1,5.210152865032302,10.059132696846925,0.0,0.0
76.0,113.0,0.3,5.210152865032302,10.059132696846925,0.0,0.0
76.0,113.0,0.7,5.210152865032302,10.059132696846925,0.0,0.0
76.0,113.0,1.0,5.210152865032302,10.059132696846925,0.0,0.0
76.0,121.0,0.1,4.917417069190721,10.137408666010002,0.0,0.0
76.0,121.0,0.3,4.917417069190721,10.137408666010002,0.0,0.0
76.0,121.0,0.7,4.917417069190721,10.137408666010002,0.0,0.0
76.0,121.0,1.0,4.917417069190721,10.137408666010002,0.0,0.0
76.0,127.0,0.1,4.733961905931579,10.117406796923117,0.0,0.0
76.0,127.0,0.3,4.733961905931579,10.117406796923117,0.0,0.0
76.0,127.0,0.7,4.733961905931579,10.117406796923117,0.0,0.0
76.0,127.0,1.0,4.733961905931579,10.117406796923117,0.0,0.0
77.0,1.0,0.1,-2.894653256396964,-0.698720811486992,0.0,0.0
77.0,1.0,0.3,-2.894653256396964,-0.698720811486992,0.0,0.0
77.0,1.0,0.7,-2.894653256396964,-0.698720811486992,0.0,0.0
77.0,1.0,1.0,-2.894653256396964,-0.698720811486992,0.0,0.0
77.0,9.0,0.1,-3.991814199306419,-0.7196394429442659,0.0,0.0
77.0,9.0,0.3,-3.991814199306419,-0.7196394429442659,0.0,0.0
77.0,9.0,0.7,-3.991814199306419,-0.7196394429442659,0.0,0.0
77.0,9.0,1.0,-3.991814199306419,-0.7196394429442659,0.0,0.0
77.0,17.0,0.1,-3.8606870908664837,0.11356743654361891,0.0,0.0
77.0,17.0,0.3,-3.8606870908664837,0.11356743654361891,0.0,0.0
77.0,17.0,0.7,-3.8606870908664837,0.11356743654361891,0.0,0.0
77.0,17.0,1.0,-3.8606870908664837,0.11356743654361891,0.0,0.0
77.0,25.0,0.1,-4.233798237277561,0.5231103140482437,0.0,0.0
77.0,25.0,0.3,-4.233798237277561,0.5231103140482437,0.0,0.0
77.0,25.0,0.7,-4.233798237277561,0.5231103140482437,0.0,0.0
77.0,25.0,1.0,-4.233798237277561,0.5231103140482437,0.0,0.0
77.0,33.0,0.1,-2.2157592459483144,0.7773511204465404,0.0,0.0
77.0,33.0,0.3,-2.2157592459483144,0.7773511204465404,0.0,0.0
77.0,33.0,0.7,-2.2157592459483144,0.7773511204465404,0.0,0.0
77.0,33.0,1.0,-2.2157592459483144,0.7773511204465404,0.0,0.0
77.0,41.0,0.1,0.7352497831851408,0.8891149343226973,0.0,0.0
77.0,41.0,0.3,0.7352497831851408,0.8891149343226973,0.0,0.0
77.0,41.0,0.7,0.7352497831851408,0.8891149343226973,0.0,0.0
77.0,41.0,1.0,0.7352497831851408,0.8891149343226973,0.0,0.0
77.0,49.0,0.1,0.8746900666325983,1.6740887418254145,0.0,0.0
77.0,49.0,0.3,0.8746900666325983,1.6740887418254145,0.0,0.0
77.0,49.0,0.7,0.8746900666325983,1.6740887418254145,0.0,0.0
77.0,49.0,1.0,0.8746900666325983,1.6740887418254145,0.0,0.0
77.0,57.0,0.1,1.2276141868140014,2.310444251657515,0.0,0.0
77.0,57.0,0.3,1.2276141868140014,2.310444251657515,0.0,0.0
77.0,57.0,0.7,1.2276141868140014,2.310444251657515,0.0,0.0
77.0,57.0,1.0,1.2276141868140014,2.310444251657515,0.0,0.0
77.0,65.0,0.1,1.733977079120947,2.9320006738104136,0.0,0.0
77.0,65.0,0.3,1.733977079120947,2.9320006738104136,0.0,0.0
77.0,65.0,0.7,1.733977079120947,2.9320006738104136,0.0,0.0
77.0,65.0,1.0,1.733977079120947,2.9320006738104136,0.0,0.0
77.0,73.0,0.1,3.07443746932688,4.072121542943998,0.0,0.0
77.0,73.0,0.3,3.07443746932688,4.072121542943998,0.0,0.0
77.0,73.0,0.7,3.07443746932688,4.072121542943998,0.0,0.0
77.0,73.0,1.0,3.07443746932688,4.072121542943998,0.0,0.0
77.0,81.0,0.1,3.224298393790765,4.977971161354415,0.0,0.0
77.0,81.0,0.3,3.224298393790765,4.977971161354415,0.0,0.0
77.0,81.0,0.7,3.224298393790765,4.977971161354415,0.0,0.0
77.0,81.0,1.0,3.224298393790765,4.977971161354415,0.0,0.0
77.0,89.0,0.1,3.549234216918452,5.546797042644057,0.0,0.0
77.0,89.0,0.3,3.549234216918452,5.546797042644057,0.0,0.0
77.0,89.0,0.7,3.549234216918452,5.546797042644057,0.0,0.0
77.0,89.0,1.0,3.549234216918452,5.546797042644057,0.0,0.0
77.0,97.0,0.1,3.5588976755161097,7.8380219984653605,0.0,0.0
77.0,97.0,0.3,3.5588976755161097,7.8380219984653605,0.0,0.0
77.0,97.0,0.7,3.5588976755161097,7.8380219984653605,0.0,0.0
77.0,97.0,1.0,3.5588976755161097,7.8380219984653605,0.0,0.0
77.0,105.0,0.1,3.587749113412444,9.564230544423625,0.0,0.0
77.0,105.0,0.3,3.587749113412444,9.564230544423625,0.0,0.0
77.0,105.0,0.7,3.587749113412444,9.564230544423625,0.0,0.0
77.0,105.0,1.0,3.587749113412444,9.564230544423625,0.0,0.0
77.0,113.0,0.1,3.5954822444571533,9.747719126826372,0.0,0.0
77.0,113.0,0.3,3.5954822444571533,9.747719126826372,0.0,0.0
77.0,113.0,0.7,3.5954822444571533,9.747719126826372,0.0,0.0
77.0,113.0,1.0,3.5954822444571533,9.747719126826372,0.0,0.0
77.0,121.0,0.1,3.601032373309762,9.349834664648585,0.0,0.0
77.0,121.0,0.3,3.601032373309762,9.349834664648585,0.0,0.0
77.0,121.0,0.7,3.601032373309762,9.349834664648585,0.0,0.0
77.0,121.0,1.0,3.601032373309762,9.349834664648585,0.0,0.0
77.0,127.0,0.1,3.6264899324477278,9.56462832717204,0.0,0.0
77.0,127.0,0.3,3.6264899324477278,9.56462832717204,0.0,0.0
77.0,127.0,0.7,3.6264899324477278,9.56462832717204,0.0,0.0
77.0,127.0,1.0,3.6264899324477278,9.56462832717204,0.0,0.0
78.0,1.0,0.1,-1.2507090654766542,-1.1592760774774666,0.0,0.0
78.0,1.0,0.3,-1.2507090654766542,-1.1592760774774666,0.0,0.0
78.0,1.0,0.7,-1.2507090654766542,-1.1592760774774666,0.0,0.0
78.0,1.0,1.0,-1.2507090654766542,-1.1592760774774666,0.0,0.0
78.0,9.0,0.1,0.7616746558089256,-1.0725296484453892,0.0,0.0
78.0,9.0,0.3,0.7616746558089256,-1.0725296484453892,0.0,0.0
78.0,9.0,0.7,0.7616746558089256,-1.0725296484453892,0.0,0.0
78.0,9.0,1.0,0.7616746558089256,-1.0725296484453892,0.0,0.0
78.0,17.0,0.1,-1.5877181115505554,-0.19008731672303564,0.0,0.0
78.0,17.0,0.3,-1.5877181115505554,-0.19008731672303564,0.0,0.0
78.0,17.0,0.7,-1.5877181115505554,-0.19008731672303564,0.0,0.0
78.0,17.0,1.0,-1.5877181115505554,-0.19008731672303564,0.0,0.0
78.0,25.0,0.1,-2.042268018166344,0.4886963429639433,0.0,0.0
78.0,25.0,0.3,-2.042268018166344,0.4886963429639433,0.0,0.0
78.0,25.0,0.7,-2.042268018166344,0.4886963429639433,0.0,0.0
78.0,25.0,1.0,-2.042268018166344,0.4886963429639433,0.0,0.0
78.0,33.0,0.1,-1.2791247030833586,0.7578810920632325,0.0,0.0
78.0,33.0,0.3,-1.2791247030833586,0.7578810920632325,0.0,0.0
78.0,33.0,0.7,-1.2791247030833586,0.7578810920632325,0.0,0.0
78.0,33.0,1.0,-1.2791247030833586,0.7578810920632325,0.0,0.0
78.0,41.0,0.1,-0.6255946311333962,0.9250661721362681,0.0,0.0
78.0,41.0,0.3,-0.6255946311333962,0.9250661721362681,0.0,0.0
78.0,41.0,0.7,-0.6255946311333962,0.9250661721362681,0.0,0.0
78.0,41.0,1.0,-0.6255946311333962,0.9250661721362681,0.0,0.0
78.0,49.0,0.1,0.7568628939333121,1.6892621796668643,0.0,0.0
78.0,49.0,0.3,0.7568628939333121,1.6892621796668643,0.0,0.0
78.0,49.0,0.7,0.7568628939333121,1.6892621796668643,0.0,0.0
78.0,49.0,1.0,0.7568628939333121,1.6892621796668643,0.0,0.0
78.0,57.0,0.1,1.1955138461451882,2.1798209914593953,0.0,0.0
78.0,57.0,0.3,1.1955138461451882,2.1798209914593953,0.0,0.0
78.0,57.0,0.7,1.1955138461451882,2.1798209914593953,0.0,0.0
78.0,57.0,1.0,1.1955138461451882,2.1798209914593953,0.0,0.0
78.0,65.0,0.1,1.5876545093328687,2.8051347920844,0.0,0.0
78.0,65.0,0.3,1.5876545093328687,2.8051347920844,0.0,0.0
78.0,65.0,0.7,1.5876545093328687,2.8051347920844,0.0,0.0
78.0,65.0,1.0,1.5876545093328687,2.8051347920844,0.0,0.0
78.0,73.0,0.1,2.547726717847855,3.8316225445206014,0.0,0.0
78.0,73.0,0.3,2.547726717847855,3.8316225445206014,0.0,0.0
78.0,73.0,0.7,2.547726717847855,3.8316225445206014,0.0,0.0
78.0,73.0,1.0,2.547726717847855,3.8316225445206014,0.0,0.0
78.0,81.0,0.1,2.954422829249629,4.975546133259526,0.0,0.0
78.0,81.0,0.3,2.954422829249629,4.975546133259526,0.0,0.0
78.0,81.0,0.7,2.954422829249629,4.975546133259526,0.0,0.0
78.0,81.0,1.0,2.954422829249629,4.975546133259526,0.0,0.0
78.0,89.0,0.1,3.1593519752783723,5.581066630275558,0.0,0.0
78.0,89.0,0.3,3.1593519752783723,5.581066630275558,0.0,0.0
78.0,89.0,0.7,3.1593519752783723,5.581066630275558,0.0,0.0
78.0,89.0,1.0,3.1593519752783723,5.581066630275558,0.0,0.0
78.0,97.0,0.1,3.2385785188743026,8.093345451181236,0.0,0.0
78.0,97.0,0.3,3.2385785188743026,8.093345451181236,0.0,0.0
78.0,97.0,0.7,3.2385785188743026,8.093345451181236,0.0,0.0
78.0,97.0,1.0,3.2385785188743026,8.093345451181236,0.0,0.0
78.0,105.0,0.1,3.2474844677914225,9.319131961854215,0.0,0.0
78.0,105.0,0.3,3.2474844677914225,9.319131961854215,0.0,0.0
78.0,105.0,0.7,3.2474844677914225,9.319131961854215,0.0,0.0
78.0,105.0,1.0,3.2474844677914225,9.319131961854215,0.0,0.0
78.0,113.0,0.1,3.24615762614308,9.452880502274477,0.0,0.0
78.0,113.0,0.3,3.24615762614308,9.452880502274477,0.0,0.0
78.0,113.0,0.7,3.24615762614308,9.452880502274477,0.0,0.0
78.0,113.0,1.0,3.24615762614308,9.452880502274477,0.0,0.0
78.0,121.0,0.1,3.2493937421923804,3.370106134932091,0.0,0.0
78.0,121.0,0.3,3.2493937421923804,3.370106134932091,0.0,0.0
78.0,121.0,0.7,3.2493937421923804,3.370106134932091,0.0,0.0
78.0,121.0,1.0,3.2493937421923804,3.370106134932091,0.0,0.0
78.0,127.0,0.1,3.245724382751436,-2.93866887886302,0.0,0.0
78.0,127.0,0.3,3.245724382751436,-2.93866887886302,0.0,0.0
78.0,127.0,0.7,3.245724382751436,-2.93866887886302,0.0,0.0
78.0,127.0,1.0,3.245724382751436,-2.93866887886302,0.0,0.0
79.0,1.0,0.1,-1.5396462096942714,0.2415791793291037,0.0,0.0
79.0,1.0,0.3,-1.5396462096942714,0.2415791793291037,0.0,0.0
79.0,1.0,0.7,-1.5396462096942714,0.2415791793291037,0.0,0.0
79.0,1.0,1.0,-1.5396462096942714,0.2415791793291037,0.0,0.0
79.0,9.0,0.1,-1.0124698890946793,0.38974599683651867,0.0,0.0
79.0,9.0,0.3,-1.0124698890946793,0.38974599683651867,0.0,0.0
79.0,9.0,0.7,-1.0124698890946793,0.38974599683651867,0.0,0.0
79.0,9.0,1.0,-1.0124698890946793,0.38974599683651867,0.0,0.0
79.0,17.0,0.1,-2.283968660843753,0.5658639619357448,0.0,0.0
79.0,17.0,0.3,-2.283968660843753,0.5658639619357448,0.0,0.0
79.0,17.0,0.7,-2.283968660843753,0.5658639619357448,0.0,0.0
79.0,17.0,1.0,-2.283968660843753,0.5658639619357448,0.0,0.0
79.0,25.0,0.1,-2.2764879928841264,0.7548512957061542,0.0,0.0
79.0,25.0,0.3,-2.2764879928841264,0.7548512957061542,0.0,0.0
79.0,25.0,0.7,-2.2764879928841264,0.7548512957061542,0.0,0.0
79.0,25.0,1.0,-2.2764879928841264,0.7548512957061542,0.0,0.0
79.0,33.0,0.1,-1.7525408702255978,0.8328442583527897,0.0,0.0
79.0,33.0,0.3,-1.7525408702255978,0.8328442583527897,0.0,0.0
79.0,33.0,0.7,-1.7525408702255978,0.8328442583527897,0.0,0.0
79.0,33.0,1.0,-1.7525408702255978,0.8328442583527897,0.0,0.0
79.0,41.0,0.1,0.18848634240991208,1.3422989556844522,0.0,0.0
79.0,41.0,0.3,0.18848634240991208,1.3422989556844522,0.0,0.0
79.0,41.0,0.7,0.18848634240991208,1.3422989556844522,0.0,0.0
79.0,41.0,1.0,0.18848634240991208,1.3422989556844522,0.0,0.0
79.0,49.0,0.1,0.8938883013190464,2.043241610851658,0.0,0.0
79.0,49.0,0.3,0.8938883013190464,2.043241610851658,0.0,0.0
79.0,49.0,0.7,0.8938883013190464,2.043241610851658,0.0,0.0
79.0,49.0,1.0,0.8938883013190464,2.043241610851658,0.0,0.0
79.0,57.0,0.1,0.9821936828188491,2.299375727664304,0.0,0.0
79.0,57.0,0.3,0.9821936828188491,2.299375727664304,0.0,0.0
79.0,57.0,0.7,0.9821936828188491,2.299375727664304,0.0,0.0
79.0,57.0,1.0,0.9821936828188491,2.299375727664304,0.0,0.0
79.0,65.0,0.1,1.4941146629557283,3.069956927940244,0.0,0.0
79.0,65.0,0.3,1.4941146629557283,3.069956927940244,0.0,0.0
79.0,65.0,0.7,1.4941146629557283,3.069956927940244,0.0,0.0
79.0,65.0,1.0,1.4941146629557283,3.069956927940244,0.0,0.0
79.0,73.0,0.1,2.3897531059541888,4.187907993189328,0.0,0.0
79.0,73.0,0.3,2.3897531059541888,4.187907993189328,0.0,0.0
79.0,73.0,0.7,2.3897531059541888,4.187907993189328,0.0,0.0
79.0,73.0,1.0,2.3897531059541888,4.187907993189328,0.0,0.0
79.0,81.0,0.1,2.8564737167781464,5.044734688690463,0.0,0.0
79.0,81.0,0.3,2.8564737167781464,5.044734688690463,0.0,0.0
79.0,81.0,0.7,2.8564737167781464,5.044734688690463,0.0,0.0
79.0,81.0,1.0,2.8564737167781464,5.044734688690463,0.0,0.0
79.0,89.0,0.1,3.2343160067664187,5.73354185932304,0.0,0.0
79.0,89.0,0.3,3.2343160067664187,5.73354185932304,0.0,0.0
79.0,89.0,0.7,3.2343160067664187,5.73354185932304,0.0,0.0
79.0,89.0,1.0,3.2343160067664187,5.73354185932304,0.0,0.0
79.0,97.0,0.1,3.296352668257206,8.409170250634443,0.0,0.0
79.0,97.0,0.3,3.296352668257206,8.409170250634443,0.0,0.0
79.0,97.0,0.7,3.296352668257206,8.409170250634443,0.0,0.0
79.0,97.0,1.0,3.296352668257206,8.409170250634443,0.0,0.0
79.0,105.0,0.1,3.3087043079565417,9.29991943955247,0.0,0.0
79.0,105.0,0.3,3.3087043079565417,9.29991943955247,0.0,0.0
79.0,105.0,0.7,3.3087043079565417,9.29991943955247,0.0,0.0
79.0,105.0,1.0,3.3087043079565417,9.29991943955247,0.0,0.0
79.0,113.0,0.1,3.2988648508645793,9.060661389559481,0.0,0.0
79.0,113.0,0.3,3.2988648508645793,9.060661389559481,0.0,0.0
79.0,113.0,0.7,3.2988648508645793,9.060661389559481,0.0,0.0
79.0,113.0,1.0,3.2988648508645793,9.060661389559481,0.0,0.0
79.0,121.0,0.1,3.3052423611365462,9.101907791198244,0.0,0.0
79.0,121.0,0.3,3.3052423611365462,9.101907791198244,0.0,0.0
79.0,121.0,0.7,3.3052423611365462,9.101907791198244,0.0,0.0
79.0,121.0,1.0,3.3052423611365462,9.101907791198244,0.0,0.0
79.0,127.0,0.1,3.29318172097777,9.20661228576151,0.0,0.0
79.0,127.0,0.3,3.29318172097777,9.20661228576151,0.0,0.0
79.0,127.0,0.7,3.29318172097777,9.20661228576151,0.0,0.0
79.0,127.0,1.0,3.29318172097777,9.20661228576151,0.0,0.0
80.0,1.0,0.1,0.7530513331341301,0.6277443246699232,0.0,0.0
80.0,1.0,0.3,0.7530513331341301,0.6277443246699232,0.0,0.0
80.0,1.0,0.7,0.7530513331341301,0.6277443246699232,0.0,0.0
80.0,1.0,1.0,0.7530513331341301,0.6277443246699232,0.0,0.0
80.0,9.0,0.1,0.9615088398072692,0.6065367390844683,0.0,0.0
80.0,9.0,0.3,0.9615088398072692,0.6065367390844683,0.0,0.0
80.0,9.0,0.7,0.9615088398072692,0.6065367390844683,0.0,0.0
80.0,9.0,1.0,0.9615088398072692,0.6065367390844683,0.0,0.0
80.0,17.0,0.1,1.7061457316997666,0.7533484866792916,0.0,0.0
80.0,17.0,0.3,1.7061457316997666,0.7533484866792916,0.0,0.0
80.0,17.0,0.7,1.7061457316997666,0.7533484866792916,0.0,0.0
80.0,17.0,1.0,1.7061457316997666,0.7533484866792916,0.0,0.0
80.0,25.0,0.1,3.051875450397491,0.9473010368772335,0.0,0.0
80.0,25.0,0.3,3.051875450397491,0.9473010368772335,0.0,0.0
80.0,25.0,0.7,3.051875450397491,0.9473010368772335,0.0,0.0
80.0,25.0,1.0,3.051875450397491,0.9473010368772335,0.0,0.0
80.0,33.0,0.1,0.4307533133132001,1.17982241703202,0.0,0.0
80.0,33.0,0.3,0.4307533133132001,1.17982241703202,0.0,0.0
80.0,33.0,0.7,0.4307533133132001,1.17982241703202,0.0,0.0
80.0,33.0,1.0,0.4307533133132001,1.17982241703202,0.0,0.0
80.0,41.0,0.1,0.789015738445467,1.9956454467698412,0.0,0.0
80.0,41.0,0.3,0.789015738445467,1.9956454467698412,0.0,0.0
80.0,41.0,0.7,0.789015738445467,1.9956454467698412,0.0,0.0
80.0,41.0,1.0,0.789015738445467,1.9956454467698412,0.0,0.0
80.0,49.0,0.1,1.1826915610297137,2.1843630103682656,0.0,0.0
80.0,49.0,0.3,1.1826915610297137,2.1843630103682656,0.0,0.0
80.0,49.0,0.7,1.1826915610297137,2.1843630103682656,0.0,0.0
80.0,49.0,1.0,1.1826915610297137,2.1843630103682656,0.0,0.0
80.0,57.0,0.1,1.3698380539334967,2.7846683081873485,0.0,0.0
80.0,57.0,0.3,1.3698380539334967,2.7846683081873485,0.0,0.0
80.0,57.0,0.7,1.3698380539334967,2.7846683081873485,0.0,0.0
80.0,57.0,1.0,1.3698380539334967,2.7846683081873485,0.0,0.0
80.0,65.0,0.1,1.7441398062529965,3.4492818402540895,0.0,0.0
80.0,65.0,0.3,1.7441398062529965,3.4492818402540895,0.0,0.0
80.0,65.0,0.7,1.7441398062529965,3.4492818402540895,0.0,0.0
80.0,65.0,1.0,1.7441398062529965,3.4492818402540895,0.0,0.0
80.0,73.0,0.1,2.684338387593784,4.675250824857145,0.0,0.0
80.0,73.0,0.3,2.684338387593784,4.675250824857145,0.0,0.0
80.0,73.0,0.7,2.684338387593784,4.675250824857145,0.0,0.0
80.0,73.0,1.0,2.684338387593784,4.675250824857145,0.0,0.0
80.0,81.0,0.1,3.1394186531489927,5.665589893009461,0.0,0.0
80.0,81.0,0.3,3.1394186531489927,5.665589893009461,0.0,0.0
80.0,81.0,0.7,3.1394186531489927,5.665589893009461,0.0,0.0
80.0,81.0,1.0,3.1394186531489927,5.665589893009461,0.0,0.0
80.0,89.0,0.1,3.3226083307682646,7.824437759891542,0.0,0.0
80.0,89.0,0.3,3.3226083307682646,7.824437759891542,0.0,0.0
80.0,89.0,0.7,3.3226083307682646,7.824437759891542,0.0,0.0
80.0,89.0,1.0,3.3226083307682646,7.824437759891542,0.0,0.0
80.0,97.0,0.1,3.4230488576029137,9.362674618593928,0.0,0.0
80.0,97.0,0.3,3.4230488576029137,9.362674618593928,0.0,0.0
80.0,97.0,0.7,3.4230488576029137,9.362674618593928,0.0,0.0
80.0,97.0,1.0,3.4230488576029137,9.362674618593928,0.0,0.0
80.0,105.0,0.1,3.406162353550201,10.121529585449391,0.0,0.0
80.0,105.0,0.3,3.406162353550201,10.121529585449391,0.0,0.0
80.0,105.0,0.7,3.406162353550201,10.121529585449391,0.0,0.0
80.0,105.0,1.0,3.406162353550201,10.121529585449391,0.0,0.0
80.0,113.0,0.1,3.4126885529706135,9.863632710961362,0.0,0.0
80.0,113.0,0.3,3.4126885529706135,9.863632710961362,0.0,0.0
80.0,113.0,0.7,3.4126885529706135,9.863632710961362,0.0,0.0
80.0,113.0,1.0,3.4126885529706135,9.863632710961362,0.0,0.0
80.0,121.0,0.1,3.3931763258936716,10.086356268603323,0.0,0.0
80.0,121.0,0.3,3.3931763258936716,10.086356268603323,0.0,0.0
80.0,121.0,0.7,3.3931763258936716,10.086356268603323,0.0,0.0
80.0,121.0,1.0,3.3931763258936716,10.086356268603323,0.0,0.0
80.0,127.0,0.1,3.423591899130036,9.997619463044156,0.0,0.0
80.0,127.0,0.3,3.423591899130036,9.997619463044156,0.0,0.0
80.0,127.0,0.7,3.423591899130036,9.997619463044156,0.0,0.0
80.0,127.0,1.0,3.423591899130036,9.997619463044156,0.0,0.0
81.0,1.0,0.1,0.014294256166036301,-1.5057238421478925,0.0,0.0
81.0,1.0,0.3,0.014294256166036301,-1.5057238421478925,0.0,0.0
81.0,1.0,0.7,0.014294256166036301,-1.5057238421478925,0.0,0.0
81.0,1.0,1.0,0.014294256166036301,-1.5057238421478925,0.0,0.0
81.0,9.0,0.1,0.34552555473771873,-1.8030165082217526,0.0,0.0
81.0,9.0,0.3,0.34552555473771873,-1.8030165082217526,0.0,0.0
81.0,9.0,0.7,0.34552555473771873,-1.8030165082217526,0.0,0.0
81.0,9.0,1.0,0.34552555473771873,-1.8030165082217526,0.0,0.0
81.0,17.0,0.1,0.6457658092361309,-0.978020466133732,0.0,0.0
81.0,17.0,0.3,0.6457658092361309,-0.978020466133732,0.0,0.0
81.0,17.0,0.7,0.6457658092361309,-0.978020466133732,0.0,0.0
81.0,17.0,1.0,0.6457658092361309,-0.978020466133732,0.0,0.0
81.0,25.0,0.1,0.40493252634519616,0.4216014059363255,0.0,0.0
81.0,25.0,0.3,0.40493252634519616,0.4216014059363255,0.0,0.0
81.0,25.0,0.7,0.40493252634519616,0.4216014059363255,0.0,0.0
81.0,25.0,1.0,0.40493252634519616,0.4216014059363255,0.0,0.0
81.0,33.0,0.1,0.6612544158734392,0.7258291609159306,0.0,0.0
81.0,33.0,0.3,0.6612544158734392,0.7258291609159306,0.0,0.0
81.0,33.0,0.7,0.6612544158734392,0.7258291609159306,0.0,0.0
81.0,33.0,1.0,0.6612544158734392,0.7258291609159306,0.0,0.0
81.0,41.0,0.1,1.1899643284199422,0.9370027227758548,0.0,0.0
81.0,41.0,0.3,1.1899643284199422,0.9370027227758548,0.0,0.0
81.0,41.0,0.7,1.1899643284199422,0.9370027227758548,0.0,0.0
81.0,41.0,1.0,1.1899643284199422,0.9370027227758548,0.0,0.0
81.0,49.0,0.1,1.3122171784008194,1.3376020547333274,0.0,0.0
81.0,49.0,0.3,1.3122171784008194,1.3376020547333274,0.0,0.0
81.0,49.0,0.7,1.3122171784008194,1.3376020547333274,0.0,0.0
81.0,49.0,1.0,1.3122171784008194,1.3376020547333274,0.0,0.0
81.0,57.0,0.1,1.4378838253937885,2.1435628310902444,0.0,0.0
81.0,57.0,0.3,1.4378838253937885,2.1435628310902444,0.0,0.0
81.0,57.0,0.7,1.4378838253937885,2.1435628310902444,0.0,0.0
81.0,57.0,1.0,1.4378838253937885,2.1435628310902444,0.0,0.0
81.0,65.0,0.1,2.09468557838934,2.946572295141477,0.0,0.0
81.0,65.0,0.3,2.09468557838934,2.946572295141477,0.0,0.0
81.0,65.0,0.7,2.09468557838934,2.946572295141477,0.0,0.0
81.0,65.0,1.0,2.09468557838934,2.946572295141477,0.0,0.0
81.0,73.0,0.1,2.841979483030828,3.4805287902349273,0.0,0.0
81.0,73.0,0.3,2.841979483030828,3.4805287902349273,0.0,0.0
81.0,73.0,0.7,2.841979483030828,3.4805287902349273,0.0,0.0
81.0,73.0,1.0,2.841979483030828,3.4805287902349273,0.0,0.0
81.0,81.0,0.1,3.1881706356245134,4.576478278981188,0.0,0.0
81.0,81.0,0.3,3.1881706356245134,4.576478278981188,0.0,0.0
81.0,81.0,0.7,3.1881706356245134,4.576478278981188,0.0,0.0
81.0,81.0,1.0,3.1881706356245134,4.576478278981188,0.0,0.0
81.0,89.0,0.1,3.36796774776461,5.58128780557763,0.0,0.0
81.0,89.0,0.3,3.36796774776461,5.58128780557763,0.0,0.0
81.0,89.0,0.7,3.36796774776461,5.58128780557763,0.0,0.0
81.0,89.0,1.0,3.36796774776461,5.58128780557763,0.0,0.0
81.0,97.0,0.1,4.462127488171576,7.6109826253058275,0.0,0.0
81.0,97.0,0.3,4.462127488171576,7.6109826253058275,0.0,0.0
81.0,97.0,0.7,4.462127488171576,7.6109826253058275,0.0,0.0
81.0,97.0,1.0,4.462127488171576,7.6109826253058275,0.0,0.0
81.0,105.0,0.1,4.529352619443608,8.831637601833336,0.0,0.0
81.0,105.0,0.3,4.529352619443608,8.831637601833336,0.0,0.0
81.0,105.0,0.7,4.529352619443608,8.831637601833336,0.0,0.0
81.0,105.0,1.0,4.529352619443608,8.831637601833336,0.0,0.0
81.0,113.0,0.1,4.321898096205007,8.265956834995801,0.0,0.0
81.0,113.0,0.3,4.321898096205007,8.265956834995801,0.0,0.0
81.0,113.0,0.7,4.321898096205007,8.265956834995801,0.0,0.0
81.0,113.0,1.0,4.321898096205007,8.265956834995801,0.0,0.0
81.0,121.0,0.1,4.357140270983508,8.329388059069487,0.0,0.0
81.0,121.0,0.3,4.357140270983508,8.329388059069487,0.0,0.0
81.0,121.0,0.7,4.357140270983508,8.329388059069487,0.0,0.0
81.0,121.0,1.0,4.357140270983508,8.329388059069487,0.0,0.0
81.0,127.0,0.1,4.549728123183327,8.333722060668512,0.0,0.0
81.0,127.0,0.3,4.549728123183327,8.333722060668512,0.0,0.0
81.0,127.0,0.7,4.549728123183327,8.333722060668512,0.0,0.0
81.0,127.0,1.0,4.549728123183327,8.333722060668512,0.0,0.0
82.0,1.0,0.1,0.6401194919537377,-0.18879689704748104,0.0,0.0
82.0,1.0,0.3,0.6401194919537377,-0.18879689704748104,0.0,0.0
82.0,1.0,0.7,0.6401194919537377,-0.18879689704748104,0.0,0.0
82.0,1.0,1.0,0.6401194919537377,-0.18879689704748104,0.0,0.0
82.0,9.0,0.1,0.8889196355372446,-0.3235364624473106,0.0,0.0
82.0,9.0,0.3,0.8889196355372446,-0.3235364624473106,0.0,0.0
82.0,9.0,0.7,0.8889196355372446,-0.3235364624473106,0.0,0.0
82.0,9.0,1.0,0.8889196355372446,-0.3235364624473106,0.0,0.0
82.0,17.0,0.1,0.7135391570661582,0.23128763353272724,0.0,0.0
82.0,17.0,0.3,0.7135391570661582,0.23128763353272724,0.0,0.0
82.0,17.0,0.7,0.7135391570661582,0.23128763353272724,0.0,0.0
82.0,17.0,1.0,0.7135391570661582,0.23128763353272724,0.0,0.0
82.0,25.0,0.1,0.4338077465722877,0.7471760974833532,0.0,0.0
82.0,25.0,0.3,0.4338077465722877,0.7471760974833532,0.0,0.0
82.0,25.0,0.7,0.4338077465722877,0.7471760974833532,0.0,0.0
82.0,25.0,1.0,0.4338077465722877,0.7471760974833532,0.0,0.0
82.0,33.0,0.1,0.6816081266848895,1.0401944116628057,0.0,0.0
82.0,33.0,0.3,0.6816081266848895,1.0401944116628057,0.0,0.0
82.0,33.0,0.7,0.6816081266848895,1.0401944116628057,0.0,0.0
82.0,33.0,1.0,0.6816081266848895,1.0401944116628057,0.0,0.0
82.0,41.0,0.1,0.719161517083076,1.4602628301232228,0.0,0.0
82.0,41.0,0.3,0.719161517083076,1.4602628301232228,0.0,0.0
82.0,41.0,0.7,0.719161517083076,1.4602628301232228,0.0,0.0
82.0,41.0,1.0,0.719161517083076,1.4602628301232228,0.0,0.0
82.0,49.0,0.1,0.9363612954953812,1.7943265868511742,0.0,0.0
82.0,49.0,0.3,0.9363612954953812,1.7943265868511742,0.0,0.0
82.0,49.0,0.7,0.9363612954953812,1.7943265868511742,0.0,0.0
82.0,49.0,1.0,0.9363612954953812,1.7943265868511742,0.0,0.0
82.0,57.0,0.1,1.3445398462407923,2.369696340787356,0.0,0.0
82.0,57.0,0.3,1.3445398462407923,2.369696340787356,0.0,0.0
82.0,57.0,0.7,1.3445398462407923,2.369696340787356,0.0,0.0
82.0,57.0,1.0,1.3445398462407923,2.369696340787356,0.0,0.0
82.0,65.0,0.1,1.8073386104542613,2.932259555625681,0.0,0.0
82.0,65.0,0.3,1.8073386104542613,2.932259555625681,0.0,0.0
82.0,65.0,0.7,1.8073386104542613,2.932259555625681,0.0,0.0
82.0,65.0,1.0,1.8073386104542613,2.932259555625681,0.0,0.0
82.0,73.0,0.1,2.631229583123215,4.006010590351824,0.0,0.0
82.0,73.0,0.3,2.631229583123215,4.006010590351824,0.0,0.0
82.0,73.0,0.7,2.631229583123215,4.006010590351824,0.0,0.0
82.0,73.0,1.0,2.631229583123215,4.006010590351824,0.0,0.0
82.0,81.0,0.1,3.1633619856926036,4.954174345287516,0.0,0.0
82.0,81.0,0.3,3.1633619856926036,4.954174345287516,0.0,0.0
82.0,81.0,0.7,3.1633619856926036,4.954174345287516,0.0,0.0
82.0,81.0,1.0,3.1633619856926036,4.954174345287516,0.0,0.0
82.0,89.0,0.1,3.2855806153846694,5.421039611319719,0.0,0.0
82.0,89.0,0.3,3.2855806153846694,5.421039611319719,0.0,0.0
82.0,89.0,0.7,3.2855806153846694,5.421039611319719,0.0,0.0
82.0,89.0,1.0,3.2855806153846694,5.421039611319719,0.0,0.0
82.0,97.0,0.1,3.59498276048188,6.6148189904125765,0.0,0.0
82.0,97.0,0.3,3.59498276048188,6.6148189904125765,0.0,0.0
82.0,97.0,0.7,3.59498276048188,6.6148189904125765,0.0,0.0
82.0,97.0,1.0,3.59498276048188,6.6148189904125765,0.0,0.0
82.0,105.0,0.1,3.343588940411867,9.533083914040317,0.0,0.0
82.0,105.0,0.3,3.343588940411867,9.533083914040317,0.0,0.0
82.0,105.0,0.7,3.343588940411867,9.533083914040317,0.0,0.0
82.0,105.0,1.0,3.343588940411867,9.533083914040317,0.0,0.0
82.0,113.0,0.1,3.5432599416544135,9.489516091127678,0.0,0.0
82.0,113.0,0.3,3.5432599416544135,9.489516091127678,0.0,0.0
82.0,113.0,0.7,3.5432599416544135,9.489516091127678,0.0,0.0
82.0,113.0,1.0,3.5432599416544135,9.489516091127678,0.0,0.0
82.0,121.0,0.1,3.574300091616016,9.075764845010626,0.0,0.0
82.0,121.0,0.3,3.574300091616016,9.075764845010626,0.0,0.0
82.0,121.0,0.7,3.574300091616016,9.075764845010626,0.0,0.0
82.0,121.0,1.0,3.574300091616016,9.075764845010626,0.0,0.0
82.0,127.0,0.1,3.539957622343965,8.683109679755352,0.0,0.0
82.0,127.0,0.3,3.539957622343965,8.683109679755352,0.0,0.0
82.0,127.0,0.7,3.539957622343965,8.683109679755352,0.0,0.0
82.0,127.0,1.0,3.539957622343965,8.683109679755352,0.0,0.0
83.0,1.0,0.1,0.8621316378554836,-0.9642795336236418,0.0,0.0
83.0,1.0,0.3,0.8621316378554836,-0.9642795336236418,0.0,0.0
83.0,1.0,0.7,0.8621316378554836,-0.9642795336236418,0.0,0.0
83.0,1.0,1.0,0.8621316378554836,-0.9642795336236418,0.0,0.0
83.0,9.0,0.1,0.7070182085471467,-0.8945746905772303,0.0,0.0
83.0,9.0,0.3,0.7070182085471467,-0.8945746905772303,0.0,0.0
83.0,9.0,0.7,0.7070182085471467,-0.8945746905772303,0.0,0.0
83.0,9.0,1.0,0.7070182085471467,-0.8945746905772303,0.0,0.0
83.0,17.0,0.1,0.7407917656533852,-0.8241214607627805,0.0,0.0
83.0,17.0,0.3,0.7407917656533852,-0.8241214607627805,0.0,0.0
83.0,17.0,0.7,0.7407917656533852,-0.8241214607627805,0.0,0.0
83.0,17.0,1.0,0.7407917656533852,-0.8241214607627805,0.0,0.0
83.0,25.0,0.1,0.7138617198668032,0.14237265362320095,0.0,0.0
83.0,25.0,0.3,0.7138617198668032,0.14237265362320095,0.0,0.0
83.0,25.0,0.7,0.7138617198668032,0.14237265362320095,0.0,0.0
83.0,25.0,1.0,0.7138617198668032,0.14237265362320095,0.0,0.0
83.0,33.0,0.1,0.8393438206520927,0.3171383594026964,0.0,0.0
83.0,33.0,0.3,0.8393438206520927,0.3171383594026964,0.0,0.0
83.0,33.0,0.7,0.8393438206520927,0.3171383594026964,0.0,0.0
83.0,33.0,1.0,0.8393438206520927,0.3171383594026964,0.0,0.0
83.0,41.0,0.1,1.3020661499594477,0.7713117659539774,0.0,0.0
83.0,41.0,0.3,1.3020661499594477,0.7713117659539774,0.0,0.0
83.0,41.0,0.7,1.3020661499594477,0.7713117659539774,0.0,0.0
83.0,41.0,1.0,1.3020661499594477,0.7713117659539774,0.0,0.0
83.0,49.0,0.1,1.4504881265969618,0.7877846495364179,0.0,0.0
83.0,49.0,0.3,1.4504881265969618,0.7877846495364179,0.0,0.0
83.0,49.0,0.7,1.4504881265969618,0.7877846495364179,0.0,0.0
83.0,49.0,1.0,1.4504881265969618,0.7877846495364179,0.0,0.0
83.0,57.0,0.1,1.665885946471331,1.4607032033276977,0.0,0.0
83.0,57.0,0.3,1.665885946471331,1.4607032033276977,0.0,0.0
83.0,57.0,0.7,1.665885946471331,1.4607032033276977,0.0,0.0
83.0,57.0,1.0,1.665885946471331,1.4607032033276977,0.0,0.0
83.0,65.0,0.1,2.111361300922513,2.393149708160734,0.0,0.0
83.0,65.0,0.3,2.111361300922513,2.393149708160734,0.0,0.0
83.0,65.0,0.7,2.111361300922513,2.393149708160734,0.0,0.0
83.0,65.0,1.0,2.111361300922513,2.393149708160734,0.0,0.0
83.0,73.0,0.1,2.898066500434714,3.22756888711106,0.0,0.0
83.0,73.0,0.3,2.898066500434714,3.22756888711106,0.0,0.0
83.0,73.0,0.7,2.898066500434714,3.22756888711106,0.0,0.0
83.0,73.0,1.0,2.898066500434714,3.22756888711106,0.0,0.0
83.0,81.0,0.1,3.203465594212845,3.998029720632888,0.0,0.0
83.0,81.0,0.3,3.203465594212845,3.998029720632888,0.0,0.0
83.0,81.0,0.7,3.203465594212845,3.998029720632888,0.0,0.0
83.0,81.0,1.0,3.203465594212845,3.998029720632888,0.0,0.0
83.0,89.0,0.1,3.320308017015266,5.100437150715162,0.0,0.0
83.0,89.0,0.3,3.320308017015266,5.100437150715162,0.0,0.0
83.0,89.0,0.7,3.320308017015266,5.100437150715162,0.0,0.0
83.0,89.0,1.0,3.320308017015266,5.100437150715162,0.0,0.0
83.0,97.0,0.1,3.4689264884252617,5.69551595868749,0.0,0.0
83.0,97.0,0.3,3.4689264884252617,5.69551595868749,0.0,0.0
83.0,97.0,0.7,3.4689264884252617,5.69551595868749,0.0,0.0
83.0,97.0,1.0,3.4689264884252617,5.69551595868749,0.0,0.0
83.0,105.0,0.1,4.531822670904802,7.392456289045206,0.0,0.0
83.0,105.0,0.3,4.531822670904802,7.392456289045206,0.0,0.0
83.0,105.0,0.7,4.531822670904802,7.392456289045206,0.0,0.0
83.0,105.0,1.0,4.531822670904802,7.392456289045206,0.0,0.0
83.0,113.0,0.1,3.50175443249926,7.572898284912547,0.0,0.0
83.0,113.0,0.3,3.50175443249926,7.572898284912547,0.0,0.0
83.0,113.0,0.7,3.50175443249926,7.572898284912547,0.0,0.0
83.0,113.0,1.0,3.50175443249926,7.572898284912547,0.0,0.0
83.0,121.0,0.1,3.510810298165878,6.994154348269106,0.0,0.0
83.0,121.0,0.3,3.510810298165878,6.994154348269106,0.0,0.0
83.0,121.0,0.7,3.510810298165878,6.994154348269106,0.0,0.0
83.0,121.0,1.0,3.510810298165878,6.994154348269106,0.0,0.0
83.0,127.0,0.1,3.5029796281762566,7.103028888949632,0.0,0.0
83.0,127.0,0.3,3.5029796281762566,7.103028888949632,0.0,0.0
83.0,127.0,0.7,3.5029796281762566,7.103028888949632,0.0,0.0
83.0,127.0,1.0,3.5029796281762566,7.103028888949632,0.0,0.0
84.0,1.0,0.1,0.9558931632418783,-1.0755776784355473,0.0,0.0
84.0,1.0,0.3,0.9558931632418783,-1.0755776784355473,0.0,0.0
84.0,1.0,0.7,0.9558931632418783,-1.0755776784355473,0.0,0.0
84.0,1.0,1.0,0.9558931632418783,-1.0755776784355473,0.0,0.0
84.0,9.0,0.1,1.1535805014220004,-0.8567822214239453,0.0,0.0
84.0,9.0,0.3,1.1535805014220004,-0.8567822214239453,0.0,0.0
84.0,9.0,0.7,1.1535805014220004,-0.8567822214239453,0.0,0.0
84.0,9.0,1.0,1.1535805014220004,-0.8567822214239453,0.0,0.0
84.0,17.0,0.1,0.7669143513354271,-0.8104248243807184,0.0,0.0
84.0,17.0,0.3,0.7669143513354271,-0.8104248243807184,0.0,0.0
84.0,17.0,0.7,0.7669143513354271,-0.8104248243807184,0.0,0.0
84.0,17.0,1.0,0.7669143513354271,-0.8104248243807184,0.0,0.0
84.0,25.0,0.1,0.7893916821843632,0.39516712181130853,0.0,0.0
84.0,25.0,0.3,0.7893916821843632,0.39516712181130853,0.0,0.0
84.0,25.0,0.7,0.7893916821843632,0.39516712181130853,0.0,0.0
84.0,25.0,1.0,0.7893916821843632,0.39516712181130853,0.0,0.0
84.0,33.0,0.1,0.41211970646591445,0.6553876946453795,0.0,0.0
84.0,33.0,0.3,0.41211970646591445,0.6553876946453795,0.0,0.0
84.0,33.0,0.7,0.41211970646591445,0.6553876946453795,0.0,0.0
84.0,33.0,1.0,0.41211970646591445,0.6553876946453795,0.0,0.0
84.0,41.0,0.1,0.7712172661212019,0.873629078218066,0.0,0.0
84.0,41.0,0.3,0.7712172661212019,0.873629078218066,0.0,0.0
84.0,41.0,0.7,0.7712172661212019,0.873629078218066,0.0,0.0
84.0,41.0,1.0,0.7712172661212019,0.873629078218066,0.0,0.0
84.0,49.0,0.1,0.902593774056835,1.2245750947314877,0.0,0.0
84.0,49.0,0.3,0.902593774056835,1.2245750947314877,0.0,0.0
84.0,49.0,0.7,0.902593774056835,1.2245750947314877,0.0,0.0
84.0,49.0,1.0,0.902593774056835,1.2245750947314877,0.0,0.0
84.0,57.0,0.1,1.2346640139655771,2.1039280520831487,0.0,0.0
84.0,57.0,0.3,1.2346640139655771,2.1039280520831487,0.0,0.0
84.0,57.0,0.7,1.2346640139655771,2.1039280520831487,0.0,0.0
84.0,57.0,1.0,1.2346640139655771,2.1039280520831487,0.0,0.0
84.0,65.0,0.1,1.4994478488028122,2.397969526823596,0.0,0.0
84.0,65.0,0.3,1.4994478488028122,2.397969526823596,0.0,0.0
84.0,65.0,0.7,1.4994478488028122,2.397969526823596,0.0,0.0
84.0,65.0,1.0,1.4994478488028122,2.397969526823596,0.0,0.0
84.0,73.0,0.1,2.538970272603731,3.412135281613642,0.0,0.0
84.0,73.0,0.3,2.538970272603731,3.412135281613642,0.0,0.0
84.0,73.0,0.7,2.538970272603731,3.412135281613642,0.0,0.0
84.0,73.0,1.0,2.538970272603731,3.412135281613642,0.0,0.0
84.0,81.0,0.1,3.186945393923215,4.603774904600489,0.0,0.0
84.0,81.0,0.3,3.186945393923215,4.603774904600489,0.0,0.0
84.0,81.0,0.7,3.186945393923215,4.603774904600489,0.0,0.0
84.0,81.0,1.0,3.186945393923215,4.603774904600489,0.0,0.0
84.0,89.0,0.1,3.279560683511915,5.166844914182194,0.0,0.0
84.0,89.0,0.3,3.279560683511915,5.166844914182194,0.0,0.0
84.0,89.0,0.7,3.279560683511915,5.166844914182194,0.0,0.0
84.0,89.0,1.0,3.279560683511915,5.166844914182194,0.0,0.0
84.0,97.0,0.1,3.368731716241422,7.279394016462024,0.0,0.0
84.0,97.0,0.3,3.368731716241422,7.279394016462024,0.0,0.0
84.0,97.0,0.7,3.368731716241422,7.279394016462024,0.0,0.0
84.0,97.0,1.0,3.368731716241422,7.279394016462024,0.0,0.0
84.0,105.0,0.1,3.375292636249173,8.96983876626777,0.0,0.0
84.0,105.0,0.3,3.375292636249173,8.96983876626777,0.0,0.0
84.0,105.0,0.7,3.375292636249173,8.96983876626777,0.0,0.0
84.0,105.0,1.0,3.375292636249173,8.96983876626777,0.0,0.0
84.0,113.0,0.1,3.3434371096774362,8.397852489110797,0.0,0.0
84.0,113.0,0.3,3.3434371096774362,8.397852489110797,0.0,0.0
84.0,113.0,0.7,3.3434371096774362,8.397852489110797,0.0,0.0
84.0,113.0,1.0,3.3434371096774362,8.397852489110797,0.0,0.0
84.0,121.0,0.1,3.379615847179864,8.896235922861441,0.0,0.0
84.0,121.0,0.3,3.379615847179864,8.896235922861441,0.0,0.0
84.0,121.0,0.7,3.379615847179864,8.896235922861441,0.0,0.0
84.0,121.0,1.0,3.379615847179864,8.896235922861441,0.0,0.0
84.0,127.0,0.1,3.3481282062997755,8.824289987173879,0.0,0.0
84.0,127.0,0.3,3.3481282062997755,8.824289987173879,0.0,0.0
84.0,127.0,0.7,3.3481282062997755,8.824289987173879,0.0,0.0
84.0,127.0,1.0,3.3481282062997755,8.824289987173879,0.0,0.0
85.0,1.0,0.1,0.7846930140926667,-2.3927091773664033,0.0,0.0
85.0,1.0,0.3,0.7846930140926667,-2.3927091773664033,0.0,0.0
85.0,1.0,0.7,0.7846930140926667,-2.3927091773664033,0.0,0.0
85.0,1.0,1.0,0.7846930140926667,-2.3927091773664033,0.0,0.0
85.0,9.0,0.1,0.7083518382716754,-2.4560443772380802,0.0,0.0
85.0,9.0,0.3,0.7083518382716754,-2.4560443772380802,0.0,0.0
85.0,9.0,0.7,0.7083518382716754,-2.4560443772380802,0.0,0.0
85.0,9.0,1.0,0.7083518382716754,-2.4560443772380802,0.0,0.0
85.0,17.0,0.1,1.5841153398973826,-2.6992646747283184,0.0,0.0
85.0,17.0,0.3,1.5841153398973826,-2.6992646747283184,0.0,0.0
85.0,17.0,0.7,1.5841153398973826,-2.6992646747283184,0.0,0.0
85.0,17.0,1.0,1.5841153398973826,-2.6992646747283184,0.0,0.0
85.0,25.0,0.1,1.412458282097215,-1.4489777128466617,0.0,0.0
85.0,25.0,0.3,1.412458282097215,-1.4489777128466617,0.0,0.0
85.0,25.0,0.7,1.412458282097215,-1.4489777128466617,0.0,0.0
85.0,25.0,1.0,1.412458282097215,-1.4489777128466617,0.0,0.0
85.0,33.0,0.1,0.8530160889108819,0.16766765753654436,0.0,0.0
85.0,33.0,0.3,0.8530160889108819,0.16766765753654436,0.0,0.0
85.0,33.0,0.7,0.8530160889108819,0.16766765753654436,0.0,0.0
85.0,33.0,1.0,0.8530160889108819,0.16766765753654436,0.0,0.0
85.0,41.0,0.1,0.9827182584011956,0.6404697430812472,0.0,0.0
85.0,41.0,0.3,0.9827182584011956,0.6404697430812472,0.0,0.0
85.0,41.0,0.7,0.9827182584011956,0.6404697430812472,0.0,0.0
85.0,41.0,1.0,0.9827182584011956,0.6404697430812472,0.0,0.0
85.0,49.0,0.1,1.5131809895361157,0.7475539257974325,0.0,0.0
85.0,49.0,0.3,1.5131809895361157,0.7475539257974325,0.0,0.0
85.0,49.0,0.7,1.5131809895361157,0.7475539257974325,0.0,0.0
85.0,49.0,1.0,1.5131809895361157,0.7475539257974325,0.0,0.0
85.0,57.0,0.1,1.6790167518566108,1.7040437424917814,0.0,0.0
85.0,57.0,0.3,1.6790167518566108,1.7040437424917814,0.0,0.0
85.0,57.0,0.7,1.6790167518566108,1.7040437424917814,0.0,0.0
85.0,57.0,1.0,1.6790167518566108,1.7040437424917814,0.0,0.0
85.0,65.0,0.1,2.653638325553735,1.7750192840247891,0.0,0.0
85.0,65.0,0.3,2.653638325553735,1.7750192840247891,0.0,0.0
85.0,65.0,0.7,2.653638325553735,1.7750192840247891,0.0,0.0
85.0,65.0,1.0,2.653638325553735,1.7750192840247891,0.0,0.0
85.0,73.0,0.1,3.140048885831428,2.428434593172457,0.0,0.0
85.0,73.0,0.3,3.140048885831428,2.428434593172457,0.0,0.0
85.0,73.0,0.7,3.140048885831428,2.428434593172457,0.0,0.0
85.0,73.0,1.0,3.140048885831428,2.428434593172457,0.0,0.0
85.0,81.0,0.1,3.3364693751642136,3.1268441659976776,0.0,0.0
85.0,81.0,0.3,3.3364693751642136,3.1268441659976776,0.0,0.0
85.0,81.0,0.7,3.3364693751642136,3.1268441659976776,0.0,0.0
85.0,81.0,1.0,3.3364693751642136,3.1268441659976776,0.0,0.0
85.0,89.0,0.1,3.507155451790203,3.7233074661814394,0.0,0.0
85.0,89.0,0.3,3.507155451790203,3.7233074661814394,0.0,0.0
85.0,89.0,0.7,3.507155451790203,3.7233074661814394,0.0,0.0
85.0,89.0,1.0,3.507155451790203,3.7233074661814394,0.0,0.0
85.0,97.0,0.1,4.25040995314641,4.698188555960788,0.0,0.0
85.0,97.0,0.3,4.25040995314641,4.698188555960788,0.0,0.0
85.0,97.0,0.7,4.25040995314641,4.698188555960788,0.0,0.0
85.0,97.0,1.0,4.25040995314641,4.698188555960788,0.0,0.0
85.0,105.0,0.1,4.637132144418217,5.560948649156537,0.0,0.0
85.0,105.0,0.3,4.637132144418217,5.560948649156537,0.0,0.0
85.0,105.0,0.7,4.637132144418217,5.560948649156537,0.0,0.0
85.0,105.0,1.0,4.637132144418217,5.560948649156537,0.0,0.0
85.0,113.0,0.1,4.382663513292979,6.563958445131047,0.0,0.0
85.0,113.0,0.3,4.382663513292979,6.563958445131047,0.0,0.0
85.0,113.0,0.7,4.382663513292979,6.563958445131047,0.0,0.0
85.0,113.0,1.0,4.382663513292979,6.563958445131047,0.0,0.0
85.0,121.0,0.1,4.619002039880505,6.021521506466329,0.0,0.0
85.0,121.0,0.3,4.619002039880505,6.021521506466329,0.0,0.0
85.0,121.0,0.7,4.619002039880505,6.021521506466329,0.0,0.0
85.0,121.0,1.0,4.619002039880505,6.021521506466329,0.0,0.0
85.0,127.0,0.1,4.487704031705805,6.089187801246329,0.0,0.0
85.0,127.0,0.3,4.487704031705805,6.089187801246329,0.0,0.0
85.0,127.0,0.7,4.487704031705805,6.089187801246329,0.0,0.0
85.0,127.0,1.0,4.487704031705805,6.089187801246329,0.0,0.0
86.0,1.0,0.1,1.6967695484596206,-2.1665765524449796,0.0,0.0
86.0,1.0,0.3,1.6967695484596206,-2.1665765524449796,0.0,0.0
86.0,1.0,0.7,1.6967695484596206,-2.1665765524449796,0.0,0.0
86.0,1.0,1.0,1.6967695484596206,-2.1665765524449796,0.0,0.0
86.0,9.0,0.1,2.560673141250701,-1.7042222396825857,0.0,0.0
86.0,9.0,0.3,2.560673141250701,-1.7042222396825857,0.0,0.0
86.0,9.0,0.7,2.560673141250701,-1.7042222396825857,0.0,0.0
86.0,9.0,1.0,2.560673141250701,-1.7042222396825857,0.0,0.0
86.0,17.0,0.1,2.6997774080668107,-1.1566464820568236,0.0,0.0
86.0,17.0,0.3,2.6997774080668107,-1.1566464820568236,0.0,0.0
86.0,17.0,0.7,2.6997774080668107,-1.1566464820568236,0.0,0.0
86.0,17.0,1.0,2.6997774080668107,-1.1566464820568236,0.0,0.0
86.0,25.0,0.1,1.6627863916944043,-0.15709138500917624,0.0,0.0
86.0,25.0,0.3,1.6627863916944043,-0.15709138500917624,0.0,0.0
86.0,25.0,0.7,1.6627863916944043,-0.15709138500917624,0.0,0.0
86.0,25.0,1.0,1.6627863916944043,-0.15709138500917624,0.0,0.0
86.0,33.0,0.1,1.6544193957504483,0.5722056427255273,0.0,0.0
86.0,33.0,0.3,1.6544193957504483,0.5722056427255273,0.0,0.0
86.0,33.0,0.7,1.6544193957504483,0.5722056427255273,0.0,0.0
86.0,33.0,1.0,1.6544193957504483,0.5722056427255273,0.0,0.0
86.0,41.0,0.1,2.095067796662976,1.0250884875847135,0.0,0.0
86.0,41.0,0.3,2.095067796662976,1.0250884875847135,0.0,0.0
86.0,41.0,0.7,2.095067796662976,1.0250884875847135,0.0,0.0
86.0,41.0,1.0,2.095067796662976,1.0250884875847135,0.0,0.0
86.0,49.0,0.1,2.768199764421808,1.1839675752368881,0.0,0.0
86.0,49.0,0.3,2.768199764421808,1.1839675752368881,0.0,0.0
86.0,49.0,0.7,2.768199764421808,1.1839675752368881,0.0,0.0
86.0,49.0,1.0,2.768199764421808,1.1839675752368881,0.0,0.0
86.0,57.0,0.1,3.0001989656022134,1.9998820453612125,0.0,0.0
86.0,57.0,0.3,3.0001989656022134,1.9998820453612125,0.0,0.0
86.0,57.0,0.7,3.0001989656022134,1.9998820453612125,0.0,0.0
86.0,57.0,1.0,3.0001989656022134,1.9998820453612125,0.0,0.0
86.0,65.0,0.1,3.1985455703291295,2.355584087800841,0.0,0.0
86.0,65.0,0.3,3.1985455703291295,2.355584087800841,0.0,0.0
86.0,65.0,0.7,3.1985455703291295,2.355584087800841,0.0,0.0
86.0,65.0,1.0,3.1985455703291295,2.355584087800841,0.0,0.0
86.0,73.0,0.1,3.365563197642605,3.167460935799301,0.0,0.0
86.0,73.0,0.3,3.365563197642605,3.167460935799301,0.0,0.0
86.0,73.0,0.7,3.365563197642605,3.167460935799301,0.0,0.0
86.0,73.0,1.0,3.365563197642605,3.167460935799301,0.0,0.0
86.0,81.0,0.1,4.410343550824054,3.7183004755436597,0.0,0.0
86.0,81.0,0.3,4.410343550824054,3.7183004755436597,0.0,0.0
86.0,81.0,0.7,4.410343550824054,3.7183004755436597,0.0,0.0
86.0,81.0,1.0,4.410343550824054,3.7183004755436597,0.0,0.0
86.0,89.0,0.1,3.2104784407416846,4.534901454833416,0.0,0.0
86.0,89.0,0.3,3.2104784407416846,4.534901454833416,0.0,0.0
86.0,89.0,0.7,3.2104784407416846,4.534901454833416,0.0,0.0
86.0,89.0,1.0,3.2104784407416846,4.534901454833416,0.0,0.0
86.0,97.0,0.1,3.585684482359667,6.0766686899288755,0.0,0.0
86.0,97.0,0.3,3.585684482359667,6.0766686899288755,0.0,0.0
86.0,97.0,0.7,3.585684482359667,6.0766686899288755,0.0,0.0
86.0,97.0,1.0,3.585684482359667,6.0766686899288755,0.0,0.0
86.0,105.0,0.1,3.2328101466020858,7.5335184083070015,0.0,0.0
86.0,105.0,0.3,3.2328101466020858,7.5335184083070015,0.0,0.0
86.0,105.0,0.7,3.2328101466020858,7.5335184083070015,0.0,0.0
86.0,105.0,1.0,3.2328101466020858,7.5335184083070015,0.0,0.0
86.0,113.0,0.1,3.2854377851591807,6.850763106445249,0.0,0.0
86.0,113.0,0.3,3.2854377851591807,6.850763106445249,0.0,0.0
86.0,113.0,0.7,3.2854377851591807,6.850763106445249,0.0,0.0
86.0,113.0,1.0,3.2854377851591807,6.850763106445249,0.0,0.0
86.0,121.0,0.1,3.240327224477537,7.1849284568893115,0.0,0.0
86.0,121.0,0.3,3.240327224477537,7.1849284568893115,0.0,0.0
86.0,121.0,0.7,3.240327224477537,7.1849284568893115,0.0,0.0
86.0,121.0,1.0,3.240327224477537,7.1849284568893115,0.0,0.0
86.0,127.0,0.1,3.4963704630315653,7.146119970961994,0.0,0.0
86.0,127.0,0.3,3.4963704630315653,7.146119970961994,0.0,0.0
86.0,127.0,0.7,3.4963704630315653,7.146119970961994,0.0,0.0
86.0,127.0,1.0,3.4963704630315653,7.146119970961994,0.0,0.0
87.0,1.0,0.1,1.5949691396333816,-1.8141505891997929,0.0,0.0
87.0,1.0,0.3,1.5949691396333816,-1.8141505891997929,0.0,0.0
87.0,1.0,0.7,1.5949691396333816,-1.8141505891997929,0.0,0.0
87.0,1.0,1.0,1.5949691396333816,-1.8141505891997929,0.0,0.0
87.0,9.0,0.1,1.4479409196618511,-2.033019686858336,0.0,0.0
87.0,9.0,0.3,1.4479409196618511,-2.033019686858336,0.0,0.0
87.0,9.0,0.7,1.4479409196618511,-2.033019686858336,0.0,0.0
87.0,9.0,1.0,1.4479409196618511,-2.033019686858336,0.0,0.0
87.0,17.0,0.1,1.4752244053459853,-1.9256278609426738,0.0,0.0
87.0,17.0,0.3,1.4752244053459853,-1.9256278609426738,0.0,0.0
87.0,17.0,0.7,1.4752244053459853,-1.9256278609426738,0.0,0.0
87.0,17.0,1.0,1.4752244053459853,-1.9256278609426738,0.0,0.0
87.0,25.0,0.1,1.411643105200508,-0.8383751653408971,0.0,0.0
87.0,25.0,0.3,1.411643105200508,-0.8383751653408971,0.0,0.0
87.0,25.0,0.7,1.411643105200508,-0.8383751653408971,0.0,0.0
87.0,25.0,1.0,1.411643105200508,-0.8383751653408971,0.0,0.0
87.0,33.0,0.1,1.5038915692470014,0.533863652895833,0.0,0.0
87.0,33.0,0.3,1.5038915692470014,0.533863652895833,0.0,0.0
87.0,33.0,0.7,1.5038915692470014,0.533863652895833,0.0,0.0
87.0,33.0,1.0,1.5038915692470014,0.533863652895833,0.0,0.0
87.0,41.0,0.1,1.6949418582476543,0.7813214627962094,0.0,0.0
87.0,41.0,0.3,1.6949418582476543,0.7813214627962094,0.0,0.0
87.0,41.0,0.7,1.6949418582476543,0.7813214627962094,0.0,0.0
87.0,41.0,1.0,1.6949418582476543,0.7813214627962094,0.0,0.0
87.0,49.0,0.1,2.5205451195204143,1.2132751491280536,0.0,0.0
87.0,49.0,0.3,2.5205451195204143,1.2132751491280536,0.0,0.0
87.0,49.0,0.7,2.5205451195204143,1.2132751491280536,0.0,0.0
87.0,49.0,1.0,2.5205451195204143,1.2132751491280536,0.0,0.0
87.0,57.0,0.1,2.8530994972426287,1.8349317405948469,0.0,0.0
87.0,57.0,0.3,2.8530994972426287,1.8349317405948469,0.0,0.0
87.0,57.0,0.7,2.8530994972426287,1.8349317405948469,0.0,0.0
87.0,57.0,1.0,2.8530994972426287,1.8349317405948469,0.0,0.0
87.0,65.0,0.1,3.1663640473660433,2.502409945345772,0.0,0.0
87.0,65.0,0.3,3.1663640473660433,2.502409945345772,0.0,0.0
87.0,65.0,0.7,3.1663640473660433,2.502409945345772,0.0,0.0
87.0,65.0,1.0,3.1663640473660433,2.502409945345772,0.0,0.0
87.0,73.0,0.1,3.501189471340519,3.1047046048388154,0.0,0.0
87.0,73.0,0.3,3.501189471340519,3.1047046048388154,0.0,0.0
87.0,73.0,0.7,3.501189471340519,3.1047046048388154,0.0,0.0
87.0,73.0,1.0,3.501189471340519,3.1047046048388154,0.0,0.0
87.0,81.0,0.1,5.430929756428843,3.5933901439518343,0.0,0.0
87.0,81.0,0.3,5.430929756428843,3.5933901439518343,0.0,0.0
87.0,81.0,0.7,5.430929756428843,3.5933901439518343,0.0,0.0
87.0,81.0,1.0,5.430929756428843,3.5933901439518343,0.0,0.0
87.0,89.0,0.1,3.2524123242268606,4.224134214526044,0.0,0.0
87.0,89.0,0.3,3.2524123242268606,4.224134214526044,0.0,0.0
87.0,89.0,0.7,3.2524123242268606,4.224134214526044,0.0,0.0
87.0,89.0,1.0,3.2524123242268606,4.224134214526044,0.0,0.0
87.0,97.0,0.1,3.342052221809426,5.248694696457445,0.0,0.0
87.0,97.0,0.3,3.342052221809426,5.248694696457445,0.0,0.0
87.0,97.0,0.7,3.342052221809426,5.248694696457445,0.0,0.0
87.0,97.0,1.0,3.342052221809426,5.248694696457445,0.0,0.0
87.0,105.0,0.1,3.457546414511925,5.646531802381558,0.0,0.0
87.0,105.0,0.3,3.457546414511925,5.646531802381558,0.0,0.0
87.0,105.0,0.7,3.457546414511925,5.646531802381558,0.0,0.0
87.0,105.0,1.0,3.457546414511925,5.646531802381558,0.0,0.0
87.0,113.0,0.1,3.444818015287381,6.3797214044486825,0.0,0.0
87.0,113.0,0.3,3.444818015287381,6.3797214044486825,0.0,0.0
87.0,113.0,0.7,3.444818015287381,6.3797214044486825,0.0,0.0
87.0,113.0,1.0,3.444818015287381,6.3797214044486825,0.0,0.0
87.0,121.0,0.1,3.313955041336312,6.814762362220685,0.0,0.0
87.0,121.0,0.3,3.313955041336312,6.814762362220685,0.0,0.0
87.0,121.0,0.7,3.313955041336312,6.814762362220685,0.0,0.0
87.0,121.0,1.0,3.313955041336312,6.814762362220685,0.0,0.0
87.0,127.0,0.1,3.294057261489116,6.902479657870463,0.0,0.0
87.0,127.0,0.3,3.294057261489116,6.902479657870463,0.0,0.0
87.0,127.0,0.7,3.294057261489116,6.902479657870463,0.0,0.0
87.0,127.0,1.0,3.294057261489116,6.902479657870463,0.0,0.0
88.0,1.0,0.1,1.6730111023326206,-1.7369700275017252,0.0,0.0
88.0,1.0,0.3,1.6730111023326206,-1.7369700275017252,0.0,0.0
88.0,1.0,0.7,1.6730111023326206,-1.7369700275017252,0.0,0.0
88.0,1.0,1.0,1.6730111023326206,-1.7369700275017252,0.0,0.0
88.0,9.0,0.1,1.452097047917468,-1.5526273813628173,0.0,0.0
88.0,9.0,0.3,1.452097047917468,-1.5526273813628173,0.0,0.0
88.0,9.0,0.7,1.452097047917468,-1.5526273813628173,0.0,0.0
88.0,9.0,1.0,1.452097047917468,-1.5526273813628173,0.0,0.0
88.0,17.0,0.1,1.4168452057609273,-1.68765063348925,0.0,0.0
88.0,17.0,0.3,1.4168452057609273,-1.68765063348925,0.0,0.0
88.0,17.0,0.7,1.4168452057609273,-1.68765063348925,0.0,0.0
88.0,17.0,1.0,1.4168452057609273,-1.68765063348925,0.0,0.0
88.0,25.0,0.1,1.397877052355748,-0.3323108558423608,0.0,0.0
88.0,25.0,0.3,1.397877052355748,-0.3323108558423608,0.0,0.0
88.0,25.0,0.7,1.397877052355748,-0.3323108558423608,0.0,0.0
88.0,25.0,1.0,1.397877052355748,-0.3323108558423608,0.0,0.0
88.0,33.0,0.1,1.3176034824011555,0.6964294346475732,0.0,0.0
88.0,33.0,0.3,1.3176034824011555,0.6964294346475732,0.0,0.0
88.0,33.0,0.7,1.3176034824011555,0.6964294346475732,0.0,0.0
88.0,33.0,1.0,1.3176034824011555,0.6964294346475732,0.0,0.0
88.0,41.0,0.1,1.4572763544190475,0.8858605845751603,0.0,0.0
88.0,41.0,0.3,1.4572763544190475,0.8858605845751603,0.0,0.0
88.0,41.0,0.7,1.4572763544190475,0.8858605845751603,0.0,0.0
88.0,41.0,1.0,1.4572763544190475,0.8858605845751603,0.0,0.0
88.0,49.0,0.1,1.5579710306561716,1.3107800471044455,0.0,0.0
88.0,49.0,0.3,1.5579710306561716,1.3107800471044455,0.0,0.0
88.0,49.0,0.7,1.5579710306561716,1.3107800471044455,0.0,0.0
88.0,49.0,1.0,1.5579710306561716,1.3107800471044455,0.0,0.0
88.0,57.0,0.1,1.9758691152335435,2.2002481190355905,0.0,0.0
88.0,57.0,0.3,1.9758691152335435,2.2002481190355905,0.0,0.0
88.0,57.0,0.7,1.9758691152335435,2.2002481190355905,0.0,0.0
88.0,57.0,1.0,1.9758691152335435,2.2002481190355905,0.0,0.0
88.0,65.0,0.1,2.9066267955123566,2.3710211962167684,0.0,0.0
88.0,65.0,0.3,2.9066267955123566,2.3710211962167684,0.0,0.0
88.0,65.0,0.7,2.9066267955123566,2.3710211962167684,0.0,0.0
88.0,65.0,1.0,2.9066267955123566,2.3710211962167684,0.0,0.0
88.0,73.0,0.1,3.2062318667189356,2.9992865907297217,0.0,0.0
88.0,73.0,0.3,3.2062318667189356,2.9992865907297217,0.0,0.0
88.0,73.0,0.7,3.2062318667189356,2.9992865907297217,0.0,0.0
88.0,73.0,1.0,3.2062318667189356,2.9992865907297217,0.0,0.0
88.0,81.0,0.1,3.2532607322405203,3.4689626615691433,0.0,0.0
88.0,81.0,0.3,3.2532607322405203,3.4689626615691433,0.0,0.0
88.0,81.0,0.7,3.2532607322405203,3.4689626615691433,0.0,0.0
88.0,81.0,1.0,3.2532607322405203,3.4689626615691433,0.0,0.0
88.0,89.0,0.1,3.1982518362569725,3.968797592965119,0.0,0.0
88.0,89.0,0.3,3.1982518362569725,3.968797592965119,0.0,0.0
88.0,89.0,0.7,3.1982518362569725,3.968797592965119,0.0,0.0
88.0,89.0,1.0,3.1982518362569725,3.968797592965119,0.0,0.0
88.0,97.0,0.1,3.2641495149786843,5.582888831318179,0.0,0.0
88.0,97.0,0.3,3.2641495149786843,5.582888831318179,0.0,0.0
88.0,97.0,0.7,3.2641495149786843,5.582888831318179,0.0,0.0
88.0,97.0,1.0,3.2641495149786843,5.582888831318179,0.0,0.0
88.0,105.0,0.1,3.2089796164275484,7.140661829720127,0.0,0.0
88.0,105.0,0.3,3.2089796164275484,7.140661829720127,0.0,0.0
88.0,105.0,0.7,3.2089796164275484,7.140661829720127,0.0,0.0
88.0,105.0,1.0,3.2089796164275484,7.140661829720127,0.0,0.0
88.0,113.0,0.1,3.541966475388886,7.516369338770613,0.0,0.0
88.0,113.0,0.3,3.541966475388886,7.516369338770613,0.0,0.0
88.0,113.0,0.7,3.541966475388886,7.516369338770613,0.0,0.0
88.0,113.0,1.0,3.541966475388886,7.516369338770613,0.0,0.0
88.0,121.0,0.1,3.2510309117416907,7.722862300865948,0.0,0.0
88.0,121.0,0.3,3.2510309117416907,7.722862300865948,0.0,0.0
88.0,121.0,0.7,3.2510309117416907,7.722862300865948,0.0,0.0
88.0,121.0,1.0,3.2510309117416907,7.722862300865948,0.0,0.0
88.0,127.0,0.1,3.2653803167333195,7.289189734929021,0.0,0.0
88.0,127.0,0.3,3.2653803167333195,7.289189734929021,0.0,0.0
88.0,127.0,0.7,3.2653803167333195,7.289189734929021,0.0,0.0
88.0,127.0,1.0,3.2653803167333195,7.289189734929021,0.0,0.0
89.0,1.0,0.1,1.5778529816162628,-0.2127088700272669,0.0,0.0
89.0,1.0,0.3,1.5778529816162628,-0.2127088700272669,0.0,0.0
89.0,1.0,0.7,1.5778529816162628,-0.2127088700272669,0.0,0.0
89.0,1.0,1.0,1.5778529816162628,-0.2127088700272669,0.0,0.0
89.0,9.0,0.1,1.4190972623836535,-0.4176312701533668,0.0,0.0
89.0,9.0,0.3,1.4190972623836535,-0.4176312701533668,0.0,0.0
89.0,9.0,0.7,1.4190972623836535,-0.4176312701533668,0.0,0.0
89.0,9.0,1.0,1.4190972623836535,-0.4176312701533668,0.0,0.0
89.0,17.0,0.1,1.268674892842157,-0.5237834687705087,0.0,0.0
89.0,17.0,0.3,1.268674892842157,-0.5237834687705087,0.0,0.0
89.0,17.0,0.7,1.268674892842157,-0.5237834687705087,0.0,0.0
89.0,17.0,1.0,1.268674892842157,-0.5237834687705087,0.0,0.0
89.0,25.0,0.1,1.6394266170286478,0.657286831350639,0.0,0.0
89.0,25.0,0.3,1.6394266170286478,0.657286831350639,0.0,0.0
89.0,25.0,0.7,1.6394266170286478,0.657286831350639,0.0,0.0
89.0,25.0,1.0,1.6394266170286478,0.657286831350639,0.0,0.0
89.0,33.0,0.1,1.6598507536347828,0.876385881606751,0.0,0.0
89.0,33.0,0.3,1.6598507536347828,0.876385881606751,0.0,0.0
89.0,33.0,0.7,1.6598507536347828,0.876385881606751,0.0,0.0
89.0,33.0,1.0,1.6598507536347828,0.876385881606751,0.0,0.0
89.0,41.0,0.1,1.7941814346076523,1.351159893668706,0.0,0.0
89.0,41.0,0.3,1.7941814346076523,1.351159893668706,0.0,0.0
89.0,41.0,0.7,1.7941814346076523,1.351159893668706,0.0,0.0
89.0,41.0,1.0,1.7941814346076523,1.351159893668706,0.0,0.0
89.0,49.0,0.1,2.781889148942384,2.020624851983919,0.0,0.0
89.0,49.0,0.3,2.781889148942384,2.020624851983919,0.0,0.0
89.0,49.0,0.7,2.781889148942384,2.020624851983919,0.0,0.0
89.0,49.0,1.0,2.781889148942384,2.020624851983919,0.0,0.0
89.0,57.0,0.1,2.316327041532211,2.551987069069494,0.0,0.0
89.0,57.0,0.3,2.316327041532211,2.551987069069494,0.0,0.0
89.0,57.0,0.7,2.316327041532211,2.551987069069494,0.0,0.0
89.0,57.0,1.0,2.316327041532211,2.551987069069494,0.0,0.0
89.0,65.0,0.1,3.0334857402658413,3.148685904118008,0.0,0.0
89.0,65.0,0.3,3.0334857402658413,3.148685904118008,0.0,0.0
89.0,65.0,0.7,3.0334857402658413,3.148685904118008,0.0,0.0
89.0,65.0,1.0,3.0334857402658413,3.148685904118008,0.0,0.0
89.0,73.0,0.1,3.385965077703694,3.54179439560989,0.0,0.0
89.0,73.0,0.3,3.385965077703694,3.54179439560989,0.0,0.0
89.0,73.0,0.7,3.385965077703694,3.54179439560989,0.0,0.0
89.0,73.0,1.0,3.385965077703694,3.54179439560989,0.0,0.0
89.0,81.0,0.1,3.53189134164086,3.956687258474301,0.0,0.0
89.0,81.0,0.3,3.53189134164086,3.956687258474301,0.0,0.0
89.0,81.0,0.7,3.53189134164086,3.956687258474301,0.0,0.0
89.0,81.0,1.0,3.53189134164086,3.956687258474301,0.0,0.0
89.0,89.0,0.1,5.89472474770781,5.150457513869915,0.0,0.0
89.0,89.0,0.3,5.89472474770781,5.150457513869915,0.0,0.0
89.0,89.0,0.7,5.89472474770781,5.150457513869915,0.0,0.0
89.0,89.0,1.0,5.89472474770781,5.150457513869915,0.0,0.0
89.0,97.0,0.1,6.392343109635888,5.757636417784107,0.0,0.0
89.0,97.0,0.3,6.392343109635888,5.757636417784107,0.0,0.0
89.0,97.0,0.7,6.392343109635888,5.757636417784107,0.0,0.0
89.0,97.0,1.0,6.392343109635888,5.757636417784107,0.0,0.0
89.0,105.0,0.1,6.382830891399922,6.7097847750210065,0.0,0.0
89.0,105.0,0.3,6.382830891399922,6.7097847750210065,0.0,0.0
89.0,105.0,0.7,6.382830891399922,6.7097847750210065,0.0,0.0
89.0,105.0,1.0,6.382830891399922,6.7097847750210065,0.0,0.0
89.0,113.0,0.1,6.390646546268527,6.8814405296986445,0.0,0.0
89.0,113.0,0.3,6.390646546268527,6.8814405296986445,0.0,0.0
89.0,113.0,0.7,6.390646546268527,6.8814405296986445,0.0,0.0
89.0,113.0,1.0,6.390646546268527,6.8814405296986445,0.0,0.0
89.0,121.0,0.1,3.2790590176372008,6.489672248819069,0.0,0.0
89.0,121.0,0.3,3.2790590176372008,6.489672248819069,0.0,0.0
89.0,121.0,0.7,3.2790590176372008,6.489672248819069,0.0,0.0
89.0,121.0,1.0,3.2790590176372008,6.489672248819069,0.0,0.0
89.0,127.0,0.1,6.407910883400439,6.661437124994062,0.0,0.0
89.0,127.0,0.3,6.407910883400439,6.661437124994062,0.0,0.0
89.0,127.0,0.7,6.407910883400439,6.661437124994062,0.0,0.0
89.0,127.0,1.0,6.407910883400439,6.661437124994062,0.0,0.0
90.0,1.0,0.1,0.6529991217684729,-1.2102279730300958,0.0,0.0
90.0,1.0,0.3,0.6529991217684729,-1.2102279730300958,0.0,0.0
90.0,1.0,0.7,0.6529991217684729,-1.2102279730300958,0.0,0.0
90.0,1.0,1.0,0.6529991217684729,-1.2102279730300958,0.0,0.0
90.0,9.0,0.1,0.6473682172810219,-1.8071012588345152,0.0,0.0
90.0,9.0,0.3,0.6473682172810219,-1.8071012588345152,0.0,0.0
90.0,9.0,0.7,0.6473682172810219,-1.8071012588345152,0.0,0.0
90.0,9.0,1.0,0.6473682172810219,-1.8071012588345152,0.0,0.0
90.0,17.0,0.1,0.8006031655690542,-1.6468759863190394,0.0,0.0
90.0,17.0,0.3,0.8006031655690542,-1.6468759863190394,0.0,0.0
90.0,17.0,0.7,0.8006031655690542,-1.6468759863190394,0.0,0.0
90.0,17.0,1.0,0.8006031655690542,-1.6468759863190394,0.0,0.0
90.0,25.0,0.1,0.7901224075244654,0.4784387500545434,0.0,0.0
90.0,25.0,0.3,0.7901224075244654,0.4784387500545434,0.0,0.0
90.0,25.0,0.7,0.7901224075244654,0.4784387500545434,0.0,0.0
90.0,25.0,1.0,0.7901224075244654,0.4784387500545434,0.0,0.0
90.0,33.0,0.1,1.1708161926910994,0.7354130879944053,0.0,0.0
90.0,33.0,0.3,1.1708161926910994,0.7354130879944053,0.0,0.0
90.0,33.0,0.7,1.1708161926910994,0.7354130879944053,0.0,0.0
90.0,33.0,1.0,1.1708161926910994,0.7354130879944053,0.0,0.0
90.0,41.0,0.1,0.9082175610516392,1.2590948671563784,0.0,0.0
90.0,41.0,0.3,0.9082175610516392,1.2590948671563784,0.0,0.0
90.0,41.0,0.7,0.9082175610516392,1.2590948671563784,0.0,0.0
90.0,41.0,1.0,0.9082175610516392,1.2590948671563784,0.0,0.0
90.0,49.0,0.1,1.2439976135813835,2.1141836415247037,0.0,0.0
90.0,49.0,0.3,1.2439976135813835,2.1141836415247037,0.0,0.0
90.0,49.0,0.7,1.2439976135813835,2.1141836415247037,0.0,0.0
90.0,49.0,1.0,1.2439976135813835,2.1141836415247037,0.0,0.0
90.0,57.0,0.1,1.5892019621626126,2.2806222851816584,0.0,0.0
90.0,57.0,0.3,1.5892019621626126,2.2806222851816584,0.0,0.0
90.0,57.0,0.7,1.5892019621626126,2.2806222851816584,0.0,0.0
90.0,57.0,1.0,1.5892019621626126,2.2806222851816584,0.0,0.0
90.0,65.0,0.1,2.467143107380939,2.613721000915295,0.0,0.0
90.0,65.0,0.3,2.467143107380939,2.613721000915295,0.0,0.0
90.0,65.0,0.7,2.467143107380939,2.613721000915295,0.0,0.0
90.0,65.0,1.0,2.467143107380939,2.613721000915295,0.0,0.0
90.0,73.0,0.1,3.080666190161923,3.196004230963253,0.0,0.0
90.0,73.0,0.3,3.080666190161923,3.196004230963253,0.0,0.0
90.0,73.0,0.7,3.080666190161923,3.196004230963253,0.0,0.0
90.0,73.0,1.0,3.080666190161923,3.196004230963253,0.0,0.0
90.0,81.0,0.1,3.193092527540255,3.8268472064472627,0.0,0.0
90.0,81.0,0.3,3.193092527540255,3.8268472064472627,0.0,0.0
90.0,81.0,0.7,3.193092527540255,3.8268472064472627,0.0,0.0
90.0,81.0,1.0,3.193092527540255,3.8268472064472627,0.0,0.0
90.0,89.0,0.1,3.2423874093640825,4.845552018412965,0.0,0.0
90.0,89.0,0.3,3.2423874093640825,4.845552018412965,0.0,0.0
90.0,89.0,0.7,3.2423874093640825,4.845552018412965,0.0,0.0
90.0,89.0,1.0,3.2423874093640825,4.845552018412965,0.0,0.0
90.0,97.0,0.1,3.338771834000268,6.001000948386634,0.0,0.0
90.0,97.0,0.3,3.338771834000268,6.001000948386634,0.0,0.0
90.0,97.0,0.7,3.338771834000268,6.001000948386634,0.0,0.0
90.0,97.0,1.0,3.338771834000268,6.001000948386634,0.0,0.0
90.0,105.0,0.1,3.276525188151313,7.384087872304921,0.0,0.0
90.0,105.0,0.3,3.276525188151313,7.384087872304921,0.0,0.0
90.0,105.0,0.7,3.276525188151313,7.384087872304921,0.0,0.0
90.0,105.0,1.0,3.276525188151313,7.384087872304921,0.0,0.0
90.0,113.0,0.1,3.589927002493695,6.763362407151092,0.0,0.0
90.0,113.0,0.3,3.589927002493695,6.763362407151092,0.0,0.0
90.0,113.0,0.7,3.589927002493695,6.763362407151092,0.0,0.0
90.0,113.0,1.0,3.589927002493695,6.763362407151092,0.0,0.0
90.0,121.0,0.1,3.4963401686945623,6.754210326556044,0.0,0.0
90.0,121.0,0.3,3.4963401686945623,6.754210326556044,0.0,0.0
90.0,121.0,0.7,3.4963401686945623,6.754210326556044,0.0,0.0
90.0,121.0,1.0,3.4963401686945623,6.754210326556044,0.0,0.0
90.0,127.0,0.1,3.289825401901492,6.809567071269057,0.0,0.0
90.0,127.0,0.3,3.289825401901492,6.809567071269057,0.0,0.0
90.0,127.0,0.7,3.289825401901492,6.809567071269057,0.0,0.0
90.0,127.0,1.0,3.289825401901492,6.809567071269057,0.0,0.0
91.0,1.0,0.1,2.255094336576695,-1.3027058006802383,0.0,0.0
91.0,1.0,0.3,2.255094336576695,-1.3027058006802383,0.0,0.0
91.0,1.0,0.7,2.255094336576695,-1.3027058006802383,0.0,0.0
91.0,1.0,1.0,2.255094336576695,-1.3027058006802383,0.0,0.0
91.0,9.0,0.1,1.3278277944805872,-2.552774475407427,0.0,0.0
91.0,9.0,0.3,1.3278277944805872,-2.552774475407427,0.0,0.0
91.0,9.0,0.7,1.3278277944805872,-2.552774475407427,0.0,0.0
91.0,9.0,1.0,1.3278277944805872,-2.552774475407427,0.0,0.0
91.0,17.0,0.1,1.7551647627878408,-2.2390502867194324,0.0,0.0
91.0,17.0,0.3,1.7551647627878408,-2.2390502867194324,0.0,0.0
91.0,17.0,0.7,1.7551647627878408,-2.2390502867194324,0.0,0.0
91.0,17.0,1.0,1.7551647627878408,-2.2390502867194324,0.0,0.0
91.0,25.0,0.1,1.3661043184981732,-0.8271255487274571,0.0,0.0
91.0,25.0,0.3,1.3661043184981732,-0.8271255487274571,0.0,0.0
91.0,25.0,0.7,1.3661043184981732,-0.8271255487274571,0.0,0.0
91.0,25.0,1.0,1.3661043184981732,-0.8271255487274571,0.0,0.0
91.0,33.0,0.1,1.638876491421897,0.4237762275300842,0.0,0.0
91.0,33.0,0.3,1.638876491421897,0.4237762275300842,0.0,0.0
91.0,33.0,0.7,1.638876491421897,0.4237762275300842,0.0,0.0
91.0,33.0,1.0,1.638876491421897,0.4237762275300842,0.0,0.0
91.0,41.0,0.1,1.4559147561177626,0.9206727828550201,0.0,0.0
91.0,41.0,0.3,1.4559147561177626,0.9206727828550201,0.0,0.0
91.0,41.0,0.7,1.4559147561177626,0.9206727828550201,0.0,0.0
91.0,41.0,1.0,1.4559147561177626,0.9206727828550201,0.0,0.0
91.0,49.0,0.1,2.0604509247665863,1.7325977936449308,0.0,0.0
91.0,49.0,0.3,2.0604509247665863,1.7325977936449308,0.0,0.0
91.0,49.0,0.7,2.0604509247665863,1.7325977936449308,0.0,0.0
91.0,49.0,1.0,2.0604509247665863,1.7325977936449308,0.0,0.0
91.0,57.0,0.1,2.4119216074849197,2.2734516483827307,0.0,0.0
91.0,57.0,0.3,2.4119216074849197,2.2734516483827307,0.0,0.0
91.0,57.0,0.7,2.4119216074849197,2.2734516483827307,0.0,0.0
91.0,57.0,1.0,2.4119216074849197,2.2734516483827307,0.0,0.0
91.0,65.0,0.1,3.12125702453125,2.820525291766523,0.0,0.0
91.0,65.0,0.3,3.12125702453125,2.820525291766523,0.0,0.0
91.0,65.0,0.7,3.12125702453125,2.820525291766523,0.0,0.0
91.0,65.0,1.0,3.12125702453125,2.820525291766523,0.0,0.0
91.0,73.0,0.1,3.285546008349802,3.3622186960447147,0.0,0.0
91.0,73.0,0.3,3.285546008349802,3.3622186960447147,0.0,0.0
91.0,73.0,0.7,3.285546008349802,3.3622186960447147,0.0,0.0
91.0,73.0,1.0,3.285546008349802,3.3622186960447147,0.0,0.0
91.0,81.0,0.1,3.8597953040799435,4.0680682441697975,0.0,0.0
91.0,81.0,0.3,3.8597953040799435,4.0680682441697975,0.0,0.0
91.0,81.0,0.7,3.8597953040799435,4.0680682441697975,0.0,0.0
91.0,81.0,1.0,3.8597953040799435,4.0680682441697975,0.0,0.0
91.0,89.0,0.1,6.355721503850412,4.97107456546565,0.0,0.0
91.0,89.0,0.3,6.355721503850412,4.97107456546565,0.0,0.0
91.0,89.0,0.7,6.355721503850412,4.97107456546565,0.0,0.0
91.0,89.0,1.0,6.355721503850412,4.97107456546565,0.0,0.0
91.0,97.0,0.1,6.429088493903083,5.484976282356156,0.0,0.0
91.0,97.0,0.3,6.429088493903083,5.484976282356156,0.0,0.0
91.0,97.0,0.7,6.429088493903083,5.484976282356156,0.0,0.0
91.0,97.0,1.0,6.429088493903083,5.484976282356156,0.0,0.0
91.0,105.0,0.1,6.4796772044125355,5.783004785525355,0.0,0.0
91.0,105.0,0.3,6.4796772044125355,5.783004785525355,0.0,0.0
91.0,105.0,0.7,6.4796772044125355,5.783004785525355,0.0,0.0
91.0,105.0,1.0,6.4796772044125355,5.783004785525355,0.0,0.0
91.0,113.0,0.1,6.553256597785562,6.409869849818901,0.0,0.0
91.0,113.0,0.3,6.553256597785562,6.409869849818901,0.0,0.0
91.0,113.0,0.7,6.553256597785562,6.409869849818901,0.0,0.0
91.0,113.0,1.0,6.553256597785562,6.409869849818901,0.0,0.0
91.0,121.0,0.1,6.541112545025446,6.873085063125918,0.0,0.0
91.0,121.0,0.3,6.541112545025446,6.873085063125918,0.0,0.0
91.0,121.0,0.7,6.541112545025446,6.873085063125918,0.0,0.0
91.0,121.0,1.0,6.541112545025446,6.873085063125918,0.0,0.0
91.0,127.0,0.1,3.288608634360159,6.717976272859973,0.0,0.0
91.0,127.0,0.3,3.288608634360159,6.717976272859973,0.0,0.0
91.0,127.0,0.7,3.288608634360159,6.717976272859973,0.0,0.0
91.0,127.0,1.0,3.288608634360159,6.717976272859973,0.0,0.0
92.0,1.0,0.1,-1.9250375407390046,-1.1031020782809218,0.0,0.0
92.0,1.0,0.3,-1.9250375407390046,-1.1031020782809218,0.0,0.0
92.0,1.0,0.7,-1.9250375407390046,-1.1031020782809218,0.0,0.0
92.0,1.0,1.0,-1.9250375407390046,-1.1031020782809218,0.0,0.0
92.0,9.0,0.1,0.7124296332452275,-2.331675487591039,0.0,0.0
92.0,9.0,0.3,0.7124296332452275,-2.331675487591039,0.0,0.0
92.0,9.0,0.7,0.7124296332452275,-2.331675487591039,0.0,0.0
92.0,9.0,1.0,0.7124296332452275,-2.331675487591039,0.0,0.0
92.0,17.0,0.1,0.6685231235471009,-2.2048136560728726,0.0,0.0
92.0,17.0,0.3,0.6685231235471009,-2.2048136560728726,0.0,0.0
92.0,17.0,0.7,0.6685231235471009,-2.2048136560728726,0.0,0.0
92.0,17.0,1.0,0.6685231235471009,-2.2048136560728726,0.0,0.0
92.0,25.0,0.1,0.6895360978001949,-0.5487562496221765,0.0,0.0
92.0,25.0,0.3,0.6895360978001949,-0.5487562496221765,0.0,0.0
92.0,25.0,0.7,0.6895360978001949,-0.5487562496221765,0.0,0.0
92.0,25.0,1.0,0.6895360978001949,-0.5487562496221765,0.0,0.0
92.0,33.0,0.1,0.7092923277171614,0.5618722605248296,0.0,0.0
92.0,33.0,0.3,0.7092923277171614,0.5618722605248296,0.0,0.0
92.0,33.0,0.7,0.7092923277171614,0.5618722605248296,0.0,0.0
92.0,33.0,1.0,0.7092923277171614,0.5618722605248296,0.0,0.0
92.0,41.0,0.1,0.7447862226635519,0.9041493257075008,0.0,0.0
92.0,41.0,0.3,0.7447862226635519,0.9041493257075008,0.0,0.0
92.0,41.0,0.7,0.7447862226635519,0.9041493257075008,0.0,0.0
92.0,41.0,1.0,0.7447862226635519,0.9041493257075008,0.0,0.0
92.0,49.0,0.1,1.1876276001226898,1.2062081073038453,0.0,0.0
92.0,49.0,0.3,1.1876276001226898,1.2062081073038453,0.0,0.0
92.0,49.0,0.7,1.1876276001226898,1.2062081073038453,0.0,0.0
92.0,49.0,1.0,1.1876276001226898,1.2062081073038453,0.0,0.0
92.0,57.0,0.1,1.3785676493757277,2.096950999692588,0.0,0.0
92.0,57.0,0.3,1.3785676493757277,2.096950999692588,0.0,0.0
92.0,57.0,0.7,1.3785676493757277,2.096950999692588,0.0,0.0
92.0,57.0,1.0,1.3785676493757277,2.096950999692588,0.0,0.0
92.0,65.0,0.1,1.7404758490184533,2.87168791329668,0.0,0.0
92.0,65.0,0.3,1.7404758490184533,2.87168791329668,0.0,0.0
92.0,65.0,0.7,1.7404758490184533,2.87168791329668,0.0,0.0
92.0,65.0,1.0,1.7404758490184533,2.87168791329668,0.0,0.0
92.0,73.0,0.1,2.7190733564566267,3.304766377563943,0.0,0.0
92.0,73.0,0.3,2.7190733564566267,3.304766377563943,0.0,0.0
92.0,73.0,0.7,2.7190733564566267,3.304766377563943,0.0,0.0
92.0,73.0,1.0,2.7190733564566267,3.304766377563943,0.0,0.0
92.0,81.0,0.1,2.9921635539447746,3.793524504394318,0.0,0.0
92.0,81.0,0.3,2.9921635539447746,3.793524504394318,0.0,0.0
92.0,81.0,0.7,2.9921635539447746,3.793524504394318,0.0,0.0
92.0,81.0,1.0,2.9921635539447746,3.793524504394318,0.0,0.0
92.0,89.0,0.1,3.254976300047434,4.94658881529636,0.0,0.0
92.0,89.0,0.3,3.254976300047434,4.94658881529636,0.0,0.0
92.0,89.0,0.7,3.254976300047434,4.94658881529636,0.0,0.0
92.0,89.0,1.0,3.254976300047434,4.94658881529636,0.0,0.0
92.0,97.0,0.1,3.283799177127204,5.501724029328439,0.0,0.0
92.0,97.0,0.3,3.283799177127204,5.501724029328439,0.0,0.0
92.0,97.0,0.7,3.283799177127204,5.501724029328439,0.0,0.0
92.0,97.0,1.0,3.283799177127204,5.501724029328439,0.0,0.0
92.0,105.0,0.1,3.3763302714797767,5.775681104326618,0.0,0.0
92.0,105.0,0.3,3.3763302714797767,5.775681104326618,0.0,0.0
92.0,105.0,0.7,3.3763302714797767,5.775681104326618,0.0,0.0
92.0,105.0,1.0,3.3763302714797767,5.775681104326618,0.0,0.0
92.0,113.0,0.1,3.4016626812184443,6.275678418938947,0.0,0.0
92.0,113.0,0.3,3.4016626812184443,6.275678418938947,0.0,0.0
92.0,113.0,0.7,3.4016626812184443,6.275678418938947,0.0,0.0
92.0,113.0,1.0,3.4016626812184443,6.275678418938947,0.0,0.0
92.0,121.0,0.1,3.3528219244662094,6.688927919263897,0.0,0.0
92.0,121.0,0.3,3.3528219244662094,6.688927919263897,0.0,0.0
92.0,121.0,0.7,3.3528219244662094,6.688927919263897,0.0,0.0
92.0,121.0,1.0,3.3528219244662094,6.688927919263897,0.0,0.0
92.0,127.0,0.1,3.333123889438944,6.615947810289438,0.0,0.0
92.0,127.0,0.3,3.333123889438944,6.615947810289438,0.0,0.0
92.0,127.0,0.7,3.333123889438944,6.615947810289438,0.0,0.0
92.0,127.0,1.0,3.333123889438944,6.615947810289438,0.0,0.0
93.0,1.0,0.1,0.9846890807701967,-0.7833087556818243,0.0,0.0
93.0,1.0,0.3,0.9846890807701967,-0.7833087556818243,0.0,0.0
93.0,1.0,0.7,0.9846890807701967,-0.7833087556818243,0.0,0.0
93.0,1.0,1.0,0.9846890807701967,-0.7833087556818243,0.0,0.0
93.0,9.0,0.1,0.7281078208701205,-0.442936583029003,0.0,0.0
93.0,9.0,0.3,0.7281078208701205,-0.442936583029003,0.0,0.0
93.0,9.0,0.7,0.7281078208701205,-0.442936583029003,0.0,0.0
93.0,9.0,1.0,0.7281078208701205,-0.442936583029003,0.0,0.0
93.0,17.0,0.1,0.48630150736012945,-0.6388659319142687,0.0,0.0
93.0,17.0,0.3,0.48630150736012945,-0.6388659319142687,0.0,0.0
93.0,17.0,0.7,0.48630150736012945,-0.6388659319142687,0.0,0.0
93.0,17.0,1.0,0.48630150736012945,-0.6388659319142687,0.0,0.0
93.0,25.0,0.1,0.29850125589530274,0.5010449824306146,0.0,0.0
93.0,25.0,0.3,0.29850125589530274,0.5010449824306146,0.0,0.0
93.0,25.0,0.7,0.29850125589530274,0.5010449824306146,0.0,0.0
93.0,25.0,1.0,0.29850125589530274,0.5010449824306146,0.0,0.0
93.0,33.0,0.1,0.1436015255699603,0.6828085609418898,0.0,0.0
93.0,33.0,0.3,0.1436015255699603,0.6828085609418898,0.0,0.0
93.0,33.0,0.7,0.1436015255699603,0.6828085609418898,0.0,0.0
93.0,33.0,1.0,0.1436015255699603,0.6828085609418898,0.0,0.0
93.0,41.0,0.1,0.6715318686379288,0.9279698780105023,0.0,0.0
93.0,41.0,0.3,0.6715318686379288,0.9279698780105023,0.0,0.0
93.0,41.0,0.7,0.6715318686379288,0.9279698780105023,0.0,0.0
93.0,41.0,1.0,0.6715318686379288,0.9279698780105023,0.0,0.0
93.0,49.0,0.1,1.1815566701581137,1.6465787176855304,0.0,0.0
93.0,49.0,0.3,1.1815566701581137,1.6465787176855304,0.0,0.0
93.0,49.0,0.7,1.1815566701581137,1.6465787176855304,0.0,0.0
93.0,49.0,1.0,1.1815566701581137,1.6465787176855304,0.0,0.0
93.0,57.0,0.1,1.4384971411111067,2.396614994404682,0.0,0.0
93.0,57.0,0.3,1.4384971411111067,2.396614994404682,0.0,0.0
93.0,57.0,0.7,1.4384971411111067,2.396614994404682,0.0,0.0
93.0,57.0,1.0,1.4384971411111067,2.396614994404682,0.0,0.0
93.0,65.0,0.1,1.6494241293370941,2.7603514590945304,0.0,0.0
93.0,65.0,0.3,1.6494241293370941,2.7603514590945304,0.0,0.0
93.0,65.0,0.7,1.6494241293370941,2.7603514590945304,0.0,0.0
93.0,65.0,1.0,1.6494241293370941,2.7603514590945304,0.0,0.0
93.0,73.0,0.1,2.538423506579152,3.546214152049559,0.0,0.0
93.0,73.0,0.3,2.538423506579152,3.546214152049559,0.0,0.0
93.0,73.0,0.7,2.538423506579152,3.546214152049559,0.0,0.0
93.0,73.0,1.0,2.538423506579152,3.546214152049559,0.0,0.0
93.0,81.0,0.1,3.109037335613269,3.9354560042634272,0.0,0.0
93.0,81.0,0.3,3.109037335613269,3.9354560042634272,0.0,0.0
93.0,81.0,0.7,3.109037335613269,3.9354560042634272,0.0,0.0
93.0,81.0,1.0,3.109037335613269,3.9354560042634272,0.0,0.0
93.0,89.0,0.1,3.23461013033796,5.20457871886653,0.0,0.0
93.0,89.0,0.3,3.23461013033796,5.20457871886653,0.0,0.0
93.0,89.0,0.7,3.23461013033796,5.20457871886653,0.0,0.0
93.0,89.0,1.0,3.23461013033796,5.20457871886653,0.0,0.0
93.0,97.0,0.1,3.3777316814810976,5.969043951937106,0.0,0.0
93.0,97.0,0.3,3.3777316814810976,5.969043951937106,0.0,0.0
93.0,97.0,0.7,3.3777316814810976,5.969043951937106,0.0,0.0
93.0,97.0,1.0,3.3777316814810976,5.969043951937106,0.0,0.0
93.0,105.0,0.1,3.919750973548061,6.898589850817366,0.0,0.0
93.0,105.0,0.3,3.919750973548061,6.898589850817366,0.0,0.0
93.0,105.0,0.7,3.919750973548061,6.898589850817366,0.0,0.0
93.0,105.0,1.0,3.919750973548061,6.898589850817366,0.0,0.0
93.0,113.0,0.1,4.164937776305319,7.184447192916586,0.0,0.0
93.0,113.0,0.3,4.164937776305319,7.184447192916586,0.0,0.0
93.0,113.0,0.7,4.164937776305319,7.184447192916586,0.0,0.0
93.0,113.0,1.0,4.164937776305319,7.184447192916586,0.0,0.0
93.0,121.0,0.1,3.437962363906974,6.944655343555618,0.0,0.0
93.0,121.0,0.3,3.437962363906974,6.944655343555618,0.0,0.0
93.0,121.0,0.7,3.437962363906974,6.944655343555618,0.0,0.0
93.0,121.0,1.0,3.437962363906974,6.944655343555618,0.0,0.0
93.0,127.0,0.1,3.4449772292586487,6.811970384045996,0.0,0.0
93.0,127.0,0.3,3.4449772292586487,6.811970384045996,0.0,0.0
93.0,127.0,0.7,3.4449772292586487,6.811970384045996,0.0,0.0
93.0,127.0,1.0,3.4449772292586487,6.811970384045996,0.0,0.0
94.0,1.0,0.1,1.2852332158008752,-1.1084738212109422,0.0,0.0
94.0,1.0,0.3,1.2852332158008752,-1.1084738212109422,0.0,0.0
94.0,1.0,0.7,1.2852332158008752,-1.1084738212109422,0.0,0.0
94.0,1.0,1.0,1.2852332158008752,-1.1084738212109422,0.0,0.0
94.0,9.0,0.1,0.9059227077187455,-1.263453469431254,0.0,0.0
94.0,9.0,0.3,0.9059227077187455,-1.263453469431254,0.0,0.0
94.0,9.0,0.7,0.9059227077187455,-1.263453469431254,0.0,0.0
94.0,9.0,1.0,0.9059227077187455,-1.263453469431254,0.0,0.0
94.0,17.0,0.1,0.8586381697969191,-0.9453557408243496,0.0,0.0
94.0,17.0,0.3,0.8586381697969191,-0.9453557408243496,0.0,0.0
94.0,17.0,0.7,0.8586381697969191,-0.9453557408243496,0.0,0.0
94.0,17.0,1.0,0.8586381697969191,-0.9453557408243496,0.0,0.0
94.0,25.0,0.1,0.8688964561074626,0.3368839192534571,0.0,0.0
94.0,25.0,0.3,0.8688964561074626,0.3368839192534571,0.0,0.0
94.0,25.0,0.7,0.8688964561074626,0.3368839192534571,0.0,0.0
94.0,25.0,1.0,0.8688964561074626,0.3368839192534571,0.0,0.0
94.0,33.0,0.1,0.8468340566247983,0.7074881142885009,0.0,0.0
94.0,33.0,0.3,0.8468340566247983,0.7074881142885009,0.0,0.0
94.0,33.0,0.7,0.8468340566247983,0.7074881142885009,0.0,0.0
94.0,33.0,1.0,0.8468340566247983,0.7074881142885009,0.0,0.0
94.0,41.0,0.1,1.2333679840370637,1.0853254251556501,0.0,0.0
94.0,41.0,0.3,1.2333679840370637,1.0853254251556501,0.0,0.0
94.0,41.0,0.7,1.2333679840370637,1.0853254251556501,0.0,0.0
94.0,41.0,1.0,1.2333679840370637,1.0853254251556501,0.0,0.0
94.0,49.0,0.1,1.4281736929076392,1.391903039590287,0.0,0.0
94.0,49.0,0.3,1.4281736929076392,1.391903039590287,0.0,0.0
94.0,49.0,0.7,1.4281736929076392,1.391903039590287,0.0,0.0
94.0,49.0,1.0,1.4281736929076392,1.391903039590287,0.0,0.0
94.0,57.0,0.1,1.6505321463268767,2.202986444531137,0.0,0.0
94.0,57.0,0.3,1.6505321463268767,2.202986444531137,0.0,0.0
94.0,57.0,0.7,1.6505321463268767,2.202986444531137,0.0,0.0
94.0,57.0,1.0,1.6505321463268767,2.202986444531137,0.0,0.0
94.0,65.0,0.1,2.111147772447519,2.5908850177197373,0.0,0.0
94.0,65.0,0.3,2.111147772447519,2.5908850177197373,0.0,0.0
94.0,65.0,0.7,2.111147772447519,2.5908850177197373,0.0,0.0
94.0,65.0,1.0,2.111147772447519,2.5908850177197373,0.0,0.0
94.0,73.0,0.1,2.902150292446703,3.1659524276185897,0.0,0.0
94.0,73.0,0.3,2.902150292446703,3.1659524276185897,0.0,0.0
94.0,73.0,0.7,2.902150292446703,3.1659524276185897,0.0,0.0
94.0,73.0,1.0,2.902150292446703,3.1659524276185897,0.0,0.0
94.0,81.0,0.1,3.180908675504402,3.646393763824301,0.0,0.0
94.0,81.0,0.3,3.180908675504402,3.646393763824301,0.0,0.0
94.0,81.0,0.7,3.180908675504402,3.646393763824301,0.0,0.0
94.0,81.0,1.0,3.180908675504402,3.646393763824301,0.0,0.0
94.0,89.0,0.1,3.37597272878638,4.279272020520315,0.0,0.0
94.0,89.0,0.3,3.37597272878638,4.279272020520315,0.0,0.0
94.0,89.0,0.7,3.37597272878638,4.279272020520315,0.0,0.0
94.0,89.0,1.0,3.37597272878638,4.279272020520315,0.0,0.0
94.0,97.0,0.1,3.4658080274868976,5.283084917430578,0.0,0.0
94.0,97.0,0.3,3.4658080274868976,5.283084917430578,0.0,0.0
94.0,97.0,0.7,3.4658080274868976,5.283084917430578,0.0,0.0
94.0,97.0,1.0,3.4658080274868976,5.283084917430578,0.0,0.0
94.0,105.0,0.1,3.4944736822131928,5.625781889304099,0.0,0.0
94.0,105.0,0.3,3.4944736822131928,5.625781889304099,0.0,0.0
94.0,105.0,0.7,3.4944736822131928,5.625781889304099,0.0,0.0
94.0,105.0,1.0,3.4944736822131928,5.625781889304099,0.0,0.0
94.0,113.0,0.1,3.52313845996454,5.699503412878739,0.0,0.0
94.0,113.0,0.3,3.52313845996454,5.699503412878739,0.0,0.0
94.0,113.0,0.7,3.52313845996454,5.699503412878739,0.0,0.0
94.0,113.0,1.0,3.52313845996454,5.699503412878739,0.0,0.0
94.0,121.0,0.1,3.503194413861315,5.758811578432447,0.0,0.0
94.0,121.0,0.3,3.503194413861315,5.758811578432447,0.0,0.0
94.0,121.0,0.7,3.503194413861315,5.758811578432447,0.0,0.0
94.0,121.0,1.0,3.503194413861315,5.758811578432447,0.0,0.0
94.0,127.0,0.1,3.5232523537762708,5.827375437342538,0.0,0.0
94.0,127.0,0.3,3.5232523537762708,5.827375437342538,0.0,0.0
94.0,127.0,0.7,3.5232523537762708,5.827375437342538,0.0,0.0
94.0,127.0,1.0,3.5232523537762708,5.827375437342538,0.0,0.0
95.0,1.0,0.1,1.4432410615549547,-1.6002651278802345,0.0,0.0
95.0,1.0,0.3,1.4432410615549547,-1.6002651278802345,0.0,0.0
95.0,1.0,0.7,1.4432410615549547,-1.6002651278802345,0.0,0.0
95.0,1.0,1.0,1.4432410615549547,-1.6002651278802345,0.0,0.0
95.0,9.0,0.1,1.145811906540956,-1.6135119713162287,0.0,0.0
95.0,9.0,0.3,1.145811906540956,-1.6135119713162287,0.0,0.0
95.0,9.0,0.7,1.145811906540956,-1.6135119713162287,0.0,0.0
95.0,9.0,1.0,1.145811906540956,-1.6135119713162287,0.0,0.0
95.0,17.0,0.1,0.9293881820456487,-1.8938054453245685,0.0,0.0
95.0,17.0,0.3,0.9293881820456487,-1.8938054453245685,0.0,0.0
95.0,17.0,0.7,0.9293881820456487,-1.8938054453245685,0.0,0.0
95.0,17.0,1.0,0.9293881820456487,-1.8938054453245685,0.0,0.0
95.0,25.0,0.1,0.9834387042070438,-0.22397621656376915,0.0,0.0
95.0,25.0,0.3,0.9834387042070438,-0.22397621656376915,0.0,0.0
95.0,25.0,0.7,0.9834387042070438,-0.22397621656376915,0.0,0.0
95.0,25.0,1.0,0.9834387042070438,-0.22397621656376915,0.0,0.0
95.0,33.0,0.1,0.9061584746311032,0.3245197159267527,0.0,0.0
95.0,33.0,0.3,0.9061584746311032,0.3245197159267527,0.0,0.0
95.0,33.0,0.7,0.9061584746311032,0.3245197159267527,0.0,0.0
95.0,33.0,1.0,0.9061584746311032,0.3245197159267527,0.0,0.0
95.0,41.0,0.1,1.3309422284310892,0.8995187325497619,0.0,0.0
95.0,41.0,0.3,1.3309422284310892,0.8995187325497619,0.0,0.0
95.0,41.0,0.7,1.3309422284310892,0.8995187325497619,0.0,0.0
95.0,41.0,1.0,1.3309422284310892,0.8995187325497619,0.0,0.0
95.0,49.0,0.1,1.5313431451121435,1.2721420046160241,0.0,0.0
95.0,49.0,0.3,1.5313431451121435,1.2721420046160241,0.0,0.0
95.0,49.0,0.7,1.5313431451121435,1.2721420046160241,0.0,0.0
95.0,49.0,1.0,1.5313431451121435,1.2721420046160241,0.0,0.0
95.0,57.0,0.1,1.6197799886803312,2.0827404580244764,0.0,0.0
95.0,57.0,0.3,1.6197799886803312,2.0827404580244764,0.0,0.0
95.0,57.0,0.7,1.6197799886803312,2.0827404580244764,0.0,0.0
95.0,57.0,1.0,1.6197799886803312,2.0827404580244764,0.0,0.0
95.0,65.0,0.1,2.444046327264435,2.316359570392903,0.0,0.0
95.0,65.0,0.3,2.444046327264435,2.316359570392903,0.0,0.0
95.0,65.0,0.7,2.444046327264435,2.316359570392903,0.0,0.0
95.0,65.0,1.0,2.444046327264435,2.316359570392903,0.0,0.0
95.0,73.0,0.1,3.1089261991580712,2.9448893498247872,0.0,0.0
95.0,73.0,0.3,3.1089261991580712,2.9448893498247872,0.0,0.0
95.0,73.0,0.7,3.1089261991580712,2.9448893498247872,0.0,0.0
95.0,73.0,1.0,3.1089261991580712,2.9448893498247872,0.0,0.0
95.0,81.0,0.1,3.3566367719113295,3.3605918830963986,0.0,0.0
95.0,81.0,0.3,3.3566367719113295,3.3605918830963986,0.0,0.0
95.0,81.0,0.7,3.3566367719113295,3.3605918830963986,0.0,0.0
95.0,81.0,1.0,3.3566367719113295,3.3605918830963986,0.0,0.0
95.0,89.0,0.1,3.504846463679942,3.9091007436657548,0.0,0.0
95.0,89.0,0.3,3.504846463679942,3.9091007436657548,0.0,0.0
95.0,89.0,0.7,3.504846463679942,3.9091007436657548,0.0,0.0
95.0,89.0,1.0,3.504846463679942,3.9091007436657548,0.0,0.0
95.0,97.0,0.1,4.217684340968251,5.1963810728536695,0.0,0.0
95.0,97.0,0.3,4.217684340968251,5.1963810728536695,0.0,0.0
95.0,97.0,0.7,4.217684340968251,5.1963810728536695,0.0,0.0
95.0,97.0,1.0,4.217684340968251,5.1963810728536695,0.0,0.0
95.0,105.0,0.1,4.939753719806041,5.9473659422257334,0.0,0.0
95.0,105.0,0.3,4.939753719806041,5.9473659422257334,0.0,0.0
95.0,105.0,0.7,4.939753719806041,5.9473659422257334,0.0,0.0
95.0,105.0,1.0,4.939753719806041,5.9473659422257334,0.0,0.0
95.0,113.0,0.1,4.760380399351498,6.310195682909813,0.0,0.0
95.0,113.0,0.3,4.760380399351498,6.310195682909813,0.0,0.0
95.0,113.0,0.7,4.760380399351498,6.310195682909813,0.0,0.0
95.0,113.0,1.0,4.760380399351498,6.310195682909813,0.0,0.0
95.0,121.0,0.1,5.7803061647669125,6.359064094857448,0.0,0.0
95.0,121.0,0.3,5.7803061647669125,6.359064094857448,0.0,0.0
95.0,121.0,0.7,5.7803061647669125,6.359064094857448,0.0,0.0
95.0,121.0,1.0,5.7803061647669125,6.359064094857448,0.0,0.0
95.0,127.0,0.1,5.740229505899341,6.070341080627719,0.0,0.0
95.0,127.0,0.3,5.740229505899341,6.070341080627719,0.0,0.0
95.0,127.0,0.7,5.740229505899341,6.070341080627719,0.0,0.0
95.0,127.0,1.0,5.740229505899341,6.070341080627719,0.0,0.0
96.0,1.0,0.1,1.5255566375216596,-0.9450904280676518,0.0,0.0
96.0,1.0,0.3,1.5255566375216596,-0.9450904280676518,0.0,0.0
96.0,1.0,0.7,1.5255566375216596,-0.9450904280676518,0.0,0.0
96.0,1.0,1.0,1.5255566375216596,-0.9450904280676518,0.0,0.0
96.0,9.0,0.1,1.2494843584470963,-0.7373295071199055,0.0,0.0
96.0,9.0,0.3,1.2494843584470963,-0.7373295071199055,0.0,0.0
96.0,9.0,0.7,1.2494843584470963,-0.7373295071199055,0.0,0.0
96.0,9.0,1.0,1.2494843584470963,-0.7373295071199055,0.0,0.0
96.0,17.0,0.1,0.9996833542157559,-0.9672036751705468,0.0,0.0
96.0,17.0,0.3,0.9996833542157559,-0.9672036751705468,0.0,0.0
96.0,17.0,0.7,0.9996833542157559,-0.9672036751705468,0.0,0.0
96.0,17.0,1.0,0.9996833542157559,-0.9672036751705468,0.0,0.0
96.0,25.0,0.1,1.1478464789680396,0.3737357996483853,0.0,0.0
96.0,25.0,0.3,1.1478464789680396,0.3737357996483853,0.0,0.0
96.0,25.0,0.7,1.1478464789680396,0.3737357996483853,0.0,0.0
96.0,25.0,1.0,1.1478464789680396,0.3737357996483853,0.0,0.0
96.0,33.0,0.1,1.151496335169923,0.5762796905098531,0.0,0.0
96.0,33.0,0.3,1.151496335169923,0.5762796905098531,0.0,0.0
96.0,33.0,0.7,1.151496335169923,0.5762796905098531,0.0,0.0
96.0,33.0,1.0,1.151496335169923,0.5762796905098531,0.0,0.0
96.0,41.0,0.1,1.2866845195693521,1.021906663503781,0.0,0.0
96.0,41.0,0.3,1.2866845195693521,1.021906663503781,0.0,0.0
96.0,41.0,0.7,1.2866845195693521,1.021906663503781,0.0,0.0
96.0,41.0,1.0,1.2866845195693521,1.021906663503781,0.0,0.0
96.0,49.0,0.1,1.4708811872529042,2.0265131914930077,0.0,0.0
96.0,49.0,0.3,1.4708811872529042,2.0265131914930077,0.0,0.0
96.0,49.0,0.7,1.4708811872529042,2.0265131914930077,0.0,0.0
96.0,49.0,1.0,1.4708811872529042,2.0265131914930077,0.0,0.0
96.0,57.0,0.1,1.7214915292458544,2.4521916091095064,0.0,0.0
96.0,57.0,0.3,1.7214915292458544,2.4521916091095064,0.0,0.0
96.0,57.0,0.7,1.7214915292458544,2.4521916091095064,0.0,0.0
96.0,57.0,1.0,1.7214915292458544,2.4521916091095064,0.0,0.0
96.0,65.0,0.1,2.639810020581645,3.127780513116126,0.0,0.0
96.0,65.0,0.3,2.639810020581645,3.127780513116126,0.0,0.0
96.0,65.0,0.7,2.639810020581645,3.127780513116126,0.0,0.0
96.0,65.0,1.0,2.639810020581645,3.127780513116126,0.0,0.0
96.0,73.0,0.1,3.1231743367470117,3.541143410772306,0.0,0.0
96.0,73.0,0.3,3.1231743367470117,3.541143410772306,0.0,0.0
96.0,73.0,0.7,3.1231743367470117,3.541143410772306,0.0,0.0
96.0,73.0,1.0,3.1231743367470117,3.541143410772306,0.0,0.0
96.0,81.0,0.1,3.1892383571140277,4.01953438163396,0.0,0.0
96.0,81.0,0.3,3.1892383571140277,4.01953438163396,0.0,0.0
96.0,81.0,0.7,3.1892383571140277,4.01953438163396,0.0,0.0
96.0,81.0,1.0,3.1892383571140277,4.01953438163396,0.0,0.0
96.0,89.0,0.1,3.387002401970155,4.997625482127462,0.0,0.0
96.0,89.0,0.3,3.387002401970155,4.997625482127462,0.0,0.0
96.0,89.0,0.7,3.387002401970155,4.997625482127462,0.0,0.0
96.0,89.0,1.0,3.387002401970155,4.997625482127462,0.0,0.0
96.0,97.0,0.1,3.458245808756229,5.661069826057577,0.0,0.0
96.0,97.0,0.3,3.458245808756229,5.661069826057577,0.0,0.0
96.0,97.0,0.7,3.458245808756229,5.661069826057577,0.0,0.0
96.0,97.0,1.0,3.458245808756229,5.661069826057577,0.0,0.0
96.0,105.0,0.1,3.522542706846665,6.330294417284994,0.0,0.0
96.0,105.0,0.3,3.522542706846665,6.330294417284994,0.0,0.0
96.0,105.0,0.7,3.522542706846665,6.330294417284994,0.0,0.0
96.0,105.0,1.0,3.522542706846665,6.330294417284994,0.0,0.0
96.0,113.0,0.1,3.530320185162461,7.07731550980408,0.0,0.0
96.0,113.0,0.3,3.530320185162461,7.07731550980408,0.0,0.0
96.0,113.0,0.7,3.530320185162461,7.07731550980408,0.0,0.0
96.0,113.0,1.0,3.530320185162461,7.07731550980408,0.0,0.0
96.0,121.0,0.1,3.5750506014897505,7.377782760464306,0.0,0.0
96.0,121.0,0.3,3.5750506014897505,7.377782760464306,0.0,0.0
96.0,121.0,0.7,3.5750506014897505,7.377782760464306,0.0,0.0
96.0,121.0,1.0,3.5750506014897505,7.377782760464306,0.0,0.0
96.0,127.0,0.1,3.571297947498051,7.2750085432143,0.0,0.0
96.0,127.0,0.3,3.571297947498051,7.2750085432143,0.0,0.0
96.0,127.0,0.7,3.571297947498051,7.2750085432143,0.0,0.0
96.0,127.0,1.0,3.571297947498051,7.2750085432143,0.0,0.0
97.0,1.0,0.1,1.3534243290434302,-1.7761846650639597,0.0,0.0
97.0,1.0,0.3,1.3534243290434302,-1.7761846650639597,0.0,0.0
97.0,1.0,0.7,1.3534243290434302,-1.7761846650639597,0.0,0.0
97.0,1.0,1.0,1.3534243290434302,-1.7761846650639597,0.0,0.0
97.0,9.0,0.1,1.1825769787897278,-1.1422694112759562,0.0,0.0
97.0,9.0,0.3,1.1825769787897278,-1.1422694112759562,0.0,0.0
97.0,9.0,0.7,1.1825769787897278,-1.1422694112759562,0.0,0.0
97.0,9.0,1.0,1.1825769787897278,-1.1422694112759562,0.0,0.0
97.0,17.0,0.1,1.1865000926464158,-1.12876868051469,0.0,0.0
97.0,17.0,0.3,1.1865000926464158,-1.12876868051469,0.0,0.0
97.0,17.0,0.7,1.1865000926464158,-1.12876868051469,0.0,0.0
97.0,17.0,1.0,1.1865000926464158,-1.12876868051469,0.0,0.0
97.0,25.0,0.1,1.2073659847782983,0.37660152971278094,0.0,0.0
97.0,25.0,0.3,1.2073659847782983,0.37660152971278094,0.0,0.0
97.0,25.0,0.7,1.2073659847782983,0.37660152971278094,0.0,0.0
97.0,25.0,1.0,1.2073659847782983,0.37660152971278094,0.0,0.0
97.0,33.0,0.1,1.2032736070804726,0.4805931261747071,0.0,0.0
97.0,33.0,0.3,1.2032736070804726,0.4805931261747071,0.0,0.0
97.0,33.0,0.7,1.2032736070804726,0.4805931261747071,0.0,0.0
97.0,33.0,1.0,1.2032736070804726,0.4805931261747071,0.0,0.0
97.0,41.0,0.1,1.384004473296541,0.803355584968952,0.0,0.0
97.0,41.0,0.3,1.384004473296541,0.803355584968952,0.0,0.0
97.0,41.0,0.7,1.384004473296541,0.803355584968952,0.0,0.0
97.0,41.0,1.0,1.384004473296541,0.803355584968952,0.0,0.0
97.0,49.0,0.1,1.5825413390909302,2.0815600084697414,0.0,0.0
97.0,49.0,0.3,1.5825413390909302,2.0815600084697414,0.0,0.0
97.0,49.0,0.7,1.5825413390909302,2.0815600084697414,0.0,0.0
97.0,49.0,1.0,1.5825413390909302,2.0815600084697414,0.0,0.0
97.0,57.0,0.1,1.647291112939752,2.4001841845808056,0.0,0.0
97.0,57.0,0.3,1.647291112939752,2.4001841845808056,0.0,0.0
97.0,57.0,0.7,1.647291112939752,2.4001841845808056,0.0,0.0
97.0,57.0,1.0,1.647291112939752,2.4001841845808056,0.0,0.0
97.0,65.0,0.1,2.394817312656774,3.0376010383478906,0.0,0.0
97.0,65.0,0.3,2.394817312656774,3.0376010383478906,0.0,0.0
97.0,65.0,0.7,2.394817312656774,3.0376010383478906,0.0,0.0
97.0,65.0,1.0,2.394817312656774,3.0376010383478906,0.0,0.0
97.0,73.0,0.1,2.86317956742005,3.470100210032263,0.0,0.0
97.0,73.0,0.3,2.86317956742005,3.470100210032263,0.0,0.0
97.0,73.0,0.7,2.86317956742005,3.470100210032263,0.0,0.0
97.0,73.0,1.0,2.86317956742005,3.470100210032263,0.0,0.0
97.0,81.0,0.1,3.17947794392719,3.784766569402225,0.0,0.0
97.0,81.0,0.3,3.17947794392719,3.784766569402225,0.0,0.0
97.0,81.0,0.7,3.17947794392719,3.784766569402225,0.0,0.0
97.0,81.0,1.0,3.17947794392719,3.784766569402225,0.0,0.0
97.0,89.0,0.1,3.277658460527145,5.043782297926671,0.0,0.0
97.0,89.0,0.3,3.277658460527145,5.043782297926671,0.0,0.0
97.0,89.0,0.7,3.277658460527145,5.043782297926671,0.0,0.0
97.0,89.0,1.0,3.277658460527145,5.043782297926671,0.0,0.0
97.0,97.0,0.1,3.5881803459287624,5.391407158798819,0.0,0.0
97.0,97.0,0.3,3.5881803459287624,5.391407158798819,0.0,0.0
97.0,97.0,0.7,3.5881803459287624,5.391407158798819,0.0,0.0
97.0,97.0,1.0,3.5881803459287624,5.391407158798819,0.0,0.0
97.0,105.0,0.1,4.7963469863722725,5.8175525890754525,0.0,0.0
97.0,105.0,0.3,4.7963469863722725,5.8175525890754525,0.0,0.0
97.0,105.0,0.7,4.7963469863722725,5.8175525890754525,0.0,0.0
97.0,105.0,1.0,4.7963469863722725,5.8175525890754525,0.0,0.0
97.0,113.0,0.1,4.621970348926231,6.836850164212071,0.0,0.0
97.0,113.0,0.3,4.621970348926231,6.836850164212071,0.0,0.0
97.0,113.0,0.7,4.621970348926231,6.836850164212071,0.0,0.0
97.0,113.0,1.0,4.621970348926231,6.836850164212071,0.0,0.0
97.0,121.0,0.1,4.83372465955752,6.889187153897698,0.0,0.0
97.0,121.0,0.3,4.83372465955752,6.889187153897698,0.0,0.0
97.0,121.0,0.7,4.83372465955752,6.889187153897698,0.0,0.0
97.0,121.0,1.0,4.83372465955752,6.889187153897698,0.0,0.0
97.0,127.0,0.1,4.827681615571448,7.071394456938682,0.0,0.0
97.0,127.0,0.3,4.827681615571448,7.071394456938682,0.0,0.0
97.0,127.0,0.7,4.827681615571448,7.071394456938682,0.0,0.0
97.0,127.0,1.0,4.827681615571448,7.071394456938682,0.0,0.0
98.0,1.0,0.1,1.335256418264581,-0.8084446831301364,0.0,0.0
98.0,1.0,0.3,1.335256418264581,-0.8084446831301364,0.0,0.0
98.0,1.0,0.7,1.335256418264581,-0.8084446831301364,0.0,0.0
98.0,1.0,1.0,1.335256418264581,-0.8084446831301364,0.0,0.0
98.0,9.0,0.1,0.7926618240651634,-0.810637792013926,0.0,0.0
98.0,9.0,0.3,0.7926618240651634,-0.810637792013926,0.0,0.0
98.0,9.0,0.7,0.7926618240651634,-0.810637792013926,0.0,0.0
98.0,9.0,1.0,0.7926618240651634,-0.810637792013926,0.0,0.0
98.0,17.0,0.1,0.8789018492790627,-1.0517143568962972,0.0,0.0
98.0,17.0,0.3,0.8789018492790627,-1.0517143568962972,0.0,0.0
98.0,17.0,0.7,0.8789018492790627,-1.0517143568962972,0.0,0.0
98.0,17.0,1.0,0.8789018492790627,-1.0517143568962972,0.0,0.0
98.0,25.0,0.1,0.7650564217158216,0.43287094174119023,0.0,0.0
98.0,25.0,0.3,0.7650564217158216,0.43287094174119023,0.0,0.0
98.0,25.0,0.7,0.7650564217158216,0.43287094174119023,0.0,0.0
98.0,25.0,1.0,0.7650564217158216,0.43287094174119023,0.0,0.0
98.0,33.0,0.1,0.7865806516414912,0.7520778917810468,0.0,0.0
98.0,33.0,0.3,0.7865806516414912,0.7520778917810468,0.0,0.0
98.0,33.0,0.7,0.7865806516414912,0.7520778917810468,0.0,0.0
98.0,33.0,1.0,0.7865806516414912,0.7520778917810468,0.0,0.0
98.0,41.0,0.1,0.9318070734031361,1.0539664703091618,0.0,0.0
98.0,41.0,0.3,0.9318070734031361,1.0539664703091618,0.0,0.0
98.0,41.0,0.7,0.9318070734031361,1.0539664703091618,0.0,0.0
98.0,41.0,1.0,0.9318070734031361,1.0539664703091618,0.0,0.0
98.0,49.0,0.1,1.2698616972926835,1.162594741637663,0.0,0.0
98.0,49.0,0.3,1.2698616972926835,1.162594741637663,0.0,0.0
98.0,49.0,0.7,1.2698616972926835,1.162594741637663,0.0,0.0
98.0,49.0,1.0,1.2698616972926835,1.162594741637663,0.0,0.0
98.0,57.0,0.1,1.4667396165227549,1.7883543971736602,0.0,0.0
98.0,57.0,0.3,1.4667396165227549,1.7883543971736602,0.0,0.0
98.0,57.0,0.7,1.4667396165227549,1.7883543971736602,0.0,0.0
98.0,57.0,1.0,1.4667396165227549,1.7883543971736602,0.0,0.0
98.0,65.0,0.1,1.7422448613236083,2.23577014532437,0.0,0.0
98.0,65.0,0.3,1.7422448613236083,2.23577014532437,0.0,0.0
98.0,65.0,0.7,1.7422448613236083,2.23577014532437,0.0,0.0
98.0,65.0,1.0,1.7422448613236083,2.23577014532437,0.0,0.0
98.0,73.0,0.1,2.0444242087696423,3.1379326103357847,0.0,0.0
98.0,73.0,0.3,2.0444242087696423,3.1379326103357847,0.0,0.0
98.0,73.0,0.7,2.0444242087696423,3.1379326103357847,0.0,0.0
98.0,73.0,1.0,2.0444242087696423,3.1379326103357847,0.0,0.0
98.0,81.0,0.1,3.0824253054134774,3.3051848933493932,0.0,0.0
98.0,81.0,0.3,3.0824253054134774,3.3051848933493932,0.0,0.0
98.0,81.0,0.7,3.0824253054134774,3.3051848933493932,0.0,0.0
98.0,81.0,1.0,3.0824253054134774,3.3051848933493932,0.0,0.0
98.0,89.0,0.1,3.118579710489226,3.8145464748991977,0.0,0.0
98.0,89.0,0.3,3.118579710489226,3.8145464748991977,0.0,0.0
98.0,89.0,0.7,3.118579710489226,3.8145464748991977,0.0,0.0
98.0,89.0,1.0,3.118579710489226,3.8145464748991977,0.0,0.0
98.0,97.0,0.1,3.1637642313274497,5.304082899765352,0.0,0.0
98.0,97.0,0.3,3.1637642313274497,5.304082899765352,0.0,0.0
98.0,97.0,0.7,3.1637642313274497,5.304082899765352,0.0,0.0
98.0,97.0,1.0,3.1637642313274497,5.304082899765352,0.0,0.0
98.0,105.0,0.1,3.2251145921874578,5.620087403163431,0.0,0.0
98.0,105.0,0.3,3.2251145921874578,5.620087403163431,0.0,0.0
98.0,105.0,0.7,3.2251145921874578,5.620087403163431,0.0,0.0
98.0,105.0,1.0,3.2251145921874578,5.620087403163431,0.0,0.0
98.0,113.0,0.1,3.2142843182729037,5.808158542269177,0.0,0.0
98.0,113.0,0.3,3.2142843182729037,5.808158542269177,0.0,0.0
98.0,113.0,0.7,3.2142843182729037,5.808158542269177,0.0,0.0
98.0,113.0,1.0,3.2142843182729037,5.808158542269177,0.0,0.0
98.0,121.0,0.1,3.2387441960985086,5.600701184372024,0.0,0.0
98.0,121.0,0.3,3.2387441960985086,5.600701184372024,0.0,0.0
98.0,121.0,0.7,3.2387441960985086,5.600701184372024,0.0,0.0
98.0,121.0,1.0,3.2387441960985086,5.600701184372024,0.0,0.0
98.0,127.0,0.1,3.2379980079369792,5.602929223069577,0.0,0.0
98.0,127.0,0.3,3.2379980079369792,5.602929223069577,0.0,0.0
98.0,127.0,0.7,3.2379980079369792,5.602929223069577,0.0,0.0
98.0,127.0,1.0,3.2379980079369792,5.602929223069577,0.0,0.0
99.0,1.0,0.1,1.4023838006101415,-1.9116691514434365,0.0,0.0
99.0,1.0,0.3,1.4023838006101415,-1.9116691514434365,0.0,0.0
99.0,1.0,0.7,1.4023838006101415,-1.9116691514434365,0.0,0.0
99.0,1.0,1.0,1.4023838006101415,-1.9116691514434365,0.0,0.0
99.0,9.0,0.1,0.7879747636102963,-1.6347560094483748,0.0,0.0
99.0,9.0,0.3,0.7879747636102963,-1.6347560094483748,0.0,0.0
99.0,9.0,0.7,0.7879747636102963,-1.6347560094483748,0.0,0.0
99.0,9.0,1.0,0.7879747636102963,-1.6347560094483748,0.0,0.0
99.0,17.0,0.1,0.8608261730037899,-1.8563030494461084,0.0,0.0
99.0,17.0,0.3,0.8608261730037899,-1.8563030494461084,0.0,0.0
99.0,17.0,0.7,0.8608261730037899,-1.8563030494461084,0.0,0.0
99.0,17.0,1.0,0.8608261730037899,-1.8563030494461084,0.0,0.0
99.0,25.0,0.1,0.9071923741531515,-0.23328283165466546,0.0,0.0
99.0,25.0,0.3,0.9071923741531515,-0.23328283165466546,0.0,0.0
99.0,25.0,0.7,0.9071923741531515,-0.23328283165466546,0.0,0.0
99.0,25.0,1.0,0.9071923741531515,-0.23328283165466546,0.0,0.0
99.0,33.0,0.1,0.9389612654772644,0.6775613518866953,0.0,0.0
99.0,33.0,0.3,0.9389612654772644,0.6775613518866953,0.0,0.0
99.0,33.0,0.7,0.9389612654772644,0.6775613518866953,0.0,0.0
99.0,33.0,1.0,0.9389612654772644,0.6775613518866953,0.0,0.0
99.0,41.0,0.1,1.164889047509018,0.8361009877361002,0.0,0.0
99.0,41.0,0.3,1.164889047509018,0.8361009877361002,0.0,0.0
99.0,41.0,0.7,1.164889047509018,0.8361009877361002,0.0,0.0
99.0,41.0,1.0,1.164889047509018,0.8361009877361002,0.0,0.0
99.0,49.0,0.1,1.3035682544043192,2.1121284484307243,0.0,0.0
99.0,49.0,0.3,1.3035682544043192,2.1121284484307243,0.0,0.0
99.0,49.0,0.7,1.3035682544043192,2.1121284484307243,0.0,0.0
99.0,49.0,1.0,1.3035682544043192,2.1121284484307243,0.0,0.0
99.0,57.0,0.1,1.363327818996107,2.181118306618821,0.0,0.0
99.0,57.0,0.3,1.363327818996107,2.181118306618821,0.0,0.0
99.0,57.0,0.7,1.363327818996107,2.181118306618821,0.0,0.0
99.0,57.0,1.0,1.363327818996107,2.181118306618821,0.0,0.0
99.0,65.0,0.1,1.6556411578368726,3.0069620932773997,0.0,0.0
99.0,65.0,0.3,1.6556411578368726,3.0069620932773997,0.0,0.0
99.0,65.0,0.7,1.6556411578368726,3.0069620932773997,0.0,0.0
99.0,65.0,1.0,1.6556411578368726,3.0069620932773997,0.0,0.0
99.0,73.0,0.1,2.5748677320713425,3.2434907496528393,0.0,0.0
99.0,73.0,0.3,2.5748677320713425,3.2434907496528393,0.0,0.0
99.0,73.0,0.7,2.5748677320713425,3.2434907496528393,0.0,0.0
99.0,73.0,1.0,2.5748677320713425,3.2434907496528393,0.0,0.0
99.0,81.0,0.1,2.741721535940318,3.6740886147181415,0.0,0.0
99.0,81.0,0.3,2.741721535940318,3.6740886147181415,0.0,0.0
99.0,81.0,0.7,2.741721535940318,3.6740886147181415,0.0,0.0
99.0,81.0,1.0,2.741721535940318,3.6740886147181415,0.0,0.0
99.0,89.0,0.1,3.179351121491655,4.767213968890909,0.0,0.0
99.0,89.0,0.3,3.179351121491655,4.767213968890909,0.0,0.0
99.0,89.0,0.7,3.179351121491655,4.767213968890909,0.0,0.0
99.0,89.0,1.0,3.179351121491655,4.767213968890909,0.0,0.0
99.0,97.0,0.1,3.3400721507468742,5.329226075115902,0.0,0.0
99.0,97.0,0.3,3.3400721507468742,5.329226075115902,0.0,0.0
99.0,97.0,0.7,3.3400721507468742,5.329226075115902,0.0,0.0
99.0,97.0,1.0,3.3400721507468742,5.329226075115902,0.0,0.0
99.0,105.0,0.1,3.394655448757855,5.472702956284138,0.0,0.0
99.0,105.0,0.3,3.394655448757855,5.472702956284138,0.0,0.0
99.0,105.0,0.7,3.394655448757855,5.472702956284138,0.0,0.0
99.0,105.0,1.0,3.394655448757855,5.472702956284138,0.0,0.0
99.0,113.0,0.1,3.3899850048743474,5.721023955805925,0.0,0.0
99.0,113.0,0.3,3.3899850048743474,5.721023955805925,0.0,0.0
99.0,113.0,0.7,3.3899850048743474,5.721023955805925,0.0,0.0
99.0,113.0,1.0,3.3899850048743474,5.721023955805925,0.0,0.0
99.0,121.0,0.1,3.3671171373090227,5.985358297020537,0.0,0.0
99.0,121.0,0.3,3.3671171373090227,5.985358297020537,0.0,0.0
99.0,121.0,0.7,3.3671171373090227,5.985358297020537,0.0,0.0
99.0,121.0,1.0,3.3671171373090227,5.985358297020537,0.0,0.0
99.0,127.0,0.1,3.3696972993659595,6.312417407092696,0.0,0.0
99.0,127.0,0.3,3.3696972993659595,6.312417407092696,0.0,0.0
99.0,127.0,0.7,3.3696972993659595,6.312417407092696,0.0,0.0
99.0,127.0,1.0,3.3696972993659595,6.312417407092696,0.0,0.0
100.0,1.0,0.1,0.8014894143135582,-2.1260444660580085,0.0,0.0
100.0,1.0,0.3,0.8014894143135582,-2.1260444660580085,0.0,0.0
100.0,1.0,0.7,0.8014894143135582,-2.1260444660580085,0.0,0.0
100.0,1.0,1.0,0.8014894143135582,-2.1260444660580085,0.0,0.0
100.0,9.0,0.1,0.6044496603546746,-2.2256631676303558,0.0,0.0
100.0,9.0,0.3,0.6044496603546746,-2.2256631676303558,0.0,0.0
100.0,9.0,0.7,0.6044496603546746,-2.2256631676303558,0.0,0.0
100.0,9.0,1.0,0.6044496603546746,-2.2256631676303558,0.0,0.0
100.0,17.0,0.1,0.7816722320478023,-2.034872869420687,0.0,0.0
100.0,17.0,0.3,0.7816722320478023,-2.034872869420687,0.0,0.0
100.0,17.0,0.7,0.7816722320478023,-2.034872869420687,0.0,0.0
100.0,17.0,1.0,0.7816722320478023,-2.034872869420687,0.0,0.0
100.0,25.0,0.1,0.5001448240301359,-0.7711887467582064,0.0,0.0
100.0,25.0,0.3,0.5001448240301359,-0.7711887467582064,0.0,0.0
100.0,25.0,0.7,0.5001448240301359,-0.7711887467582064,0.0,0.0
100.0,25.0,1.0,0.5001448240301359,-0.7711887467582064,0.0,0.0
100.0,33.0,0.1,0.35890520015276434,0.7029778197840283,0.0,0.0
100.0,33.0,0.3,0.35890520015276434,0.7029778197840283,0.0,0.0
100.0,33.0,0.7,0.35890520015276434,0.7029778197840283,0.0,0.0
100.0,33.0,1.0,0.35890520015276434,0.7029778197840283,0.0,0.0
100.0,41.0,0.1,0.6973957436366889,1.2278030351670735,0.0,0.0
100.0,41.0,0.3,0.6973957436366889,1.2278030351670735,0.0,0.0
100.0,41.0,0.7,0.6973957436366889,1.2278030351670735,0.0,0.0
100.0,41.0,1.0,0.6973957436366889,1.2278030351670735,0.0,0.0
100.0,49.0,0.1,0.8637349612221956,1.9893620353959987,0.0,0.0
100.0,49.0,0.3,0.8637349612221956,1.9893620353959987,0.0,0.0
100.0,49.0,0.7,0.8637349612221956,1.9893620353959987,0.0,0.0
100.0,49.0,1.0,0.8637349612221956,1.9893620353959987,0.0,0.0
100.0,57.0,0.1,1.2223542697778338,2.6661542950258155,0.0,0.0
100.0,57.0,0.3,1.2223542697778338,2.6661542950258155,0.0,0.0
100.0,57.0,0.7,1.2223542697778338,2.6661542950258155,0.0,0.0
100.0,57.0,1.0,1.2223542697778338,2.6661542950258155,0.0,0.0
100.0,65.0,0.1,1.5169575779345208,3.1830001034317976,0.0,0.0
100.0,65.0,0.3,1.5169575779345208,3.1830001034317976,0.0,0.0
100.0,65.0,0.7,1.5169575779345208,3.1830001034317976,0.0,0.0
100.0,65.0,1.0,1.5169575779345208,3.1830001034317976,0.0,0.0
100.0,73.0,0.1,1.7150570569518893,3.456852883629445,0.0,0.0
100.0,73.0,0.3,1.7150570569518893,3.456852883629445,0.0,0.0
100.0,73.0,0.7,1.7150570569518893,3.456852883629445,0.0,0.0
100.0,73.0,1.0,1.7150570569518893,3.456852883629445,0.0,0.0
100.0,81.0,0.1,2.734793565214761,3.630458879488394,0.0,0.0
100.0,81.0,0.3,2.734793565214761,3.630458879488394,0.0,0.0
100.0,81.0,0.7,2.734793565214761,3.630458879488394,0.0,0.0
100.0,81.0,1.0,2.734793565214761,3.630458879488394,0.0,0.0
100.0,89.0,0.1,3.101201902896696,4.304915405783081,0.0,0.0
100.0,89.0,0.3,3.101201902896696,4.304915405783081,0.0,0.0
100.0,89.0,0.7,3.101201902896696,4.304915405783081,0.0,0.0
100.0,89.0,1.0,3.101201902896696,4.304915405783081,0.0,0.0
100.0,97.0,0.1,3.39706093049878,5.345840117499893,0.0,0.0
100.0,97.0,0.3,3.39706093049878,5.345840117499893,0.0,0.0
100.0,97.0,0.7,3.39706093049878,5.345840117499893,0.0,0.0
100.0,97.0,1.0,3.39706093049878,5.345840117499893,0.0,0.0
100.0,105.0,0.1,3.2819765901513827,5.34593493514286,0.0,0.0
100.0,105.0,0.3,3.2819765901513827,5.34593493514286,0.0,0.0
100.0,105.0,0.7,3.2819765901513827,5.34593493514286,0.0,0.0
100.0,105.0,1.0,3.2819765901513827,5.34593493514286,0.0,0.0
100.0,113.0,0.1,3.328760119776734,6.001959055764403,0.0,0.0
100.0,113.0,0.3,3.328760119776734,6.001959055764403,0.0,0.0
100.0,113.0,0.7,3.328760119776734,6.001959055764403,0.0,0.0
100.0,113.0,1.0,3.328760119776734,6.001959055764403,0.0,0.0
100.0,121.0,0.1,3.321166832400056,5.660130051912713,0.0,0.0
100.0,121.0,0.3,3.321166832400056,5.660130051912713,0.0,0.0
100.0,121.0,0.7,3.321166832400056,5.660130051912713,0.0,0.0
100.0,121.0,1.0,3.321166832400056,5.660130051912713,0.0,0.0
100.0,127.0,0.1,3.404582304011252,5.666266921166259,0.0,0.0
100.0,127.0,0.3,3.404582304011252,5.666266921166259,0.0,0.0
100.0,127.0,0.7,3.404582304011252,5.666266921166259,0.0,0.0
100.0,127.0,1.0,3.404582304011252,5.666266921166259,0.0,0.0
101.0,1.0,0.1,0.9536100898176219,-1.7127363501873527,0.0,0.0
101.0,1.0,0.3,0.9536100898176219,-1.7127363501873527,0.0,0.0
101.0,1.0,0.7,0.9536100898176219,-1.7127363501873527,0.0,0.0
101.0,1.0,1.0,0.9536100898176219,-1.7127363501873527,0.0,0.0
101.0,9.0,0.1,-1.2689462752513945,-2.3054357720724417,0.0,0.0
101.0,9.0,0.3,-1.2689462752513945,-2.3054357720724417,0.0,0.0
101.0,9.0,0.7,-1.2689462752513945,-2.3054357720724417,0.0,0.0
101.0,9.0,1.0,-1.2689462752513945,-2.3054357720724417,0.0,0.0
101.0,17.0,0.1,0.7493349985820551,-1.5388808939161942,0.0,0.0
101.0,17.0,0.3,0.7493349985820551,-1.5388808939161942,0.0,0.0
101.0,17.0,0.7,0.7493349985820551,-1.5388808939161942,0.0,0.0
101.0,17.0,1.0,0.7493349985820551,-1.5388808939161942,0.0,0.0
101.0,25.0,0.1,-2.0300959331696964,-0.4186150005019203,0.0,0.0
101.0,25.0,0.3,-2.0300959331696964,-0.4186150005019203,0.0,0.0
101.0,25.0,0.7,-2.0300959331696964,-0.4186150005019203,0.0,0.0
101.0,25.0,1.0,-2.0300959331696964,-0.4186150005019203,0.0,0.0
101.0,33.0,0.1,0.8767187064830952,0.6602758390317297,0.0,0.0
101.0,33.0,0.3,0.8767187064830952,0.6602758390317297,0.0,0.0
101.0,33.0,0.7,0.8767187064830952,0.6602758390317297,0.0,0.0
101.0,33.0,1.0,0.8767187064830952,0.6602758390317297,0.0,0.0
101.0,41.0,0.1,1.0511873985089952,1.0821264755756843,0.0,0.0
101.0,41.0,0.3,1.0511873985089952,1.0821264755756843,0.0,0.0
101.0,41.0,0.7,1.0511873985089952,1.0821264755756843,0.0,0.0
101.0,41.0,1.0,1.0511873985089952,1.0821264755756843,0.0,0.0
101.0,49.0,0.1,1.2851999896861586,1.5600311229841595,0.0,0.0
101.0,49.0,0.3,1.2851999896861586,1.5600311229841595,0.0,0.0
101.0,49.0,0.7,1.2851999896861586,1.5600311229841595,0.0,0.0
101.0,49.0,1.0,1.2851999896861586,1.5600311229841595,0.0,0.0
101.0,57.0,0.1,1.5276489163835696,2.242867198810943,0.0,0.0
101.0,57.0,0.3,1.5276489163835696,2.242867198810943,0.0,0.0
101.0,57.0,0.7,1.5276489163835696,2.242867198810943,0.0,0.0
101.0,57.0,1.0,1.5276489163835696,2.242867198810943,0.0,0.0
101.0,65.0,0.1,2.1047740439042393,3.04877490668247,0.0,0.0
101.0,65.0,0.3,2.1047740439042393,3.04877490668247,0.0,0.0
101.0,65.0,0.7,2.1047740439042393,3.04877490668247,0.0,0.0
101.0,65.0,1.0,2.1047740439042393,3.04877490668247,0.0,0.0
101.0,73.0,0.1,2.899357453242458,3.193436234798589,0.0,0.0
101.0,73.0,0.3,2.899357453242458,3.193436234798589,0.0,0.0
101.0,73.0,0.7,2.899357453242458,3.193436234798589,0.0,0.0
101.0,73.0,1.0,2.899357453242458,3.193436234798589,0.0,0.0
101.0,81.0,0.1,3.0935667857166886,3.5146094492013873,0.0,0.0
101.0,81.0,0.3,3.0935667857166886,3.5146094492013873,0.0,0.0
101.0,81.0,0.7,3.0935667857166886,3.5146094492013873,0.0,0.0
101.0,81.0,1.0,3.0935667857166886,3.5146094492013873,0.0,0.0
101.0,89.0,0.1,3.159413572052799,3.9014736031101247,0.0,0.0
101.0,89.0,0.3,3.159413572052799,3.9014736031101247,0.0,0.0
101.0,89.0,0.7,3.159413572052799,3.9014736031101247,0.0,0.0
101.0,89.0,1.0,3.159413572052799,3.9014736031101247,0.0,0.0
101.0,97.0,0.1,3.417805342154855,5.026145709231027,0.0,0.0
101.0,97.0,0.3,3.417805342154855,5.026145709231027,0.0,0.0
101.0,97.0,0.7,3.417805342154855,5.026145709231027,0.0,0.0
101.0,97.0,1.0,3.417805342154855,5.026145709231027,0.0,0.0
101.0,105.0,0.1,3.4698698096329625,5.758097901640717,0.0,0.0
101.0,105.0,0.3,3.4698698096329625,5.758097901640717,0.0,0.0
101.0,105.0,0.7,3.4698698096329625,5.758097901640717,0.0,0.0
101.0,105.0,1.0,3.4698698096329625,5.758097901640717,0.0,0.0
101.0,113.0,0.1,3.5156509163116945,5.545116632395999,0.0,0.0
101.0,113.0,0.3,3.5156509163116945,5.545116632395999,0.0,0.0
101.0,113.0,0.7,3.5156509163116945,5.545116632395999,0.0,0.0
101.0,113.0,1.0,3.5156509163116945,5.545116632395999,0.0,0.0
101.0,121.0,0.1,3.5062249752039225,5.65120539215158,0.0,0.0
101.0,121.0,0.3,3.5062249752039225,5.65120539215158,0.0,0.0
101.0,121.0,0.7,3.5062249752039225,5.65120539215158,0.0,0.0
101.0,121.0,1.0,3.5062249752039225,5.65120539215158,0.0,0.0
101.0,127.0,0.1,3.562308034033582,5.678971430527772,0.0,0.0
101.0,127.0,0.3,3.562308034033582,5.678971430527772,0.0,0.0
101.0,127.0,0.7,3.562308034033582,5.678971430527772,0.0,0.0
101.0,127.0,1.0,3.562308034033582,5.678971430527772,0.0,0.0
102.0,1.0,0.1,-3.2092885479385647,-1.0829710763403655,0.0,0.0
102.0,1.0,0.3,-3.2092885479385647,-1.0829710763403655,0.0,0.0
102.0,1.0,0.7,-3.2092885479385647,-1.0829710763403655,0.0,0.0
102.0,1.0,1.0,-3.2092885479385647,-1.0829710763403655,0.0,0.0
102.0,9.0,0.1,0.6876102586226359,-1.6539918772588558,0.0,0.0
102.0,9.0,0.3,0.6876102586226359,-1.6539918772588558,0.0,0.0
102.0,9.0,0.7,0.6876102586226359,-1.6539918772588558,0.0,0.0
102.0,9.0,1.0,0.6876102586226359,-1.6539918772588558,0.0,0.0
102.0,17.0,0.1,-3.577756857541626,-1.1180529346484063,0.0,0.0
102.0,17.0,0.3,-3.577756857541626,-1.1180529346484063,0.0,0.0
102.0,17.0,0.7,-3.577756857541626,-1.1180529346484063,0.0,0.0
102.0,17.0,1.0,-3.577756857541626,-1.1180529346484063,0.0,0.0
102.0,25.0,0.1,-1.6509143964526227,-0.3302603525502224,0.0,0.0
102.0,25.0,0.3,-1.6509143964526227,-0.3302603525502224,0.0,0.0
102.0,25.0,0.7,-1.6509143964526227,-0.3302603525502224,0.0,0.0
102.0,25.0,1.0,-1.6509143964526227,-0.3302603525502224,0.0,0.0
102.0,33.0,0.1,-3.209194649491475,0.7680653781763372,0.0,0.0
102.0,33.0,0.3,-3.209194649491475,0.7680653781763372,0.0,0.0
102.0,33.0,0.7,-3.209194649491475,0.7680653781763372,0.0,0.0
102.0,33.0,1.0,-3.209194649491475,0.7680653781763372,0.0,0.0
102.0,41.0,0.1,0.7557904203914272,0.9868254862479178,0.0,0.0
102.0,41.0,0.3,0.7557904203914272,0.9868254862479178,0.0,0.0
102.0,41.0,0.7,0.7557904203914272,0.9868254862479178,0.0,0.0
102.0,41.0,1.0,0.7557904203914272,0.9868254862479178,0.0,0.0
102.0,49.0,0.1,0.7204609211293245,1.5084909797394663,0.0,0.0
102.0,49.0,0.3,0.7204609211293245,1.5084909797394663,0.0,0.0
102.0,49.0,0.7,0.7204609211293245,1.5084909797394663,0.0,0.0
102.0,49.0,1.0,0.7204609211293245,1.5084909797394663,0.0,0.0
102.0,57.0,0.1,1.0079882703168745,2.2779044246642046,0.0,0.0
102.0,57.0,0.3,1.0079882703168745,2.2779044246642046,0.0,0.0
102.0,57.0,0.7,1.0079882703168745,2.2779044246642046,0.0,0.0
102.0,57.0,1.0,1.0079882703168745,2.2779044246642046,0.0,0.0
102.0,65.0,0.1,1.5067500140787689,2.9517178195859914,0.0,0.0
102.0,65.0,0.3,1.5067500140787689,2.9517178195859914,0.0,0.0
102.0,65.0,0.7,1.5067500140787689,2.9517178195859914,0.0,0.0
102.0,65.0,1.0,1.5067500140787689,2.9517178195859914,0.0,0.0
102.0,73.0,0.1,2.0548097258209967,3.2764949854214365,0.0,0.0
102.0,73.0,0.3,2.0548097258209967,3.2764949854214365,0.0,0.0
102.0,73.0,0.7,2.0548097258209967,3.2764949854214365,0.0,0.0
102.0,73.0,1.0,2.0548097258209967,3.2764949854214365,0.0,0.0
102.0,81.0,0.1,2.594346598695518,3.735833148950191,0.0,0.0
102.0,81.0,0.3,2.594346598695518,3.735833148950191,0.0,0.0
102.0,81.0,0.7,2.594346598695518,3.735833148950191,0.0,0.0
102.0,81.0,1.0,2.594346598695518,3.735833148950191,0.0,0.0
102.0,89.0,0.1,3.130668143108323,4.812405045556841,0.0,0.0
102.0,89.0,0.3,3.130668143108323,4.812405045556841,0.0,0.0
102.0,89.0,0.7,3.130668143108323,4.812405045556841,0.0,0.0
102.0,89.0,1.0,3.130668143108323,4.812405045556841,0.0,0.0
102.0,97.0,0.1,3.2251790584153417,5.03785423449841,0.0,0.0
102.0,97.0,0.3,3.2251790584153417,5.03785423449841,0.0,0.0
102.0,97.0,0.7,3.2251790584153417,5.03785423449841,0.0,0.0
102.0,97.0,1.0,3.2251790584153417,5.03785423449841,0.0,0.0
102.0,105.0,0.1,3.1846769975573705,5.536785582615457,0.0,0.0
102.0,105.0,0.3,3.1846769975573705,5.536785582615457,0.0,0.0
102.0,105.0,0.7,3.1846769975573705,5.536785582615457,0.0,0.0
102.0,105.0,1.0,3.1846769975573705,5.536785582615457,0.0,0.0
102.0,113.0,0.1,3.2067101505247813,5.352305658786922,0.0,0.0
102.0,113.0,0.3,3.2067101505247813,5.352305658786922,0.0,0.0
102.0,113.0,0.7,3.2067101505247813,5.352305658786922,0.0,0.0
102.0,113.0,1.0,3.2067101505247813,5.352305658786922,0.0,0.0
102.0,121.0,0.1,3.2242369116984384,5.583563151454689,0.0,0.0
102.0,121.0,0.3,3.2242369116984384,5.583563151454689,0.0,0.0
102.0,121.0,0.7,3.2242369116984384,5.583563151454689,0.0,0.0
102.0,121.0,1.0,3.2242369116984384,5.583563151454689,0.0,0.0
102.0,127.0,0.1,3.224623112671245,5.610329868259225,0.0,0.0
102.0,127.0,0.3,3.224623112671245,5.610329868259225,0.0,0.0
102.0,127.0,0.7,3.224623112671245,5.610329868259225,0.0,0.0
102.0,127.0,1.0,3.224623112671245,5.610329868259225,0.0,0.0
103.0,1.0,0.1,1.211255582837853,-1.0170874894786435,0.0,0.0
103.0,1.0,0.3,1.211255582837853,-1.0170874894786435,0.0,0.0
103.0,1.0,0.7,1.211255582837853,-1.0170874894786435,0.0,0.0
103.0,1.0,1.0,1.211255582837853,-1.0170874894786435,0.0,0.0
103.0,9.0,0.1,-3.313485302291644,-1.0332675728278975,0.0,0.0
103.0,9.0,0.3,-3.313485302291644,-1.0332675728278975,0.0,0.0
103.0,9.0,0.7,-3.313485302291644,-1.0332675728278975,0.0,0.0
103.0,9.0,1.0,-3.313485302291644,-1.0332675728278975,0.0,0.0
103.0,17.0,0.1,-3.7929209757555586,-0.9426523669490887,0.0,0.0
103.0,17.0,0.3,-3.7929209757555586,-0.9426523669490887,0.0,0.0
103.0,17.0,0.7,-3.7929209757555586,-0.9426523669490887,0.0,0.0
103.0,17.0,1.0,-3.7929209757555586,-0.9426523669490887,0.0,0.0
103.0,25.0,0.1,-1.9655377481467873,0.5111887222574758,0.0,0.0
103.0,25.0,0.3,-1.9655377481467873,0.5111887222574758,0.0,0.0
103.0,25.0,0.7,-1.9655377481467873,0.5111887222574758,0.0,0.0
103.0,25.0,1.0,-1.9655377481467873,0.5111887222574758,0.0,0.0
103.0,33.0,0.1,-0.10733071428119423,1.1896050633412592,0.0,0.0
103.0,33.0,0.3,-0.10733071428119423,1.1896050633412592,0.0,0.0
103.0,33.0,0.7,-0.10733071428119423,1.1896050633412592,0.0,0.0
103.0,33.0,1.0,-0.10733071428119423,1.1896050633412592,0.0,0.0
103.0,41.0,0.1,0.9543264804347076,1.9389237692507035,0.0,0.0
103.0,41.0,0.3,0.9543264804347076,1.9389237692507035,0.0,0.0
103.0,41.0,0.7,0.9543264804347076,1.9389237692507035,0.0,0.0
103.0,41.0,1.0,0.9543264804347076,1.9389237692507035,0.0,0.0
103.0,49.0,0.1,0.9825717275473637,2.5963738678031842,0.0,0.0
103.0,49.0,0.3,0.9825717275473637,2.5963738678031842,0.0,0.0
103.0,49.0,0.7,0.9825717275473637,2.5963738678031842,0.0,0.0
103.0,49.0,1.0,0.9825717275473637,2.5963738678031842,0.0,0.0
103.0,57.0,0.1,1.4229888853815287,2.820910434393683,0.0,0.0
103.0,57.0,0.3,1.4229888853815287,2.820910434393683,0.0,0.0
103.0,57.0,0.7,1.4229888853815287,2.820910434393683,0.0,0.0
103.0,57.0,1.0,1.4229888853815287,2.820910434393683,0.0,0.0
103.0,65.0,0.1,1.8288363548058957,3.195430297571104,0.0,0.0
103.0,65.0,0.3,1.8288363548058957,3.195430297571104,0.0,0.0
103.0,65.0,0.7,1.8288363548058957,3.195430297571104,0.0,0.0
103.0,65.0,1.0,1.8288363548058957,3.195430297571104,0.0,0.0
103.0,73.0,0.1,2.735148001577525,3.359011398421072,0.0,0.0
103.0,73.0,0.3,2.735148001577525,3.359011398421072,0.0,0.0
103.0,73.0,0.7,2.735148001577525,3.359011398421072,0.0,0.0
103.0,73.0,1.0,2.735148001577525,3.359011398421072,0.0,0.0
103.0,81.0,0.1,3.026601190889079,3.761910153590631,0.0,0.0
103.0,81.0,0.3,3.026601190889079,3.761910153590631,0.0,0.0
103.0,81.0,0.7,3.026601190889079,3.761910153590631,0.0,0.0
103.0,81.0,1.0,3.026601190889079,3.761910153590631,0.0,0.0
103.0,89.0,0.1,3.2510351393741352,4.733967771905085,0.0,0.0
103.0,89.0,0.3,3.2510351393741352,4.733967771905085,0.0,0.0
103.0,89.0,0.7,3.2510351393741352,4.733967771905085,0.0,0.0
103.0,89.0,1.0,3.2510351393741352,4.733967771905085,0.0,0.0
103.0,97.0,0.1,3.2641249160972508,5.177486188134501,0.0,0.0
103.0,97.0,0.3,3.2641249160972508,5.177486188134501,0.0,0.0
103.0,97.0,0.7,3.2641249160972508,5.177486188134501,0.0,0.0
103.0,97.0,1.0,3.2641249160972508,5.177486188134501,0.0,0.0
103.0,105.0,0.1,3.364859644464129,5.588321753822043,0.0,0.0
103.0,105.0,0.3,3.364859644464129,5.588321753822043,0.0,0.0
103.0,105.0,0.7,3.364859644464129,5.588321753822043,0.0,0.0
103.0,105.0,1.0,3.364859644464129,5.588321753822043,0.0,0.0
103.0,113.0,0.1,3.352631401509909,5.517881977203893,0.0,0.0
103.0,113.0,0.3,3.352631401509909,5.517881977203893,0.0,0.0
103.0,113.0,0.7,3.352631401509909,5.517881977203893,0.0,0.0
103.0,113.0,1.0,3.352631401509909,5.517881977203893,0.0,0.0
103.0,121.0,0.1,3.3818248284840617,5.646616020268807,0.0,0.0
103.0,121.0,0.3,3.3818248284840617,5.646616020268807,0.0,0.0
103.0,121.0,0.7,3.3818248284840617,5.646616020268807,0.0,0.0
103.0,121.0,1.0,3.3818248284840617,5.646616020268807,0.0,0.0
103.0,127.0,0.1,3.3867209139009313,5.649544311196472,0.0,0.0
103.0,127.0,0.3,3.3867209139009313,5.649544311196472,0.0,0.0
103.0,127.0,0.7,3.3867209139009313,5.649544311196472,0.0,0.0
103.0,127.0,1.0,3.3867209139009313,5.649544311196472,0.0,0.0
104.0,1.0,0.1,-3.417742522737451,-1.4698727753093803,0.0,0.0
104.0,1.0,0.3,-3.417742522737451,-1.4698727753093803,0.0,0.0
104.0,1.0,0.7,-3.417742522737451,-1.4698727753093803,0.0,0.0
104.0,1.0,1.0,-3.417742522737451,-1.4698727753093803,0.0,0.0
104.0,9.0,0.1,-3.2943055544501494,-1.290509567373078,0.0,0.0
104.0,9.0,0.3,-3.2943055544501494,-1.290509567373078,0.0,0.0
104.0,9.0,0.7,-3.2943055544501494,-1.290509567373078,0.0,0.0
104.0,9.0,1.0,-3.2943055544501494,-1.290509567373078,0.0,0.0
104.0,17.0,0.1,0.5651975939103411,-1.3658415465343885,0.0,0.0
104.0,17.0,0.3,0.5651975939103411,-1.3658415465343885,0.0,0.0
104.0,17.0,0.7,0.5651975939103411,-1.3658415465343885,0.0,0.0
104.0,17.0,1.0,0.5651975939103411,-1.3658415465343885,0.0,0.0
104.0,25.0,0.1,0.6822130608044714,0.3684236124560341,0.0,0.0
104.0,25.0,0.3,0.6822130608044714,0.3684236124560341,0.0,0.0
104.0,25.0,0.7,0.6822130608044714,0.3684236124560341,0.0,0.0
104.0,25.0,1.0,0.6822130608044714,0.3684236124560341,0.0,0.0
104.0,33.0,0.1,0.7370874274213612,0.4850852799969083,0.0,0.0
104.0,33.0,0.3,0.7370874274213612,0.4850852799969083,0.0,0.0
104.0,33.0,0.7,0.7370874274213612,0.4850852799969083,0.0,0.0
104.0,33.0,1.0,0.7370874274213612,0.4850852799969083,0.0,0.0
104.0,41.0,0.1,0.7756691372220831,1.1466819536526736,0.0,0.0
104.0,41.0,0.3,0.7756691372220831,1.1466819536526736,0.0,0.0
104.0,41.0,0.7,0.7756691372220831,1.1466819536526736,0.0,0.0
104.0,41.0,1.0,0.7756691372220831,1.1466819536526736,0.0,0.0
104.0,49.0,0.1,0.9803200855152734,2.3408530570237827,0.0,0.0
104.0,49.0,0.3,0.9803200855152734,2.3408530570237827,0.0,0.0
104.0,49.0,0.7,0.9803200855152734,2.3408530570237827,0.0,0.0
104.0,49.0,1.0,0.9803200855152734,2.3408530570237827,0.0,0.0
104.0,57.0,0.1,1.3963271457170217,2.5107373711333807,0.0,0.0
104.0,57.0,0.3,1.3963271457170217,2.5107373711333807,0.0,0.0
104.0,57.0,0.7,1.3963271457170217,2.5107373711333807,0.0,0.0
104.0,57.0,1.0,1.3963271457170217,2.5107373711333807,0.0,0.0
104.0,65.0,0.1,1.4620786328302153,2.8757745494025153,0.0,0.0
104.0,65.0,0.3,1.4620786328302153,2.8757745494025153,0.0,0.0
104.0,65.0,0.7,1.4620786328302153,2.8757745494025153,0.0,0.0
104.0,65.0,1.0,1.4620786328302153,2.8757745494025153,0.0,0.0
104.0,73.0,0.1,1.9286435620114413,3.40296418214539,0.0,0.0
104.0,73.0,0.3,1.9286435620114413,3.40296418214539,0.0,0.0
104.0,73.0,0.7,1.9286435620114413,3.40296418214539,0.0,0.0
104.0,73.0,1.0,1.9286435620114413,3.40296418214539,0.0,0.0
104.0,81.0,0.1,2.1126423388199442,3.773200436879495,0.0,0.0
104.0,81.0,0.3,2.1126423388199442,3.773200436879495,0.0,0.0
104.0,81.0,0.7,2.1126423388199442,3.773200436879495,0.0,0.0
104.0,81.0,1.0,2.1126423388199442,3.773200436879495,0.0,0.0
104.0,89.0,0.1,3.0810853336510378,4.778852473456216,0.0,0.0
104.0,89.0,0.3,3.0810853336510378,4.778852473456216,0.0,0.0
104.0,89.0,0.7,3.0810853336510378,4.778852473456216,0.0,0.0
104.0,89.0,1.0,3.0810853336510378,4.778852473456216,0.0,0.0
104.0,97.0,0.1,3.136043141056579,5.278356273419907,0.0,0.0
104.0,97.0,0.3,3.136043141056579,5.278356273419907,0.0,0.0
104.0,97.0,0.7,3.136043141056579,5.278356273419907,0.0,0.0
104.0,97.0,1.0,3.136043141056579,5.278356273419907,0.0,0.0
104.0,105.0,0.1,3.2486270291471113,5.225410960247148,0.0,0.0
104.0,105.0,0.3,3.2486270291471113,5.225410960247148,0.0,0.0
104.0,105.0,0.7,3.2486270291471113,5.225410960247148,0.0,0.0
104.0,105.0,1.0,3.2486270291471113,5.225410960247148,0.0,0.0
104.0,113.0,0.1,3.256913704446214,5.485340941371004,0.0,0.0
104.0,113.0,0.3,3.256913704446214,5.485340941371004,0.0,0.0
104.0,113.0,0.7,3.256913704446214,5.485340941371004,0.0,0.0
104.0,113.0,1.0,3.256913704446214,5.485340941371004,0.0,0.0
104.0,121.0,0.1,3.2481651670362828,5.687834302259267,0.0,0.0
104.0,121.0,0.3,3.2481651670362828,5.687834302259267,0.0,0.0
104.0,121.0,0.7,3.2481651670362828,5.687834302259267,0.0,0.0
104.0,121.0,1.0,3.2481651670362828,5.687834302259267,0.0,0.0
104.0,127.0,0.1,3.2408843137926664,5.684343962087776,0.0,0.0
104.0,127.0,0.3,3.2408843137926664,5.684343962087776,0.0,0.0
104.0,127.0,0.7,3.2408843137926664,5.684343962087776,0.0,0.0
104.0,127.0,1.0,3.2408843137926664,5.684343962087776,0.0,0.0
105.0,1.0,0.1,0.8733370706071992,-0.462705659829213,0.0,0.0
105.0,1.0,0.3,0.8733370706071992,-0.462705659829213,0.0,0.0
105.0,1.0,0.7,0.8733370706071992,-0.462705659829213,0.0,0.0
105.0,1.0,1.0,0.8733370706071992,-0.462705659829213,0.0,0.0
105.0,9.0,0.1,-0.6346078095316323,-0.20744748973872884,0.0,0.0
105.0,9.0,0.3,-0.6346078095316323,-0.20744748973872884,0.0,0.0
105.0,9.0,0.7,-0.6346078095316323,-0.20744748973872884,0.0,0.0
105.0,9.0,1.0,-0.6346078095316323,-0.20744748973872884,0.0,0.0
105.0,17.0,0.1,-1.9022483577201788,-0.42514710124261096,0.0,0.0
105.0,17.0,0.3,-1.9022483577201788,-0.42514710124261096,0.0,0.0
105.0,17.0,0.7,-1.9022483577201788,-0.42514710124261096,0.0,0.0
105.0,17.0,1.0,-1.9022483577201788,-0.42514710124261096,0.0,0.0
105.0,25.0,0.1,-2.0197277750646094,0.5225642624749575,0.0,0.0
105.0,25.0,0.3,-2.0197277750646094,0.5225642624749575,0.0,0.0
105.0,25.0,0.7,-2.0197277750646094,0.5225642624749575,0.0,0.0
105.0,25.0,1.0,-2.0197277750646094,0.5225642624749575,0.0,0.0
105.0,33.0,0.1,-1.8227266909373248,0.736100200694906,0.0,0.0
105.0,33.0,0.3,-1.8227266909373248,0.736100200694906,0.0,0.0
105.0,33.0,0.7,-1.8227266909373248,0.736100200694906,0.0,0.0
105.0,33.0,1.0,-1.8227266909373248,0.736100200694906,0.0,0.0
105.0,41.0,0.1,0.8843155376371559,1.301910709310911,0.0,0.0
105.0,41.0,0.3,0.8843155376371559,1.301910709310911,0.0,0.0
105.0,41.0,0.7,0.8843155376371559,1.301910709310911,0.0,0.0
105.0,41.0,1.0,0.8843155376371559,1.301910709310911,0.0,0.0
105.0,49.0,0.1,1.2643616825045825,2.5223442248500207,0.0,0.0
105.0,49.0,0.3,1.2643616825045825,2.5223442248500207,0.0,0.0
105.0,49.0,0.7,1.2643616825045825,2.5223442248500207,0.0,0.0
105.0,49.0,1.0,1.2643616825045825,2.5223442248500207,0.0,0.0
105.0,57.0,0.1,1.5391433742335376,2.7054690461541817,0.0,0.0
105.0,57.0,0.3,1.5391433742335376,2.7054690461541817,0.0,0.0
105.0,57.0,0.7,1.5391433742335376,2.7054690461541817,0.0,0.0
105.0,57.0,1.0,1.5391433742335376,2.7054690461541817,0.0,0.0
105.0,65.0,0.1,1.8904846658858836,3.418689595400613,0.0,0.0
105.0,65.0,0.3,1.8904846658858836,3.418689595400613,0.0,0.0
105.0,65.0,0.7,1.8904846658858836,3.418689595400613,0.0,0.0
105.0,65.0,1.0,1.8904846658858836,3.418689595400613,0.0,0.0
105.0,73.0,0.1,2.3337325965525118,3.6023866448817574,0.0,0.0
105.0,73.0,0.3,2.3337325965525118,3.6023866448817574,0.0,0.0
105.0,73.0,0.7,2.3337325965525118,3.6023866448817574,0.0,0.0
105.0,73.0,1.0,2.3337325965525118,3.6023866448817574,0.0,0.0
105.0,81.0,0.1,3.0677145769105674,4.432081020883124,0.0,0.0
105.0,81.0,0.3,3.0677145769105674,4.432081020883124,0.0,0.0
105.0,81.0,0.7,3.0677145769105674,4.432081020883124,0.0,0.0
105.0,81.0,1.0,3.0677145769105674,4.432081020883124,0.0,0.0
105.0,89.0,0.1,3.125152928415109,4.911831945677369,0.0,0.0
105.0,89.0,0.3,3.125152928415109,4.911831945677369,0.0,0.0
105.0,89.0,0.7,3.125152928415109,4.911831945677369,0.0,0.0
105.0,89.0,1.0,3.125152928415109,4.911831945677369,0.0,0.0
105.0,97.0,0.1,3.1556976594242254,5.003451636290645,0.0,0.0
105.0,97.0,0.3,3.1556976594242254,5.003451636290645,0.0,0.0
105.0,97.0,0.7,3.1556976594242254,5.003451636290645,0.0,0.0
105.0,97.0,1.0,3.1556976594242254,5.003451636290645,0.0,0.0
105.0,105.0,0.1,3.1926043428017397,5.283330887062333,0.0,0.0
105.0,105.0,0.3,3.1926043428017397,5.283330887062333,0.0,0.0
105.0,105.0,0.7,3.1926043428017397,5.283330887062333,0.0,0.0
105.0,105.0,1.0,3.1926043428017397,5.283330887062333,0.0,0.0
105.0,113.0,0.1,3.206460487823869,5.6982102636081,0.0,0.0
105.0,113.0,0.3,3.206460487823869,5.6982102636081,0.0,0.0
105.0,113.0,0.7,3.206460487823869,5.6982102636081,0.0,0.0
105.0,113.0,1.0,3.206460487823869,5.6982102636081,0.0,0.0
105.0,121.0,0.1,3.197832431418338,5.424683516238158,0.0,0.0
105.0,121.0,0.3,3.197832431418338,5.424683516238158,0.0,0.0
105.0,121.0,0.7,3.197832431418338,5.424683516238158,0.0,0.0
105.0,121.0,1.0,3.197832431418338,5.424683516238158,0.0,0.0
105.0,127.0,0.1,3.2076620847196256,5.735164354074564,0.0,0.0
105.0,127.0,0.3,3.2076620847196256,5.735164354074564,0.0,0.0
105.0,127.0,0.7,3.2076620847196256,5.735164354074564,0.0,0.0
105.0,127.0,1.0,3.2076620847196256,5.735164354074564,0.0,0.0
106.0,1.0,0.1,-1.9098295830616892,-1.1454019047035342,0.0,0.0
106.0,1.0,0.3,-1.9098295830616892,-1.1454019047035342,0.0,0.0
106.0,1.0,0.7,-1.9098295830616892,-1.1454019047035342,0.0,0.0
106.0,1.0,1.0,-1.9098295830616892,-1.1454019047035342,0.0,0.0
106.0,9.0,0.1,-2.0837106891216797,-0.930071031375602,0.0,0.0
106.0,9.0,0.3,-2.0837106891216797,-0.930071031375602,0.0,0.0
106.0,9.0,0.7,-2.0837106891216797,-0.930071031375602,0.0,0.0
106.0,9.0,1.0,-2.0837106891216797,-0.930071031375602,0.0,0.0
106.0,17.0,0.1,-2.371874380854149,-0.9639307976668143,0.0,0.0
106.0,17.0,0.3,-2.371874380854149,-0.9639307976668143,0.0,0.0
106.0,17.0,0.7,-2.371874380854149,-0.9639307976668143,0.0,0.0
106.0,17.0,1.0,-2.371874380854149,-0.9639307976668143,0.0,0.0
106.0,25.0,0.1,1.3020171434179633,0.0379687604861626,0.0,0.0
106.0,25.0,0.3,1.3020171434179633,0.0379687604861626,0.0,0.0
106.0,25.0,0.7,1.3020171434179633,0.0379687604861626,0.0,0.0
106.0,25.0,1.0,1.3020171434179633,0.0379687604861626,0.0,0.0
106.0,33.0,0.1,-1.1704481879137059,0.9336429632281233,0.0,0.0
106.0,33.0,0.3,-1.1704481879137059,0.9336429632281233,0.0,0.0
106.0,33.0,0.7,-1.1704481879137059,0.9336429632281233,0.0,0.0
106.0,33.0,1.0,-1.1704481879137059,0.9336429632281233,0.0,0.0
106.0,41.0,0.1,1.1440156869963605,1.8973233726611847,0.0,0.0
106.0,41.0,0.3,1.1440156869963605,1.8973233726611847,0.0,0.0
106.0,41.0,0.7,1.1440156869963605,1.8973233726611847,0.0,0.0
106.0,41.0,1.0,1.1440156869963605,1.8973233726611847,0.0,0.0
106.0,49.0,0.1,1.319629449120563,2.7171650701089907,0.0,0.0
106.0,49.0,0.3,1.319629449120563,2.7171650701089907,0.0,0.0
106.0,49.0,0.7,1.319629449120563,2.7171650701089907,0.0,0.0
106.0,49.0,1.0,1.319629449120563,2.7171650701089907,0.0,0.0
106.0,57.0,0.1,1.5781698076834956,3.0389347509591613,0.0,0.0
106.0,57.0,0.3,1.5781698076834956,3.0389347509591613,0.0,0.0
106.0,57.0,0.7,1.5781698076834956,3.0389347509591613,0.0,0.0
106.0,57.0,1.0,1.5781698076834956,3.0389347509591613,0.0,0.0
106.0,65.0,0.1,1.6092065000059022,3.854762106741466,0.0,0.0
106.0,65.0,0.3,1.6092065000059022,3.854762106741466,0.0,0.0
106.0,65.0,0.7,1.6092065000059022,3.854762106741466,0.0,0.0
106.0,65.0,1.0,1.6092065000059022,3.854762106741466,0.0,0.0
106.0,73.0,0.1,2.3664323051038347,4.0016454984841525,0.0,0.0
106.0,73.0,0.3,2.3664323051038347,4.0016454984841525,0.0,0.0
106.0,73.0,0.7,2.3664323051038347,4.0016454984841525,0.0,0.0
106.0,73.0,1.0,2.3664323051038347,4.0016454984841525,0.0,0.0
106.0,81.0,0.1,2.8471263087496874,3.9860305778658356,0.0,0.0
106.0,81.0,0.3,2.8471263087496874,3.9860305778658356,0.0,0.0
106.0,81.0,0.7,2.8471263087496874,3.9860305778658356,0.0,0.0
106.0,81.0,1.0,2.8471263087496874,3.9860305778658356,0.0,0.0
106.0,89.0,0.1,3.1343447883525046,5.095665110774227,0.0,0.0
106.0,89.0,0.3,3.1343447883525046,5.095665110774227,0.0,0.0
106.0,89.0,0.7,3.1343447883525046,5.095665110774227,0.0,0.0
106.0,89.0,1.0,3.1343447883525046,5.095665110774227,0.0,0.0
106.0,97.0,0.1,3.2019089064628954,5.333080506220429,0.0,0.0
106.0,97.0,0.3,3.2019089064628954,5.333080506220429,0.0,0.0
106.0,97.0,0.7,3.2019089064628954,5.333080506220429,0.0,0.0
106.0,97.0,1.0,3.2019089064628954,5.333080506220429,0.0,0.0
106.0,105.0,0.1,3.228385595915758,5.535255968247152,0.0,0.0
106.0,105.0,0.3,3.228385595915758,5.535255968247152,0.0,0.0
106.0,105.0,0.7,3.228385595915758,5.535255968247152,0.0,0.0
106.0,105.0,1.0,3.228385595915758,5.535255968247152,0.0,0.0
106.0,113.0,0.1,3.2357990982144957,5.588428462470715,0.0,0.0
106.0,113.0,0.3,3.2357990982144957,5.588428462470715,0.0,0.0
106.0,113.0,0.7,3.2357990982144957,5.588428462470715,0.0,0.0
106.0,113.0,1.0,3.2357990982144957,5.588428462470715,0.0,0.0
106.0,121.0,0.1,3.2503637028259456,5.6931004678727675,0.0,0.0
106.0,121.0,0.3,3.2503637028259456,5.6931004678727675,0.0,0.0
106.0,121.0,0.7,3.2503637028259456,5.6931004678727675,0.0,0.0
106.0,121.0,1.0,3.2503637028259456,5.6931004678727675,0.0,0.0
106.0,127.0,0.1,3.2568020082426634,5.7072605938425784,0.0,0.0
106.0,127.0,0.3,3.2568020082426634,5.7072605938425784,0.0,0.0
106.0,127.0,0.7,3.2568020082426634,5.7072605938425784,0.0,0.0
106.0,127.0,1.0,3.2568020082426634,5.7072605938425784,0.0,0.0
107.0,1.0,0.1,1.1968957836395995,-1.3035146548833303,0.0,0.0
107.0,1.0,0.3,1.1968957836395995,-1.3035146548833303,0.0,0.0
107.0,1.0,0.7,1.1968957836395995,-1.3035146548833303,0.0,0.0
107.0,1.0,1.0,1.1968957836395995,-1.3035146548833303,0.0,0.0
107.0,9.0,0.1,1.269818286618604,-0.6389446077408347,0.0,0.0
107.0,9.0,0.3,1.269818286618604,-0.6389446077408347,0.0,0.0
107.0,9.0,0.7,1.269818286618604,-0.6389446077408347,0.0,0.0
107.0,9.0,1.0,1.269818286618604,-0.6389446077408347,0.0,0.0
107.0,17.0,0.1,1.2937399482581418,-1.2744127698449057,0.0,0.0
107.0,17.0,0.3,1.2937399482581418,-1.2744127698449057,0.0,0.0
107.0,17.0,0.7,1.2937399482581418,-1.2744127698449057,0.0,0.0
107.0,17.0,1.0,1.2937399482581418,-1.2744127698449057,0.0,0.0
107.0,25.0,0.1,1.2852141374701214,0.21492139299566704,0.0,0.0
107.0,25.0,0.3,1.2852141374701214,0.21492139299566704,0.0,0.0
107.0,25.0,0.7,1.2852141374701214,0.21492139299566704,0.0,0.0
107.0,25.0,1.0,1.2852141374701214,0.21492139299566704,0.0,0.0
107.0,33.0,0.1,0.7860030254620374,1.00920052657233,0.0,0.0
107.0,33.0,0.3,0.7860030254620374,1.00920052657233,0.0,0.0
107.0,33.0,0.7,0.7860030254620374,1.00920052657233,0.0,0.0
107.0,33.0,1.0,0.7860030254620374,1.00920052657233,0.0,0.0
107.0,41.0,0.1,0.8510949781010283,1.7834524717438187,0.0,0.0
107.0,41.0,0.3,0.8510949781010283,1.7834524717438187,0.0,0.0
107.0,41.0,0.7,0.8510949781010283,1.7834524717438187,0.0,0.0
107.0,41.0,1.0,0.8510949781010283,1.7834524717438187,0.0,0.0
107.0,49.0,0.1,1.459730281311312,2.6994977222280045,0.0,0.0
107.0,49.0,0.3,1.459730281311312,2.6994977222280045,0.0,0.0
107.0,49.0,0.7,1.459730281311312,2.6994977222280045,0.0,0.0
107.0,49.0,1.0,1.459730281311312,2.6994977222280045,0.0,0.0
107.0,57.0,0.1,1.490817806338832,2.988481966563995,0.0,0.0
107.0,57.0,0.3,1.490817806338832,2.988481966563995,0.0,0.0
107.0,57.0,0.7,1.490817806338832,2.988481966563995,0.0,0.0
107.0,57.0,1.0,1.490817806338832,2.988481966563995,0.0,0.0
107.0,65.0,0.1,1.8705033444074615,3.4460469803367215,0.0,0.0
107.0,65.0,0.3,1.8705033444074615,3.4460469803367215,0.0,0.0
107.0,65.0,0.7,1.8705033444074615,3.4460469803367215,0.0,0.0
107.0,65.0,1.0,1.8705033444074615,3.4460469803367215,0.0,0.0
107.0,73.0,0.1,2.8024345342413293,3.4740423132361506,0.0,0.0
107.0,73.0,0.3,2.8024345342413293,3.4740423132361506,0.0,0.0
107.0,73.0,0.7,2.8024345342413293,3.4740423132361506,0.0,0.0
107.0,73.0,1.0,2.8024345342413293,3.4740423132361506,0.0,0.0
107.0,81.0,0.1,3.174231908695509,3.76369501623515,0.0,0.0
107.0,81.0,0.3,3.174231908695509,3.76369501623515,0.0,0.0
107.0,81.0,0.7,3.174231908695509,3.76369501623515,0.0,0.0
107.0,81.0,1.0,3.174231908695509,3.76369501623515,0.0,0.0
107.0,89.0,0.1,3.230033982481555,4.940916209850836,0.0,0.0
107.0,89.0,0.3,3.230033982481555,4.940916209850836,0.0,0.0
107.0,89.0,0.7,3.230033982481555,4.940916209850836,0.0,0.0
107.0,89.0,1.0,3.230033982481555,4.940916209850836,0.0,0.0
107.0,97.0,0.1,3.289157067368111,5.219345048658042,0.0,0.0
107.0,97.0,0.3,3.289157067368111,5.219345048658042,0.0,0.0
107.0,97.0,0.7,3.289157067368111,5.219345048658042,0.0,0.0
107.0,97.0,1.0,3.289157067368111,5.219345048658042,0.0,0.0
107.0,105.0,0.1,3.2937944588202743,5.300255772031543,0.0,0.0
107.0,105.0,0.3,3.2937944588202743,5.300255772031543,0.0,0.0
107.0,105.0,0.7,3.2937944588202743,5.300255772031543,0.0,0.0
107.0,105.0,1.0,3.2937944588202743,5.300255772031543,0.0,0.0
107.0,113.0,0.1,3.3091559562397257,5.429909841348382,0.0,0.0
107.0,113.0,0.3,3.3091559562397257,5.429909841348382,0.0,0.0
107.0,113.0,0.7,3.3091559562397257,5.429909841348382,0.0,0.0
107.0,113.0,1.0,3.3091559562397257,5.429909841348382,0.0,0.0
107.0,121.0,0.1,3.3467923238312975,5.618091361304521,0.0,0.0
107.0,121.0,0.3,3.3467923238312975,5.618091361304521,0.0,0.0
107.0,121.0,0.7,3.3467923238312975,5.618091361304521,0.0,0.0
107.0,121.0,1.0,3.3467923238312975,5.618091361304521,0.0,0.0
107.0,127.0,0.1,3.3497870337954176,5.676504316356498,0.0,0.0
107.0,127.0,0.3,3.3497870337954176,5.676504316356498,0.0,0.0
107.0,127.0,0.7,3.3497870337954176,5.676504316356498,0.0,0.0
107.0,127.0,1.0,3.3497870337954176,5.676504316356498,0.0,0.0
108.0,1.0,0.1,1.4378713574824666,-1.5546054278984935,0.0,0.0
108.0,1.0,0.3,1.4378713574824666,-1.5546054278984935,0.0,0.0
108.0,1.0,0.7,1.4378713574824666,-1.5546054278984935,0.0,0.0
108.0,1.0,1.0,1.4378713574824666,-1.5546054278984935,0.0,0.0
108.0,9.0,0.1,0.9540975731741921,-1.0470314211511011,0.0,0.0
108.0,9.0,0.3,0.9540975731741921,-1.0470314211511011,0.0,0.0
108.0,9.0,0.7,0.9540975731741921,-1.0470314211511011,0.0,0.0
108.0,9.0,1.0,0.9540975731741921,-1.0470314211511011,0.0,0.0
108.0,17.0,0.1,0.989773440019226,-0.9586544087734545,0.0,0.0
108.0,17.0,0.3,0.989773440019226,-0.9586544087734545,0.0,0.0
108.0,17.0,0.7,0.989773440019226,-0.9586544087734545,0.0,0.0
108.0,17.0,1.0,0.989773440019226,-0.9586544087734545,0.0,0.0
108.0,25.0,0.1,1.168082917679416,0.40861690982630466,0.0,0.0
108.0,25.0,0.3,1.168082917679416,0.40861690982630466,0.0,0.0
108.0,25.0,0.7,1.168082917679416,0.40861690982630466,0.0,0.0
108.0,25.0,1.0,1.168082917679416,0.40861690982630466,0.0,0.0
108.0,33.0,0.1,0.8962350871258493,0.6524821348129737,0.0,0.0
108.0,33.0,0.3,0.8962350871258493,0.6524821348129737,0.0,0.0
108.0,33.0,0.7,0.8962350871258493,0.6524821348129737,0.0,0.0
108.0,33.0,1.0,0.8962350871258493,0.6524821348129737,0.0,0.0
108.0,41.0,0.1,1.1702089124491435,1.1033034593037763,0.0,0.0
108.0,41.0,0.3,1.1702089124491435,1.1033034593037763,0.0,0.0
108.0,41.0,0.7,1.1702089124491435,1.1033034593037763,0.0,0.0
108.0,41.0,1.0,1.1702089124491435,1.1033034593037763,0.0,0.0
108.0,49.0,0.1,1.387234103028592,2.3412423645735494,0.0,0.0
108.0,49.0,0.3,1.387234103028592,2.3412423645735494,0.0,0.0
108.0,49.0,0.7,1.387234103028592,2.3412423645735494,0.0,0.0
108.0,49.0,1.0,1.387234103028592,2.3412423645735494,0.0,0.0
108.0,57.0,0.1,1.6028411228639654,2.4576528943688984,0.0,0.0
108.0,57.0,0.3,1.6028411228639654,2.4576528943688984,0.0,0.0
108.0,57.0,0.7,1.6028411228639654,2.4576528943688984,0.0,0.0
108.0,57.0,1.0,1.6028411228639654,2.4576528943688984,0.0,0.0
108.0,65.0,0.1,1.69967816243358,3.292110637821407,0.0,0.0
108.0,65.0,0.3,1.69967816243358,3.292110637821407,0.0,0.0
108.0,65.0,0.7,1.69967816243358,3.292110637821407,0.0,0.0
108.0,65.0,1.0,1.69967816243358,3.292110637821407,0.0,0.0
108.0,73.0,0.1,2.5229578575126075,3.2827976070920535,0.0,0.0
108.0,73.0,0.3,2.5229578575126075,3.2827976070920535,0.0,0.0
108.0,73.0,0.7,2.5229578575126075,3.2827976070920535,0.0,0.0
108.0,73.0,1.0,2.5229578575126075,3.2827976070920535,0.0,0.0
108.0,81.0,0.1,2.827397474265725,3.5288454165349177,0.0,0.0
108.0,81.0,0.3,2.827397474265725,3.5288454165349177,0.0,0.0
108.0,81.0,0.7,2.827397474265725,3.5288454165349177,0.0,0.0
108.0,81.0,1.0,2.827397474265725,3.5288454165349177,0.0,0.0
108.0,89.0,0.1,3.1276262089786964,4.6485273482579785,0.0,0.0
108.0,89.0,0.3,3.1276262089786964,4.6485273482579785,0.0,0.0
108.0,89.0,0.7,3.1276262089786964,4.6485273482579785,0.0,0.0
108.0,89.0,1.0,3.1276262089786964,4.6485273482579785,0.0,0.0
108.0,97.0,0.1,3.1734719637422315,4.911258577502107,0.0,0.0
108.0,97.0,0.3,3.1734719637422315,4.911258577502107,0.0,0.0
108.0,97.0,0.7,3.1734719637422315,4.911258577502107,0.0,0.0
108.0,97.0,1.0,3.1734719637422315,4.911258577502107,0.0,0.0
108.0,105.0,0.1,3.1979637770166933,5.248392203327527,0.0,0.0
108.0,105.0,0.3,3.1979637770166933,5.248392203327527,0.0,0.0
108.0,105.0,0.7,3.1979637770166933,5.248392203327527,0.0,0.0
108.0,105.0,1.0,3.1979637770166933,5.248392203327527,0.0,0.0
108.0,113.0,0.1,3.1942042919086364,5.248240017974889,0.0,0.0
108.0,113.0,0.3,3.1942042919086364,5.248240017974889,0.0,0.0
108.0,113.0,0.7,3.1942042919086364,5.248240017974889,0.0,0.0
108.0,113.0,1.0,3.1942042919086364,5.248240017974889,0.0,0.0
108.0,121.0,0.1,3.2048128297643315,5.391522856519494,0.0,0.0
108.0,121.0,0.3,3.2048128297643315,5.391522856519494,0.0,0.0
108.0,121.0,0.7,3.2048128297643315,5.391522856519494,0.0,0.0
108.0,121.0,1.0,3.2048128297643315,5.391522856519494,0.0,0.0
108.0,127.0,0.1,3.1983586839154863,5.34140499594933,0.0,0.0
108.0,127.0,0.3,3.1983586839154863,5.34140499594933,0.0,0.0
108.0,127.0,0.7,3.1983586839154863,5.34140499594933,0.0,0.0
108.0,127.0,1.0,3.1983586839154863,5.34140499594933,0.0,0.0
