pitch,vel,dur,db(lab),db(audi),duration(lab),duration(audi)
21.0,1.0,0.1,0.6420166666666667,0.2316472222222222,0.0,0.0
21.0,1.0,0.3,0.6420166666666667,0.2316472222222222,0.0,0.0
21.0,1.0,0.7,0.6420166666666667,0.2316472222222222,0.0,0.0
21.0,1.0,1.0,0.6420166666666667,0.2316472222222222,0.0,0.0
21.0,9.0,0.1,0.7293499999999999,0.676825,0.0,0.0
21.0,9.0,0.3,0.7293499999999999,0.676825,0.0,0.0
21.0,9.0,0.7,0.7293499999999999,0.676825,0.0,0.0
21.0,9.0,1.0,0.7293499999999999,0.676825,0.0,0.0
21.0,17.0,0.1,0.8166833333333333,1.1220027777777777,0.0,0.0
21.0,17.0,0.3,0.8166833333333333,1.1220027777777777,0.0,0.0
21.0,17.0,0.7,0.8166833333333333,1.1220027777777777,0.0,0.0
21.0,17.0,1.0,0.8166833333333333,1.1220027777777777,0.0,0.0
21.0,25.0,0.1,0.9040166666666667,2.3414812499999997,0.0,0.0
21.0,25.0,0.3,0.9040166666666667,2.3414812499999997,0.0,0.0
21.0,25.0,0.7,0.9040166666666667,2.3414812499999997,0.0,0.0
21.0,25.0,1.0,0.9040166666666667,2.3414812499999997,0.0,0.0
21.0,33.0,0.1,1.0105059210526315,2.88653125,0.0,0.0
21.0,33.0,0.3,1.0105059210526315,2.88653125,0.0,0.0
21.0,33.0,0.7,1.0105059210526315,2.88653125,0.0,0.0
21.0,33.0,1.0,1.0105059210526315,2.88653125,0.0,0.0
21.0,41.0,0.1,1.1489217105263159,3.5488558035714286,0.0,0.0
21.0,41.0,0.3,1.1489217105263159,3.5488558035714286,0.0,0.0
21.0,41.0,0.7,1.1489217105263159,3.5488558035714286,0.0,0.0
21.0,41.0,1.0,1.1489217105263159,3.5488558035714286,0.0,0.0
21.0,49.0,0.1,1.2873375,4.281545089285714,0.0,0.0
21.0,49.0,0.3,1.2873375,4.281545089285714,0.0,0.0
21.0,49.0,0.7,1.2873375,4.281545089285714,0.0,0.0
21.0,49.0,1.0,1.2873375,4.281545089285714,0.0,0.0
21.0,57.0,0.1,1.5540505434782608,5.014234375,0.0,0.0
21.0,57.0,0.3,1.5540505434782608,5.014234375,0.0,0.0
21.0,57.0,0.7,1.5540505434782608,5.014234375,0.0,0.0
21.0,57.0,1.0,1.5540505434782608,5.014234375,0.0,0.0
21.0,65.0,0.1,1.8207635869565217,5.743524206349206,0.0,0.0
21.0,65.0,0.3,1.8207635869565217,5.743524206349206,0.0,0.0
21.0,65.0,0.7,1.8207635869565217,5.743524206349206,0.0,0.0
21.0,65.0,1.0,1.8207635869565217,5.743524206349206,0.0,0.0
21.0,73.0,0.1,3.2669125,6.449017857142857,0.0,0.0
21.0,73.0,0.3,3.2669125,6.449017857142857,0.0,0.0
21.0,73.0,0.7,3.2669125,6.449017857142857,0.0,0.0
21.0,73.0,1.0,3.2669125,6.449017857142857,0.0,0.0
21.0,81.0,0.1,3.727281018518519,7.154511507936508,0.0,0.0
21.0,81.0,0.3,3.727281018518519,7.154511507936508,0.0,0.0
21.0,81.0,0.7,3.727281018518519,7.154511507936508,0.0,0.0
21.0,81.0,1.0,3.727281018518519,7.154511507936508,0.0,0.0
21.0,89.0,0.1,4.1876495370370375,7.860005158730159,0.0,0.0
21.0,89.0,0.3,4.1876495370370375,7.860005158730159,0.0,0.0
21.0,89.0,0.7,4.1876495370370375,7.860005158730159,0.0,0.0
21.0,89.0,1.0,4.1876495370370375,7.860005158730159,0.0,0.0
21.0,97.0,0.1,4.648018055555555,8.56549880952381,0.0,0.0
21.0,97.0,0.3,4.648018055555555,8.56549880952381,0.0,0.0
21.0,97.0,0.7,4.648018055555555,8.56549880952381,0.0,0.0
21.0,97.0,1.0,4.648018055555555,8.56549880952381,0.0,0.0
21.0,105.0,0.1,5.108386574074074,9.27099246031746,0.0,0.0
21.0,105.0,0.3,5.108386574074074,9.27099246031746,0.0,0.0
21.0,105.0,0.7,5.108386574074074,9.27099246031746,0.0,0.0
21.0,105.0,1.0,5.108386574074074,9.27099246031746,0.0,0.0
21.0,113.0,0.1,5.568755092592593,9.976486111111111,0.0,0.0
21.0,113.0,0.3,5.568755092592593,9.976486111111111,0.0,0.0
21.0,113.0,0.7,5.568755092592593,9.976486111111111,0.0,0.0
21.0,113.0,1.0,5.568755092592593,9.976486111111111,0.0,0.0
21.0,121.0,0.1,6.02912361111111,10.681979761904762,0.0,0.0
21.0,121.0,0.3,6.02912361111111,10.681979761904762,0.0,0.0
21.0,121.0,0.7,6.02912361111111,10.681979761904762,0.0,0.0
21.0,121.0,1.0,6.02912361111111,10.681979761904762,0.0,0.0
21.0,127.0,0.1,6.3744,11.2111,0.0,0.0
21.0,127.0,0.3,6.3744,11.2111,0.0,0.0
21.0,127.0,0.7,6.3744,11.2111,0.0,0.0
21.0,127.0,1.0,6.3744,11.2111,0.0,0.0
22.0,1.0,0.1,0.6420166666666667,0.2316472222222222,0.0,0.0
22.0,1.0,0.3,0.6420166666666667,0.2316472222222222,0.0,0.0
22.0,1.0,0.7,0.6420166666666667,0.2316472222222222,0.0,0.0
22.0,1.0,1.0,0.6420166666666667,0.2316472222222222,0.0,0.0
22.0,9.0,0.1,0.7293499999999999,0.676825,0.0,0.0
22.0,9.0,0.3,0.7293499999999999,0.676825,0.0,0.0
22.0,9.0,0.7,0.7293499999999999,0.676825,0.0,0.0
22.0,9.0,1.0,0.7293499999999999,0.676825,0.0,0.0
22.0,17.0,0.1,0.8166833333333333,1.1220027777777777,0.0,0.0
22.0,17.0,0.3,0.8166833333333333,1.1220027777777777,0.0,0.0
22.0,17.0,0.7,0.8166833333333333,1.1220027777777777,0.0,0.0
22.0,17.0,1.0,0.8166833333333333,1.1220027777777777,0.0,0.0
22.0,25.0,0.1,0.9040166666666667,2.3414812499999997,0.0,0.0
22.0,25.0,0.3,0.9040166666666667,2.3414812499999997,0.0,0.0
22.0,25.0,0.7,0.9040166666666667,2.3414812499999997,0.0,0.0
22.0,25.0,1.0,0.9040166666666667,2.3414812499999997,0.0,0.0
22.0,33.0,0.1,1.0105059210526315,2.88653125,0.0,0.0
22.0,33.0,0.3,1.0105059210526315,2.88653125,0.0,0.0
22.0,33.0,0.7,1.0105059210526315,2.88653125,0.0,0.0
22.0,33.0,1.0,1.0105059210526315,2.88653125,0.0,0.0
22.0,41.0,0.1,1.1489217105263159,3.5488558035714286,0.0,0.0
22.0,41.0,0.3,1.1489217105263159,3.5488558035714286,0.0,0.0
22.0,41.0,0.7,1.1489217105263159,3.5488558035714286,0.0,0.0
22.0,41.0,1.0,1.1489217105263159,3.5488558035714286,0.0,0.0
22.0,49.0,0.1,1.2873375,4.281545089285714,0.0,0.0
22.0,49.0,0.3,1.2873375,4.281545089285714,0.0,0.0
22.0,49.0,0.7,1.2873375,4.281545089285714,0.0,0.0
22.0,49.0,1.0,1.2873375,4.281545089285714,0.0,0.0
22.0,57.0,0.1,1.5540505434782608,5.014234375,0.0,0.0
22.0,57.0,0.3,1.5540505434782608,5.014234375,0.0,0.0
22.0,57.0,0.7,1.5540505434782608,5.014234375,0.0,0.0
22.0,57.0,1.0,1.5540505434782608,5.014234375,0.0,0.0
22.0,65.0,0.1,1.8207635869565217,5.743524206349206,0.0,0.0
22.0,65.0,0.3,1.8207635869565217,5.743524206349206,0.0,0.0
22.0,65.0,0.7,1.8207635869565217,5.743524206349206,0.0,0.0
22.0,65.0,1.0,1.8207635869565217,5.743524206349206,0.0,0.0
22.0,73.0,0.1,2.660525,6.449017857142857,0.0,0.0
22.0,73.0,0.3,2.660525,6.449017857142857,0.0,0.0
22.0,73.0,0.7,2.660525,6.449017857142857,0.0,0.0
22.0,73.0,1.0,2.660525,6.449017857142857,0.0,0.0
22.0,81.0,0.1,3.6773353773584905,7.154511507936508,0.0,0.0
22.0,81.0,0.3,3.6773353773584905,7.154511507936508,0.0,0.0
22.0,81.0,0.7,3.6773353773584905,7.154511507936508,0.0,0.0
22.0,81.0,1.0,3.6773353773584905,7.154511507936508,0.0,0.0
22.0,89.0,0.1,4.146390094339623,7.860005158730159,0.0,0.0
22.0,89.0,0.3,4.146390094339623,7.860005158730159,0.0,0.0
22.0,89.0,0.7,4.146390094339623,7.860005158730159,0.0,0.0
22.0,89.0,1.0,4.146390094339623,7.860005158730159,0.0,0.0
22.0,97.0,0.1,4.615444811320755,8.56549880952381,0.0,0.0
22.0,97.0,0.3,4.615444811320755,8.56549880952381,0.0,0.0
22.0,97.0,0.7,4.615444811320755,8.56549880952381,0.0,0.0
22.0,97.0,1.0,4.615444811320755,8.56549880952381,0.0,0.0
22.0,105.0,0.1,5.084499528301887,9.27099246031746,0.0,0.0
22.0,105.0,0.3,5.084499528301887,9.27099246031746,0.0,0.0
22.0,105.0,0.7,5.084499528301887,9.27099246031746,0.0,0.0
22.0,105.0,1.0,5.084499528301887,9.27099246031746,0.0,0.0
22.0,113.0,0.1,5.553554245283019,9.976486111111111,0.0,0.0
22.0,113.0,0.3,5.553554245283019,9.976486111111111,0.0,0.0
22.0,113.0,0.7,5.553554245283019,9.976486111111111,0.0,0.0
22.0,113.0,1.0,5.553554245283019,9.976486111111111,0.0,0.0
22.0,121.0,0.1,6.022608962264151,10.681979761904762,0.0,0.0
22.0,121.0,0.3,6.022608962264151,10.681979761904762,0.0,0.0
22.0,121.0,0.7,6.022608962264151,10.681979761904762,0.0,0.0
22.0,121.0,1.0,6.022608962264151,10.681979761904762,0.0,0.0
22.0,127.0,0.1,6.3744,11.2111,0.0,0.0
22.0,127.0,0.3,6.3744,11.2111,0.0,0.0
22.0,127.0,0.7,6.3744,11.2111,0.0,0.0
22.0,127.0,1.0,6.3744,11.2111,0.0,0.0
23.0,1.0,0.1,0.6420166666666667,0.2316472222222222,0.0,0.0
23.0,1.0,0.3,0.6420166666666667,0.2316472222222222,0.0,0.0
23.0,1.0,0.7,0.6420166666666667,0.2316472222222222,0.0,0.0
23.0,1.0,1.0,0.6420166666666667,0.2316472222222222,0.0,0.0
23.0,9.0,0.1,0.7293499999999999,0.676825,0.0,0.0
23.0,9.0,0.3,0.7293499999999999,0.676825,0.0,0.0
23.0,9.0,0.7,0.7293499999999999,0.676825,0.0,0.0
23.0,9.0,1.0,0.7293499999999999,0.676825,0.0,0.0
23.0,17.0,0.1,0.8166833333333333,1.1220027777777777,0.0,0.0
23.0,17.0,0.3,0.8166833333333333,1.1220027777777777,0.0,0.0
23.0,17.0,0.7,0.8166833333333333,1.1220027777777777,0.0,0.0
23.0,17.0,1.0,0.8166833333333333,1.1220027777777777,0.0,0.0
23.0,25.0,0.1,0.9040166666666667,2.2838317307692306,0.0,0.0
23.0,25.0,0.3,0.9040166666666667,2.2838317307692306,0.0,0.0
23.0,25.0,0.7,0.9040166666666667,2.2838317307692306,0.0,0.0
23.0,25.0,1.0,0.9040166666666667,2.2838317307692306,0.0,0.0
23.0,33.0,0.1,1.0133895833333333,2.870808653846154,0.0,0.0
23.0,33.0,0.3,1.0133895833333333,2.870808653846154,0.0,0.0
23.0,33.0,0.7,1.0133895833333333,2.870808653846154,0.0,0.0
23.0,33.0,1.0,1.0133895833333333,2.870808653846154,0.0,0.0
23.0,41.0,0.1,1.159495138888889,3.5488558035714286,0.0,0.0
23.0,41.0,0.3,1.159495138888889,3.5488558035714286,0.0,0.0
23.0,41.0,0.7,1.159495138888889,3.5488558035714286,0.0,0.0
23.0,41.0,1.0,1.159495138888889,3.5488558035714286,0.0,0.0
23.0,49.0,0.1,1.3206766304347826,4.281545089285714,0.0,0.0
23.0,49.0,0.3,1.3206766304347826,4.281545089285714,0.0,0.0
23.0,49.0,0.7,1.3206766304347826,4.281545089285714,0.0,0.0
23.0,49.0,1.0,1.3206766304347826,4.281545089285714,0.0,0.0
23.0,57.0,0.1,1.5873896739130435,5.014234375,0.0,0.0
23.0,57.0,0.3,1.5873896739130435,5.014234375,0.0,0.0
23.0,57.0,0.7,1.5873896739130435,5.014234375,0.0,0.0
23.0,57.0,1.0,1.5873896739130435,5.014234375,0.0,0.0
23.0,65.0,0.1,1.8541027173913043,5.743524206349206,0.0,0.0
23.0,65.0,0.3,1.8541027173913043,5.743524206349206,0.0,0.0
23.0,65.0,0.7,1.8541027173913043,5.743524206349206,0.0,0.0
23.0,65.0,1.0,1.8541027173913043,5.743524206349206,0.0,0.0
23.0,73.0,0.1,2.8626541666666667,6.449017857142857,0.0,0.0
23.0,73.0,0.3,2.8626541666666667,6.449017857142857,0.0,0.0
23.0,73.0,0.7,2.8626541666666667,6.449017857142857,0.0,0.0
23.0,73.0,1.0,2.8626541666666667,6.449017857142857,0.0,0.0
23.0,81.0,0.1,3.6773353773584905,7.154511507936508,0.0,0.0
23.0,81.0,0.3,3.6773353773584905,7.154511507936508,0.0,0.0
23.0,81.0,0.7,3.6773353773584905,7.154511507936508,0.0,0.0
23.0,81.0,1.0,3.6773353773584905,7.154511507936508,0.0,0.0
23.0,89.0,0.1,4.146390094339623,7.860005158730159,0.0,0.0
23.0,89.0,0.3,4.146390094339623,7.860005158730159,0.0,0.0
23.0,89.0,0.7,4.146390094339623,7.860005158730159,0.0,0.0
23.0,89.0,1.0,4.146390094339623,7.860005158730159,0.0,0.0
23.0,97.0,0.1,4.615444811320755,8.56549880952381,0.0,0.0
23.0,97.0,0.3,4.615444811320755,8.56549880952381,0.0,0.0
23.0,97.0,0.7,4.615444811320755,8.56549880952381,0.0,0.0
23.0,97.0,1.0,4.615444811320755,8.56549880952381,0.0,0.0
23.0,105.0,0.1,5.084499528301887,9.27099246031746,0.0,0.0
23.0,105.0,0.3,5.084499528301887,9.27099246031746,0.0,0.0
23.0,105.0,0.7,5.084499528301887,9.27099246031746,0.0,0.0
23.0,105.0,1.0,5.084499528301887,9.27099246031746,0.0,0.0
23.0,113.0,0.1,5.553554245283019,9.976486111111111,0.0,0.0
23.0,113.0,0.3,5.553554245283019,9.976486111111111,0.0,0.0
23.0,113.0,0.7,5.553554245283019,9.976486111111111,0.0,0.0
23.0,113.0,1.0,5.553554245283019,9.976486111111111,0.0,0.0
23.0,121.0,0.1,6.022608962264151,10.681979761904762,0.0,0.0
23.0,121.0,0.3,6.022608962264151,10.681979761904762,0.0,0.0
23.0,121.0,0.7,6.022608962264151,10.681979761904762,0.0,0.0
23.0,121.0,1.0,6.022608962264151,10.681979761904762,0.0,0.0
23.0,127.0,0.1,6.3744,11.2111,0.0,0.0
23.0,127.0,0.3,6.3744,11.2111,0.0,0.0
23.0,127.0,0.7,6.3744,11.2111,0.0,0.0
23.0,127.0,1.0,6.3744,11.2111,0.0,0.0
24.0,1.0,0.1,0.6420166666666667,0.22871842105263157,0.0,0.0
24.0,1.0,0.3,0.6420166666666667,0.22871842105263157,0.0,0.0
24.0,1.0,0.7,0.6420166666666667,0.22871842105263157,0.0,0.0
24.0,1.0,1.0,0.6420166666666667,0.22871842105263157,0.0,0.0
24.0,9.0,0.1,0.7293499999999999,0.6504657894736842,0.0,0.0
24.0,9.0,0.3,0.7293499999999999,0.6504657894736842,0.0,0.0
24.0,9.0,0.7,0.7293499999999999,0.6504657894736842,0.0,0.0
24.0,9.0,1.0,0.7293499999999999,0.6504657894736842,0.0,0.0
24.0,17.0,0.1,0.8166833333333333,1.0722131578947367,0.0,0.0
24.0,17.0,0.3,0.8166833333333333,1.0722131578947367,0.0,0.0
24.0,17.0,0.7,0.8166833333333333,1.0722131578947367,0.0,0.0
24.0,17.0,1.0,0.8166833333333333,1.0722131578947367,0.0,0.0
24.0,25.0,0.1,0.9040166666666667,2.216573958333333,0.0,0.0
24.0,25.0,0.3,0.9040166666666667,2.216573958333333,0.0,0.0
24.0,25.0,0.7,0.9040166666666667,2.216573958333333,0.0,0.0
24.0,25.0,1.0,0.9040166666666667,2.216573958333333,0.0,0.0
24.0,33.0,0.1,1.0133895833333333,2.852465625,0.0,0.0
24.0,33.0,0.3,1.0133895833333333,2.852465625,0.0,0.0
24.0,33.0,0.7,1.0133895833333333,2.852465625,0.0,0.0
24.0,33.0,1.0,1.0133895833333333,2.852465625,0.0,0.0
24.0,41.0,0.1,1.159495138888889,3.5488558035714286,0.0,0.0
24.0,41.0,0.3,1.159495138888889,3.5488558035714286,0.0,0.0
24.0,41.0,0.7,1.159495138888889,3.5488558035714286,0.0,0.0
24.0,41.0,1.0,1.159495138888889,3.5488558035714286,0.0,0.0
24.0,49.0,0.1,1.3221920454545455,4.281545089285714,0.0,0.0
24.0,49.0,0.3,1.3221920454545455,4.281545089285714,0.0,0.0
24.0,49.0,0.7,1.3221920454545455,4.281545089285714,0.0,0.0
24.0,49.0,1.0,1.3221920454545455,4.281545089285714,0.0,0.0
24.0,57.0,0.1,1.601028409090909,5.014234375,0.0,0.0
24.0,57.0,0.3,1.601028409090909,5.014234375,0.0,0.0
24.0,57.0,0.7,1.601028409090909,5.014234375,0.0,0.0
24.0,57.0,1.0,1.601028409090909,5.014234375,0.0,0.0
24.0,65.0,0.1,1.8798647727272728,5.743524206349206,0.0,0.0
24.0,65.0,0.3,1.8798647727272728,5.743524206349206,0.0,0.0
24.0,65.0,0.7,1.8798647727272728,5.743524206349206,0.0,0.0
24.0,65.0,1.0,1.8798647727272728,5.743524206349206,0.0,0.0
24.0,73.0,0.1,2.7818025,6.449017857142857,0.0,0.0
24.0,73.0,0.3,2.7818025,6.449017857142857,0.0,0.0
24.0,73.0,0.7,2.7818025,6.449017857142857,0.0,0.0
24.0,73.0,1.0,2.7818025,6.449017857142857,0.0,0.0
24.0,81.0,0.1,3.62546875,7.154511507936508,0.0,0.0
24.0,81.0,0.3,3.62546875,7.154511507936508,0.0,0.0
24.0,81.0,0.7,3.62546875,7.154511507936508,0.0,0.0
24.0,81.0,1.0,3.62546875,7.154511507936508,0.0,0.0
24.0,89.0,0.1,4.10354375,7.860005158730159,0.0,0.0
24.0,89.0,0.3,4.10354375,7.860005158730159,0.0,0.0
24.0,89.0,0.7,4.10354375,7.860005158730159,0.0,0.0
24.0,89.0,1.0,4.10354375,7.860005158730159,0.0,0.0
24.0,97.0,0.1,4.58161875,8.56549880952381,0.0,0.0
24.0,97.0,0.3,4.58161875,8.56549880952381,0.0,0.0
24.0,97.0,0.7,4.58161875,8.56549880952381,0.0,0.0
24.0,97.0,1.0,4.58161875,8.56549880952381,0.0,0.0
24.0,105.0,0.1,5.05969375,9.27099246031746,0.0,0.0
24.0,105.0,0.3,5.05969375,9.27099246031746,0.0,0.0
24.0,105.0,0.7,5.05969375,9.27099246031746,0.0,0.0
24.0,105.0,1.0,5.05969375,9.27099246031746,0.0,0.0
24.0,113.0,0.1,5.53776875,9.976486111111111,0.0,0.0
24.0,113.0,0.3,5.53776875,9.976486111111111,0.0,0.0
24.0,113.0,0.7,5.53776875,9.976486111111111,0.0,0.0
24.0,113.0,1.0,5.53776875,9.976486111111111,0.0,0.0
24.0,121.0,0.1,6.01584375,10.681979761904762,0.0,0.0
24.0,121.0,0.3,6.01584375,10.681979761904762,0.0,0.0
24.0,121.0,0.7,6.01584375,10.681979761904762,0.0,0.0
24.0,121.0,1.0,6.01584375,10.681979761904762,0.0,0.0
24.0,127.0,0.1,6.3744,11.2111,0.0,0.0
24.0,127.0,0.3,6.3744,11.2111,0.0,0.0
24.0,127.0,0.7,6.3744,11.2111,0.0,0.0
24.0,127.0,1.0,6.3744,11.2111,0.0,0.0
25.0,1.0,0.1,0.6416645161290323,0.22871842105263157,0.0,0.0
25.0,1.0,0.3,0.6416645161290323,0.22871842105263157,0.0,0.0
25.0,1.0,0.7,0.6416645161290323,0.22871842105263157,0.0,0.0
25.0,1.0,1.0,0.6416645161290323,0.22871842105263157,0.0,0.0
25.0,9.0,0.1,0.7261806451612903,0.6504657894736842,0.0,0.0
25.0,9.0,0.3,0.7261806451612903,0.6504657894736842,0.0,0.0
25.0,9.0,0.7,0.7261806451612903,0.6504657894736842,0.0,0.0
25.0,9.0,1.0,0.7261806451612903,0.6504657894736842,0.0,0.0
25.0,17.0,0.1,0.8106967741935484,1.0722131578947367,0.0,0.0
25.0,17.0,0.3,0.8106967741935484,1.0722131578947367,0.0,0.0
25.0,17.0,0.7,0.8106967741935484,1.0722131578947367,0.0,0.0
25.0,17.0,1.0,0.8106967741935484,1.0722131578947367,0.0,0.0
25.0,25.0,0.1,0.8952129032258065,2.210459615384615,0.0,0.0
25.0,25.0,0.3,0.8952129032258065,2.210459615384615,0.0,0.0
25.0,25.0,0.7,0.8952129032258065,2.210459615384615,0.0,0.0
25.0,25.0,1.0,0.8952129032258065,2.210459615384615,0.0,0.0
25.0,33.0,0.1,0.997275,2.7974365384615383,0.0,0.0
25.0,33.0,0.3,0.997275,2.7974365384615383,0.0,0.0
25.0,33.0,0.7,0.997275,2.7974365384615383,0.0,0.0
25.0,33.0,1.0,0.997275,2.7974365384615383,0.0,0.0
25.0,41.0,0.1,1.151975,3.470837962962963,0.0,0.0
25.0,41.0,0.3,1.151975,3.470837962962963,0.0,0.0
25.0,41.0,0.7,1.151975,3.470837962962963,0.0,0.0
25.0,41.0,1.0,1.151975,3.470837962962963,0.0,0.0
25.0,49.0,0.1,1.3221920454545455,4.230663888888889,0.0,0.0
25.0,49.0,0.3,1.3221920454545455,4.230663888888889,0.0,0.0
25.0,49.0,0.7,1.3221920454545455,4.230663888888889,0.0,0.0
25.0,49.0,1.0,1.3221920454545455,4.230663888888889,0.0,0.0
25.0,57.0,0.1,1.601028409090909,4.990489814814815,0.0,0.0
25.0,57.0,0.3,1.601028409090909,4.990489814814815,0.0,0.0
25.0,57.0,0.7,1.601028409090909,4.990489814814815,0.0,0.0
25.0,57.0,1.0,1.601028409090909,4.990489814814815,0.0,0.0
25.0,65.0,0.1,1.8798647727272728,5.743524206349206,0.0,0.0
25.0,65.0,0.3,1.8798647727272728,5.743524206349206,0.0,0.0
25.0,65.0,0.7,1.8798647727272728,5.743524206349206,0.0,0.0
25.0,65.0,1.0,1.8798647727272728,5.743524206349206,0.0,0.0
25.0,73.0,0.1,2.7818025,6.449017857142857,0.0,0.0
25.0,73.0,0.3,2.7818025,6.449017857142857,0.0,0.0
25.0,73.0,0.7,2.7818025,6.449017857142857,0.0,0.0
25.0,73.0,1.0,2.7818025,6.449017857142857,0.0,0.0
25.0,81.0,0.1,3.62546875,7.154511507936508,0.0,0.0
25.0,81.0,0.3,3.62546875,7.154511507936508,0.0,0.0
25.0,81.0,0.7,3.62546875,7.154511507936508,0.0,0.0
25.0,81.0,1.0,3.62546875,7.154511507936508,0.0,0.0
25.0,89.0,0.1,4.10354375,7.860005158730159,0.0,0.0
25.0,89.0,0.3,4.10354375,7.860005158730159,0.0,0.0
25.0,89.0,0.7,4.10354375,7.860005158730159,0.0,0.0
25.0,89.0,1.0,4.10354375,7.860005158730159,0.0,0.0
25.0,97.0,0.1,4.58161875,8.56549880952381,0.0,0.0
25.0,97.0,0.3,4.58161875,8.56549880952381,0.0,0.0
25.0,97.0,0.7,4.58161875,8.56549880952381,0.0,0.0
25.0,97.0,1.0,4.58161875,8.56549880952381,0.0,0.0
25.0,105.0,0.1,5.05969375,9.27099246031746,0.0,0.0
25.0,105.0,0.3,5.05969375,9.27099246031746,0.0,0.0
25.0,105.0,0.7,5.05969375,9.27099246031746,0.0,0.0
25.0,105.0,1.0,5.05969375,9.27099246031746,0.0,0.0
25.0,113.0,0.1,5.53776875,9.976486111111111,0.0,0.0
25.0,113.0,0.3,5.53776875,9.976486111111111,0.0,0.0
25.0,113.0,0.7,5.53776875,9.976486111111111,0.0,0.0
25.0,113.0,1.0,5.53776875,9.976486111111111,0.0,0.0
25.0,121.0,0.1,6.01584375,10.681979761904762,0.0,0.0
25.0,121.0,0.3,6.01584375,10.681979761904762,0.0,0.0
25.0,121.0,0.7,6.01584375,10.681979761904762,0.0,0.0
25.0,121.0,1.0,6.01584375,10.681979761904762,0.0,0.0
25.0,127.0,0.1,6.3744,11.2111,0.0,0.0
25.0,127.0,0.3,6.3744,11.2111,0.0,0.0
25.0,127.0,0.7,6.3744,11.2111,0.0,0.0
25.0,127.0,1.0,6.3744,11.2111,0.0,0.0
26.0,1.0,0.1,0.6416645161290323,0.22871842105263157,0.0,0.0
26.0,1.0,0.3,0.6416645161290323,0.22871842105263157,0.0,0.0
26.0,1.0,0.7,0.6416645161290323,0.22871842105263157,0.0,0.0
26.0,1.0,1.0,0.6416645161290323,0.22871842105263157,0.0,0.0
26.0,9.0,0.1,0.7261806451612903,0.6504657894736842,0.0,0.0
26.0,9.0,0.3,0.7261806451612903,0.6504657894736842,0.0,0.0
26.0,9.0,0.7,0.7261806451612903,0.6504657894736842,0.0,0.0
26.0,9.0,1.0,0.7261806451612903,0.6504657894736842,0.0,0.0
26.0,17.0,0.1,0.8106967741935484,1.0722131578947367,0.0,0.0
26.0,17.0,0.3,0.8106967741935484,1.0722131578947367,0.0,0.0
26.0,17.0,0.7,0.8106967741935484,1.0722131578947367,0.0,0.0
26.0,17.0,1.0,0.8106967741935484,1.0722131578947367,0.0,0.0
26.0,25.0,0.1,0.8952129032258065,2.210459615384615,0.0,0.0
26.0,25.0,0.3,0.8952129032258065,2.210459615384615,0.0,0.0
26.0,25.0,0.7,0.8952129032258065,2.210459615384615,0.0,0.0
26.0,25.0,1.0,0.8952129032258065,2.210459615384615,0.0,0.0
26.0,33.0,0.1,0.9996921875,2.7974365384615383,0.0,0.0
26.0,33.0,0.3,0.9996921875,2.7974365384615383,0.0,0.0
26.0,33.0,0.7,0.9996921875,2.7974365384615383,0.0,0.0
26.0,33.0,1.0,0.9996921875,2.7974365384615383,0.0,0.0
26.0,41.0,0.1,1.1640609375,3.470837962962963,0.0,0.0
26.0,41.0,0.3,1.1640609375,3.470837962962963,0.0,0.0
26.0,41.0,0.7,1.1640609375,3.470837962962963,0.0,0.0
26.0,41.0,1.0,1.1640609375,3.470837962962963,0.0,0.0
26.0,49.0,0.1,1.3540157608695653,4.230663888888889,0.0,0.0
26.0,49.0,0.3,1.3540157608695653,4.230663888888889,0.0,0.0
26.0,49.0,0.7,1.3540157608695653,4.230663888888889,0.0,0.0
26.0,49.0,1.0,1.3540157608695653,4.230663888888889,0.0,0.0
26.0,57.0,0.1,1.620728804347826,4.990489814814815,0.0,0.0
26.0,57.0,0.3,1.620728804347826,4.990489814814815,0.0,0.0
26.0,57.0,0.7,1.620728804347826,4.990489814814815,0.0,0.0
26.0,57.0,1.0,1.620728804347826,4.990489814814815,0.0,0.0
26.0,65.0,0.1,1.887441847826087,5.743524206349206,0.0,0.0
26.0,65.0,0.3,1.887441847826087,5.743524206349206,0.0,0.0
26.0,65.0,0.7,1.887441847826087,5.743524206349206,0.0,0.0
26.0,65.0,1.0,1.887441847826087,5.743524206349206,0.0,0.0
26.0,73.0,0.1,2.660525,6.449017857142857,0.0,0.0
26.0,73.0,0.3,2.660525,6.449017857142857,0.0,0.0
26.0,73.0,0.7,2.660525,6.449017857142857,0.0,0.0
26.0,73.0,1.0,2.660525,6.449017857142857,0.0,0.0
26.0,81.0,0.1,3.571568137254902,7.154511507936508,0.0,0.0
26.0,81.0,0.3,3.571568137254902,7.154511507936508,0.0,0.0
26.0,81.0,0.7,3.571568137254902,7.154511507936508,0.0,0.0
26.0,81.0,1.0,3.571568137254902,7.154511507936508,0.0,0.0
26.0,89.0,0.1,4.059017156862745,7.860005158730159,0.0,0.0
26.0,89.0,0.3,4.059017156862745,7.860005158730159,0.0,0.0
26.0,89.0,0.7,4.059017156862745,7.860005158730159,0.0,0.0
26.0,89.0,1.0,4.059017156862745,7.860005158730159,0.0,0.0
26.0,97.0,0.1,4.546466176470588,8.56549880952381,0.0,0.0
26.0,97.0,0.3,4.546466176470588,8.56549880952381,0.0,0.0
26.0,97.0,0.7,4.546466176470588,8.56549880952381,0.0,0.0
26.0,97.0,1.0,4.546466176470588,8.56549880952381,0.0,0.0
26.0,105.0,0.1,5.033915196078431,9.27099246031746,0.0,0.0
26.0,105.0,0.3,5.033915196078431,9.27099246031746,0.0,0.0
26.0,105.0,0.7,5.033915196078431,9.27099246031746,0.0,0.0
26.0,105.0,1.0,5.033915196078431,9.27099246031746,0.0,0.0
26.0,113.0,0.1,5.521364215686274,9.976486111111111,0.0,0.0
26.0,113.0,0.3,5.521364215686274,9.976486111111111,0.0,0.0
26.0,113.0,0.7,5.521364215686274,9.976486111111111,0.0,0.0
26.0,113.0,1.0,5.521364215686274,9.976486111111111,0.0,0.0
26.0,121.0,0.1,6.008813235294117,10.681979761904762,0.0,0.0
26.0,121.0,0.3,6.008813235294117,10.681979761904762,0.0,0.0
26.0,121.0,0.7,6.008813235294117,10.681979761904762,0.0,0.0
26.0,121.0,1.0,6.008813235294117,10.681979761904762,0.0,0.0
26.0,127.0,0.1,6.3744,11.2111,0.0,0.0
26.0,127.0,0.3,6.3744,11.2111,0.0,0.0
26.0,127.0,0.7,6.3744,11.2111,0.0,0.0
26.0,127.0,1.0,6.3744,11.2111,0.0,0.0
27.0,1.0,0.1,0.6416645161290323,0.2260825,0.0,0.0
27.0,1.0,0.3,0.6416645161290323,0.2260825,0.0,0.0
27.0,1.0,0.7,0.6416645161290323,0.2260825,0.0,0.0
27.0,1.0,1.0,0.6416645161290323,0.2260825,0.0,0.0
27.0,9.0,0.1,0.7261806451612903,0.6267425,0.0,0.0
27.0,9.0,0.3,0.7261806451612903,0.6267425,0.0,0.0
27.0,9.0,0.7,0.7261806451612903,0.6267425,0.0,0.0
27.0,9.0,1.0,0.7261806451612903,0.6267425,0.0,0.0
27.0,17.0,0.1,0.8106967741935484,1.0274025,0.0,0.0
27.0,17.0,0.3,0.8106967741935484,1.0274025,0.0,0.0
27.0,17.0,0.7,0.8106967741935484,1.0274025,0.0,0.0
27.0,17.0,1.0,0.8106967741935484,1.0274025,0.0,0.0
27.0,25.0,0.1,0.8952129032258065,2.1370875,0.0,0.0
27.0,25.0,0.3,0.8952129032258065,2.1370875,0.0,0.0
27.0,25.0,0.7,0.8952129032258065,2.1370875,0.0,0.0
27.0,25.0,1.0,0.8952129032258065,2.1370875,0.0,0.0
27.0,33.0,0.1,0.9996921875,2.7729791666666666,0.0,0.0
27.0,33.0,0.3,0.9996921875,2.7729791666666666,0.0,0.0
27.0,33.0,0.7,0.9996921875,2.7729791666666666,0.0,0.0
27.0,33.0,1.0,0.9996921875,2.7729791666666666,0.0,0.0
27.0,41.0,0.1,1.1640609375,3.470837962962963,0.0,0.0
27.0,41.0,0.3,1.1640609375,3.470837962962963,0.0,0.0
27.0,41.0,0.7,1.1640609375,3.470837962962963,0.0,0.0
27.0,41.0,1.0,1.1640609375,3.470837962962963,0.0,0.0
27.0,49.0,0.1,1.357046590909091,4.230663888888889,0.0,0.0
27.0,49.0,0.3,1.357046590909091,4.230663888888889,0.0,0.0
27.0,49.0,0.7,1.357046590909091,4.230663888888889,0.0,0.0
27.0,49.0,1.0,1.357046590909091,4.230663888888889,0.0,0.0
27.0,57.0,0.1,1.6358829545454545,4.990489814814815,0.0,0.0
27.0,57.0,0.3,1.6358829545454545,4.990489814814815,0.0,0.0
27.0,57.0,0.7,1.6358829545454545,4.990489814814815,0.0,0.0
27.0,57.0,1.0,1.6358829545454545,4.990489814814815,0.0,0.0
27.0,65.0,0.1,1.914719318181818,5.743524206349206,0.0,0.0
27.0,65.0,0.3,1.914719318181818,5.743524206349206,0.0,0.0
27.0,65.0,0.7,1.914719318181818,5.743524206349206,0.0,0.0
27.0,65.0,1.0,1.914719318181818,5.743524206349206,0.0,0.0
27.0,73.0,0.1,2.7471517857142858,6.449017857142857,0.0,0.0
27.0,73.0,0.3,2.7471517857142858,6.449017857142857,0.0,0.0
27.0,73.0,0.7,2.7471517857142858,6.449017857142857,0.0,0.0
27.0,73.0,1.0,2.7471517857142858,6.449017857142857,0.0,0.0
27.0,81.0,0.1,3.571568137254902,7.154511507936508,0.0,0.0
27.0,81.0,0.3,3.571568137254902,7.154511507936508,0.0,0.0
27.0,81.0,0.7,3.571568137254902,7.154511507936508,0.0,0.0
27.0,81.0,1.0,3.571568137254902,7.154511507936508,0.0,0.0
27.0,89.0,0.1,4.059017156862745,7.860005158730159,0.0,0.0
27.0,89.0,0.3,4.059017156862745,7.860005158730159,0.0,0.0
27.0,89.0,0.7,4.059017156862745,7.860005158730159,0.0,0.0
27.0,89.0,1.0,4.059017156862745,7.860005158730159,0.0,0.0
27.0,97.0,0.1,4.546466176470588,8.56549880952381,0.0,0.0
27.0,97.0,0.3,4.546466176470588,8.56549880952381,0.0,0.0
27.0,97.0,0.7,4.546466176470588,8.56549880952381,0.0,0.0
27.0,97.0,1.0,4.546466176470588,8.56549880952381,0.0,0.0
27.0,105.0,0.1,5.033915196078431,9.27099246031746,0.0,0.0
27.0,105.0,0.3,5.033915196078431,9.27099246031746,0.0,0.0
27.0,105.0,0.7,5.033915196078431,9.27099246031746,0.0,0.0
27.0,105.0,1.0,5.033915196078431,9.27099246031746,0.0,0.0
27.0,113.0,0.1,5.521364215686274,9.976486111111111,0.0,0.0
27.0,113.0,0.3,5.521364215686274,9.976486111111111,0.0,0.0
27.0,113.0,0.7,5.521364215686274,9.976486111111111,0.0,0.0
27.0,113.0,1.0,5.521364215686274,9.976486111111111,0.0,0.0
27.0,121.0,0.1,6.008813235294117,10.681979761904762,0.0,0.0
27.0,121.0,0.3,6.008813235294117,10.681979761904762,0.0,0.0
27.0,121.0,0.7,6.008813235294117,10.681979761904762,0.0,0.0
27.0,121.0,1.0,6.008813235294117,10.681979761904762,0.0,0.0
27.0,127.0,0.1,6.3744,11.2111,0.0,0.0
27.0,127.0,0.3,6.3744,11.2111,0.0,0.0
27.0,127.0,0.7,6.3744,11.2111,0.0,0.0
27.0,127.0,1.0,6.3744,11.2111,0.0,0.0
28.0,1.0,0.1,0.6416645161290323,0.2260825,0.0,0.0
28.0,1.0,0.3,0.6416645161290323,0.2260825,0.0,0.0
28.0,1.0,0.7,0.6416645161290323,0.2260825,0.0,0.0
28.0,1.0,1.0,0.6416645161290323,0.2260825,0.0,0.0
28.0,9.0,0.1,0.7261806451612903,0.6267425,0.0,0.0
28.0,9.0,0.3,0.7261806451612903,0.6267425,0.0,0.0
28.0,9.0,0.7,0.7261806451612903,0.6267425,0.0,0.0
28.0,9.0,1.0,0.7261806451612903,0.6267425,0.0,0.0
28.0,17.0,0.1,0.8106967741935484,1.0274025,0.0,0.0
28.0,17.0,0.3,0.8106967741935484,1.0274025,0.0,0.0
28.0,17.0,0.7,0.8106967741935484,1.0274025,0.0,0.0
28.0,17.0,1.0,0.8106967741935484,1.0274025,0.0,0.0
28.0,25.0,0.1,0.8952129032258065,1.97718125,0.0,0.0
28.0,25.0,0.3,0.8952129032258065,1.97718125,0.0,0.0
28.0,25.0,0.7,0.8952129032258065,1.97718125,0.0,0.0
28.0,25.0,1.0,0.8952129032258065,1.97718125,0.0,0.0
28.0,33.0,0.1,0.9996921875,2.744075,0.0,0.0
28.0,33.0,0.3,0.9996921875,2.744075,0.0,0.0
28.0,33.0,0.7,0.9996921875,2.744075,0.0,0.0
28.0,33.0,1.0,0.9996921875,2.744075,0.0,0.0
28.0,41.0,0.1,1.1640609375,3.470837962962963,0.0,0.0
28.0,41.0,0.3,1.1640609375,3.470837962962963,0.0,0.0
28.0,41.0,0.7,1.1640609375,3.470837962962963,0.0,0.0
28.0,41.0,1.0,1.1640609375,3.470837962962963,0.0,0.0
28.0,49.0,0.1,1.3603660714285715,4.230663888888889,0.0,0.0
28.0,49.0,0.3,1.3603660714285715,4.230663888888889,0.0,0.0
28.0,49.0,0.7,1.3603660714285715,4.230663888888889,0.0,0.0
28.0,49.0,1.0,1.3603660714285715,4.230663888888889,0.0,0.0
28.0,57.0,0.1,1.6524803571428572,4.990489814814815,0.0,0.0
28.0,57.0,0.3,1.6524803571428572,4.990489814814815,0.0,0.0
28.0,57.0,0.7,1.6524803571428572,4.990489814814815,0.0,0.0
28.0,57.0,1.0,1.6524803571428572,4.990489814814815,0.0,0.0
28.0,65.0,0.1,1.9445946428571428,5.743524206349206,0.0,0.0
28.0,65.0,0.3,1.9445946428571428,5.743524206349206,0.0,0.0
28.0,65.0,0.7,1.9445946428571428,5.743524206349206,0.0,0.0
28.0,65.0,1.0,1.9445946428571428,5.743524206349206,0.0,0.0
28.0,73.0,0.1,2.7279013888888892,6.449017857142857,0.0,0.0
28.0,73.0,0.3,2.7279013888888892,6.449017857142857,0.0,0.0
28.0,73.0,0.7,2.7279013888888892,6.449017857142857,0.0,0.0
28.0,73.0,1.0,2.7279013888888892,6.449017857142857,0.0,0.0
28.0,81.0,0.1,3.5155115,7.154511507936508,0.0,0.0
28.0,81.0,0.3,3.5155115,7.154511507936508,0.0,0.0
28.0,81.0,0.7,3.5155115,7.154511507936508,0.0,0.0
28.0,81.0,1.0,3.5155115,7.154511507936508,0.0,0.0
28.0,89.0,0.1,4.0127095,7.860005158730159,0.0,0.0
28.0,89.0,0.3,4.0127095,7.860005158730159,0.0,0.0
28.0,89.0,0.7,4.0127095,7.860005158730159,0.0,0.0
28.0,89.0,1.0,4.0127095,7.860005158730159,0.0,0.0
28.0,97.0,0.1,4.5099075,8.56549880952381,0.0,0.0
28.0,97.0,0.3,4.5099075,8.56549880952381,0.0,0.0
28.0,97.0,0.7,4.5099075,8.56549880952381,0.0,0.0
28.0,97.0,1.0,4.5099075,8.56549880952381,0.0,0.0
28.0,105.0,0.1,5.0071055,9.27099246031746,0.0,0.0
28.0,105.0,0.3,5.0071055,9.27099246031746,0.0,0.0
28.0,105.0,0.7,5.0071055,9.27099246031746,0.0,0.0
28.0,105.0,1.0,5.0071055,9.27099246031746,0.0,0.0
28.0,113.0,0.1,5.5043035,9.976486111111111,0.0,0.0
28.0,113.0,0.3,5.5043035,9.976486111111111,0.0,0.0
28.0,113.0,0.7,5.5043035,9.976486111111111,0.0,0.0
28.0,113.0,1.0,5.5043035,9.976486111111111,0.0,0.0
28.0,121.0,0.1,6.0015015,10.681979761904762,0.0,0.0
28.0,121.0,0.3,6.0015015,10.681979761904762,0.0,0.0
28.0,121.0,0.7,6.0015015,10.681979761904762,0.0,0.0
28.0,121.0,1.0,6.0015015,10.681979761904762,0.0,0.0
28.0,127.0,0.1,6.3744,11.2111,0.0,0.0
28.0,127.0,0.3,6.3744,11.2111,0.0,0.0
28.0,127.0,0.7,6.3744,11.2111,0.0,0.0
28.0,127.0,1.0,6.3744,11.2111,0.0,0.0
29.0,1.0,0.1,0.6416645161290323,0.2260825,0.0,0.0
29.0,1.0,0.3,0.6416645161290323,0.2260825,0.0,0.0
29.0,1.0,0.7,0.6416645161290323,0.2260825,0.0,0.0
29.0,1.0,1.0,0.6416645161290323,0.2260825,0.0,0.0
29.0,9.0,0.1,0.7261806451612903,0.6267425,0.0,0.0
29.0,9.0,0.3,0.7261806451612903,0.6267425,0.0,0.0
29.0,9.0,0.7,0.7261806451612903,0.6267425,0.0,0.0
29.0,9.0,1.0,0.7261806451612903,0.6267425,0.0,0.0
29.0,17.0,0.1,0.8106967741935484,1.0274025,0.0,0.0
29.0,17.0,0.3,0.8106967741935484,1.0274025,0.0,0.0
29.0,17.0,0.7,0.8106967741935484,1.0274025,0.0,0.0
29.0,17.0,1.0,0.8106967741935484,1.0274025,0.0,0.0
29.0,25.0,0.1,0.8952129032258065,1.97718125,0.0,0.0
29.0,25.0,0.3,0.8952129032258065,1.97718125,0.0,0.0
29.0,25.0,0.7,0.8952129032258065,1.97718125,0.0,0.0
29.0,25.0,1.0,0.8952129032258065,1.97718125,0.0,0.0
29.0,33.0,0.1,1.0024316666666666,2.744075,0.0,0.0
29.0,33.0,0.3,1.0024316666666666,2.744075,0.0,0.0
29.0,33.0,0.7,1.0024316666666666,2.744075,0.0,0.0
29.0,33.0,1.0,1.0024316666666666,2.744075,0.0,0.0
29.0,41.0,0.1,1.1777583333333332,3.470837962962963,0.0,0.0
29.0,41.0,0.3,1.1777583333333332,3.470837962962963,0.0,0.0
29.0,41.0,0.7,1.1777583333333332,3.470837962962963,0.0,0.0
29.0,41.0,1.0,1.1777583333333332,3.470837962962963,0.0,0.0
29.0,49.0,0.1,1.3919011363636364,4.230663888888889,0.0,0.0
29.0,49.0,0.3,1.3919011363636364,4.230663888888889,0.0,0.0
29.0,49.0,0.7,1.3919011363636364,4.230663888888889,0.0,0.0
29.0,49.0,1.0,1.3919011363636364,4.230663888888889,0.0,0.0
29.0,57.0,0.1,1.6707375,4.990489814814815,0.0,0.0
29.0,57.0,0.3,1.6707375,4.990489814814815,0.0,0.0
29.0,57.0,0.7,1.6707375,4.990489814814815,0.0,0.0
29.0,57.0,1.0,1.6707375,4.990489814814815,0.0,0.0
29.0,65.0,0.1,1.9495738636363635,5.743524206349206,0.0,0.0
29.0,65.0,0.3,1.9495738636363635,5.743524206349206,0.0,0.0
29.0,65.0,0.7,1.9495738636363635,5.743524206349206,0.0,0.0
29.0,65.0,1.0,1.9495738636363635,5.743524206349206,0.0,0.0
29.0,73.0,0.1,2.660525,6.449017857142857,0.0,0.0
29.0,73.0,0.3,2.660525,6.449017857142857,0.0,0.0
29.0,73.0,0.7,2.660525,6.449017857142857,0.0,0.0
29.0,73.0,1.0,2.660525,6.449017857142857,0.0,0.0
29.0,81.0,0.1,3.457166836734694,7.154511507936508,0.0,0.0
29.0,81.0,0.3,3.457166836734694,7.154511507936508,0.0,0.0
29.0,81.0,0.7,3.457166836734694,7.154511507936508,0.0,0.0
29.0,81.0,1.0,3.457166836734694,7.154511507936508,0.0,0.0
29.0,89.0,0.1,3.9645117346938776,7.860005158730159,0.0,0.0
29.0,89.0,0.3,3.9645117346938776,7.860005158730159,0.0,0.0
29.0,89.0,0.7,3.9645117346938776,7.860005158730159,0.0,0.0
29.0,89.0,1.0,3.9645117346938776,7.860005158730159,0.0,0.0
29.0,97.0,0.1,4.471856632653061,8.56549880952381,0.0,0.0
29.0,97.0,0.3,4.471856632653061,8.56549880952381,0.0,0.0
29.0,97.0,0.7,4.471856632653061,8.56549880952381,0.0,0.0
29.0,97.0,1.0,4.471856632653061,8.56549880952381,0.0,0.0
29.0,105.0,0.1,4.979201530612245,9.27099246031746,0.0,0.0
29.0,105.0,0.3,4.979201530612245,9.27099246031746,0.0,0.0
29.0,105.0,0.7,4.979201530612245,9.27099246031746,0.0,0.0
29.0,105.0,1.0,4.979201530612245,9.27099246031746,0.0,0.0
29.0,113.0,0.1,5.486546428571428,9.976486111111111,0.0,0.0
29.0,113.0,0.3,5.486546428571428,9.976486111111111,0.0,0.0
29.0,113.0,0.7,5.486546428571428,9.976486111111111,0.0,0.0
29.0,113.0,1.0,5.486546428571428,9.976486111111111,0.0,0.0
29.0,121.0,0.1,5.993891326530612,10.681979761904762,0.0,0.0
29.0,121.0,0.3,5.993891326530612,10.681979761904762,0.0,0.0
29.0,121.0,0.7,5.993891326530612,10.681979761904762,0.0,0.0
29.0,121.0,1.0,5.993891326530612,10.681979761904762,0.0,0.0
29.0,127.0,0.1,6.3744,11.2111,0.0,0.0
29.0,127.0,0.3,6.3744,11.2111,0.0,0.0
29.0,127.0,0.7,6.3744,11.2111,0.0,0.0
29.0,127.0,1.0,6.3744,11.2111,0.0,0.0
30.0,1.0,0.1,0.641334375,0.2260825,0.0,0.0
30.0,1.0,0.3,0.641334375,0.2260825,0.0,0.0
30.0,1.0,0.7,0.641334375,0.2260825,0.0,0.0
30.0,1.0,1.0,0.641334375,0.2260825,0.0,0.0
30.0,9.0,0.1,0.723209375,0.6267425,0.0,0.0
30.0,9.0,0.3,0.723209375,0.6267425,0.0,0.0
30.0,9.0,0.7,0.723209375,0.6267425,0.0,0.0
30.0,9.0,1.0,0.723209375,0.6267425,0.0,0.0
30.0,17.0,0.1,0.805084375,1.0274025,0.0,0.0
30.0,17.0,0.3,0.805084375,1.0274025,0.0,0.0
30.0,17.0,0.7,0.805084375,1.0274025,0.0,0.0
30.0,17.0,1.0,0.805084375,1.0274025,0.0,0.0
30.0,25.0,0.1,0.886959375,1.97718125,0.0,0.0
30.0,25.0,0.3,0.886959375,1.97718125,0.0,0.0
30.0,25.0,0.7,0.886959375,1.97718125,0.0,0.0
30.0,25.0,1.0,0.886959375,1.97718125,0.0,0.0
30.0,33.0,0.1,0.98208125,2.6934927083333333,0.0,0.0
30.0,33.0,0.3,0.98208125,2.6934927083333333,0.0,0.0
30.0,33.0,0.7,0.98208125,2.6934927083333333,0.0,0.0
30.0,33.0,1.0,0.98208125,2.6934927083333333,0.0,0.0
30.0,41.0,0.1,1.16993125,3.3868187499999998,0.0,0.0
30.0,41.0,0.3,1.16993125,3.3868187499999998,0.0,0.0
30.0,41.0,0.7,1.16993125,3.3868187499999998,0.0,0.0
30.0,41.0,1.0,1.16993125,3.3868187499999998,0.0,0.0
30.0,49.0,0.1,1.3919011363636364,4.17586875,0.0,0.0
30.0,49.0,0.3,1.3919011363636364,4.17586875,0.0,0.0
30.0,49.0,0.7,1.3919011363636364,4.17586875,0.0,0.0
30.0,49.0,1.0,1.3919011363636364,4.17586875,0.0,0.0
30.0,57.0,0.1,1.6707375,4.96491875,0.0,0.0
30.0,57.0,0.3,1.6707375,4.96491875,0.0,0.0
30.0,57.0,0.7,1.6707375,4.96491875,0.0,0.0
30.0,57.0,1.0,1.6707375,4.96491875,0.0,0.0
30.0,65.0,0.1,1.9495738636363635,5.743524206349206,0.0,0.0
30.0,65.0,0.3,1.9495738636363635,5.743524206349206,0.0,0.0
30.0,65.0,0.7,1.9495738636363635,5.743524206349206,0.0,0.0
30.0,65.0,1.0,1.9495738636363635,5.743524206349206,0.0,0.0
30.0,73.0,0.1,2.660525,6.449017857142857,0.0,0.0
30.0,73.0,0.3,2.660525,6.449017857142857,0.0,0.0
30.0,73.0,0.7,2.660525,6.449017857142857,0.0,0.0
30.0,73.0,1.0,2.660525,6.449017857142857,0.0,0.0
30.0,81.0,0.1,3.457166836734694,7.154511507936508,0.0,0.0
30.0,81.0,0.3,3.457166836734694,7.154511507936508,0.0,0.0
30.0,81.0,0.7,3.457166836734694,7.154511507936508,0.0,0.0
30.0,81.0,1.0,3.457166836734694,7.154511507936508,0.0,0.0
30.0,89.0,0.1,3.9645117346938776,7.860005158730159,0.0,0.0
30.0,89.0,0.3,3.9645117346938776,7.860005158730159,0.0,0.0
30.0,89.0,0.7,3.9645117346938776,7.860005158730159,0.0,0.0
30.0,89.0,1.0,3.9645117346938776,7.860005158730159,0.0,0.0
30.0,97.0,0.1,4.471856632653061,8.56549880952381,0.0,0.0
30.0,97.0,0.3,4.471856632653061,8.56549880952381,0.0,0.0
30.0,97.0,0.7,4.471856632653061,8.56549880952381,0.0,0.0
30.0,97.0,1.0,4.471856632653061,8.56549880952381,0.0,0.0
30.0,105.0,0.1,4.979201530612245,9.27099246031746,0.0,0.0
30.0,105.0,0.3,4.979201530612245,9.27099246031746,0.0,0.0
30.0,105.0,0.7,4.979201530612245,9.27099246031746,0.0,0.0
30.0,105.0,1.0,4.979201530612245,9.27099246031746,0.0,0.0
30.0,113.0,0.1,5.486546428571428,9.976486111111111,0.0,0.0
30.0,113.0,0.3,5.486546428571428,9.976486111111111,0.0,0.0
30.0,113.0,0.7,5.486546428571428,9.976486111111111,0.0,0.0
30.0,113.0,1.0,5.486546428571428,9.976486111111111,0.0,0.0
30.0,121.0,0.1,5.993891326530612,10.681979761904762,0.0,0.0
30.0,121.0,0.3,5.993891326530612,10.681979761904762,0.0,0.0
30.0,121.0,0.7,5.993891326530612,10.681979761904762,0.0,0.0
30.0,121.0,1.0,5.993891326530612,10.681979761904762,0.0,0.0
30.0,127.0,0.1,6.3744,11.2111,0.0,0.0
30.0,127.0,0.3,6.3744,11.2111,0.0,0.0
30.0,127.0,0.7,6.3744,11.2111,0.0,0.0
30.0,127.0,1.0,6.3744,11.2111,0.0,0.0
31.0,1.0,0.1,0.641334375,0.2260825,0.0,0.0
31.0,1.0,0.3,0.641334375,0.2260825,0.0,0.0
31.0,1.0,0.7,0.641334375,0.2260825,0.0,0.0
31.0,1.0,1.0,0.641334375,0.2260825,0.0,0.0
31.0,9.0,0.1,0.723209375,0.6267425,0.0,0.0
31.0,9.0,0.3,0.723209375,0.6267425,0.0,0.0
31.0,9.0,0.7,0.723209375,0.6267425,0.0,0.0
31.0,9.0,1.0,0.723209375,0.6267425,0.0,0.0
31.0,17.0,0.1,0.805084375,1.0274025,0.0,0.0
31.0,17.0,0.3,0.805084375,1.0274025,0.0,0.0
31.0,17.0,0.7,0.805084375,1.0274025,0.0,0.0
31.0,17.0,1.0,0.805084375,1.0274025,0.0,0.0
31.0,25.0,0.1,0.886959375,1.8629624999999999,0.0,0.0
31.0,25.0,0.3,0.886959375,1.8629624999999999,0.0,0.0
31.0,25.0,0.7,0.886959375,1.8629624999999999,0.0,0.0
31.0,25.0,1.0,0.886959375,1.8629624999999999,0.0,0.0
31.0,33.0,0.1,0.98208125,2.6573624999999996,0.0,0.0
31.0,33.0,0.3,0.98208125,2.6573624999999996,0.0,0.0
31.0,33.0,0.7,0.98208125,2.6573624999999996,0.0,0.0
31.0,33.0,1.0,0.98208125,2.6573624999999996,0.0,0.0
31.0,41.0,0.1,1.16993125,3.3868187499999998,0.0,0.0
31.0,41.0,0.3,1.16993125,3.3868187499999998,0.0,0.0
31.0,41.0,0.7,1.16993125,3.3868187499999998,0.0,0.0
31.0,41.0,1.0,1.16993125,3.3868187499999998,0.0,0.0
31.0,49.0,0.1,1.3968803571428572,4.17586875,0.0,0.0
31.0,49.0,0.3,1.3968803571428572,4.17586875,0.0,0.0
31.0,49.0,0.7,1.3968803571428572,4.17586875,0.0,0.0
31.0,49.0,1.0,1.3968803571428572,4.17586875,0.0,0.0
31.0,57.0,0.1,1.6889946428571427,4.96491875,0.0,0.0
31.0,57.0,0.3,1.6889946428571427,4.96491875,0.0,0.0
31.0,57.0,0.7,1.6889946428571427,4.96491875,0.0,0.0
31.0,57.0,1.0,1.6889946428571427,4.96491875,0.0,0.0
31.0,65.0,0.1,1.9811089285714285,5.743524206349206,0.0,0.0
31.0,65.0,0.3,1.9811089285714285,5.743524206349206,0.0,0.0
31.0,65.0,0.7,1.9811089285714285,5.743524206349206,0.0,0.0
31.0,65.0,1.0,1.9811089285714285,5.743524206349206,0.0,0.0
31.0,73.0,0.1,2.660525,6.449017857142857,0.0,0.0
31.0,73.0,0.3,2.660525,6.449017857142857,0.0,0.0
31.0,73.0,0.7,2.660525,6.449017857142857,0.0,0.0
31.0,73.0,1.0,2.660525,6.449017857142857,0.0,0.0
31.0,81.0,0.1,3.3963911458333333,7.154511507936508,0.0,0.0
31.0,81.0,0.3,3.3963911458333333,7.154511507936508,0.0,0.0
31.0,81.0,0.7,3.3963911458333333,7.154511507936508,0.0,0.0
31.0,81.0,1.0,3.3963911458333333,7.154511507936508,0.0,0.0
31.0,89.0,0.1,3.9143057291666667,7.860005158730159,0.0,0.0
31.0,89.0,0.3,3.9143057291666667,7.860005158730159,0.0,0.0
31.0,89.0,0.7,3.9143057291666667,7.860005158730159,0.0,0.0
31.0,89.0,1.0,3.9143057291666667,7.860005158730159,0.0,0.0
31.0,97.0,0.1,4.4322203125,8.56549880952381,0.0,0.0
31.0,97.0,0.3,4.4322203125,8.56549880952381,0.0,0.0
31.0,97.0,0.7,4.4322203125,8.56549880952381,0.0,0.0
31.0,97.0,1.0,4.4322203125,8.56549880952381,0.0,0.0
31.0,105.0,0.1,4.950134895833333,9.27099246031746,0.0,0.0
31.0,105.0,0.3,4.950134895833333,9.27099246031746,0.0,0.0
31.0,105.0,0.7,4.950134895833333,9.27099246031746,0.0,0.0
31.0,105.0,1.0,4.950134895833333,9.27099246031746,0.0,0.0
31.0,113.0,0.1,5.468049479166666,9.976486111111111,0.0,0.0
31.0,113.0,0.3,5.468049479166666,9.976486111111111,0.0,0.0
31.0,113.0,0.7,5.468049479166666,9.976486111111111,0.0,0.0
31.0,113.0,1.0,5.468049479166666,9.976486111111111,0.0,0.0
31.0,121.0,0.1,5.9859640625,10.681979761904762,0.0,0.0
31.0,121.0,0.3,5.9859640625,10.681979761904762,0.0,0.0
31.0,121.0,0.7,5.9859640625,10.681979761904762,0.0,0.0
31.0,121.0,1.0,5.9859640625,10.681979761904762,0.0,0.0
31.0,127.0,0.1,6.3744,11.2111,0.0,0.0
31.0,127.0,0.3,6.3744,11.2111,0.0,0.0
31.0,127.0,0.7,6.3744,11.2111,0.0,0.0
31.0,127.0,1.0,6.3744,11.2111,0.0,0.0
32.0,1.0,0.1,0.641334375,0.22369761904761903,0.0,0.0
32.0,1.0,0.3,0.641334375,0.22369761904761903,0.0,0.0
32.0,1.0,0.7,0.641334375,0.22369761904761903,0.0,0.0
32.0,1.0,1.0,0.641334375,0.22369761904761903,0.0,0.0
32.0,9.0,0.1,0.723209375,0.6052785714285713,0.0,0.0
32.0,9.0,0.3,0.723209375,0.6052785714285713,0.0,0.0
32.0,9.0,0.7,0.723209375,0.6052785714285713,0.0,0.0
32.0,9.0,1.0,0.723209375,0.6052785714285713,0.0,0.0
32.0,17.0,0.1,0.805084375,0.9868595238095237,0.0,0.0
32.0,17.0,0.3,0.805084375,0.9868595238095237,0.0,0.0
32.0,17.0,0.7,0.805084375,0.9868595238095237,0.0,0.0
32.0,17.0,1.0,0.805084375,0.9868595238095237,0.0,0.0
32.0,25.0,0.1,0.886959375,1.7258999999999998,0.0,0.0
32.0,25.0,0.3,0.886959375,1.7258999999999998,0.0,0.0
32.0,25.0,0.7,0.886959375,1.7258999999999998,0.0,0.0
32.0,25.0,1.0,0.886959375,1.7258999999999998,0.0,0.0
32.0,33.0,0.1,0.9838875,2.61400625,0.0,0.0
32.0,33.0,0.3,0.9838875,2.61400625,0.0,0.0
32.0,33.0,0.7,0.9838875,2.61400625,0.0,0.0
32.0,33.0,1.0,0.9838875,2.61400625,0.0,0.0
32.0,41.0,0.1,1.1861875,3.3868187499999998,0.0,0.0
32.0,41.0,0.3,1.1861875,3.3868187499999998,0.0,0.0
32.0,41.0,0.7,1.1861875,3.3868187499999998,0.0,0.0
32.0,41.0,1.0,1.1861875,3.3868187499999998,0.0,0.0
32.0,49.0,0.1,1.433394642857143,4.17586875,0.0,0.0
32.0,49.0,0.3,1.433394642857143,4.17586875,0.0,0.0
32.0,49.0,0.7,1.433394642857143,4.17586875,0.0,0.0
32.0,49.0,1.0,1.433394642857143,4.17586875,0.0,0.0
32.0,57.0,0.1,1.7255089285714285,4.96491875,0.0,0.0
32.0,57.0,0.3,1.7255089285714285,4.96491875,0.0,0.0
32.0,57.0,0.7,1.7255089285714285,4.96491875,0.0,0.0
32.0,57.0,1.0,1.7255089285714285,4.96491875,0.0,0.0
32.0,65.0,0.1,2.017623214285714,5.743524206349206,0.0,0.0
32.0,65.0,0.3,2.017623214285714,5.743524206349206,0.0,0.0
32.0,65.0,0.7,2.017623214285714,5.743524206349206,0.0,0.0
32.0,65.0,1.0,2.017623214285714,5.743524206349206,0.0,0.0
32.0,73.0,0.1,2.707170192307692,6.449017857142857,0.0,0.0
32.0,73.0,0.3,2.707170192307692,6.449017857142857,0.0,0.0
32.0,73.0,0.7,2.707170192307692,6.449017857142857,0.0,0.0
32.0,73.0,1.0,2.707170192307692,6.449017857142857,0.0,0.0
32.0,81.0,0.1,3.3963911458333333,7.154511507936508,0.0,0.0
32.0,81.0,0.3,3.3963911458333333,7.154511507936508,0.0,0.0
32.0,81.0,0.7,3.3963911458333333,7.154511507936508,0.0,0.0
32.0,81.0,1.0,3.3963911458333333,7.154511507936508,0.0,0.0
32.0,89.0,0.1,3.9143057291666667,7.860005158730159,0.0,0.0
32.0,89.0,0.3,3.9143057291666667,7.860005158730159,0.0,0.0
32.0,89.0,0.7,3.9143057291666667,7.860005158730159,0.0,0.0
32.0,89.0,1.0,3.9143057291666667,7.860005158730159,0.0,0.0
32.0,97.0,0.1,4.4322203125,8.56549880952381,0.0,0.0
32.0,97.0,0.3,4.4322203125,8.56549880952381,0.0,0.0
32.0,97.0,0.7,4.4322203125,8.56549880952381,0.0,0.0
32.0,97.0,1.0,4.4322203125,8.56549880952381,0.0,0.0
32.0,105.0,0.1,4.950134895833333,9.27099246031746,0.0,0.0
32.0,105.0,0.3,4.950134895833333,9.27099246031746,0.0,0.0
32.0,105.0,0.7,4.950134895833333,9.27099246031746,0.0,0.0
32.0,105.0,1.0,4.950134895833333,9.27099246031746,0.0,0.0
32.0,113.0,0.1,5.468049479166666,9.976486111111111,0.0,0.0
32.0,113.0,0.3,5.468049479166666,9.976486111111111,0.0,0.0
32.0,113.0,0.7,5.468049479166666,9.976486111111111,0.0,0.0
32.0,113.0,1.0,5.468049479166666,9.976486111111111,0.0,0.0
32.0,121.0,0.1,5.9859640625,10.681979761904762,0.0,0.0
32.0,121.0,0.3,5.9859640625,10.681979761904762,0.0,0.0
32.0,121.0,0.7,5.9859640625,10.681979761904762,0.0,0.0
32.0,121.0,1.0,5.9859640625,10.681979761904762,0.0,0.0
32.0,127.0,0.1,6.3744,11.2111,0.0,0.0
32.0,127.0,0.3,6.3744,11.2111,0.0,0.0
32.0,127.0,0.7,6.3744,11.2111,0.0,0.0
32.0,127.0,1.0,6.3744,11.2111,0.0,0.0
33.0,1.0,0.1,0.641334375,0.22369761904761903,0.0,0.0
33.0,1.0,0.3,0.641334375,0.22369761904761903,0.0,0.0
33.0,1.0,0.7,0.641334375,0.22369761904761903,0.0,0.0
33.0,1.0,1.0,0.641334375,0.22369761904761903,0.0,0.0
33.0,9.0,0.1,0.723209375,0.6052785714285713,0.0,0.0
33.0,9.0,0.3,0.723209375,0.6052785714285713,0.0,0.0
33.0,9.0,0.7,0.723209375,0.6052785714285713,0.0,0.0
33.0,9.0,1.0,0.723209375,0.6052785714285713,0.0,0.0
33.0,17.0,0.1,0.805084375,0.9868595238095237,0.0,0.0
33.0,17.0,0.3,0.805084375,0.9868595238095237,0.0,0.0
33.0,17.0,0.7,0.805084375,0.9868595238095237,0.0,0.0
33.0,17.0,1.0,0.805084375,0.9868595238095237,0.0,0.0
33.0,25.0,0.1,0.886959375,1.7258999999999998,0.0,0.0
33.0,25.0,0.3,0.886959375,1.7258999999999998,0.0,0.0
33.0,25.0,0.7,0.886959375,1.7258999999999998,0.0,0.0
33.0,25.0,1.0,0.886959375,1.7258999999999998,0.0,0.0
33.0,33.0,0.1,0.9838875,2.61400625,0.0,0.0
33.0,33.0,0.3,0.9838875,2.61400625,0.0,0.0
33.0,33.0,0.7,0.9838875,2.61400625,0.0,0.0
33.0,33.0,1.0,0.9838875,2.61400625,0.0,0.0
33.0,41.0,0.1,1.1861875,3.3868187499999998,0.0,0.0
33.0,41.0,0.3,1.1861875,3.3868187499999998,0.0,0.0
33.0,41.0,0.7,1.1861875,3.3868187499999998,0.0,0.0
33.0,41.0,1.0,1.1861875,3.3868187499999998,0.0,0.0
33.0,49.0,0.1,1.433394642857143,4.17586875,0.0,0.0
33.0,49.0,0.3,1.433394642857143,4.17586875,0.0,0.0
33.0,49.0,0.7,1.433394642857143,4.17586875,0.0,0.0
33.0,49.0,1.0,1.433394642857143,4.17586875,0.0,0.0
33.0,57.0,0.1,1.7255089285714285,4.96491875,0.0,0.0
33.0,57.0,0.3,1.7255089285714285,4.96491875,0.0,0.0
33.0,57.0,0.7,1.7255089285714285,4.96491875,0.0,0.0
33.0,57.0,1.0,1.7255089285714285,4.96491875,0.0,0.0
33.0,65.0,0.1,2.017623214285714,5.743524206349206,0.0,0.0
33.0,65.0,0.3,2.017623214285714,5.743524206349206,0.0,0.0
33.0,65.0,0.7,2.017623214285714,5.743524206349206,0.0,0.0
33.0,65.0,1.0,2.017623214285714,5.743524206349206,0.0,0.0
33.0,73.0,0.1,2.660525,6.449017857142857,0.0,0.0
33.0,73.0,0.3,2.660525,6.449017857142857,0.0,0.0
33.0,73.0,0.7,2.660525,6.449017857142857,0.0,0.0
33.0,73.0,1.0,2.660525,6.449017857142857,0.0,0.0
33.0,81.0,0.1,3.333029255319149,7.154511507936508,0.0,0.0
33.0,81.0,0.3,3.333029255319149,7.154511507936508,0.0,0.0
33.0,81.0,0.7,3.333029255319149,7.154511507936508,0.0,0.0
33.0,81.0,1.0,3.333029255319149,7.154511507936508,0.0,0.0
33.0,89.0,0.1,3.8619632978723404,7.860005158730159,0.0,0.0
33.0,89.0,0.3,3.8619632978723404,7.860005158730159,0.0,0.0
33.0,89.0,0.7,3.8619632978723404,7.860005158730159,0.0,0.0
33.0,89.0,1.0,3.8619632978723404,7.860005158730159,0.0,0.0
33.0,97.0,0.1,4.390897340425532,8.56549880952381,0.0,0.0
33.0,97.0,0.3,4.390897340425532,8.56549880952381,0.0,0.0
33.0,97.0,0.7,4.390897340425532,8.56549880952381,0.0,0.0
33.0,97.0,1.0,4.390897340425532,8.56549880952381,0.0,0.0
33.0,105.0,0.1,4.919831382978723,9.27099246031746,0.0,0.0
33.0,105.0,0.3,4.919831382978723,9.27099246031746,0.0,0.0
33.0,105.0,0.7,4.919831382978723,9.27099246031746,0.0,0.0
33.0,105.0,1.0,4.919831382978723,9.27099246031746,0.0,0.0
33.0,113.0,0.1,5.448765425531915,9.976486111111111,0.0,0.0
33.0,113.0,0.3,5.448765425531915,9.976486111111111,0.0,0.0
33.0,113.0,0.7,5.448765425531915,9.976486111111111,0.0,0.0
33.0,113.0,1.0,5.448765425531915,9.976486111111111,0.0,0.0
33.0,121.0,0.1,5.977699468085106,10.681979761904762,0.0,0.0
33.0,121.0,0.3,5.977699468085106,10.681979761904762,0.0,0.0
33.0,121.0,0.7,5.977699468085106,10.681979761904762,0.0,0.0
33.0,121.0,1.0,5.977699468085106,10.681979761904762,0.0,0.0
33.0,127.0,0.1,6.3744,11.2111,0.0,0.0
33.0,127.0,0.3,6.3744,11.2111,0.0,0.0
33.0,127.0,0.7,6.3744,11.2111,0.0,0.0
33.0,127.0,1.0,6.3744,11.2111,0.0,0.0
34.0,1.0,0.1,0.6416645161290323,0.22369761904761903,0.0,0.0
34.0,1.0,0.3,0.6416645161290323,0.22369761904761903,0.0,0.0
34.0,1.0,0.7,0.6416645161290323,0.22369761904761903,0.0,0.0
34.0,1.0,1.0,0.6416645161290323,0.22369761904761903,0.0,0.0
34.0,9.0,0.1,0.7261806451612903,0.6052785714285713,0.0,0.0
34.0,9.0,0.3,0.7261806451612903,0.6052785714285713,0.0,0.0
34.0,9.0,0.7,0.7261806451612903,0.6052785714285713,0.0,0.0
34.0,9.0,1.0,0.7261806451612903,0.6052785714285713,0.0,0.0
34.0,17.0,0.1,0.8106967741935484,0.9868595238095237,0.0,0.0
34.0,17.0,0.3,0.8106967741935484,0.9868595238095237,0.0,0.0
34.0,17.0,0.7,0.8106967741935484,0.9868595238095237,0.0,0.0
34.0,17.0,1.0,0.8106967741935484,0.9868595238095237,0.0,0.0
34.0,25.0,0.1,0.8952129032258065,1.7258999999999998,0.0,0.0
34.0,25.0,0.3,0.8952129032258065,1.7258999999999998,0.0,0.0
34.0,25.0,0.7,0.8952129032258065,1.7258999999999998,0.0,0.0
34.0,25.0,1.0,0.8952129032258065,1.7258999999999998,0.0,0.0
34.0,33.0,0.1,1.009175,2.61400625,0.0,0.0
34.0,33.0,0.3,1.009175,2.61400625,0.0,0.0
34.0,33.0,0.7,1.009175,2.61400625,0.0,0.0
34.0,33.0,1.0,1.009175,2.61400625,0.0,0.0
34.0,41.0,0.1,1.211475,3.3868187499999998,0.0,0.0
34.0,41.0,0.3,1.211475,3.3868187499999998,0.0,0.0
34.0,41.0,0.7,1.211475,3.3868187499999998,0.0,0.0
34.0,41.0,1.0,1.211475,3.3868187499999998,0.0,0.0
34.0,49.0,0.1,1.4699089285714286,4.17586875,0.0,0.0
34.0,49.0,0.3,1.4699089285714286,4.17586875,0.0,0.0
34.0,49.0,0.7,1.4699089285714286,4.17586875,0.0,0.0
34.0,49.0,1.0,1.4699089285714286,4.17586875,0.0,0.0
34.0,57.0,0.1,1.7620232142857142,4.96491875,0.0,0.0
34.0,57.0,0.3,1.7620232142857142,4.96491875,0.0,0.0
34.0,57.0,0.7,1.7620232142857142,4.96491875,0.0,0.0
34.0,57.0,1.0,1.7620232142857142,4.96491875,0.0,0.0
34.0,65.0,0.1,2.0541375,5.743524206349206,0.0,0.0
34.0,65.0,0.3,2.0541375,5.743524206349206,0.0,0.0
34.0,65.0,0.7,2.0541375,5.743524206349206,0.0,0.0
34.0,65.0,1.0,2.0541375,5.743524206349206,0.0,0.0
34.0,73.0,0.1,2.7471517857142858,6.449017857142857,0.0,0.0
34.0,73.0,0.3,2.7471517857142858,6.449017857142857,0.0,0.0
34.0,73.0,0.7,2.7471517857142858,6.449017857142857,0.0,0.0
34.0,73.0,1.0,2.7471517857142858,6.449017857142857,0.0,0.0
34.0,81.0,0.1,3.3963911458333333,7.154511507936508,0.0,0.0
34.0,81.0,0.3,3.3963911458333333,7.154511507936508,0.0,0.0
34.0,81.0,0.7,3.3963911458333333,7.154511507936508,0.0,0.0
34.0,81.0,1.0,3.3963911458333333,7.154511507936508,0.0,0.0
34.0,89.0,0.1,3.9143057291666667,7.860005158730159,0.0,0.0
34.0,89.0,0.3,3.9143057291666667,7.860005158730159,0.0,0.0
34.0,89.0,0.7,3.9143057291666667,7.860005158730159,0.0,0.0
34.0,89.0,1.0,3.9143057291666667,7.860005158730159,0.0,0.0
34.0,97.0,0.1,4.4322203125,8.56549880952381,0.0,0.0
34.0,97.0,0.3,4.4322203125,8.56549880952381,0.0,0.0
34.0,97.0,0.7,4.4322203125,8.56549880952381,0.0,0.0
34.0,97.0,1.0,4.4322203125,8.56549880952381,0.0,0.0
34.0,105.0,0.1,4.950134895833333,9.27099246031746,0.0,0.0
34.0,105.0,0.3,4.950134895833333,9.27099246031746,0.0,0.0
34.0,105.0,0.7,4.950134895833333,9.27099246031746,0.0,0.0
34.0,105.0,1.0,4.950134895833333,9.27099246031746,0.0,0.0
34.0,113.0,0.1,5.468049479166666,9.976486111111111,0.0,0.0
34.0,113.0,0.3,5.468049479166666,9.976486111111111,0.0,0.0
34.0,113.0,0.7,5.468049479166666,9.976486111111111,0.0,0.0
34.0,113.0,1.0,5.468049479166666,9.976486111111111,0.0,0.0
34.0,121.0,0.1,5.9859640625,10.681979761904762,0.0,0.0
34.0,121.0,0.3,5.9859640625,10.681979761904762,0.0,0.0
34.0,121.0,0.7,5.9859640625,10.681979761904762,0.0,0.0
34.0,121.0,1.0,5.9859640625,10.681979761904762,0.0,0.0
34.0,127.0,0.1,6.3744,11.2111,0.0,0.0
34.0,127.0,0.3,6.3744,11.2111,0.0,0.0
34.0,127.0,0.7,6.3744,11.2111,0.0,0.0
34.0,127.0,1.0,6.3744,11.2111,0.0,0.0
35.0,1.0,0.1,0.6416645161290323,0.22369761904761903,0.0,0.0
35.0,1.0,0.3,0.6416645161290323,0.22369761904761903,0.0,0.0
35.0,1.0,0.7,0.6416645161290323,0.22369761904761903,0.0,0.0
35.0,1.0,1.0,0.6416645161290323,0.22369761904761903,0.0,0.0
35.0,9.0,0.1,0.7261806451612903,0.6052785714285713,0.0,0.0
35.0,9.0,0.3,0.7261806451612903,0.6052785714285713,0.0,0.0
35.0,9.0,0.7,0.7261806451612903,0.6052785714285713,0.0,0.0
35.0,9.0,1.0,0.7261806451612903,0.6052785714285713,0.0,0.0
35.0,17.0,0.1,0.8106967741935484,0.9868595238095237,0.0,0.0
35.0,17.0,0.3,0.8106967741935484,0.9868595238095237,0.0,0.0
35.0,17.0,0.7,0.8106967741935484,0.9868595238095237,0.0,0.0
35.0,17.0,1.0,0.8106967741935484,0.9868595238095237,0.0,0.0
35.0,25.0,0.1,0.8952129032258065,1.7258999999999998,0.0,0.0
35.0,25.0,0.3,0.8952129032258065,1.7258999999999998,0.0,0.0
35.0,25.0,0.7,0.8952129032258065,1.7258999999999998,0.0,0.0
35.0,25.0,1.0,0.8952129032258065,1.7258999999999998,0.0,0.0
35.0,33.0,0.1,1.009175,2.5706499999999997,0.0,0.0
35.0,33.0,0.3,1.009175,2.5706499999999997,0.0,0.0
35.0,33.0,0.7,1.009175,2.5706499999999997,0.0,0.0
35.0,33.0,1.0,1.009175,2.5706499999999997,0.0,0.0
35.0,41.0,0.1,1.211475,3.3046260416666664,0.0,0.0
35.0,41.0,0.3,1.211475,3.3046260416666664,0.0,0.0
35.0,41.0,0.7,1.211475,3.3046260416666664,0.0,0.0
35.0,41.0,1.0,1.211475,3.3046260416666664,0.0,0.0
35.0,49.0,0.1,1.4790375,4.159430208333333,0.0,0.0
35.0,49.0,0.3,1.4790375,4.159430208333333,0.0,0.0
35.0,49.0,0.7,1.4790375,4.159430208333333,0.0,0.0
35.0,49.0,1.0,1.4790375,4.159430208333333,0.0,0.0
35.0,57.0,0.1,1.7857574999999999,5.014234375,0.0,0.0
35.0,57.0,0.3,1.7857574999999999,5.014234375,0.0,0.0
35.0,57.0,0.7,1.7857574999999999,5.014234375,0.0,0.0
35.0,57.0,1.0,1.7857574999999999,5.014234375,0.0,0.0
35.0,65.0,0.1,2.140764285714286,5.828955078125,0.0,0.0
35.0,65.0,0.3,2.140764285714286,5.828955078125,0.0,0.0
35.0,65.0,0.7,2.140764285714286,5.828955078125,0.0,0.0
35.0,65.0,1.0,2.140764285714286,5.828955078125,0.0,0.0
35.0,73.0,0.1,2.8337785714285717,6.523425390625,0.0,0.0
35.0,73.0,0.3,2.8337785714285717,6.523425390625,0.0,0.0
35.0,73.0,0.7,2.8337785714285717,6.523425390625,0.0,0.0
35.0,73.0,1.0,2.8337785714285717,6.523425390625,0.0,0.0
35.0,81.0,0.1,3.457166836734694,7.217895703125,0.0,0.0
35.0,81.0,0.3,3.457166836734694,7.217895703125,0.0,0.0
35.0,81.0,0.7,3.457166836734694,7.217895703125,0.0,0.0
35.0,81.0,1.0,3.457166836734694,7.217895703125,0.0,0.0
35.0,89.0,0.1,3.9645117346938776,7.912366015625,0.0,0.0
35.0,89.0,0.3,3.9645117346938776,7.912366015625,0.0,0.0
35.0,89.0,0.7,3.9645117346938776,7.912366015625,0.0,0.0
35.0,89.0,1.0,3.9645117346938776,7.912366015625,0.0,0.0
35.0,97.0,0.1,4.471856632653061,8.606836328125,0.0,0.0
35.0,97.0,0.3,4.471856632653061,8.606836328125,0.0,0.0
35.0,97.0,0.7,4.471856632653061,8.606836328125,0.0,0.0
35.0,97.0,1.0,4.471856632653061,8.606836328125,0.0,0.0
35.0,105.0,0.1,4.979201530612245,9.301306640625,0.0,0.0
35.0,105.0,0.3,4.979201530612245,9.301306640625,0.0,0.0
35.0,105.0,0.7,4.979201530612245,9.301306640625,0.0,0.0
35.0,105.0,1.0,4.979201530612245,9.301306640625,0.0,0.0
35.0,113.0,0.1,5.486546428571428,9.995776953125,0.0,0.0
35.0,113.0,0.3,5.486546428571428,9.995776953125,0.0,0.0
35.0,113.0,0.7,5.486546428571428,9.995776953125,0.0,0.0
35.0,113.0,1.0,5.486546428571428,9.995776953125,0.0,0.0
35.0,121.0,0.1,5.993891326530612,10.690247265625,0.0,0.0
35.0,121.0,0.3,5.993891326530612,10.690247265625,0.0,0.0
35.0,121.0,0.7,5.993891326530612,10.690247265625,0.0,0.0
35.0,121.0,1.0,5.993891326530612,10.690247265625,0.0,0.0
35.0,127.0,0.1,6.3744,11.2111,0.0,0.0
35.0,127.0,0.3,6.3744,11.2111,0.0,0.0
35.0,127.0,0.7,6.3744,11.2111,0.0,0.0
35.0,127.0,1.0,6.3744,11.2111,0.0,0.0
36.0,1.0,0.1,0.6420166666666667,0.22369761904761903,0.0,0.0
36.0,1.0,0.3,0.6420166666666667,0.22369761904761903,0.0,0.0
36.0,1.0,0.7,0.6420166666666667,0.22369761904761903,0.0,0.0
36.0,1.0,1.0,0.6420166666666667,0.22369761904761903,0.0,0.0
36.0,9.0,0.1,0.7293499999999999,0.6052785714285713,0.0,0.0
36.0,9.0,0.3,0.7293499999999999,0.6052785714285713,0.0,0.0
36.0,9.0,0.7,0.7293499999999999,0.6052785714285713,0.0,0.0
36.0,9.0,1.0,0.7293499999999999,0.6052785714285713,0.0,0.0
36.0,17.0,0.1,0.8166833333333333,0.9868595238095237,0.0,0.0
36.0,17.0,0.3,0.8166833333333333,0.9868595238095237,0.0,0.0
36.0,17.0,0.7,0.8166833333333333,0.9868595238095237,0.0,0.0
36.0,17.0,1.0,0.8166833333333333,0.9868595238095237,0.0,0.0
36.0,25.0,0.1,0.9040166666666667,1.817275,0.0,0.0
36.0,25.0,0.3,0.9040166666666667,1.817275,0.0,0.0
36.0,25.0,0.7,0.9040166666666667,1.817275,0.0,0.0
36.0,25.0,1.0,0.9040166666666667,1.817275,0.0,0.0
36.0,33.0,0.1,1.0344625,2.61400625,0.0,0.0
36.0,33.0,0.3,1.0344625,2.61400625,0.0,0.0
36.0,33.0,0.7,1.0344625,2.61400625,0.0,0.0
36.0,33.0,1.0,1.0344625,2.61400625,0.0,0.0
36.0,41.0,0.1,1.2367625,3.3046260416666664,0.0,0.0
36.0,41.0,0.3,1.2367625,3.3046260416666664,0.0,0.0
36.0,41.0,0.7,1.2367625,3.3046260416666664,0.0,0.0
36.0,41.0,1.0,1.2367625,3.3046260416666664,0.0,0.0
36.0,49.0,0.1,1.5173775,4.159430208333333,0.0,0.0
36.0,49.0,0.3,1.5173775,4.159430208333333,0.0,0.0
36.0,49.0,0.7,1.5173775,4.159430208333333,0.0,0.0
36.0,49.0,1.0,1.5173775,4.159430208333333,0.0,0.0
36.0,57.0,0.1,1.8240975000000001,5.014234375,0.0,0.0
36.0,57.0,0.3,1.8240975000000001,5.014234375,0.0,0.0
36.0,57.0,0.7,1.8240975000000001,5.014234375,0.0,0.0
36.0,57.0,1.0,1.8240975000000001,5.014234375,0.0,0.0
36.0,65.0,0.1,2.240718269230769,5.828955078125,0.0,0.0
36.0,65.0,0.3,2.240718269230769,5.828955078125,0.0,0.0
36.0,65.0,0.7,2.240718269230769,5.828955078125,0.0,0.0
36.0,65.0,1.0,2.240718269230769,5.828955078125,0.0,0.0
36.0,73.0,0.1,2.987041346153846,6.523425390625,0.0,0.0
36.0,73.0,0.3,2.987041346153846,6.523425390625,0.0,0.0
36.0,73.0,0.7,2.987041346153846,6.523425390625,0.0,0.0
36.0,73.0,1.0,2.987041346153846,6.523425390625,0.0,0.0
36.0,81.0,0.1,3.571568137254902,7.217895703125,0.0,0.0
36.0,81.0,0.3,3.571568137254902,7.217895703125,0.0,0.0
36.0,81.0,0.7,3.571568137254902,7.217895703125,0.0,0.0
36.0,81.0,1.0,3.571568137254902,7.217895703125,0.0,0.0
36.0,89.0,0.1,4.059017156862745,7.912366015625,0.0,0.0
36.0,89.0,0.3,4.059017156862745,7.912366015625,0.0,0.0
36.0,89.0,0.7,4.059017156862745,7.912366015625,0.0,0.0
36.0,89.0,1.0,4.059017156862745,7.912366015625,0.0,0.0
36.0,97.0,0.1,4.546466176470588,8.606836328125,0.0,0.0
36.0,97.0,0.3,4.546466176470588,8.606836328125,0.0,0.0
36.0,97.0,0.7,4.546466176470588,8.606836328125,0.0,0.0
36.0,97.0,1.0,4.546466176470588,8.606836328125,0.0,0.0
36.0,105.0,0.1,5.033915196078431,9.301306640625,0.0,0.0
36.0,105.0,0.3,5.033915196078431,9.301306640625,0.0,0.0
36.0,105.0,0.7,5.033915196078431,9.301306640625,0.0,0.0
36.0,105.0,1.0,5.033915196078431,9.301306640625,0.0,0.0
36.0,113.0,0.1,5.521364215686274,9.995776953125,0.0,0.0
36.0,113.0,0.3,5.521364215686274,9.995776953125,0.0,0.0
36.0,113.0,0.7,5.521364215686274,9.995776953125,0.0,0.0
36.0,113.0,1.0,5.521364215686274,9.995776953125,0.0,0.0
36.0,121.0,0.1,6.008813235294117,10.690247265625,0.0,0.0
36.0,121.0,0.3,6.008813235294117,10.690247265625,0.0,0.0
36.0,121.0,0.7,6.008813235294117,10.690247265625,0.0,0.0
36.0,121.0,1.0,6.008813235294117,10.690247265625,0.0,0.0
36.0,127.0,0.1,6.3744,11.2111,0.0,0.0
36.0,127.0,0.3,6.3744,11.2111,0.0,0.0
36.0,127.0,0.7,6.3744,11.2111,0.0,0.0
36.0,127.0,1.0,6.3744,11.2111,0.0,0.0
37.0,1.0,0.1,0.6423931034482758,0.22369761904761903,0.0,0.0
37.0,1.0,0.3,0.6423931034482758,0.22369761904761903,0.0,0.0
37.0,1.0,0.7,0.6423931034482758,0.22369761904761903,0.0,0.0
37.0,1.0,1.0,0.6423931034482758,0.22369761904761903,0.0,0.0
37.0,9.0,0.1,0.7327379310344828,0.6052785714285713,0.0,0.0
37.0,9.0,0.3,0.7327379310344828,0.6052785714285713,0.0,0.0
37.0,9.0,0.7,0.7327379310344828,0.6052785714285713,0.0,0.0
37.0,9.0,1.0,0.7327379310344828,0.6052785714285713,0.0,0.0
37.0,17.0,0.1,0.8230827586206897,0.9868595238095237,0.0,0.0
37.0,17.0,0.3,0.8230827586206897,0.9868595238095237,0.0,0.0
37.0,17.0,0.7,0.8230827586206897,0.9868595238095237,0.0,0.0
37.0,17.0,1.0,0.8230827586206897,0.9868595238095237,0.0,0.0
37.0,25.0,0.1,0.9134275862068966,1.817275,0.0,0.0
37.0,25.0,0.3,0.9134275862068966,1.817275,0.0,0.0
37.0,25.0,0.7,0.9134275862068966,1.817275,0.0,0.0
37.0,25.0,1.0,0.9134275862068966,1.817275,0.0,0.0
37.0,33.0,0.1,1.05975,2.5773201923076923,0.0,0.0
37.0,33.0,0.3,1.05975,2.5773201923076923,0.0,0.0
37.0,33.0,0.7,1.05975,2.5773201923076923,0.0,0.0
37.0,33.0,1.0,1.05975,2.5773201923076923,0.0,0.0
37.0,41.0,0.1,1.26205,3.2024211956521738,0.0,0.0
37.0,41.0,0.3,1.26205,3.2024211956521738,0.0,0.0
37.0,41.0,0.7,1.26205,3.2024211956521738,0.0,0.0
37.0,41.0,1.0,1.26205,3.2024211956521738,0.0,0.0
37.0,49.0,0.1,1.5557175,4.094390760869565,0.0,0.0
37.0,49.0,0.3,1.5557175,4.094390760869565,0.0,0.0
37.0,49.0,0.7,1.5557175,4.094390760869565,0.0,0.0
37.0,49.0,1.0,1.5557175,4.094390760869565,0.0,0.0
37.0,57.0,0.1,1.8624375,4.986360326086956,0.0,0.0
37.0,57.0,0.3,1.8624375,4.986360326086956,0.0,0.0
37.0,57.0,0.7,1.8624375,4.986360326086956,0.0,0.0
37.0,57.0,1.0,1.8624375,4.986360326086956,0.0,0.0
37.0,65.0,0.1,2.334008653846154,5.828955078125,0.0,0.0
37.0,65.0,0.3,2.334008653846154,5.828955078125,0.0,0.0
37.0,65.0,0.7,2.334008653846154,5.828955078125,0.0,0.0
37.0,65.0,1.0,2.334008653846154,5.828955078125,0.0,0.0
37.0,73.0,0.1,3.080331730769231,6.523425390625,0.0,0.0
37.0,73.0,0.3,3.080331730769231,6.523425390625,0.0,0.0
37.0,73.0,0.7,3.080331730769231,6.523425390625,0.0,0.0
37.0,73.0,1.0,3.080331730769231,6.523425390625,0.0,0.0
37.0,81.0,0.1,3.62546875,7.217895703125,0.0,0.0
37.0,81.0,0.3,3.62546875,7.217895703125,0.0,0.0
37.0,81.0,0.7,3.62546875,7.217895703125,0.0,0.0
37.0,81.0,1.0,3.62546875,7.217895703125,0.0,0.0
37.0,89.0,0.1,4.10354375,7.912366015625,0.0,0.0
37.0,89.0,0.3,4.10354375,7.912366015625,0.0,0.0
37.0,89.0,0.7,4.10354375,7.912366015625,0.0,0.0
37.0,89.0,1.0,4.10354375,7.912366015625,0.0,0.0
37.0,97.0,0.1,4.58161875,8.606836328125,0.0,0.0
37.0,97.0,0.3,4.58161875,8.606836328125,0.0,0.0
37.0,97.0,0.7,4.58161875,8.606836328125,0.0,0.0
37.0,97.0,1.0,4.58161875,8.606836328125,0.0,0.0
37.0,105.0,0.1,5.05969375,9.301306640625,0.0,0.0
37.0,105.0,0.3,5.05969375,9.301306640625,0.0,0.0
37.0,105.0,0.7,5.05969375,9.301306640625,0.0,0.0
37.0,105.0,1.0,5.05969375,9.301306640625,0.0,0.0
37.0,113.0,0.1,5.53776875,9.995776953125,0.0,0.0
37.0,113.0,0.3,5.53776875,9.995776953125,0.0,0.0
37.0,113.0,0.7,5.53776875,9.995776953125,0.0,0.0
37.0,113.0,1.0,5.53776875,9.995776953125,0.0,0.0
37.0,121.0,0.1,6.01584375,10.690247265625,0.0,0.0
37.0,121.0,0.3,6.01584375,10.690247265625,0.0,0.0
37.0,121.0,0.7,6.01584375,10.690247265625,0.0,0.0
37.0,121.0,1.0,6.01584375,10.690247265625,0.0,0.0
37.0,127.0,0.1,6.3744,11.2111,0.0,0.0
37.0,127.0,0.3,6.3744,11.2111,0.0,0.0
37.0,127.0,0.7,6.3744,11.2111,0.0,0.0
37.0,127.0,1.0,6.3744,11.2111,0.0,0.0
38.0,1.0,0.1,0.6423931034482758,0.22369761904761903,0.0,0.0
38.0,1.0,0.3,0.6423931034482758,0.22369761904761903,0.0,0.0
38.0,1.0,0.7,0.6423931034482758,0.22369761904761903,0.0,0.0
38.0,1.0,1.0,0.6423931034482758,0.22369761904761903,0.0,0.0
38.0,9.0,0.1,0.7327379310344828,0.6052785714285713,0.0,0.0
38.0,9.0,0.3,0.7327379310344828,0.6052785714285713,0.0,0.0
38.0,9.0,0.7,0.7327379310344828,0.6052785714285713,0.0,0.0
38.0,9.0,1.0,0.7327379310344828,0.6052785714285713,0.0,0.0
38.0,17.0,0.1,0.8230827586206897,0.9868595238095237,0.0,0.0
38.0,17.0,0.3,0.8230827586206897,0.9868595238095237,0.0,0.0
38.0,17.0,0.7,0.8230827586206897,0.9868595238095237,0.0,0.0
38.0,17.0,1.0,0.8230827586206897,0.9868595238095237,0.0,0.0
38.0,25.0,0.1,0.9134275862068966,1.817275,0.0,0.0
38.0,25.0,0.3,0.9134275862068966,1.817275,0.0,0.0
38.0,25.0,0.7,0.9134275862068966,1.817275,0.0,0.0
38.0,25.0,1.0,0.9134275862068966,1.817275,0.0,0.0
38.0,33.0,0.1,1.0681791666666667,2.5773201923076923,0.0,0.0
38.0,33.0,0.3,1.0681791666666667,2.5773201923076923,0.0,0.0
38.0,33.0,0.7,1.0681791666666667,2.5773201923076923,0.0,0.0
38.0,33.0,1.0,1.0681791666666667,2.5773201923076923,0.0,0.0
38.0,41.0,0.1,1.2873375,3.2074892045454546,0.0,0.0
38.0,41.0,0.3,1.2873375,3.2074892045454546,0.0,0.0
38.0,41.0,0.7,1.2873375,3.2074892045454546,0.0,0.0
38.0,41.0,1.0,1.2873375,3.2074892045454546,0.0,0.0
38.0,49.0,0.1,1.5940575,4.140002840909091,0.0,0.0
38.0,49.0,0.3,1.5940575,4.140002840909091,0.0,0.0
38.0,49.0,0.7,1.5940575,4.140002840909091,0.0,0.0
38.0,49.0,1.0,1.5940575,4.140002840909091,0.0,0.0
38.0,57.0,0.1,1.9007775,5.072516477272727,0.0,0.0
38.0,57.0,0.3,1.9007775,5.072516477272727,0.0,0.0
38.0,57.0,0.7,1.9007775,5.072516477272727,0.0,0.0
38.0,57.0,1.0,1.9007775,5.072516477272727,0.0,0.0
38.0,65.0,0.1,2.4272990384615385,5.911757307692308,0.0,0.0
38.0,65.0,0.3,2.4272990384615385,5.911757307692308,0.0,0.0
38.0,65.0,0.7,2.4272990384615385,5.911757307692308,0.0,0.0
38.0,65.0,1.0,2.4272990384615385,5.911757307692308,0.0,0.0
38.0,73.0,0.1,3.1736221153846156,6.595543461538462,0.0,0.0
38.0,73.0,0.3,3.1736221153846156,6.595543461538462,0.0,0.0
38.0,73.0,0.7,3.1736221153846156,6.595543461538462,0.0,0.0
38.0,73.0,1.0,3.1736221153846156,6.595543461538462,0.0,0.0
38.0,81.0,0.1,3.6773353773584905,7.279329615384615,0.0,0.0
38.0,81.0,0.3,3.6773353773584905,7.279329615384615,0.0,0.0
38.0,81.0,0.7,3.6773353773584905,7.279329615384615,0.0,0.0
38.0,81.0,1.0,3.6773353773584905,7.279329615384615,0.0,0.0
38.0,89.0,0.1,4.146390094339623,7.963115769230769,0.0,0.0
38.0,89.0,0.3,4.146390094339623,7.963115769230769,0.0,0.0
38.0,89.0,0.7,4.146390094339623,7.963115769230769,0.0,0.0
38.0,89.0,1.0,4.146390094339623,7.963115769230769,0.0,0.0
38.0,97.0,0.1,4.615444811320755,8.646901923076923,0.0,0.0
38.0,97.0,0.3,4.615444811320755,8.646901923076923,0.0,0.0
38.0,97.0,0.7,4.615444811320755,8.646901923076923,0.0,0.0
38.0,97.0,1.0,4.615444811320755,8.646901923076923,0.0,0.0
38.0,105.0,0.1,5.084499528301887,9.330688076923076,0.0,0.0
38.0,105.0,0.3,5.084499528301887,9.330688076923076,0.0,0.0
38.0,105.0,0.7,5.084499528301887,9.330688076923076,0.0,0.0
38.0,105.0,1.0,5.084499528301887,9.330688076923076,0.0,0.0
38.0,113.0,0.1,5.553554245283019,10.014474230769231,0.0,0.0
38.0,113.0,0.3,5.553554245283019,10.014474230769231,0.0,0.0
38.0,113.0,0.7,5.553554245283019,10.014474230769231,0.0,0.0
38.0,113.0,1.0,5.553554245283019,10.014474230769231,0.0,0.0
38.0,121.0,0.1,6.022608962264151,10.698260384615384,0.0,0.0
38.0,121.0,0.3,6.022608962264151,10.698260384615384,0.0,0.0
38.0,121.0,0.7,6.022608962264151,10.698260384615384,0.0,0.0
38.0,121.0,1.0,6.022608962264151,10.698260384615384,0.0,0.0
38.0,127.0,0.1,6.3744,11.2111,0.0,0.0
38.0,127.0,0.3,6.3744,11.2111,0.0,0.0
38.0,127.0,0.7,6.3744,11.2111,0.0,0.0
38.0,127.0,1.0,6.3744,11.2111,0.0,0.0
39.0,1.0,0.1,0.6427964285714286,0.22369761904761903,0.0,0.0
39.0,1.0,0.3,0.6427964285714286,0.22369761904761903,0.0,0.0
39.0,1.0,0.7,0.6427964285714286,0.22369761904761903,0.0,0.0
39.0,1.0,1.0,0.6427964285714286,0.22369761904761903,0.0,0.0
39.0,9.0,0.1,0.7363678571428571,0.6052785714285713,0.0,0.0
39.0,9.0,0.3,0.7363678571428571,0.6052785714285713,0.0,0.0
39.0,9.0,0.7,0.7363678571428571,0.6052785714285713,0.0,0.0
39.0,9.0,1.0,0.7363678571428571,0.6052785714285713,0.0,0.0
39.0,17.0,0.1,0.8299392857142858,0.9868595238095237,0.0,0.0
39.0,17.0,0.3,0.8299392857142858,0.9868595238095237,0.0,0.0
39.0,17.0,0.7,0.8299392857142858,0.9868595238095237,0.0,0.0
39.0,17.0,1.0,0.8299392857142858,0.9868595238095237,0.0,0.0
39.0,25.0,0.1,0.9235107142857143,1.9451999999999998,0.0,0.0
39.0,25.0,0.3,0.9235107142857143,1.9451999999999998,0.0,0.0
39.0,25.0,0.7,0.9235107142857143,1.9451999999999998,0.0,0.0
39.0,25.0,1.0,0.9235107142857143,1.9451999999999998,0.0,0.0
39.0,33.0,0.1,1.0955739583333333,2.61400625,0.0,0.0
39.0,33.0,0.3,1.0955739583333333,2.61400625,0.0,0.0
39.0,33.0,0.7,1.0955739583333333,2.61400625,0.0,0.0
39.0,33.0,1.0,1.0955739583333333,2.61400625,0.0,0.0
39.0,41.0,0.1,1.3256775,3.2074892045454546,0.0,0.0
39.0,41.0,0.3,1.3256775,3.2074892045454546,0.0,0.0
39.0,41.0,0.7,1.3256775,3.2074892045454546,0.0,0.0
39.0,41.0,1.0,1.3256775,3.2074892045454546,0.0,0.0
39.0,49.0,0.1,1.6323975,4.140002840909091,0.0,0.0
39.0,49.0,0.3,1.6323975,4.140002840909091,0.0,0.0
39.0,49.0,0.7,1.6323975,4.140002840909091,0.0,0.0
39.0,49.0,1.0,1.6323975,4.140002840909091,0.0,0.0
39.0,57.0,0.1,1.9391175,5.072516477272727,0.0,0.0
39.0,57.0,0.3,1.9391175,5.072516477272727,0.0,0.0
39.0,57.0,0.7,1.9391175,5.072516477272727,0.0,0.0
39.0,57.0,1.0,1.9391175,5.072516477272727,0.0,0.0
39.0,65.0,0.1,2.5594604166666666,5.911757307692308,0.0,0.0
39.0,65.0,0.3,2.5594604166666666,5.911757307692308,0.0,0.0
39.0,65.0,0.7,2.5594604166666666,5.911757307692308,0.0,0.0
39.0,65.0,1.0,2.5594604166666666,5.911757307692308,0.0,0.0
39.0,73.0,0.1,3.323412272727273,6.595543461538462,0.0,0.0
39.0,73.0,0.3,3.323412272727273,6.595543461538462,0.0,0.0
39.0,73.0,0.7,3.323412272727273,6.595543461538462,0.0,0.0
39.0,73.0,1.0,3.323412272727273,6.595543461538462,0.0,0.0
39.0,81.0,0.1,3.7754104545454545,7.279329615384615,0.0,0.0
39.0,81.0,0.3,3.7754104545454545,7.279329615384615,0.0,0.0
39.0,81.0,0.7,3.7754104545454545,7.279329615384615,0.0,0.0
39.0,81.0,1.0,3.7754104545454545,7.279329615384615,0.0,0.0
39.0,89.0,0.1,4.227408636363636,7.963115769230769,0.0,0.0
39.0,89.0,0.3,4.227408636363636,7.963115769230769,0.0,0.0
39.0,89.0,0.7,4.227408636363636,7.963115769230769,0.0,0.0
39.0,89.0,1.0,4.227408636363636,7.963115769230769,0.0,0.0
39.0,97.0,0.1,4.679406818181818,8.646901923076923,0.0,0.0
39.0,97.0,0.3,4.679406818181818,8.646901923076923,0.0,0.0
39.0,97.0,0.7,4.679406818181818,8.646901923076923,0.0,0.0
39.0,97.0,1.0,4.679406818181818,8.646901923076923,0.0,0.0
39.0,105.0,0.1,5.131405,9.330688076923076,0.0,0.0
39.0,105.0,0.3,5.131405,9.330688076923076,0.0,0.0
39.0,105.0,0.7,5.131405,9.330688076923076,0.0,0.0
39.0,105.0,1.0,5.131405,9.330688076923076,0.0,0.0
39.0,113.0,0.1,5.5834031818181815,10.014474230769231,0.0,0.0
39.0,113.0,0.3,5.5834031818181815,10.014474230769231,0.0,0.0
39.0,113.0,0.7,5.5834031818181815,10.014474230769231,0.0,0.0
39.0,113.0,1.0,5.5834031818181815,10.014474230769231,0.0,0.0
39.0,121.0,0.1,6.035401363636364,10.698260384615384,0.0,0.0
39.0,121.0,0.3,6.035401363636364,10.698260384615384,0.0,0.0
39.0,121.0,0.7,6.035401363636364,10.698260384615384,0.0,0.0
39.0,121.0,1.0,6.035401363636364,10.698260384615384,0.0,0.0
39.0,127.0,0.1,6.3744,11.2111,0.0,0.0
39.0,127.0,0.3,6.3744,11.2111,0.0,0.0
39.0,127.0,0.7,6.3744,11.2111,0.0,0.0
39.0,127.0,1.0,6.3744,11.2111,0.0,0.0
40.0,1.0,0.1,0.6432296296296296,0.22369761904761903,0.0,0.0
40.0,1.0,0.3,0.6432296296296296,0.22369761904761903,0.0,0.0
40.0,1.0,0.7,0.6432296296296296,0.22369761904761903,0.0,0.0
40.0,1.0,1.0,0.6432296296296296,0.22369761904761903,0.0,0.0
40.0,9.0,0.1,0.7402666666666666,0.6052785714285713,0.0,0.0
40.0,9.0,0.3,0.7402666666666666,0.6052785714285713,0.0,0.0
40.0,9.0,0.7,0.7402666666666666,0.6052785714285713,0.0,0.0
40.0,9.0,1.0,0.7402666666666666,0.6052785714285713,0.0,0.0
40.0,17.0,0.1,0.8373037037037037,0.9868595238095237,0.0,0.0
40.0,17.0,0.3,0.8373037037037037,0.9868595238095237,0.0,0.0
40.0,17.0,0.7,0.8373037037037037,0.9868595238095237,0.0,0.0
40.0,17.0,1.0,0.8373037037037037,0.9868595238095237,0.0,0.0
40.0,25.0,0.1,0.9343407407407407,1.9451999999999998,0.0,0.0
40.0,25.0,0.3,0.9343407407407407,1.9451999999999998,0.0,0.0
40.0,25.0,0.7,0.9343407407407407,1.9451999999999998,0.0,0.0
40.0,25.0,1.0,0.9343407407407407,1.9451999999999998,0.0,0.0
40.0,33.0,0.1,1.110325,2.5822116666666663,0.0,0.0
40.0,33.0,0.3,1.110325,2.5822116666666663,0.0,0.0
40.0,33.0,0.7,1.110325,2.5822116666666663,0.0,0.0
40.0,33.0,1.0,1.110325,2.5822116666666663,0.0,0.0
40.0,41.0,0.1,1.3256775,3.090925,0.0,0.0
40.0,41.0,0.3,1.3256775,3.090925,0.0,0.0
40.0,41.0,0.7,1.3256775,3.090925,0.0,0.0
40.0,41.0,1.0,1.3256775,3.090925,0.0,0.0
40.0,49.0,0.1,1.6323975,4.067844047619047,0.0,0.0
40.0,49.0,0.3,1.6323975,4.067844047619047,0.0,0.0
40.0,49.0,0.7,1.6323975,4.067844047619047,0.0,0.0
40.0,49.0,1.0,1.6323975,4.067844047619047,0.0,0.0
40.0,57.0,0.1,1.9391175,5.044763095238095,0.0,0.0
40.0,57.0,0.3,1.9391175,5.044763095238095,0.0,0.0
40.0,57.0,0.7,1.9391175,5.044763095238095,0.0,0.0
40.0,57.0,1.0,1.9391175,5.044763095238095,0.0,0.0
40.0,65.0,0.1,2.6053988636363634,5.911757307692308,0.0,0.0
40.0,65.0,0.3,2.6053988636363634,5.911757307692308,0.0,0.0
40.0,65.0,0.7,2.6053988636363634,5.911757307692308,0.0,0.0
40.0,65.0,1.0,2.6053988636363634,5.911757307692308,0.0,0.0
40.0,73.0,0.1,3.3778941964285716,6.595543461538462,0.0,0.0
40.0,73.0,0.3,3.3778941964285716,6.595543461538462,0.0,0.0
40.0,73.0,0.7,3.3778941964285716,6.595543461538462,0.0,0.0
40.0,73.0,1.0,3.3778941964285716,6.595543461538462,0.0,0.0
40.0,81.0,0.1,3.821820982142857,7.279329615384615,0.0,0.0
40.0,81.0,0.3,3.821820982142857,7.279329615384615,0.0,0.0
40.0,81.0,0.7,3.821820982142857,7.279329615384615,0.0,0.0
40.0,81.0,1.0,3.821820982142857,7.279329615384615,0.0,0.0
40.0,89.0,0.1,4.2657477678571425,7.963115769230769,0.0,0.0
40.0,89.0,0.3,4.2657477678571425,7.963115769230769,0.0,0.0
40.0,89.0,0.7,4.2657477678571425,7.963115769230769,0.0,0.0
40.0,89.0,1.0,4.2657477678571425,7.963115769230769,0.0,0.0
40.0,97.0,0.1,4.709674553571428,8.646901923076923,0.0,0.0
40.0,97.0,0.3,4.709674553571428,8.646901923076923,0.0,0.0
40.0,97.0,0.7,4.709674553571428,8.646901923076923,0.0,0.0
40.0,97.0,1.0,4.709674553571428,8.646901923076923,0.0,0.0
40.0,105.0,0.1,5.153601339285714,9.330688076923076,0.0,0.0
40.0,105.0,0.3,5.153601339285714,9.330688076923076,0.0,0.0
40.0,105.0,0.7,5.153601339285714,9.330688076923076,0.0,0.0
40.0,105.0,1.0,5.153601339285714,9.330688076923076,0.0,0.0
40.0,113.0,0.1,5.597528125,10.014474230769231,0.0,0.0
40.0,113.0,0.3,5.597528125,10.014474230769231,0.0,0.0
40.0,113.0,0.7,5.597528125,10.014474230769231,0.0,0.0
40.0,113.0,1.0,5.597528125,10.014474230769231,0.0,0.0
40.0,121.0,0.1,6.041454910714285,10.698260384615384,0.0,0.0
40.0,121.0,0.3,6.041454910714285,10.698260384615384,0.0,0.0
40.0,121.0,0.7,6.041454910714285,10.698260384615384,0.0,0.0
40.0,121.0,1.0,6.041454910714285,10.698260384615384,0.0,0.0
40.0,127.0,0.1,6.3744,11.2111,0.0,0.0
40.0,127.0,0.3,6.3744,11.2111,0.0,0.0
40.0,127.0,0.7,6.3744,11.2111,0.0,0.0
40.0,127.0,1.0,6.3744,11.2111,0.0,0.0
41.0,1.0,0.1,0.6432296296296296,0.22369761904761903,0.0,0.0
41.0,1.0,0.3,0.6432296296296296,0.22369761904761903,0.0,0.0
41.0,1.0,0.7,0.6432296296296296,0.22369761904761903,0.0,0.0
41.0,1.0,1.0,0.6432296296296296,0.22369761904761903,0.0,0.0
41.0,9.0,0.1,0.7402666666666666,0.6052785714285713,0.0,0.0
41.0,9.0,0.3,0.7402666666666666,0.6052785714285713,0.0,0.0
41.0,9.0,0.7,0.7402666666666666,0.6052785714285713,0.0,0.0
41.0,9.0,1.0,0.7402666666666666,0.6052785714285713,0.0,0.0
41.0,17.0,0.1,0.8373037037037037,0.9868595238095237,0.0,0.0
41.0,17.0,0.3,0.8373037037037037,0.9868595238095237,0.0,0.0
41.0,17.0,0.7,0.8373037037037037,0.9868595238095237,0.0,0.0
41.0,17.0,1.0,0.8373037037037037,0.9868595238095237,0.0,0.0
41.0,25.0,0.1,0.9343407407407407,1.9451999999999998,0.0,0.0
41.0,25.0,0.3,0.9343407407407407,1.9451999999999998,0.0,0.0
41.0,25.0,0.7,0.9343407407407407,1.9451999999999998,0.0,0.0
41.0,25.0,1.0,0.9343407407407407,1.9451999999999998,0.0,0.0
41.0,33.0,0.1,1.12296875,2.5822116666666663,0.0,0.0
41.0,33.0,0.3,1.12296875,2.5822116666666663,0.0,0.0
41.0,33.0,0.7,1.12296875,2.5822116666666663,0.0,0.0
41.0,33.0,1.0,1.12296875,2.5822116666666663,0.0,0.0
41.0,41.0,0.1,1.3640175,3.090925,0.0,0.0
41.0,41.0,0.3,1.3640175,3.090925,0.0,0.0
41.0,41.0,0.7,1.3640175,3.090925,0.0,0.0
41.0,41.0,1.0,1.3640175,3.090925,0.0,0.0
41.0,49.0,0.1,1.6707375,4.11669,0.0,0.0
41.0,49.0,0.3,1.6707375,4.11669,0.0,0.0
41.0,49.0,0.7,1.6707375,4.11669,0.0,0.0
41.0,49.0,1.0,1.6707375,4.11669,0.0,0.0
41.0,57.0,0.1,1.9774574999999999,5.142455,0.0,0.0
41.0,57.0,0.3,1.9774574999999999,5.142455,0.0,0.0
41.0,57.0,0.7,1.9774574999999999,5.142455,0.0,0.0
41.0,57.0,1.0,1.9774574999999999,5.142455,0.0,0.0
41.0,65.0,0.1,2.715651136363636,5.992050378787878,0.0,0.0
41.0,65.0,0.3,2.715651136363636,5.992050378787878,0.0,0.0
41.0,65.0,0.7,2.715651136363636,5.992050378787878,0.0,0.0
41.0,65.0,1.0,2.715651136363636,5.992050378787878,0.0,0.0
41.0,73.0,0.1,3.4304644736842107,6.665476136363637,0.0,0.0
41.0,73.0,0.3,3.4304644736842107,6.665476136363637,0.0,0.0
41.0,73.0,0.7,3.4304644736842107,6.665476136363637,0.0,0.0
41.0,73.0,1.0,3.4304644736842107,6.665476136363637,0.0,0.0
41.0,81.0,0.1,3.8666030701754384,7.3389018939393935,0.0,0.0
41.0,81.0,0.3,3.8666030701754384,7.3389018939393935,0.0,0.0
41.0,81.0,0.7,3.8666030701754384,7.3389018939393935,0.0,0.0
41.0,81.0,1.0,3.8666030701754384,7.3389018939393935,0.0,0.0
41.0,89.0,0.1,4.302741666666667,8.012327651515152,0.0,0.0
41.0,89.0,0.3,4.302741666666667,8.012327651515152,0.0,0.0
41.0,89.0,0.7,4.302741666666667,8.012327651515152,0.0,0.0
41.0,89.0,1.0,4.302741666666667,8.012327651515152,0.0,0.0
41.0,97.0,0.1,4.738880263157895,8.685753409090909,0.0,0.0
41.0,97.0,0.3,4.738880263157895,8.685753409090909,0.0,0.0
41.0,97.0,0.7,4.738880263157895,8.685753409090909,0.0,0.0
41.0,97.0,1.0,4.738880263157895,8.685753409090909,0.0,0.0
41.0,105.0,0.1,5.175018859649123,9.359179166666667,0.0,0.0
41.0,105.0,0.3,5.175018859649123,9.359179166666667,0.0,0.0
41.0,105.0,0.7,5.175018859649123,9.359179166666667,0.0,0.0
41.0,105.0,1.0,5.175018859649123,9.359179166666667,0.0,0.0
41.0,113.0,0.1,5.611157456140351,10.032604924242424,0.0,0.0
41.0,113.0,0.3,5.611157456140351,10.032604924242424,0.0,0.0
41.0,113.0,0.7,5.611157456140351,10.032604924242424,0.0,0.0
41.0,113.0,1.0,5.611157456140351,10.032604924242424,0.0,0.0
41.0,121.0,0.1,6.047296052631578,10.706030681818183,0.0,0.0
41.0,121.0,0.3,6.047296052631578,10.706030681818183,0.0,0.0
41.0,121.0,0.7,6.047296052631578,10.706030681818183,0.0,0.0
41.0,121.0,1.0,6.047296052631578,10.706030681818183,0.0,0.0
41.0,127.0,0.1,6.3744,11.2111,0.0,0.0
41.0,127.0,0.3,6.3744,11.2111,0.0,0.0
41.0,127.0,0.7,6.3744,11.2111,0.0,0.0
41.0,127.0,1.0,6.3744,11.2111,0.0,0.0
42.0,1.0,0.1,0.6436961538461539,0.22369761904761903,0.0,0.0
42.0,1.0,0.3,0.6436961538461539,0.22369761904761903,0.0,0.0
42.0,1.0,0.7,0.6436961538461539,0.22369761904761903,0.0,0.0
42.0,1.0,1.0,0.6436961538461539,0.22369761904761903,0.0,0.0
42.0,9.0,0.1,0.7444653846153846,0.6052785714285713,0.0,0.0
42.0,9.0,0.3,0.7444653846153846,0.6052785714285713,0.0,0.0
42.0,9.0,0.7,0.7444653846153846,0.6052785714285713,0.0,0.0
42.0,9.0,1.0,0.7444653846153846,0.6052785714285713,0.0,0.0
42.0,17.0,0.1,0.8452346153846154,0.9868595238095237,0.0,0.0
42.0,17.0,0.3,0.8452346153846154,0.9868595238095237,0.0,0.0
42.0,17.0,0.7,0.8452346153846154,0.9868595238095237,0.0,0.0
42.0,17.0,1.0,0.8452346153846154,0.9868595238095237,0.0,0.0
42.0,25.0,0.1,0.9460038461538463,1.9451999999999998,0.0,0.0
42.0,25.0,0.3,0.9460038461538463,1.9451999999999998,0.0,0.0
42.0,25.0,0.7,0.9460038461538463,1.9451999999999998,0.0,0.0
42.0,25.0,1.0,0.9460038461538463,1.9451999999999998,0.0,0.0
42.0,33.0,0.1,1.1503635416666667,2.5543914062499997,0.0,0.0
42.0,33.0,0.3,1.1503635416666667,2.5543914062499997,0.0,0.0
42.0,33.0,0.7,1.1503635416666667,2.5543914062499997,0.0,0.0
42.0,33.0,1.0,1.1503635416666667,2.5543914062499997,0.0,0.0
42.0,41.0,0.1,1.4023575,3.03131015625,0.0,0.0
42.0,41.0,0.3,1.4023575,3.03131015625,0.0,0.0
42.0,41.0,0.7,1.4023575,3.03131015625,0.0,0.0
42.0,41.0,1.0,1.4023575,3.03131015625,0.0,0.0
42.0,49.0,0.1,1.7090775,4.035708552631579,0.0,0.0
42.0,49.0,0.3,1.7090775,4.035708552631579,0.0,0.0
42.0,49.0,0.7,1.7090775,4.035708552631579,0.0,0.0
42.0,49.0,1.0,1.7090775,4.035708552631579,0.0,0.0
42.0,57.0,0.1,2.0157975,5.115461184210526,0.0,0.0
42.0,57.0,0.3,2.0157975,5.115461184210526,0.0,0.0
42.0,57.0,0.7,2.0157975,5.115461184210526,0.0,0.0
42.0,57.0,1.0,2.0157975,5.115461184210526,0.0,0.0
42.0,65.0,0.1,2.825903409090909,5.992050378787878,0.0,0.0
42.0,65.0,0.3,2.825903409090909,5.992050378787878,0.0,0.0
42.0,65.0,0.7,2.825903409090909,5.992050378787878,0.0,0.0
42.0,65.0,1.0,2.825903409090909,5.992050378787878,0.0,0.0
42.0,73.0,0.1,3.481221982758621,6.665476136363637,0.0,0.0
42.0,73.0,0.3,3.481221982758621,6.665476136363637,0.0,0.0
42.0,73.0,0.7,3.481221982758621,6.665476136363637,0.0,0.0
42.0,73.0,1.0,3.481221982758621,6.665476136363637,0.0,0.0
42.0,81.0,0.1,3.9098409482758623,7.3389018939393935,0.0,0.0
42.0,81.0,0.3,3.9098409482758623,7.3389018939393935,0.0,0.0
42.0,81.0,0.7,3.9098409482758623,7.3389018939393935,0.0,0.0
42.0,81.0,1.0,3.9098409482758623,7.3389018939393935,0.0,0.0
42.0,89.0,0.1,4.338459913793104,8.012327651515152,0.0,0.0
42.0,89.0,0.3,4.338459913793104,8.012327651515152,0.0,0.0
42.0,89.0,0.7,4.338459913793104,8.012327651515152,0.0,0.0
42.0,89.0,1.0,4.338459913793104,8.012327651515152,0.0,0.0
42.0,97.0,0.1,4.767078879310345,8.685753409090909,0.0,0.0
42.0,97.0,0.3,4.767078879310345,8.685753409090909,0.0,0.0
42.0,97.0,0.7,4.767078879310345,8.685753409090909,0.0,0.0
42.0,97.0,1.0,4.767078879310345,8.685753409090909,0.0,0.0
42.0,105.0,0.1,5.195697844827587,9.359179166666667,0.0,0.0
42.0,105.0,0.3,5.195697844827587,9.359179166666667,0.0,0.0
42.0,105.0,0.7,5.195697844827587,9.359179166666667,0.0,0.0
42.0,105.0,1.0,5.195697844827587,9.359179166666667,0.0,0.0
42.0,113.0,0.1,5.624316810344828,10.032604924242424,0.0,0.0
42.0,113.0,0.3,5.624316810344828,10.032604924242424,0.0,0.0
42.0,113.0,0.7,5.624316810344828,10.032604924242424,0.0,0.0
42.0,113.0,1.0,5.624316810344828,10.032604924242424,0.0,0.0
42.0,121.0,0.1,6.0529357758620685,10.706030681818183,0.0,0.0
42.0,121.0,0.3,6.0529357758620685,10.706030681818183,0.0,0.0
42.0,121.0,0.7,6.0529357758620685,10.706030681818183,0.0,0.0
42.0,121.0,1.0,6.0529357758620685,10.706030681818183,0.0,0.0
42.0,127.0,0.1,6.3744,11.2111,0.0,0.0
42.0,127.0,0.3,6.3744,11.2111,0.0,0.0
42.0,127.0,0.7,6.3744,11.2111,0.0,0.0
42.0,127.0,1.0,6.3744,11.2111,0.0,0.0
43.0,1.0,0.1,0.6442,0.22369761904761903,0.0,0.0
43.0,1.0,0.3,0.6442,0.22369761904761903,0.0,0.0
43.0,1.0,0.7,0.6442,0.22369761904761903,0.0,0.0
43.0,1.0,1.0,0.6442,0.22369761904761903,0.0,0.0
43.0,9.0,0.1,0.749,0.6052785714285713,0.0,0.0
43.0,9.0,0.3,0.749,0.6052785714285713,0.0,0.0
43.0,9.0,0.7,0.749,0.6052785714285713,0.0,0.0
43.0,9.0,1.0,0.749,0.6052785714285713,0.0,0.0
43.0,17.0,0.1,0.8538,0.9868595238095237,0.0,0.0
43.0,17.0,0.3,0.8538,0.9868595238095237,0.0,0.0
43.0,17.0,0.7,0.8538,0.9868595238095237,0.0,0.0
43.0,17.0,1.0,0.8538,0.9868595238095237,0.0,0.0
43.0,25.0,0.1,0.9586,1.9451999999999998,0.0,0.0
43.0,25.0,0.3,0.9586,1.9451999999999998,0.0,0.0
43.0,25.0,0.7,0.9586,1.9451999999999998,0.0,0.0
43.0,25.0,1.0,0.9586,1.9451999999999998,0.0,0.0
43.0,33.0,0.1,1.1609,2.5543914062499997,0.0,0.0
43.0,33.0,0.3,1.1609,2.5543914062499997,0.0,0.0
43.0,33.0,0.7,1.1609,2.5543914062499997,0.0,0.0
43.0,33.0,1.0,1.1609,2.5543914062499997,0.0,0.0
43.0,41.0,0.1,1.4084111842105262,3.03131015625,0.0,0.0
43.0,41.0,0.3,1.4084111842105262,3.03131015625,0.0,0.0
43.0,41.0,0.7,1.4084111842105262,3.03131015625,0.0,0.0
43.0,41.0,1.0,1.4084111842105262,3.03131015625,0.0,0.0
43.0,49.0,0.1,1.7312743421052632,4.035708552631579,0.0,0.0
43.0,49.0,0.3,1.7312743421052632,4.035708552631579,0.0,0.0
43.0,49.0,0.7,1.7312743421052632,4.035708552631579,0.0,0.0
43.0,49.0,1.0,1.7312743421052632,4.035708552631579,0.0,0.0
43.0,57.0,0.1,2.0541375,5.115461184210526,0.0,0.0
43.0,57.0,0.3,2.0541375,5.115461184210526,0.0,0.0
43.0,57.0,0.7,2.0541375,5.115461184210526,0.0,0.0
43.0,57.0,1.0,2.0541375,5.115461184210526,0.0,0.0
43.0,65.0,0.1,2.9361556818181818,5.992050378787878,0.0,0.0
43.0,65.0,0.3,2.9361556818181818,5.992050378787878,0.0,0.0
43.0,65.0,0.7,2.9361556818181818,5.992050378787878,0.0,0.0
43.0,65.0,1.0,2.9361556818181818,5.992050378787878,0.0,0.0
43.0,73.0,0.1,3.530258898305085,6.665476136363637,0.0,0.0
43.0,73.0,0.3,3.530258898305085,6.665476136363637,0.0,0.0
43.0,73.0,0.7,3.530258898305085,6.665476136363637,0.0,0.0
43.0,73.0,1.0,3.530258898305085,6.665476136363637,0.0,0.0
43.0,81.0,0.1,3.9516131355932202,7.3389018939393935,0.0,0.0
43.0,81.0,0.3,3.9516131355932202,7.3389018939393935,0.0,0.0
43.0,81.0,0.7,3.9516131355932202,7.3389018939393935,0.0,0.0
43.0,81.0,1.0,3.9516131355932202,7.3389018939393935,0.0,0.0
43.0,89.0,0.1,4.372967372881356,8.012327651515152,0.0,0.0
43.0,89.0,0.3,4.372967372881356,8.012327651515152,0.0,0.0
43.0,89.0,0.7,4.372967372881356,8.012327651515152,0.0,0.0
43.0,89.0,1.0,4.372967372881356,8.012327651515152,0.0,0.0
43.0,97.0,0.1,4.794321610169492,8.685753409090909,0.0,0.0
43.0,97.0,0.3,4.794321610169492,8.685753409090909,0.0,0.0
43.0,97.0,0.7,4.794321610169492,8.685753409090909,0.0,0.0
43.0,97.0,1.0,4.794321610169492,8.685753409090909,0.0,0.0
43.0,105.0,0.1,5.215675847457627,9.359179166666667,0.0,0.0
43.0,105.0,0.3,5.215675847457627,9.359179166666667,0.0,0.0
43.0,105.0,0.7,5.215675847457627,9.359179166666667,0.0,0.0
43.0,105.0,1.0,5.215675847457627,9.359179166666667,0.0,0.0
43.0,113.0,0.1,5.637030084745763,10.032604924242424,0.0,0.0
43.0,113.0,0.3,5.637030084745763,10.032604924242424,0.0,0.0
43.0,113.0,0.7,5.637030084745763,10.032604924242424,0.0,0.0
43.0,113.0,1.0,5.637030084745763,10.032604924242424,0.0,0.0
43.0,121.0,0.1,6.058384322033898,10.706030681818183,0.0,0.0
43.0,121.0,0.3,6.058384322033898,10.706030681818183,0.0,0.0
43.0,121.0,0.7,6.058384322033898,10.706030681818183,0.0,0.0
43.0,121.0,1.0,6.058384322033898,10.706030681818183,0.0,0.0
43.0,127.0,0.1,6.3744,11.2111,0.0,0.0
43.0,127.0,0.3,6.3744,11.2111,0.0,0.0
43.0,127.0,0.7,6.3744,11.2111,0.0,0.0
43.0,127.0,1.0,6.3744,11.2111,0.0,0.0
44.0,1.0,0.1,0.6442,0.22369761904761903,0.0,0.0
44.0,1.0,0.3,0.6442,0.22369761904761903,0.0,0.0
44.0,1.0,0.7,0.6442,0.22369761904761903,0.0,0.0
44.0,1.0,1.0,0.6442,0.22369761904761903,0.0,0.0
44.0,9.0,0.1,0.749,0.6052785714285713,0.0,0.0
44.0,9.0,0.3,0.749,0.6052785714285713,0.0,0.0
44.0,9.0,0.7,0.749,0.6052785714285713,0.0,0.0
44.0,9.0,1.0,0.749,0.6052785714285713,0.0,0.0
44.0,17.0,0.1,0.8538,0.9868595238095237,0.0,0.0
44.0,17.0,0.3,0.8538,0.9868595238095237,0.0,0.0
44.0,17.0,0.7,0.8538,0.9868595238095237,0.0,0.0
44.0,17.0,1.0,0.8538,0.9868595238095237,0.0,0.0
44.0,25.0,0.1,0.9586,2.1370875,0.0,0.0
44.0,25.0,0.3,0.9586,2.1370875,0.0,0.0
44.0,25.0,0.7,0.9586,2.1370875,0.0,0.0
44.0,25.0,1.0,0.9586,2.1370875,0.0,0.0
44.0,33.0,0.1,1.1777583333333332,2.5610152777777775,0.0,0.0
44.0,33.0,0.3,1.1777583333333332,2.5610152777777775,0.0,0.0
44.0,33.0,0.7,1.1777583333333332,2.5610152777777775,0.0,0.0
44.0,33.0,1.0,1.1777583333333332,2.5610152777777775,0.0,0.0
44.0,41.0,0.1,1.4487690789473684,2.9849430555555556,0.0,0.0
44.0,41.0,0.3,1.4487690789473684,2.9849430555555556,0.0,0.0
44.0,41.0,0.7,1.4487690789473684,2.9849430555555556,0.0,0.0
44.0,41.0,1.0,1.4487690789473684,2.9849430555555556,0.0,0.0
44.0,49.0,0.1,1.7716322368421054,3.9960117647058824,0.0,0.0
44.0,49.0,0.3,1.7716322368421054,3.9960117647058824,0.0,0.0
44.0,49.0,0.7,1.7716322368421054,3.9960117647058824,0.0,0.0
44.0,49.0,1.0,1.7716322368421054,3.9960117647058824,0.0,0.0
44.0,57.0,0.1,2.175415,5.202794117647059,0.0,0.0
44.0,57.0,0.3,2.175415,5.202794117647059,0.0,0.0
44.0,57.0,0.7,2.175415,5.202794117647059,0.0,0.0
44.0,57.0,1.0,2.175415,5.202794117647059,0.0,0.0
44.0,65.0,0.1,3.145635,6.069946641791045,0.0,0.0
44.0,65.0,0.3,3.145635,6.069946641791045,0.0,0.0
44.0,65.0,0.7,3.145635,6.069946641791045,0.0,0.0
44.0,65.0,1.0,3.145635,6.069946641791045,0.0,0.0
44.0,73.0,0.1,3.6235094262295084,6.7333212686567165,0.0,0.0
44.0,73.0,0.3,3.6235094262295084,6.7333212686567165,0.0,0.0
44.0,73.0,0.7,3.6235094262295084,6.7333212686567165,0.0,0.0
44.0,73.0,1.0,3.6235094262295084,6.7333212686567165,0.0,0.0
44.0,81.0,0.1,4.031048770491803,7.396695895522388,0.0,0.0
44.0,81.0,0.3,4.031048770491803,7.396695895522388,0.0,0.0
44.0,81.0,0.7,4.031048770491803,7.396695895522388,0.0,0.0
44.0,81.0,1.0,4.031048770491803,7.396695895522388,0.0,0.0
44.0,89.0,0.1,4.438588114754099,8.06007052238806,0.0,0.0
44.0,89.0,0.3,4.438588114754099,8.06007052238806,0.0,0.0
44.0,89.0,0.7,4.438588114754099,8.06007052238806,0.0,0.0
44.0,89.0,1.0,4.438588114754099,8.06007052238806,0.0,0.0
44.0,97.0,0.1,4.846127459016394,8.723445149253731,0.0,0.0
44.0,97.0,0.3,4.846127459016394,8.723445149253731,0.0,0.0
44.0,97.0,0.7,4.846127459016394,8.723445149253731,0.0,0.0
44.0,97.0,1.0,4.846127459016394,8.723445149253731,0.0,0.0
44.0,105.0,0.1,5.253666803278689,9.386819776119403,0.0,0.0
44.0,105.0,0.3,5.253666803278689,9.386819776119403,0.0,0.0
44.0,105.0,0.7,5.253666803278689,9.386819776119403,0.0,0.0
44.0,105.0,1.0,5.253666803278689,9.386819776119403,0.0,0.0
44.0,113.0,0.1,5.661206147540984,10.050194402985074,0.0,0.0
44.0,113.0,0.3,5.661206147540984,10.050194402985074,0.0,0.0
44.0,113.0,0.7,5.661206147540984,10.050194402985074,0.0,0.0
44.0,113.0,1.0,5.661206147540984,10.050194402985074,0.0,0.0
44.0,121.0,0.1,6.068745491803279,10.713569029850746,0.0,0.0
44.0,121.0,0.3,6.068745491803279,10.713569029850746,0.0,0.0
44.0,121.0,0.7,6.068745491803279,10.713569029850746,0.0,0.0
44.0,121.0,1.0,6.068745491803279,10.713569029850746,0.0,0.0
44.0,127.0,0.1,6.3744,11.2111,0.0,0.0
44.0,127.0,0.3,6.3744,11.2111,0.0,0.0
44.0,127.0,0.7,6.3744,11.2111,0.0,0.0
44.0,127.0,1.0,6.3744,11.2111,0.0,0.0
45.0,1.0,0.1,0.6447458333333334,0.22369761904761903,0.0,0.0
45.0,1.0,0.3,0.6447458333333334,0.22369761904761903,0.0,0.0
45.0,1.0,0.7,0.6447458333333334,0.22369761904761903,0.0,0.0
45.0,1.0,1.0,0.6447458333333334,0.22369761904761903,0.0,0.0
45.0,9.0,0.1,0.7539125,0.6052785714285713,0.0,0.0
45.0,9.0,0.3,0.7539125,0.6052785714285713,0.0,0.0
45.0,9.0,0.7,0.7539125,0.6052785714285713,0.0,0.0
45.0,9.0,1.0,0.7539125,0.6052785714285713,0.0,0.0
45.0,17.0,0.1,0.8630791666666666,0.9868595238095237,0.0,0.0
45.0,17.0,0.3,0.8630791666666666,0.9868595238095237,0.0,0.0
45.0,17.0,0.7,0.8630791666666666,0.9868595238095237,0.0,0.0
45.0,17.0,1.0,0.8630791666666666,0.9868595238095237,0.0,0.0
45.0,25.0,0.1,0.9859947916666667,2.1370875,0.0,0.0
45.0,25.0,0.3,0.9859947916666667,2.1370875,0.0,0.0
45.0,25.0,0.7,0.9859947916666667,2.1370875,0.0,0.0
45.0,25.0,1.0,0.9859947916666667,2.1370875,0.0,0.0
45.0,33.0,0.1,1.205153125,2.5610152777777775,0.0,0.0
45.0,33.0,0.3,1.205153125,2.5610152777777775,0.0,0.0
45.0,33.0,0.7,1.205153125,2.5610152777777775,0.0,0.0
45.0,33.0,1.0,1.205153125,2.5610152777777775,0.0,0.0
45.0,41.0,0.1,1.4891269736842105,2.9849430555555556,0.0,0.0
45.0,41.0,0.3,1.4891269736842105,2.9849430555555556,0.0,0.0
45.0,41.0,0.7,1.4891269736842105,2.9849430555555556,0.0,0.0
45.0,41.0,1.0,1.4891269736842105,2.9849430555555556,0.0,0.0
45.0,49.0,0.1,1.8119901315789473,3.9960117647058824,0.0,0.0
45.0,49.0,0.3,1.8119901315789473,3.9960117647058824,0.0,0.0
45.0,49.0,0.7,1.8119901315789473,3.9960117647058824,0.0,0.0
45.0,49.0,1.0,1.8119901315789473,3.9960117647058824,0.0,0.0
45.0,57.0,0.1,2.2966925,5.202794117647059,0.0,0.0
45.0,57.0,0.3,2.2966925,5.202794117647059,0.0,0.0
45.0,57.0,0.7,2.2966925,5.202794117647059,0.0,0.0
45.0,57.0,1.0,2.2966925,5.202794117647059,0.0,0.0
45.0,65.0,0.1,3.2669125,6.069946641791045,0.0,0.0
45.0,65.0,0.3,3.2669125,6.069946641791045,0.0,0.0
45.0,65.0,0.7,3.2669125,6.069946641791045,0.0,0.0
45.0,65.0,1.0,3.2669125,6.069946641791045,0.0,0.0
45.0,73.0,0.1,3.6678786290322583,6.7333212686567165,0.0,0.0
45.0,73.0,0.3,3.6678786290322583,6.7333212686567165,0.0,0.0
45.0,73.0,0.7,3.6678786290322583,6.7333212686567165,0.0,0.0
45.0,73.0,1.0,3.6678786290322583,6.7333212686567165,0.0,0.0
45.0,81.0,0.1,4.068844758064516,7.396695895522388,0.0,0.0
45.0,81.0,0.3,4.068844758064516,7.396695895522388,0.0,0.0
45.0,81.0,0.7,4.068844758064516,7.396695895522388,0.0,0.0
45.0,81.0,1.0,4.068844758064516,7.396695895522388,0.0,0.0
45.0,89.0,0.1,4.469810887096774,8.06007052238806,0.0,0.0
45.0,89.0,0.3,4.469810887096774,8.06007052238806,0.0,0.0
45.0,89.0,0.7,4.469810887096774,8.06007052238806,0.0,0.0
45.0,89.0,1.0,4.469810887096774,8.06007052238806,0.0,0.0
45.0,97.0,0.1,4.870777016129032,8.723445149253731,0.0,0.0
45.0,97.0,0.3,4.870777016129032,8.723445149253731,0.0,0.0
45.0,97.0,0.7,4.870777016129032,8.723445149253731,0.0,0.0
45.0,97.0,1.0,4.870777016129032,8.723445149253731,0.0,0.0
45.0,105.0,0.1,5.27174314516129,9.386819776119403,0.0,0.0
45.0,105.0,0.3,5.27174314516129,9.386819776119403,0.0,0.0
45.0,105.0,0.7,5.27174314516129,9.386819776119403,0.0,0.0
45.0,105.0,1.0,5.27174314516129,9.386819776119403,0.0,0.0
45.0,113.0,0.1,5.672709274193548,10.050194402985074,0.0,0.0
45.0,113.0,0.3,5.672709274193548,10.050194402985074,0.0,0.0
45.0,113.0,0.7,5.672709274193548,10.050194402985074,0.0,0.0
45.0,113.0,1.0,5.672709274193548,10.050194402985074,0.0,0.0
45.0,121.0,0.1,6.073675403225806,10.713569029850746,0.0,0.0
45.0,121.0,0.3,6.073675403225806,10.713569029850746,0.0,0.0
45.0,121.0,0.7,6.073675403225806,10.713569029850746,0.0,0.0
45.0,121.0,1.0,6.073675403225806,10.713569029850746,0.0,0.0
45.0,127.0,0.1,6.3744,11.2111,0.0,0.0
45.0,127.0,0.3,6.3744,11.2111,0.0,0.0
45.0,127.0,0.7,6.3744,11.2111,0.0,0.0
45.0,127.0,1.0,6.3744,11.2111,0.0,0.0
46.0,1.0,0.1,0.6459863636363636,0.22369761904761903,0.0,0.0
46.0,1.0,0.3,0.6459863636363636,0.22369761904761903,0.0,0.0
46.0,1.0,0.7,0.6459863636363636,0.22369761904761903,0.0,0.0
46.0,1.0,1.0,0.6459863636363636,0.22369761904761903,0.0,0.0
46.0,9.0,0.1,0.7650772727272728,0.6052785714285713,0.0,0.0
46.0,9.0,0.3,0.7650772727272728,0.6052785714285713,0.0,0.0
46.0,9.0,0.7,0.7650772727272728,0.6052785714285713,0.0,0.0
46.0,9.0,1.0,0.7650772727272728,0.6052785714285713,0.0,0.0
46.0,17.0,0.1,0.8841681818181818,0.9868595238095237,0.0,0.0
46.0,17.0,0.3,0.8841681818181818,0.9868595238095237,0.0,0.0
46.0,17.0,0.7,0.8841681818181818,0.9868595238095237,0.0,0.0
46.0,17.0,1.0,0.8841681818181818,0.9868595238095237,0.0,0.0
46.0,25.0,0.1,1.0344625,2.1370875,0.0,0.0
46.0,25.0,0.3,1.0344625,2.1370875,0.0,0.0
46.0,25.0,0.7,1.0344625,2.1370875,0.0,0.0
46.0,25.0,1.0,1.0344625,2.1370875,0.0,0.0
46.0,33.0,0.1,1.2367625,2.5610152777777775,0.0,0.0
46.0,33.0,0.3,1.2367625,2.5610152777777775,0.0,0.0
46.0,33.0,0.7,1.2367625,2.5610152777777775,0.0,0.0
46.0,33.0,1.0,1.2367625,2.5610152777777775,0.0,0.0
46.0,41.0,0.1,1.5294848684210527,2.9849430555555556,0.0,0.0
46.0,41.0,0.3,1.5294848684210527,2.9849430555555556,0.0,0.0
46.0,41.0,0.7,1.5294848684210527,2.9849430555555556,0.0,0.0
46.0,41.0,1.0,1.5294848684210527,2.9849430555555556,0.0,0.0
46.0,49.0,0.1,1.8523480263157894,3.9457291666666663,0.0,0.0
46.0,49.0,0.3,1.8523480263157894,3.9457291666666663,0.0,0.0
46.0,49.0,0.7,1.8523480263157894,3.9457291666666663,0.0,0.0
46.0,49.0,1.0,1.8523480263157894,3.9457291666666663,0.0,0.0
46.0,57.0,0.1,2.35733125,5.085468055555555,0.0,0.0
46.0,57.0,0.3,2.35733125,5.085468055555555,0.0,0.0
46.0,57.0,0.7,2.35733125,5.085468055555555,0.0,0.0
46.0,57.0,1.0,2.35733125,5.085468055555555,0.0,0.0
46.0,65.0,0.1,3.165847916666667,5.992050378787878,0.0,0.0
46.0,65.0,0.3,3.165847916666667,5.992050378787878,0.0,0.0
46.0,65.0,0.7,3.165847916666667,5.992050378787878,0.0,0.0
46.0,65.0,1.0,3.165847916666667,5.992050378787878,0.0,0.0
46.0,73.0,0.1,3.6235094262295084,6.665476136363637,0.0,0.0
46.0,73.0,0.3,3.6235094262295084,6.665476136363637,0.0,0.0
46.0,73.0,0.7,3.6235094262295084,6.665476136363637,0.0,0.0
46.0,73.0,1.0,3.6235094262295084,6.665476136363637,0.0,0.0
46.0,81.0,0.1,4.031048770491803,7.3389018939393935,0.0,0.0
46.0,81.0,0.3,4.031048770491803,7.3389018939393935,0.0,0.0
46.0,81.0,0.7,4.031048770491803,7.3389018939393935,0.0,0.0
46.0,81.0,1.0,4.031048770491803,7.3389018939393935,0.0,0.0
46.0,89.0,0.1,4.438588114754099,8.012327651515152,0.0,0.0
46.0,89.0,0.3,4.438588114754099,8.012327651515152,0.0,0.0
46.0,89.0,0.7,4.438588114754099,8.012327651515152,0.0,0.0
46.0,89.0,1.0,4.438588114754099,8.012327651515152,0.0,0.0
46.0,97.0,0.1,4.846127459016394,8.685753409090909,0.0,0.0
46.0,97.0,0.3,4.846127459016394,8.685753409090909,0.0,0.0
46.0,97.0,0.7,4.846127459016394,8.685753409090909,0.0,0.0
46.0,97.0,1.0,4.846127459016394,8.685753409090909,0.0,0.0
46.0,105.0,0.1,5.253666803278689,9.359179166666667,0.0,0.0
46.0,105.0,0.3,5.253666803278689,9.359179166666667,0.0,0.0
46.0,105.0,0.7,5.253666803278689,9.359179166666667,0.0,0.0
46.0,105.0,1.0,5.253666803278689,9.359179166666667,0.0,0.0
46.0,113.0,0.1,5.661206147540984,10.032604924242424,0.0,0.0
46.0,113.0,0.3,5.661206147540984,10.032604924242424,0.0,0.0
46.0,113.0,0.7,5.661206147540984,10.032604924242424,0.0,0.0
46.0,113.0,1.0,5.661206147540984,10.032604924242424,0.0,0.0
46.0,121.0,0.1,6.068745491803279,10.706030681818183,0.0,0.0
46.0,121.0,0.3,6.068745491803279,10.706030681818183,0.0,0.0
46.0,121.0,0.7,6.068745491803279,10.706030681818183,0.0,0.0
46.0,121.0,1.0,6.068745491803279,10.706030681818183,0.0,0.0
46.0,127.0,0.1,6.3744,11.2111,0.0,0.0
46.0,127.0,0.3,6.3744,11.2111,0.0,0.0
46.0,127.0,0.7,6.3744,11.2111,0.0,0.0
46.0,127.0,1.0,6.3744,11.2111,0.0,0.0
47.0,1.0,0.1,0.647475,0.22152954545454545,0.0,0.0
47.0,1.0,0.3,0.647475,0.22152954545454545,0.0,0.0
47.0,1.0,0.7,0.647475,0.22152954545454545,0.0,0.0
47.0,1.0,1.0,0.647475,0.22152954545454545,0.0,0.0
47.0,9.0,0.1,0.778475,0.5857659090909091,0.0,0.0
47.0,9.0,0.3,0.778475,0.5857659090909091,0.0,0.0
47.0,9.0,0.7,0.778475,0.5857659090909091,0.0,0.0
47.0,9.0,1.0,0.778475,0.5857659090909091,0.0,0.0
47.0,17.0,0.1,0.909475,0.9500022727272728,0.0,0.0
47.0,17.0,0.3,0.909475,0.9500022727272728,0.0,0.0
47.0,17.0,0.7,0.909475,0.9500022727272728,0.0,0.0
47.0,17.0,1.0,0.909475,0.9500022727272728,0.0,0.0
47.0,25.0,0.1,1.07600625,2.1370875,0.0,0.0
47.0,25.0,0.3,1.07600625,2.1370875,0.0,0.0
47.0,25.0,0.7,1.07600625,2.1370875,0.0,0.0
47.0,25.0,1.0,1.07600625,2.1370875,0.0,0.0
47.0,33.0,0.1,1.26385625,2.5859522058823528,0.0,0.0
47.0,33.0,0.3,1.26385625,2.5859522058823528,0.0,0.0
47.0,33.0,0.7,1.26385625,2.5859522058823528,0.0,0.0
47.0,33.0,1.0,1.26385625,2.5859522058823528,0.0,0.0
47.0,41.0,0.1,1.5557175,3.0348169117647057,0.0,0.0
47.0,41.0,0.3,1.5557175,3.0348169117647057,0.0,0.0
47.0,41.0,0.7,1.5557175,3.0348169117647057,0.0,0.0
47.0,41.0,1.0,1.5557175,3.0348169117647057,0.0,0.0
47.0,49.0,0.1,1.8624375,3.9457291666666663,0.0,0.0
47.0,49.0,0.3,1.8624375,3.9457291666666663,0.0,0.0
47.0,49.0,0.7,1.8624375,3.9457291666666663,0.0,0.0
47.0,49.0,1.0,1.8624375,3.9457291666666663,0.0,0.0
47.0,57.0,0.1,2.334008653846154,4.922648214285714,0.0,0.0
47.0,57.0,0.3,2.334008653846154,4.922648214285714,0.0,0.0
47.0,57.0,0.7,2.334008653846154,4.922648214285714,0.0,0.0
47.0,57.0,1.0,2.334008653846154,4.922648214285714,0.0,0.0
47.0,65.0,0.1,3.080331730769231,5.828955078125,0.0,0.0
47.0,65.0,0.3,3.080331730769231,5.828955078125,0.0,0.0
47.0,65.0,0.7,3.080331730769231,5.828955078125,0.0,0.0
47.0,65.0,1.0,3.080331730769231,5.828955078125,0.0,0.0
47.0,73.0,0.1,3.5776612500000002,6.523425390625,0.0,0.0
47.0,73.0,0.3,3.5776612500000002,6.523425390625,0.0,0.0
47.0,73.0,0.7,3.5776612500000002,6.523425390625,0.0,0.0
47.0,73.0,1.0,3.5776612500000002,6.523425390625,0.0,0.0
47.0,81.0,0.1,3.991992916666667,7.217895703125,0.0,0.0
47.0,81.0,0.3,3.991992916666667,7.217895703125,0.0,0.0
47.0,81.0,0.7,3.991992916666667,7.217895703125,0.0,0.0
47.0,81.0,1.0,3.991992916666667,7.217895703125,0.0,0.0
47.0,89.0,0.1,4.406324583333333,7.912366015625,0.0,0.0
47.0,89.0,0.3,4.406324583333333,7.912366015625,0.0,0.0
47.0,89.0,0.7,4.406324583333333,7.912366015625,0.0,0.0
47.0,89.0,1.0,4.406324583333333,7.912366015625,0.0,0.0
47.0,97.0,0.1,4.82065625,8.606836328125,0.0,0.0
47.0,97.0,0.3,4.82065625,8.606836328125,0.0,0.0
47.0,97.0,0.7,4.82065625,8.606836328125,0.0,0.0
47.0,97.0,1.0,4.82065625,8.606836328125,0.0,0.0
47.0,105.0,0.1,5.234987916666666,9.301306640625,0.0,0.0
47.0,105.0,0.3,5.234987916666666,9.301306640625,0.0,0.0
47.0,105.0,0.7,5.234987916666666,9.301306640625,0.0,0.0
47.0,105.0,1.0,5.234987916666666,9.301306640625,0.0,0.0
47.0,113.0,0.1,5.649319583333333,9.995776953125,0.0,0.0
47.0,113.0,0.3,5.649319583333333,9.995776953125,0.0,0.0
47.0,113.0,0.7,5.649319583333333,9.995776953125,0.0,0.0
47.0,113.0,1.0,5.649319583333333,9.995776953125,0.0,0.0
47.0,121.0,0.1,6.0636512499999995,10.690247265625,0.0,0.0
47.0,121.0,0.3,6.0636512499999995,10.690247265625,0.0,0.0
47.0,121.0,0.7,6.0636512499999995,10.690247265625,0.0,0.0
47.0,121.0,1.0,6.0636512499999995,10.690247265625,0.0,0.0
47.0,127.0,0.1,6.3744,11.2111,0.0,0.0
47.0,127.0,0.3,6.3744,11.2111,0.0,0.0
47.0,127.0,0.7,6.3744,11.2111,0.0,0.0
47.0,127.0,1.0,6.3744,11.2111,0.0,0.0
48.0,1.0,0.1,0.6492944444444444,0.22152954545454545,0.0,0.0
48.0,1.0,0.3,0.6492944444444444,0.22152954545454545,0.0,0.0
48.0,1.0,0.7,0.6492944444444444,0.22152954545454545,0.0,0.0
48.0,1.0,1.0,0.6492944444444444,0.22152954545454545,0.0,0.0
48.0,9.0,0.1,0.7948500000000001,0.5857659090909091,0.0,0.0
48.0,9.0,0.3,0.7948500000000001,0.5857659090909091,0.0,0.0
48.0,9.0,0.7,0.7948500000000001,0.5857659090909091,0.0,0.0
48.0,9.0,1.0,0.7948500000000001,0.5857659090909091,0.0,0.0
48.0,17.0,0.1,0.9404055555555555,0.9500022727272728,0.0,0.0
48.0,17.0,0.3,0.9404055555555555,0.9500022727272728,0.0,0.0
48.0,17.0,0.7,0.9404055555555555,0.9500022727272728,0.0,0.0
48.0,17.0,1.0,0.9404055555555555,0.9500022727272728,0.0,0.0
48.0,25.0,0.1,1.1120108333333334,2.1370875,0.0,0.0
48.0,25.0,0.3,1.1120108333333334,2.1370875,0.0,0.0
48.0,25.0,0.7,1.1120108333333334,2.1370875,0.0,0.0
48.0,25.0,1.0,1.1120108333333334,2.1370875,0.0,0.0
48.0,33.0,0.1,1.2873375,2.5859522058823528,0.0,0.0
48.0,33.0,0.3,1.2873375,2.5859522058823528,0.0,0.0
48.0,33.0,0.7,1.2873375,2.5859522058823528,0.0,0.0
48.0,33.0,1.0,1.2873375,2.5859522058823528,0.0,0.0
48.0,41.0,0.1,1.5940575,3.0348169117647057,0.0,0.0
48.0,41.0,0.3,1.5940575,3.0348169117647057,0.0,0.0
48.0,41.0,0.7,1.5940575,3.0348169117647057,0.0,0.0
48.0,41.0,1.0,1.5940575,3.0348169117647057,0.0,0.0
48.0,49.0,0.1,1.9007775,3.906874431818182,0.0,0.0
48.0,49.0,0.3,1.9007775,3.906874431818182,0.0,0.0
48.0,49.0,0.7,1.9007775,3.906874431818182,0.0,0.0
48.0,49.0,1.0,1.9007775,3.906874431818182,0.0,0.0
48.0,57.0,0.1,2.3775441666666666,4.839388068181818,0.0,0.0
48.0,57.0,0.3,2.3775441666666666,4.839388068181818,0.0,0.0
48.0,57.0,0.7,2.3775441666666666,4.839388068181818,0.0,0.0
48.0,57.0,1.0,2.3775441666666666,4.839388068181818,0.0,0.0
48.0,65.0,0.1,3.0243575000000003,5.743524206349206,0.0,0.0
48.0,65.0,0.3,3.0243575000000003,5.743524206349206,0.0,0.0
48.0,65.0,0.7,3.0243575000000003,5.743524206349206,0.0,0.0
48.0,65.0,1.0,3.0243575000000003,5.743524206349206,0.0,0.0
48.0,73.0,0.1,3.530258898305085,6.449017857142857,0.0,0.0
48.0,73.0,0.3,3.530258898305085,6.449017857142857,0.0,0.0
48.0,73.0,0.7,3.530258898305085,6.449017857142857,0.0,0.0
48.0,73.0,1.0,3.530258898305085,6.449017857142857,0.0,0.0
48.0,81.0,0.1,3.9516131355932202,7.154511507936508,0.0,0.0
48.0,81.0,0.3,3.9516131355932202,7.154511507936508,0.0,0.0
48.0,81.0,0.7,3.9516131355932202,7.154511507936508,0.0,0.0
48.0,81.0,1.0,3.9516131355932202,7.154511507936508,0.0,0.0
48.0,89.0,0.1,4.372967372881356,7.860005158730159,0.0,0.0
48.0,89.0,0.3,4.372967372881356,7.860005158730159,0.0,0.0
48.0,89.0,0.7,4.372967372881356,7.860005158730159,0.0,0.0
48.0,89.0,1.0,4.372967372881356,7.860005158730159,0.0,0.0
48.0,97.0,0.1,4.794321610169492,8.56549880952381,0.0,0.0
48.0,97.0,0.3,4.794321610169492,8.56549880952381,0.0,0.0
48.0,97.0,0.7,4.794321610169492,8.56549880952381,0.0,0.0
48.0,97.0,1.0,4.794321610169492,8.56549880952381,0.0,0.0
48.0,105.0,0.1,5.215675847457627,9.27099246031746,0.0,0.0
48.0,105.0,0.3,5.215675847457627,9.27099246031746,0.0,0.0
48.0,105.0,0.7,5.215675847457627,9.27099246031746,0.0,0.0
48.0,105.0,1.0,5.215675847457627,9.27099246031746,0.0,0.0
48.0,113.0,0.1,5.637030084745763,9.976486111111111,0.0,0.0
48.0,113.0,0.3,5.637030084745763,9.976486111111111,0.0,0.0
48.0,113.0,0.7,5.637030084745763,9.976486111111111,0.0,0.0
48.0,113.0,1.0,5.637030084745763,9.976486111111111,0.0,0.0
48.0,121.0,0.1,6.058384322033898,10.681979761904762,0.0,0.0
48.0,121.0,0.3,6.058384322033898,10.681979761904762,0.0,0.0
48.0,121.0,0.7,6.058384322033898,10.681979761904762,0.0,0.0
48.0,121.0,1.0,6.058384322033898,10.681979761904762,0.0,0.0
48.0,127.0,0.1,6.3744,11.2111,0.0,0.0
48.0,127.0,0.3,6.3744,11.2111,0.0,0.0
48.0,127.0,0.7,6.3744,11.2111,0.0,0.0
48.0,127.0,1.0,6.3744,11.2111,0.0,0.0
49.0,1.0,0.1,0.65156875,0.21955,0.0,0.0
49.0,1.0,0.3,0.65156875,0.21955,0.0,0.0
49.0,1.0,0.7,0.65156875,0.21955,0.0,0.0
49.0,1.0,1.0,0.65156875,0.21955,0.0,0.0
49.0,9.0,0.1,0.81531875,0.56795,0.0,0.0
49.0,9.0,0.3,0.81531875,0.56795,0.0,0.0
49.0,9.0,0.7,0.81531875,0.56795,0.0,0.0
49.0,9.0,1.0,0.81531875,0.56795,0.0,0.0
49.0,17.0,0.1,0.9791460937500001,0.91635,0.0,0.0
49.0,17.0,0.3,0.9791460937500001,0.91635,0.0,0.0
49.0,17.0,0.7,0.9791460937500001,0.91635,0.0,0.0
49.0,17.0,1.0,0.9791460937500001,0.91635,0.0,0.0
49.0,25.0,0.1,1.14351484375,2.1370875,0.0,0.0
49.0,25.0,0.3,1.14351484375,2.1370875,0.0,0.0
49.0,25.0,0.7,1.14351484375,2.1370875,0.0,0.0
49.0,25.0,1.0,1.14351484375,2.1370875,0.0,0.0
49.0,33.0,0.1,1.3256775,2.5859522058823528,0.0,0.0
49.0,33.0,0.3,1.3256775,2.5859522058823528,0.0,0.0
49.0,33.0,0.7,1.3256775,2.5859522058823528,0.0,0.0
49.0,33.0,1.0,1.3256775,2.5859522058823528,0.0,0.0
49.0,41.0,0.1,1.6323975,3.0348169117647057,0.0,0.0
49.0,41.0,0.3,1.6323975,3.0348169117647057,0.0,0.0
49.0,41.0,0.7,1.6323975,3.0348169117647057,0.0,0.0
49.0,41.0,1.0,1.6323975,3.0348169117647057,0.0,0.0
49.0,49.0,0.1,1.9391175,3.8388786458333333,0.0,0.0
49.0,49.0,0.3,1.9391175,3.8388786458333333,0.0,0.0
49.0,49.0,0.7,1.9391175,3.8388786458333333,0.0,0.0
49.0,49.0,1.0,1.9391175,3.8388786458333333,0.0,0.0
49.0,57.0,0.1,2.4331296875,4.6936828125000005,0.0,0.0
49.0,57.0,0.3,2.4331296875,4.6936828125000005,0.0,0.0
49.0,57.0,0.7,2.4331296875,4.6936828125000005,0.0,0.0
49.0,57.0,1.0,2.4331296875,4.6936828125000005,0.0,0.0
49.0,65.0,0.1,3.0395171875,5.548486979166666,0.0,0.0
49.0,65.0,0.3,3.0395171875,5.548486979166666,0.0,0.0
49.0,65.0,0.7,3.0395171875,5.548486979166666,0.0,0.0
49.0,65.0,1.0,3.0395171875,5.548486979166666,0.0,0.0
49.0,73.0,0.1,3.530258898305085,6.292884016393442,0.0,0.0
49.0,73.0,0.3,3.530258898305085,6.292884016393442,0.0,0.0
49.0,73.0,0.7,3.530258898305085,6.292884016393442,0.0,0.0
49.0,73.0,1.0,3.530258898305085,6.292884016393442,0.0,0.0
49.0,81.0,0.1,3.9516131355932202,7.0215086065573775,0.0,0.0
49.0,81.0,0.3,3.9516131355932202,7.0215086065573775,0.0,0.0
49.0,81.0,0.7,3.9516131355932202,7.0215086065573775,0.0,0.0
49.0,81.0,1.0,3.9516131355932202,7.0215086065573775,0.0,0.0
49.0,89.0,0.1,4.372967372881356,7.750133196721311,0.0,0.0
49.0,89.0,0.3,4.372967372881356,7.750133196721311,0.0,0.0
49.0,89.0,0.7,4.372967372881356,7.750133196721311,0.0,0.0
49.0,89.0,1.0,4.372967372881356,7.750133196721311,0.0,0.0
49.0,97.0,0.1,4.794321610169492,8.478757786885247,0.0,0.0
49.0,97.0,0.3,4.794321610169492,8.478757786885247,0.0,0.0
49.0,97.0,0.7,4.794321610169492,8.478757786885247,0.0,0.0
49.0,97.0,1.0,4.794321610169492,8.478757786885247,0.0,0.0
49.0,105.0,0.1,5.215675847457627,9.20738237704918,0.0,0.0
49.0,105.0,0.3,5.215675847457627,9.20738237704918,0.0,0.0
49.0,105.0,0.7,5.215675847457627,9.20738237704918,0.0,0.0
49.0,105.0,1.0,5.215675847457627,9.20738237704918,0.0,0.0
49.0,113.0,0.1,5.637030084745763,9.936006967213114,0.0,0.0
49.0,113.0,0.3,5.637030084745763,9.936006967213114,0.0,0.0
49.0,113.0,0.7,5.637030084745763,9.936006967213114,0.0,0.0
49.0,113.0,1.0,5.637030084745763,9.936006967213114,0.0,0.0
49.0,121.0,0.1,6.058384322033898,10.66463155737705,0.0,0.0
49.0,121.0,0.3,6.058384322033898,10.66463155737705,0.0,0.0
49.0,121.0,0.7,6.058384322033898,10.66463155737705,0.0,0.0
49.0,121.0,1.0,6.058384322033898,10.66463155737705,0.0,0.0
49.0,127.0,0.1,6.3744,11.2111,0.0,0.0
49.0,127.0,0.3,6.3744,11.2111,0.0,0.0
49.0,127.0,0.7,6.3744,11.2111,0.0,0.0
49.0,127.0,1.0,6.3744,11.2111,0.0,0.0
50.0,1.0,0.1,0.6544928571428571,0.21955,0.0,0.0
50.0,1.0,0.3,0.6544928571428571,0.21955,0.0,0.0
50.0,1.0,0.7,0.6544928571428571,0.21955,0.0,0.0
50.0,1.0,1.0,0.6544928571428571,0.21955,0.0,0.0
50.0,9.0,0.1,0.8416357142857143,0.56795,0.0,0.0
50.0,9.0,0.3,0.8416357142857143,0.56795,0.0,0.0
50.0,9.0,0.7,0.8416357142857143,0.56795,0.0,0.0
50.0,9.0,1.0,0.8416357142857143,0.56795,0.0,0.0
50.0,17.0,0.1,1.0166125,0.91635,0.0,0.0
50.0,17.0,0.3,1.0166125,0.91635,0.0,0.0
50.0,17.0,0.7,1.0166125,0.91635,0.0,0.0
50.0,17.0,1.0,1.0166125,0.91635,0.0,0.0
50.0,25.0,0.1,1.1713125,2.1370875,0.0,0.0
50.0,25.0,0.3,1.1713125,2.1370875,0.0,0.0
50.0,25.0,0.7,1.1713125,2.1370875,0.0,0.0
50.0,25.0,1.0,1.1713125,2.1370875,0.0,0.0
50.0,33.0,0.1,1.3603660714285715,2.61400625,0.0,0.0
50.0,33.0,0.3,1.3603660714285715,2.61400625,0.0,0.0
50.0,33.0,0.7,1.3603660714285715,2.61400625,0.0,0.0
50.0,33.0,1.0,1.3603660714285715,2.61400625,0.0,0.0
50.0,41.0,0.1,1.6524803571428572,3.090925,0.0,0.0
50.0,41.0,0.3,1.6524803571428572,3.090925,0.0,0.0
50.0,41.0,0.7,1.6524803571428572,3.090925,0.0,0.0
50.0,41.0,1.0,1.6524803571428572,3.090925,0.0,0.0
50.0,49.0,0.1,1.9445946428571428,3.879975,0.0,0.0
50.0,49.0,0.3,1.9445946428571428,3.879975,0.0,0.0
50.0,49.0,0.7,1.9445946428571428,3.879975,0.0,0.0
50.0,49.0,1.0,1.9445946428571428,3.879975,0.0,0.0
50.0,57.0,0.1,2.410836029411765,4.6690249999999995,0.0,0.0
50.0,57.0,0.3,2.410836029411765,4.6690249999999995,0.0,0.0
50.0,57.0,0.7,2.410836029411765,4.6690249999999995,0.0,0.0
50.0,57.0,1.0,2.410836029411765,4.6690249999999995,0.0,0.0
50.0,65.0,0.1,2.9815536764705883,5.458075,0.0,0.0
50.0,65.0,0.3,2.9815536764705883,5.458075,0.0,0.0
50.0,65.0,0.7,2.9815536764705883,5.458075,0.0,0.0
50.0,65.0,1.0,2.9815536764705883,5.458075,0.0,0.0
50.0,73.0,0.1,3.481221982758621,6.21091375,0.0,0.0
50.0,73.0,0.3,3.481221982758621,6.21091375,0.0,0.0
50.0,73.0,0.7,3.481221982758621,6.21091375,0.0,0.0
50.0,73.0,1.0,3.481221982758621,6.21091375,0.0,0.0
50.0,81.0,0.1,3.9098409482758623,6.951682083333333,0.0,0.0
50.0,81.0,0.3,3.9098409482758623,6.951682083333333,0.0,0.0
50.0,81.0,0.7,3.9098409482758623,6.951682083333333,0.0,0.0
50.0,81.0,1.0,3.9098409482758623,6.951682083333333,0.0,0.0
50.0,89.0,0.1,4.338459913793104,7.6924504166666665,0.0,0.0
50.0,89.0,0.3,4.338459913793104,7.6924504166666665,0.0,0.0
50.0,89.0,0.7,4.338459913793104,7.6924504166666665,0.0,0.0
50.0,89.0,1.0,4.338459913793104,7.6924504166666665,0.0,0.0
50.0,97.0,0.1,4.767078879310345,8.43321875,0.0,0.0
50.0,97.0,0.3,4.767078879310345,8.43321875,0.0,0.0
50.0,97.0,0.7,4.767078879310345,8.43321875,0.0,0.0
50.0,97.0,1.0,4.767078879310345,8.43321875,0.0,0.0
50.0,105.0,0.1,5.195697844827587,9.173987083333333,0.0,0.0
50.0,105.0,0.3,5.195697844827587,9.173987083333333,0.0,0.0
50.0,105.0,0.7,5.195697844827587,9.173987083333333,0.0,0.0
50.0,105.0,1.0,5.195697844827587,9.173987083333333,0.0,0.0
50.0,113.0,0.1,5.624316810344828,9.914755416666667,0.0,0.0
50.0,113.0,0.3,5.624316810344828,9.914755416666667,0.0,0.0
50.0,113.0,0.7,5.624316810344828,9.914755416666667,0.0,0.0
50.0,113.0,1.0,5.624316810344828,9.914755416666667,0.0,0.0
50.0,121.0,0.1,6.0529357758620685,10.65552375,0.0,0.0
50.0,121.0,0.3,6.0529357758620685,10.65552375,0.0,0.0
50.0,121.0,0.7,6.0529357758620685,10.65552375,0.0,0.0
50.0,121.0,1.0,6.0529357758620685,10.65552375,0.0,0.0
50.0,127.0,0.1,6.3744,11.2111,0.0,0.0
50.0,127.0,0.3,6.3744,11.2111,0.0,0.0
50.0,127.0,0.7,6.3744,11.2111,0.0,0.0
50.0,127.0,1.0,6.3744,11.2111,0.0,0.0
51.0,1.0,0.1,0.6583916666666667,0.21773541666666665,0.0,0.0
51.0,1.0,0.3,0.6583916666666667,0.21773541666666665,0.0,0.0
51.0,1.0,0.7,0.6583916666666667,0.21773541666666665,0.0,0.0
51.0,1.0,1.0,0.6583916666666667,0.21773541666666665,0.0,0.0
51.0,9.0,0.1,0.876725,0.55161875,0.0,0.0
51.0,9.0,0.3,0.876725,0.55161875,0.0,0.0
51.0,9.0,0.7,0.876725,0.55161875,0.0,0.0
51.0,9.0,1.0,0.876725,0.55161875,0.0,0.0
51.0,17.0,0.1,1.0499159722222222,0.8855020833333334,0.0,0.0
51.0,17.0,0.3,1.0499159722222222,0.8855020833333334,0.0,0.0
51.0,17.0,0.7,1.0499159722222222,0.8855020833333334,0.0,0.0
51.0,17.0,1.0,1.0499159722222222,0.8855020833333334,0.0,0.0
51.0,25.0,0.1,1.196021527777778,2.1370875,0.0,0.0
51.0,25.0,0.3,1.196021527777778,2.1370875,0.0,0.0
51.0,25.0,0.7,1.196021527777778,2.1370875,0.0,0.0
51.0,25.0,1.0,1.196021527777778,2.1370875,0.0,0.0
51.0,33.0,0.1,1.3968803571428572,2.61400625,0.0,0.0
51.0,33.0,0.3,1.3968803571428572,2.61400625,0.0,0.0
51.0,33.0,0.7,1.3968803571428572,2.61400625,0.0,0.0
51.0,33.0,1.0,1.3968803571428572,2.61400625,0.0,0.0
51.0,41.0,0.1,1.6889946428571427,3.090925,0.0,0.0
51.0,41.0,0.3,1.6889946428571427,3.090925,0.0,0.0
51.0,41.0,0.7,1.6889946428571427,3.090925,0.0,0.0
51.0,41.0,1.0,1.6889946428571427,3.090925,0.0,0.0
51.0,49.0,0.1,1.9811089285714285,3.850750925925926,0.0,0.0
51.0,49.0,0.3,1.9811089285714285,3.850750925925926,0.0,0.0
51.0,49.0,0.7,1.9811089285714285,3.850750925925926,0.0,0.0
51.0,49.0,1.0,1.9811089285714285,3.850750925925926,0.0,0.0
51.0,57.0,0.1,2.4371190789473687,4.610576851851851,0.0,0.0
51.0,57.0,0.3,2.4371190789473687,4.610576851851851,0.0,0.0
51.0,57.0,0.7,2.4371190789473687,4.610576851851851,0.0,0.0
51.0,57.0,1.0,2.4371190789473687,4.610576851851851,0.0,0.0
51.0,65.0,0.1,2.9477611842105267,5.370402777777778,0.0,0.0
51.0,65.0,0.3,2.9477611842105267,5.370402777777778,0.0,0.0
51.0,65.0,0.7,2.9477611842105267,5.370402777777778,0.0,0.0
51.0,65.0,1.0,2.9477611842105267,5.370402777777778,0.0,0.0
51.0,73.0,0.1,3.4304644736842107,6.126164830508475,0.0,0.0
51.0,73.0,0.3,3.4304644736842107,6.126164830508475,0.0,0.0
51.0,73.0,0.7,3.4304644736842107,6.126164830508475,0.0,0.0
51.0,73.0,1.0,3.4304644736842107,6.126164830508475,0.0,0.0
51.0,81.0,0.1,3.8666030701754384,6.879488559322034,0.0,0.0
51.0,81.0,0.3,3.8666030701754384,6.879488559322034,0.0,0.0
51.0,81.0,0.7,3.8666030701754384,6.879488559322034,0.0,0.0
51.0,81.0,1.0,3.8666030701754384,6.879488559322034,0.0,0.0
51.0,89.0,0.1,4.302741666666667,7.632812288135593,0.0,0.0
51.0,89.0,0.3,4.302741666666667,7.632812288135593,0.0,0.0
51.0,89.0,0.7,4.302741666666667,7.632812288135593,0.0,0.0
51.0,89.0,1.0,4.302741666666667,7.632812288135593,0.0,0.0
51.0,97.0,0.1,4.738880263157895,8.386136016949152,0.0,0.0
51.0,97.0,0.3,4.738880263157895,8.386136016949152,0.0,0.0
51.0,97.0,0.7,4.738880263157895,8.386136016949152,0.0,0.0
51.0,97.0,1.0,4.738880263157895,8.386136016949152,0.0,0.0
51.0,105.0,0.1,5.175018859649123,9.139459745762712,0.0,0.0
51.0,105.0,0.3,5.175018859649123,9.139459745762712,0.0,0.0
51.0,105.0,0.7,5.175018859649123,9.139459745762712,0.0,0.0
51.0,105.0,1.0,5.175018859649123,9.139459745762712,0.0,0.0
51.0,113.0,0.1,5.611157456140351,9.892783474576271,0.0,0.0
51.0,113.0,0.3,5.611157456140351,9.892783474576271,0.0,0.0
51.0,113.0,0.7,5.611157456140351,9.892783474576271,0.0,0.0
51.0,113.0,1.0,5.611157456140351,9.892783474576271,0.0,0.0
51.0,121.0,0.1,6.047296052631578,10.646107203389832,0.0,0.0
51.0,121.0,0.3,6.047296052631578,10.646107203389832,0.0,0.0
51.0,121.0,0.7,6.047296052631578,10.646107203389832,0.0,0.0
51.0,121.0,1.0,6.047296052631578,10.646107203389832,0.0,0.0
51.0,127.0,0.1,6.3744,11.2111,0.0,0.0
51.0,127.0,0.3,6.3744,11.2111,0.0,0.0
51.0,127.0,0.7,6.3744,11.2111,0.0,0.0
51.0,127.0,1.0,6.3744,11.2111,0.0,0.0
52.0,1.0,0.1,0.6608727272727273,0.21773541666666665,0.0,0.0
52.0,1.0,0.3,0.6608727272727273,0.21773541666666665,0.0,0.0
52.0,1.0,0.7,0.6608727272727273,0.21773541666666665,0.0,0.0
52.0,1.0,1.0,0.6608727272727273,0.21773541666666665,0.0,0.0
52.0,9.0,0.1,0.8990545454545454,0.55161875,0.0,0.0
52.0,9.0,0.3,0.8990545454545454,0.55161875,0.0,0.0
52.0,9.0,0.7,0.8990545454545454,0.55161875,0.0,0.0
52.0,9.0,1.0,0.8990545454545454,0.55161875,0.0,0.0
52.0,17.0,0.1,1.074625,0.8855020833333334,0.0,0.0
52.0,17.0,0.3,1.074625,0.8855020833333334,0.0,0.0
52.0,17.0,0.7,1.074625,0.8855020833333334,0.0,0.0
52.0,17.0,1.0,1.074625,0.8855020833333334,0.0,0.0
52.0,25.0,0.1,1.229325,2.1370875,0.0,0.0
52.0,25.0,0.3,1.229325,2.1370875,0.0,0.0
52.0,25.0,0.7,1.229325,2.1370875,0.0,0.0
52.0,25.0,1.0,1.229325,2.1370875,0.0,0.0
52.0,33.0,0.1,1.4616102272727272,2.61400625,0.0,0.0
52.0,33.0,0.3,1.4616102272727272,2.61400625,0.0,0.0
52.0,33.0,0.7,1.4616102272727272,2.61400625,0.0,0.0
52.0,33.0,1.0,1.4616102272727272,2.61400625,0.0,0.0
52.0,41.0,0.1,1.740446590909091,3.090925,0.0,0.0
52.0,41.0,0.3,1.740446590909091,3.090925,0.0,0.0
52.0,41.0,0.7,1.740446590909091,3.090925,0.0,0.0
52.0,41.0,1.0,1.740446590909091,3.090925,0.0,0.0
52.0,49.0,0.1,2.0192829545454547,3.7983491379310346,0.0,0.0
52.0,49.0,0.3,2.0192829545454547,3.7983491379310346,0.0,0.0
52.0,49.0,0.7,2.0192829545454547,3.7983491379310346,0.0,0.0
52.0,49.0,1.0,2.0192829545454547,3.7983491379310346,0.0,0.0
52.0,57.0,0.1,2.4583958333333333,4.505773275862069,0.0,0.0
52.0,57.0,0.3,2.4583958333333333,4.505773275862069,0.0,0.0
52.0,57.0,0.7,2.4583958333333333,4.505773275862069,0.0,0.0
52.0,57.0,1.0,2.4583958333333333,4.505773275862069,0.0,0.0
52.0,65.0,0.1,2.920405357142857,5.213197413793104,0.0,0.0
52.0,65.0,0.3,2.920405357142857,5.213197413793104,0.0,0.0
52.0,65.0,0.7,2.920405357142857,5.213197413793104,0.0,0.0
52.0,65.0,1.0,2.920405357142857,5.213197413793104,0.0,0.0
52.0,73.0,0.1,3.3778941964285716,5.947746052631579,0.0,0.0
52.0,73.0,0.3,3.3778941964285716,5.947746052631579,0.0,0.0
52.0,73.0,0.7,3.3778941964285716,5.947746052631579,0.0,0.0
52.0,73.0,1.0,3.3778941964285716,5.947746052631579,0.0,0.0
52.0,81.0,0.1,3.821820982142857,6.727502192982456,0.0,0.0
52.0,81.0,0.3,3.821820982142857,6.727502192982456,0.0,0.0
52.0,81.0,0.7,3.821820982142857,6.727502192982456,0.0,0.0
52.0,81.0,1.0,3.821820982142857,6.727502192982456,0.0,0.0
52.0,89.0,0.1,4.2657477678571425,7.507258333333334,0.0,0.0
52.0,89.0,0.3,4.2657477678571425,7.507258333333334,0.0,0.0
52.0,89.0,0.7,4.2657477678571425,7.507258333333334,0.0,0.0
52.0,89.0,1.0,4.2657477678571425,7.507258333333334,0.0,0.0
52.0,97.0,0.1,4.709674553571428,8.287014473684211,0.0,0.0
52.0,97.0,0.3,4.709674553571428,8.287014473684211,0.0,0.0
52.0,97.0,0.7,4.709674553571428,8.287014473684211,0.0,0.0
52.0,97.0,1.0,4.709674553571428,8.287014473684211,0.0,0.0
52.0,105.0,0.1,5.153601339285714,9.066770614035088,0.0,0.0
52.0,105.0,0.3,5.153601339285714,9.066770614035088,0.0,0.0
52.0,105.0,0.7,5.153601339285714,9.066770614035088,0.0,0.0
52.0,105.0,1.0,5.153601339285714,9.066770614035088,0.0,0.0
52.0,113.0,0.1,5.597528125,9.846526754385966,0.0,0.0
52.0,113.0,0.3,5.597528125,9.846526754385966,0.0,0.0
52.0,113.0,0.7,5.597528125,9.846526754385966,0.0,0.0
52.0,113.0,1.0,5.597528125,9.846526754385966,0.0,0.0
52.0,121.0,0.1,6.041454910714285,10.626282894736843,0.0,0.0
52.0,121.0,0.3,6.041454910714285,10.626282894736843,0.0,0.0
52.0,121.0,0.7,6.041454910714285,10.626282894736843,0.0,0.0
52.0,121.0,1.0,6.041454910714285,10.626282894736843,0.0,0.0
52.0,127.0,0.1,6.3744,11.2111,0.0,0.0
52.0,127.0,0.3,6.3744,11.2111,0.0,0.0
52.0,127.0,0.7,6.3744,11.2111,0.0,0.0
52.0,127.0,1.0,6.3744,11.2111,0.0,0.0
53.0,1.0,0.1,0.6674888888888889,0.21773541666666665,0.0,0.0
53.0,1.0,0.3,0.6674888888888889,0.21773541666666665,0.0,0.0
53.0,1.0,0.7,0.6674888888888889,0.21773541666666665,0.0,0.0
53.0,1.0,1.0,0.6674888888888889,0.21773541666666665,0.0,0.0
53.0,9.0,0.1,0.9586,0.55161875,0.0,0.0
53.0,9.0,0.3,0.9586,0.55161875,0.0,0.0
53.0,9.0,0.7,0.9586,0.55161875,0.0,0.0
53.0,9.0,1.0,0.9586,0.55161875,0.0,0.0
53.0,17.0,0.1,1.1047055555555556,0.8855020833333334,0.0,0.0
53.0,17.0,0.3,1.1047055555555556,0.8855020833333334,0.0,0.0
53.0,17.0,0.7,1.1047055555555556,0.8855020833333334,0.0,0.0
53.0,17.0,1.0,1.1047055555555556,0.8855020833333334,0.0,0.0
53.0,25.0,0.1,1.250811111111111,2.1370875,0.0,0.0
53.0,25.0,0.3,1.250811111111111,2.1370875,0.0,0.0
53.0,25.0,0.7,1.250811111111111,2.1370875,0.0,0.0
53.0,25.0,1.0,1.250811111111111,2.1370875,0.0,0.0
53.0,33.0,0.1,1.4873722826086957,2.6458008333333334,0.0,0.0
53.0,33.0,0.3,1.4873722826086957,2.6458008333333334,0.0,0.0
53.0,33.0,0.7,1.4873722826086957,2.6458008333333334,0.0,0.0
53.0,33.0,1.0,1.4873722826086957,2.6458008333333334,0.0,0.0
53.0,41.0,0.1,1.7540853260869564,3.1736479838709677,0.0,0.0
53.0,41.0,0.3,1.7540853260869564,3.1736479838709677,0.0,0.0
53.0,41.0,0.7,1.7540853260869564,3.1736479838709677,0.0,0.0
53.0,41.0,1.0,1.7540853260869564,3.1736479838709677,0.0,0.0
53.0,49.0,0.1,2.0207983695652176,3.83543185483871,0.0,0.0
53.0,49.0,0.3,2.0207983695652176,3.83543185483871,0.0,0.0
53.0,49.0,0.7,2.0207983695652176,3.83543185483871,0.0,0.0
53.0,49.0,1.0,2.0207983695652176,3.83543185483871,0.0,0.0
53.0,57.0,0.1,2.4400204545454547,4.497215725806452,0.0,0.0
53.0,57.0,0.3,2.4400204545454547,4.497215725806452,0.0,0.0
53.0,57.0,0.7,2.4400204545454547,4.497215725806452,0.0,0.0
53.0,57.0,1.0,2.4400204545454547,4.497215725806452,0.0,0.0
53.0,65.0,0.1,2.8810295454545454,5.158999596774193,0.0,0.0
53.0,65.0,0.3,2.8810295454545454,5.158999596774193,0.0,0.0
53.0,65.0,0.7,2.8810295454545454,5.158999596774193,0.0,0.0
53.0,65.0,1.0,2.8810295454545454,5.158999596774193,0.0,0.0
53.0,73.0,0.1,3.323412272727273,5.853757589285714,0.0,0.0
53.0,73.0,0.3,3.323412272727273,5.853757589285714,0.0,0.0
53.0,73.0,0.7,3.323412272727273,5.853757589285714,0.0,0.0
53.0,73.0,1.0,3.323412272727273,5.853757589285714,0.0,0.0
53.0,81.0,0.1,3.7754104545454545,6.647437946428571,0.0,0.0
53.0,81.0,0.3,3.7754104545454545,6.647437946428571,0.0,0.0
53.0,81.0,0.7,3.7754104545454545,6.647437946428571,0.0,0.0
53.0,81.0,1.0,3.7754104545454545,6.647437946428571,0.0,0.0
53.0,89.0,0.1,4.227408636363636,7.441118303571429,0.0,0.0
53.0,89.0,0.3,4.227408636363636,7.441118303571429,0.0,0.0
53.0,89.0,0.7,4.227408636363636,7.441118303571429,0.0,0.0
53.0,89.0,1.0,4.227408636363636,7.441118303571429,0.0,0.0
53.0,97.0,0.1,4.679406818181818,8.234798660714286,0.0,0.0
53.0,97.0,0.3,4.679406818181818,8.234798660714286,0.0,0.0
53.0,97.0,0.7,4.679406818181818,8.234798660714286,0.0,0.0
53.0,97.0,1.0,4.679406818181818,8.234798660714286,0.0,0.0
53.0,105.0,0.1,5.131405,9.028479017857142,0.0,0.0
53.0,105.0,0.3,5.131405,9.028479017857142,0.0,0.0
53.0,105.0,0.7,5.131405,9.028479017857142,0.0,0.0
53.0,105.0,1.0,5.131405,9.028479017857142,0.0,0.0
53.0,113.0,0.1,5.5834031818181815,9.822159375,0.0,0.0
53.0,113.0,0.3,5.5834031818181815,9.822159375,0.0,0.0
53.0,113.0,0.7,5.5834031818181815,9.822159375,0.0,0.0
53.0,113.0,1.0,5.5834031818181815,9.822159375,0.0,0.0
53.0,121.0,0.1,6.035401363636364,10.615839732142856,0.0,0.0
53.0,121.0,0.3,6.035401363636364,10.615839732142856,0.0,0.0
53.0,121.0,0.7,6.035401363636364,10.615839732142856,0.0,0.0
53.0,121.0,1.0,6.035401363636364,10.615839732142856,0.0,0.0
53.0,127.0,0.1,6.3744,11.2111,0.0,0.0
53.0,127.0,0.3,6.3744,11.2111,0.0,0.0
53.0,127.0,0.7,6.3744,11.2111,0.0,0.0
53.0,127.0,1.0,6.3744,11.2111,0.0,0.0
54.0,1.0,0.1,0.6778857142857143,0.21606599999999998,0.0,0.0
54.0,1.0,0.3,0.6778857142857143,0.21606599999999998,0.0,0.0
54.0,1.0,0.7,0.6778857142857143,0.21606599999999998,0.0,0.0
54.0,1.0,1.0,0.6778857142857143,0.21606599999999998,0.0,0.0
54.0,9.0,0.1,0.9932039473684211,0.536594,0.0,0.0
54.0,9.0,0.3,0.9932039473684211,0.536594,0.0,0.0
54.0,9.0,0.7,0.9932039473684211,0.536594,0.0,0.0
54.0,9.0,1.0,0.9932039473684211,0.536594,0.0,0.0
54.0,17.0,0.1,1.1316197368421053,0.8571219999999999,0.0,0.0
54.0,17.0,0.3,1.1316197368421053,0.8571219999999999,0.0,0.0
54.0,17.0,0.7,1.1316197368421053,0.8571219999999999,0.0,0.0
54.0,17.0,1.0,1.1316197368421053,0.8571219999999999,0.0,0.0
54.0,25.0,0.1,1.2700355263157894,2.1370875,0.0,0.0
54.0,25.0,0.3,1.2700355263157894,2.1370875,0.0,0.0
54.0,25.0,0.7,1.2700355263157894,2.1370875,0.0,0.0
54.0,25.0,1.0,1.2700355263157894,2.1370875,0.0,0.0
54.0,33.0,0.1,1.5207114130434782,2.6458008333333334,0.0,0.0
54.0,33.0,0.3,1.5207114130434782,2.6458008333333334,0.0,0.0
54.0,33.0,0.7,1.5207114130434782,2.6458008333333334,0.0,0.0
54.0,33.0,1.0,1.5207114130434782,2.6458008333333334,0.0,0.0
54.0,41.0,0.1,1.7874244565217392,3.1686344696969697,0.0,0.0
54.0,41.0,0.3,1.7874244565217392,3.1686344696969697,0.0,0.0
54.0,41.0,0.7,1.7874244565217392,3.1686344696969697,0.0,0.0
54.0,41.0,1.0,1.7874244565217392,3.1686344696969697,0.0,0.0
54.0,49.0,0.1,2.0541375,3.790310227272727,0.0,0.0
54.0,49.0,0.3,2.0541375,3.790310227272727,0.0,0.0
54.0,49.0,0.7,2.0541375,3.790310227272727,0.0,0.0
54.0,49.0,1.0,2.0541375,3.790310227272727,0.0,0.0
54.0,57.0,0.1,2.4759722826086956,4.411985984848485,0.0,0.0
54.0,57.0,0.3,2.4759722826086956,4.411985984848485,0.0,0.0
54.0,57.0,0.7,2.4759722826086956,4.411985984848485,0.0,0.0
54.0,57.0,1.0,2.4759722826086956,4.411985984848485,0.0,0.0
54.0,65.0,0.1,2.8978070652173913,5.0336617424242425,0.0,0.0
54.0,65.0,0.3,2.8978070652173913,5.0336617424242425,0.0,0.0
54.0,65.0,0.7,2.8978070652173913,5.0336617424242425,0.0,0.0
54.0,65.0,1.0,2.8978070652173913,5.0336617424242425,0.0,0.0
54.0,73.0,0.1,3.323412272727273,5.6553375,0.0,0.0
54.0,73.0,0.3,3.323412272727273,5.6553375,0.0,0.0
54.0,73.0,0.7,3.323412272727273,5.6553375,0.0,0.0
54.0,73.0,1.0,3.323412272727273,5.6553375,0.0,0.0
54.0,81.0,0.1,3.7754104545454545,6.478413425925925,0.0,0.0
54.0,81.0,0.3,3.7754104545454545,6.478413425925925,0.0,0.0
54.0,81.0,0.7,3.7754104545454545,6.478413425925925,0.0,0.0
54.0,81.0,1.0,3.7754104545454545,6.478413425925925,0.0,0.0
54.0,89.0,0.1,4.227408636363636,7.301489351851852,0.0,0.0
54.0,89.0,0.3,4.227408636363636,7.301489351851852,0.0,0.0
54.0,89.0,0.7,4.227408636363636,7.301489351851852,0.0,0.0
54.0,89.0,1.0,4.227408636363636,7.301489351851852,0.0,0.0
54.0,97.0,0.1,4.679406818181818,8.124565277777778,0.0,0.0
54.0,97.0,0.3,4.679406818181818,8.124565277777778,0.0,0.0
54.0,97.0,0.7,4.679406818181818,8.124565277777778,0.0,0.0
54.0,97.0,1.0,4.679406818181818,8.124565277777778,0.0,0.0
54.0,105.0,0.1,5.131405,8.947641203703704,0.0,0.0
54.0,105.0,0.3,5.131405,8.947641203703704,0.0,0.0
54.0,105.0,0.7,5.131405,8.947641203703704,0.0,0.0
54.0,105.0,1.0,5.131405,8.947641203703704,0.0,0.0
54.0,113.0,0.1,5.5834031818181815,9.77071712962963,0.0,0.0
54.0,113.0,0.3,5.5834031818181815,9.77071712962963,0.0,0.0
54.0,113.0,0.7,5.5834031818181815,9.77071712962963,0.0,0.0
54.0,113.0,1.0,5.5834031818181815,9.77071712962963,0.0,0.0
54.0,121.0,0.1,6.035401363636364,10.593793055555555,0.0,0.0
54.0,121.0,0.3,6.035401363636364,10.593793055555555,0.0,0.0
54.0,121.0,0.7,6.035401363636364,10.593793055555555,0.0,0.0
54.0,121.0,1.0,6.035401363636364,10.593793055555555,0.0,0.0
54.0,127.0,0.1,6.3744,11.2111,0.0,0.0
54.0,127.0,0.3,6.3744,11.2111,0.0,0.0
54.0,127.0,0.7,6.3744,11.2111,0.0,0.0
54.0,127.0,1.0,6.3744,11.2111,0.0,0.0
55.0,1.0,0.1,0.6966,0.21606599999999998,0.0,0.0
55.0,1.0,0.3,0.6966,0.21606599999999998,0.0,0.0
55.0,1.0,0.7,0.6966,0.21606599999999998,0.0,0.0
55.0,1.0,1.0,0.6966,0.21606599999999998,0.0,0.0
55.0,9.0,0.1,1.0243475,0.536594,0.0,0.0
55.0,9.0,0.3,1.0243475,0.536594,0.0,0.0
55.0,9.0,0.7,1.0243475,0.536594,0.0,0.0
55.0,9.0,1.0,1.0243475,0.536594,0.0,0.0
55.0,17.0,0.1,1.1558424999999999,0.8571219999999999,0.0,0.0
55.0,17.0,0.3,1.1558424999999999,0.8571219999999999,0.0,0.0
55.0,17.0,0.7,1.1558424999999999,0.8571219999999999,0.0,0.0
55.0,17.0,1.0,1.1558424999999999,0.8571219999999999,0.0,0.0
55.0,25.0,0.1,1.2873375,2.1370875,0.0,0.0
55.0,25.0,0.3,1.2873375,2.1370875,0.0,0.0
55.0,25.0,0.7,1.2873375,2.1370875,0.0,0.0
55.0,25.0,1.0,1.2873375,2.1370875,0.0,0.0
55.0,33.0,0.1,1.5540505434782608,2.6458008333333334,0.0,0.0
55.0,33.0,0.3,1.5540505434782608,2.6458008333333334,0.0,0.0
55.0,33.0,0.7,1.5540505434782608,2.6458008333333334,0.0,0.0
55.0,33.0,1.0,1.5540505434782608,2.6458008333333334,0.0,0.0
55.0,41.0,0.1,1.8207635869565217,3.1663488970588234,0.0,0.0
55.0,41.0,0.3,1.8207635869565217,3.1663488970588234,0.0,0.0
55.0,41.0,0.7,1.8207635869565217,3.1663488970588234,0.0,0.0
55.0,41.0,1.0,1.8207635869565217,3.1663488970588234,0.0,0.0
55.0,49.0,0.1,2.1026485,3.7697400735294115,0.0,0.0
55.0,49.0,0.3,2.1026485,3.7697400735294115,0.0,0.0
55.0,49.0,0.7,2.1026485,3.7697400735294115,0.0,0.0
55.0,49.0,1.0,2.1026485,3.7697400735294115,0.0,0.0
55.0,57.0,0.1,2.4907365,4.37313125,0.0,0.0
55.0,57.0,0.3,2.4907365,4.37313125,0.0,0.0
55.0,57.0,0.7,2.4907365,4.37313125,0.0,0.0
55.0,57.0,1.0,2.4907365,4.37313125,0.0,0.0
55.0,65.0,0.1,2.8788245,4.976522426470588,0.0,0.0
55.0,65.0,0.3,2.8788245,4.976522426470588,0.0,0.0
55.0,65.0,0.7,2.8788245,4.976522426470588,0.0,0.0
55.0,65.0,1.0,2.8788245,4.976522426470588,0.0,0.0
55.0,73.0,0.1,3.2669125,5.579913602941176,0.0,0.0
55.0,73.0,0.3,3.2669125,5.579913602941176,0.0,0.0
55.0,73.0,0.7,3.2669125,5.579913602941176,0.0,0.0
55.0,73.0,1.0,3.2669125,5.579913602941176,0.0,0.0
55.0,81.0,0.1,3.727281018518519,6.389117452830188,0.0,0.0
55.0,81.0,0.3,3.727281018518519,6.389117452830188,0.0,0.0
55.0,81.0,0.7,3.727281018518519,6.389117452830188,0.0,0.0
55.0,81.0,1.0,3.727281018518519,6.389117452830188,0.0,0.0
55.0,89.0,0.1,4.1876495370370375,7.2277231132075475,0.0,0.0
55.0,89.0,0.3,4.1876495370370375,7.2277231132075475,0.0,0.0
55.0,89.0,0.7,4.1876495370370375,7.2277231132075475,0.0,0.0
55.0,89.0,1.0,4.1876495370370375,7.2277231132075475,0.0,0.0
55.0,97.0,0.1,4.648018055555555,8.066328773584905,0.0,0.0
55.0,97.0,0.3,4.648018055555555,8.066328773584905,0.0,0.0
55.0,97.0,0.7,4.648018055555555,8.066328773584905,0.0,0.0
55.0,97.0,1.0,4.648018055555555,8.066328773584905,0.0,0.0
55.0,105.0,0.1,5.108386574074074,8.904934433962264,0.0,0.0
55.0,105.0,0.3,5.108386574074074,8.904934433962264,0.0,0.0
55.0,105.0,0.7,5.108386574074074,8.904934433962264,0.0,0.0
55.0,105.0,1.0,5.108386574074074,8.904934433962264,0.0,0.0
55.0,113.0,0.1,5.568755092592593,9.743540094339622,0.0,0.0
55.0,113.0,0.3,5.568755092592593,9.743540094339622,0.0,0.0
55.0,113.0,0.7,5.568755092592593,9.743540094339622,0.0,0.0
55.0,113.0,1.0,5.568755092592593,9.743540094339622,0.0,0.0
55.0,121.0,0.1,6.02912361111111,10.582145754716981,0.0,0.0
55.0,121.0,0.3,6.02912361111111,10.582145754716981,0.0,0.0
55.0,121.0,0.7,6.02912361111111,10.582145754716981,0.0,0.0
55.0,121.0,1.0,6.02912361111111,10.582145754716981,0.0,0.0
55.0,127.0,0.1,6.3744,11.2111,0.0,0.0
55.0,127.0,0.3,6.3744,11.2111,0.0,0.0
55.0,127.0,0.7,6.3744,11.2111,0.0,0.0
55.0,127.0,1.0,6.3744,11.2111,0.0,0.0
56.0,1.0,0.1,0.7402666666666666,0.214525,0.0,0.0
56.0,1.0,0.3,0.7402666666666666,0.214525,0.0,0.0
56.0,1.0,0.7,0.7402666666666666,0.214525,0.0,0.0
56.0,1.0,1.0,0.7402666666666666,0.214525,0.0,0.0
56.0,9.0,0.1,1.052525,0.5227249999999999,0.0,0.0
56.0,9.0,0.3,1.052525,0.5227249999999999,0.0,0.0
56.0,9.0,0.7,1.052525,0.5227249999999999,0.0,0.0
56.0,9.0,1.0,1.052525,0.5227249999999999,0.0,0.0
56.0,17.0,0.1,1.1777583333333332,0.8309249999999999,0.0,0.0
56.0,17.0,0.3,1.1777583333333332,0.8309249999999999,0.0,0.0
56.0,17.0,0.7,1.1777583333333332,0.8309249999999999,0.0,0.0
56.0,17.0,1.0,1.1777583333333332,0.8309249999999999,0.0,0.0
56.0,25.0,0.1,1.3192875,1.139125,0.0,0.0
56.0,25.0,0.3,1.3192875,1.139125,0.0,0.0
56.0,25.0,0.7,1.3192875,1.139125,0.0,0.0
56.0,25.0,1.0,1.3192875,1.139125,0.0,0.0
56.0,33.0,0.1,1.5748875,2.6821374999999996,0.0,0.0
56.0,33.0,0.3,1.5748875,2.6821374999999996,0.0,0.0
56.0,33.0,0.7,1.5748875,2.6821374999999996,0.0,0.0
56.0,33.0,1.0,1.5748875,2.6821374999999996,0.0,0.0
56.0,41.0,0.1,1.8304875,3.2295418918918917,0.0,0.0
56.0,41.0,0.3,1.8304875,3.2295418918918917,0.0,0.0
56.0,41.0,0.7,1.8304875,3.2295418918918917,0.0,0.0
56.0,41.0,1.0,1.8304875,3.2295418918918917,0.0,0.0
56.0,49.0,0.1,2.100782692307692,3.784009459459459,0.0,0.0
56.0,49.0,0.3,2.100782692307692,3.784009459459459,0.0,0.0
56.0,49.0,0.7,2.100782692307692,3.784009459459459,0.0,0.0
56.0,49.0,1.0,2.100782692307692,3.784009459459459,0.0,0.0
56.0,57.0,0.1,2.4739442307692308,4.338477027027027,0.0,0.0
56.0,57.0,0.3,2.4739442307692308,4.338477027027027,0.0,0.0
56.0,57.0,0.7,2.4739442307692308,4.338477027027027,0.0,0.0
56.0,57.0,1.0,2.4739442307692308,4.338477027027027,0.0,0.0
56.0,65.0,0.1,2.8471057692307693,4.892944594594594,0.0,0.0
56.0,65.0,0.3,2.8471057692307693,4.892944594594594,0.0,0.0
56.0,65.0,0.7,2.8471057692307693,4.892944594594594,0.0,0.0
56.0,65.0,1.0,2.8471057692307693,4.892944594594594,0.0,0.0
56.0,73.0,0.1,3.220267307692308,5.447412162162162,0.0,0.0
56.0,73.0,0.3,3.220267307692308,5.447412162162162,0.0,0.0
56.0,73.0,0.7,3.220267307692308,5.447412162162162,0.0,0.0
56.0,73.0,1.0,3.220267307692308,5.447412162162162,0.0,0.0
56.0,81.0,0.1,3.6773353773584905,6.200020098039215,0.0,0.0
56.0,81.0,0.3,3.6773353773584905,6.200020098039215,0.0,0.0
56.0,81.0,0.7,3.6773353773584905,6.200020098039215,0.0,0.0
56.0,81.0,1.0,3.6773353773584905,6.200020098039215,0.0,0.0
56.0,89.0,0.1,4.146390094339623,7.071512254901961,0.0,0.0
56.0,89.0,0.3,4.146390094339623,7.071512254901961,0.0,0.0
56.0,89.0,0.7,4.146390094339623,7.071512254901961,0.0,0.0
56.0,89.0,1.0,4.146390094339623,7.071512254901961,0.0,0.0
56.0,97.0,0.1,4.615444811320755,7.943004411764706,0.0,0.0
56.0,97.0,0.3,4.615444811320755,7.943004411764706,0.0,0.0
56.0,97.0,0.7,4.615444811320755,7.943004411764706,0.0,0.0
56.0,97.0,1.0,4.615444811320755,7.943004411764706,0.0,0.0
56.0,105.0,0.1,5.084499528301887,8.814496568627451,0.0,0.0
56.0,105.0,0.3,5.084499528301887,8.814496568627451,0.0,0.0
56.0,105.0,0.7,5.084499528301887,8.814496568627451,0.0,0.0
56.0,105.0,1.0,5.084499528301887,8.814496568627451,0.0,0.0
56.0,113.0,0.1,5.553554245283019,9.685988725490196,0.0,0.0
56.0,113.0,0.3,5.553554245283019,9.685988725490196,0.0,0.0
56.0,113.0,0.7,5.553554245283019,9.685988725490196,0.0,0.0
56.0,113.0,1.0,5.553554245283019,9.685988725490196,0.0,0.0
56.0,121.0,0.1,6.022608962264151,10.557480882352941,0.0,0.0
56.0,121.0,0.3,6.022608962264151,10.557480882352941,0.0,0.0
56.0,121.0,0.7,6.022608962264151,10.557480882352941,0.0,0.0
56.0,121.0,1.0,6.022608962264151,10.557480882352941,0.0,0.0
56.0,127.0,0.1,6.3744,11.2111,0.0,0.0
56.0,127.0,0.3,6.3744,11.2111,0.0,0.0
56.0,127.0,0.7,6.3744,11.2111,0.0,0.0
56.0,127.0,1.0,6.3744,11.2111,0.0,0.0
57.0,1.0,0.1,0.9586,0.214525,0.0,0.0
57.0,1.0,0.3,0.9586,0.214525,0.0,0.0
57.0,1.0,0.7,0.9586,0.214525,0.0,0.0
57.0,1.0,1.0,0.9586,0.214525,0.0,0.0
57.0,9.0,0.1,1.078140909090909,0.5227249999999999,0.0,0.0
57.0,9.0,0.3,1.078140909090909,0.5227249999999999,0.0,0.0
57.0,9.0,0.7,1.078140909090909,0.5227249999999999,0.0,0.0
57.0,9.0,1.0,1.078140909090909,0.5227249999999999,0.0,0.0
57.0,17.0,0.1,1.1976818181818183,0.8309249999999999,0.0,0.0
57.0,17.0,0.3,1.1976818181818183,0.8309249999999999,0.0,0.0
57.0,17.0,0.7,1.1976818181818183,0.8309249999999999,0.0,0.0
57.0,17.0,1.0,1.1976818181818183,0.8309249999999999,0.0,0.0
57.0,25.0,0.1,1.3512375,1.139125,0.0,0.0
57.0,25.0,0.3,1.3512375,1.139125,0.0,0.0
57.0,25.0,0.7,1.3512375,1.139125,0.0,0.0
57.0,25.0,1.0,1.3512375,1.139125,0.0,0.0
57.0,33.0,0.1,1.6068375000000001,2.6821374999999996,0.0,0.0
57.0,33.0,0.3,1.6068375000000001,2.6821374999999996,0.0,0.0
57.0,33.0,0.7,1.6068375000000001,2.6821374999999996,0.0,0.0
57.0,33.0,1.0,1.6068375000000001,2.6821374999999996,0.0,0.0
57.0,41.0,0.1,1.8624375,3.2258940789473685,0.0,0.0
57.0,41.0,0.3,1.8624375,3.2258940789473685,0.0,0.0
57.0,41.0,0.7,1.8624375,3.2258940789473685,0.0,0.0
57.0,41.0,1.0,1.8624375,3.2258940789473685,0.0,0.0
57.0,49.0,0.1,2.140764285714286,3.765770394736842,0.0,0.0
57.0,49.0,0.3,2.140764285714286,3.765770394736842,0.0,0.0
57.0,49.0,0.7,2.140764285714286,3.765770394736842,0.0,0.0
57.0,49.0,1.0,2.140764285714286,3.765770394736842,0.0,0.0
57.0,57.0,0.1,2.487271428571429,4.305646710526316,0.0,0.0
57.0,57.0,0.3,2.487271428571429,4.305646710526316,0.0,0.0
57.0,57.0,0.7,2.487271428571429,4.305646710526316,0.0,0.0
57.0,57.0,1.0,2.487271428571429,4.305646710526316,0.0,0.0
57.0,65.0,0.1,2.8337785714285717,4.84552302631579,0.0,0.0
57.0,65.0,0.3,2.8337785714285717,4.84552302631579,0.0,0.0
57.0,65.0,0.7,2.8337785714285717,4.84552302631579,0.0,0.0
57.0,65.0,1.0,2.8337785714285717,4.84552302631579,0.0,0.0
57.0,73.0,0.1,3.1802857142857146,5.385399342105263,0.0,0.0
57.0,73.0,0.3,3.1802857142857146,5.385399342105263,0.0,0.0
57.0,73.0,0.7,3.1802857142857146,5.385399342105263,0.0,0.0
57.0,73.0,1.0,3.1802857142857146,5.385399342105263,0.0,0.0
57.0,81.0,0.1,3.62546875,6.0997985,0.0,0.0
57.0,81.0,0.3,3.62546875,6.0997985,0.0,0.0
57.0,81.0,0.7,3.62546875,6.0997985,0.0,0.0
57.0,81.0,1.0,3.62546875,6.0997985,0.0,0.0
57.0,89.0,0.1,4.10354375,6.9887204999999994,0.0,0.0
57.0,89.0,0.3,4.10354375,6.9887204999999994,0.0,0.0
57.0,89.0,0.7,4.10354375,6.9887204999999994,0.0,0.0
57.0,89.0,1.0,4.10354375,6.9887204999999994,0.0,0.0
57.0,97.0,0.1,4.58161875,7.8776425,0.0,0.0
57.0,97.0,0.3,4.58161875,7.8776425,0.0,0.0
57.0,97.0,0.7,4.58161875,7.8776425,0.0,0.0
57.0,97.0,1.0,4.58161875,7.8776425,0.0,0.0
57.0,105.0,0.1,5.05969375,8.7665645,0.0,0.0
57.0,105.0,0.3,5.05969375,8.7665645,0.0,0.0
57.0,105.0,0.7,5.05969375,8.7665645,0.0,0.0
57.0,105.0,1.0,5.05969375,8.7665645,0.0,0.0
57.0,113.0,0.1,5.53776875,9.6554865,0.0,0.0
57.0,113.0,0.3,5.53776875,9.6554865,0.0,0.0
57.0,113.0,0.7,5.53776875,9.6554865,0.0,0.0
57.0,113.0,1.0,5.53776875,9.6554865,0.0,0.0
57.0,121.0,0.1,6.01584375,10.5444085,0.0,0.0
57.0,121.0,0.3,6.01584375,10.5444085,0.0,0.0
57.0,121.0,0.7,6.01584375,10.5444085,0.0,0.0
57.0,121.0,1.0,6.01584375,10.5444085,0.0,0.0
57.0,127.0,0.1,6.3744,11.2111,0.0,0.0
57.0,127.0,0.3,6.3744,11.2111,0.0,0.0
57.0,127.0,0.7,6.3744,11.2111,0.0,0.0
57.0,127.0,1.0,6.3744,11.2111,0.0,0.0
58.0,1.0,0.1,0.712975,0.214525,0.0,0.0
58.0,1.0,0.3,0.712975,0.214525,0.0,0.0
58.0,1.0,0.7,0.712975,0.214525,0.0,0.0
58.0,1.0,1.0,0.712975,0.214525,0.0,0.0
58.0,9.0,0.1,1.0368708333333334,0.5227249999999999,0.0,0.0
58.0,9.0,0.3,1.0368708333333334,0.5227249999999999,0.0,0.0
58.0,9.0,0.7,1.0368708333333334,0.5227249999999999,0.0,0.0
58.0,9.0,1.0,1.0368708333333334,0.5227249999999999,0.0,0.0
58.0,17.0,0.1,1.1621041666666667,0.8309249999999999,0.0,0.0
58.0,17.0,0.3,1.1621041666666667,0.8309249999999999,0.0,0.0
58.0,17.0,0.7,1.1621041666666667,0.8309249999999999,0.0,0.0
58.0,17.0,1.0,1.1621041666666667,0.8309249999999999,0.0,0.0
58.0,25.0,0.1,1.2873375,1.139125,0.0,0.0
58.0,25.0,0.3,1.2873375,1.139125,0.0,0.0
58.0,25.0,0.7,1.2873375,1.139125,0.0,0.0
58.0,25.0,1.0,1.2873375,1.139125,0.0,0.0
58.0,33.0,0.1,1.5540505434782608,2.5822116666666663,0.0,0.0
58.0,33.0,0.3,1.5540505434782608,2.5822116666666663,0.0,0.0
58.0,33.0,0.7,1.5540505434782608,2.5822116666666663,0.0,0.0
58.0,33.0,1.0,1.5540505434782608,2.5822116666666663,0.0,0.0
58.0,41.0,0.1,1.8207635869565217,3.090925,0.0,0.0
58.0,41.0,0.3,1.8207635869565217,3.090925,0.0,0.0
58.0,41.0,0.7,1.8207635869565217,3.090925,0.0,0.0
58.0,41.0,1.0,1.8207635869565217,3.090925,0.0,0.0
58.0,49.0,0.1,2.0990550925925926,3.6607944444444445,0.0,0.0
58.0,49.0,0.3,2.0990550925925926,3.6607944444444445,0.0,0.0
58.0,49.0,0.7,2.0990550925925926,3.6607944444444445,0.0,0.0
58.0,49.0,1.0,2.0990550925925926,3.6607944444444445,0.0,0.0
58.0,57.0,0.1,2.4583958333333333,4.230663888888889,0.0,0.0
58.0,57.0,0.3,2.4583958333333333,4.230663888888889,0.0,0.0
58.0,57.0,0.7,2.4583958333333333,4.230663888888889,0.0,0.0
58.0,57.0,1.0,2.4583958333333333,4.230663888888889,0.0,0.0
58.0,65.0,0.1,2.817736574074074,4.800533333333333,0.0,0.0
58.0,65.0,0.3,2.817736574074074,4.800533333333333,0.0,0.0
58.0,65.0,0.7,2.817736574074074,4.800533333333333,0.0,0.0
58.0,65.0,1.0,2.817736574074074,4.800533333333333,0.0,0.0
58.0,73.0,0.1,3.177077314814815,5.370402777777778,0.0,0.0
58.0,73.0,0.3,3.177077314814815,5.370402777777778,0.0,0.0
58.0,73.0,0.7,3.177077314814815,5.370402777777778,0.0,0.0
58.0,73.0,1.0,3.177077314814815,5.370402777777778,0.0,0.0
58.0,81.0,0.1,3.62546875,6.0997985,0.0,0.0
58.0,81.0,0.3,3.62546875,6.0997985,0.0,0.0
58.0,81.0,0.7,3.62546875,6.0997985,0.0,0.0
58.0,81.0,1.0,3.62546875,6.0997985,0.0,0.0
58.0,89.0,0.1,4.10354375,6.9887204999999994,0.0,0.0
58.0,89.0,0.3,4.10354375,6.9887204999999994,0.0,0.0
58.0,89.0,0.7,4.10354375,6.9887204999999994,0.0,0.0
58.0,89.0,1.0,4.10354375,6.9887204999999994,0.0,0.0
58.0,97.0,0.1,4.58161875,7.8776425,0.0,0.0
58.0,97.0,0.3,4.58161875,7.8776425,0.0,0.0
58.0,97.0,0.7,4.58161875,7.8776425,0.0,0.0
58.0,97.0,1.0,4.58161875,7.8776425,0.0,0.0
58.0,105.0,0.1,5.05969375,8.7665645,0.0,0.0
58.0,105.0,0.3,5.05969375,8.7665645,0.0,0.0
58.0,105.0,0.7,5.05969375,8.7665645,0.0,0.0
58.0,105.0,1.0,5.05969375,8.7665645,0.0,0.0
58.0,113.0,0.1,5.53776875,9.6554865,0.0,0.0
58.0,113.0,0.3,5.53776875,9.6554865,0.0,0.0
58.0,113.0,0.7,5.53776875,9.6554865,0.0,0.0
58.0,113.0,1.0,5.53776875,9.6554865,0.0,0.0
58.0,121.0,0.1,6.01584375,10.5444085,0.0,0.0
58.0,121.0,0.3,6.01584375,10.5444085,0.0,0.0
58.0,121.0,0.7,6.01584375,10.5444085,0.0,0.0
58.0,121.0,1.0,6.01584375,10.5444085,0.0,0.0
58.0,127.0,0.1,6.3744,11.2111,0.0,0.0
58.0,127.0,0.3,6.3744,11.2111,0.0,0.0
58.0,127.0,0.7,6.3744,11.2111,0.0,0.0
58.0,127.0,1.0,6.3744,11.2111,0.0,0.0
59.0,1.0,0.1,0.6856833333333333,0.214525,0.0,0.0
59.0,1.0,0.3,0.6856833333333333,0.214525,0.0,0.0
59.0,1.0,0.7,0.6856833333333333,0.214525,0.0,0.0
59.0,1.0,1.0,0.6856833333333333,0.214525,0.0,0.0
59.0,9.0,0.1,1.007910625,0.5227249999999999,0.0,0.0
59.0,9.0,0.3,1.007910625,0.5227249999999999,0.0,0.0
59.0,9.0,0.7,1.007910625,0.5227249999999999,0.0,0.0
59.0,9.0,1.0,1.007910625,0.5227249999999999,0.0,0.0
59.0,17.0,0.1,1.139405625,0.8309249999999999,0.0,0.0
59.0,17.0,0.3,1.139405625,0.8309249999999999,0.0,0.0
59.0,17.0,0.7,1.139405625,0.8309249999999999,0.0,0.0
59.0,17.0,1.0,1.139405625,0.8309249999999999,0.0,0.0
59.0,25.0,0.1,1.270900625,1.139125,0.0,0.0
59.0,25.0,0.3,1.270900625,1.139125,0.0,0.0
59.0,25.0,0.7,1.270900625,1.139125,0.0,0.0
59.0,25.0,1.0,1.270900625,1.139125,0.0,0.0
59.0,33.0,0.1,1.5207114130434782,2.4777437499999997,0.0,0.0
59.0,33.0,0.3,1.5207114130434782,2.4777437499999997,0.0,0.0
59.0,33.0,0.7,1.5207114130434782,2.4777437499999997,0.0,0.0
59.0,33.0,1.0,1.5207114130434782,2.4777437499999997,0.0,0.0
59.0,41.0,0.1,1.7874244565217392,3.02279375,0.0,0.0
59.0,41.0,0.3,1.7874244565217392,3.02279375,0.0,0.0
59.0,41.0,0.7,1.7874244565217392,3.02279375,0.0,0.0
59.0,41.0,1.0,1.7874244565217392,3.02279375,0.0,0.0
59.0,49.0,0.1,2.0541375,3.5895607638888887,0.0,0.0
59.0,49.0,0.3,2.0541375,3.5895607638888887,0.0,0.0
59.0,49.0,0.7,2.0541375,3.5895607638888887,0.0,0.0
59.0,49.0,1.0,2.0541375,3.5895607638888887,0.0,0.0
59.0,57.0,0.1,2.4134782407407407,4.159430208333333,0.0,0.0
59.0,57.0,0.3,2.4134782407407407,4.159430208333333,0.0,0.0
59.0,57.0,0.7,2.4134782407407407,4.159430208333333,0.0,0.0
59.0,57.0,1.0,2.4134782407407407,4.159430208333333,0.0,0.0
59.0,65.0,0.1,2.7728189814814814,4.729299652777778,0.0,0.0
59.0,65.0,0.3,2.7728189814814814,4.729299652777778,0.0,0.0
59.0,65.0,0.7,2.7728189814814814,4.729299652777778,0.0,0.0
59.0,65.0,1.0,2.7728189814814814,4.729299652777778,0.0,0.0
59.0,73.0,0.1,3.132159722222222,5.299169097222222,0.0,0.0
59.0,73.0,0.3,3.132159722222222,5.299169097222222,0.0,0.0
59.0,73.0,0.7,3.132159722222222,5.299169097222222,0.0,0.0
59.0,73.0,1.0,3.132159722222222,5.299169097222222,0.0,0.0
59.0,81.0,0.1,3.571568137254902,5.995486224489796,0.0,0.0
59.0,81.0,0.3,3.571568137254902,5.995486224489796,0.0,0.0
59.0,81.0,0.7,3.571568137254902,5.995486224489796,0.0,0.0
59.0,81.0,1.0,3.571568137254902,5.995486224489796,0.0,0.0
59.0,89.0,0.1,4.059017156862745,6.902549489795918,0.0,0.0
59.0,89.0,0.3,4.059017156862745,6.902549489795918,0.0,0.0
59.0,89.0,0.7,4.059017156862745,6.902549489795918,0.0,0.0
59.0,89.0,1.0,4.059017156862745,6.902549489795918,0.0,0.0
59.0,97.0,0.1,4.546466176470588,7.809612755102041,0.0,0.0
59.0,97.0,0.3,4.546466176470588,7.809612755102041,0.0,0.0
59.0,97.0,0.7,4.546466176470588,7.809612755102041,0.0,0.0
59.0,97.0,1.0,4.546466176470588,7.809612755102041,0.0,0.0
59.0,105.0,0.1,5.033915196078431,8.716676020408164,0.0,0.0
59.0,105.0,0.3,5.033915196078431,8.716676020408164,0.0,0.0
59.0,105.0,0.7,5.033915196078431,8.716676020408164,0.0,0.0
59.0,105.0,1.0,5.033915196078431,8.716676020408164,0.0,0.0
59.0,113.0,0.1,5.521364215686274,9.623739285714286,0.0,0.0
59.0,113.0,0.3,5.521364215686274,9.623739285714286,0.0,0.0
59.0,113.0,0.7,5.521364215686274,9.623739285714286,0.0,0.0
59.0,113.0,1.0,5.521364215686274,9.623739285714286,0.0,0.0
59.0,121.0,0.1,6.008813235294117,10.530802551020408,0.0,0.0
59.0,121.0,0.3,6.008813235294117,10.530802551020408,0.0,0.0
59.0,121.0,0.7,6.008813235294117,10.530802551020408,0.0,0.0
59.0,121.0,1.0,6.008813235294117,10.530802551020408,0.0,0.0
59.0,127.0,0.1,6.3744,11.2111,0.0,0.0
59.0,127.0,0.3,6.3744,11.2111,0.0,0.0
59.0,127.0,0.7,6.3744,11.2111,0.0,0.0
59.0,127.0,1.0,6.3744,11.2111,0.0,0.0
60.0,1.0,0.1,0.6674888888888889,0.21309814814814815,0.0,0.0
60.0,1.0,0.3,0.6674888888888889,0.21309814814814815,0.0,0.0
60.0,1.0,0.7,0.6674888888888889,0.21309814814814815,0.0,0.0
60.0,1.0,1.0,0.6674888888888889,0.21309814814814815,0.0,0.0
60.0,9.0,0.1,0.9586,0.5098833333333332,0.0,0.0
60.0,9.0,0.3,0.9586,0.5098833333333332,0.0,0.0
60.0,9.0,0.7,0.9586,0.5098833333333332,0.0,0.0
60.0,9.0,1.0,0.9586,0.5098833333333332,0.0,0.0
60.0,17.0,0.1,1.0970157894736843,0.8066685185185185,0.0,0.0
60.0,17.0,0.3,1.0970157894736843,0.8066685185185185,0.0,0.0
60.0,17.0,0.7,1.0970157894736843,0.8066685185185185,0.0,0.0
60.0,17.0,1.0,1.0970157894736843,0.8066685185185185,0.0,0.0
60.0,25.0,0.1,1.2354315789473684,1.1034537037037035,0.0,0.0
60.0,25.0,0.3,1.2354315789473684,1.1034537037037035,0.0,0.0
60.0,25.0,0.7,1.2354315789473684,1.1034537037037035,0.0,0.0
60.0,25.0,1.0,1.2354315789473684,1.1034537037037035,0.0,0.0
60.0,33.0,0.1,1.4616102272727272,2.3914441666666666,0.0,0.0
60.0,33.0,0.3,1.4616102272727272,2.3914441666666666,0.0,0.0
60.0,33.0,0.7,1.4616102272727272,2.3914441666666666,0.0,0.0
60.0,33.0,1.0,1.4616102272727272,2.3914441666666666,0.0,0.0
60.0,41.0,0.1,1.740446590909091,2.9001574999999997,0.0,0.0
60.0,41.0,0.3,1.740446590909091,2.9001574999999997,0.0,0.0
60.0,41.0,0.7,1.740446590909091,2.9001574999999997,0.0,0.0
60.0,41.0,1.0,1.740446590909091,2.9001574999999997,0.0,0.0
60.0,49.0,0.1,2.0192829545454547,3.4680444852941177,0.0,0.0
60.0,49.0,0.3,2.0192829545454547,3.4680444852941177,0.0,0.0
60.0,49.0,0.7,2.0192829545454547,3.4680444852941177,0.0,0.0
60.0,49.0,1.0,2.0192829545454547,3.4680444852941177,0.0,0.0
60.0,57.0,0.1,2.3806538461538462,4.071435661764706,0.0,0.0
60.0,57.0,0.3,2.3806538461538462,4.071435661764706,0.0,0.0
60.0,57.0,0.7,2.3806538461538462,4.071435661764706,0.0,0.0
60.0,57.0,1.0,2.3806538461538462,4.071435661764706,0.0,0.0
60.0,65.0,0.1,2.7538153846153848,4.674826838235294,0.0,0.0
60.0,65.0,0.3,2.7538153846153848,4.674826838235294,0.0,0.0
60.0,65.0,0.7,2.7538153846153848,4.674826838235294,0.0,0.0
60.0,65.0,1.0,2.7538153846153848,4.674826838235294,0.0,0.0
60.0,73.0,0.1,3.1269769230769233,5.278218014705883,0.0,0.0
60.0,73.0,0.3,3.1269769230769233,5.278218014705883,0.0,0.0
60.0,73.0,0.7,3.1269769230769233,5.278218014705883,0.0,0.0
60.0,73.0,1.0,3.1269769230769233,5.278218014705883,0.0,0.0
60.0,81.0,0.1,3.571568137254902,5.995486224489796,0.0,0.0
60.0,81.0,0.3,3.571568137254902,5.995486224489796,0.0,0.0
60.0,81.0,0.7,3.571568137254902,5.995486224489796,0.0,0.0
60.0,81.0,1.0,3.571568137254902,5.995486224489796,0.0,0.0
60.0,89.0,0.1,4.059017156862745,6.902549489795918,0.0,0.0
60.0,89.0,0.3,4.059017156862745,6.902549489795918,0.0,0.0
60.0,89.0,0.7,4.059017156862745,6.902549489795918,0.0,0.0
60.0,89.0,1.0,4.059017156862745,6.902549489795918,0.0,0.0
60.0,97.0,0.1,4.546466176470588,7.809612755102041,0.0,0.0
60.0,97.0,0.3,4.546466176470588,7.809612755102041,0.0,0.0
60.0,97.0,0.7,4.546466176470588,7.809612755102041,0.0,0.0
60.0,97.0,1.0,4.546466176470588,7.809612755102041,0.0,0.0
60.0,105.0,0.1,5.033915196078431,8.716676020408164,0.0,0.0
60.0,105.0,0.3,5.033915196078431,8.716676020408164,0.0,0.0
60.0,105.0,0.7,5.033915196078431,8.716676020408164,0.0,0.0
60.0,105.0,1.0,5.033915196078431,8.716676020408164,0.0,0.0
60.0,113.0,0.1,5.521364215686274,9.623739285714286,0.0,0.0
60.0,113.0,0.3,5.521364215686274,9.623739285714286,0.0,0.0
60.0,113.0,0.7,5.521364215686274,9.623739285714286,0.0,0.0
60.0,113.0,1.0,5.521364215686274,9.623739285714286,0.0,0.0
60.0,121.0,0.1,6.008813235294117,10.530802551020408,0.0,0.0
60.0,121.0,0.3,6.008813235294117,10.530802551020408,0.0,0.0
60.0,121.0,0.7,6.008813235294117,10.530802551020408,0.0,0.0
60.0,121.0,1.0,6.008813235294117,10.530802551020408,0.0,0.0
60.0,127.0,0.1,6.3744,11.2111,0.0,0.0
60.0,127.0,0.3,6.3744,11.2111,0.0,0.0
60.0,127.0,0.7,6.3744,11.2111,0.0,0.0
60.0,127.0,1.0,6.3744,11.2111,0.0,0.0
61.0,1.0,0.1,0.6583916666666667,0.21309814814814815,0.0,0.0
61.0,1.0,0.3,0.6583916666666667,0.21309814814814815,0.0,0.0
61.0,1.0,0.7,0.6583916666666667,0.21309814814814815,0.0,0.0
61.0,1.0,1.0,0.6583916666666667,0.21309814814814815,0.0,0.0
61.0,9.0,0.1,0.876725,0.5098833333333332,0.0,0.0
61.0,9.0,0.3,0.876725,0.5098833333333332,0.0,0.0
61.0,9.0,0.7,0.876725,0.5098833333333332,0.0,0.0
61.0,9.0,1.0,0.876725,0.5098833333333332,0.0,0.0
61.0,17.0,0.1,1.0499159722222222,0.8066685185185185,0.0,0.0
61.0,17.0,0.3,1.0499159722222222,0.8066685185185185,0.0,0.0
61.0,17.0,0.7,1.0499159722222222,0.8066685185185185,0.0,0.0
61.0,17.0,1.0,1.0499159722222222,0.8066685185185185,0.0,0.0
61.0,25.0,0.1,1.196021527777778,1.1034537037037035,0.0,0.0
61.0,25.0,0.3,1.196021527777778,1.1034537037037035,0.0,0.0
61.0,25.0,0.7,1.196021527777778,1.1034537037037035,0.0,0.0
61.0,25.0,1.0,1.196021527777778,1.1034537037037035,0.0,0.0
61.0,33.0,0.1,1.3968803571428572,2.264265833333333,0.0,0.0
61.0,33.0,0.3,1.3968803571428572,2.264265833333333,0.0,0.0
61.0,33.0,0.7,1.3968803571428572,2.264265833333333,0.0,0.0
61.0,33.0,1.0,1.3968803571428572,2.264265833333333,0.0,0.0
61.0,41.0,0.1,1.6889946428571427,2.7729791666666666,0.0,0.0
61.0,41.0,0.3,1.6889946428571427,2.7729791666666666,0.0,0.0
61.0,41.0,0.7,1.6889946428571427,2.7729791666666666,0.0,0.0
61.0,41.0,1.0,1.6889946428571427,2.7729791666666666,0.0,0.0
61.0,49.0,0.1,1.9811089285714285,3.3313386718749998,0.0,0.0
61.0,49.0,0.3,1.9811089285714285,3.3313386718749998,0.0,0.0
61.0,49.0,0.7,1.9811089285714285,3.3313386718749998,0.0,0.0
61.0,49.0,1.0,1.9811089285714285,3.3313386718749998,0.0,0.0
61.0,57.0,0.1,2.3452035,3.9724417968749997,0.0,0.0
61.0,57.0,0.3,2.3452035,3.9724417968749997,0.0,0.0
61.0,57.0,0.7,2.3452035,3.9724417968749997,0.0,0.0
61.0,57.0,1.0,2.3452035,3.9724417968749997,0.0,0.0
61.0,65.0,0.1,2.7332915,4.613544921875,0.0,0.0
61.0,65.0,0.3,2.7332915,4.613544921875,0.0,0.0
61.0,65.0,0.7,2.7332915,4.613544921875,0.0,0.0
61.0,65.0,1.0,2.7332915,4.613544921875,0.0,0.0
61.0,73.0,0.1,3.1213794999999998,5.254648046874999,0.0,0.0
61.0,73.0,0.3,3.1213794999999998,5.254648046874999,0.0,0.0
61.0,73.0,0.7,3.1213794999999998,5.254648046874999,0.0,0.0
61.0,73.0,1.0,3.1213794999999998,5.254648046874999,0.0,0.0
61.0,81.0,0.1,3.571568137254902,5.995486224489796,0.0,0.0
61.0,81.0,0.3,3.571568137254902,5.995486224489796,0.0,0.0
61.0,81.0,0.7,3.571568137254902,5.995486224489796,0.0,0.0
61.0,81.0,1.0,3.571568137254902,5.995486224489796,0.0,0.0
61.0,89.0,0.1,4.059017156862745,6.902549489795918,0.0,0.0
61.0,89.0,0.3,4.059017156862745,6.902549489795918,0.0,0.0
61.0,89.0,0.7,4.059017156862745,6.902549489795918,0.0,0.0
61.0,89.0,1.0,4.059017156862745,6.902549489795918,0.0,0.0
61.0,97.0,0.1,4.546466176470588,7.809612755102041,0.0,0.0
61.0,97.0,0.3,4.546466176470588,7.809612755102041,0.0,0.0
61.0,97.0,0.7,4.546466176470588,7.809612755102041,0.0,0.0
61.0,97.0,1.0,4.546466176470588,7.809612755102041,0.0,0.0
61.0,105.0,0.1,5.033915196078431,8.716676020408164,0.0,0.0
61.0,105.0,0.3,5.033915196078431,8.716676020408164,0.0,0.0
61.0,105.0,0.7,5.033915196078431,8.716676020408164,0.0,0.0
61.0,105.0,1.0,5.033915196078431,8.716676020408164,0.0,0.0
61.0,113.0,0.1,5.521364215686274,9.623739285714286,0.0,0.0
61.0,113.0,0.3,5.521364215686274,9.623739285714286,0.0,0.0
61.0,113.0,0.7,5.521364215686274,9.623739285714286,0.0,0.0
61.0,113.0,1.0,5.521364215686274,9.623739285714286,0.0,0.0
61.0,121.0,0.1,6.008813235294117,10.530802551020408,0.0,0.0
61.0,121.0,0.3,6.008813235294117,10.530802551020408,0.0,0.0
61.0,121.0,0.7,6.008813235294117,10.530802551020408,0.0,0.0
61.0,121.0,1.0,6.008813235294117,10.530802551020408,0.0,0.0
61.0,127.0,0.1,6.3744,11.2111,0.0,0.0
61.0,127.0,0.3,6.3744,11.2111,0.0,0.0
61.0,127.0,0.7,6.3744,11.2111,0.0,0.0
61.0,127.0,1.0,6.3744,11.2111,0.0,0.0
62.0,1.0,0.1,0.6544928571428571,0.21309814814814815,0.0,0.0
62.0,1.0,0.3,0.6544928571428571,0.21309814814814815,0.0,0.0
62.0,1.0,0.7,0.6544928571428571,0.21309814814814815,0.0,0.0
62.0,1.0,1.0,0.6544928571428571,0.21309814814814815,0.0,0.0
62.0,9.0,0.1,0.8416357142857143,0.5098833333333332,0.0,0.0
62.0,9.0,0.3,0.8416357142857143,0.5098833333333332,0.0,0.0
62.0,9.0,0.7,0.8416357142857143,0.5098833333333332,0.0,0.0
62.0,9.0,1.0,0.8416357142857143,0.5098833333333332,0.0,0.0
62.0,17.0,0.1,1.0133895833333333,0.8066685185185185,0.0,0.0
62.0,17.0,0.3,1.0133895833333333,0.8066685185185185,0.0,0.0
62.0,17.0,0.7,1.0133895833333333,0.8066685185185185,0.0,0.0
62.0,17.0,1.0,1.0133895833333333,0.8066685185185185,0.0,0.0
62.0,25.0,0.1,1.159495138888889,1.1034537037037035,0.0,0.0
62.0,25.0,0.3,1.159495138888889,1.1034537037037035,0.0,0.0
62.0,25.0,0.7,1.159495138888889,1.1034537037037035,0.0,0.0
62.0,25.0,1.0,1.159495138888889,1.1034537037037035,0.0,0.0
62.0,33.0,0.1,1.3256775,2.2006766666666664,0.0,0.0
62.0,33.0,0.3,1.3256775,2.2006766666666664,0.0,0.0
62.0,33.0,0.7,1.3256775,2.2006766666666664,0.0,0.0
62.0,33.0,1.0,1.3256775,2.2006766666666664,0.0,0.0
62.0,41.0,0.1,1.6323975,2.70939,0.0,0.0
62.0,41.0,0.3,1.6323975,2.70939,0.0,0.0
62.0,41.0,0.7,1.6323975,2.70939,0.0,0.0
62.0,41.0,1.0,1.6323975,2.70939,0.0,0.0
62.0,49.0,0.1,1.9391175,3.2563709677419355,0.0,0.0
62.0,49.0,0.3,1.9391175,3.2563709677419355,0.0,0.0
62.0,49.0,0.7,1.9391175,3.2563709677419355,0.0,0.0
62.0,49.0,1.0,1.9391175,3.2563709677419355,0.0,0.0
62.0,57.0,0.1,2.2966925,3.918154838709677,0.0,0.0
62.0,57.0,0.3,2.2966925,3.918154838709677,0.0,0.0
62.0,57.0,0.7,2.2966925,3.918154838709677,0.0,0.0
62.0,57.0,1.0,2.2966925,3.918154838709677,0.0,0.0
62.0,65.0,0.1,2.6847805,4.579938709677419,0.0,0.0
62.0,65.0,0.3,2.6847805,4.579938709677419,0.0,0.0
62.0,65.0,0.7,2.6847805,4.579938709677419,0.0,0.0
62.0,65.0,1.0,2.6847805,4.579938709677419,0.0,0.0
62.0,73.0,0.1,3.0728685000000002,5.2417225806451615,0.0,0.0
62.0,73.0,0.3,3.0728685000000002,5.2417225806451615,0.0,0.0
62.0,73.0,0.7,3.0728685000000002,5.2417225806451615,0.0,0.0
62.0,73.0,1.0,3.0728685000000002,5.2417225806451615,0.0,0.0
62.0,81.0,0.1,3.5155115,5.995486224489796,0.0,0.0
62.0,81.0,0.3,3.5155115,5.995486224489796,0.0,0.0
62.0,81.0,0.7,3.5155115,5.995486224489796,0.0,0.0
62.0,81.0,1.0,3.5155115,5.995486224489796,0.0,0.0
62.0,89.0,0.1,4.0127095,6.902549489795918,0.0,0.0
62.0,89.0,0.3,4.0127095,6.902549489795918,0.0,0.0
62.0,89.0,0.7,4.0127095,6.902549489795918,0.0,0.0
62.0,89.0,1.0,4.0127095,6.902549489795918,0.0,0.0
62.0,97.0,0.1,4.5099075,7.809612755102041,0.0,0.0
62.0,97.0,0.3,4.5099075,7.809612755102041,0.0,0.0
62.0,97.0,0.7,4.5099075,7.809612755102041,0.0,0.0
62.0,97.0,1.0,4.5099075,7.809612755102041,0.0,0.0
62.0,105.0,0.1,5.0071055,8.716676020408164,0.0,0.0
62.0,105.0,0.3,5.0071055,8.716676020408164,0.0,0.0
62.0,105.0,0.7,5.0071055,8.716676020408164,0.0,0.0
62.0,105.0,1.0,5.0071055,8.716676020408164,0.0,0.0
62.0,113.0,0.1,5.5043035,9.623739285714286,0.0,0.0
62.0,113.0,0.3,5.5043035,9.623739285714286,0.0,0.0
62.0,113.0,0.7,5.5043035,9.623739285714286,0.0,0.0
62.0,113.0,1.0,5.5043035,9.623739285714286,0.0,0.0
62.0,121.0,0.1,6.0015015,10.530802551020408,0.0,0.0
62.0,121.0,0.3,6.0015015,10.530802551020408,0.0,0.0
62.0,121.0,0.7,6.0015015,10.530802551020408,0.0,0.0
62.0,121.0,1.0,6.0015015,10.530802551020408,0.0,0.0
62.0,127.0,0.1,6.3744,11.2111,0.0,0.0
62.0,127.0,0.3,6.3744,11.2111,0.0,0.0
62.0,127.0,0.7,6.3744,11.2111,0.0,0.0
62.0,127.0,1.0,6.3744,11.2111,0.0,0.0
63.0,1.0,0.1,0.650364705882353,0.21177321428571427,0.0,0.0
63.0,1.0,0.3,0.650364705882353,0.21177321428571427,0.0,0.0
63.0,1.0,0.7,0.650364705882353,0.21177321428571427,0.0,0.0
63.0,1.0,1.0,0.650364705882353,0.21177321428571427,0.0,0.0
63.0,9.0,0.1,0.8044823529411764,0.49795892857142854,0.0,0.0
63.0,9.0,0.3,0.8044823529411764,0.49795892857142854,0.0,0.0
63.0,9.0,0.7,0.8044823529411764,0.49795892857142854,0.0,0.0
63.0,9.0,1.0,0.8044823529411764,0.49795892857142854,0.0,0.0
63.0,17.0,0.1,0.9586,0.7841446428571428,0.0,0.0
63.0,17.0,0.3,0.9586,0.7841446428571428,0.0,0.0
63.0,17.0,0.7,0.9586,0.7841446428571428,0.0,0.0
63.0,17.0,1.0,0.9586,0.7841446428571428,0.0,0.0
63.0,25.0,0.1,1.1133,1.070330357142857,0.0,0.0
63.0,25.0,0.3,1.1133,1.070330357142857,0.0,0.0
63.0,25.0,0.7,1.1133,1.070330357142857,0.0,0.0
63.0,25.0,1.0,1.1133,1.070330357142857,0.0,0.0
63.0,33.0,0.1,1.268,1.97718125,0.0,0.0
63.0,33.0,0.3,1.268,1.97718125,0.0,0.0
63.0,33.0,0.7,1.268,1.97718125,0.0,0.0
63.0,33.0,1.0,1.268,1.97718125,0.0,0.0
63.0,41.0,0.1,1.5698427631578946,2.5822116666666663,0.0,0.0
63.0,41.0,0.3,1.5698427631578946,2.5822116666666663,0.0,0.0
63.0,41.0,0.7,1.5698427631578946,2.5822116666666663,0.0,0.0
63.0,41.0,1.0,1.5698427631578946,2.5822116666666663,0.0,0.0
63.0,49.0,0.1,1.8927059210526314,3.090925,0.0,0.0
63.0,49.0,0.3,1.8927059210526314,3.090925,0.0,0.0
63.0,49.0,0.7,1.8927059210526314,3.090925,0.0,0.0
63.0,49.0,1.0,1.8927059210526314,3.090925,0.0,0.0
63.0,57.0,0.1,2.256266666666667,3.7983491379310346,0.0,0.0
63.0,57.0,0.3,2.256266666666667,3.7983491379310346,0.0,0.0
63.0,57.0,0.7,2.256266666666667,3.7983491379310346,0.0,0.0
63.0,57.0,1.0,2.256266666666667,3.7983491379310346,0.0,0.0
63.0,65.0,0.1,2.660525,4.505773275862069,0.0,0.0
63.0,65.0,0.3,2.660525,4.505773275862069,0.0,0.0
63.0,65.0,0.7,2.660525,4.505773275862069,0.0,0.0
63.0,65.0,1.0,2.660525,4.505773275862069,0.0,0.0
63.0,73.0,0.1,3.0647833333333336,5.213197413793104,0.0,0.0
63.0,73.0,0.3,3.0647833333333336,5.213197413793104,0.0,0.0
63.0,73.0,0.7,3.0647833333333336,5.213197413793104,0.0,0.0
63.0,73.0,1.0,3.0647833333333336,5.213197413793104,0.0,0.0
63.0,81.0,0.1,3.5155115,5.995486224489796,0.0,0.0
63.0,81.0,0.3,3.5155115,5.995486224489796,0.0,0.0
63.0,81.0,0.7,3.5155115,5.995486224489796,0.0,0.0
63.0,81.0,1.0,3.5155115,5.995486224489796,0.0,0.0
63.0,89.0,0.1,4.0127095,6.902549489795918,0.0,0.0
63.0,89.0,0.3,4.0127095,6.902549489795918,0.0,0.0
63.0,89.0,0.7,4.0127095,6.902549489795918,0.0,0.0
63.0,89.0,1.0,4.0127095,6.902549489795918,0.0,0.0
63.0,97.0,0.1,4.5099075,7.809612755102041,0.0,0.0
63.0,97.0,0.3,4.5099075,7.809612755102041,0.0,0.0
63.0,97.0,0.7,4.5099075,7.809612755102041,0.0,0.0
63.0,97.0,1.0,4.5099075,7.809612755102041,0.0,0.0
63.0,105.0,0.1,5.0071055,8.716676020408164,0.0,0.0
63.0,105.0,0.3,5.0071055,8.716676020408164,0.0,0.0
63.0,105.0,0.7,5.0071055,8.716676020408164,0.0,0.0
63.0,105.0,1.0,5.0071055,8.716676020408164,0.0,0.0
63.0,113.0,0.1,5.5043035,9.623739285714286,0.0,0.0
63.0,113.0,0.3,5.5043035,9.623739285714286,0.0,0.0
63.0,113.0,0.7,5.5043035,9.623739285714286,0.0,0.0
63.0,113.0,1.0,5.5043035,9.623739285714286,0.0,0.0
63.0,121.0,0.1,6.0015015,10.530802551020408,0.0,0.0
63.0,121.0,0.3,6.0015015,10.530802551020408,0.0,0.0
63.0,121.0,0.7,6.0015015,10.530802551020408,0.0,0.0
63.0,121.0,1.0,6.0015015,10.530802551020408,0.0,0.0
63.0,127.0,0.1,6.3744,11.2111,0.0,0.0
63.0,127.0,0.3,6.3744,11.2111,0.0,0.0
63.0,127.0,0.7,6.3744,11.2111,0.0,0.0
63.0,127.0,1.0,6.3744,11.2111,0.0,0.0
64.0,1.0,0.1,0.647475,0.21177321428571427,0.0,0.0
64.0,1.0,0.3,0.647475,0.21177321428571427,0.0,0.0
64.0,1.0,0.7,0.647475,0.21177321428571427,0.0,0.0
64.0,1.0,1.0,0.647475,0.21177321428571427,0.0,0.0
64.0,9.0,0.1,0.778475,0.49795892857142854,0.0,0.0
64.0,9.0,0.3,0.778475,0.49795892857142854,0.0,0.0
64.0,9.0,0.7,0.778475,0.49795892857142854,0.0,0.0
64.0,9.0,1.0,0.778475,0.49795892857142854,0.0,0.0
64.0,17.0,0.1,0.909475,0.7841446428571428,0.0,0.0
64.0,17.0,0.3,0.909475,0.7841446428571428,0.0,0.0
64.0,17.0,0.7,0.909475,0.7841446428571428,0.0,0.0
64.0,17.0,1.0,0.909475,0.7841446428571428,0.0,0.0
64.0,25.0,0.1,1.0681791666666667,1.070330357142857,0.0,0.0
64.0,25.0,0.3,1.0681791666666667,1.070330357142857,0.0,0.0
64.0,25.0,0.7,1.0681791666666667,1.070330357142857,0.0,0.0
64.0,25.0,1.0,1.0681791666666667,1.070330357142857,0.0,0.0
64.0,33.0,0.1,1.2435058333333333,1.8629624999999999,0.0,0.0
64.0,33.0,0.3,1.2435058333333333,1.8629624999999999,0.0,0.0
64.0,33.0,0.7,1.2435058333333333,1.8629624999999999,0.0,0.0
64.0,33.0,1.0,1.2435058333333333,1.8629624999999999,0.0,0.0
64.0,41.0,0.1,1.5294848684210527,2.4947765625,0.0,0.0
64.0,41.0,0.3,1.5294848684210527,2.4947765625,0.0,0.0
64.0,41.0,0.7,1.5294848684210527,2.4947765625,0.0,0.0
64.0,41.0,1.0,1.5294848684210527,2.4947765625,0.0,0.0
64.0,49.0,0.1,1.8523480263157894,2.9716953124999996,0.0,0.0
64.0,49.0,0.3,1.8523480263157894,2.9716953124999996,0.0,0.0
64.0,49.0,0.7,1.8523480263157894,2.9716953124999996,0.0,0.0
64.0,49.0,1.0,1.8523480263157894,2.9716953124999996,0.0,0.0
64.0,57.0,0.1,2.212325543478261,3.6404419642857144,0.0,0.0
64.0,57.0,0.3,2.212325543478261,3.6404419642857144,0.0,0.0
64.0,57.0,0.7,2.212325543478261,3.6404419642857144,0.0,0.0
64.0,57.0,1.0,2.212325543478261,3.6404419642857144,0.0,0.0
64.0,65.0,0.1,2.6341603260869566,4.37313125,0.0,0.0
64.0,65.0,0.3,2.6341603260869566,4.37313125,0.0,0.0
64.0,65.0,0.7,2.6341603260869566,4.37313125,0.0,0.0
64.0,65.0,1.0,2.6341603260869566,4.37313125,0.0,0.0
64.0,73.0,0.1,3.0559951086956523,5.105820535714285,0.0,0.0
64.0,73.0,0.3,3.0559951086956523,5.105820535714285,0.0,0.0
64.0,73.0,0.7,3.0559951086956523,5.105820535714285,0.0,0.0
64.0,73.0,1.0,3.0559951086956523,5.105820535714285,0.0,0.0
64.0,81.0,0.1,3.5155115,5.886827604166666,0.0,0.0
64.0,81.0,0.3,3.5155115,5.886827604166666,0.0,0.0
64.0,81.0,0.7,3.5155115,5.886827604166666,0.0,0.0
64.0,81.0,1.0,3.5155115,5.886827604166666,0.0,0.0
64.0,89.0,0.1,4.0127095,6.812788020833334,0.0,0.0
64.0,89.0,0.3,4.0127095,6.812788020833334,0.0,0.0
64.0,89.0,0.7,4.0127095,6.812788020833334,0.0,0.0
64.0,89.0,1.0,4.0127095,6.812788020833334,0.0,0.0
64.0,97.0,0.1,4.5099075,7.7387484375,0.0,0.0
64.0,97.0,0.3,4.5099075,7.7387484375,0.0,0.0
64.0,97.0,0.7,4.5099075,7.7387484375,0.0,0.0
64.0,97.0,1.0,4.5099075,7.7387484375,0.0,0.0
64.0,105.0,0.1,5.0071055,8.664708854166667,0.0,0.0
64.0,105.0,0.3,5.0071055,8.664708854166667,0.0,0.0
64.0,105.0,0.7,5.0071055,8.664708854166667,0.0,0.0
64.0,105.0,1.0,5.0071055,8.664708854166667,0.0,0.0
64.0,113.0,0.1,5.5043035,9.590669270833335,0.0,0.0
64.0,113.0,0.3,5.5043035,9.590669270833335,0.0,0.0
64.0,113.0,0.7,5.5043035,9.590669270833335,0.0,0.0
64.0,113.0,1.0,5.5043035,9.590669270833335,0.0,0.0
64.0,121.0,0.1,6.0015015,10.5166296875,0.0,0.0
64.0,121.0,0.3,6.0015015,10.5166296875,0.0,0.0
64.0,121.0,0.7,6.0015015,10.5166296875,0.0,0.0
64.0,121.0,1.0,6.0015015,10.5166296875,0.0,0.0
64.0,127.0,0.1,6.3744,11.2111,0.0,0.0
64.0,127.0,0.3,6.3744,11.2111,0.0,0.0
64.0,127.0,0.7,6.3744,11.2111,0.0,0.0
64.0,127.0,1.0,6.3744,11.2111,0.0,0.0
65.0,1.0,0.1,0.6459863636363636,0.21177321428571427,0.0,0.0
65.0,1.0,0.3,0.6459863636363636,0.21177321428571427,0.0,0.0
65.0,1.0,0.7,0.6459863636363636,0.21177321428571427,0.0,0.0
65.0,1.0,1.0,0.6459863636363636,0.21177321428571427,0.0,0.0
65.0,9.0,0.1,0.7650772727272728,0.49795892857142854,0.0,0.0
65.0,9.0,0.3,0.7650772727272728,0.49795892857142854,0.0,0.0
65.0,9.0,0.7,0.7650772727272728,0.49795892857142854,0.0,0.0
65.0,9.0,1.0,0.7650772727272728,0.49795892857142854,0.0,0.0
65.0,17.0,0.1,0.8841681818181818,0.7841446428571428,0.0,0.0
65.0,17.0,0.3,0.8841681818181818,0.7841446428571428,0.0,0.0
65.0,17.0,0.7,0.8841681818181818,0.7841446428571428,0.0,0.0
65.0,17.0,1.0,0.8841681818181818,0.7841446428571428,0.0,0.0
65.0,25.0,0.1,1.0243475,1.070330357142857,0.0,0.0
65.0,25.0,0.3,1.0243475,1.070330357142857,0.0,0.0
65.0,25.0,0.7,1.0243475,1.070330357142857,0.0,0.0
65.0,25.0,1.0,1.0243475,1.070330357142857,0.0,0.0
65.0,33.0,0.1,1.1996741666666666,1.7772984374999998,0.0,0.0
65.0,33.0,0.3,1.1996741666666666,1.7772984374999998,0.0,0.0
65.0,33.0,0.7,1.1996741666666666,1.7772984374999998,0.0,0.0
65.0,33.0,1.0,1.1996741666666666,1.7772984374999998,0.0,0.0
65.0,41.0,0.1,1.4577375,2.43516171875,0.0,0.0
65.0,41.0,0.3,1.4577375,2.43516171875,0.0,0.0
65.0,41.0,0.7,1.4577375,2.43516171875,0.0,0.0
65.0,41.0,1.0,1.4577375,2.43516171875,0.0,0.0
65.0,49.0,0.1,1.7985375000000001,2.91208046875,0.0,0.0
65.0,49.0,0.3,1.7985375000000001,2.91208046875,0.0,0.0
65.0,49.0,0.7,1.7985375000000001,2.91208046875,0.0,0.0
65.0,49.0,1.0,1.7985375000000001,2.91208046875,0.0,0.0
65.0,57.0,0.1,2.159596195652174,3.5658162037037036,0.0,0.0
65.0,57.0,0.3,2.159596195652174,3.5658162037037036,0.0,0.0
65.0,57.0,0.7,2.159596195652174,3.5658162037037036,0.0,0.0
65.0,57.0,1.0,2.159596195652174,3.5658162037037036,0.0,0.0
65.0,65.0,0.1,2.5814309782608698,4.32564212962963,0.0,0.0
65.0,65.0,0.3,2.5814309782608698,4.32564212962963,0.0,0.0
65.0,65.0,0.7,2.5814309782608698,4.32564212962963,0.0,0.0
65.0,65.0,1.0,2.5814309782608698,4.32564212962963,0.0,0.0
65.0,73.0,0.1,3.0032657608695654,5.085468055555555,0.0,0.0
65.0,73.0,0.3,3.0032657608695654,5.085468055555555,0.0,0.0
65.0,73.0,0.7,3.0032657608695654,5.085468055555555,0.0,0.0
65.0,73.0,1.0,3.0032657608695654,5.085468055555555,0.0,0.0
65.0,81.0,0.1,3.457166836734694,5.886827604166666,0.0,0.0
65.0,81.0,0.3,3.457166836734694,5.886827604166666,0.0,0.0
65.0,81.0,0.7,3.457166836734694,5.886827604166666,0.0,0.0
65.0,81.0,1.0,3.457166836734694,5.886827604166666,0.0,0.0
65.0,89.0,0.1,3.9645117346938776,6.812788020833334,0.0,0.0
65.0,89.0,0.3,3.9645117346938776,6.812788020833334,0.0,0.0
65.0,89.0,0.7,3.9645117346938776,6.812788020833334,0.0,0.0
65.0,89.0,1.0,3.9645117346938776,6.812788020833334,0.0,0.0
65.0,97.0,0.1,4.471856632653061,7.7387484375,0.0,0.0
65.0,97.0,0.3,4.471856632653061,7.7387484375,0.0,0.0
65.0,97.0,0.7,4.471856632653061,7.7387484375,0.0,0.0
65.0,97.0,1.0,4.471856632653061,7.7387484375,0.0,0.0
65.0,105.0,0.1,4.979201530612245,8.664708854166667,0.0,0.0
65.0,105.0,0.3,4.979201530612245,8.664708854166667,0.0,0.0
65.0,105.0,0.7,4.979201530612245,8.664708854166667,0.0,0.0
65.0,105.0,1.0,4.979201530612245,8.664708854166667,0.0,0.0
65.0,113.0,0.1,5.486546428571428,9.590669270833335,0.0,0.0
65.0,113.0,0.3,5.486546428571428,9.590669270833335,0.0,0.0
65.0,113.0,0.7,5.486546428571428,9.590669270833335,0.0,0.0
65.0,113.0,1.0,5.486546428571428,9.590669270833335,0.0,0.0
65.0,121.0,0.1,5.993891326530612,10.5166296875,0.0,0.0
65.0,121.0,0.3,5.993891326530612,10.5166296875,0.0,0.0
65.0,121.0,0.7,5.993891326530612,10.5166296875,0.0,0.0
65.0,121.0,1.0,5.993891326530612,10.5166296875,0.0,0.0
65.0,127.0,0.1,6.3744,11.2111,0.0,0.0
65.0,127.0,0.3,6.3744,11.2111,0.0,0.0
65.0,127.0,0.7,6.3744,11.2111,0.0,0.0
65.0,127.0,1.0,6.3744,11.2111,0.0,0.0
66.0,1.0,0.1,0.6442,0.21177321428571427,0.0,0.0
66.0,1.0,0.3,0.6442,0.21177321428571427,0.0,0.0
66.0,1.0,0.7,0.6442,0.21177321428571427,0.0,0.0
66.0,1.0,1.0,0.6442,0.21177321428571427,0.0,0.0
66.0,9.0,0.1,0.749,0.49795892857142854,0.0,0.0
66.0,9.0,0.3,0.749,0.49795892857142854,0.0,0.0
66.0,9.0,0.7,0.749,0.49795892857142854,0.0,0.0
66.0,9.0,1.0,0.749,0.49795892857142854,0.0,0.0
66.0,17.0,0.1,0.8538,0.7841446428571428,0.0,0.0
66.0,17.0,0.3,0.8538,0.7841446428571428,0.0,0.0
66.0,17.0,0.7,0.8538,0.7841446428571428,0.0,0.0
66.0,17.0,1.0,0.8538,0.7841446428571428,0.0,0.0
66.0,25.0,0.1,0.9586,1.070330357142857,0.0,0.0
66.0,25.0,0.3,0.9586,1.070330357142857,0.0,0.0
66.0,25.0,0.7,0.9586,1.070330357142857,0.0,0.0
66.0,25.0,1.0,0.9586,1.070330357142857,0.0,0.0
66.0,33.0,0.1,1.14645,1.6573687499999998,0.0,0.0
66.0,33.0,0.3,1.14645,1.6573687499999998,0.0,0.0
66.0,33.0,0.7,1.14645,1.6573687499999998,0.0,0.0
66.0,33.0,1.0,1.14645,1.6573687499999998,0.0,0.0
66.0,41.0,0.1,1.3775492647058825,2.31593203125,0.0,0.0
66.0,41.0,0.3,1.3775492647058825,2.31593203125,0.0,0.0
66.0,41.0,0.7,1.3775492647058825,2.31593203125,0.0,0.0
66.0,41.0,1.0,1.3775492647058825,2.31593203125,0.0,0.0
66.0,49.0,0.1,1.7383963235294118,2.79285078125,0.0,0.0
66.0,49.0,0.3,1.7383963235294118,2.79285078125,0.0,0.0
66.0,49.0,0.7,1.7383963235294118,2.79285078125,0.0,0.0
66.0,49.0,1.0,1.7383963235294118,2.79285078125,0.0,0.0
66.0,57.0,0.1,2.1092636363636363,3.3986545,0.0,0.0
66.0,57.0,0.3,2.1092636363636363,3.3986545,0.0,0.0
66.0,57.0,0.7,2.1092636363636363,3.3986545,0.0,0.0
66.0,57.0,1.0,2.1092636363636363,3.3986545,0.0,0.0
66.0,65.0,0.1,2.5502727272727275,4.2192665,0.0,0.0
66.0,65.0,0.3,2.5502727272727275,4.2192665,0.0,0.0
66.0,65.0,0.7,2.5502727272727275,4.2192665,0.0,0.0
66.0,65.0,1.0,2.5502727272727275,4.2192665,0.0,0.0
66.0,73.0,0.1,2.991281818181818,5.0398785,0.0,0.0
66.0,73.0,0.3,2.991281818181818,5.0398785,0.0,0.0
66.0,73.0,0.7,2.991281818181818,5.0398785,0.0,0.0
66.0,73.0,1.0,2.991281818181818,5.0398785,0.0,0.0
66.0,81.0,0.1,3.457166836734694,5.886827604166666,0.0,0.0
66.0,81.0,0.3,3.457166836734694,5.886827604166666,0.0,0.0
66.0,81.0,0.7,3.457166836734694,5.886827604166666,0.0,0.0
66.0,81.0,1.0,3.457166836734694,5.886827604166666,0.0,0.0
66.0,89.0,0.1,3.9645117346938776,6.812788020833334,0.0,0.0
66.0,89.0,0.3,3.9645117346938776,6.812788020833334,0.0,0.0
66.0,89.0,0.7,3.9645117346938776,6.812788020833334,0.0,0.0
66.0,89.0,1.0,3.9645117346938776,6.812788020833334,0.0,0.0
66.0,97.0,0.1,4.471856632653061,7.7387484375,0.0,0.0
66.0,97.0,0.3,4.471856632653061,7.7387484375,0.0,0.0
66.0,97.0,0.7,4.471856632653061,7.7387484375,0.0,0.0
66.0,97.0,1.0,4.471856632653061,7.7387484375,0.0,0.0
66.0,105.0,0.1,4.979201530612245,8.664708854166667,0.0,0.0
66.0,105.0,0.3,4.979201530612245,8.664708854166667,0.0,0.0
66.0,105.0,0.7,4.979201530612245,8.664708854166667,0.0,0.0
66.0,105.0,1.0,4.979201530612245,8.664708854166667,0.0,0.0
66.0,113.0,0.1,5.486546428571428,9.590669270833335,0.0,0.0
66.0,113.0,0.3,5.486546428571428,9.590669270833335,0.0,0.0
66.0,113.0,0.7,5.486546428571428,9.590669270833335,0.0,0.0
66.0,113.0,1.0,5.486546428571428,9.590669270833335,0.0,0.0
66.0,121.0,0.1,5.993891326530612,10.5166296875,0.0,0.0
66.0,121.0,0.3,5.993891326530612,10.5166296875,0.0,0.0
66.0,121.0,0.7,5.993891326530612,10.5166296875,0.0,0.0
66.0,121.0,1.0,5.993891326530612,10.5166296875,0.0,0.0
66.0,127.0,0.1,6.3744,11.2111,0.0,0.0
66.0,127.0,0.3,6.3744,11.2111,0.0,0.0
66.0,127.0,0.7,6.3744,11.2111,0.0,0.0
66.0,127.0,1.0,6.3744,11.2111,0.0,0.0
67.0,1.0,0.1,0.6427964285714286,0.21177321428571427,0.0,0.0
67.0,1.0,0.3,0.6427964285714286,0.21177321428571427,0.0,0.0
67.0,1.0,0.7,0.6427964285714286,0.21177321428571427,0.0,0.0
67.0,1.0,1.0,0.6427964285714286,0.21177321428571427,0.0,0.0
67.0,9.0,0.1,0.7363678571428571,0.49795892857142854,0.0,0.0
67.0,9.0,0.3,0.7363678571428571,0.49795892857142854,0.0,0.0
67.0,9.0,0.7,0.7363678571428571,0.49795892857142854,0.0,0.0
67.0,9.0,1.0,0.7363678571428571,0.49795892857142854,0.0,0.0
67.0,17.0,0.1,0.8299392857142858,0.7841446428571428,0.0,0.0
67.0,17.0,0.3,0.8299392857142858,0.7841446428571428,0.0,0.0
67.0,17.0,0.7,0.8299392857142858,0.7841446428571428,0.0,0.0
67.0,17.0,1.0,0.8299392857142858,0.7841446428571428,0.0,0.0
67.0,25.0,0.1,0.9235107142857143,1.070330357142857,0.0,0.0
67.0,25.0,0.3,0.9235107142857143,1.070330357142857,0.0,0.0
67.0,25.0,0.7,0.9235107142857143,1.070330357142857,0.0,0.0
67.0,25.0,1.0,0.9235107142857143,1.070330357142857,0.0,0.0
67.0,33.0,0.1,1.0955739583333333,1.6137579545454543,0.0,0.0
67.0,33.0,0.3,1.0955739583333333,1.6137579545454543,0.0,0.0
67.0,33.0,0.7,1.0955739583333333,1.6137579545454543,0.0,0.0
67.0,33.0,1.0,1.0955739583333333,1.6137579545454543,0.0,0.0
67.0,41.0,0.1,1.3324433823529411,2.2493036764705883,0.0,0.0
67.0,41.0,0.3,1.3324433823529411,2.2493036764705883,0.0,0.0
67.0,41.0,0.7,1.3324433823529411,2.2493036764705883,0.0,0.0
67.0,41.0,1.0,1.3324433823529411,2.2493036764705883,0.0,0.0
67.0,49.0,0.1,1.6932904411764707,2.698168382352941,0.0,0.0
67.0,49.0,0.3,1.6932904411764707,2.698168382352941,0.0,0.0
67.0,49.0,0.7,1.6932904411764707,2.698168382352941,0.0,0.0
67.0,49.0,1.0,1.6932904411764707,2.698168382352941,0.0,0.0
67.0,57.0,0.1,2.0541375,3.1977755208333334,0.0,0.0
67.0,57.0,0.3,2.0541375,3.1977755208333334,0.0,0.0
67.0,57.0,0.7,2.0541375,3.1977755208333334,0.0,0.0
67.0,57.0,1.0,2.0541375,3.1977755208333334,0.0,0.0
67.0,65.0,0.1,2.516147023809524,4.0525796875,0.0,0.0
67.0,65.0,0.3,2.516147023809524,4.0525796875,0.0,0.0
67.0,65.0,0.7,2.516147023809524,4.0525796875,0.0,0.0
67.0,65.0,1.0,2.516147023809524,4.0525796875,0.0,0.0
67.0,73.0,0.1,2.9781565476190477,4.907383854166667,0.0,0.0
67.0,73.0,0.3,2.9781565476190477,4.907383854166667,0.0,0.0
67.0,73.0,0.7,2.9781565476190477,4.907383854166667,0.0,0.0
67.0,73.0,1.0,2.9781565476190477,4.907383854166667,0.0,0.0
67.0,81.0,0.1,3.457166836734694,5.773545212765957,0.0,0.0
67.0,81.0,0.3,3.457166836734694,5.773545212765957,0.0,0.0
67.0,81.0,0.7,3.457166836734694,5.773545212765957,0.0,0.0
67.0,81.0,1.0,3.457166836734694,5.773545212765957,0.0,0.0
67.0,89.0,0.1,3.9645117346938776,6.719206914893617,0.0,0.0
67.0,89.0,0.3,3.9645117346938776,6.719206914893617,0.0,0.0
67.0,89.0,0.7,3.9645117346938776,6.719206914893617,0.0,0.0
67.0,89.0,1.0,3.9645117346938776,6.719206914893617,0.0,0.0
67.0,97.0,0.1,4.471856632653061,7.664868617021277,0.0,0.0
67.0,97.0,0.3,4.471856632653061,7.664868617021277,0.0,0.0
67.0,97.0,0.7,4.471856632653061,7.664868617021277,0.0,0.0
67.0,97.0,1.0,4.471856632653061,7.664868617021277,0.0,0.0
67.0,105.0,0.1,4.979201530612245,8.610530319148936,0.0,0.0
67.0,105.0,0.3,4.979201530612245,8.610530319148936,0.0,0.0
67.0,105.0,0.7,4.979201530612245,8.610530319148936,0.0,0.0
67.0,105.0,1.0,4.979201530612245,8.610530319148936,0.0,0.0
67.0,113.0,0.1,5.486546428571428,9.556192021276596,0.0,0.0
67.0,113.0,0.3,5.486546428571428,9.556192021276596,0.0,0.0
67.0,113.0,0.7,5.486546428571428,9.556192021276596,0.0,0.0
67.0,113.0,1.0,5.486546428571428,9.556192021276596,0.0,0.0
67.0,121.0,0.1,5.993891326530612,10.501853723404256,0.0,0.0
67.0,121.0,0.3,5.993891326530612,10.501853723404256,0.0,0.0
67.0,121.0,0.7,5.993891326530612,10.501853723404256,0.0,0.0
67.0,121.0,1.0,5.993891326530612,10.501853723404256,0.0,0.0
67.0,127.0,0.1,6.3744,11.2111,0.0,0.0
67.0,127.0,0.3,6.3744,11.2111,0.0,0.0
67.0,127.0,0.7,6.3744,11.2111,0.0,0.0
67.0,127.0,1.0,6.3744,11.2111,0.0,0.0
68.0,1.0,0.1,0.6420166666666667,0.2105396551724138,0.0,0.0
68.0,1.0,0.3,0.6420166666666667,0.2105396551724138,0.0,0.0
68.0,1.0,0.7,0.6420166666666667,0.2105396551724138,0.0,0.0
68.0,1.0,1.0,0.6420166666666667,0.2105396551724138,0.0,0.0
68.0,9.0,0.1,0.7293499999999999,0.48685689655172415,0.0,0.0
68.0,9.0,0.3,0.7293499999999999,0.48685689655172415,0.0,0.0
68.0,9.0,0.7,0.7293499999999999,0.48685689655172415,0.0,0.0
68.0,9.0,1.0,0.7293499999999999,0.48685689655172415,0.0,0.0
68.0,17.0,0.1,0.8166833333333333,0.7631741379310344,0.0,0.0
68.0,17.0,0.3,0.8166833333333333,0.7631741379310344,0.0,0.0
68.0,17.0,0.7,0.8166833333333333,0.7631741379310344,0.0,0.0
68.0,17.0,1.0,0.8166833333333333,0.7631741379310344,0.0,0.0
68.0,25.0,0.1,0.9040166666666667,1.0394913793103449,0.0,0.0
68.0,25.0,0.3,0.9040166666666667,1.0394913793103449,0.0,0.0
68.0,25.0,0.7,0.9040166666666667,1.0394913793103449,0.0,0.0
68.0,25.0,1.0,0.9040166666666667,1.0394913793103449,0.0,0.0
68.0,33.0,0.1,1.040784375,1.4974625,0.0,0.0
68.0,33.0,0.3,1.040784375,1.4974625,0.0,0.0
68.0,33.0,0.7,1.040784375,1.4974625,0.0,0.0
68.0,33.0,1.0,1.040784375,1.4974625,0.0,0.0
68.0,41.0,0.1,1.2599427083333334,2.1370875,0.0,0.0
68.0,41.0,0.3,1.2599427083333334,2.1370875,0.0,0.0
68.0,41.0,0.7,1.2599427083333334,2.1370875,0.0,0.0
68.0,41.0,1.0,1.2599427083333334,2.1370875,0.0,0.0
68.0,49.0,0.1,1.6228125,2.61400625,0.0,0.0
68.0,49.0,0.3,1.6228125,2.61400625,0.0,0.0
68.0,49.0,0.7,1.6228125,2.61400625,0.0,0.0
68.0,49.0,1.0,1.6228125,2.61400625,0.0,0.0
68.0,57.0,0.1,2.0062125,3.090925,0.0,0.0
68.0,57.0,0.3,2.0062125,3.090925,0.0,0.0
68.0,57.0,0.7,2.0062125,3.090925,0.0,0.0
68.0,57.0,1.0,2.0062125,3.090925,0.0,0.0
68.0,65.0,0.1,2.4583958333333333,3.982894565217391,0.0,0.0
68.0,65.0,0.3,2.4583958333333333,3.982894565217391,0.0,0.0
68.0,65.0,0.7,2.4583958333333333,3.982894565217391,0.0,0.0
68.0,65.0,1.0,2.4583958333333333,3.982894565217391,0.0,0.0
68.0,73.0,0.1,2.920405357142857,4.874864130434783,0.0,0.0
68.0,73.0,0.3,2.920405357142857,4.874864130434783,0.0,0.0
68.0,73.0,0.7,2.920405357142857,4.874864130434783,0.0,0.0
68.0,73.0,1.0,2.920405357142857,4.874864130434783,0.0,0.0
68.0,81.0,0.1,3.3963911458333333,5.773545212765957,0.0,0.0
68.0,81.0,0.3,3.3963911458333333,5.773545212765957,0.0,0.0
68.0,81.0,0.7,3.3963911458333333,5.773545212765957,0.0,0.0
68.0,81.0,1.0,3.3963911458333333,5.773545212765957,0.0,0.0
68.0,89.0,0.1,3.9143057291666667,6.719206914893617,0.0,0.0
68.0,89.0,0.3,3.9143057291666667,6.719206914893617,0.0,0.0
68.0,89.0,0.7,3.9143057291666667,6.719206914893617,0.0,0.0
68.0,89.0,1.0,3.9143057291666667,6.719206914893617,0.0,0.0
68.0,97.0,0.1,4.4322203125,7.664868617021277,0.0,0.0
68.0,97.0,0.3,4.4322203125,7.664868617021277,0.0,0.0
68.0,97.0,0.7,4.4322203125,7.664868617021277,0.0,0.0
68.0,97.0,1.0,4.4322203125,7.664868617021277,0.0,0.0
68.0,105.0,0.1,4.950134895833333,8.610530319148936,0.0,0.0
68.0,105.0,0.3,4.950134895833333,8.610530319148936,0.0,0.0
68.0,105.0,0.7,4.950134895833333,8.610530319148936,0.0,0.0
68.0,105.0,1.0,4.950134895833333,8.610530319148936,0.0,0.0
68.0,113.0,0.1,5.468049479166666,9.556192021276596,0.0,0.0
68.0,113.0,0.3,5.468049479166666,9.556192021276596,0.0,0.0
68.0,113.0,0.7,5.468049479166666,9.556192021276596,0.0,0.0
68.0,113.0,1.0,5.468049479166666,9.556192021276596,0.0,0.0
68.0,121.0,0.1,5.9859640625,10.501853723404256,0.0,0.0
68.0,121.0,0.3,5.9859640625,10.501853723404256,0.0,0.0
68.0,121.0,0.7,5.9859640625,10.501853723404256,0.0,0.0
68.0,121.0,1.0,5.9859640625,10.501853723404256,0.0,0.0
68.0,127.0,0.1,6.3744,11.2111,0.0,0.0
68.0,127.0,0.3,6.3744,11.2111,0.0,0.0
68.0,127.0,0.7,6.3744,11.2111,0.0,0.0
68.0,127.0,1.0,6.3744,11.2111,0.0,0.0
69.0,1.0,0.1,0.6410242424242424,0.2105396551724138,0.0,0.0
69.0,1.0,0.3,0.6410242424242424,0.2105396551724138,0.0,0.0
69.0,1.0,0.7,0.6410242424242424,0.2105396551724138,0.0,0.0
69.0,1.0,1.0,0.6410242424242424,0.2105396551724138,0.0,0.0
69.0,9.0,0.1,0.7204181818181818,0.48685689655172415,0.0,0.0
69.0,9.0,0.3,0.7204181818181818,0.48685689655172415,0.0,0.0
69.0,9.0,0.7,0.7204181818181818,0.48685689655172415,0.0,0.0
69.0,9.0,1.0,0.7204181818181818,0.48685689655172415,0.0,0.0
69.0,17.0,0.1,0.7998121212121212,0.7631741379310344,0.0,0.0
69.0,17.0,0.3,0.7998121212121212,0.7631741379310344,0.0,0.0
69.0,17.0,0.7,0.7998121212121212,0.7631741379310344,0.0,0.0
69.0,17.0,1.0,0.7998121212121212,0.7631741379310344,0.0,0.0
69.0,25.0,0.1,0.8792060606060605,1.0394913793103449,0.0,0.0
69.0,25.0,0.3,0.8792060606060605,1.0394913793103449,0.0,0.0
69.0,25.0,0.7,0.8792060606060605,1.0394913793103449,0.0,0.0
69.0,25.0,1.0,0.8792060606060605,1.0394913793103449,0.0,0.0
69.0,33.0,0.1,0.9586,1.4728615384615384,0.0,0.0
69.0,33.0,0.3,0.9586,1.4728615384615384,0.0,0.0
69.0,33.0,0.7,0.9586,1.4728615384615384,0.0,0.0
69.0,33.0,1.0,0.9586,1.4728615384615384,0.0,0.0
69.0,41.0,0.1,1.1976818181818183,2.063284615384615,0.0,0.0
69.0,41.0,0.3,1.1976818181818183,2.063284615384615,0.0,0.0
69.0,41.0,0.7,1.1976818181818183,2.063284615384615,0.0,0.0
69.0,41.0,1.0,1.1976818181818183,2.063284615384615,0.0,0.0
69.0,49.0,0.1,1.5429374999999999,2.5298441176470585,0.0,0.0
69.0,49.0,0.3,1.5429374999999999,2.5298441176470585,0.0,0.0
69.0,49.0,0.7,1.5429374999999999,2.5298441176470585,0.0,0.0
69.0,49.0,1.0,1.5429374999999999,2.5298441176470585,0.0,0.0
69.0,57.0,0.1,1.9518974999999998,2.978708823529412,0.0,0.0
69.0,57.0,0.3,1.9518974999999998,2.978708823529412,0.0,0.0
69.0,57.0,0.7,1.9518974999999998,2.978708823529412,0.0,0.0
69.0,57.0,1.0,1.9518974999999998,2.978708823529412,0.0,0.0
69.0,65.0,0.1,2.41797,3.8236142857142856,0.0,0.0
69.0,65.0,0.3,2.41797,3.8236142857142856,0.0,0.0
69.0,65.0,0.7,2.41797,3.8236142857142856,0.0,0.0
69.0,65.0,1.0,2.41797,3.8236142857142856,0.0,0.0
69.0,73.0,0.1,2.90308,4.800533333333333,0.0,0.0
69.0,73.0,0.3,2.90308,4.800533333333333,0.0,0.0
69.0,73.0,0.7,2.90308,4.800533333333333,0.0,0.0
69.0,73.0,1.0,2.90308,4.800533333333333,0.0,0.0
69.0,81.0,0.1,3.3963911458333333,5.773545212765957,0.0,0.0
69.0,81.0,0.3,3.3963911458333333,5.773545212765957,0.0,0.0
69.0,81.0,0.7,3.3963911458333333,5.773545212765957,0.0,0.0
69.0,81.0,1.0,3.3963911458333333,5.773545212765957,0.0,0.0
69.0,89.0,0.1,3.9143057291666667,6.719206914893617,0.0,0.0
69.0,89.0,0.3,3.9143057291666667,6.719206914893617,0.0,0.0
69.0,89.0,0.7,3.9143057291666667,6.719206914893617,0.0,0.0
69.0,89.0,1.0,3.9143057291666667,6.719206914893617,0.0,0.0
69.0,97.0,0.1,4.4322203125,7.664868617021277,0.0,0.0
69.0,97.0,0.3,4.4322203125,7.664868617021277,0.0,0.0
69.0,97.0,0.7,4.4322203125,7.664868617021277,0.0,0.0
69.0,97.0,1.0,4.4322203125,7.664868617021277,0.0,0.0
69.0,105.0,0.1,4.950134895833333,8.610530319148936,0.0,0.0
69.0,105.0,0.3,4.950134895833333,8.610530319148936,0.0,0.0
69.0,105.0,0.7,4.950134895833333,8.610530319148936,0.0,0.0
69.0,105.0,1.0,4.950134895833333,8.610530319148936,0.0,0.0
69.0,113.0,0.1,5.468049479166666,9.556192021276596,0.0,0.0
69.0,113.0,0.3,5.468049479166666,9.556192021276596,0.0,0.0
69.0,113.0,0.7,5.468049479166666,9.556192021276596,0.0,0.0
69.0,113.0,1.0,5.468049479166666,9.556192021276596,0.0,0.0
69.0,121.0,0.1,5.9859640625,10.501853723404256,0.0,0.0
69.0,121.0,0.3,5.9859640625,10.501853723404256,0.0,0.0
69.0,121.0,0.7,5.9859640625,10.501853723404256,0.0,0.0
69.0,121.0,1.0,5.9859640625,10.501853723404256,0.0,0.0
69.0,127.0,0.1,6.3744,11.2111,0.0,0.0
69.0,127.0,0.3,6.3744,11.2111,0.0,0.0
69.0,127.0,0.7,6.3744,11.2111,0.0,0.0
69.0,127.0,1.0,6.3744,11.2111,0.0,0.0
70.0,1.0,0.1,0.6407323529411765,0.20938833333333332,0.0,0.0
70.0,1.0,0.3,0.6407323529411765,0.20938833333333332,0.0,0.0
70.0,1.0,0.7,0.6407323529411765,0.20938833333333332,0.0,0.0
70.0,1.0,1.0,0.6407323529411765,0.20938833333333332,0.0,0.0
70.0,9.0,0.1,0.7177911764705882,0.476495,0.0,0.0
70.0,9.0,0.3,0.7177911764705882,0.476495,0.0,0.0
70.0,9.0,0.7,0.7177911764705882,0.476495,0.0,0.0
70.0,9.0,1.0,0.7177911764705882,0.476495,0.0,0.0
70.0,17.0,0.1,0.7948500000000001,0.7436016666666667,0.0,0.0
70.0,17.0,0.3,0.7948500000000001,0.7436016666666667,0.0,0.0
70.0,17.0,0.7,0.7948500000000001,0.7436016666666667,0.0,0.0
70.0,17.0,1.0,0.7948500000000001,0.7436016666666667,0.0,0.0
70.0,25.0,0.1,0.8719088235294118,1.0107083333333333,0.0,0.0
70.0,25.0,0.3,0.8719088235294118,1.0107083333333333,0.0,0.0
70.0,25.0,0.7,0.8719088235294118,1.0107083333333333,0.0,0.0
70.0,25.0,1.0,0.8719088235294118,1.0107083333333333,0.0,0.0
70.0,33.0,0.1,0.9489676470588235,1.3990586538461538,0.0,0.0
70.0,33.0,0.3,0.9489676470588235,1.3990586538461538,0.0,0.0
70.0,33.0,0.7,0.9489676470588235,1.3990586538461538,0.0,0.0
70.0,33.0,1.0,0.9489676470588235,1.3990586538461538,0.0,0.0
70.0,41.0,0.1,1.167796590909091,1.9894817307692305,0.0,0.0
70.0,41.0,0.3,1.167796590909091,1.9894817307692305,0.0,0.0
70.0,41.0,0.7,1.167796590909091,1.9894817307692305,0.0,0.0
70.0,41.0,1.0,1.167796590909091,1.9894817307692305,0.0,0.0
70.0,49.0,0.1,1.4918175,2.4947765625,0.0,0.0
70.0,49.0,0.3,1.4918175,2.4947765625,0.0,0.0
70.0,49.0,0.7,1.4918175,2.4947765625,0.0,0.0
70.0,49.0,1.0,1.4918175,2.4947765625,0.0,0.0
70.0,57.0,0.1,1.9007774999999998,2.9716953124999996,0.0,0.0
70.0,57.0,0.3,1.9007774999999998,2.9716953124999996,0.0,0.0
70.0,57.0,0.7,1.9007774999999998,2.9716953124999996,0.0,0.0
70.0,57.0,1.0,1.9007774999999998,2.9716953124999996,0.0,0.0
70.0,65.0,0.1,2.373288815789474,3.8236142857142856,0.0,0.0
70.0,65.0,0.3,2.373288815789474,3.8236142857142856,0.0,0.0
70.0,65.0,0.7,2.373288815789474,3.8236142857142856,0.0,0.0
70.0,65.0,1.0,2.373288815789474,3.8236142857142856,0.0,0.0
70.0,73.0,0.1,2.883930921052632,4.800533333333333,0.0,0.0
70.0,73.0,0.3,2.883930921052632,4.800533333333333,0.0,0.0
70.0,73.0,0.7,2.883930921052632,4.800533333333333,0.0,0.0
70.0,73.0,1.0,2.883930921052632,4.800533333333333,0.0,0.0
70.0,81.0,0.1,3.3963911458333333,5.773545212765957,0.0,0.0
70.0,81.0,0.3,3.3963911458333333,5.773545212765957,0.0,0.0
70.0,81.0,0.7,3.3963911458333333,5.773545212765957,0.0,0.0
70.0,81.0,1.0,3.3963911458333333,5.773545212765957,0.0,0.0
70.0,89.0,0.1,3.9143057291666667,6.719206914893617,0.0,0.0
70.0,89.0,0.3,3.9143057291666667,6.719206914893617,0.0,0.0
70.0,89.0,0.7,3.9143057291666667,6.719206914893617,0.0,0.0
70.0,89.0,1.0,3.9143057291666667,6.719206914893617,0.0,0.0
70.0,97.0,0.1,4.4322203125,7.664868617021277,0.0,0.0
70.0,97.0,0.3,4.4322203125,7.664868617021277,0.0,0.0
70.0,97.0,0.7,4.4322203125,7.664868617021277,0.0,0.0
70.0,97.0,1.0,4.4322203125,7.664868617021277,0.0,0.0
70.0,105.0,0.1,4.950134895833333,8.610530319148936,0.0,0.0
70.0,105.0,0.3,4.950134895833333,8.610530319148936,0.0,0.0
70.0,105.0,0.7,4.950134895833333,8.610530319148936,0.0,0.0
70.0,105.0,1.0,4.950134895833333,8.610530319148936,0.0,0.0
70.0,113.0,0.1,5.468049479166666,9.556192021276596,0.0,0.0
70.0,113.0,0.3,5.468049479166666,9.556192021276596,0.0,0.0
70.0,113.0,0.7,5.468049479166666,9.556192021276596,0.0,0.0
70.0,113.0,1.0,5.468049479166666,9.556192021276596,0.0,0.0
70.0,121.0,0.1,5.9859640625,10.501853723404256,0.0,0.0
70.0,121.0,0.3,5.9859640625,10.501853723404256,0.0,0.0
70.0,121.0,0.7,5.9859640625,10.501853723404256,0.0,0.0
70.0,121.0,1.0,5.9859640625,10.501853723404256,0.0,0.0
70.0,127.0,0.1,6.3744,11.2111,0.0,0.0
70.0,127.0,0.3,6.3744,11.2111,0.0,0.0
70.0,127.0,0.7,6.3744,11.2111,0.0,0.0
70.0,127.0,1.0,6.3744,11.2111,0.0,0.0
71.0,1.0,0.1,0.6407323529411765,0.20831129032258064,0.0,0.0
71.0,1.0,0.3,0.6407323529411765,0.20831129032258064,0.0,0.0
71.0,1.0,0.7,0.6407323529411765,0.20831129032258064,0.0,0.0
71.0,1.0,1.0,0.6407323529411765,0.20831129032258064,0.0,0.0
71.0,9.0,0.1,0.7177911764705882,0.46680161290322575,0.0,0.0
71.0,9.0,0.3,0.7177911764705882,0.46680161290322575,0.0,0.0
71.0,9.0,0.7,0.7177911764705882,0.46680161290322575,0.0,0.0
71.0,9.0,1.0,0.7177911764705882,0.46680161290322575,0.0,0.0
71.0,17.0,0.1,0.7948500000000001,0.7252919354838709,0.0,0.0
71.0,17.0,0.3,0.7948500000000001,0.7252919354838709,0.0,0.0
71.0,17.0,0.7,0.7948500000000001,0.7252919354838709,0.0,0.0
71.0,17.0,1.0,0.7948500000000001,0.7252919354838709,0.0,0.0
71.0,25.0,0.1,0.8719088235294118,0.9837822580645161,0.0,0.0
71.0,25.0,0.3,0.8719088235294118,0.9837822580645161,0.0,0.0
71.0,25.0,0.7,0.8719088235294118,0.9837822580645161,0.0,0.0
71.0,25.0,1.0,0.8719088235294118,0.9837822580645161,0.0,0.0
71.0,33.0,0.1,0.9489676470588235,1.3252557692307692,0.0,0.0
71.0,33.0,0.3,0.9489676470588235,1.3252557692307692,0.0,0.0
71.0,33.0,0.7,0.9489676470588235,1.3252557692307692,0.0,0.0
71.0,33.0,1.0,0.9489676470588235,1.3252557692307692,0.0,0.0
71.0,41.0,0.1,1.167796590909091,1.915678846153846,0.0,0.0
71.0,41.0,0.3,1.167796590909091,1.915678846153846,0.0,0.0
71.0,41.0,0.7,1.167796590909091,1.915678846153846,0.0,0.0
71.0,41.0,1.0,1.167796590909091,1.915678846153846,0.0,0.0
71.0,49.0,0.1,1.4790375,2.43516171875,0.0,0.0
71.0,49.0,0.3,1.4790375,2.43516171875,0.0,0.0
71.0,49.0,0.7,1.4790375,2.43516171875,0.0,0.0
71.0,49.0,1.0,1.4790375,2.43516171875,0.0,0.0
71.0,57.0,0.1,1.8624375,2.91208046875,0.0,0.0
71.0,57.0,0.3,1.8624375,2.91208046875,0.0,0.0
71.0,57.0,0.7,1.8624375,2.91208046875,0.0,0.0
71.0,57.0,1.0,1.8624375,2.91208046875,0.0,0.0
71.0,65.0,0.1,2.3236430555555554,3.732028125,0.0,0.0
71.0,65.0,0.3,2.3236430555555554,3.732028125,0.0,0.0
71.0,65.0,0.7,2.3236430555555554,3.732028125,0.0,0.0
71.0,65.0,1.0,2.3236430555555554,3.732028125,0.0,0.0
71.0,73.0,0.1,2.8626541666666667,4.757793125,0.0,0.0
71.0,73.0,0.3,2.8626541666666667,4.757793125,0.0,0.0
71.0,73.0,0.7,2.8626541666666667,4.757793125,0.0,0.0
71.0,73.0,1.0,2.8626541666666667,4.757793125,0.0,0.0
71.0,81.0,0.1,3.3963911458333333,5.773545212765957,0.0,0.0
71.0,81.0,0.3,3.3963911458333333,5.773545212765957,0.0,0.0
71.0,81.0,0.7,3.3963911458333333,5.773545212765957,0.0,0.0
71.0,81.0,1.0,3.3963911458333333,5.773545212765957,0.0,0.0
71.0,89.0,0.1,3.9143057291666667,6.719206914893617,0.0,0.0
71.0,89.0,0.3,3.9143057291666667,6.719206914893617,0.0,0.0
71.0,89.0,0.7,3.9143057291666667,6.719206914893617,0.0,0.0
71.0,89.0,1.0,3.9143057291666667,6.719206914893617,0.0,0.0
71.0,97.0,0.1,4.4322203125,7.664868617021277,0.0,0.0
71.0,97.0,0.3,4.4322203125,7.664868617021277,0.0,0.0
71.0,97.0,0.7,4.4322203125,7.664868617021277,0.0,0.0
71.0,97.0,1.0,4.4322203125,7.664868617021277,0.0,0.0
71.0,105.0,0.1,4.950134895833333,8.610530319148936,0.0,0.0
71.0,105.0,0.3,4.950134895833333,8.610530319148936,0.0,0.0
71.0,105.0,0.7,4.950134895833333,8.610530319148936,0.0,0.0
71.0,105.0,1.0,4.950134895833333,8.610530319148936,0.0,0.0
71.0,113.0,0.1,5.468049479166666,9.556192021276596,0.0,0.0
71.0,113.0,0.3,5.468049479166666,9.556192021276596,0.0,0.0
71.0,113.0,0.7,5.468049479166666,9.556192021276596,0.0,0.0
71.0,113.0,1.0,5.468049479166666,9.556192021276596,0.0,0.0
71.0,121.0,0.1,5.9859640625,10.501853723404256,0.0,0.0
71.0,121.0,0.3,5.9859640625,10.501853723404256,0.0,0.0
71.0,121.0,0.7,5.9859640625,10.501853723404256,0.0,0.0
71.0,121.0,1.0,5.9859640625,10.501853723404256,0.0,0.0
71.0,127.0,0.1,6.3744,11.2111,0.0,0.0
71.0,127.0,0.3,6.3744,11.2111,0.0,0.0
71.0,127.0,0.7,6.3744,11.2111,0.0,0.0
71.0,127.0,1.0,6.3744,11.2111,0.0,0.0
72.0,1.0,0.1,0.6404571428571428,0.20730156249999998,0.0,0.0
72.0,1.0,0.3,0.6404571428571428,0.20730156249999998,0.0,0.0
72.0,1.0,0.7,0.6404571428571428,0.20730156249999998,0.0,0.0
72.0,1.0,1.0,0.6404571428571428,0.20730156249999998,0.0,0.0
72.0,9.0,0.1,0.7153142857142857,0.45771406249999996,0.0,0.0
72.0,9.0,0.3,0.7153142857142857,0.45771406249999996,0.0,0.0
72.0,9.0,0.7,0.7153142857142857,0.45771406249999996,0.0,0.0
72.0,9.0,1.0,0.7153142857142857,0.45771406249999996,0.0,0.0
72.0,17.0,0.1,0.7901714285714285,0.7081265625,0.0,0.0
72.0,17.0,0.3,0.7901714285714285,0.7081265625,0.0,0.0
72.0,17.0,0.7,0.7901714285714285,0.7081265625,0.0,0.0
72.0,17.0,1.0,0.7901714285714285,0.7081265625,0.0,0.0
72.0,25.0,0.1,0.8650285714285715,0.9585390624999999,0.0,0.0
72.0,25.0,0.3,0.8650285714285715,0.9585390624999999,0.0,0.0
72.0,25.0,0.7,0.8650285714285715,0.9585390624999999,0.0,0.0
72.0,25.0,1.0,0.8650285714285715,0.9585390624999999,0.0,0.0
72.0,33.0,0.1,0.9398857142857142,1.2514528846153845,0.0,0.0
72.0,33.0,0.3,0.9398857142857142,1.2514528846153845,0.0,0.0
72.0,33.0,0.7,0.9398857142857142,1.2514528846153845,0.0,0.0
72.0,33.0,1.0,0.9398857142857142,1.2514528846153845,0.0,0.0
72.0,41.0,0.1,1.1379113636363636,1.8418759615384614,0.0,0.0
72.0,41.0,0.3,1.1379113636363636,1.8418759615384614,0.0,0.0
72.0,41.0,0.7,1.1379113636363636,1.8418759615384614,0.0,0.0
72.0,41.0,1.0,1.1379113636363636,1.8418759615384614,0.0,0.0
72.0,49.0,0.1,1.4311125,2.3914441666666666,0.0,0.0
72.0,49.0,0.3,1.4311125,2.3914441666666666,0.0,0.0
72.0,49.0,0.7,1.4311125,2.3914441666666666,0.0,0.0
72.0,49.0,1.0,1.4311125,2.3914441666666666,0.0,0.0
72.0,57.0,0.1,1.8145125,2.9001574999999997,0.0,0.0
72.0,57.0,0.3,1.8145125,2.9001574999999997,0.0,0.0
72.0,57.0,0.7,1.8145125,2.9001574999999997,0.0,0.0
72.0,57.0,1.0,1.8145125,2.9001574999999997,0.0,0.0
72.0,65.0,0.1,2.256266666666667,3.732028125,0.0,0.0
72.0,65.0,0.3,2.256266666666667,3.732028125,0.0,0.0
72.0,65.0,0.7,2.256266666666667,3.732028125,0.0,0.0
72.0,65.0,1.0,2.256266666666667,3.732028125,0.0,0.0
72.0,73.0,0.1,2.7952777777777778,4.757793125,0.0,0.0
72.0,73.0,0.3,2.7952777777777778,4.757793125,0.0,0.0
72.0,73.0,0.7,2.7952777777777778,4.757793125,0.0,0.0
72.0,73.0,1.0,2.7952777777777778,4.757793125,0.0,0.0
72.0,81.0,0.1,3.333029255319149,5.773545212765957,0.0,0.0
72.0,81.0,0.3,3.333029255319149,5.773545212765957,0.0,0.0
72.0,81.0,0.7,3.333029255319149,5.773545212765957,0.0,0.0
72.0,81.0,1.0,3.333029255319149,5.773545212765957,0.0,0.0
72.0,89.0,0.1,3.8619632978723404,6.719206914893617,0.0,0.0
72.0,89.0,0.3,3.8619632978723404,6.719206914893617,0.0,0.0
72.0,89.0,0.7,3.8619632978723404,6.719206914893617,0.0,0.0
72.0,89.0,1.0,3.8619632978723404,6.719206914893617,0.0,0.0
72.0,97.0,0.1,4.390897340425532,7.664868617021277,0.0,0.0
72.0,97.0,0.3,4.390897340425532,7.664868617021277,0.0,0.0
72.0,97.0,0.7,4.390897340425532,7.664868617021277,0.0,0.0
72.0,97.0,1.0,4.390897340425532,7.664868617021277,0.0,0.0
72.0,105.0,0.1,4.919831382978723,8.610530319148936,0.0,0.0
72.0,105.0,0.3,4.919831382978723,8.610530319148936,0.0,0.0
72.0,105.0,0.7,4.919831382978723,8.610530319148936,0.0,0.0
72.0,105.0,1.0,4.919831382978723,8.610530319148936,0.0,0.0
72.0,113.0,0.1,5.448765425531915,9.556192021276596,0.0,0.0
72.0,113.0,0.3,5.448765425531915,9.556192021276596,0.0,0.0
72.0,113.0,0.7,5.448765425531915,9.556192021276596,0.0,0.0
72.0,113.0,1.0,5.448765425531915,9.556192021276596,0.0,0.0
72.0,121.0,0.1,5.977699468085106,10.501853723404256,0.0,0.0
72.0,121.0,0.3,5.977699468085106,10.501853723404256,0.0,0.0
72.0,121.0,0.7,5.977699468085106,10.501853723404256,0.0,0.0
72.0,121.0,1.0,5.977699468085106,10.501853723404256,0.0,0.0
72.0,127.0,0.1,6.3744,11.2111,0.0,0.0
72.0,127.0,0.3,6.3744,11.2111,0.0,0.0
72.0,127.0,0.7,6.3744,11.2111,0.0,0.0
72.0,127.0,1.0,6.3744,11.2111,0.0,0.0
73.0,1.0,0.1,0.6404571428571428,0.2063530303030303,0.0,0.0
73.0,1.0,0.3,0.6404571428571428,0.2063530303030303,0.0,0.0
73.0,1.0,0.7,0.6404571428571428,0.2063530303030303,0.0,0.0
73.0,1.0,1.0,0.6404571428571428,0.2063530303030303,0.0,0.0
73.0,9.0,0.1,0.7153142857142857,0.4491772727272727,0.0,0.0
73.0,9.0,0.3,0.7153142857142857,0.4491772727272727,0.0,0.0
73.0,9.0,0.7,0.7153142857142857,0.4491772727272727,0.0,0.0
73.0,9.0,1.0,0.7153142857142857,0.4491772727272727,0.0,0.0
73.0,17.0,0.1,0.7901714285714285,0.6920015151515151,0.0,0.0
73.0,17.0,0.3,0.7901714285714285,0.6920015151515151,0.0,0.0
73.0,17.0,0.7,0.7901714285714285,0.6920015151515151,0.0,0.0
73.0,17.0,1.0,0.7901714285714285,0.6920015151515151,0.0,0.0
73.0,25.0,0.1,0.8650285714285715,0.9348257575757575,0.0,0.0
73.0,25.0,0.3,0.8650285714285715,0.9348257575757575,0.0,0.0
73.0,25.0,0.7,0.8650285714285715,0.9348257575757575,0.0,0.0
73.0,25.0,1.0,0.8650285714285715,0.9348257575757575,0.0,0.0
73.0,33.0,0.1,0.9398857142857142,1.1776499999999999,0.0,0.0
73.0,33.0,0.3,0.9398857142857142,1.1776499999999999,0.0,0.0
73.0,33.0,0.7,0.9398857142857142,1.1776499999999999,0.0,0.0
73.0,33.0,1.0,0.9398857142857142,1.1776499999999999,0.0,0.0
73.0,41.0,0.1,1.12296875,1.7680730769230768,0.0,0.0
73.0,41.0,0.3,1.12296875,1.7680730769230768,0.0,0.0
73.0,41.0,0.7,1.12296875,1.7680730769230768,0.0,0.0
73.0,41.0,1.0,1.12296875,1.7680730769230768,0.0,0.0
73.0,49.0,0.1,1.3831875,2.3414812499999997,0.0,0.0
73.0,49.0,0.3,1.3831875,2.3414812499999997,0.0,0.0
73.0,49.0,0.7,1.3831875,2.3414812499999997,0.0,0.0
73.0,49.0,1.0,1.3831875,2.3414812499999997,0.0,0.0
73.0,57.0,0.1,1.7665875,2.88653125,0.0,0.0
73.0,57.0,0.3,1.7665875,2.88653125,0.0,0.0
73.0,57.0,0.7,1.7665875,2.88653125,0.0,0.0
73.0,57.0,1.0,1.7665875,2.88653125,0.0,0.0
73.0,65.0,0.1,2.1968169117647056,3.732028125,0.0,0.0
73.0,65.0,0.3,2.1968169117647056,3.732028125,0.0,0.0
73.0,65.0,0.7,2.1968169117647056,3.732028125,0.0,0.0
73.0,65.0,1.0,2.1968169117647056,3.732028125,0.0,0.0
73.0,73.0,0.1,2.767534558823529,4.757793125,0.0,0.0
73.0,73.0,0.3,2.767534558823529,4.757793125,0.0,0.0
73.0,73.0,0.7,2.767534558823529,4.757793125,0.0,0.0
73.0,73.0,1.0,2.767534558823529,4.757793125,0.0,0.0
73.0,81.0,0.1,3.333029255319149,5.773545212765957,0.0,0.0
73.0,81.0,0.3,3.333029255319149,5.773545212765957,0.0,0.0
73.0,81.0,0.7,3.333029255319149,5.773545212765957,0.0,0.0
73.0,81.0,1.0,3.333029255319149,5.773545212765957,0.0,0.0
73.0,89.0,0.1,3.8619632978723404,6.719206914893617,0.0,0.0
73.0,89.0,0.3,3.8619632978723404,6.719206914893617,0.0,0.0
73.0,89.0,0.7,3.8619632978723404,6.719206914893617,0.0,0.0
73.0,89.0,1.0,3.8619632978723404,6.719206914893617,0.0,0.0
73.0,97.0,0.1,4.390897340425532,7.664868617021277,0.0,0.0
73.0,97.0,0.3,4.390897340425532,7.664868617021277,0.0,0.0
73.0,97.0,0.7,4.390897340425532,7.664868617021277,0.0,0.0
73.0,97.0,1.0,4.390897340425532,7.664868617021277,0.0,0.0
73.0,105.0,0.1,4.919831382978723,8.610530319148936,0.0,0.0
73.0,105.0,0.3,4.919831382978723,8.610530319148936,0.0,0.0
73.0,105.0,0.7,4.919831382978723,8.610530319148936,0.0,0.0
73.0,105.0,1.0,4.919831382978723,8.610530319148936,0.0,0.0
73.0,113.0,0.1,5.448765425531915,9.556192021276596,0.0,0.0
73.0,113.0,0.3,5.448765425531915,9.556192021276596,0.0,0.0
73.0,113.0,0.7,5.448765425531915,9.556192021276596,0.0,0.0
73.0,113.0,1.0,5.448765425531915,9.556192021276596,0.0,0.0
73.0,121.0,0.1,5.977699468085106,10.501853723404256,0.0,0.0
73.0,121.0,0.3,5.977699468085106,10.501853723404256,0.0,0.0
73.0,121.0,0.7,5.977699468085106,10.501853723404256,0.0,0.0
73.0,121.0,1.0,5.977699468085106,10.501853723404256,0.0,0.0
73.0,127.0,0.1,6.3744,11.2111,0.0,0.0
73.0,127.0,0.3,6.3744,11.2111,0.0,0.0
73.0,127.0,0.7,6.3744,11.2111,0.0,0.0
73.0,127.0,1.0,6.3744,11.2111,0.0,0.0
74.0,1.0,0.1,0.6401972222222222,0.20546029411764705,0.0,0.0
74.0,1.0,0.3,0.6401972222222222,0.20546029411764705,0.0,0.0
74.0,1.0,0.7,0.6401972222222222,0.20546029411764705,0.0,0.0
74.0,1.0,1.0,0.6401972222222222,0.20546029411764705,0.0,0.0
74.0,9.0,0.1,0.712975,0.4411426470588235,0.0,0.0
74.0,9.0,0.3,0.712975,0.4411426470588235,0.0,0.0
74.0,9.0,0.7,0.712975,0.4411426470588235,0.0,0.0
74.0,9.0,1.0,0.712975,0.4411426470588235,0.0,0.0
74.0,17.0,0.1,0.7857527777777777,0.676825,0.0,0.0
74.0,17.0,0.3,0.7857527777777777,0.676825,0.0,0.0
74.0,17.0,0.7,0.7857527777777777,0.676825,0.0,0.0
74.0,17.0,1.0,0.7857527777777777,0.676825,0.0,0.0
74.0,25.0,0.1,0.8585305555555556,0.9125073529411765,0.0,0.0
74.0,25.0,0.3,0.8585305555555556,0.9125073529411765,0.0,0.0
74.0,25.0,0.7,0.8585305555555556,0.9125073529411765,0.0,0.0
74.0,25.0,1.0,0.8585305555555556,0.9125073529411765,0.0,0.0
74.0,33.0,0.1,0.9313083333333333,1.148189705882353,0.0,0.0
74.0,33.0,0.3,0.9313083333333333,1.148189705882353,0.0,0.0
74.0,33.0,0.7,0.9313083333333333,1.148189705882353,0.0,0.0
74.0,33.0,1.0,0.9313083333333333,1.148189705882353,0.0,0.0
74.0,41.0,0.1,1.1080261363636363,1.6942701923076922,0.0,0.0
74.0,41.0,0.3,1.1080261363636363,1.6942701923076922,0.0,0.0
74.0,41.0,0.7,1.1080261363636363,1.6942701923076922,0.0,0.0
74.0,41.0,1.0,1.1080261363636363,1.6942701923076922,0.0,0.0
74.0,49.0,0.1,1.3775492647058825,2.2838317307692306,0.0,0.0
74.0,49.0,0.3,1.3775492647058825,2.2838317307692306,0.0,0.0
74.0,49.0,0.7,1.3775492647058825,2.2838317307692306,0.0,0.0
74.0,49.0,1.0,1.3775492647058825,2.2838317307692306,0.0,0.0
74.0,57.0,0.1,1.7383963235294118,2.870808653846154,0.0,0.0
74.0,57.0,0.3,1.7383963235294118,2.870808653846154,0.0,0.0
74.0,57.0,0.7,1.7383963235294118,2.870808653846154,0.0,0.0
74.0,57.0,1.0,1.7383963235294118,2.870808653846154,0.0,0.0
74.0,65.0,0.1,2.1299359375,3.732028125,0.0,0.0
74.0,65.0,0.3,2.1299359375,3.732028125,0.0,0.0
74.0,65.0,0.7,2.1299359375,3.732028125,0.0,0.0
74.0,65.0,1.0,2.1299359375,3.732028125,0.0,0.0
74.0,73.0,0.1,2.7363234375000003,4.757793125,0.0,0.0
74.0,73.0,0.3,2.7363234375000003,4.757793125,0.0,0.0
74.0,73.0,0.7,2.7363234375000003,4.757793125,0.0,0.0
74.0,73.0,1.0,2.7363234375000003,4.757793125,0.0,0.0
74.0,81.0,0.1,3.333029255319149,5.773545212765957,0.0,0.0
74.0,81.0,0.3,3.333029255319149,5.773545212765957,0.0,0.0
74.0,81.0,0.7,3.333029255319149,5.773545212765957,0.0,0.0
74.0,81.0,1.0,3.333029255319149,5.773545212765957,0.0,0.0
74.0,89.0,0.1,3.8619632978723404,6.719206914893617,0.0,0.0
74.0,89.0,0.3,3.8619632978723404,6.719206914893617,0.0,0.0
74.0,89.0,0.7,3.8619632978723404,6.719206914893617,0.0,0.0
74.0,89.0,1.0,3.8619632978723404,6.719206914893617,0.0,0.0
74.0,97.0,0.1,4.390897340425532,7.664868617021277,0.0,0.0
74.0,97.0,0.3,4.390897340425532,7.664868617021277,0.0,0.0
74.0,97.0,0.7,4.390897340425532,7.664868617021277,0.0,0.0
74.0,97.0,1.0,4.390897340425532,7.664868617021277,0.0,0.0
74.0,105.0,0.1,4.919831382978723,8.610530319148936,0.0,0.0
74.0,105.0,0.3,4.919831382978723,8.610530319148936,0.0,0.0
74.0,105.0,0.7,4.919831382978723,8.610530319148936,0.0,0.0
74.0,105.0,1.0,4.919831382978723,8.610530319148936,0.0,0.0
74.0,113.0,0.1,5.448765425531915,9.556192021276596,0.0,0.0
74.0,113.0,0.3,5.448765425531915,9.556192021276596,0.0,0.0
74.0,113.0,0.7,5.448765425531915,9.556192021276596,0.0,0.0
74.0,113.0,1.0,5.448765425531915,9.556192021276596,0.0,0.0
74.0,121.0,0.1,5.977699468085106,10.501853723404256,0.0,0.0
74.0,121.0,0.3,5.977699468085106,10.501853723404256,0.0,0.0
74.0,121.0,0.7,5.977699468085106,10.501853723404256,0.0,0.0
74.0,121.0,1.0,5.977699468085106,10.501853723404256,0.0,0.0
74.0,127.0,0.1,6.3744,11.2111,0.0,0.0
74.0,127.0,0.3,6.3744,11.2111,0.0,0.0
74.0,127.0,0.7,6.3744,11.2111,0.0,0.0
74.0,127.0,1.0,6.3744,11.2111,0.0,0.0
75.0,1.0,0.1,0.6401972222222222,0.20461857142857143,0.0,0.0
75.0,1.0,0.3,0.6401972222222222,0.20461857142857143,0.0,0.0
75.0,1.0,0.7,0.6401972222222222,0.20461857142857143,0.0,0.0
75.0,1.0,1.0,0.6401972222222222,0.20461857142857143,0.0,0.0
75.0,9.0,0.1,0.712975,0.4335671428571428,0.0,0.0
75.0,9.0,0.3,0.712975,0.4335671428571428,0.0,0.0
75.0,9.0,0.7,0.712975,0.4335671428571428,0.0,0.0
75.0,9.0,1.0,0.712975,0.4335671428571428,0.0,0.0
75.0,17.0,0.1,0.7857527777777777,0.6625157142857143,0.0,0.0
75.0,17.0,0.3,0.7857527777777777,0.6625157142857143,0.0,0.0
75.0,17.0,0.7,0.7857527777777777,0.6625157142857143,0.0,0.0
75.0,17.0,1.0,0.7857527777777777,0.6625157142857143,0.0,0.0
75.0,25.0,0.1,0.8585305555555556,0.8914642857142856,0.0,0.0
75.0,25.0,0.3,0.8585305555555556,0.8914642857142856,0.0,0.0
75.0,25.0,0.7,0.8585305555555556,0.8914642857142856,0.0,0.0
75.0,25.0,1.0,0.8585305555555556,0.8914642857142856,0.0,0.0
75.0,33.0,0.1,0.9313083333333333,1.120412857142857,0.0,0.0
75.0,33.0,0.3,0.9313083333333333,1.120412857142857,0.0,0.0
75.0,33.0,0.7,0.9313083333333333,1.120412857142857,0.0,0.0
75.0,33.0,1.0,0.9313083333333333,1.120412857142857,0.0,0.0
75.0,41.0,0.1,1.0955739583333333,1.6204673076923075,0.0,0.0
75.0,41.0,0.3,1.0955739583333333,1.6204673076923075,0.0,0.0
75.0,41.0,0.7,1.0955739583333333,1.6204673076923075,0.0,0.0
75.0,41.0,1.0,1.0955739583333333,1.6204673076923075,0.0,0.0
75.0,49.0,0.1,1.3352625,2.216573958333333,0.0,0.0
75.0,49.0,0.3,1.3352625,2.216573958333333,0.0,0.0
75.0,49.0,0.7,1.3352625,2.216573958333333,0.0,0.0
75.0,49.0,1.0,1.3352625,2.216573958333333,0.0,0.0
75.0,57.0,0.1,1.7186625,2.852465625,0.0,0.0
75.0,57.0,0.3,1.7186625,2.852465625,0.0,0.0
75.0,57.0,0.7,1.7186625,2.852465625,0.0,0.0
75.0,57.0,1.0,1.7186625,2.852465625,0.0,0.0
75.0,65.0,0.1,2.1299359375,3.732028125,0.0,0.0
75.0,65.0,0.3,2.1299359375,3.732028125,0.0,0.0
75.0,65.0,0.7,2.1299359375,3.732028125,0.0,0.0
75.0,65.0,1.0,2.1299359375,3.732028125,0.0,0.0
75.0,73.0,0.1,2.7363234375000003,4.757793125,0.0,0.0
75.0,73.0,0.3,2.7363234375000003,4.757793125,0.0,0.0
75.0,73.0,0.7,2.7363234375000003,4.757793125,0.0,0.0
75.0,73.0,1.0,2.7363234375000003,4.757793125,0.0,0.0
75.0,81.0,0.1,3.333029255319149,5.773545212765957,0.0,0.0
75.0,81.0,0.3,3.333029255319149,5.773545212765957,0.0,0.0
75.0,81.0,0.7,3.333029255319149,5.773545212765957,0.0,0.0
75.0,81.0,1.0,3.333029255319149,5.773545212765957,0.0,0.0
75.0,89.0,0.1,3.8619632978723404,6.719206914893617,0.0,0.0
75.0,89.0,0.3,3.8619632978723404,6.719206914893617,0.0,0.0
75.0,89.0,0.7,3.8619632978723404,6.719206914893617,0.0,0.0
75.0,89.0,1.0,3.8619632978723404,6.719206914893617,0.0,0.0
75.0,97.0,0.1,4.390897340425532,7.664868617021277,0.0,0.0
75.0,97.0,0.3,4.390897340425532,7.664868617021277,0.0,0.0
75.0,97.0,0.7,4.390897340425532,7.664868617021277,0.0,0.0
75.0,97.0,1.0,4.390897340425532,7.664868617021277,0.0,0.0
75.0,105.0,0.1,4.919831382978723,8.610530319148936,0.0,0.0
75.0,105.0,0.3,4.919831382978723,8.610530319148936,0.0,0.0
75.0,105.0,0.7,4.919831382978723,8.610530319148936,0.0,0.0
75.0,105.0,1.0,4.919831382978723,8.610530319148936,0.0,0.0
75.0,113.0,0.1,5.448765425531915,9.556192021276596,0.0,0.0
75.0,113.0,0.3,5.448765425531915,9.556192021276596,0.0,0.0
75.0,113.0,0.7,5.448765425531915,9.556192021276596,0.0,0.0
75.0,113.0,1.0,5.448765425531915,9.556192021276596,0.0,0.0
75.0,121.0,0.1,5.977699468085106,10.501853723404256,0.0,0.0
75.0,121.0,0.3,5.977699468085106,10.501853723404256,0.0,0.0
75.0,121.0,0.7,5.977699468085106,10.501853723404256,0.0,0.0
75.0,121.0,1.0,5.977699468085106,10.501853723404256,0.0,0.0
75.0,127.0,0.1,6.3744,11.2111,0.0,0.0
75.0,127.0,0.3,6.3744,11.2111,0.0,0.0
75.0,127.0,0.7,6.3744,11.2111,0.0,0.0
75.0,127.0,1.0,6.3744,11.2111,0.0,0.0
76.0,1.0,0.1,0.6399513513513514,0.2038236111111111,0.0,0.0
76.0,1.0,0.3,0.6399513513513514,0.2038236111111111,0.0,0.0
76.0,1.0,0.7,0.6399513513513514,0.2038236111111111,0.0,0.0
76.0,1.0,1.0,0.6399513513513514,0.2038236111111111,0.0,0.0
76.0,9.0,0.1,0.7107621621621621,0.42641249999999997,0.0,0.0
76.0,9.0,0.3,0.7107621621621621,0.42641249999999997,0.0,0.0
76.0,9.0,0.7,0.7107621621621621,0.42641249999999997,0.0,0.0
76.0,9.0,1.0,0.7107621621621621,0.42641249999999997,0.0,0.0
76.0,17.0,0.1,0.781572972972973,0.6490013888888888,0.0,0.0
76.0,17.0,0.3,0.781572972972973,0.6490013888888888,0.0,0.0
76.0,17.0,0.7,0.781572972972973,0.6490013888888888,0.0,0.0
76.0,17.0,1.0,0.781572972972973,0.6490013888888888,0.0,0.0
76.0,25.0,0.1,0.8523837837837838,0.8715902777777778,0.0,0.0
76.0,25.0,0.3,0.8523837837837838,0.8715902777777778,0.0,0.0
76.0,25.0,0.7,0.8523837837837838,0.8715902777777778,0.0,0.0
76.0,25.0,1.0,0.8523837837837838,0.8715902777777778,0.0,0.0
76.0,33.0,0.1,0.9231945945945945,1.0941791666666665,0.0,0.0
76.0,33.0,0.3,0.9231945945945945,1.0941791666666665,0.0,0.0
76.0,33.0,0.7,0.9231945945945945,1.0941791666666665,0.0,0.0
76.0,33.0,1.0,0.9231945945945945,1.0941791666666665,0.0,0.0
76.0,41.0,0.1,1.0681791666666667,1.52030625,0.0,0.0
76.0,41.0,0.3,1.0681791666666667,1.52030625,0.0,0.0
76.0,41.0,0.7,1.0681791666666667,1.52030625,0.0,0.0
76.0,41.0,1.0,1.0681791666666667,1.52030625,0.0,0.0
76.0,49.0,0.1,1.2873375,2.06855625,0.0,0.0
76.0,49.0,0.3,1.2873375,2.06855625,0.0,0.0
76.0,49.0,0.7,1.2873375,2.06855625,0.0,0.0
76.0,49.0,1.0,1.2873375,2.06855625,0.0,0.0
76.0,57.0,0.1,1.6707375,2.744075,0.0,0.0
76.0,57.0,0.3,1.6707375,2.744075,0.0,0.0
76.0,57.0,0.7,1.6707375,2.744075,0.0,0.0
76.0,57.0,1.0,1.6707375,2.744075,0.0,0.0
76.0,65.0,0.1,2.0541375,3.6038075,0.0,0.0
76.0,65.0,0.3,2.0541375,3.6038075,0.0,0.0
76.0,65.0,0.7,2.0541375,3.6038075,0.0,0.0
76.0,65.0,1.0,2.0541375,3.6038075,0.0,0.0
76.0,73.0,0.1,2.7009508333333336,4.6295725,0.0,0.0
76.0,73.0,0.3,2.7009508333333336,4.6295725,0.0,0.0
76.0,73.0,0.7,2.7009508333333336,4.6295725,0.0,0.0
76.0,73.0,1.0,2.7009508333333336,4.6295725,0.0,0.0
76.0,81.0,0.1,3.333029255319149,5.6553375,0.0,0.0
76.0,81.0,0.3,3.333029255319149,5.6553375,0.0,0.0
76.0,81.0,0.7,3.333029255319149,5.6553375,0.0,0.0
76.0,81.0,1.0,3.333029255319149,5.6553375,0.0,0.0
76.0,89.0,0.1,3.8619632978723404,6.621557065217392,0.0,0.0
76.0,89.0,0.3,3.8619632978723404,6.621557065217392,0.0,0.0
76.0,89.0,0.7,3.8619632978723404,6.621557065217392,0.0,0.0
76.0,89.0,1.0,3.8619632978723404,6.621557065217392,0.0,0.0
76.0,97.0,0.1,4.390897340425532,7.5877766304347825,0.0,0.0
76.0,97.0,0.3,4.390897340425532,7.5877766304347825,0.0,0.0
76.0,97.0,0.7,4.390897340425532,7.5877766304347825,0.0,0.0
76.0,97.0,1.0,4.390897340425532,7.5877766304347825,0.0,0.0
76.0,105.0,0.1,4.919831382978723,8.553996195652175,0.0,0.0
76.0,105.0,0.3,4.919831382978723,8.553996195652175,0.0,0.0
76.0,105.0,0.7,4.919831382978723,8.553996195652175,0.0,0.0
76.0,105.0,1.0,4.919831382978723,8.553996195652175,0.0,0.0
76.0,113.0,0.1,5.448765425531915,9.520215760869565,0.0,0.0
76.0,113.0,0.3,5.448765425531915,9.520215760869565,0.0,0.0
76.0,113.0,0.7,5.448765425531915,9.520215760869565,0.0,0.0
76.0,113.0,1.0,5.448765425531915,9.520215760869565,0.0,0.0
76.0,121.0,0.1,5.977699468085106,10.486435326086957,0.0,0.0
76.0,121.0,0.3,5.977699468085106,10.486435326086957,0.0,0.0
76.0,121.0,0.7,5.977699468085106,10.486435326086957,0.0,0.0
76.0,121.0,1.0,5.977699468085106,10.486435326086957,0.0,0.0
76.0,127.0,0.1,6.3744,11.2111,0.0,0.0
76.0,127.0,0.3,6.3744,11.2111,0.0,0.0
76.0,127.0,0.7,6.3744,11.2111,0.0,0.0
76.0,127.0,1.0,6.3744,11.2111,0.0,0.0
77.0,1.0,0.1,0.6397184210526315,0.20307162162162162,0.0,0.0
77.0,1.0,0.3,0.6397184210526315,0.20307162162162162,0.0,0.0
77.0,1.0,0.7,0.6397184210526315,0.20307162162162162,0.0,0.0
77.0,1.0,1.0,0.6397184210526315,0.20307162162162162,0.0,0.0
77.0,9.0,0.1,0.7086657894736842,0.4196445945945946,0.0,0.0
77.0,9.0,0.3,0.7086657894736842,0.4196445945945946,0.0,0.0
77.0,9.0,0.7,0.7086657894736842,0.4196445945945946,0.0,0.0
77.0,9.0,1.0,0.7086657894736842,0.4196445945945946,0.0,0.0
77.0,17.0,0.1,0.7776131578947368,0.6362175675675675,0.0,0.0
77.0,17.0,0.3,0.7776131578947368,0.6362175675675675,0.0,0.0
77.0,17.0,0.7,0.7776131578947368,0.6362175675675675,0.0,0.0
77.0,17.0,1.0,0.7776131578947368,0.6362175675675675,0.0,0.0
77.0,25.0,0.1,0.8465605263157895,0.8527905405405405,0.0,0.0
77.0,25.0,0.3,0.8465605263157895,0.8527905405405405,0.0,0.0
77.0,25.0,0.7,0.8465605263157895,0.8527905405405405,0.0,0.0
77.0,25.0,1.0,0.8465605263157895,0.8527905405405405,0.0,0.0
77.0,33.0,0.1,0.915507894736842,1.0693635135135133,0.0,0.0
77.0,33.0,0.3,0.915507894736842,1.0693635135135133,0.0,0.0
77.0,33.0,0.7,0.915507894736842,1.0693635135135133,0.0,0.0
77.0,33.0,1.0,0.915507894736842,1.0693635135135133,0.0,0.0
77.0,41.0,0.1,1.0482556818181819,1.4517749999999998,0.0,0.0
77.0,41.0,0.3,1.0482556818181819,1.4517749999999998,0.0,0.0
77.0,41.0,0.7,1.0482556818181819,1.4517749999999998,0.0,0.0
77.0,41.0,1.0,1.0482556818181819,1.4517749999999998,0.0,0.0
77.0,49.0,0.1,1.2873375,2.000025,0.0,0.0
77.0,49.0,0.3,1.2873375,2.000025,0.0,0.0
77.0,49.0,0.7,1.2873375,2.000025,0.0,0.0
77.0,49.0,1.0,1.2873375,2.000025,0.0,0.0
77.0,57.0,0.1,1.6481845588235293,2.70939,0.0,0.0
77.0,57.0,0.3,1.6481845588235293,2.70939,0.0,0.0
77.0,57.0,0.7,1.6481845588235293,2.70939,0.0,0.0
77.0,57.0,1.0,1.6481845588235293,2.70939,0.0,0.0
77.0,65.0,0.1,2.0090316176470586,3.6038075,0.0,0.0
77.0,65.0,0.3,2.0090316176470586,3.6038075,0.0,0.0
77.0,65.0,0.7,2.0090316176470586,3.6038075,0.0,0.0
77.0,65.0,1.0,2.0090316176470586,3.6038075,0.0,0.0
77.0,73.0,0.1,2.660525,4.6295725,0.0,0.0
77.0,73.0,0.3,2.660525,4.6295725,0.0,0.0
77.0,73.0,0.7,2.660525,4.6295725,0.0,0.0
77.0,73.0,1.0,2.660525,4.6295725,0.0,0.0
77.0,81.0,0.1,3.333029255319149,5.6553375,0.0,0.0
77.0,81.0,0.3,3.333029255319149,5.6553375,0.0,0.0
77.0,81.0,0.7,3.333029255319149,5.6553375,0.0,0.0
77.0,81.0,1.0,3.333029255319149,5.6553375,0.0,0.0
77.0,89.0,0.1,3.8619632978723404,6.621557065217392,0.0,0.0
77.0,89.0,0.3,3.8619632978723404,6.621557065217392,0.0,0.0
77.0,89.0,0.7,3.8619632978723404,6.621557065217392,0.0,0.0
77.0,89.0,1.0,3.8619632978723404,6.621557065217392,0.0,0.0
77.0,97.0,0.1,4.390897340425532,7.5877766304347825,0.0,0.0
77.0,97.0,0.3,4.390897340425532,7.5877766304347825,0.0,0.0
77.0,97.0,0.7,4.390897340425532,7.5877766304347825,0.0,0.0
77.0,97.0,1.0,4.390897340425532,7.5877766304347825,0.0,0.0
77.0,105.0,0.1,4.919831382978723,8.553996195652175,0.0,0.0
77.0,105.0,0.3,4.919831382978723,8.553996195652175,0.0,0.0
77.0,105.0,0.7,4.919831382978723,8.553996195652175,0.0,0.0
77.0,105.0,1.0,4.919831382978723,8.553996195652175,0.0,0.0
77.0,113.0,0.1,5.448765425531915,9.520215760869565,0.0,0.0
77.0,113.0,0.3,5.448765425531915,9.520215760869565,0.0,0.0
77.0,113.0,0.7,5.448765425531915,9.520215760869565,0.0,0.0
77.0,113.0,1.0,5.448765425531915,9.520215760869565,0.0,0.0
77.0,121.0,0.1,5.977699468085106,10.486435326086957,0.0,0.0
77.0,121.0,0.3,5.977699468085106,10.486435326086957,0.0,0.0
77.0,121.0,0.7,5.977699468085106,10.486435326086957,0.0,0.0
77.0,121.0,1.0,5.977699468085106,10.486435326086957,0.0,0.0
77.0,127.0,0.1,6.3744,11.2111,0.0,0.0
77.0,127.0,0.3,6.3744,11.2111,0.0,0.0
77.0,127.0,0.7,6.3744,11.2111,0.0,0.0
77.0,127.0,1.0,6.3744,11.2111,0.0,0.0
78.0,1.0,0.1,0.6397184210526315,0.20235921052631578,0.0,0.0
78.0,1.0,0.3,0.6397184210526315,0.20235921052631578,0.0,0.0
78.0,1.0,0.7,0.6397184210526315,0.20235921052631578,0.0,0.0
78.0,1.0,1.0,0.6397184210526315,0.20235921052631578,0.0,0.0
78.0,9.0,0.1,0.7086657894736842,0.4132328947368421,0.0,0.0
78.0,9.0,0.3,0.7086657894736842,0.4132328947368421,0.0,0.0
78.0,9.0,0.7,0.7086657894736842,0.4132328947368421,0.0,0.0
78.0,9.0,1.0,0.7086657894736842,0.4132328947368421,0.0,0.0
78.0,17.0,0.1,0.7776131578947368,0.6241065789473683,0.0,0.0
78.0,17.0,0.3,0.7776131578947368,0.6241065789473683,0.0,0.0
78.0,17.0,0.7,0.7776131578947368,0.6241065789473683,0.0,0.0
78.0,17.0,1.0,0.7776131578947368,0.6241065789473683,0.0,0.0
78.0,25.0,0.1,0.8465605263157895,0.8349802631578946,0.0,0.0
78.0,25.0,0.3,0.8465605263157895,0.8349802631578946,0.0,0.0
78.0,25.0,0.7,0.8465605263157895,0.8349802631578946,0.0,0.0
78.0,25.0,1.0,0.8465605263157895,0.8349802631578946,0.0,0.0
78.0,33.0,0.1,0.915507894736842,1.045853947368421,0.0,0.0
78.0,33.0,0.3,0.915507894736842,1.045853947368421,0.0,0.0
78.0,33.0,0.7,0.915507894736842,1.045853947368421,0.0,0.0
78.0,33.0,1.0,0.915507894736842,1.045853947368421,0.0,0.0
78.0,41.0,0.1,1.040784375,1.3832437499999999,0.0,0.0
78.0,41.0,0.3,1.040784375,1.3832437499999999,0.0,0.0
78.0,41.0,0.7,1.040784375,1.3832437499999999,0.0,0.0
78.0,41.0,1.0,1.040784375,1.3832437499999999,0.0,0.0
78.0,49.0,0.1,1.2599427083333334,1.93149375,0.0,0.0
78.0,49.0,0.3,1.2599427083333334,1.93149375,0.0,0.0
78.0,49.0,0.7,1.2599427083333334,1.93149375,0.0,0.0
78.0,49.0,1.0,1.2599427083333334,1.93149375,0.0,0.0
78.0,57.0,0.1,1.6030786764705882,2.6669972222222222,0.0,0.0
78.0,57.0,0.3,1.6030786764705882,2.6669972222222222,0.0,0.0
78.0,57.0,0.7,1.6030786764705882,2.6669972222222222,0.0,0.0
78.0,57.0,1.0,1.6030786764705882,2.6669972222222222,0.0,0.0
78.0,65.0,0.1,1.9639257352941175,3.6038075,0.0,0.0
78.0,65.0,0.3,1.9639257352941175,3.6038075,0.0,0.0
78.0,65.0,0.7,1.9639257352941175,3.6038075,0.0,0.0
78.0,65.0,1.0,1.9639257352941175,3.6038075,0.0,0.0
78.0,73.0,0.1,2.6138798076923075,4.6295725,0.0,0.0
78.0,73.0,0.3,2.6138798076923075,4.6295725,0.0,0.0
78.0,73.0,0.7,2.6138798076923075,4.6295725,0.0,0.0
78.0,73.0,1.0,2.6138798076923075,4.6295725,0.0,0.0
78.0,81.0,0.1,3.333029255319149,5.6553375,0.0,0.0
78.0,81.0,0.3,3.333029255319149,5.6553375,0.0,0.0
78.0,81.0,0.7,3.333029255319149,5.6553375,0.0,0.0
78.0,81.0,1.0,3.333029255319149,5.6553375,0.0,0.0
78.0,89.0,0.1,3.8619632978723404,6.621557065217392,0.0,0.0
78.0,89.0,0.3,3.8619632978723404,6.621557065217392,0.0,0.0
78.0,89.0,0.7,3.8619632978723404,6.621557065217392,0.0,0.0
78.0,89.0,1.0,3.8619632978723404,6.621557065217392,0.0,0.0
78.0,97.0,0.1,4.390897340425532,7.5877766304347825,0.0,0.0
78.0,97.0,0.3,4.390897340425532,7.5877766304347825,0.0,0.0
78.0,97.0,0.7,4.390897340425532,7.5877766304347825,0.0,0.0
78.0,97.0,1.0,4.390897340425532,7.5877766304347825,0.0,0.0
78.0,105.0,0.1,4.919831382978723,8.553996195652175,0.0,0.0
78.0,105.0,0.3,4.919831382978723,8.553996195652175,0.0,0.0
78.0,105.0,0.7,4.919831382978723,8.553996195652175,0.0,0.0
78.0,105.0,1.0,4.919831382978723,8.553996195652175,0.0,0.0
78.0,113.0,0.1,5.448765425531915,9.520215760869565,0.0,0.0
78.0,113.0,0.3,5.448765425531915,9.520215760869565,0.0,0.0
78.0,113.0,0.7,5.448765425531915,9.520215760869565,0.0,0.0
78.0,113.0,1.0,5.448765425531915,9.520215760869565,0.0,0.0
78.0,121.0,0.1,5.977699468085106,10.486435326086957,0.0,0.0
78.0,121.0,0.3,5.977699468085106,10.486435326086957,0.0,0.0
78.0,121.0,0.7,5.977699468085106,10.486435326086957,0.0,0.0
78.0,121.0,1.0,5.977699468085106,10.486435326086957,0.0,0.0
78.0,127.0,0.1,6.3744,11.2111,0.0,0.0
78.0,127.0,0.3,6.3744,11.2111,0.0,0.0
78.0,127.0,0.7,6.3744,11.2111,0.0,0.0
78.0,127.0,1.0,6.3744,11.2111,0.0,0.0
79.0,1.0,0.1,0.6394974358974359,0.20168333333333333,0.0,0.0
79.0,1.0,0.3,0.6394974358974359,0.20168333333333333,0.0,0.0
79.0,1.0,0.7,0.6394974358974359,0.20168333333333333,0.0,0.0
79.0,1.0,1.0,0.6394974358974359,0.20168333333333333,0.0,0.0
79.0,9.0,0.1,0.7066769230769231,0.40715,0.0,0.0
79.0,9.0,0.3,0.7066769230769231,0.40715,0.0,0.0
79.0,9.0,0.7,0.7066769230769231,0.40715,0.0,0.0
79.0,9.0,1.0,0.7066769230769231,0.40715,0.0,0.0
79.0,17.0,0.1,0.7738564102564103,0.6126166666666666,0.0,0.0
79.0,17.0,0.3,0.7738564102564103,0.6126166666666666,0.0,0.0
79.0,17.0,0.7,0.7738564102564103,0.6126166666666666,0.0,0.0
79.0,17.0,1.0,0.7738564102564103,0.6126166666666666,0.0,0.0
79.0,25.0,0.1,0.8410358974358975,0.8180833333333333,0.0,0.0
79.0,25.0,0.3,0.8410358974358975,0.8180833333333333,0.0,0.0
79.0,25.0,0.7,0.8410358974358975,0.8180833333333333,0.0,0.0
79.0,25.0,1.0,0.8410358974358975,0.8180833333333333,0.0,0.0
79.0,33.0,0.1,0.9082153846153846,1.02355,0.0,0.0
79.0,33.0,0.3,0.9082153846153846,1.02355,0.0,0.0
79.0,33.0,0.7,0.9082153846153846,1.02355,0.0,0.0
79.0,33.0,1.0,0.9082153846153846,1.02355,0.0,0.0
79.0,41.0,0.1,1.0133895833333333,1.3147125,0.0,0.0
79.0,41.0,0.3,1.0133895833333333,1.3147125,0.0,0.0
79.0,41.0,0.7,1.0133895833333333,1.3147125,0.0,0.0
79.0,41.0,1.0,1.0133895833333333,1.3147125,0.0,0.0
79.0,49.0,0.1,1.2325479166666666,1.8629624999999999,0.0,0.0
79.0,49.0,0.3,1.2325479166666666,1.8629624999999999,0.0,0.0
79.0,49.0,0.7,1.2325479166666666,1.8629624999999999,0.0,0.0
79.0,49.0,1.0,1.2325479166666666,1.8629624999999999,0.0,0.0
79.0,57.0,0.1,1.557972794117647,2.5610152777777775,0.0,0.0
79.0,57.0,0.3,1.557972794117647,2.5610152777777775,0.0,0.0
79.0,57.0,0.7,1.557972794117647,2.5610152777777775,0.0,0.0
79.0,57.0,1.0,1.557972794117647,2.5610152777777775,0.0,0.0
79.0,65.0,0.1,1.9188198529411764,3.495832236842105,0.0,0.0
79.0,65.0,0.3,1.9188198529411764,3.495832236842105,0.0,0.0
79.0,65.0,0.7,1.9188198529411764,3.495832236842105,0.0,0.0
79.0,65.0,1.0,1.9188198529411764,3.495832236842105,0.0,0.0
79.0,73.0,0.1,2.520589423076923,4.5755848684210525,0.0,0.0
79.0,73.0,0.3,2.520589423076923,4.5755848684210525,0.0,0.0
79.0,73.0,0.7,2.520589423076923,4.5755848684210525,0.0,0.0
79.0,73.0,1.0,2.520589423076923,4.5755848684210525,0.0,0.0
79.0,81.0,0.1,3.2669125,5.6553375,0.0,0.0
79.0,81.0,0.3,3.2669125,5.6553375,0.0,0.0
79.0,81.0,0.7,3.2669125,5.6553375,0.0,0.0
79.0,81.0,1.0,3.2669125,5.6553375,0.0,0.0
79.0,89.0,0.1,3.8073451086956522,6.621557065217392,0.0,0.0
79.0,89.0,0.3,3.8073451086956522,6.621557065217392,0.0,0.0
79.0,89.0,0.7,3.8073451086956522,6.621557065217392,0.0,0.0
79.0,89.0,1.0,3.8073451086956522,6.621557065217392,0.0,0.0
79.0,97.0,0.1,4.347777717391304,7.5877766304347825,0.0,0.0
79.0,97.0,0.3,4.347777717391304,7.5877766304347825,0.0,0.0
79.0,97.0,0.7,4.347777717391304,7.5877766304347825,0.0,0.0
79.0,97.0,1.0,4.347777717391304,7.5877766304347825,0.0,0.0
79.0,105.0,0.1,4.8882103260869565,8.553996195652175,0.0,0.0
79.0,105.0,0.3,4.8882103260869565,8.553996195652175,0.0,0.0
79.0,105.0,0.7,4.8882103260869565,8.553996195652175,0.0,0.0
79.0,105.0,1.0,4.8882103260869565,8.553996195652175,0.0,0.0
79.0,113.0,0.1,5.428642934782609,9.520215760869565,0.0,0.0
79.0,113.0,0.3,5.428642934782609,9.520215760869565,0.0,0.0
79.0,113.0,0.7,5.428642934782609,9.520215760869565,0.0,0.0
79.0,113.0,1.0,5.428642934782609,9.520215760869565,0.0,0.0
79.0,121.0,0.1,5.969075543478261,10.486435326086957,0.0,0.0
79.0,121.0,0.3,5.969075543478261,10.486435326086957,0.0,0.0
79.0,121.0,0.7,5.969075543478261,10.486435326086957,0.0,0.0
79.0,121.0,1.0,5.969075543478261,10.486435326086957,0.0,0.0
79.0,127.0,0.1,6.3744,11.2111,0.0,0.0
79.0,127.0,0.3,6.3744,11.2111,0.0,0.0
79.0,127.0,0.7,6.3744,11.2111,0.0,0.0
79.0,127.0,1.0,6.3744,11.2111,0.0,0.0
80.0,1.0,0.1,0.6394974358974359,0.20104124999999998,0.0,0.0
80.0,1.0,0.3,0.6394974358974359,0.20104124999999998,0.0,0.0
80.0,1.0,0.7,0.6394974358974359,0.20104124999999998,0.0,0.0
80.0,1.0,1.0,0.6394974358974359,0.20104124999999998,0.0,0.0
80.0,9.0,0.1,0.7066769230769231,0.40137124999999996,0.0,0.0
80.0,9.0,0.3,0.7066769230769231,0.40137124999999996,0.0,0.0
80.0,9.0,0.7,0.7066769230769231,0.40137124999999996,0.0,0.0
80.0,9.0,1.0,0.7066769230769231,0.40137124999999996,0.0,0.0
80.0,17.0,0.1,0.7738564102564103,0.60170125,0.0,0.0
80.0,17.0,0.3,0.7738564102564103,0.60170125,0.0,0.0
80.0,17.0,0.7,0.7738564102564103,0.60170125,0.0,0.0
80.0,17.0,1.0,0.7738564102564103,0.60170125,0.0,0.0
80.0,25.0,0.1,0.8410358974358975,0.80203125,0.0,0.0
80.0,25.0,0.3,0.8410358974358975,0.80203125,0.0,0.0
80.0,25.0,0.7,0.8410358974358975,0.80203125,0.0,0.0
80.0,25.0,1.0,0.8410358974358975,0.80203125,0.0,0.0
80.0,33.0,0.1,0.9082153846153846,1.0023612499999999,0.0,0.0
80.0,33.0,0.3,0.9082153846153846,1.0023612499999999,0.0,0.0
80.0,33.0,0.7,0.9082153846153846,1.0023612499999999,0.0,0.0
80.0,33.0,1.0,0.9082153846153846,1.0023612499999999,0.0,0.0
80.0,41.0,0.1,1.0133895833333333,1.2461812499999998,0.0,0.0
80.0,41.0,0.3,1.0133895833333333,1.2461812499999998,0.0,0.0
80.0,41.0,0.7,1.0133895833333333,1.2461812499999998,0.0,0.0
80.0,41.0,1.0,1.0133895833333333,1.2461812499999998,0.0,0.0
80.0,49.0,0.1,1.2325479166666666,1.79443125,0.0,0.0
80.0,49.0,0.3,1.2325479166666666,1.79443125,0.0,0.0
80.0,49.0,0.7,1.2325479166666666,1.79443125,0.0,0.0
80.0,49.0,1.0,1.2325479166666666,1.79443125,0.0,0.0
80.0,57.0,0.1,1.5429375,2.4947765625,0.0,0.0
80.0,57.0,0.3,1.5429375,2.4947765625,0.0,0.0
80.0,57.0,0.7,1.5429375,2.4947765625,0.0,0.0
80.0,57.0,1.0,1.5429375,2.4947765625,0.0,0.0
80.0,65.0,0.1,1.8837375,3.495832236842105,0.0,0.0
80.0,65.0,0.3,1.8837375,3.495832236842105,0.0,0.0
80.0,65.0,0.7,1.8837375,3.495832236842105,0.0,0.0
80.0,65.0,1.0,1.8837375,3.495832236842105,0.0,0.0
80.0,73.0,0.1,2.4583958333333333,4.5755848684210525,0.0,0.0
80.0,73.0,0.3,2.4583958333333333,4.5755848684210525,0.0,0.0
80.0,73.0,0.7,2.4583958333333333,4.5755848684210525,0.0,0.0
80.0,73.0,1.0,2.4583958333333333,4.5755848684210525,0.0,0.0
80.0,81.0,0.1,3.2669125,5.6553375,0.0,0.0
80.0,81.0,0.3,3.2669125,5.6553375,0.0,0.0
80.0,81.0,0.7,3.2669125,5.6553375,0.0,0.0
80.0,81.0,1.0,3.2669125,5.6553375,0.0,0.0
80.0,89.0,0.1,3.8073451086956522,6.621557065217392,0.0,0.0
80.0,89.0,0.3,3.8073451086956522,6.621557065217392,0.0,0.0
80.0,89.0,0.7,3.8073451086956522,6.621557065217392,0.0,0.0
80.0,89.0,1.0,3.8073451086956522,6.621557065217392,0.0,0.0
80.0,97.0,0.1,4.347777717391304,7.5877766304347825,0.0,0.0
80.0,97.0,0.3,4.347777717391304,7.5877766304347825,0.0,0.0
80.0,97.0,0.7,4.347777717391304,7.5877766304347825,0.0,0.0
80.0,97.0,1.0,4.347777717391304,7.5877766304347825,0.0,0.0
80.0,105.0,0.1,4.8882103260869565,8.553996195652175,0.0,0.0
80.0,105.0,0.3,4.8882103260869565,8.553996195652175,0.0,0.0
80.0,105.0,0.7,4.8882103260869565,8.553996195652175,0.0,0.0
80.0,105.0,1.0,4.8882103260869565,8.553996195652175,0.0,0.0
80.0,113.0,0.1,5.428642934782609,9.520215760869565,0.0,0.0
80.0,113.0,0.3,5.428642934782609,9.520215760869565,0.0,0.0
80.0,113.0,0.7,5.428642934782609,9.520215760869565,0.0,0.0
80.0,113.0,1.0,5.428642934782609,9.520215760869565,0.0,0.0
80.0,121.0,0.1,5.969075543478261,10.486435326086957,0.0,0.0
80.0,121.0,0.3,5.969075543478261,10.486435326086957,0.0,0.0
80.0,121.0,0.7,5.969075543478261,10.486435326086957,0.0,0.0
80.0,121.0,1.0,5.969075543478261,10.486435326086957,0.0,0.0
80.0,127.0,0.1,6.3744,11.2111,0.0,0.0
80.0,127.0,0.3,6.3744,11.2111,0.0,0.0
80.0,127.0,0.7,6.3744,11.2111,0.0,0.0
80.0,127.0,1.0,6.3744,11.2111,0.0,0.0
81.0,1.0,0.1,0.6392875,0.20043048780487804,0.0,0.0
81.0,1.0,0.3,0.6392875,0.20043048780487804,0.0,0.0
81.0,1.0,0.7,0.6392875,0.20043048780487804,0.0,0.0
81.0,1.0,1.0,0.6392875,0.20043048780487804,0.0,0.0
81.0,9.0,0.1,0.7047875,0.3958743902439024,0.0,0.0
81.0,9.0,0.3,0.7047875,0.3958743902439024,0.0,0.0
81.0,9.0,0.7,0.7047875,0.3958743902439024,0.0,0.0
81.0,9.0,1.0,0.7047875,0.3958743902439024,0.0,0.0
81.0,17.0,0.1,0.7702875,0.5913182926829268,0.0,0.0
81.0,17.0,0.3,0.7702875,0.5913182926829268,0.0,0.0
81.0,17.0,0.7,0.7702875,0.5913182926829268,0.0,0.0
81.0,17.0,1.0,0.7702875,0.5913182926829268,0.0,0.0
81.0,25.0,0.1,0.8357875,0.7867621951219512,0.0,0.0
81.0,25.0,0.3,0.8357875,0.7867621951219512,0.0,0.0
81.0,25.0,0.7,0.8357875,0.7867621951219512,0.0,0.0
81.0,25.0,1.0,0.8357875,0.7867621951219512,0.0,0.0
81.0,33.0,0.1,0.9012875,0.9822060975609754,0.0,0.0
81.0,33.0,0.3,0.9012875,0.9822060975609754,0.0,0.0
81.0,33.0,0.7,0.9012875,0.9822060975609754,0.0,0.0
81.0,33.0,1.0,0.9012875,0.9822060975609754,0.0,0.0
81.0,41.0,0.1,0.9859947916666667,1.1776499999999999,0.0,0.0
81.0,41.0,0.3,0.9859947916666667,1.1776499999999999,0.0,0.0
81.0,41.0,0.7,0.9859947916666667,1.1776499999999999,0.0,0.0
81.0,41.0,1.0,0.9859947916666667,1.1776499999999999,0.0,0.0
81.0,49.0,0.1,1.205153125,1.7258999999999998,0.0,0.0
81.0,49.0,0.3,1.205153125,1.7258999999999998,0.0,0.0
81.0,49.0,0.7,1.205153125,1.7258999999999998,0.0,0.0
81.0,49.0,1.0,1.205153125,1.7258999999999998,0.0,0.0
81.0,57.0,0.1,1.5003375,2.4096124999999997,0.0,0.0
81.0,57.0,0.3,1.5003375,2.4096124999999997,0.0,0.0
81.0,57.0,0.7,1.5003375,2.4096124999999997,0.0,0.0
81.0,57.0,1.0,1.5003375,2.4096124999999997,0.0,0.0
81.0,65.0,0.1,1.8411374999999999,3.495832236842105,0.0,0.0
81.0,65.0,0.3,1.8411374999999999,3.495832236842105,0.0,0.0
81.0,65.0,0.7,1.8411374999999999,3.495832236842105,0.0,0.0
81.0,65.0,1.0,1.8411374999999999,3.495832236842105,0.0,0.0
81.0,73.0,0.1,2.3848943181818183,4.5755848684210525,0.0,0.0
81.0,73.0,0.3,2.3848943181818183,4.5755848684210525,0.0,0.0
81.0,73.0,0.7,2.3848943181818183,4.5755848684210525,0.0,0.0
81.0,73.0,1.0,2.3848943181818183,4.5755848684210525,0.0,0.0
81.0,81.0,0.1,3.2669125,5.6553375,0.0,0.0
81.0,81.0,0.3,3.2669125,5.6553375,0.0,0.0
81.0,81.0,0.7,3.2669125,5.6553375,0.0,0.0
81.0,81.0,1.0,3.2669125,5.6553375,0.0,0.0
81.0,89.0,0.1,3.8073451086956522,6.621557065217392,0.0,0.0
81.0,89.0,0.3,3.8073451086956522,6.621557065217392,0.0,0.0
81.0,89.0,0.7,3.8073451086956522,6.621557065217392,0.0,0.0
81.0,89.0,1.0,3.8073451086956522,6.621557065217392,0.0,0.0
81.0,97.0,0.1,4.347777717391304,7.5877766304347825,0.0,0.0
81.0,97.0,0.3,4.347777717391304,7.5877766304347825,0.0,0.0
81.0,97.0,0.7,4.347777717391304,7.5877766304347825,0.0,0.0
81.0,97.0,1.0,4.347777717391304,7.5877766304347825,0.0,0.0
81.0,105.0,0.1,4.8882103260869565,8.553996195652175,0.0,0.0
81.0,105.0,0.3,4.8882103260869565,8.553996195652175,0.0,0.0
81.0,105.0,0.7,4.8882103260869565,8.553996195652175,0.0,0.0
81.0,105.0,1.0,4.8882103260869565,8.553996195652175,0.0,0.0
81.0,113.0,0.1,5.428642934782609,9.520215760869565,0.0,0.0
81.0,113.0,0.3,5.428642934782609,9.520215760869565,0.0,0.0
81.0,113.0,0.7,5.428642934782609,9.520215760869565,0.0,0.0
81.0,113.0,1.0,5.428642934782609,9.520215760869565,0.0,0.0
81.0,121.0,0.1,5.969075543478261,10.486435326086957,0.0,0.0
81.0,121.0,0.3,5.969075543478261,10.486435326086957,0.0,0.0
81.0,121.0,0.7,5.969075543478261,10.486435326086957,0.0,0.0
81.0,121.0,1.0,5.969075543478261,10.486435326086957,0.0,0.0
81.0,127.0,0.1,6.3744,11.2111,0.0,0.0
81.0,127.0,0.3,6.3744,11.2111,0.0,0.0
81.0,127.0,0.7,6.3744,11.2111,0.0,0.0
81.0,127.0,1.0,6.3744,11.2111,0.0,0.0
82.0,1.0,0.1,0.6390878048780487,0.20043048780487804,0.0,0.0
82.0,1.0,0.3,0.6390878048780487,0.20043048780487804,0.0,0.0
82.0,1.0,0.7,0.6390878048780487,0.20043048780487804,0.0,0.0
82.0,1.0,1.0,0.6390878048780487,0.20043048780487804,0.0,0.0
82.0,9.0,0.1,0.702990243902439,0.3958743902439024,0.0,0.0
82.0,9.0,0.3,0.702990243902439,0.3958743902439024,0.0,0.0
82.0,9.0,0.7,0.702990243902439,0.3958743902439024,0.0,0.0
82.0,9.0,1.0,0.702990243902439,0.3958743902439024,0.0,0.0
82.0,17.0,0.1,0.7668926829268292,0.5913182926829268,0.0,0.0
82.0,17.0,0.3,0.7668926829268292,0.5913182926829268,0.0,0.0
82.0,17.0,0.7,0.7668926829268292,0.5913182926829268,0.0,0.0
82.0,17.0,1.0,0.7668926829268292,0.5913182926829268,0.0,0.0
82.0,25.0,0.1,0.8307951219512195,0.7867621951219512,0.0,0.0
82.0,25.0,0.3,0.8307951219512195,0.7867621951219512,0.0,0.0
82.0,25.0,0.7,0.8307951219512195,0.7867621951219512,0.0,0.0
82.0,25.0,1.0,0.8307951219512195,0.7867621951219512,0.0,0.0
82.0,33.0,0.1,0.8946975609756098,0.9822060975609754,0.0,0.0
82.0,33.0,0.3,0.8946975609756098,0.9822060975609754,0.0,0.0
82.0,33.0,0.7,0.8946975609756098,0.9822060975609754,0.0,0.0
82.0,33.0,1.0,0.8946975609756098,0.9822060975609754,0.0,0.0
82.0,41.0,0.1,0.9586,1.1776499999999999,0.0,0.0
82.0,41.0,0.3,0.9586,1.1776499999999999,0.0,0.0
82.0,41.0,0.7,0.9586,1.1776499999999999,0.0,0.0
82.0,41.0,1.0,0.9586,1.1776499999999999,0.0,0.0
82.0,49.0,0.1,1.1777583333333332,1.7680730769230768,0.0,0.0
82.0,49.0,0.3,1.1777583333333332,1.7680730769230768,0.0,0.0
82.0,49.0,0.7,1.1777583333333332,1.7680730769230768,0.0,0.0
82.0,49.0,1.0,1.1777583333333332,1.7680730769230768,0.0,0.0
82.0,57.0,0.1,1.4577375,2.4947765625,0.0,0.0
82.0,57.0,0.3,1.4577375,2.4947765625,0.0,0.0
82.0,57.0,0.7,1.4577375,2.4947765625,0.0,0.0
82.0,57.0,1.0,1.4577375,2.4947765625,0.0,0.0
82.0,65.0,0.1,1.7985375000000001,3.495832236842105,0.0,0.0
82.0,65.0,0.3,1.7985375000000001,3.495832236842105,0.0,0.0
82.0,65.0,0.7,1.7985375000000001,3.495832236842105,0.0,0.0
82.0,65.0,1.0,1.7985375000000001,3.495832236842105,0.0,0.0
82.0,73.0,0.1,2.2966925,4.5755848684210525,0.0,0.0
82.0,73.0,0.3,2.2966925,4.5755848684210525,0.0,0.0
82.0,73.0,0.7,2.2966925,4.5755848684210525,0.0,0.0
82.0,73.0,1.0,2.2966925,4.5755848684210525,0.0,0.0
82.0,81.0,0.1,3.2669125,5.6553375,0.0,0.0
82.0,81.0,0.3,3.2669125,5.6553375,0.0,0.0
82.0,81.0,0.7,3.2669125,5.6553375,0.0,0.0
82.0,81.0,1.0,3.2669125,5.6553375,0.0,0.0
82.0,89.0,0.1,3.8073451086956522,6.621557065217392,0.0,0.0
82.0,89.0,0.3,3.8073451086956522,6.621557065217392,0.0,0.0
82.0,89.0,0.7,3.8073451086956522,6.621557065217392,0.0,0.0
82.0,89.0,1.0,3.8073451086956522,6.621557065217392,0.0,0.0
82.0,97.0,0.1,4.347777717391304,7.5877766304347825,0.0,0.0
82.0,97.0,0.3,4.347777717391304,7.5877766304347825,0.0,0.0
82.0,97.0,0.7,4.347777717391304,7.5877766304347825,0.0,0.0
82.0,97.0,1.0,4.347777717391304,7.5877766304347825,0.0,0.0
82.0,105.0,0.1,4.8882103260869565,8.553996195652175,0.0,0.0
82.0,105.0,0.3,4.8882103260869565,8.553996195652175,0.0,0.0
82.0,105.0,0.7,4.8882103260869565,8.553996195652175,0.0,0.0
82.0,105.0,1.0,4.8882103260869565,8.553996195652175,0.0,0.0
82.0,113.0,0.1,5.428642934782609,9.520215760869565,0.0,0.0
82.0,113.0,0.3,5.428642934782609,9.520215760869565,0.0,0.0
82.0,113.0,0.7,5.428642934782609,9.520215760869565,0.0,0.0
82.0,113.0,1.0,5.428642934782609,9.520215760869565,0.0,0.0
82.0,121.0,0.1,5.969075543478261,10.486435326086957,0.0,0.0
82.0,121.0,0.3,5.969075543478261,10.486435326086957,0.0,0.0
82.0,121.0,0.7,5.969075543478261,10.486435326086957,0.0,0.0
82.0,121.0,1.0,5.969075543478261,10.486435326086957,0.0,0.0
82.0,127.0,0.1,6.3744,11.2111,0.0,0.0
82.0,127.0,0.3,6.3744,11.2111,0.0,0.0
82.0,127.0,0.7,6.3744,11.2111,0.0,0.0
82.0,127.0,1.0,6.3744,11.2111,0.0,0.0
83.0,1.0,0.1,0.638897619047619,0.20104124999999998,0.0,0.0
83.0,1.0,0.3,0.638897619047619,0.20104124999999998,0.0,0.0
83.0,1.0,0.7,0.638897619047619,0.20104124999999998,0.0,0.0
83.0,1.0,1.0,0.638897619047619,0.20104124999999998,0.0,0.0
83.0,9.0,0.1,0.7012785714285714,0.40137124999999996,0.0,0.0
83.0,9.0,0.3,0.7012785714285714,0.40137124999999996,0.0,0.0
83.0,9.0,0.7,0.7012785714285714,0.40137124999999996,0.0,0.0
83.0,9.0,1.0,0.7012785714285714,0.40137124999999996,0.0,0.0
83.0,17.0,0.1,0.7636595238095238,0.60170125,0.0,0.0
83.0,17.0,0.3,0.7636595238095238,0.60170125,0.0,0.0
83.0,17.0,0.7,0.7636595238095238,0.60170125,0.0,0.0
83.0,17.0,1.0,0.7636595238095238,0.60170125,0.0,0.0
83.0,25.0,0.1,0.8260404761904762,0.80203125,0.0,0.0
83.0,25.0,0.3,0.8260404761904762,0.80203125,0.0,0.0
83.0,25.0,0.7,0.8260404761904762,0.80203125,0.0,0.0
83.0,25.0,1.0,0.8260404761904762,0.80203125,0.0,0.0
83.0,33.0,0.1,0.8884214285714286,1.0023612499999999,0.0,0.0
83.0,33.0,0.3,0.8884214285714286,1.0023612499999999,0.0,0.0
83.0,33.0,0.7,0.8884214285714286,1.0023612499999999,0.0,0.0
83.0,33.0,1.0,0.8884214285714286,1.0023612499999999,0.0,0.0
83.0,41.0,0.1,0.9508023809523809,1.2514528846153845,0.0,0.0
83.0,41.0,0.3,0.9508023809523809,1.2514528846153845,0.0,0.0
83.0,41.0,0.7,0.9508023809523809,1.2514528846153845,0.0,0.0
83.0,41.0,1.0,0.9508023809523809,1.2514528846153845,0.0,0.0
83.0,49.0,0.1,1.1356125000000001,1.8418759615384614,0.0,0.0
83.0,49.0,0.3,1.1356125000000001,1.8418759615384614,0.0,0.0
83.0,49.0,0.7,1.1356125000000001,1.8418759615384614,0.0,0.0
83.0,49.0,1.0,1.1356125000000001,1.8418759615384614,0.0,0.0
83.0,57.0,0.1,1.3775492647058825,2.5610152777777775,0.0,0.0
83.0,57.0,0.3,1.3775492647058825,2.5610152777777775,0.0,0.0
83.0,57.0,0.7,1.3775492647058825,2.5610152777777775,0.0,0.0
83.0,57.0,1.0,1.3775492647058825,2.5610152777777775,0.0,0.0
83.0,65.0,0.1,1.7383963235294118,3.495832236842105,0.0,0.0
83.0,65.0,0.3,1.7383963235294118,3.495832236842105,0.0,0.0
83.0,65.0,0.7,1.7383963235294118,3.495832236842105,0.0,0.0
83.0,65.0,1.0,1.7383963235294118,3.495832236842105,0.0,0.0
83.0,73.0,0.1,2.175415,4.5755848684210525,0.0,0.0
83.0,73.0,0.3,2.175415,4.5755848684210525,0.0,0.0
83.0,73.0,0.7,2.175415,4.5755848684210525,0.0,0.0
83.0,73.0,1.0,2.175415,4.5755848684210525,0.0,0.0
83.0,81.0,0.1,3.145635,5.6553375,0.0,0.0
83.0,81.0,0.3,3.145635,5.6553375,0.0,0.0
83.0,81.0,0.7,3.145635,5.6553375,0.0,0.0
83.0,81.0,1.0,3.145635,5.6553375,0.0,0.0
83.0,89.0,0.1,3.7502994444444444,6.621557065217392,0.0,0.0
83.0,89.0,0.3,3.7502994444444444,6.621557065217392,0.0,0.0
83.0,89.0,0.7,3.7502994444444444,6.621557065217392,0.0,0.0
83.0,89.0,1.0,3.7502994444444444,6.621557065217392,0.0,0.0
83.0,97.0,0.1,4.302741666666667,7.5877766304347825,0.0,0.0
83.0,97.0,0.3,4.302741666666667,7.5877766304347825,0.0,0.0
83.0,97.0,0.7,4.302741666666667,7.5877766304347825,0.0,0.0
83.0,97.0,1.0,4.302741666666667,7.5877766304347825,0.0,0.0
83.0,105.0,0.1,4.855183888888889,8.553996195652175,0.0,0.0
83.0,105.0,0.3,4.855183888888889,8.553996195652175,0.0,0.0
83.0,105.0,0.7,4.855183888888889,8.553996195652175,0.0,0.0
83.0,105.0,1.0,4.855183888888889,8.553996195652175,0.0,0.0
83.0,113.0,0.1,5.407626111111111,9.520215760869565,0.0,0.0
83.0,113.0,0.3,5.407626111111111,9.520215760869565,0.0,0.0
83.0,113.0,0.7,5.407626111111111,9.520215760869565,0.0,0.0
83.0,113.0,1.0,5.407626111111111,9.520215760869565,0.0,0.0
83.0,121.0,0.1,5.960068333333333,10.486435326086957,0.0,0.0
83.0,121.0,0.3,5.960068333333333,10.486435326086957,0.0,0.0
83.0,121.0,0.7,5.960068333333333,10.486435326086957,0.0,0.0
83.0,121.0,1.0,5.960068333333333,10.486435326086957,0.0,0.0
83.0,127.0,0.1,6.3744,11.2111,0.0,0.0
83.0,127.0,0.3,6.3744,11.2111,0.0,0.0
83.0,127.0,0.7,6.3744,11.2111,0.0,0.0
83.0,127.0,1.0,6.3744,11.2111,0.0,0.0
84.0,1.0,0.1,0.6387162790697675,0.20104124999999998,0.0,0.0
84.0,1.0,0.3,0.6387162790697675,0.20104124999999998,0.0,0.0
84.0,1.0,0.7,0.6387162790697675,0.20104124999999998,0.0,0.0
84.0,1.0,1.0,0.6387162790697675,0.20104124999999998,0.0,0.0
84.0,9.0,0.1,0.6996465116279069,0.40137124999999996,0.0,0.0
84.0,9.0,0.3,0.6996465116279069,0.40137124999999996,0.0,0.0
84.0,9.0,0.7,0.6996465116279069,0.40137124999999996,0.0,0.0
84.0,9.0,1.0,0.6996465116279069,0.40137124999999996,0.0,0.0
84.0,17.0,0.1,0.7605767441860465,0.60170125,0.0,0.0
84.0,17.0,0.3,0.7605767441860465,0.60170125,0.0,0.0
84.0,17.0,0.7,0.7605767441860465,0.60170125,0.0,0.0
84.0,17.0,1.0,0.7605767441860465,0.60170125,0.0,0.0
84.0,25.0,0.1,0.821506976744186,0.80203125,0.0,0.0
84.0,25.0,0.3,0.821506976744186,0.80203125,0.0,0.0
84.0,25.0,0.7,0.821506976744186,0.80203125,0.0,0.0
84.0,25.0,1.0,0.821506976744186,0.80203125,0.0,0.0
84.0,33.0,0.1,0.8824372093023256,1.0023612499999999,0.0,0.0
84.0,33.0,0.3,0.8824372093023256,1.0023612499999999,0.0,0.0
84.0,33.0,0.7,0.8824372093023256,1.0023612499999999,0.0,0.0
84.0,33.0,1.0,0.8824372093023256,1.0023612499999999,0.0,0.0
84.0,41.0,0.1,0.9433674418604652,1.257603125,0.0,0.0
84.0,41.0,0.3,0.9433674418604652,1.257603125,0.0,0.0
84.0,41.0,0.7,0.9433674418604652,1.257603125,0.0,0.0
84.0,41.0,1.0,0.9433674418604652,1.257603125,0.0,0.0
84.0,49.0,0.1,1.110325,1.8972281249999998,0.0,0.0
84.0,49.0,0.3,1.110325,1.8972281249999998,0.0,0.0
84.0,49.0,0.7,1.110325,1.8972281249999998,0.0,0.0
84.0,49.0,1.0,1.110325,1.8972281249999998,0.0,0.0
84.0,57.0,0.1,1.3324433823529411,2.5706499999999997,0.0,0.0
84.0,57.0,0.3,1.3324433823529411,2.5706499999999997,0.0,0.0
84.0,57.0,0.7,1.3324433823529411,2.5706499999999997,0.0,0.0
84.0,57.0,1.0,1.3324433823529411,2.5706499999999997,0.0,0.0
84.0,65.0,0.1,1.6932904411764707,3.3608631578947366,0.0,0.0
84.0,65.0,0.3,1.6932904411764707,3.3608631578947366,0.0,0.0
84.0,65.0,0.7,1.6932904411764707,3.3608631578947366,0.0,0.0
84.0,65.0,1.0,1.6932904411764707,3.3608631578947366,0.0,0.0
84.0,73.0,0.1,2.0541375,4.440615789473684,0.0,0.0
84.0,73.0,0.3,2.0541375,4.440615789473684,0.0,0.0
84.0,73.0,0.7,2.0541375,4.440615789473684,0.0,0.0
84.0,73.0,1.0,2.0541375,4.440615789473684,0.0,0.0
84.0,81.0,0.1,3.132159722222222,5.520368421052632,0.0,0.0
84.0,81.0,0.3,3.132159722222222,5.520368421052632,0.0,0.0
84.0,81.0,0.7,3.132159722222222,5.520368421052632,0.0,0.0
84.0,81.0,1.0,3.132159722222222,5.520368421052632,0.0,0.0
84.0,89.0,0.1,3.7502994444444444,6.519567222222222,0.0,0.0
84.0,89.0,0.3,3.7502994444444444,6.519567222222222,0.0,0.0
84.0,89.0,0.7,3.7502994444444444,6.519567222222222,0.0,0.0
84.0,89.0,1.0,3.7502994444444444,6.519567222222222,0.0,0.0
84.0,97.0,0.1,4.302741666666667,7.507258333333334,0.0,0.0
84.0,97.0,0.3,4.302741666666667,7.507258333333334,0.0,0.0
84.0,97.0,0.7,4.302741666666667,7.507258333333334,0.0,0.0
84.0,97.0,1.0,4.302741666666667,7.507258333333334,0.0,0.0
84.0,105.0,0.1,4.855183888888889,8.494949444444444,0.0,0.0
84.0,105.0,0.3,4.855183888888889,8.494949444444444,0.0,0.0
84.0,105.0,0.7,4.855183888888889,8.494949444444444,0.0,0.0
84.0,105.0,1.0,4.855183888888889,8.494949444444444,0.0,0.0
84.0,113.0,0.1,5.407626111111111,9.482640555555555,0.0,0.0
84.0,113.0,0.3,5.407626111111111,9.482640555555555,0.0,0.0
84.0,113.0,0.7,5.407626111111111,9.482640555555555,0.0,0.0
84.0,113.0,1.0,5.407626111111111,9.482640555555555,0.0,0.0
84.0,121.0,0.1,5.960068333333333,10.470331666666667,0.0,0.0
84.0,121.0,0.3,5.960068333333333,10.470331666666667,0.0,0.0
84.0,121.0,0.7,5.960068333333333,10.470331666666667,0.0,0.0
84.0,121.0,1.0,5.960068333333333,10.470331666666667,0.0,0.0
84.0,127.0,0.1,6.3744,11.2111,0.0,0.0
84.0,127.0,0.3,6.3744,11.2111,0.0,0.0
84.0,127.0,0.7,6.3744,11.2111,0.0,0.0
84.0,127.0,1.0,6.3744,11.2111,0.0,0.0
85.0,1.0,0.1,0.6385431818181818,0.20104124999999998,0.0,0.0
85.0,1.0,0.3,0.6385431818181818,0.20104124999999998,0.0,0.0
85.0,1.0,0.7,0.6385431818181818,0.20104124999999998,0.0,0.0
85.0,1.0,1.0,0.6385431818181818,0.20104124999999998,0.0,0.0
85.0,9.0,0.1,0.6980886363636364,0.40137124999999996,0.0,0.0
85.0,9.0,0.3,0.6980886363636364,0.40137124999999996,0.0,0.0
85.0,9.0,0.7,0.6980886363636364,0.40137124999999996,0.0,0.0
85.0,9.0,1.0,0.6980886363636364,0.40137124999999996,0.0,0.0
85.0,17.0,0.1,0.7576340909090908,0.60170125,0.0,0.0
85.0,17.0,0.3,0.7576340909090908,0.60170125,0.0,0.0
85.0,17.0,0.7,0.7576340909090908,0.60170125,0.0,0.0
85.0,17.0,1.0,0.7576340909090908,0.60170125,0.0,0.0
85.0,25.0,0.1,0.8171795454545454,0.80203125,0.0,0.0
85.0,25.0,0.3,0.8171795454545454,0.80203125,0.0,0.0
85.0,25.0,0.7,0.8171795454545454,0.80203125,0.0,0.0
85.0,25.0,1.0,0.8171795454545454,0.80203125,0.0,0.0
85.0,33.0,0.1,0.876725,1.0023612499999999,0.0,0.0
85.0,33.0,0.3,0.876725,1.0023612499999999,0.0,0.0
85.0,33.0,0.7,0.876725,1.0023612499999999,0.0,0.0
85.0,33.0,1.0,0.876725,1.0023612499999999,0.0,0.0
85.0,41.0,0.1,0.9362704545454545,1.2648715909090908,0.0,0.0
85.0,41.0,0.3,0.9362704545454545,1.2648715909090908,0.0,0.0
85.0,41.0,0.7,0.9362704545454545,1.2648715909090908,0.0,0.0
85.0,41.0,1.0,0.9362704545454545,1.2648715909090908,0.0,0.0
85.0,49.0,0.1,1.07600625,1.9626443181818178,0.0,0.0
85.0,49.0,0.3,1.07600625,1.9626443181818178,0.0,0.0
85.0,49.0,0.7,1.07600625,1.9626443181818178,0.0,0.0
85.0,49.0,1.0,1.07600625,1.9626443181818178,0.0,0.0
85.0,57.0,0.1,1.26385625,2.61400625,0.0,0.0
85.0,57.0,0.3,1.26385625,2.61400625,0.0,0.0
85.0,57.0,0.7,1.26385625,2.61400625,0.0,0.0
85.0,57.0,1.0,1.26385625,2.61400625,0.0,0.0
85.0,65.0,0.1,1.6228125,3.3608631578947366,0.0,0.0
85.0,65.0,0.3,1.6228125,3.3608631578947366,0.0,0.0
85.0,65.0,0.7,1.6228125,3.3608631578947366,0.0,0.0
85.0,65.0,1.0,1.6228125,3.3608631578947366,0.0,0.0
85.0,73.0,0.1,2.0062125,4.440615789473684,0.0,0.0
85.0,73.0,0.3,2.0062125,4.440615789473684,0.0,0.0
85.0,73.0,0.7,2.0062125,4.440615789473684,0.0,0.0
85.0,73.0,1.0,2.0062125,4.440615789473684,0.0,0.0
85.0,81.0,0.1,3.115315625,5.520368421052632,0.0,0.0
85.0,81.0,0.3,3.115315625,5.520368421052632,0.0,0.0
85.0,81.0,0.7,3.115315625,5.520368421052632,0.0,0.0
85.0,81.0,1.0,3.115315625,5.520368421052632,0.0,0.0
85.0,89.0,0.1,3.7502994444444444,6.519567222222222,0.0,0.0
85.0,89.0,0.3,3.7502994444444444,6.519567222222222,0.0,0.0
85.0,89.0,0.7,3.7502994444444444,6.519567222222222,0.0,0.0
85.0,89.0,1.0,3.7502994444444444,6.519567222222222,0.0,0.0
85.0,97.0,0.1,4.302741666666667,7.507258333333334,0.0,0.0
85.0,97.0,0.3,4.302741666666667,7.507258333333334,0.0,0.0
85.0,97.0,0.7,4.302741666666667,7.507258333333334,0.0,0.0
85.0,97.0,1.0,4.302741666666667,7.507258333333334,0.0,0.0
85.0,105.0,0.1,4.855183888888889,8.494949444444444,0.0,0.0
85.0,105.0,0.3,4.855183888888889,8.494949444444444,0.0,0.0
85.0,105.0,0.7,4.855183888888889,8.494949444444444,0.0,0.0
85.0,105.0,1.0,4.855183888888889,8.494949444444444,0.0,0.0
85.0,113.0,0.1,5.407626111111111,9.482640555555555,0.0,0.0
85.0,113.0,0.3,5.407626111111111,9.482640555555555,0.0,0.0
85.0,113.0,0.7,5.407626111111111,9.482640555555555,0.0,0.0
85.0,113.0,1.0,5.407626111111111,9.482640555555555,0.0,0.0
85.0,121.0,0.1,5.960068333333333,10.470331666666667,0.0,0.0
85.0,121.0,0.3,5.960068333333333,10.470331666666667,0.0,0.0
85.0,121.0,0.7,5.960068333333333,10.470331666666667,0.0,0.0
85.0,121.0,1.0,5.960068333333333,10.470331666666667,0.0,0.0
85.0,127.0,0.1,6.3744,11.2111,0.0,0.0
85.0,127.0,0.3,6.3744,11.2111,0.0,0.0
85.0,127.0,0.7,6.3744,11.2111,0.0,0.0
85.0,127.0,1.0,6.3744,11.2111,0.0,0.0
86.0,1.0,0.1,0.6383777777777778,0.20168333333333333,0.0,0.0
86.0,1.0,0.3,0.6383777777777778,0.20168333333333333,0.0,0.0
86.0,1.0,0.7,0.6383777777777778,0.20168333333333333,0.0,0.0
86.0,1.0,1.0,0.6383777777777778,0.20168333333333333,0.0,0.0
86.0,9.0,0.1,0.6966,0.40715,0.0,0.0
86.0,9.0,0.3,0.6966,0.40715,0.0,0.0
86.0,9.0,0.7,0.6966,0.40715,0.0,0.0
86.0,9.0,1.0,0.6966,0.40715,0.0,0.0
86.0,17.0,0.1,0.7548222222222222,0.6126166666666666,0.0,0.0
86.0,17.0,0.3,0.7548222222222222,0.6126166666666666,0.0,0.0
86.0,17.0,0.7,0.7548222222222222,0.6126166666666666,0.0,0.0
86.0,17.0,1.0,0.7548222222222222,0.6126166666666666,0.0,0.0
86.0,25.0,0.1,0.8130444444444445,0.8180833333333333,0.0,0.0
86.0,25.0,0.3,0.8130444444444445,0.8180833333333333,0.0,0.0
86.0,25.0,0.7,0.8130444444444445,0.8180833333333333,0.0,0.0
86.0,25.0,1.0,0.8130444444444445,0.8180833333333333,0.0,0.0
86.0,33.0,0.1,0.8712666666666666,1.02355,0.0,0.0
86.0,33.0,0.3,0.8712666666666666,1.02355,0.0,0.0
86.0,33.0,0.7,0.8712666666666666,1.02355,0.0,0.0
86.0,33.0,1.0,0.8712666666666666,1.02355,0.0,0.0
86.0,41.0,0.1,0.9294888888888888,1.3520931818181816,0.0,0.0
86.0,41.0,0.3,0.9294888888888888,1.3520931818181816,0.0,0.0
86.0,41.0,0.7,0.9294888888888888,1.3520931818181816,0.0,0.0
86.0,41.0,1.0,0.9294888888888888,1.3520931818181816,0.0,0.0
86.0,49.0,0.1,1.052525,2.049865909090909,0.0,0.0
86.0,49.0,0.3,1.052525,2.049865909090909,0.0,0.0
86.0,49.0,0.7,1.052525,2.049865909090909,0.0,0.0
86.0,49.0,1.0,1.052525,2.049865909090909,0.0,0.0
86.0,57.0,0.1,1.240375,2.6506923076923075,0.0,0.0
86.0,57.0,0.3,1.240375,2.6506923076923075,0.0,0.0
86.0,57.0,0.7,1.240375,2.6506923076923075,0.0,0.0
86.0,57.0,1.0,1.240375,2.6506923076923075,0.0,0.0
86.0,65.0,0.1,1.5748875,3.3608631578947366,0.0,0.0
86.0,65.0,0.3,1.5748875,3.3608631578947366,0.0,0.0
86.0,65.0,0.7,1.5748875,3.3608631578947366,0.0,0.0
86.0,65.0,1.0,1.5748875,3.3608631578947366,0.0,0.0
86.0,73.0,0.1,1.9582875,4.440615789473684,0.0,0.0
86.0,73.0,0.3,1.9582875,4.440615789473684,0.0,0.0
86.0,73.0,0.7,1.9582875,4.440615789473684,0.0,0.0
86.0,73.0,1.0,1.9582875,4.440615789473684,0.0,0.0
86.0,81.0,0.1,2.96371875,5.520368421052632,0.0,0.0
86.0,81.0,0.3,2.96371875,5.520368421052632,0.0,0.0
86.0,81.0,0.7,2.96371875,5.520368421052632,0.0,0.0
86.0,81.0,1.0,2.96371875,5.520368421052632,0.0,0.0
86.0,89.0,0.1,3.6906607954545456,6.519567222222222,0.0,0.0
86.0,89.0,0.3,3.6906607954545456,6.519567222222222,0.0,0.0
86.0,89.0,0.7,3.6906607954545456,6.519567222222222,0.0,0.0
86.0,89.0,1.0,3.6906607954545456,6.519567222222222,0.0,0.0
86.0,97.0,0.1,4.2556585227272725,7.507258333333334,0.0,0.0
86.0,97.0,0.3,4.2556585227272725,7.507258333333334,0.0,0.0
86.0,97.0,0.7,4.2556585227272725,7.507258333333334,0.0,0.0
86.0,97.0,1.0,4.2556585227272725,7.507258333333334,0.0,0.0
86.0,105.0,0.1,4.82065625,8.494949444444444,0.0,0.0
86.0,105.0,0.3,4.82065625,8.494949444444444,0.0,0.0
86.0,105.0,0.7,4.82065625,8.494949444444444,0.0,0.0
86.0,105.0,1.0,4.82065625,8.494949444444444,0.0,0.0
86.0,113.0,0.1,5.385653977272727,9.482640555555555,0.0,0.0
86.0,113.0,0.3,5.385653977272727,9.482640555555555,0.0,0.0
86.0,113.0,0.7,5.385653977272727,9.482640555555555,0.0,0.0
86.0,113.0,1.0,5.385653977272727,9.482640555555555,0.0,0.0
86.0,121.0,0.1,5.950651704545455,10.470331666666667,0.0,0.0
86.0,121.0,0.3,5.950651704545455,10.470331666666667,0.0,0.0
86.0,121.0,0.7,5.950651704545455,10.470331666666667,0.0,0.0
86.0,121.0,1.0,5.950651704545455,10.470331666666667,0.0,0.0
86.0,127.0,0.1,6.3744,11.2111,0.0,0.0
86.0,127.0,0.3,6.3744,11.2111,0.0,0.0
86.0,127.0,0.7,6.3744,11.2111,0.0,0.0
86.0,127.0,1.0,6.3744,11.2111,0.0,0.0
87.0,1.0,0.1,0.6382195652173913,0.20168333333333333,0.0,0.0
87.0,1.0,0.3,0.6382195652173913,0.20168333333333333,0.0,0.0
87.0,1.0,0.7,0.6382195652173913,0.20168333333333333,0.0,0.0
87.0,1.0,1.0,0.6382195652173913,0.20168333333333333,0.0,0.0
87.0,9.0,0.1,0.6951760869565218,0.40715,0.0,0.0
87.0,9.0,0.3,0.6951760869565218,0.40715,0.0,0.0
87.0,9.0,0.7,0.6951760869565218,0.40715,0.0,0.0
87.0,9.0,1.0,0.6951760869565218,0.40715,0.0,0.0
87.0,17.0,0.1,0.7521326086956521,0.6126166666666666,0.0,0.0
87.0,17.0,0.3,0.7521326086956521,0.6126166666666666,0.0,0.0
87.0,17.0,0.7,0.7521326086956521,0.6126166666666666,0.0,0.0
87.0,17.0,1.0,0.7521326086956521,0.6126166666666666,0.0,0.0
87.0,25.0,0.1,0.8090891304347826,0.8180833333333333,0.0,0.0
87.0,25.0,0.3,0.8090891304347826,0.8180833333333333,0.0,0.0
87.0,25.0,0.7,0.8090891304347826,0.8180833333333333,0.0,0.0
87.0,25.0,1.0,0.8090891304347826,0.8180833333333333,0.0,0.0
87.0,33.0,0.1,0.866045652173913,1.02355,0.0,0.0
87.0,33.0,0.3,0.866045652173913,1.02355,0.0,0.0
87.0,33.0,0.7,0.866045652173913,1.02355,0.0,0.0
87.0,33.0,1.0,0.866045652173913,1.02355,0.0,0.0
87.0,41.0,0.1,0.9230021739130435,1.390858333333333,0.0,0.0
87.0,41.0,0.3,0.9230021739130435,1.390858333333333,0.0,0.0
87.0,41.0,0.7,0.9230021739130435,1.390858333333333,0.0,0.0
87.0,41.0,1.0,0.9230021739130435,1.390858333333333,0.0,0.0
87.0,49.0,0.1,1.02904375,2.1967023437499997,0.0,0.0
87.0,49.0,0.3,1.02904375,2.1967023437499997,0.0,0.0
87.0,49.0,0.7,1.02904375,2.1967023437499997,0.0,0.0
87.0,49.0,1.0,1.02904375,2.1967023437499997,0.0,0.0
87.0,57.0,0.1,1.21689375,2.67362109375,0.0,0.0
87.0,57.0,0.3,1.21689375,2.67362109375,0.0,0.0
87.0,57.0,0.7,1.21689375,2.67362109375,0.0,0.0
87.0,57.0,1.0,1.21689375,2.67362109375,0.0,0.0
87.0,65.0,0.1,1.5269625,3.233392361111111,0.0,0.0
87.0,65.0,0.3,1.5269625,3.233392361111111,0.0,0.0
87.0,65.0,0.7,1.5269625,3.233392361111111,0.0,0.0
87.0,65.0,1.0,1.5269625,3.233392361111111,0.0,0.0
87.0,73.0,0.1,1.9103625,4.37313125,0.0,0.0
87.0,73.0,0.3,1.9103625,4.37313125,0.0,0.0
87.0,73.0,0.7,1.9103625,4.37313125,0.0,0.0
87.0,73.0,1.0,1.9103625,4.37313125,0.0,0.0
87.0,81.0,0.1,2.920405357142857,5.512870138888889,0.0,0.0
87.0,81.0,0.3,2.920405357142857,5.512870138888889,0.0,0.0
87.0,81.0,0.7,2.920405357142857,5.512870138888889,0.0,0.0
87.0,81.0,1.0,2.920405357142857,5.512870138888889,0.0,0.0
87.0,89.0,0.1,3.6906607954545456,6.519567222222222,0.0,0.0
87.0,89.0,0.3,3.6906607954545456,6.519567222222222,0.0,0.0
87.0,89.0,0.7,3.6906607954545456,6.519567222222222,0.0,0.0
87.0,89.0,1.0,3.6906607954545456,6.519567222222222,0.0,0.0
87.0,97.0,0.1,4.2556585227272725,7.507258333333334,0.0,0.0
87.0,97.0,0.3,4.2556585227272725,7.507258333333334,0.0,0.0
87.0,97.0,0.7,4.2556585227272725,7.507258333333334,0.0,0.0
87.0,97.0,1.0,4.2556585227272725,7.507258333333334,0.0,0.0
87.0,105.0,0.1,4.82065625,8.494949444444444,0.0,0.0
87.0,105.0,0.3,4.82065625,8.494949444444444,0.0,0.0
87.0,105.0,0.7,4.82065625,8.494949444444444,0.0,0.0
87.0,105.0,1.0,4.82065625,8.494949444444444,0.0,0.0
87.0,113.0,0.1,5.385653977272727,9.482640555555555,0.0,0.0
87.0,113.0,0.3,5.385653977272727,9.482640555555555,0.0,0.0
87.0,113.0,0.7,5.385653977272727,9.482640555555555,0.0,0.0
87.0,113.0,1.0,5.385653977272727,9.482640555555555,0.0,0.0
87.0,121.0,0.1,5.950651704545455,10.470331666666667,0.0,0.0
87.0,121.0,0.3,5.950651704545455,10.470331666666667,0.0,0.0
87.0,121.0,0.7,5.950651704545455,10.470331666666667,0.0,0.0
87.0,121.0,1.0,5.950651704545455,10.470331666666667,0.0,0.0
87.0,127.0,0.1,6.3744,11.2111,0.0,0.0
87.0,127.0,0.3,6.3744,11.2111,0.0,0.0
87.0,127.0,0.7,6.3744,11.2111,0.0,0.0
87.0,127.0,1.0,6.3744,11.2111,0.0,0.0
88.0,1.0,0.1,0.6379229166666667,0.20168333333333333,0.0,0.0
88.0,1.0,0.3,0.6379229166666667,0.20168333333333333,0.0,0.0
88.0,1.0,0.7,0.6379229166666667,0.20168333333333333,0.0,0.0
88.0,1.0,1.0,0.6379229166666667,0.20168333333333333,0.0,0.0
88.0,9.0,0.1,0.69250625,0.40715,0.0,0.0
88.0,9.0,0.3,0.69250625,0.40715,0.0,0.0
88.0,9.0,0.7,0.69250625,0.40715,0.0,0.0
88.0,9.0,1.0,0.69250625,0.40715,0.0,0.0
88.0,17.0,0.1,0.7470895833333333,0.6126166666666666,0.0,0.0
88.0,17.0,0.3,0.7470895833333333,0.6126166666666666,0.0,0.0
88.0,17.0,0.7,0.7470895833333333,0.6126166666666666,0.0,0.0
88.0,17.0,1.0,0.7470895833333333,0.6126166666666666,0.0,0.0
88.0,25.0,0.1,0.8016729166666667,0.8180833333333333,0.0,0.0
88.0,25.0,0.3,0.8016729166666667,0.8180833333333333,0.0,0.0
88.0,25.0,0.7,0.8016729166666667,0.8180833333333333,0.0,0.0
88.0,25.0,1.0,0.8016729166666667,0.8180833333333333,0.0,0.0
88.0,33.0,0.1,0.85625625,1.02355,0.0,0.0
88.0,33.0,0.3,0.85625625,1.02355,0.0,0.0
88.0,33.0,0.7,0.85625625,1.02355,0.0,0.0
88.0,33.0,1.0,0.85625625,1.02355,0.0,0.0
88.0,41.0,0.1,0.9108395833333334,1.4175093749999998,0.0,0.0
88.0,41.0,0.3,0.9108395833333334,1.4175093749999998,0.0,0.0
88.0,41.0,0.7,0.9108395833333334,1.4175093749999998,0.0,0.0
88.0,41.0,1.0,0.9108395833333334,1.4175093749999998,0.0,0.0
88.0,49.0,0.1,0.98208125,2.2493036764705883,0.0,0.0
88.0,49.0,0.3,0.98208125,2.2493036764705883,0.0,0.0
88.0,49.0,0.7,0.98208125,2.2493036764705883,0.0,0.0
88.0,49.0,1.0,0.98208125,2.2493036764705883,0.0,0.0
88.0,57.0,0.1,1.16993125,2.698168382352941,0.0,0.0
88.0,57.0,0.3,1.16993125,2.698168382352941,0.0,0.0
88.0,57.0,0.7,1.16993125,2.698168382352941,0.0,0.0
88.0,57.0,1.0,1.16993125,2.698168382352941,0.0,0.0
88.0,65.0,0.1,1.4311125,3.233392361111111,0.0,0.0
88.0,65.0,0.3,1.4311125,3.233392361111111,0.0,0.0
88.0,65.0,0.7,1.4311125,3.233392361111111,0.0,0.0
88.0,65.0,1.0,1.4311125,3.233392361111111,0.0,0.0
88.0,73.0,0.1,1.8145125,4.37313125,0.0,0.0
88.0,73.0,0.3,1.8145125,4.37313125,0.0,0.0
88.0,73.0,0.7,1.8145125,4.37313125,0.0,0.0
88.0,73.0,1.0,1.8145125,4.37313125,0.0,0.0
88.0,81.0,0.1,2.7818025,5.512870138888889,0.0,0.0
88.0,81.0,0.3,2.7818025,5.512870138888889,0.0,0.0
88.0,81.0,0.7,2.7818025,5.512870138888889,0.0,0.0
88.0,81.0,1.0,2.7818025,5.512870138888889,0.0,0.0
88.0,89.0,0.1,3.6906607954545456,6.519567222222222,0.0,0.0
88.0,89.0,0.3,3.6906607954545456,6.519567222222222,0.0,0.0
88.0,89.0,0.7,3.6906607954545456,6.519567222222222,0.0,0.0
88.0,89.0,1.0,3.6906607954545456,6.519567222222222,0.0,0.0
88.0,97.0,0.1,4.2556585227272725,7.507258333333334,0.0,0.0
88.0,97.0,0.3,4.2556585227272725,7.507258333333334,0.0,0.0
88.0,97.0,0.7,4.2556585227272725,7.507258333333334,0.0,0.0
88.0,97.0,1.0,4.2556585227272725,7.507258333333334,0.0,0.0
88.0,105.0,0.1,4.82065625,8.494949444444444,0.0,0.0
88.0,105.0,0.3,4.82065625,8.494949444444444,0.0,0.0
88.0,105.0,0.7,4.82065625,8.494949444444444,0.0,0.0
88.0,105.0,1.0,4.82065625,8.494949444444444,0.0,0.0
88.0,113.0,0.1,5.385653977272727,9.482640555555555,0.0,0.0
88.0,113.0,0.3,5.385653977272727,9.482640555555555,0.0,0.0
88.0,113.0,0.7,5.385653977272727,9.482640555555555,0.0,0.0
88.0,113.0,1.0,5.385653977272727,9.482640555555555,0.0,0.0
88.0,121.0,0.1,5.950651704545455,10.470331666666667,0.0,0.0
88.0,121.0,0.3,5.950651704545455,10.470331666666667,0.0,0.0
88.0,121.0,0.7,5.950651704545455,10.470331666666667,0.0,0.0
88.0,121.0,1.0,5.950651704545455,10.470331666666667,0.0,0.0
88.0,127.0,0.1,6.3744,11.2111,0.0,0.0
88.0,127.0,0.3,6.3744,11.2111,0.0,0.0
88.0,127.0,0.7,6.3744,11.2111,0.0,0.0
88.0,127.0,1.0,6.3744,11.2111,0.0,0.0
89.0,1.0,0.1,0.6377836734693878,0.20235921052631578,0.0,0.0
89.0,1.0,0.3,0.6377836734693878,0.20235921052631578,0.0,0.0
89.0,1.0,0.7,0.6377836734693878,0.20235921052631578,0.0,0.0
89.0,1.0,1.0,0.6377836734693878,0.20235921052631578,0.0,0.0
89.0,9.0,0.1,0.6912530612244898,0.4132328947368421,0.0,0.0
89.0,9.0,0.3,0.6912530612244898,0.4132328947368421,0.0,0.0
89.0,9.0,0.7,0.6912530612244898,0.4132328947368421,0.0,0.0
89.0,9.0,1.0,0.6912530612244898,0.4132328947368421,0.0,0.0
89.0,17.0,0.1,0.7447224489795918,0.6241065789473683,0.0,0.0
89.0,17.0,0.3,0.7447224489795918,0.6241065789473683,0.0,0.0
89.0,17.0,0.7,0.7447224489795918,0.6241065789473683,0.0,0.0
89.0,17.0,1.0,0.7447224489795918,0.6241065789473683,0.0,0.0
89.0,25.0,0.1,0.7981918367346938,0.8349802631578946,0.0,0.0
89.0,25.0,0.3,0.7981918367346938,0.8349802631578946,0.0,0.0
89.0,25.0,0.7,0.7981918367346938,0.8349802631578946,0.0,0.0
89.0,25.0,1.0,0.7981918367346938,0.8349802631578946,0.0,0.0
89.0,33.0,0.1,0.8516612244897959,1.045853947368421,0.0,0.0
89.0,33.0,0.3,0.8516612244897959,1.045853947368421,0.0,0.0
89.0,33.0,0.7,0.8516612244897959,1.045853947368421,0.0,0.0
89.0,33.0,1.0,0.8516612244897959,1.045853947368421,0.0,0.0
89.0,41.0,0.1,0.905130612244898,1.5374390624999998,0.0,0.0
89.0,41.0,0.3,0.905130612244898,1.5374390624999998,0.0,0.0
89.0,41.0,0.7,0.905130612244898,1.5374390624999998,0.0,0.0
89.0,41.0,1.0,0.905130612244898,1.5374390624999998,0.0,0.0
89.0,49.0,0.1,0.9586,2.2960604166666663,0.0,0.0
89.0,49.0,0.3,0.9586,2.2960604166666663,0.0,0.0
89.0,49.0,0.7,0.9586,2.2960604166666663,0.0,0.0
89.0,49.0,1.0,0.9586,2.2960604166666663,0.0,0.0
89.0,57.0,0.1,1.14645,2.7199881944444444,0.0,0.0
89.0,57.0,0.3,1.14645,2.7199881944444444,0.0,0.0
89.0,57.0,0.7,1.14645,2.7199881944444444,0.0,0.0
89.0,57.0,1.0,1.14645,2.7199881944444444,0.0,0.0
89.0,65.0,0.1,1.3831875,3.233392361111111,0.0,0.0
89.0,65.0,0.3,1.3831875,3.233392361111111,0.0,0.0
89.0,65.0,0.7,1.3831875,3.233392361111111,0.0,0.0
89.0,65.0,1.0,1.3831875,3.233392361111111,0.0,0.0
89.0,73.0,0.1,1.7665875,4.37313125,0.0,0.0
89.0,73.0,0.3,1.7665875,4.37313125,0.0,0.0
89.0,73.0,0.7,1.7665875,4.37313125,0.0,0.0
89.0,73.0,1.0,1.7665875,4.37313125,0.0,0.0
89.0,81.0,0.1,2.5392475,5.512870138888889,0.0,0.0
89.0,81.0,0.3,2.5392475,5.512870138888889,0.0,0.0
89.0,81.0,0.7,2.5392475,5.512870138888889,0.0,0.0
89.0,81.0,1.0,2.5392475,5.512870138888889,0.0,0.0
89.0,89.0,0.1,3.6282482558139537,6.519567222222222,0.0,0.0
89.0,89.0,0.3,3.6282482558139537,6.519567222222222,0.0,0.0
89.0,89.0,0.7,3.6282482558139537,6.519567222222222,0.0,0.0
89.0,89.0,1.0,3.6282482558139537,6.519567222222222,0.0,0.0
89.0,97.0,0.1,4.206385465116279,7.507258333333334,0.0,0.0
89.0,97.0,0.3,4.206385465116279,7.507258333333334,0.0,0.0
89.0,97.0,0.7,4.206385465116279,7.507258333333334,0.0,0.0
89.0,97.0,1.0,4.206385465116279,7.507258333333334,0.0,0.0
89.0,105.0,0.1,4.7845226744186045,8.494949444444444,0.0,0.0
89.0,105.0,0.3,4.7845226744186045,8.494949444444444,0.0,0.0
89.0,105.0,0.7,4.7845226744186045,8.494949444444444,0.0,0.0
89.0,105.0,1.0,4.7845226744186045,8.494949444444444,0.0,0.0
89.0,113.0,0.1,5.36265988372093,9.482640555555555,0.0,0.0
89.0,113.0,0.3,5.36265988372093,9.482640555555555,0.0,0.0
89.0,113.0,0.7,5.36265988372093,9.482640555555555,0.0,0.0
89.0,113.0,1.0,5.36265988372093,9.482640555555555,0.0,0.0
89.0,121.0,0.1,5.940797093023256,10.470331666666667,0.0,0.0
89.0,121.0,0.3,5.940797093023256,10.470331666666667,0.0,0.0
89.0,121.0,0.7,5.940797093023256,10.470331666666667,0.0,0.0
89.0,121.0,1.0,5.940797093023256,10.470331666666667,0.0,0.0
89.0,127.0,0.1,6.3744,11.2111,0.0,0.0
89.0,127.0,0.3,6.3744,11.2111,0.0,0.0
89.0,127.0,0.7,6.3744,11.2111,0.0,0.0
89.0,127.0,1.0,6.3744,11.2111,0.0,0.0
90.0,1.0,0.1,0.63765,0.20235921052631578,0.0,0.0
90.0,1.0,0.3,0.63765,0.20235921052631578,0.0,0.0
90.0,1.0,0.7,0.63765,0.20235921052631578,0.0,0.0
90.0,1.0,1.0,0.63765,0.20235921052631578,0.0,0.0
90.0,9.0,0.1,0.69005,0.4132328947368421,0.0,0.0
90.0,9.0,0.3,0.69005,0.4132328947368421,0.0,0.0
90.0,9.0,0.7,0.69005,0.4132328947368421,0.0,0.0
90.0,9.0,1.0,0.69005,0.4132328947368421,0.0,0.0
90.0,17.0,0.1,0.74245,0.6241065789473683,0.0,0.0
90.0,17.0,0.3,0.74245,0.6241065789473683,0.0,0.0
90.0,17.0,0.7,0.74245,0.6241065789473683,0.0,0.0
90.0,17.0,1.0,0.74245,0.6241065789473683,0.0,0.0
90.0,25.0,0.1,0.7948500000000001,0.8349802631578946,0.0,0.0
90.0,25.0,0.3,0.7948500000000001,0.8349802631578946,0.0,0.0
90.0,25.0,0.7,0.7948500000000001,0.8349802631578946,0.0,0.0
90.0,25.0,1.0,0.7948500000000001,0.8349802631578946,0.0,0.0
90.0,33.0,0.1,0.8472500000000001,1.045853947368421,0.0,0.0
90.0,33.0,0.3,0.8472500000000001,1.045853947368421,0.0,0.0
90.0,33.0,0.7,0.8472500000000001,1.045853947368421,0.0,0.0
90.0,33.0,1.0,0.8472500000000001,1.045853947368421,0.0,0.0
90.0,41.0,0.1,0.8996500000000001,1.5888375,0.0,0.0
90.0,41.0,0.3,0.8996500000000001,1.5888375,0.0,0.0
90.0,41.0,0.7,0.8996500000000001,1.5888375,0.0,0.0
90.0,41.0,1.0,0.8996500000000001,1.5888375,0.0,0.0
90.0,49.0,0.1,0.9520500000000001,2.337895394736842,0.0,0.0
90.0,49.0,0.3,0.9520500000000001,2.337895394736842,0.0,0.0
90.0,49.0,0.7,0.9520500000000001,2.337895394736842,0.0,0.0
90.0,49.0,1.0,0.9520500000000001,2.337895394736842,0.0,0.0
90.0,57.0,0.1,1.1120108333333334,2.739511184210526,0.0,0.0
90.0,57.0,0.3,1.1120108333333334,2.739511184210526,0.0,0.0
90.0,57.0,0.7,1.1120108333333334,2.739511184210526,0.0,0.0
90.0,57.0,1.0,1.1120108333333334,2.739511184210526,0.0,0.0
90.0,65.0,0.1,1.2873375,3.233392361111111,0.0,0.0
90.0,65.0,0.3,1.2873375,3.233392361111111,0.0,0.0
90.0,65.0,0.7,1.2873375,3.233392361111111,0.0,0.0
90.0,65.0,1.0,1.2873375,3.233392361111111,0.0,0.0
90.0,73.0,0.1,1.6962975,4.37313125,0.0,0.0
90.0,73.0,0.3,1.6962975,4.37313125,0.0,0.0
90.0,73.0,0.7,1.6962975,4.37313125,0.0,0.0
90.0,73.0,1.0,1.6962975,4.37313125,0.0,0.0
90.0,81.0,0.1,2.35733125,5.512870138888889,0.0,0.0
90.0,81.0,0.3,2.35733125,5.512870138888889,0.0,0.0
90.0,81.0,0.7,2.35733125,5.512870138888889,0.0,0.0
90.0,81.0,1.0,2.35733125,5.512870138888889,0.0,0.0
90.0,89.0,0.1,3.6282482558139537,6.519567222222222,0.0,0.0
90.0,89.0,0.3,3.6282482558139537,6.519567222222222,0.0,0.0
90.0,89.0,0.7,3.6282482558139537,6.519567222222222,0.0,0.0
90.0,89.0,1.0,3.6282482558139537,6.519567222222222,0.0,0.0
90.0,97.0,0.1,4.206385465116279,7.507258333333334,0.0,0.0
90.0,97.0,0.3,4.206385465116279,7.507258333333334,0.0,0.0
90.0,97.0,0.7,4.206385465116279,7.507258333333334,0.0,0.0
90.0,97.0,1.0,4.206385465116279,7.507258333333334,0.0,0.0
90.0,105.0,0.1,4.7845226744186045,8.494949444444444,0.0,0.0
90.0,105.0,0.3,4.7845226744186045,8.494949444444444,0.0,0.0
90.0,105.0,0.7,4.7845226744186045,8.494949444444444,0.0,0.0
90.0,105.0,1.0,4.7845226744186045,8.494949444444444,0.0,0.0
90.0,113.0,0.1,5.36265988372093,9.482640555555555,0.0,0.0
90.0,113.0,0.3,5.36265988372093,9.482640555555555,0.0,0.0
90.0,113.0,0.7,5.36265988372093,9.482640555555555,0.0,0.0
90.0,113.0,1.0,5.36265988372093,9.482640555555555,0.0,0.0
90.0,121.0,0.1,5.940797093023256,10.470331666666667,0.0,0.0
90.0,121.0,0.3,5.940797093023256,10.470331666666667,0.0,0.0
90.0,121.0,0.7,5.940797093023256,10.470331666666667,0.0,0.0
90.0,121.0,1.0,5.940797093023256,10.470331666666667,0.0,0.0
90.0,127.0,0.1,6.3744,11.2111,0.0,0.0
90.0,127.0,0.3,6.3744,11.2111,0.0,0.0
90.0,127.0,0.7,6.3744,11.2111,0.0,0.0
90.0,127.0,1.0,6.3744,11.2111,0.0,0.0
91.0,1.0,0.1,0.637521568627451,0.20235921052631578,0.0,0.0
91.0,1.0,0.3,0.637521568627451,0.20235921052631578,0.0,0.0
91.0,1.0,0.7,0.637521568627451,0.20235921052631578,0.0,0.0
91.0,1.0,1.0,0.637521568627451,0.20235921052631578,0.0,0.0
91.0,9.0,0.1,0.6888941176470589,0.4132328947368421,0.0,0.0
91.0,9.0,0.3,0.6888941176470589,0.4132328947368421,0.0,0.0
91.0,9.0,0.7,0.6888941176470589,0.4132328947368421,0.0,0.0
91.0,9.0,1.0,0.6888941176470589,0.4132328947368421,0.0,0.0
91.0,17.0,0.1,0.7402666666666666,0.6241065789473683,0.0,0.0
91.0,17.0,0.3,0.7402666666666666,0.6241065789473683,0.0,0.0
91.0,17.0,0.7,0.7402666666666666,0.6241065789473683,0.0,0.0
91.0,17.0,1.0,0.7402666666666666,0.6241065789473683,0.0,0.0
91.0,25.0,0.1,0.7916392156862745,0.8349802631578946,0.0,0.0
91.0,25.0,0.3,0.7916392156862745,0.8349802631578946,0.0,0.0
91.0,25.0,0.7,0.7916392156862745,0.8349802631578946,0.0,0.0
91.0,25.0,1.0,0.7916392156862745,0.8349802631578946,0.0,0.0
91.0,33.0,0.1,0.8430117647058823,1.045853947368421,0.0,0.0
91.0,33.0,0.3,0.8430117647058823,1.045853947368421,0.0,0.0
91.0,33.0,0.7,0.8430117647058823,1.045853947368421,0.0,0.0
91.0,33.0,1.0,0.8430117647058823,1.045853947368421,0.0,0.0
91.0,41.0,0.1,0.8943843137254902,1.6573687499999998,0.0,0.0
91.0,41.0,0.3,0.8943843137254902,1.6573687499999998,0.0,0.0
91.0,41.0,0.7,0.8943843137254902,1.6573687499999998,0.0,0.0
91.0,41.0,1.0,0.8943843137254902,1.6573687499999998,0.0,0.0
91.0,49.0,0.1,0.9457568627450981,2.375546875,0.0,0.0
91.0,49.0,0.3,0.9457568627450981,2.375546875,0.0,0.0
91.0,49.0,0.7,0.9457568627450981,2.375546875,0.0,0.0
91.0,49.0,1.0,0.9457568627450981,2.375546875,0.0,0.0
91.0,57.0,0.1,1.090095,2.757081875,0.0,0.0
91.0,57.0,0.3,1.090095,2.757081875,0.0,0.0
91.0,57.0,0.7,1.090095,2.757081875,0.0,0.0
91.0,57.0,1.0,1.090095,2.757081875,0.0,0.0
91.0,65.0,0.1,1.2654216666666667,3.2258940789473685,0.0,0.0
91.0,65.0,0.3,1.2654216666666667,3.2258940789473685,0.0,0.0
91.0,65.0,0.7,1.2654216666666667,3.2258940789473685,0.0,0.0
91.0,65.0,1.0,1.2654216666666667,3.2258940789473685,0.0,0.0
91.0,73.0,0.1,1.6451775,4.305646710526316,0.0,0.0
91.0,73.0,0.3,1.6451775,4.305646710526316,0.0,0.0
91.0,73.0,0.7,1.6451775,4.305646710526316,0.0,0.0
91.0,73.0,1.0,1.6451775,4.305646710526316,0.0,0.0
91.0,81.0,0.1,2.0541375,5.385399342105263,0.0,0.0
91.0,81.0,0.3,2.0541375,5.385399342105263,0.0,0.0
91.0,81.0,0.7,2.0541375,5.385399342105263,0.0,0.0
91.0,81.0,1.0,2.0541375,5.385399342105263,0.0,0.0
91.0,89.0,0.1,3.6282482558139537,6.412941477272727,0.0,0.0
91.0,89.0,0.3,3.6282482558139537,6.412941477272727,0.0,0.0
91.0,89.0,0.7,3.6282482558139537,6.412941477272727,0.0,0.0
91.0,89.0,1.0,3.6282482558139537,6.412941477272727,0.0,0.0
91.0,97.0,0.1,4.206385465116279,7.423080113636363,0.0,0.0
91.0,97.0,0.3,4.206385465116279,7.423080113636363,0.0,0.0
91.0,97.0,0.7,4.206385465116279,7.423080113636363,0.0,0.0
91.0,97.0,1.0,4.206385465116279,7.423080113636363,0.0,0.0
91.0,105.0,0.1,4.7845226744186045,8.43321875,0.0,0.0
91.0,105.0,0.3,4.7845226744186045,8.43321875,0.0,0.0
91.0,105.0,0.7,4.7845226744186045,8.43321875,0.0,0.0
91.0,105.0,1.0,4.7845226744186045,8.43321875,0.0,0.0
91.0,113.0,0.1,5.36265988372093,9.443357386363637,0.0,0.0
91.0,113.0,0.3,5.36265988372093,9.443357386363637,0.0,0.0
91.0,113.0,0.7,5.36265988372093,9.443357386363637,0.0,0.0
91.0,113.0,1.0,5.36265988372093,9.443357386363637,0.0,0.0
91.0,121.0,0.1,5.940797093023256,10.453496022727272,0.0,0.0
91.0,121.0,0.3,5.940797093023256,10.453496022727272,0.0,0.0
91.0,121.0,0.7,5.940797093023256,10.453496022727272,0.0,0.0
91.0,121.0,1.0,5.940797093023256,10.453496022727272,0.0,0.0
91.0,127.0,0.1,6.3744,11.2111,0.0,0.0
91.0,127.0,0.3,6.3744,11.2111,0.0,0.0
91.0,127.0,0.7,6.3744,11.2111,0.0,0.0
91.0,127.0,1.0,6.3744,11.2111,0.0,0.0
92.0,1.0,0.1,0.6373980769230769,0.20307162162162162,0.0,0.0
92.0,1.0,0.3,0.6373980769230769,0.20307162162162162,0.0,0.0
92.0,1.0,0.7,0.6373980769230769,0.20307162162162162,0.0,0.0
92.0,1.0,1.0,0.6373980769230769,0.20307162162162162,0.0,0.0
92.0,9.0,0.1,0.6877826923076923,0.4196445945945946,0.0,0.0
92.0,9.0,0.3,0.6877826923076923,0.4196445945945946,0.0,0.0
92.0,9.0,0.7,0.6877826923076923,0.4196445945945946,0.0,0.0
92.0,9.0,1.0,0.6877826923076923,0.4196445945945946,0.0,0.0
92.0,17.0,0.1,0.7381673076923077,0.6362175675675675,0.0,0.0
92.0,17.0,0.3,0.7381673076923077,0.6362175675675675,0.0,0.0
92.0,17.0,0.7,0.7381673076923077,0.6362175675675675,0.0,0.0
92.0,17.0,1.0,0.7381673076923077,0.6362175675675675,0.0,0.0
92.0,25.0,0.1,0.7885519230769231,0.8527905405405405,0.0,0.0
92.0,25.0,0.3,0.7885519230769231,0.8527905405405405,0.0,0.0
92.0,25.0,0.7,0.7885519230769231,0.8527905405405405,0.0,0.0
92.0,25.0,1.0,0.7885519230769231,0.8527905405405405,0.0,0.0
92.0,33.0,0.1,0.8389365384615385,1.0693635135135133,0.0,0.0
92.0,33.0,0.3,0.8389365384615385,1.0693635135135133,0.0,0.0
92.0,33.0,0.7,0.8389365384615385,1.0693635135135133,0.0,0.0
92.0,33.0,1.0,0.8389365384615385,1.0693635135135133,0.0,0.0
92.0,41.0,0.1,0.8893211538461538,1.817275,0.0,0.0
92.0,41.0,0.3,0.8893211538461538,1.817275,0.0,0.0
92.0,41.0,0.7,0.8893211538461538,1.817275,0.0,0.0
92.0,41.0,1.0,0.8893211538461538,1.817275,0.0,0.0
92.0,49.0,0.1,0.9397057692307693,2.3972249999999997,0.0,0.0
92.0,49.0,0.3,0.9397057692307693,2.3972249999999997,0.0,0.0
92.0,49.0,0.7,0.9397057692307693,2.3972249999999997,0.0,0.0
92.0,49.0,1.0,0.9397057692307693,2.3972249999999997,0.0,0.0
92.0,57.0,0.1,1.06133046875,2.744075,0.0,0.0
92.0,57.0,0.3,1.06133046875,2.744075,0.0,0.0
92.0,57.0,0.7,1.06133046875,2.744075,0.0,0.0
92.0,57.0,1.0,1.06133046875,2.744075,0.0,0.0
92.0,65.0,0.1,1.22569921875,3.090925,0.0,0.0
92.0,65.0,0.3,1.22569921875,3.090925,0.0,0.0
92.0,65.0,0.7,1.22569921875,3.090925,0.0,0.0
92.0,65.0,1.0,1.22569921875,3.090925,0.0,0.0
92.0,73.0,0.1,1.5611946428571428,4.230663888888889,0.0,0.0
92.0,73.0,0.3,1.5611946428571428,4.230663888888889,0.0,0.0
92.0,73.0,0.7,1.5611946428571428,4.230663888888889,0.0,0.0
92.0,73.0,1.0,1.5611946428571428,4.230663888888889,0.0,0.0
92.0,81.0,0.1,1.9993660714285713,5.370402777777778,0.0,0.0
92.0,81.0,0.3,1.9993660714285713,5.370402777777778,0.0,0.0
92.0,81.0,0.7,1.9993660714285713,5.370402777777778,0.0,0.0
92.0,81.0,1.0,1.9993660714285713,5.370402777777778,0.0,0.0
92.0,89.0,0.1,3.5628636904761906,6.412941477272727,0.0,0.0
92.0,89.0,0.3,3.5628636904761906,6.412941477272727,0.0,0.0
92.0,89.0,0.7,3.5628636904761906,6.412941477272727,0.0,0.0
92.0,89.0,1.0,3.5628636904761906,6.412941477272727,0.0,0.0
92.0,97.0,0.1,4.154766071428572,7.423080113636363,0.0,0.0
92.0,97.0,0.3,4.154766071428572,7.423080113636363,0.0,0.0
92.0,97.0,0.7,4.154766071428572,7.423080113636363,0.0,0.0
92.0,97.0,1.0,4.154766071428572,7.423080113636363,0.0,0.0
92.0,105.0,0.1,4.746668452380952,8.43321875,0.0,0.0
92.0,105.0,0.3,4.746668452380952,8.43321875,0.0,0.0
92.0,105.0,0.7,4.746668452380952,8.43321875,0.0,0.0
92.0,105.0,1.0,4.746668452380952,8.43321875,0.0,0.0
92.0,113.0,0.1,5.338570833333334,9.443357386363637,0.0,0.0
92.0,113.0,0.3,5.338570833333334,9.443357386363637,0.0,0.0
92.0,113.0,0.7,5.338570833333334,9.443357386363637,0.0,0.0
92.0,113.0,1.0,5.338570833333334,9.443357386363637,0.0,0.0
92.0,121.0,0.1,5.930473214285714,10.453496022727272,0.0,0.0
92.0,121.0,0.3,5.930473214285714,10.453496022727272,0.0,0.0
92.0,121.0,0.7,5.930473214285714,10.453496022727272,0.0,0.0
92.0,121.0,1.0,5.930473214285714,10.453496022727272,0.0,0.0
92.0,127.0,0.1,6.3744,11.2111,0.0,0.0
92.0,127.0,0.3,6.3744,11.2111,0.0,0.0
92.0,127.0,0.7,6.3744,11.2111,0.0,0.0
92.0,127.0,1.0,6.3744,11.2111,0.0,0.0
93.0,1.0,0.1,0.6372792452830188,0.20307162162162162,0.0,0.0
93.0,1.0,0.3,0.6372792452830188,0.20307162162162162,0.0,0.0
93.0,1.0,0.7,0.6372792452830188,0.20307162162162162,0.0,0.0
93.0,1.0,1.0,0.6372792452830188,0.20307162162162162,0.0,0.0
93.0,9.0,0.1,0.6867132075471698,0.4196445945945946,0.0,0.0
93.0,9.0,0.3,0.6867132075471698,0.4196445945945946,0.0,0.0
93.0,9.0,0.7,0.6867132075471698,0.4196445945945946,0.0,0.0
93.0,9.0,1.0,0.6867132075471698,0.4196445945945946,0.0,0.0
93.0,17.0,0.1,0.7361471698113208,0.6362175675675675,0.0,0.0
93.0,17.0,0.3,0.7361471698113208,0.6362175675675675,0.0,0.0
93.0,17.0,0.7,0.7361471698113208,0.6362175675675675,0.0,0.0
93.0,17.0,1.0,0.7361471698113208,0.6362175675675675,0.0,0.0
93.0,25.0,0.1,0.7855811320754718,0.8527905405405405,0.0,0.0
93.0,25.0,0.3,0.7855811320754718,0.8527905405405405,0.0,0.0
93.0,25.0,0.7,0.7855811320754718,0.8527905405405405,0.0,0.0
93.0,25.0,1.0,0.7855811320754718,0.8527905405405405,0.0,0.0
93.0,33.0,0.1,0.8350150943396226,1.0693635135135133,0.0,0.0
93.0,33.0,0.3,0.8350150943396226,1.0693635135135133,0.0,0.0
93.0,33.0,0.7,0.8350150943396226,1.0693635135135133,0.0,0.0
93.0,33.0,1.0,0.8350150943396226,1.0693635135135133,0.0,0.0
93.0,41.0,0.1,0.8844490566037736,1.9451999999999998,0.0,0.0
93.0,41.0,0.3,0.8844490566037736,1.9451999999999998,0.0,0.0
93.0,41.0,0.7,0.8844490566037736,1.9451999999999998,0.0,0.0
93.0,41.0,1.0,0.8844490566037736,1.9451999999999998,0.0,0.0
93.0,49.0,0.1,0.9338830188679246,2.4273858695652173,0.0,0.0
93.0,49.0,0.3,0.9338830188679246,2.4273858695652173,0.0,0.0
93.0,49.0,0.7,0.9338830188679246,2.4273858695652173,0.0,0.0
93.0,49.0,1.0,0.9338830188679246,2.4273858695652173,0.0,0.0
93.0,57.0,0.1,1.040784375,2.759155434782609,0.0,0.0
93.0,57.0,0.3,1.040784375,2.759155434782609,0.0,0.0
93.0,57.0,0.7,1.040784375,2.759155434782609,0.0,0.0
93.0,57.0,1.0,1.040784375,2.759155434782609,0.0,0.0
93.0,65.0,0.1,1.205153125,3.090925,0.0,0.0
93.0,65.0,0.3,1.205153125,3.090925,0.0,0.0
93.0,65.0,0.7,1.205153125,3.090925,0.0,0.0
93.0,65.0,1.0,1.205153125,3.090925,0.0,0.0
93.0,73.0,0.1,1.5064232142857144,4.230663888888889,0.0,0.0
93.0,73.0,0.3,1.5064232142857144,4.230663888888889,0.0,0.0
93.0,73.0,0.7,1.5064232142857144,4.230663888888889,0.0,0.0
93.0,73.0,1.0,1.5064232142857144,4.230663888888889,0.0,0.0
93.0,81.0,0.1,1.9445946428571428,5.370402777777778,0.0,0.0
93.0,81.0,0.3,1.9445946428571428,5.370402777777778,0.0,0.0
93.0,81.0,0.7,1.9445946428571428,5.370402777777778,0.0,0.0
93.0,81.0,1.0,1.9445946428571428,5.370402777777778,0.0,0.0
93.0,89.0,0.1,3.5628636904761906,6.412941477272727,0.0,0.0
93.0,89.0,0.3,3.5628636904761906,6.412941477272727,0.0,0.0
93.0,89.0,0.7,3.5628636904761906,6.412941477272727,0.0,0.0
93.0,89.0,1.0,3.5628636904761906,6.412941477272727,0.0,0.0
93.0,97.0,0.1,4.154766071428572,7.423080113636363,0.0,0.0
93.0,97.0,0.3,4.154766071428572,7.423080113636363,0.0,0.0
93.0,97.0,0.7,4.154766071428572,7.423080113636363,0.0,0.0
93.0,97.0,1.0,4.154766071428572,7.423080113636363,0.0,0.0
93.0,105.0,0.1,4.746668452380952,8.43321875,0.0,0.0
93.0,105.0,0.3,4.746668452380952,8.43321875,0.0,0.0
93.0,105.0,0.7,4.746668452380952,8.43321875,0.0,0.0
93.0,105.0,1.0,4.746668452380952,8.43321875,0.0,0.0
93.0,113.0,0.1,5.338570833333334,9.443357386363637,0.0,0.0
93.0,113.0,0.3,5.338570833333334,9.443357386363637,0.0,0.0
93.0,113.0,0.7,5.338570833333334,9.443357386363637,0.0,0.0
93.0,113.0,1.0,5.338570833333334,9.443357386363637,0.0,0.0
93.0,121.0,0.1,5.930473214285714,10.453496022727272,0.0,0.0
93.0,121.0,0.3,5.930473214285714,10.453496022727272,0.0,0.0
93.0,121.0,0.7,5.930473214285714,10.453496022727272,0.0,0.0
93.0,121.0,1.0,5.930473214285714,10.453496022727272,0.0,0.0
93.0,127.0,0.1,6.3744,11.2111,0.0,0.0
93.0,127.0,0.3,6.3744,11.2111,0.0,0.0
93.0,127.0,0.7,6.3744,11.2111,0.0,0.0
93.0,127.0,1.0,6.3744,11.2111,0.0,0.0
94.0,1.0,0.1,0.637521568627451,0.20235921052631578,0.0,0.0
94.0,1.0,0.3,0.637521568627451,0.20235921052631578,0.0,0.0
94.0,1.0,0.7,0.637521568627451,0.20235921052631578,0.0,0.0
94.0,1.0,1.0,0.637521568627451,0.20235921052631578,0.0,0.0
94.0,9.0,0.1,0.6888941176470589,0.4132328947368421,0.0,0.0
94.0,9.0,0.3,0.6888941176470589,0.4132328947368421,0.0,0.0
94.0,9.0,0.7,0.6888941176470589,0.4132328947368421,0.0,0.0
94.0,9.0,1.0,0.6888941176470589,0.4132328947368421,0.0,0.0
94.0,17.0,0.1,0.7402666666666666,0.6241065789473683,0.0,0.0
94.0,17.0,0.3,0.7402666666666666,0.6241065789473683,0.0,0.0
94.0,17.0,0.7,0.7402666666666666,0.6241065789473683,0.0,0.0
94.0,17.0,1.0,0.7402666666666666,0.6241065789473683,0.0,0.0
94.0,25.0,0.1,0.7916392156862745,0.8349802631578946,0.0,0.0
94.0,25.0,0.3,0.7916392156862745,0.8349802631578946,0.0,0.0
94.0,25.0,0.7,0.7916392156862745,0.8349802631578946,0.0,0.0
94.0,25.0,1.0,0.7916392156862745,0.8349802631578946,0.0,0.0
94.0,33.0,0.1,0.8430117647058823,1.045853947368421,0.0,0.0
94.0,33.0,0.3,0.8430117647058823,1.045853947368421,0.0,0.0
94.0,33.0,0.7,0.8430117647058823,1.045853947368421,0.0,0.0
94.0,33.0,1.0,0.8430117647058823,1.045853947368421,0.0,0.0
94.0,41.0,0.1,0.8943843137254902,1.6573687499999998,0.0,0.0
94.0,41.0,0.3,0.8943843137254902,1.6573687499999998,0.0,0.0
94.0,41.0,0.7,0.8943843137254902,1.6573687499999998,0.0,0.0
94.0,41.0,1.0,0.8943843137254902,1.6573687499999998,0.0,0.0
94.0,49.0,0.1,0.9457568627450981,2.3641916666666667,0.0,0.0
94.0,49.0,0.3,0.9457568627450981,2.3641916666666667,0.0,0.0
94.0,49.0,0.7,0.9457568627450981,2.3641916666666667,0.0,0.0
94.0,49.0,1.0,0.9457568627450981,2.3641916666666667,0.0,0.0
94.0,57.0,0.1,1.074625,2.727558333333333,0.0,0.0
94.0,57.0,0.3,1.074625,2.727558333333333,0.0,0.0
94.0,57.0,0.7,1.074625,2.727558333333333,0.0,0.0
94.0,57.0,1.0,1.074625,2.727558333333333,0.0,0.0
94.0,65.0,0.1,1.229325,3.090925,0.0,0.0
94.0,65.0,0.3,1.229325,3.090925,0.0,0.0
94.0,65.0,0.7,1.229325,3.090925,0.0,0.0
94.0,65.0,1.0,1.229325,3.090925,0.0,0.0
94.0,73.0,0.1,1.5611946428571428,4.170677631578947,0.0,0.0
94.0,73.0,0.3,1.5611946428571428,4.170677631578947,0.0,0.0
94.0,73.0,0.7,1.5611946428571428,4.170677631578947,0.0,0.0
94.0,73.0,1.0,1.5611946428571428,4.170677631578947,0.0,0.0
94.0,81.0,0.1,1.9993660714285713,5.250430263157895,0.0,0.0
94.0,81.0,0.3,1.9993660714285713,5.250430263157895,0.0,0.0
94.0,81.0,0.7,1.9993660714285713,5.250430263157895,0.0,0.0
94.0,81.0,1.0,1.9993660714285713,5.250430263157895,0.0,0.0
94.0,89.0,0.1,3.5628636904761906,6.301356395348837,0.0,0.0
94.0,89.0,0.3,3.5628636904761906,6.301356395348837,0.0,0.0
94.0,89.0,0.7,3.5628636904761906,6.301356395348837,0.0,0.0
94.0,89.0,1.0,3.5628636904761906,6.301356395348837,0.0,0.0
94.0,97.0,0.1,4.154766071428572,7.334986627906977,0.0,0.0
94.0,97.0,0.3,4.154766071428572,7.334986627906977,0.0,0.0
94.0,97.0,0.7,4.154766071428572,7.334986627906977,0.0,0.0
94.0,97.0,1.0,4.154766071428572,7.334986627906977,0.0,0.0
94.0,105.0,0.1,4.746668452380952,8.368616860465115,0.0,0.0
94.0,105.0,0.3,4.746668452380952,8.368616860465115,0.0,0.0
94.0,105.0,0.7,4.746668452380952,8.368616860465115,0.0,0.0
94.0,105.0,1.0,4.746668452380952,8.368616860465115,0.0,0.0
94.0,113.0,0.1,5.338570833333334,9.402247093023256,0.0,0.0
94.0,113.0,0.3,5.338570833333334,9.402247093023256,0.0,0.0
94.0,113.0,0.7,5.338570833333334,9.402247093023256,0.0,0.0
94.0,113.0,1.0,5.338570833333334,9.402247093023256,0.0,0.0
94.0,121.0,0.1,5.930473214285714,10.435877325581394,0.0,0.0
94.0,121.0,0.3,5.930473214285714,10.435877325581394,0.0,0.0
94.0,121.0,0.7,5.930473214285714,10.435877325581394,0.0,0.0
94.0,121.0,1.0,5.930473214285714,10.435877325581394,0.0,0.0
94.0,127.0,0.1,6.3744,11.2111,0.0,0.0
94.0,127.0,0.3,6.3744,11.2111,0.0,0.0
94.0,127.0,0.7,6.3744,11.2111,0.0,0.0
94.0,127.0,1.0,6.3744,11.2111,0.0,0.0
95.0,1.0,0.1,0.63765,0.20235921052631578,0.0,0.0
95.0,1.0,0.3,0.63765,0.20235921052631578,0.0,0.0
95.0,1.0,0.7,0.63765,0.20235921052631578,0.0,0.0
95.0,1.0,1.0,0.63765,0.20235921052631578,0.0,0.0
95.0,9.0,0.1,0.69005,0.4132328947368421,0.0,0.0
95.0,9.0,0.3,0.69005,0.4132328947368421,0.0,0.0
95.0,9.0,0.7,0.69005,0.4132328947368421,0.0,0.0
95.0,9.0,1.0,0.69005,0.4132328947368421,0.0,0.0
95.0,17.0,0.1,0.74245,0.6241065789473683,0.0,0.0
95.0,17.0,0.3,0.74245,0.6241065789473683,0.0,0.0
95.0,17.0,0.7,0.74245,0.6241065789473683,0.0,0.0
95.0,17.0,1.0,0.74245,0.6241065789473683,0.0,0.0
95.0,25.0,0.1,0.7948500000000001,0.8349802631578946,0.0,0.0
95.0,25.0,0.3,0.7948500000000001,0.8349802631578946,0.0,0.0
95.0,25.0,0.7,0.7948500000000001,0.8349802631578946,0.0,0.0
95.0,25.0,1.0,0.7948500000000001,0.8349802631578946,0.0,0.0
95.0,33.0,0.1,0.8472500000000001,1.045853947368421,0.0,0.0
95.0,33.0,0.3,0.8472500000000001,1.045853947368421,0.0,0.0
95.0,33.0,0.7,0.8472500000000001,1.045853947368421,0.0,0.0
95.0,33.0,1.0,0.8472500000000001,1.045853947368421,0.0,0.0
95.0,41.0,0.1,0.8996500000000001,1.5888375,0.0,0.0
95.0,41.0,0.3,0.8996500000000001,1.5888375,0.0,0.0
95.0,41.0,0.7,0.8996500000000001,1.5888375,0.0,0.0
95.0,41.0,1.0,0.8996500000000001,1.5888375,0.0,0.0
95.0,49.0,0.1,0.9520500000000001,2.3187708333333332,0.0,0.0
95.0,49.0,0.3,0.9520500000000001,2.3187708333333332,0.0,0.0
95.0,49.0,0.7,0.9520500000000001,2.3187708333333332,0.0,0.0
95.0,49.0,1.0,0.9520500000000001,2.3187708333333332,0.0,0.0
95.0,57.0,0.1,1.0939625,2.6821374999999996,0.0,0.0
95.0,57.0,0.3,1.0939625,2.6821374999999996,0.0,0.0
95.0,57.0,0.7,1.0939625,2.6821374999999996,0.0,0.0
95.0,57.0,1.0,1.0939625,2.6821374999999996,0.0,0.0
95.0,65.0,0.1,1.2486625,3.0455041666666665,0.0,0.0
95.0,65.0,0.3,1.2486625,3.0455041666666665,0.0,0.0
95.0,65.0,0.7,1.2486625,3.0455041666666665,0.0,0.0
95.0,65.0,1.0,1.2486625,3.0455041666666665,0.0,0.0
95.0,73.0,0.1,1.6159660714285713,3.988469375,0.0,0.0
95.0,73.0,0.3,1.6159660714285713,3.988469375,0.0,0.0
95.0,73.0,0.7,1.6159660714285713,3.988469375,0.0,0.0
95.0,73.0,1.0,1.6159660714285713,3.988469375,0.0,0.0
95.0,81.0,0.1,2.0541375,5.014234375,0.0,0.0
95.0,81.0,0.3,2.0541375,5.014234375,0.0,0.0
95.0,81.0,0.7,2.0541375,5.014234375,0.0,0.0
95.0,81.0,1.0,2.0541375,5.014234375,0.0,0.0
95.0,89.0,0.1,3.4942896341463414,6.061856707317073,0.0,0.0
95.0,89.0,0.3,3.4942896341463414,6.061856707317073,0.0,0.0
95.0,89.0,0.7,3.4942896341463414,6.061856707317073,0.0,0.0
95.0,89.0,1.0,3.4942896341463414,6.061856707317073,0.0,0.0
95.0,97.0,0.1,4.100628658536586,7.145907926829269,0.0,0.0
95.0,97.0,0.3,4.100628658536586,7.145907926829269,0.0,0.0
95.0,97.0,0.7,4.100628658536586,7.145907926829269,0.0,0.0
95.0,97.0,1.0,4.100628658536586,7.145907926829269,0.0,0.0
95.0,105.0,0.1,4.7069676829268285,8.229959146341464,0.0,0.0
95.0,105.0,0.3,4.7069676829268285,8.229959146341464,0.0,0.0
95.0,105.0,0.7,4.7069676829268285,8.229959146341464,0.0,0.0
95.0,105.0,1.0,4.7069676829268285,8.229959146341464,0.0,0.0
95.0,113.0,0.1,5.313306707317073,9.314010365853658,0.0,0.0
95.0,113.0,0.3,5.313306707317073,9.314010365853658,0.0,0.0
95.0,113.0,0.7,5.313306707317073,9.314010365853658,0.0,0.0
95.0,113.0,1.0,5.313306707317073,9.314010365853658,0.0,0.0
95.0,121.0,0.1,5.919645731707316,10.398061585365854,0.0,0.0
95.0,121.0,0.3,5.919645731707316,10.398061585365854,0.0,0.0
95.0,121.0,0.7,5.919645731707316,10.398061585365854,0.0,0.0
95.0,121.0,1.0,5.919645731707316,10.398061585365854,0.0,0.0
95.0,127.0,0.1,6.3744,11.2111,0.0,0.0
95.0,127.0,0.3,6.3744,11.2111,0.0,0.0
95.0,127.0,0.7,6.3744,11.2111,0.0,0.0
95.0,127.0,1.0,6.3744,11.2111,0.0,0.0
96.0,1.0,0.1,0.6379229166666667,0.20168333333333333,0.0,0.0
96.0,1.0,0.3,0.6379229166666667,0.20168333333333333,0.0,0.0
96.0,1.0,0.7,0.6379229166666667,0.20168333333333333,0.0,0.0
96.0,1.0,1.0,0.6379229166666667,0.20168333333333333,0.0,0.0
96.0,9.0,0.1,0.69250625,0.40715,0.0,0.0
96.0,9.0,0.3,0.69250625,0.40715,0.0,0.0
96.0,9.0,0.7,0.69250625,0.40715,0.0,0.0
96.0,9.0,1.0,0.69250625,0.40715,0.0,0.0
96.0,17.0,0.1,0.7470895833333333,0.6126166666666666,0.0,0.0
96.0,17.0,0.3,0.7470895833333333,0.6126166666666666,0.0,0.0
96.0,17.0,0.7,0.7470895833333333,0.6126166666666666,0.0,0.0
96.0,17.0,1.0,0.7470895833333333,0.6126166666666666,0.0,0.0
96.0,25.0,0.1,0.8016729166666667,0.8180833333333333,0.0,0.0
96.0,25.0,0.3,0.8016729166666667,0.8180833333333333,0.0,0.0
96.0,25.0,0.7,0.8016729166666667,0.8180833333333333,0.0,0.0
96.0,25.0,1.0,0.8016729166666667,0.8180833333333333,0.0,0.0
96.0,33.0,0.1,0.85625625,1.02355,0.0,0.0
96.0,33.0,0.3,0.85625625,1.02355,0.0,0.0
96.0,33.0,0.7,0.85625625,1.02355,0.0,0.0
96.0,33.0,1.0,0.85625625,1.02355,0.0,0.0
96.0,41.0,0.1,0.9108395833333334,1.4517749999999998,0.0,0.0
96.0,41.0,0.3,0.9108395833333334,1.4517749999999998,0.0,0.0
96.0,41.0,0.7,0.9108395833333334,1.4517749999999998,0.0,0.0
96.0,41.0,1.0,0.9108395833333334,1.4517749999999998,0.0,0.0
96.0,49.0,0.1,0.9768631944444445,2.2801631249999996,0.0,0.0
96.0,49.0,0.3,0.9768631944444445,2.2801631249999996,0.0,0.0
96.0,49.0,0.7,0.9768631944444445,2.2801631249999996,0.0,0.0
96.0,49.0,1.0,0.9768631944444445,2.2801631249999996,0.0,0.0
96.0,57.0,0.1,1.12296875,2.661698125,0.0,0.0
96.0,57.0,0.3,1.12296875,2.661698125,0.0,0.0
96.0,57.0,0.7,1.12296875,2.661698125,0.0,0.0
96.0,57.0,1.0,1.12296875,2.661698125,0.0,0.0
96.0,65.0,0.1,1.2690743055555556,3.043233125,0.0,0.0
96.0,65.0,0.3,1.2690743055555556,3.043233125,0.0,0.0
96.0,65.0,0.7,1.2690743055555556,3.043233125,0.0,0.0
96.0,65.0,1.0,1.2690743055555556,3.043233125,0.0,0.0
96.0,73.0,0.1,1.6707375,3.9457291666666663,0.0,0.0
96.0,73.0,0.3,1.6707375,3.9457291666666663,0.0,0.0
96.0,73.0,0.7,1.6707375,3.9457291666666663,0.0,0.0
96.0,73.0,1.0,1.6707375,3.9457291666666663,0.0,0.0
96.0,81.0,0.1,2.256266666666667,4.922648214285714,0.0,0.0
96.0,81.0,0.3,2.256266666666667,4.922648214285714,0.0,0.0
96.0,81.0,0.7,2.256266666666667,4.922648214285714,0.0,0.0
96.0,81.0,1.0,2.256266666666667,4.922648214285714,0.0,0.0
96.0,89.0,0.1,3.4942896341463414,5.933125625,0.0,0.0
96.0,89.0,0.3,3.4942896341463414,5.933125625,0.0,0.0
96.0,89.0,0.7,3.4942896341463414,5.933125625,0.0,0.0
96.0,89.0,1.0,3.4942896341463414,5.933125625,0.0,0.0
96.0,97.0,0.1,4.100628658536586,7.044278125,0.0,0.0
96.0,97.0,0.3,4.100628658536586,7.044278125,0.0,0.0
96.0,97.0,0.7,4.100628658536586,7.044278125,0.0,0.0
96.0,97.0,1.0,4.100628658536586,7.044278125,0.0,0.0
96.0,105.0,0.1,4.7069676829268285,8.155430625,0.0,0.0
96.0,105.0,0.3,4.7069676829268285,8.155430625,0.0,0.0
96.0,105.0,0.7,4.7069676829268285,8.155430625,0.0,0.0
96.0,105.0,1.0,4.7069676829268285,8.155430625,0.0,0.0
96.0,113.0,0.1,5.313306707317073,9.266583125,0.0,0.0
96.0,113.0,0.3,5.313306707317073,9.266583125,0.0,0.0
96.0,113.0,0.7,5.313306707317073,9.266583125,0.0,0.0
96.0,113.0,1.0,5.313306707317073,9.266583125,0.0,0.0
96.0,121.0,0.1,5.919645731707316,10.377735625,0.0,0.0
96.0,121.0,0.3,5.919645731707316,10.377735625,0.0,0.0
96.0,121.0,0.7,5.919645731707316,10.377735625,0.0,0.0
96.0,121.0,1.0,5.919645731707316,10.377735625,0.0,0.0
96.0,127.0,0.1,6.3744,11.2111,0.0,0.0
96.0,127.0,0.3,6.3744,11.2111,0.0,0.0
96.0,127.0,0.7,6.3744,11.2111,0.0,0.0
96.0,127.0,1.0,6.3744,11.2111,0.0,0.0
97.0,1.0,0.1,0.638068085106383,0.20104124999999998,0.0,0.0
97.0,1.0,0.3,0.638068085106383,0.20104124999999998,0.0,0.0
97.0,1.0,0.7,0.638068085106383,0.20104124999999998,0.0,0.0
97.0,1.0,1.0,0.638068085106383,0.20104124999999998,0.0,0.0
97.0,9.0,0.1,0.6938127659574468,0.40137124999999996,0.0,0.0
97.0,9.0,0.3,0.6938127659574468,0.40137124999999996,0.0,0.0
97.0,9.0,0.7,0.6938127659574468,0.40137124999999996,0.0,0.0
97.0,9.0,1.0,0.6938127659574468,0.40137124999999996,0.0,0.0
97.0,17.0,0.1,0.7495574468085107,0.60170125,0.0,0.0
97.0,17.0,0.3,0.7495574468085107,0.60170125,0.0,0.0
97.0,17.0,0.7,0.7495574468085107,0.60170125,0.0,0.0
97.0,17.0,1.0,0.7495574468085107,0.60170125,0.0,0.0
97.0,25.0,0.1,0.8053021276595744,0.80203125,0.0,0.0
97.0,25.0,0.3,0.8053021276595744,0.80203125,0.0,0.0
97.0,25.0,0.7,0.8053021276595744,0.80203125,0.0,0.0
97.0,25.0,1.0,0.8053021276595744,0.80203125,0.0,0.0
97.0,33.0,0.1,0.8610468085106383,1.0023612499999999,0.0,0.0
97.0,33.0,0.3,0.8610468085106383,1.0023612499999999,0.0,0.0
97.0,33.0,0.7,0.8610468085106383,1.0023612499999999,0.0,0.0
97.0,33.0,1.0,0.8610468085106383,1.0023612499999999,0.0,0.0
97.0,41.0,0.1,0.9167914893617022,1.2975796874999999,0.0,0.0
97.0,41.0,0.3,0.9167914893617022,1.2975796874999999,0.0,0.0
97.0,41.0,0.7,0.9167914893617022,1.2975796874999999,0.0,0.0
97.0,41.0,1.0,0.9167914893617022,1.2975796874999999,0.0,0.0
97.0,49.0,0.1,0.9951263888888889,2.190078472222222,0.0,0.0
97.0,49.0,0.3,0.9951263888888889,2.190078472222222,0.0,0.0
97.0,49.0,0.7,0.9951263888888889,2.190078472222222,0.0,0.0
97.0,49.0,1.0,0.9951263888888889,2.190078472222222,0.0,0.0
97.0,57.0,0.1,1.1412319444444445,2.61400625,0.0,0.0
97.0,57.0,0.3,1.1412319444444445,2.61400625,0.0,0.0
97.0,57.0,0.7,1.1412319444444445,2.61400625,0.0,0.0
97.0,57.0,1.0,1.1412319444444445,2.61400625,0.0,0.0
97.0,65.0,0.1,1.2873375,3.0379340277777778,0.0,0.0
97.0,65.0,0.3,1.2873375,3.0379340277777778,0.0,0.0
97.0,65.0,0.7,1.2873375,3.0379340277777778,0.0,0.0
97.0,65.0,1.0,1.2873375,3.0379340277777778,0.0,0.0
97.0,73.0,0.1,1.7255089285714287,3.906874431818182,0.0,0.0
97.0,73.0,0.3,1.7255089285714287,3.906874431818182,0.0,0.0
97.0,73.0,0.7,1.7255089285714287,3.906874431818182,0.0,0.0
97.0,73.0,1.0,1.7255089285714287,3.906874431818182,0.0,0.0
97.0,81.0,0.1,2.400644642857143,4.839388068181818,0.0,0.0
97.0,81.0,0.3,2.400644642857143,4.839388068181818,0.0,0.0
97.0,81.0,0.7,2.400644642857143,4.839388068181818,0.0,0.0
97.0,81.0,1.0,2.400644642857143,4.839388068181818,0.0,0.0
97.0,89.0,0.1,3.4942896341463414,5.797792948717949,0.0,0.0
97.0,89.0,0.3,3.4942896341463414,5.797792948717949,0.0,0.0
97.0,89.0,0.7,3.4942896341463414,5.797792948717949,0.0,0.0
97.0,89.0,1.0,3.4942896341463414,5.797792948717949,0.0,0.0
97.0,97.0,0.1,4.100628658536586,6.937436538461538,0.0,0.0
97.0,97.0,0.3,4.100628658536586,6.937436538461538,0.0,0.0
97.0,97.0,0.7,4.100628658536586,6.937436538461538,0.0,0.0
97.0,97.0,1.0,4.100628658536586,6.937436538461538,0.0,0.0
97.0,105.0,0.1,4.7069676829268285,8.077080128205129,0.0,0.0
97.0,105.0,0.3,4.7069676829268285,8.077080128205129,0.0,0.0
97.0,105.0,0.7,4.7069676829268285,8.077080128205129,0.0,0.0
97.0,105.0,1.0,4.7069676829268285,8.077080128205129,0.0,0.0
97.0,113.0,0.1,5.313306707317073,9.216723717948717,0.0,0.0
97.0,113.0,0.3,5.313306707317073,9.216723717948717,0.0,0.0
97.0,113.0,0.7,5.313306707317073,9.216723717948717,0.0,0.0
97.0,113.0,1.0,5.313306707317073,9.216723717948717,0.0,0.0
97.0,121.0,0.1,5.919645731707316,10.356367307692308,0.0,0.0
97.0,121.0,0.3,5.919645731707316,10.356367307692308,0.0,0.0
97.0,121.0,0.7,5.919645731707316,10.356367307692308,0.0,0.0
97.0,121.0,1.0,5.919645731707316,10.356367307692308,0.0,0.0
97.0,127.0,0.1,6.3744,11.2111,0.0,0.0
97.0,127.0,0.3,6.3744,11.2111,0.0,0.0
97.0,127.0,0.7,6.3744,11.2111,0.0,0.0
97.0,127.0,1.0,6.3744,11.2111,0.0,0.0
98.0,1.0,0.1,0.6383777777777778,0.20043048780487804,0.0,0.0
98.0,1.0,0.3,0.6383777777777778,0.20043048780487804,0.0,0.0
98.0,1.0,0.7,0.6383777777777778,0.20043048780487804,0.0,0.0
98.0,1.0,1.0,0.6383777777777778,0.20043048780487804,0.0,0.0
98.0,9.0,0.1,0.6966,0.3958743902439024,0.0,0.0
98.0,9.0,0.3,0.6966,0.3958743902439024,0.0,0.0
98.0,9.0,0.7,0.6966,0.3958743902439024,0.0,0.0
98.0,9.0,1.0,0.6966,0.3958743902439024,0.0,0.0
98.0,17.0,0.1,0.7548222222222222,0.5913182926829268,0.0,0.0
98.0,17.0,0.3,0.7548222222222222,0.5913182926829268,0.0,0.0
98.0,17.0,0.7,0.7548222222222222,0.5913182926829268,0.0,0.0
98.0,17.0,1.0,0.7548222222222222,0.5913182926829268,0.0,0.0
98.0,25.0,0.1,0.8130444444444445,0.7867621951219512,0.0,0.0
98.0,25.0,0.3,0.8130444444444445,0.7867621951219512,0.0,0.0
98.0,25.0,0.7,0.8130444444444445,0.7867621951219512,0.0,0.0
98.0,25.0,1.0,0.8130444444444445,0.7867621951219512,0.0,0.0
98.0,33.0,0.1,0.8712666666666666,0.9822060975609754,0.0,0.0
98.0,33.0,0.3,0.8712666666666666,0.9822060975609754,0.0,0.0
98.0,33.0,0.7,0.8712666666666666,0.9822060975609754,0.0,0.0
98.0,33.0,1.0,0.8712666666666666,0.9822060975609754,0.0,0.0
98.0,41.0,0.1,0.9294888888888888,1.1776499999999999,0.0,0.0
98.0,41.0,0.3,0.9294888888888888,1.1776499999999999,0.0,0.0
98.0,41.0,0.7,0.9294888888888888,1.1776499999999999,0.0,0.0
98.0,41.0,1.0,0.9294888888888888,1.1776499999999999,0.0,0.0
98.0,49.0,0.1,1.027807894736842,2.030483333333333,0.0,0.0
98.0,49.0,0.3,1.027807894736842,2.030483333333333,0.0,0.0
98.0,49.0,0.7,1.027807894736842,2.030483333333333,0.0,0.0
98.0,49.0,1.0,1.027807894736842,2.030483333333333,0.0,0.0
98.0,57.0,0.1,1.1662236842105262,2.5298441176470585,0.0,0.0
98.0,57.0,0.3,1.1662236842105262,2.5298441176470585,0.0,0.0
98.0,57.0,0.7,1.1662236842105262,2.5298441176470585,0.0,0.0
98.0,57.0,1.0,1.1662236842105262,2.5298441176470585,0.0,0.0
98.0,65.0,0.1,1.3421089285714285,2.978708823529412,0.0,0.0
98.0,65.0,0.3,1.3421089285714285,2.978708823529412,0.0,0.0
98.0,65.0,0.7,1.3421089285714285,2.978708823529412,0.0,0.0
98.0,65.0,1.0,1.3421089285714285,2.978708823529412,0.0,0.0
98.0,73.0,0.1,1.7802803571428572,3.790310227272727,0.0,0.0
98.0,73.0,0.3,1.7802803571428572,3.790310227272727,0.0,0.0
98.0,73.0,0.7,1.7802803571428572,3.790310227272727,0.0,0.0
98.0,73.0,1.0,1.7802803571428572,3.790310227272727,0.0,0.0
98.0,81.0,0.1,2.508928125,4.722823863636363,0.0,0.0
98.0,81.0,0.3,2.508928125,4.722823863636363,0.0,0.0
98.0,81.0,0.7,2.508928125,4.722823863636363,0.0,0.0
98.0,81.0,1.0,2.508928125,4.722823863636363,0.0,0.0
98.0,89.0,0.1,3.4942896341463414,5.6553375,0.0,0.0
98.0,89.0,0.3,3.4942896341463414,5.6553375,0.0,0.0
98.0,89.0,0.7,3.4942896341463414,5.6553375,0.0,0.0
98.0,89.0,1.0,3.4942896341463414,5.6553375,0.0,0.0
98.0,97.0,0.1,4.100628658536586,6.824971710526316,0.0,0.0
98.0,97.0,0.3,4.100628658536586,6.824971710526316,0.0,0.0
98.0,97.0,0.7,4.100628658536586,6.824971710526316,0.0,0.0
98.0,97.0,1.0,4.100628658536586,6.824971710526316,0.0,0.0
98.0,105.0,0.1,4.7069676829268285,7.9946059210526315,0.0,0.0
98.0,105.0,0.3,4.7069676829268285,7.9946059210526315,0.0,0.0
98.0,105.0,0.7,4.7069676829268285,7.9946059210526315,0.0,0.0
98.0,105.0,1.0,4.7069676829268285,7.9946059210526315,0.0,0.0
98.0,113.0,0.1,5.313306707317073,9.164240131578946,0.0,0.0
98.0,113.0,0.3,5.313306707317073,9.164240131578946,0.0,0.0
98.0,113.0,0.7,5.313306707317073,9.164240131578946,0.0,0.0
98.0,113.0,1.0,5.313306707317073,9.164240131578946,0.0,0.0
98.0,121.0,0.1,5.919645731707316,10.333874342105263,0.0,0.0
98.0,121.0,0.3,5.919645731707316,10.333874342105263,0.0,0.0
98.0,121.0,0.7,5.919645731707316,10.333874342105263,0.0,0.0
98.0,121.0,1.0,5.919645731707316,10.333874342105263,0.0,0.0
98.0,127.0,0.1,6.3744,11.2111,0.0,0.0
98.0,127.0,0.3,6.3744,11.2111,0.0,0.0
98.0,127.0,0.7,6.3744,11.2111,0.0,0.0
98.0,127.0,1.0,6.3744,11.2111,0.0,0.0
99.0,1.0,0.1,0.6385431818181818,0.1998488095238095,0.0,0.0
99.0,1.0,0.3,0.6385431818181818,0.1998488095238095,0.0,0.0
99.0,1.0,0.7,0.6385431818181818,0.1998488095238095,0.0,0.0
99.0,1.0,1.0,0.6385431818181818,0.1998488095238095,0.0,0.0
99.0,9.0,0.1,0.6980886363636364,0.3906392857142857,0.0,0.0
99.0,9.0,0.3,0.6980886363636364,0.3906392857142857,0.0,0.0
99.0,9.0,0.7,0.6980886363636364,0.3906392857142857,0.0,0.0
99.0,9.0,1.0,0.6980886363636364,0.3906392857142857,0.0,0.0
99.0,17.0,0.1,0.7576340909090908,0.5814297619047619,0.0,0.0
99.0,17.0,0.3,0.7576340909090908,0.5814297619047619,0.0,0.0
99.0,17.0,0.7,0.7576340909090908,0.5814297619047619,0.0,0.0
99.0,17.0,1.0,0.7576340909090908,0.5814297619047619,0.0,0.0
99.0,25.0,0.1,0.8171795454545454,0.7722202380952381,0.0,0.0
99.0,25.0,0.3,0.8171795454545454,0.7722202380952381,0.0,0.0
99.0,25.0,0.7,0.8171795454545454,0.7722202380952381,0.0,0.0
99.0,25.0,1.0,0.8171795454545454,0.7722202380952381,0.0,0.0
99.0,33.0,0.1,0.876725,0.9630107142857143,0.0,0.0
99.0,33.0,0.3,0.876725,0.9630107142857143,0.0,0.0
99.0,33.0,0.7,0.876725,0.9630107142857143,0.0,0.0
99.0,33.0,1.0,0.876725,0.9630107142857143,0.0,0.0
99.0,41.0,0.1,0.9362704545454545,1.1538011904761905,0.0,0.0
99.0,41.0,0.3,0.9362704545454545,1.1538011904761905,0.0,0.0
99.0,41.0,0.7,0.9362704545454545,1.1538011904761905,0.0,0.0
99.0,41.0,1.0,0.9362704545454545,1.1538011904761905,0.0,0.0
99.0,49.0,0.1,1.040784375,1.9238791666666666,0.0,0.0
99.0,49.0,0.3,1.040784375,1.9238791666666666,0.0,0.0
99.0,49.0,0.7,1.040784375,1.9238791666666666,0.0,0.0
99.0,49.0,1.0,1.040784375,1.9238791666666666,0.0,0.0
99.0,57.0,0.1,1.172279375,2.4947765625,0.0,0.0
99.0,57.0,0.3,1.172279375,2.4947765625,0.0,0.0
99.0,57.0,0.7,1.172279375,2.4947765625,0.0,0.0
99.0,57.0,1.0,1.172279375,2.4947765625,0.0,0.0
99.0,65.0,0.1,1.3512375,2.9716953124999996,0.0,0.0
99.0,65.0,0.3,1.3512375,2.9716953124999996,0.0,0.0
99.0,65.0,0.7,1.3512375,2.9716953124999996,0.0,0.0
99.0,65.0,1.0,1.3512375,2.9716953124999996,0.0,0.0
99.0,73.0,0.1,1.8624375,3.7599021739130434,0.0,0.0
99.0,73.0,0.3,1.8624375,3.7599021739130434,0.0,0.0
99.0,73.0,0.7,1.8624375,3.7599021739130434,0.0,0.0
99.0,73.0,1.0,1.8624375,3.7599021739130434,0.0,0.0
99.0,81.0,0.1,2.660525,4.651871739130435,0.0,0.0
99.0,81.0,0.3,2.660525,4.651871739130435,0.0,0.0
99.0,81.0,0.7,2.660525,4.651871739130435,0.0,0.0
99.0,81.0,1.0,2.660525,4.651871739130435,0.0,0.0
99.0,89.0,0.1,3.4942896341463414,5.543841304347826,0.0,0.0
99.0,89.0,0.3,3.4942896341463414,5.543841304347826,0.0,0.0
99.0,89.0,0.7,3.4942896341463414,5.543841304347826,0.0,0.0
99.0,89.0,1.0,3.4942896341463414,5.543841304347826,0.0,0.0
99.0,97.0,0.1,4.100628658536586,6.706427702702703,0.0,0.0
99.0,97.0,0.3,4.100628658536586,6.706427702702703,0.0,0.0
99.0,97.0,0.7,4.100628658536586,6.706427702702703,0.0,0.0
99.0,97.0,1.0,4.100628658536586,6.706427702702703,0.0,0.0
99.0,105.0,0.1,4.7069676829268285,7.9076736486486485,0.0,0.0
99.0,105.0,0.3,4.7069676829268285,7.9076736486486485,0.0,0.0
99.0,105.0,0.7,4.7069676829268285,7.9076736486486485,0.0,0.0
99.0,105.0,1.0,4.7069676829268285,7.9076736486486485,0.0,0.0
99.0,113.0,0.1,5.313306707317073,9.108919594594594,0.0,0.0
99.0,113.0,0.3,5.313306707317073,9.108919594594594,0.0,0.0
99.0,113.0,0.7,5.313306707317073,9.108919594594594,0.0,0.0
99.0,113.0,1.0,5.313306707317073,9.108919594594594,0.0,0.0
99.0,121.0,0.1,5.919645731707316,10.31016554054054,0.0,0.0
99.0,121.0,0.3,5.919645731707316,10.31016554054054,0.0,0.0
99.0,121.0,0.7,5.919645731707316,10.31016554054054,0.0,0.0
99.0,121.0,1.0,5.919645731707316,10.31016554054054,0.0,0.0
99.0,127.0,0.1,6.3744,11.2111,0.0,0.0
99.0,127.0,0.3,6.3744,11.2111,0.0,0.0
99.0,127.0,0.7,6.3744,11.2111,0.0,0.0
99.0,127.0,1.0,6.3744,11.2111,0.0,0.0
100.0,1.0,0.1,0.638897619047619,0.1998488095238095,0.0,0.0
100.0,1.0,0.3,0.638897619047619,0.1998488095238095,0.0,0.0
100.0,1.0,0.7,0.638897619047619,0.1998488095238095,0.0,0.0
100.0,1.0,1.0,0.638897619047619,0.1998488095238095,0.0,0.0
100.0,9.0,0.1,0.7012785714285714,0.3906392857142857,0.0,0.0
100.0,9.0,0.3,0.7012785714285714,0.3906392857142857,0.0,0.0
100.0,9.0,0.7,0.7012785714285714,0.3906392857142857,0.0,0.0
100.0,9.0,1.0,0.7012785714285714,0.3906392857142857,0.0,0.0
100.0,17.0,0.1,0.7636595238095238,0.5814297619047619,0.0,0.0
100.0,17.0,0.3,0.7636595238095238,0.5814297619047619,0.0,0.0
100.0,17.0,0.7,0.7636595238095238,0.5814297619047619,0.0,0.0
100.0,17.0,1.0,0.7636595238095238,0.5814297619047619,0.0,0.0
100.0,25.0,0.1,0.8260404761904762,0.7722202380952381,0.0,0.0
100.0,25.0,0.3,0.8260404761904762,0.7722202380952381,0.0,0.0
100.0,25.0,0.7,0.8260404761904762,0.7722202380952381,0.0,0.0
100.0,25.0,1.0,0.8260404761904762,0.7722202380952381,0.0,0.0
100.0,33.0,0.1,0.8884214285714286,0.9630107142857143,0.0,0.0
100.0,33.0,0.3,0.8884214285714286,0.9630107142857143,0.0,0.0
100.0,33.0,0.7,0.8884214285714286,0.9630107142857143,0.0,0.0
100.0,33.0,1.0,0.8884214285714286,0.9630107142857143,0.0,0.0
100.0,41.0,0.1,0.9508023809523809,1.1538011904761905,0.0,0.0
100.0,41.0,0.3,0.9508023809523809,1.1538011904761905,0.0,0.0
100.0,41.0,0.7,0.9508023809523809,1.1538011904761905,0.0,0.0
100.0,41.0,1.0,0.9508023809523809,1.1538011904761905,0.0,0.0
100.0,49.0,0.1,1.0681791666666667,1.8492562499999998,0.0,0.0
100.0,49.0,0.3,1.0681791666666667,1.8492562499999998,0.0,0.0
100.0,49.0,0.7,1.0681791666666667,1.8492562499999998,0.0,0.0
100.0,49.0,1.0,1.0681791666666667,1.8492562499999998,0.0,0.0
100.0,57.0,0.1,1.1934125,2.455033333333333,0.0,0.0
100.0,57.0,0.3,1.1934125,2.455033333333333,0.0,0.0
100.0,57.0,0.7,1.1934125,2.455033333333333,0.0,0.0
100.0,57.0,1.0,1.1934125,2.455033333333333,0.0,0.0
100.0,65.0,0.1,1.4151375,2.9637466666666663,0.0,0.0
100.0,65.0,0.3,1.4151375,2.9637466666666663,0.0,0.0
100.0,65.0,0.7,1.4151375,2.9637466666666663,0.0,0.0
100.0,65.0,1.0,1.4151375,2.9637466666666663,0.0,0.0
100.0,73.0,0.1,1.9263375,3.706384,0.0,0.0
100.0,73.0,0.3,1.9263375,3.706384,0.0,0.0
100.0,73.0,0.7,1.9263375,3.706384,0.0,0.0
100.0,73.0,1.0,1.9263375,3.706384,0.0,0.0
100.0,81.0,0.1,2.660525,4.5269960000000005,0.0,0.0
100.0,81.0,0.3,2.660525,4.5269960000000005,0.0,0.0
100.0,81.0,0.7,2.660525,4.5269960000000005,0.0,0.0
100.0,81.0,1.0,2.660525,4.5269960000000005,0.0,0.0
100.0,89.0,0.1,3.422286875,5.347608,0.0,0.0
100.0,89.0,0.3,3.422286875,5.347608,0.0,0.0
100.0,89.0,0.7,3.422286875,5.347608,0.0,0.0
100.0,89.0,1.0,3.422286875,5.347608,0.0,0.0
100.0,97.0,0.1,4.0437843749999995,6.449017857142858,0.0,0.0
100.0,97.0,0.3,4.0437843749999995,6.449017857142858,0.0,0.0
100.0,97.0,0.7,4.0437843749999995,6.449017857142858,0.0,0.0
100.0,97.0,1.0,4.0437843749999995,6.449017857142858,0.0,0.0
100.0,105.0,0.1,4.665281875,7.718906428571429,0.0,0.0
100.0,105.0,0.3,4.665281875,7.718906428571429,0.0,0.0
100.0,105.0,0.7,4.665281875,7.718906428571429,0.0,0.0
100.0,105.0,1.0,4.665281875,7.718906428571429,0.0,0.0
100.0,113.0,0.1,5.286779375,8.988795,0.0,0.0
100.0,113.0,0.3,5.286779375,8.988795,0.0,0.0
100.0,113.0,0.7,5.286779375,8.988795,0.0,0.0
100.0,113.0,1.0,5.286779375,8.988795,0.0,0.0
100.0,121.0,0.1,5.908276875,10.258683571428572,0.0,0.0
100.0,121.0,0.3,5.908276875,10.258683571428572,0.0,0.0
100.0,121.0,0.7,5.908276875,10.258683571428572,0.0,0.0
100.0,121.0,1.0,5.908276875,10.258683571428572,0.0,0.0
100.0,127.0,0.1,6.3744,11.2111,0.0,0.0
100.0,127.0,0.3,6.3744,11.2111,0.0,0.0
100.0,127.0,0.7,6.3744,11.2111,0.0,0.0
100.0,127.0,1.0,6.3744,11.2111,0.0,0.0
101.0,1.0,0.1,0.6392875,0.1992941860465116,0.0,0.0
101.0,1.0,0.3,0.6392875,0.1992941860465116,0.0,0.0
101.0,1.0,0.7,0.6392875,0.1992941860465116,0.0,0.0
101.0,1.0,1.0,0.6392875,0.1992941860465116,0.0,0.0
101.0,9.0,0.1,0.7047875,0.3856476744186046,0.0,0.0
101.0,9.0,0.3,0.7047875,0.3856476744186046,0.0,0.0
101.0,9.0,0.7,0.7047875,0.3856476744186046,0.0,0.0
101.0,9.0,1.0,0.7047875,0.3856476744186046,0.0,0.0
101.0,17.0,0.1,0.7702875,0.5720011627906976,0.0,0.0
101.0,17.0,0.3,0.7702875,0.5720011627906976,0.0,0.0
101.0,17.0,0.7,0.7702875,0.5720011627906976,0.0,0.0
101.0,17.0,1.0,0.7702875,0.5720011627906976,0.0,0.0
101.0,25.0,0.1,0.8357875,0.7583546511627905,0.0,0.0
101.0,25.0,0.3,0.8357875,0.7583546511627905,0.0,0.0
101.0,25.0,0.7,0.8357875,0.7583546511627905,0.0,0.0
101.0,25.0,1.0,0.8357875,0.7583546511627905,0.0,0.0
101.0,33.0,0.1,0.9012875,0.9447081395348838,0.0,0.0
101.0,33.0,0.3,0.9012875,0.9447081395348838,0.0,0.0
101.0,33.0,0.7,0.9012875,0.9447081395348838,0.0,0.0
101.0,33.0,1.0,0.9012875,0.9447081395348838,0.0,0.0
101.0,41.0,0.1,0.9735426136363636,1.1310616279069767,0.0,0.0
101.0,41.0,0.3,0.9735426136363636,1.1310616279069767,0.0,0.0
101.0,41.0,0.7,0.9735426136363636,1.1310616279069767,0.0,0.0
101.0,41.0,1.0,0.9735426136363636,1.1310616279069767,0.0,0.0
101.0,49.0,0.1,1.0930835227272728,1.7009795454545453,0.0,0.0
101.0,49.0,0.3,1.0930835227272728,1.7009795454545453,0.0,0.0
101.0,49.0,0.7,1.0930835227272728,1.7009795454545453,0.0,0.0
101.0,49.0,1.0,1.0930835227272728,1.7009795454545453,0.0,0.0
101.0,57.0,0.1,1.2126244318181818,2.3414812499999997,0.0,0.0
101.0,57.0,0.3,1.2126244318181818,2.3414812499999997,0.0,0.0
101.0,57.0,0.7,1.2126244318181818,2.3414812499999997,0.0,0.0
101.0,57.0,1.0,1.2126244318181818,2.3414812499999997,0.0,0.0
101.0,65.0,0.1,1.4790375,2.88653125,0.0,0.0
101.0,65.0,0.3,1.4790375,2.88653125,0.0,0.0
101.0,65.0,0.7,1.4790375,2.88653125,0.0,0.0
101.0,65.0,1.0,1.4790375,2.88653125,0.0,0.0
101.0,73.0,0.1,1.9902375,3.6038075,0.0,0.0
101.0,73.0,0.3,1.9902375,3.6038075,0.0,0.0
101.0,73.0,0.7,1.9902375,3.6038075,0.0,0.0
101.0,73.0,1.0,1.9902375,3.6038075,0.0,0.0
101.0,81.0,0.1,2.707170192307692,4.4244195,0.0,0.0
101.0,81.0,0.3,2.707170192307692,4.4244195,0.0,0.0
101.0,81.0,0.7,2.707170192307692,4.4244195,0.0,0.0
101.0,81.0,1.0,2.707170192307692,4.4244195,0.0,0.0
101.0,89.0,0.1,3.422286875,5.2450315,0.0,0.0
101.0,89.0,0.3,3.422286875,5.2450315,0.0,0.0
101.0,89.0,0.7,3.422286875,5.2450315,0.0,0.0
101.0,89.0,1.0,3.422286875,5.2450315,0.0,0.0
101.0,97.0,0.1,4.0437843749999995,6.308956617647059,0.0,0.0
101.0,97.0,0.3,4.0437843749999995,6.308956617647059,0.0,0.0
101.0,97.0,0.7,4.0437843749999995,6.308956617647059,0.0,0.0
101.0,97.0,1.0,4.0437843749999995,6.308956617647059,0.0,0.0
101.0,105.0,0.1,4.665281875,7.6161948529411765,0.0,0.0
101.0,105.0,0.3,4.665281875,7.6161948529411765,0.0,0.0
101.0,105.0,0.7,4.665281875,7.6161948529411765,0.0,0.0
101.0,105.0,1.0,4.665281875,7.6161948529411765,0.0,0.0
101.0,113.0,0.1,5.286779375,8.923433088235294,0.0,0.0
101.0,113.0,0.3,5.286779375,8.923433088235294,0.0,0.0
101.0,113.0,0.7,5.286779375,8.923433088235294,0.0,0.0
101.0,113.0,1.0,5.286779375,8.923433088235294,0.0,0.0
101.0,121.0,0.1,5.908276875,10.23067132352941,0.0,0.0
101.0,121.0,0.3,5.908276875,10.23067132352941,0.0,0.0
101.0,121.0,0.7,5.908276875,10.23067132352941,0.0,0.0
101.0,121.0,1.0,5.908276875,10.23067132352941,0.0,0.0
101.0,127.0,0.1,6.3744,11.2111,0.0,0.0
101.0,127.0,0.3,6.3744,11.2111,0.0,0.0
101.0,127.0,0.7,6.3744,11.2111,0.0,0.0
101.0,127.0,1.0,6.3744,11.2111,0.0,0.0
102.0,1.0,0.1,0.6394974358974359,0.19876477272727272,0.0,0.0
102.0,1.0,0.3,0.6394974358974359,0.19876477272727272,0.0,0.0
102.0,1.0,0.7,0.6394974358974359,0.19876477272727272,0.0,0.0
102.0,1.0,1.0,0.6394974358974359,0.19876477272727272,0.0,0.0
102.0,9.0,0.1,0.7066769230769231,0.3808829545454545,0.0,0.0
102.0,9.0,0.3,0.7066769230769231,0.3808829545454545,0.0,0.0
102.0,9.0,0.7,0.7066769230769231,0.3808829545454545,0.0,0.0
102.0,9.0,1.0,0.7066769230769231,0.3808829545454545,0.0,0.0
102.0,17.0,0.1,0.7738564102564103,0.5630011363636364,0.0,0.0
102.0,17.0,0.3,0.7738564102564103,0.5630011363636364,0.0,0.0
102.0,17.0,0.7,0.7738564102564103,0.5630011363636364,0.0,0.0
102.0,17.0,1.0,0.7738564102564103,0.5630011363636364,0.0,0.0
102.0,25.0,0.1,0.8410358974358975,0.7451193181818181,0.0,0.0
102.0,25.0,0.3,0.8410358974358975,0.7451193181818181,0.0,0.0
102.0,25.0,0.7,0.8410358974358975,0.7451193181818181,0.0,0.0
102.0,25.0,1.0,0.8410358974358975,0.7451193181818181,0.0,0.0
102.0,33.0,0.1,0.9082153846153846,0.9272374999999999,0.0,0.0
102.0,33.0,0.3,0.9082153846153846,0.9272374999999999,0.0,0.0
102.0,33.0,0.7,0.9082153846153846,0.9272374999999999,0.0,0.0
102.0,33.0,1.0,0.9082153846153846,0.9272374999999999,0.0,0.0
102.0,41.0,0.1,0.9884852272727273,1.1093556818181818,0.0,0.0
102.0,41.0,0.3,0.9884852272727273,1.1093556818181818,0.0,0.0
102.0,41.0,0.7,0.9884852272727273,1.1093556818181818,0.0,0.0
102.0,41.0,1.0,0.9884852272727273,1.1093556818181818,0.0,0.0
102.0,49.0,0.1,1.1080261363636363,1.577415625,0.0,0.0
102.0,49.0,0.3,1.1080261363636363,1.577415625,0.0,0.0
102.0,49.0,0.7,1.1080261363636363,1.577415625,0.0,0.0
102.0,49.0,1.0,1.1080261363636363,1.577415625,0.0,0.0
102.0,57.0,0.1,1.2275670454545455,2.216573958333333,0.0,0.0
102.0,57.0,0.3,1.2275670454545455,2.216573958333333,0.0,0.0
102.0,57.0,0.7,1.2275670454545455,2.216573958333333,0.0,0.0
102.0,57.0,1.0,1.2275670454545455,2.216573958333333,0.0,0.0
102.0,65.0,0.1,1.5429375,2.852465625,0.0,0.0
102.0,65.0,0.3,1.5429375,2.852465625,0.0,0.0
102.0,65.0,0.7,1.5429375,2.852465625,0.0,0.0
102.0,65.0,1.0,1.5429375,2.852465625,0.0,0.0
102.0,73.0,0.1,2.0541375,3.58408125,0.0,0.0
102.0,73.0,0.3,2.0541375,3.58408125,0.0,0.0
102.0,73.0,0.7,2.0541375,3.58408125,0.0,0.0
102.0,73.0,1.0,2.0541375,3.58408125,0.0,0.0
102.0,81.0,0.1,2.7471517857142858,4.37313125,0.0,0.0
102.0,81.0,0.3,2.7471517857142858,4.37313125,0.0,0.0
102.0,81.0,0.7,2.7471517857142858,4.37313125,0.0,0.0
102.0,81.0,1.0,2.7471517857142858,4.37313125,0.0,0.0
102.0,89.0,0.1,3.422286875,5.16218125,0.0,0.0
102.0,89.0,0.3,3.422286875,5.16218125,0.0,0.0
102.0,89.0,0.7,3.422286875,5.16218125,0.0,0.0
102.0,89.0,1.0,3.422286875,5.16218125,0.0,0.0
102.0,97.0,0.1,4.0437843749999995,6.160406818181818,0.0,0.0
102.0,97.0,0.3,4.0437843749999995,6.160406818181818,0.0,0.0
102.0,97.0,0.7,4.0437843749999995,6.160406818181818,0.0,0.0
102.0,97.0,1.0,4.0437843749999995,6.160406818181818,0.0,0.0
102.0,105.0,0.1,4.665281875,7.507258333333334,0.0,0.0
102.0,105.0,0.3,4.665281875,7.507258333333334,0.0,0.0
102.0,105.0,0.7,4.665281875,7.507258333333334,0.0,0.0
102.0,105.0,1.0,4.665281875,7.507258333333334,0.0,0.0
102.0,113.0,0.1,5.286779375,8.85410984848485,0.0,0.0
102.0,113.0,0.3,5.286779375,8.85410984848485,0.0,0.0
102.0,113.0,0.7,5.286779375,8.85410984848485,0.0,0.0
102.0,113.0,1.0,5.286779375,8.85410984848485,0.0,0.0
102.0,121.0,0.1,5.908276875,10.200961363636363,0.0,0.0
102.0,121.0,0.3,5.908276875,10.200961363636363,0.0,0.0
102.0,121.0,0.7,5.908276875,10.200961363636363,0.0,0.0
102.0,121.0,1.0,5.908276875,10.200961363636363,0.0,0.0
102.0,127.0,0.1,6.3744,11.2111,0.0,0.0
102.0,127.0,0.3,6.3744,11.2111,0.0,0.0
102.0,127.0,0.7,6.3744,11.2111,0.0,0.0
102.0,127.0,1.0,6.3744,11.2111,0.0,0.0
103.0,1.0,0.1,0.6399513513513514,0.19876477272727272,0.0,0.0
103.0,1.0,0.3,0.6399513513513514,0.19876477272727272,0.0,0.0
103.0,1.0,0.7,0.6399513513513514,0.19876477272727272,0.0,0.0
103.0,1.0,1.0,0.6399513513513514,0.19876477272727272,0.0,0.0
103.0,9.0,0.1,0.7107621621621621,0.3808829545454545,0.0,0.0
103.0,9.0,0.3,0.7107621621621621,0.3808829545454545,0.0,0.0
103.0,9.0,0.7,0.7107621621621621,0.3808829545454545,0.0,0.0
103.0,9.0,1.0,0.7107621621621621,0.3808829545454545,0.0,0.0
103.0,17.0,0.1,0.781572972972973,0.5630011363636364,0.0,0.0
103.0,17.0,0.3,0.781572972972973,0.5630011363636364,0.0,0.0
103.0,17.0,0.7,0.781572972972973,0.5630011363636364,0.0,0.0
103.0,17.0,1.0,0.781572972972973,0.5630011363636364,0.0,0.0
103.0,25.0,0.1,0.8523837837837838,0.7451193181818181,0.0,0.0
103.0,25.0,0.3,0.8523837837837838,0.7451193181818181,0.0,0.0
103.0,25.0,0.7,0.8523837837837838,0.7451193181818181,0.0,0.0
103.0,25.0,1.0,0.8523837837837838,0.7451193181818181,0.0,0.0
103.0,33.0,0.1,0.9231945945945945,0.9272374999999999,0.0,0.0
103.0,33.0,0.3,0.9231945945945945,0.9272374999999999,0.0,0.0
103.0,33.0,0.7,0.9231945945945945,0.9272374999999999,0.0,0.0
103.0,33.0,1.0,0.9231945945945945,0.9272374999999999,0.0,0.0
103.0,41.0,0.1,1.0157717391304348,1.1093556818181818,0.0,0.0
103.0,41.0,0.3,1.0157717391304348,1.1093556818181818,0.0,0.0
103.0,41.0,0.7,1.0157717391304348,1.1093556818181818,0.0,0.0
103.0,41.0,1.0,1.0157717391304348,1.1093556818181818,0.0,0.0
103.0,49.0,0.1,1.1301152173913045,1.546664423076923,0.0,0.0
103.0,49.0,0.3,1.1301152173913045,1.546664423076923,0.0,0.0
103.0,49.0,0.7,1.1301152173913045,1.546664423076923,0.0,0.0
103.0,49.0,1.0,1.1301152173913045,1.546664423076923,0.0,0.0
103.0,57.0,0.1,1.244458695652174,2.1370875,0.0,0.0
103.0,57.0,0.3,1.244458695652174,2.1370875,0.0,0.0
103.0,57.0,0.7,1.244458695652174,2.1370875,0.0,0.0
103.0,57.0,1.0,1.244458695652174,2.1370875,0.0,0.0
103.0,65.0,0.1,1.6068375000000001,2.8307875,0.0,0.0
103.0,65.0,0.3,1.6068375000000001,2.8307875,0.0,0.0
103.0,65.0,0.7,1.6068375000000001,2.8307875,0.0,0.0
103.0,65.0,1.0,1.6068375000000001,2.8307875,0.0,0.0
103.0,73.0,0.1,2.1299359375,3.5488558035714286,0.0,0.0
103.0,73.0,0.3,2.1299359375,3.5488558035714286,0.0,0.0
103.0,73.0,0.7,2.1299359375,3.5488558035714286,0.0,0.0
103.0,73.0,1.0,2.1299359375,3.5488558035714286,0.0,0.0
103.0,81.0,0.1,2.7363234375000003,4.281545089285714,0.0,0.0
103.0,81.0,0.3,2.7363234375000003,4.281545089285714,0.0,0.0
103.0,81.0,0.7,2.7363234375000003,4.281545089285714,0.0,0.0
103.0,81.0,1.0,2.7363234375000003,4.281545089285714,0.0,0.0
103.0,89.0,0.1,3.346591666666667,5.014234375,0.0,0.0
103.0,89.0,0.3,3.346591666666667,5.014234375,0.0,0.0
103.0,89.0,0.7,3.346591666666667,5.014234375,0.0,0.0
103.0,89.0,1.0,3.346591666666667,5.014234375,0.0,0.0
103.0,97.0,0.1,3.984025,5.8345556451612905,0.0,0.0
103.0,97.0,0.3,3.984025,5.8345556451612905,0.0,0.0
103.0,97.0,0.7,3.984025,5.8345556451612905,0.0,0.0
103.0,97.0,1.0,3.984025,5.8345556451612905,0.0,0.0
103.0,105.0,0.1,4.621458333333333,7.268300806451613,0.0,0.0
103.0,105.0,0.3,4.621458333333333,7.268300806451613,0.0,0.0
103.0,105.0,0.7,4.621458333333333,7.268300806451613,0.0,0.0
103.0,105.0,1.0,4.621458333333333,7.268300806451613,0.0,0.0
103.0,113.0,0.1,5.258891666666666,8.702045967741935,0.0,0.0
103.0,113.0,0.3,5.258891666666666,8.702045967741935,0.0,0.0
103.0,113.0,0.7,5.258891666666666,8.702045967741935,0.0,0.0
103.0,113.0,1.0,5.258891666666666,8.702045967741935,0.0,0.0
103.0,121.0,0.1,5.896324999999999,10.135791129032258,0.0,0.0
103.0,121.0,0.3,5.896324999999999,10.135791129032258,0.0,0.0
103.0,121.0,0.7,5.896324999999999,10.135791129032258,0.0,0.0
103.0,121.0,1.0,5.896324999999999,10.135791129032258,0.0,0.0
103.0,127.0,0.1,6.3744,11.2111,0.0,0.0
103.0,127.0,0.3,6.3744,11.2111,0.0,0.0
103.0,127.0,0.7,6.3744,11.2111,0.0,0.0
103.0,127.0,1.0,6.3744,11.2111,0.0,0.0
104.0,1.0,0.1,0.6401972222222222,0.19825888888888887,0.0,0.0
104.0,1.0,0.3,0.6401972222222222,0.19825888888888887,0.0,0.0
104.0,1.0,0.7,0.6401972222222222,0.19825888888888887,0.0,0.0
104.0,1.0,1.0,0.6401972222222222,0.19825888888888887,0.0,0.0
104.0,9.0,0.1,0.712975,0.37632999999999994,0.0,0.0
104.0,9.0,0.3,0.712975,0.37632999999999994,0.0,0.0
104.0,9.0,0.7,0.712975,0.37632999999999994,0.0,0.0
104.0,9.0,1.0,0.712975,0.37632999999999994,0.0,0.0
104.0,17.0,0.1,0.7857527777777777,0.5544011111111111,0.0,0.0
104.0,17.0,0.3,0.7857527777777777,0.5544011111111111,0.0,0.0
104.0,17.0,0.7,0.7857527777777777,0.5544011111111111,0.0,0.0
104.0,17.0,1.0,0.7857527777777777,0.5544011111111111,0.0,0.0
104.0,25.0,0.1,0.8585305555555556,0.7324722222222222,0.0,0.0
104.0,25.0,0.3,0.8585305555555556,0.7324722222222222,0.0,0.0
104.0,25.0,0.7,0.8585305555555556,0.7324722222222222,0.0,0.0
104.0,25.0,1.0,0.8585305555555556,0.7324722222222222,0.0,0.0
104.0,33.0,0.1,0.9313083333333333,0.9105433333333333,0.0,0.0
104.0,33.0,0.3,0.9313083333333333,0.9105433333333333,0.0,0.0
104.0,33.0,0.7,0.9313083333333333,0.9105433333333333,0.0,0.0
104.0,33.0,1.0,0.9313083333333333,0.9105433333333333,0.0,0.0
104.0,41.0,0.1,1.0300646739130435,1.0886144444444443,0.0,0.0
104.0,41.0,0.3,1.0300646739130435,1.0886144444444443,0.0,0.0
104.0,41.0,0.7,1.0300646739130435,1.0886144444444443,0.0,0.0
104.0,41.0,1.0,1.0300646739130435,1.0886144444444443,0.0,0.0
104.0,49.0,0.1,1.1444081521739131,1.4728615384615384,0.0,0.0
104.0,49.0,0.3,1.1444081521739131,1.4728615384615384,0.0,0.0
104.0,49.0,0.7,1.1444081521739131,1.4728615384615384,0.0,0.0
104.0,49.0,1.0,1.1444081521739131,1.4728615384615384,0.0,0.0
104.0,57.0,0.1,1.2587516304347828,2.063284615384615,0.0,0.0
104.0,57.0,0.3,1.2587516304347828,2.063284615384615,0.0,0.0
104.0,57.0,0.7,1.2587516304347828,2.063284615384615,0.0,0.0
104.0,57.0,1.0,1.2587516304347828,2.063284615384615,0.0,0.0
104.0,65.0,0.1,1.6707375,2.744075,0.0,0.0
104.0,65.0,0.3,1.6707375,2.744075,0.0,0.0
104.0,65.0,0.7,1.6707375,2.744075,0.0,0.0
104.0,65.0,1.0,1.6707375,2.744075,0.0,0.0
104.0,73.0,0.1,2.1968169117647056,3.4572696428571428,0.0,0.0
104.0,73.0,0.3,2.1968169117647056,3.4572696428571428,0.0,0.0
104.0,73.0,0.7,2.1968169117647056,3.4572696428571428,0.0,0.0
104.0,73.0,1.0,2.1968169117647056,3.4572696428571428,0.0,0.0
104.0,81.0,0.1,2.767534558823529,4.1899589285714285,0.0,0.0
104.0,81.0,0.3,2.767534558823529,4.1899589285714285,0.0,0.0
104.0,81.0,0.7,2.767534558823529,4.1899589285714285,0.0,0.0
104.0,81.0,1.0,2.767534558823529,4.1899589285714285,0.0,0.0
104.0,89.0,0.1,3.346591666666667,4.922648214285714,0.0,0.0
104.0,89.0,0.3,3.346591666666667,4.922648214285714,0.0,0.0
104.0,89.0,0.7,3.346591666666667,4.922648214285714,0.0,0.0
104.0,89.0,1.0,3.346591666666667,4.922648214285714,0.0,0.0
104.0,97.0,0.1,3.984025,5.6553375,0.0,0.0
104.0,97.0,0.3,3.984025,5.6553375,0.0,0.0
104.0,97.0,0.7,3.984025,5.6553375,0.0,0.0
104.0,97.0,1.0,3.984025,5.6553375,0.0,0.0
104.0,105.0,0.1,4.621458333333333,7.136874166666667,0.0,0.0
104.0,105.0,0.3,4.621458333333333,7.136874166666667,0.0,0.0
104.0,105.0,0.7,4.621458333333333,7.136874166666667,0.0,0.0
104.0,105.0,1.0,4.621458333333333,7.136874166666667,0.0,0.0
104.0,113.0,0.1,5.258891666666666,8.618410833333334,0.0,0.0
104.0,113.0,0.3,5.258891666666666,8.618410833333334,0.0,0.0
104.0,113.0,0.7,5.258891666666666,8.618410833333334,0.0,0.0
104.0,113.0,1.0,5.258891666666666,8.618410833333334,0.0,0.0
104.0,121.0,0.1,5.896324999999999,10.099947499999999,0.0,0.0
104.0,121.0,0.3,5.896324999999999,10.099947499999999,0.0,0.0
104.0,121.0,0.7,5.896324999999999,10.099947499999999,0.0,0.0
104.0,121.0,1.0,5.896324999999999,10.099947499999999,0.0,0.0
104.0,127.0,0.1,6.3744,11.2111,0.0,0.0
104.0,127.0,0.3,6.3744,11.2111,0.0,0.0
104.0,127.0,0.7,6.3744,11.2111,0.0,0.0
104.0,127.0,1.0,6.3744,11.2111,0.0,0.0
105.0,1.0,0.1,0.6407323529411765,0.19777499999999998,0.0,0.0
105.0,1.0,0.3,0.6407323529411765,0.19777499999999998,0.0,0.0
105.0,1.0,0.7,0.6407323529411765,0.19777499999999998,0.0,0.0
105.0,1.0,1.0,0.6407323529411765,0.19777499999999998,0.0,0.0
105.0,9.0,0.1,0.7177911764705882,0.37197499999999994,0.0,0.0
105.0,9.0,0.3,0.7177911764705882,0.37197499999999994,0.0,0.0
105.0,9.0,0.7,0.7177911764705882,0.37197499999999994,0.0,0.0
105.0,9.0,1.0,0.7177911764705882,0.37197499999999994,0.0,0.0
105.0,17.0,0.1,0.7948500000000001,0.546175,0.0,0.0
105.0,17.0,0.3,0.7948500000000001,0.546175,0.0,0.0
105.0,17.0,0.7,0.7948500000000001,0.546175,0.0,0.0
105.0,17.0,1.0,0.7948500000000001,0.546175,0.0,0.0
105.0,25.0,0.1,0.8719088235294118,0.720375,0.0,0.0
105.0,25.0,0.3,0.8719088235294118,0.720375,0.0,0.0
105.0,25.0,0.7,0.8719088235294118,0.720375,0.0,0.0
105.0,25.0,1.0,0.8719088235294118,0.720375,0.0,0.0
105.0,33.0,0.1,0.9489676470588235,0.8945749999999999,0.0,0.0
105.0,33.0,0.3,0.9489676470588235,0.8945749999999999,0.0,0.0
105.0,33.0,0.7,0.9489676470588235,0.8945749999999999,0.0,0.0
105.0,33.0,1.0,0.9489676470588235,0.8945749999999999,0.0,0.0
105.0,41.0,0.1,1.0544817708333334,1.068775,0.0,0.0
105.0,41.0,0.3,1.0544817708333334,1.068775,0.0,0.0
105.0,41.0,0.7,1.0544817708333334,1.068775,0.0,0.0
105.0,41.0,1.0,1.0544817708333334,1.068775,0.0,0.0
105.0,49.0,0.1,1.1640609375,1.3832437499999999,0.0,0.0
105.0,49.0,0.3,1.1640609375,1.3832437499999999,0.0,0.0
105.0,49.0,0.7,1.1640609375,1.3832437499999999,0.0,0.0
105.0,49.0,1.0,1.1640609375,1.3832437499999999,0.0,0.0
105.0,57.0,0.1,1.2736401041666667,1.93149375,0.0,0.0
105.0,57.0,0.3,1.2736401041666667,1.93149375,0.0,0.0
105.0,57.0,0.7,1.2736401041666667,1.93149375,0.0,0.0
105.0,57.0,1.0,1.2736401041666667,1.93149375,0.0,0.0
105.0,65.0,0.1,1.7346375,2.6669972222222222,0.0,0.0
105.0,65.0,0.3,1.7346375,2.6669972222222222,0.0,0.0
105.0,65.0,0.7,1.7346375,2.6669972222222222,0.0,0.0
105.0,65.0,1.0,1.7346375,2.6669972222222222,0.0,0.0
105.0,73.0,0.1,2.256266666666667,3.444637068965517,0.0,0.0
105.0,73.0,0.3,2.256266666666667,3.444637068965517,0.0,0.0
105.0,73.0,0.7,2.256266666666667,3.444637068965517,0.0,0.0
105.0,73.0,1.0,2.256266666666667,3.444637068965517,0.0,0.0
105.0,81.0,0.1,2.7952777777777778,4.152061206896551,0.0,0.0
105.0,81.0,0.3,2.7952777777777778,4.152061206896551,0.0,0.0
105.0,81.0,0.7,2.7952777777777778,4.152061206896551,0.0,0.0
105.0,81.0,1.0,2.7952777777777778,4.152061206896551,0.0,0.0
105.0,89.0,0.1,3.346591666666667,4.859485344827586,0.0,0.0
105.0,89.0,0.3,3.346591666666667,4.859485344827586,0.0,0.0
105.0,89.0,0.7,3.346591666666667,4.859485344827586,0.0,0.0
105.0,89.0,1.0,3.346591666666667,4.859485344827586,0.0,0.0
105.0,97.0,0.1,3.984025,5.5669094827586205,0.0,0.0
105.0,97.0,0.3,3.984025,5.5669094827586205,0.0,0.0
105.0,97.0,0.7,3.984025,5.5669094827586205,0.0,0.0
105.0,97.0,1.0,3.984025,5.5669094827586205,0.0,0.0
105.0,105.0,0.1,4.621458333333333,6.996383620689655,0.0,0.0
105.0,105.0,0.3,4.621458333333333,6.996383620689655,0.0,0.0
105.0,105.0,0.7,4.621458333333333,6.996383620689655,0.0,0.0
105.0,105.0,1.0,4.621458333333333,6.996383620689655,0.0,0.0
105.0,113.0,0.1,5.258891666666666,8.52900775862069,0.0,0.0
105.0,113.0,0.3,5.258891666666666,8.52900775862069,0.0,0.0
105.0,113.0,0.7,5.258891666666666,8.52900775862069,0.0,0.0
105.0,113.0,1.0,5.258891666666666,8.52900775862069,0.0,0.0
105.0,121.0,0.1,5.896324999999999,10.061631896551724,0.0,0.0
105.0,121.0,0.3,5.896324999999999,10.061631896551724,0.0,0.0
105.0,121.0,0.7,5.896324999999999,10.061631896551724,0.0,0.0
105.0,121.0,1.0,5.896324999999999,10.061631896551724,0.0,0.0
105.0,127.0,0.1,6.3744,11.2111,0.0,0.0
105.0,127.0,0.3,6.3744,11.2111,0.0,0.0
105.0,127.0,0.7,6.3744,11.2111,0.0,0.0
105.0,127.0,1.0,6.3744,11.2111,0.0,0.0
106.0,1.0,0.1,0.6404571428571428,0.19686770833333334,0.0,0.0
106.0,1.0,0.3,0.6404571428571428,0.19686770833333334,0.0,0.0
106.0,1.0,0.7,0.6404571428571428,0.19686770833333334,0.0,0.0
106.0,1.0,1.0,0.6404571428571428,0.19686770833333334,0.0,0.0
106.0,9.0,0.1,0.7153142857142857,0.363809375,0.0,0.0
106.0,9.0,0.3,0.7153142857142857,0.363809375,0.0,0.0
106.0,9.0,0.7,0.7153142857142857,0.363809375,0.0,0.0
106.0,9.0,1.0,0.7153142857142857,0.363809375,0.0,0.0
106.0,17.0,0.1,0.7901714285714285,0.5307510416666666,0.0,0.0
106.0,17.0,0.3,0.7901714285714285,0.5307510416666666,0.0,0.0
106.0,17.0,0.7,0.7901714285714285,0.5307510416666666,0.0,0.0
106.0,17.0,1.0,0.7901714285714285,0.5307510416666666,0.0,0.0
106.0,25.0,0.1,0.8650285714285715,0.6976927083333333,0.0,0.0
106.0,25.0,0.3,0.8650285714285715,0.6976927083333333,0.0,0.0
106.0,25.0,0.7,0.8650285714285715,0.6976927083333333,0.0,0.0
106.0,25.0,1.0,0.8650285714285715,0.6976927083333333,0.0,0.0
106.0,33.0,0.1,0.9398857142857142,0.8646343749999998,0.0,0.0
106.0,33.0,0.3,0.9398857142857142,0.8646343749999998,0.0,0.0
106.0,33.0,0.7,0.9398857142857142,0.8646343749999998,0.0,0.0
106.0,33.0,1.0,0.9398857142857142,0.8646343749999998,0.0,0.0
106.0,41.0,0.1,1.040784375,1.0315760416666666,0.0,0.0
106.0,41.0,0.3,1.040784375,1.0315760416666666,0.0,0.0
106.0,41.0,0.7,1.040784375,1.0315760416666666,0.0,0.0
106.0,41.0,1.0,1.040784375,1.0315760416666666,0.0,0.0
106.0,49.0,0.1,1.1503635416666667,1.2735937499999999,0.0,0.0
106.0,49.0,0.3,1.1503635416666667,1.2735937499999999,0.0,0.0
106.0,49.0,0.7,1.1503635416666667,1.2735937499999999,0.0,0.0
106.0,49.0,1.0,1.1503635416666667,1.2735937499999999,0.0,0.0
106.0,57.0,0.1,1.2599427083333334,2.04114375,0.0,0.0
106.0,57.0,0.3,1.2599427083333334,2.04114375,0.0,0.0
106.0,57.0,0.7,1.2599427083333334,2.04114375,0.0,0.0
106.0,57.0,1.0,1.2599427083333334,2.04114375,0.0,0.0
106.0,65.0,0.1,1.557972794117647,2.5822116666666663,0.0,0.0
106.0,65.0,0.3,1.557972794117647,2.5822116666666663,0.0,0.0
106.0,65.0,0.7,1.557972794117647,2.5822116666666663,0.0,0.0
106.0,65.0,1.0,1.557972794117647,2.5822116666666663,0.0,0.0
106.0,73.0,0.1,1.9188198529411764,3.090925,0.0,0.0
106.0,73.0,0.3,1.9188198529411764,3.090925,0.0,0.0
106.0,73.0,0.7,1.9188198529411764,3.090925,0.0,0.0
106.0,73.0,1.0,1.9188198529411764,3.090925,0.0,0.0
106.0,81.0,0.1,2.520589423076923,3.8236142857142856,0.0,0.0
106.0,81.0,0.3,2.520589423076923,3.8236142857142856,0.0,0.0
106.0,81.0,0.7,2.520589423076923,3.8236142857142856,0.0,0.0
106.0,81.0,1.0,2.520589423076923,3.8236142857142856,0.0,0.0
106.0,89.0,0.1,3.2669125,4.556303571428572,0.0,0.0
106.0,89.0,0.3,3.2669125,4.556303571428572,0.0,0.0
106.0,89.0,0.7,3.2669125,4.556303571428572,0.0,0.0
106.0,89.0,1.0,3.2669125,4.556303571428572,0.0,0.0
106.0,97.0,0.1,3.921120394736842,5.288992857142857,0.0,0.0
106.0,97.0,0.3,3.921120394736842,5.288992857142857,0.0,0.0
106.0,97.0,0.7,3.921120394736842,5.288992857142857,0.0,0.0
106.0,97.0,1.0,3.921120394736842,5.288992857142857,0.0,0.0
106.0,105.0,0.1,4.575328289473684,6.510070192307692,0.0,0.0
106.0,105.0,0.3,4.575328289473684,6.510070192307692,0.0,0.0
106.0,105.0,0.7,4.575328289473684,6.510070192307692,0.0,0.0
106.0,105.0,1.0,4.575328289473684,6.510070192307692,0.0,0.0
106.0,113.0,0.1,5.229536184210526,8.219535576923077,0.0,0.0
106.0,113.0,0.3,5.229536184210526,8.219535576923077,0.0,0.0
106.0,113.0,0.7,5.229536184210526,8.219535576923077,0.0,0.0
106.0,113.0,1.0,5.229536184210526,8.219535576923077,0.0,0.0
106.0,121.0,0.1,5.883744078947368,9.929000961538462,0.0,0.0
106.0,121.0,0.3,5.883744078947368,9.929000961538462,0.0,0.0
106.0,121.0,0.7,5.883744078947368,9.929000961538462,0.0,0.0
106.0,121.0,1.0,5.883744078947368,9.929000961538462,0.0,0.0
106.0,127.0,0.1,6.3744,11.2111,0.0,0.0
106.0,127.0,0.3,6.3744,11.2111,0.0,0.0
106.0,127.0,0.7,6.3744,11.2111,0.0,0.0
106.0,127.0,1.0,6.3744,11.2111,0.0,0.0
107.0,1.0,0.1,0.6401972222222222,0.19644183673469387,0.0,0.0
107.0,1.0,0.3,0.6401972222222222,0.19644183673469387,0.0,0.0
107.0,1.0,0.7,0.6401972222222222,0.19644183673469387,0.0,0.0
107.0,1.0,1.0,0.6401972222222222,0.19644183673469387,0.0,0.0
107.0,9.0,0.1,0.712975,0.3599765306122449,0.0,0.0
107.0,9.0,0.3,0.712975,0.3599765306122449,0.0,0.0
107.0,9.0,0.7,0.712975,0.3599765306122449,0.0,0.0
107.0,9.0,1.0,0.712975,0.3599765306122449,0.0,0.0
107.0,17.0,0.1,0.7857527777777777,0.5235112244897959,0.0,0.0
107.0,17.0,0.3,0.7857527777777777,0.5235112244897959,0.0,0.0
107.0,17.0,0.7,0.7857527777777777,0.5235112244897959,0.0,0.0
107.0,17.0,1.0,0.7857527777777777,0.5235112244897959,0.0,0.0
107.0,25.0,0.1,0.8585305555555556,0.687045918367347,0.0,0.0
107.0,25.0,0.3,0.8585305555555556,0.687045918367347,0.0,0.0
107.0,25.0,0.7,0.8585305555555556,0.687045918367347,0.0,0.0
107.0,25.0,1.0,0.8585305555555556,0.687045918367347,0.0,0.0
107.0,33.0,0.1,0.9313083333333333,0.850580612244898,0.0,0.0
107.0,33.0,0.3,0.9313083333333333,0.850580612244898,0.0,0.0
107.0,33.0,0.7,0.9313083333333333,0.850580612244898,0.0,0.0
107.0,33.0,1.0,0.9313083333333333,0.850580612244898,0.0,0.0
107.0,41.0,0.1,1.0243475,1.0141153061224488,0.0,0.0
107.0,41.0,0.3,1.0243475,1.0141153061224488,0.0,0.0
107.0,41.0,0.7,1.0243475,1.0141153061224488,0.0,0.0
107.0,41.0,1.0,1.0243475,1.0141153061224488,0.0,0.0
107.0,49.0,0.1,1.1295435,1.1776499999999999,0.0,0.0
107.0,49.0,0.3,1.1295435,1.1776499999999999,0.0,0.0
107.0,49.0,0.7,1.1295435,1.1776499999999999,0.0,0.0
107.0,49.0,1.0,1.1295435,1.1776499999999999,0.0,0.0
107.0,57.0,0.1,1.2347395,2.1825083333333333,0.0,0.0
107.0,57.0,0.3,1.2347395,2.1825083333333333,0.0,0.0
107.0,57.0,0.7,1.2347395,2.1825083333333333,0.0,0.0
107.0,57.0,1.0,1.2347395,2.1825083333333333,0.0,0.0
107.0,65.0,0.1,1.4406975,2.5458749999999997,0.0,0.0
107.0,65.0,0.3,1.4406975,2.5458749999999997,0.0,0.0
107.0,65.0,0.7,1.4406975,2.5458749999999997,0.0,0.0
107.0,65.0,1.0,1.4406975,2.5458749999999997,0.0,0.0
107.0,73.0,0.1,1.7474175,2.9092416666666665,0.0,0.0
107.0,73.0,0.3,1.7474175,2.9092416666666665,0.0,0.0
107.0,73.0,0.7,1.7474175,2.9092416666666665,0.0,0.0
107.0,73.0,1.0,1.7474175,2.9092416666666665,0.0,0.0
107.0,81.0,0.1,2.0541375,3.48545,0.0,0.0
107.0,81.0,0.3,2.0541375,3.48545,0.0,0.0
107.0,81.0,0.7,2.0541375,3.48545,0.0,0.0
107.0,81.0,1.0,2.0541375,3.48545,0.0,0.0
107.0,89.0,0.1,3.0243575,4.2745,0.0,0.0
107.0,89.0,0.3,3.0243575,4.2745,0.0,0.0
107.0,89.0,0.7,3.0243575,4.2745,0.0,0.0
107.0,89.0,1.0,3.0243575,4.2745,0.0,0.0
107.0,97.0,0.1,3.7848270833333335,5.06355,0.0,0.0
107.0,97.0,0.3,3.7848270833333335,5.06355,0.0,0.0
107.0,97.0,0.7,3.7848270833333335,5.06355,0.0,0.0
107.0,97.0,1.0,3.7848270833333335,5.06355,0.0,0.0
107.0,105.0,0.1,4.4753798611111115,6.1183177083333335,0.0,0.0
107.0,105.0,0.3,4.4753798611111115,6.1183177083333335,0.0,0.0
107.0,105.0,0.7,4.4753798611111115,6.1183177083333335,0.0,0.0
107.0,105.0,1.0,4.4753798611111115,6.1183177083333335,0.0,0.0
107.0,113.0,0.1,5.165932638888888,7.970238541666667,0.0,0.0
107.0,113.0,0.3,5.165932638888888,7.970238541666667,0.0,0.0
107.0,113.0,0.7,5.165932638888888,7.970238541666667,0.0,0.0
107.0,113.0,1.0,5.165932638888888,7.970238541666667,0.0,0.0
107.0,121.0,0.1,5.856485416666667,9.822159375,0.0,0.0
107.0,121.0,0.3,5.856485416666667,9.822159375,0.0,0.0
107.0,121.0,0.7,5.856485416666667,9.822159375,0.0,0.0
107.0,121.0,1.0,5.856485416666667,9.822159375,0.0,0.0
107.0,127.0,0.1,6.3744,11.2111,0.0,0.0
107.0,127.0,0.3,6.3744,11.2111,0.0,0.0
107.0,127.0,0.7,6.3744,11.2111,0.0,0.0
107.0,127.0,1.0,6.3744,11.2111,0.0,0.0
108.0,1.0,0.1,0.6399513513513514,0.19564019607843136,0.0,0.0
108.0,1.0,0.3,0.6399513513513514,0.19564019607843136,0.0,0.0
108.0,1.0,0.7,0.6399513513513514,0.19564019607843136,0.0,0.0
108.0,1.0,1.0,0.6399513513513514,0.19564019607843136,0.0,0.0
108.0,9.0,0.1,0.7107621621621621,0.35276176470588233,0.0,0.0
108.0,9.0,0.3,0.7107621621621621,0.35276176470588233,0.0,0.0
108.0,9.0,0.7,0.7107621621621621,0.35276176470588233,0.0,0.0
108.0,9.0,1.0,0.7107621621621621,0.35276176470588233,0.0,0.0
108.0,17.0,0.1,0.781572972972973,0.5098833333333332,0.0,0.0
108.0,17.0,0.3,0.781572972972973,0.5098833333333332,0.0,0.0
108.0,17.0,0.7,0.781572972972973,0.5098833333333332,0.0,0.0
108.0,17.0,1.0,0.781572972972973,0.5098833333333332,0.0,0.0
108.0,25.0,0.1,0.8523837837837838,0.6670049019607842,0.0,0.0
108.0,25.0,0.3,0.8523837837837838,0.6670049019607842,0.0,0.0
108.0,25.0,0.7,0.8523837837837838,0.6670049019607842,0.0,0.0
108.0,25.0,1.0,0.8523837837837838,0.6670049019607842,0.0,0.0
108.0,33.0,0.1,0.9231945945945945,0.8241264705882352,0.0,0.0
108.0,33.0,0.3,0.9231945945945945,0.8241264705882352,0.0,0.0
108.0,33.0,0.7,0.9231945945945945,0.8241264705882352,0.0,0.0
108.0,33.0,1.0,0.9231945945945945,0.8241264705882352,0.0,0.0
108.0,41.0,0.1,1.011198,0.9812480392156862,0.0,0.0
108.0,41.0,0.3,1.011198,0.9812480392156862,0.0,0.0
108.0,41.0,0.7,1.011198,0.9812480392156862,0.0,0.0
108.0,41.0,1.0,1.011198,0.9812480392156862,0.0,0.0
108.0,49.0,0.1,1.116394,1.1383696078431371,0.0,0.0
108.0,49.0,0.3,1.116394,1.1383696078431371,0.0,0.0
108.0,49.0,0.7,1.116394,1.1383696078431371,0.0,0.0
108.0,49.0,1.0,1.116394,1.1383696078431371,0.0,0.0
108.0,57.0,0.1,1.22159,2.243069444444444,0.0,0.0
108.0,57.0,0.3,1.22159,2.243069444444444,0.0,0.0
108.0,57.0,0.7,1.22159,2.243069444444444,0.0,0.0
108.0,57.0,1.0,1.22159,2.243069444444444,0.0,0.0
108.0,65.0,0.1,1.3793535000000001,2.5256879629629627,0.0,0.0
108.0,65.0,0.3,1.3793535000000001,2.5256879629629627,0.0,0.0
108.0,65.0,0.7,1.3793535000000001,2.5256879629629627,0.0,0.0
108.0,65.0,1.0,1.3793535000000001,2.5256879629629627,0.0,0.0
108.0,73.0,0.1,1.6247295,2.8083064814814813,0.0,0.0
108.0,73.0,0.3,1.6247295,2.8083064814814813,0.0,0.0
108.0,73.0,0.7,1.6247295,2.8083064814814813,0.0,0.0
108.0,73.0,1.0,1.6247295,2.8083064814814813,0.0,0.0
108.0,81.0,0.1,1.8701055,3.090925,0.0,0.0
108.0,81.0,0.3,1.8701055,3.090925,0.0,0.0
108.0,81.0,0.7,1.8701055,3.090925,0.0,0.0
108.0,81.0,1.0,1.8701055,3.090925,0.0,0.0
108.0,89.0,0.1,2.5392475,3.911537,0.0,0.0
108.0,89.0,0.3,2.5392475,3.911537,0.0,0.0
108.0,89.0,0.7,2.5392475,3.911537,0.0,0.0
108.0,89.0,1.0,2.5392475,3.911537,0.0,0.0
108.0,97.0,0.1,3.7108392857142856,4.732149,0.0,0.0
108.0,97.0,0.3,3.7108392857142856,4.732149,0.0,0.0
108.0,97.0,0.7,3.7108392857142856,4.732149,0.0,0.0
108.0,97.0,1.0,3.7108392857142856,4.732149,0.0,0.0
108.0,105.0,0.1,4.421122142857143,5.552761,0.0,0.0
108.0,105.0,0.3,4.421122142857143,5.552761,0.0,0.0
108.0,105.0,0.7,4.421122142857143,5.552761,0.0,0.0
108.0,105.0,1.0,4.421122142857143,5.552761,0.0,0.0
108.0,113.0,0.1,5.131405,7.507258333333334,0.0,0.0
108.0,113.0,0.3,5.131405,7.507258333333334,0.0,0.0
108.0,113.0,0.7,5.131405,7.507258333333334,0.0,0.0
108.0,113.0,1.0,5.131405,7.507258333333334,0.0,0.0
108.0,121.0,0.1,5.8416878571428565,9.623739285714286,0.0,0.0
108.0,121.0,0.3,5.8416878571428565,9.623739285714286,0.0,0.0
108.0,121.0,0.7,5.8416878571428565,9.623739285714286,0.0,0.0
108.0,121.0,1.0,5.8416878571428565,9.623739285714286,0.0,0.0
108.0,127.0,0.1,6.3744,11.2111,0.0,0.0
108.0,127.0,0.3,6.3744,11.2111,0.0,0.0
108.0,127.0,0.7,6.3744,11.2111,0.0,0.0
108.0,127.0,1.0,6.3744,11.2111,0.0,0.0
